<svg xmlns="http://www.w3.org/2000/svg" width="64" height="64" viewBox="0 0 64 64"><defs><linearGradient id="fmn4a" x1="0" x2="64" y1="32" y2="32" gradientUnits="userSpaceOnUse"><stop offset="0" stop-color="#0087cd"/><stop offset="1" stop-color="#5400ff"/></linearGradient></defs><path d="M62.3 30.178L31.149 61.332h14.183a1.334 1.334 0 010 2.667H18.666a1.333 1.333 0 110-2.667h2.326L4.197 44.536h-.001l-2.5-2.5A5.768 5.768 0 010 37.928a5.77 5.77 0 011.696-4.109L33.82 1.695A5.77 5.77 0 0137.927 0a5.77 5.77 0 014.108 1.696L62.3 21.962a5.817 5.817 0 010 8.216zm-1.885-6.33L49.248 12.68l-30.85 30.85a1.33 1.33 0 01-1.885 0 1.334 1.334 0 010-1.886l30.85-30.85L40.15 3.58a3.118 3.118 0 00-2.223-.915c-.843 0-1.632.324-2.223.915L3.582 35.705c-.59.59-.915 1.38-.915 2.223s.325 1.632.915 2.222l1.557 1.558 30.849-30.852a1.334 1.334 0 011.885 1.886L7.024 43.592l16.824 16.825c.588.59 1.376.914 2.216.915h.01a3.116 3.116 0 002.218-.915l32.123-32.125a3.147 3.147 0 000-4.445zM32.85 40.392L22.358 50.885a1.33 1.33 0 01-1.885 0 1.334 1.334 0 010-1.886l10.491-10.492a1.333 1.333 0 111.886 1.886zm-2.418 8.074c.52.521.52 1.365 0 1.886l-4.303 4.303a1.33 1.33 0 01-1.885 0 1.334 1.334 0 010-1.886l4.303-4.303a1.333 1.333 0 011.885 0zm3.96-3.959c.52.52.52 1.365 0 1.885l-.566.566a1.33 1.33 0 01-1.885 0 1.334 1.334 0 010-1.886l.566-.566c.52-.52 1.364-.52 1.885.001zm20.263-20.265c.52.522.52 1.366 0 1.886l-5.657 5.657a1.33 1.33 0 01-1.885 0l-3.772-3.77a1.334 1.334 0 010-1.887l5.657-5.656a1.332 1.332 0 011.886 0zm-2.829.944L49.941 23.3l-3.771 3.772 1.885 1.884zM39.1 9.63a1.333 1.333 0 010-1.886l.566-.566a1.333 1.333 0 011.885 1.885l-.565.567a1.33 1.33 0 01-1.886 0zM15.287 44.757c.52.52.52 1.365 0 1.885l-.565.566a1.331 1.331 0 01-1.886 0 1.333 1.333 0 010-1.885l.566-.566a1.332 1.332 0 011.885 0z"/><path fill="url(#fmn4a)" d="M62.3 30.178L31.149 61.332h14.183a1.334 1.334 0 010 2.667H18.666a1.333 1.333 0 110-2.667h2.326L4.197 44.536h-.001l-2.5-2.5A5.768 5.768 0 010 37.928a5.77 5.77 0 011.696-4.109L33.82 1.695A5.77 5.77 0 0137.927 0a5.77 5.77 0 014.108 1.696L62.3 21.962a5.817 5.817 0 010 8.216zm-1.885-6.33L49.248 12.68l-30.85 30.85a1.33 1.33 0 01-1.885 0 1.334 1.334 0 010-1.886l30.85-30.85L40.15 3.58a3.118 3.118 0 00-2.223-.915c-.843 0-1.632.324-2.223.915L3.582 35.705c-.59.59-.915 1.38-.915 2.223s.325 1.632.915 2.222l1.557 1.558 30.849-30.852a1.334 1.334 0 011.885 1.886L7.024 43.592l16.824 16.825c.588.59 1.376.914 2.216.915h.01a3.116 3.116 0 002.218-.915l32.123-32.125a3.147 3.147 0 000-4.445zM32.85 40.392L22.358 50.885a1.33 1.33 0 01-1.885 0 1.334 1.334 0 010-1.886l10.491-10.492a1.333 1.333 0 111.886 1.886zm-2.418 8.074c.52.521.52 1.365 0 1.886l-4.303 4.303a1.33 1.33 0 01-1.885 0 1.334 1.334 0 010-1.886l4.303-4.303a1.333 1.333 0 011.885 0zm3.96-3.959c.52.52.52 1.365 0 1.885l-.566.566a1.33 1.33 0 01-1.885 0 1.334 1.334 0 010-1.886l.566-.566c.52-.52 1.364-.52 1.885.001zm20.263-20.265c.52.522.52 1.366 0 1.886l-5.657 5.657a1.33 1.33 0 01-1.885 0l-3.772-3.77a1.334 1.334 0 010-1.887l5.657-5.656a1.332 1.332 0 011.886 0zm-2.829.944L49.941 23.3l-3.771 3.772 1.885 1.884zM39.1 9.63a1.333 1.333 0 010-1.886l.566-.566a1.333 1.333 0 011.885 1.885l-.565.567a1.33 1.33 0 01-1.886 0zM15.287 44.757c.52.52.52 1.365 0 1.885l-.565.566a1.331 1.331 0 01-1.886 0 1.333 1.333 0 010-1.885l.566-.566a1.332 1.332 0 011.885 0z"/></svg>