<svg xmlns="http://www.w3.org/2000/svg" width="54" height="68" viewBox="0 0 54 68"><defs><linearGradient id="uy8ia" x1="0" x2="54" y1="34" y2="34.03" gradientUnits="userSpaceOnUse"><stop offset="0" stop-color="#0087cd"/><stop offset="1" stop-color="#5400ff"/></linearGradient></defs><g><g><path d="M54 38.5v13.781c0 .656-.528 1.188-1.18 1.188h-2.292v9.258c0 2.906-2.347 5.271-5.232 5.271H1.18a1.183 1.183 0 0 1-1.18-1.187V23.973c0-.657.528-1.189 1.18-1.189h3.044L21.414.491c.4-.519 1.14-.613 1.655-.21l4.101 3.21 6.964-2.34c.297-.1.62-.077.9.064.28.141.493.388.592.687l3.668 11.078 6.68 5.228c.514.402.607 1.149.207 1.667l-2.243 2.91h1.358c2.885 0 5.232 2.364 5.232 5.27v9.258h2.293c.651 0 1.179.533 1.179 1.188zM43.596 19.356l-3.463-2.71a5.712 5.712 0 0 0-.568 2.5c0 1.342.458 2.616 1.297 3.64h.09zM29.409 5.244l6.53 5.11-2.177-6.574zm-9.546 1.13a5.606 5.606 0 0 0 2.483.573 5.618 5.618 0 0 0 3.667-1.353l-3.46-2.708zM7.21 22.785h30.853a8.112 8.112 0 0 1-.856-3.638c0-1.417.356-2.772 1.036-3.98l-10.34-8.092a7.951 7.951 0 0 1-5.557 2.249 7.907 7.907 0 0 1-3.95-1.045zm40.96 39.943V53.47H37.021a1.183 1.183 0 0 1-1.18-1.188v-13.78c0-.655.528-1.188 1.18-1.188h11.147v-9.257c0-1.597-1.289-2.895-2.873-2.895H2.358v40.46h42.938c1.584 0 2.873-1.297 2.873-2.894zm3.472-23.038H38.2v11.404h13.44zm-10.258 5.703c0-1.966 1.587-3.564 3.537-3.564s3.537 1.598 3.537 3.564c0 1.964-1.586 3.562-3.537 3.562-1.95 0-3.537-1.598-3.537-3.562zm2.358 0c0 .654.53 1.187 1.18 1.187.65 0 1.178-.533 1.178-1.187 0-.656-.529-1.189-1.179-1.189s-1.179.533-1.179 1.189z"/><path fill="url(#uy8ia)" d="M54 38.5v13.781c0 .656-.528 1.188-1.18 1.188h-2.292v9.258c0 2.906-2.347 5.271-5.232 5.271H1.18a1.183 1.183 0 0 1-1.18-1.187V23.973c0-.657.528-1.189 1.18-1.189h3.044L21.414.491c.4-.519 1.14-.613 1.655-.21l4.101 3.21 6.964-2.34c.297-.1.62-.077.9.064.28.141.493.388.592.687l3.668 11.078 6.68 5.228c.514.402.607 1.149.207 1.667l-2.243 2.91h1.358c2.885 0 5.232 2.364 5.232 5.27v9.258h2.293c.651 0 1.179.533 1.179 1.188zM43.596 19.356l-3.463-2.71a5.712 5.712 0 0 0-.568 2.5c0 1.342.458 2.616 1.297 3.64h.09zM29.409 5.244l6.53 5.11-2.177-6.574zm-9.546 1.13a5.606 5.606 0 0 0 2.483.573 5.618 5.618 0 0 0 3.667-1.353l-3.46-2.708zM7.21 22.785h30.853a8.112 8.112 0 0 1-.856-3.638c0-1.417.356-2.772 1.036-3.98l-10.34-8.092a7.951 7.951 0 0 1-5.557 2.249 7.907 7.907 0 0 1-3.95-1.045zm40.96 39.943V53.47H37.021a1.183 1.183 0 0 1-1.18-1.188v-13.78c0-.655.528-1.188 1.18-1.188h11.147v-9.257c0-1.597-1.289-2.895-2.873-2.895H2.358v40.46h42.938c1.584 0 2.873-1.297 2.873-2.894zm3.472-23.038H38.2v11.404h13.44zm-10.258 5.703c0-1.966 1.587-3.564 3.537-3.564s3.537 1.598 3.537 3.564c0 1.964-1.586 3.562-3.537 3.562-1.95 0-3.537-1.598-3.537-3.562zm2.358 0c0 .654.53 1.187 1.18 1.187.65 0 1.178-.533 1.178-1.187 0-.656-.529-1.189-1.179-1.189s-1.179.533-1.179 1.189z"/></g></g></svg>