<svg xmlns="http://www.w3.org/2000/svg" width="59" height="59" viewBox="0 0 59 59"><defs><linearGradient id="tzava" x1="0" x2="59" y1="29" y2="30" gradientUnits="userSpaceOnUse"><stop offset="0" stop-color="#0087cd"/><stop offset="1" stop-color="#5400ff"/></linearGradient></defs><g><g><path d="M34.207.94a.941.941 0 0 1 1.883 0c0 12.114 9.855 21.969 21.968 21.969a.941.941 0 1 1 0 1.883c-13.151 0-23.85-10.7-23.85-23.852zm-9.415 57.117a.941.941 0 1 1-1.882 0C22.91 45.945 13.055 36.09.94 36.09a.941.941 0 1 1 0-1.883c13.152 0 23.851 10.7 23.851 23.851zm6.59-18.097h-.94v7.637h.94a.941.941 0 1 1 0 1.882h-.94v7.637h.94a.941.941 0 1 1 0 1.883h-3.765a.942.942 0 0 1 0-1.883h.941v-7.637h-.941a.941.941 0 1 1 0-1.883h.941V39.96h-.941a.942.942 0 0 1 0-1.883h.941V30.44h-7.636v.941a.942.942 0 1 1-1.883 0v-.941h-7.637v.941a.942.942 0 0 1-1.883 0v-.941H1.883v.941a.942.942 0 0 1-1.883 0v-3.766a.941.941 0 1 1 1.883 0v.942h7.636v-.942a.941.941 0 1 1 1.883 0v.942h7.637v-.942a.941.941 0 1 1 1.883 0v.942h7.636V20.92h-.941a.941.941 0 1 1 0-1.883h.941v-7.636h-.941a.942.942 0 0 1 0-1.883h.941V1.88h-.941a.941.941 0 1 1 0-1.882h3.766a.941.941 0 1 1 0 1.882h-.942V9.52h.942a.941.941 0 1 1 0 1.883h-.942v7.636h.942a.942.942 0 0 1 0 1.883h-.942v17.156h.942a.941.941 0 1 1 0 1.883zM59 27.616v3.766a.942.942 0 0 1-1.883 0v-.941H49.48v.941a.942.942 0 0 1-1.883 0v-.941h-7.636v.941a.942.942 0 1 1-1.883 0v-.941h-4.812a.942.942 0 0 1 0-1.883h4.812v-.942a.941.941 0 1 1 1.883 0v.942h7.636v-.942a.941.941 0 1 1 1.883 0v.942h7.637v-.942a.941.941 0 1 1 1.883 0z"/><path fill="url(#tzava)" d="M34.207.94a.941.941 0 0 1 1.883 0c0 12.114 9.855 21.969 21.968 21.969a.941.941 0 1 1 0 1.883c-13.151 0-23.85-10.7-23.85-23.852zm-9.415 57.117a.941.941 0 1 1-1.882 0C22.91 45.945 13.055 36.09.94 36.09a.941.941 0 1 1 0-1.883c13.152 0 23.851 10.7 23.851 23.851zm6.59-18.097h-.94v7.637h.94a.941.941 0 1 1 0 1.882h-.94v7.637h.94a.941.941 0 1 1 0 1.883h-3.765a.942.942 0 0 1 0-1.883h.941v-7.637h-.941a.941.941 0 1 1 0-1.883h.941V39.96h-.941a.942.942 0 0 1 0-1.883h.941V30.44h-7.636v.941a.942.942 0 1 1-1.883 0v-.941h-7.637v.941a.942.942 0 0 1-1.883 0v-.941H1.883v.941a.942.942 0 0 1-1.883 0v-3.766a.941.941 0 1 1 1.883 0v.942h7.636v-.942a.941.941 0 1 1 1.883 0v.942h7.637v-.942a.941.941 0 1 1 1.883 0v.942h7.636V20.92h-.941a.941.941 0 1 1 0-1.883h.941v-7.636h-.941a.942.942 0 0 1 0-1.883h.941V1.88h-.941a.941.941 0 1 1 0-1.882h3.766a.941.941 0 1 1 0 1.882h-.942V9.52h.942a.941.941 0 1 1 0 1.883h-.942v7.636h.942a.942.942 0 0 1 0 1.883h-.942v17.156h.942a.941.941 0 1 1 0 1.883zM59 27.616v3.766a.942.942 0 0 1-1.883 0v-.941H49.48v.941a.942.942 0 0 1-1.883 0v-.941h-7.636v.941a.942.942 0 1 1-1.883 0v-.941h-4.812a.942.942 0 0 1 0-1.883h4.812v-.942a.941.941 0 1 1 1.883 0v.942h7.636v-.942a.941.941 0 1 1 1.883 0v.942h7.637v-.942a.941.941 0 1 1 1.883 0z"/></g></g></svg>