<svg xmlns="http://www.w3.org/2000/svg" width="50" height="63" viewBox="0 0 50 63"><defs><linearGradient id="y436a" x1="0" x2="50" y1="31" y2="32" gradientUnits="userSpaceOnUse"><stop offset="0" stop-color="#0087cd"/><stop offset="1" stop-color="#5400ff"/></linearGradient></defs><g><g><path d="M50 35.657V48.43c0 .608-.489 1.1-1.092 1.1h-2.123v8.583c0 2.693-2.173 4.885-4.844 4.885H1.091A1.096 1.096 0 0 1 0 61.898V22.19c0-.608.488-1.102 1.091-1.102h2.82L19.828.424A1.085 1.085 0 0 1 21.36.23l3.798 2.975 6.448-2.17c.274-.092.574-.071.834.06.258.13.456.36.547.637L36.383 12l6.185 4.846c.476.372.562 1.064.192 1.545l-2.077 2.696h1.258c2.671 0 4.844 2.192 4.844 4.886v8.582h2.123c.603 0 1.092.493 1.092 1.1zM40.366 17.91L37.16 15.4a5.297 5.297 0 0 0-.525 2.317c0 1.243.423 2.424 1.2 3.372h.083zM27.231 4.83l6.046 4.736-2.016-6.093zm-8.839 1.048c.71.349 1.489.53 2.298.53a5.199 5.199 0 0 0 3.396-1.254l-3.203-2.51zM6.676 21.088h28.567a7.525 7.525 0 0 1-.792-3.372c0-1.314.33-2.57.96-3.69l-9.575-7.5A7.357 7.357 0 0 1 20.69 8.61a7.32 7.32 0 0 1-3.657-.968zM44.6 58.113V49.53H34.28a1.097 1.097 0 0 1-1.091-1.101V35.657c0-.608.488-1.1 1.091-1.1h10.322v-8.583c0-1.48-1.193-2.683-2.66-2.683H2.183v37.505h39.758c1.467 0 2.66-1.203 2.66-2.683zm3.215-21.355H35.371v10.57h12.445zm-9.497 5.285c0-1.821 1.469-3.303 3.275-3.303 1.806 0 3.275 1.482 3.275 3.303 0 1.822-1.47 3.303-3.275 3.303-1.806 0-3.275-1.481-3.275-3.303zm2.183 0c0 .607.49 1.102 1.092 1.102.602 0 1.091-.495 1.091-1.102 0-.607-.49-1.1-1.091-1.1-.602 0-1.092.493-1.092 1.1z"/><path fill="url(#y436a)" d="M50 35.657V48.43c0 .608-.489 1.1-1.092 1.1h-2.123v8.583c0 2.693-2.173 4.885-4.844 4.885H1.091A1.096 1.096 0 0 1 0 61.898V22.19c0-.608.488-1.102 1.091-1.102h2.82L19.828.424A1.085 1.085 0 0 1 21.36.23l3.798 2.975 6.448-2.17c.274-.092.574-.071.834.06.258.13.456.36.547.637L36.383 12l6.185 4.846c.476.372.562 1.064.192 1.545l-2.077 2.696h1.258c2.671 0 4.844 2.192 4.844 4.886v8.582h2.123c.603 0 1.092.493 1.092 1.1zM40.366 17.91L37.16 15.4a5.297 5.297 0 0 0-.525 2.317c0 1.243.423 2.424 1.2 3.372h.083zM27.231 4.83l6.046 4.736-2.016-6.093zm-8.839 1.048c.71.349 1.489.53 2.298.53a5.199 5.199 0 0 0 3.396-1.254l-3.203-2.51zM6.676 21.088h28.567a7.525 7.525 0 0 1-.792-3.372c0-1.314.33-2.57.96-3.69l-9.575-7.5A7.357 7.357 0 0 1 20.69 8.61a7.32 7.32 0 0 1-3.657-.968zM44.6 58.113V49.53H34.28a1.097 1.097 0 0 1-1.091-1.101V35.657c0-.608.488-1.1 1.091-1.1h10.322v-8.583c0-1.48-1.193-2.683-2.66-2.683H2.183v37.505h39.758c1.467 0 2.66-1.203 2.66-2.683zm3.215-21.355H35.371v10.57h12.445zm-9.497 5.285c0-1.821 1.469-3.303 3.275-3.303 1.806 0 3.275 1.482 3.275 3.303 0 1.822-1.47 3.303-3.275 3.303-1.806 0-3.275-1.481-3.275-3.303zm2.183 0c0 .607.49 1.102 1.092 1.102.602 0 1.091-.495 1.091-1.102 0-.607-.49-1.1-1.091-1.1-.602 0-1.092.493-1.092 1.1z"/></g></g></svg>