<svg xmlns="http://www.w3.org/2000/svg" width="61" height="62" viewBox="0 0 61 62"><defs><linearGradient id="ice9a" x1="0" x2="61" y1="31" y2="31" gradientUnits="userSpaceOnUse"><stop offset="0" stop-color="#0087cd"/><stop offset="1" stop-color="#5400ff"/></linearGradient></defs><path d="M58.148 15.993A9.342 9.342 0 0161 22.7c0 5.122-4.133 9.288-9.214 9.288-3.168 0-6.06-1.607-7.767-4.305l-.935-.943-21.588 21.758 3.372 3.399c.4.403.4 1.055 0 1.458l-5.12 5.16c-.4.404-1.047.404-1.447 0l-3.371-3.398-6.528 6.58a1.017 1.017 0 01-1.447 0L.3 54.989c-.4-.403-.4-1.056 0-1.459l3.84-3.87-3.371-3.4c-.4-.402-.4-1.054 0-1.458l4.223-4.256a1.016 1.016 0 011.448 0l3.371 3.398 1.624-1.637-3.372-3.398c-.4-.404-.4-1.056 0-1.46l4.095-4.127a1.016 1.016 0 011.448 0l3.371 3.398 18.005-18.147-1.448-1.459a9.247 9.247 0 01-4.271-7.827c0-5.122 4.133-9.288 9.214-9.288a9.197 9.197 0 016.654 2.875 9.196 9.196 0 016.655-2.875C56.867-.001 61 4.165 61 9.287a9.34 9.34 0 01-2.852 6.706zm-2.197.838a1.034 1.034 0 010-1.676 7.262 7.262 0 003.002-5.868c0-3.983-3.216-7.224-7.167-7.224a7.168 7.168 0 00-5.822 3.025c-.384.54-1.28.54-1.664 0a7.17 7.17 0 00-5.823-3.025c-3.951 0-7.167 3.241-7.167 7.224a7.19 7.19 0 003.404 6.136c.068.043.13.093.186.15l2.253 2.27c.4.404.4 1.057 0 1.46L17.701 38.909c-.4.403-1.047.403-1.447 0l-3.372-3.398-2.647 2.669 3.371 3.397c.4.404.4 1.056 0 1.46l-3.071 3.095c-.4.404-1.048.404-1.448 0l-3.371-3.398-2.776 2.798 3.372 3.398c.4.403.4 1.055 0 1.459l-3.84 3.87 5.206 5.249 6.528-6.58a1.018 1.018 0 011.448 0l3.37 3.398 3.672-3.7-3.371-3.398c-.4-.404-.4-1.056 0-1.459L42.36 24.551a1.017 1.017 0 011.448 0l1.741 1.755c.056.057.106.12.148.187 1.32 2.149 3.595 3.431 6.089 3.431 3.95 0 7.166-3.241 7.166-7.224a7.262 7.262 0 00-3.001-5.868zM24.443 37.45l15.354-15.475 1.448 1.46L25.89 38.908zm-4.095 4.126l2.047-2.064 1.448 1.46-2.047 2.063zM55.88 9.287c0 2.275-1.837 4.127-4.095 4.127s-4.095-1.852-4.095-4.127c0-2.277 1.837-4.129 4.095-4.129S55.88 7.01 55.88 9.287zm-2.047 0a2.058 2.058 0 00-2.048-2.065c-1.13 0-2.048.926-2.048 2.065 0 1.137.919 2.063 2.048 2.063 1.13 0 2.048-.926 2.048-2.063zM38.776 13.11l1.448-1.46 2.047 2.064-1.448 1.46zm4.095 4.128l1.448-1.46 2.047 2.064-1.448 1.459zm4.095 4.127l1.448-1.46 2.047 2.064-1.448 1.46zM61 45.403v6.19c0 .572-.458 1.033-1.024 1.033h-1.795a11.15 11.15 0 01-.179.429l1.27 1.28a1.036 1.036 0 010 1.46l-4.342 4.378c-.4.403-1.047.403-1.448 0l-1.27-1.281c-.142.064-.284.123-.426.18v1.81c0 .57-.458 1.031-1.024 1.031H44.62a1.027 1.027 0 01-1.024-1.032v-1.81a10.132 10.132 0 01-.426-.18l-1.27 1.282a1.018 1.018 0 01-1.448 0l-4.343-4.378c-.4-.403-.4-1.055 0-1.46l1.27-1.28a10.883 10.883 0 01-.178-.429h-1.796a1.027 1.027 0 01-1.023-1.032v-6.19c0-.572.457-1.033 1.023-1.033h1.796c.056-.143.115-.286.178-.43l-1.27-1.28c-.4-.404-.4-1.056 0-1.46l4.343-4.377a1.017 1.017 0 011.447 0l1.27 1.281c.143-.064.284-.123.427-.18v-1.81c0-.57.457-1.031 1.024-1.031h6.142c.566 0 1.024.461 1.024 1.032v1.81a8.6 8.6 0 01.426.18l1.27-1.282a1.017 1.017 0 011.448 0l4.343 4.378c.4.403.4 1.055 0 1.459l-1.27 1.28c.063.144.121.287.178.43h1.795c.566 0 1.024.461 1.024 1.032zm-2.047 1.032h-1.494c-.448 0-.842-.292-.978-.723a9.296 9.296 0 00-.625-1.505 1.04 1.04 0 01.185-1.208l1.06-1.069-2.895-2.918-1.06 1.07c-.317.32-.801.393-1.198.185-.496-.26-1-.472-1.494-.63a1.031 1.031 0 01-.716-.984v-1.506h-4.095v1.506c0 .451-.29.848-.716.986a9.116 9.116 0 00-1.494.63c-.397.206-.88.133-1.198-.186l-1.06-1.07-2.896 2.919L39.34 43c.317.318.392.806.185 1.207a9.271 9.271 0 00-.624 1.506c-.135.429-.53.72-.977.72H36.43v4.128h1.494c.447 0 .842.292.978.722.155.499.365 1.007.624 1.506.207.4.132.888-.184 1.207l-1.06 1.07 2.895 2.917 1.06-1.069c.318-.319.8-.393 1.198-.185.495.26 1 .472 1.494.63.426.135.715.533.715.984v1.505h4.095v-1.505c0-.451.29-.849.717-.986a9.243 9.243 0 001.494-.63 1.018 1.018 0 011.198.186l1.06 1.07 2.896-2.919-1.061-1.069a1.037 1.037 0 01-.184-1.207c.259-.5.468-1.007.624-1.506.135-.43.53-.721.977-.721h1.494zm-5.12 2.063c0 3.415-2.754 6.192-6.142 6.192-3.388 0-6.143-2.777-6.143-6.192 0-3.414 2.755-6.191 6.143-6.191s6.143 2.777 6.143 6.191zm-2.047 0c0-2.276-1.837-4.127-4.095-4.127-2.259 0-4.095 1.85-4.095 4.127 0 2.277 1.836 4.128 4.095 4.128 2.258 0 4.095-1.851 4.095-4.128zM9.81 24.765v2.063c-1.693 0-3.071 1.39-3.071 3.096H4.692c0-1.707-1.378-3.096-3.071-3.096v-2.063c1.693 0 3.071-1.39 3.071-3.096H6.74c0 1.707 1.378 3.096 3.071 3.096zm-3.04 1.032a5.122 5.122 0 01-1.055-1.065 5.127 5.127 0 01-1.056 1.065c.403.3.757.658 1.056 1.063a5.131 5.131 0 011.055-1.063zm15.325-7.224v2.064c-1.693 0-3.071 1.389-3.071 3.096h-2.048c0-1.707-1.378-3.096-3.071-3.096v-2.064c1.693 0 3.071-1.389 3.071-3.096h2.048c0 1.707 1.378 3.096 3.071 3.096zm-3.04 1.032A5.118 5.118 0 0118 18.541a5.116 5.116 0 01-1.055 1.064A5.13 5.13 0 0118 20.669a5.132 5.132 0 011.056-1.064zM11.86 9.287v2.063c-1.694 0-3.072 1.389-3.072 3.095H6.74c0-1.706-1.378-3.095-3.072-3.095V9.287c1.694 0 3.072-1.39 3.072-3.097h2.047c0 1.707 1.378 3.097 3.072 3.097zm-3.04 1.03a5.134 5.134 0 01-1.056-1.063 5.133 5.133 0 01-1.055 1.064 5.14 5.14 0 011.055 1.064 5.136 5.136 0 011.056-1.064z"/><path fill="url(#ice9a)" d="M58.148 15.993A9.342 9.342 0 0161 22.7c0 5.122-4.133 9.288-9.214 9.288-3.168 0-6.06-1.607-7.767-4.305l-.935-.943-21.588 21.758 3.372 3.399c.4.403.4 1.055 0 1.458l-5.12 5.16c-.4.404-1.047.404-1.447 0l-3.371-3.398-6.528 6.58a1.017 1.017 0 01-1.447 0L.3 54.989c-.4-.403-.4-1.056 0-1.459l3.84-3.87-3.371-3.4c-.4-.402-.4-1.054 0-1.458l4.223-4.256a1.016 1.016 0 011.448 0l3.371 3.398 1.624-1.637-3.372-3.398c-.4-.404-.4-1.056 0-1.46l4.095-4.127a1.016 1.016 0 011.448 0l3.371 3.398 18.005-18.147-1.448-1.459a9.247 9.247 0 01-4.271-7.827c0-5.122 4.133-9.288 9.214-9.288a9.197 9.197 0 016.654 2.875 9.196 9.196 0 016.655-2.875C56.867-.001 61 4.165 61 9.287a9.34 9.34 0 01-2.852 6.706zm-2.197.838a1.034 1.034 0 010-1.676 7.262 7.262 0 003.002-5.868c0-3.983-3.216-7.224-7.167-7.224a7.168 7.168 0 00-5.822 3.025c-.384.54-1.28.54-1.664 0a7.17 7.17 0 00-5.823-3.025c-3.951 0-7.167 3.241-7.167 7.224a7.19 7.19 0 003.404 6.136c.068.043.13.093.186.15l2.253 2.27c.4.404.4 1.057 0 1.46L17.701 38.909c-.4.403-1.047.403-1.447 0l-3.372-3.398-2.647 2.669 3.371 3.397c.4.404.4 1.056 0 1.46l-3.071 3.095c-.4.404-1.048.404-1.448 0l-3.371-3.398-2.776 2.798 3.372 3.398c.4.403.4 1.055 0 1.459l-3.84 3.87 5.206 5.249 6.528-6.58a1.018 1.018 0 011.448 0l3.37 3.398 3.672-3.7-3.371-3.398c-.4-.404-.4-1.056 0-1.459L42.36 24.551a1.017 1.017 0 011.448 0l1.741 1.755c.056.057.106.12.148.187 1.32 2.149 3.595 3.431 6.089 3.431 3.95 0 7.166-3.241 7.166-7.224a7.262 7.262 0 00-3.001-5.868zM24.443 37.45l15.354-15.475 1.448 1.46L25.89 38.908zm-4.095 4.126l2.047-2.064 1.448 1.46-2.047 2.063zM55.88 9.287c0 2.275-1.837 4.127-4.095 4.127s-4.095-1.852-4.095-4.127c0-2.277 1.837-4.129 4.095-4.129S55.88 7.01 55.88 9.287zm-2.047 0a2.058 2.058 0 00-2.048-2.065c-1.13 0-2.048.926-2.048 2.065 0 1.137.919 2.063 2.048 2.063 1.13 0 2.048-.926 2.048-2.063zM38.776 13.11l1.448-1.46 2.047 2.064-1.448 1.46zm4.095 4.128l1.448-1.46 2.047 2.064-1.448 1.459zm4.095 4.127l1.448-1.46 2.047 2.064-1.448 1.46zM61 45.403v6.19c0 .572-.458 1.033-1.024 1.033h-1.795a11.15 11.15 0 01-.179.429l1.27 1.28a1.036 1.036 0 010 1.46l-4.342 4.378c-.4.403-1.047.403-1.448 0l-1.27-1.281c-.142.064-.284.123-.426.18v1.81c0 .57-.458 1.031-1.024 1.031H44.62a1.027 1.027 0 01-1.024-1.032v-1.81a10.132 10.132 0 01-.426-.18l-1.27 1.282a1.018 1.018 0 01-1.448 0l-4.343-4.378c-.4-.403-.4-1.055 0-1.46l1.27-1.28a10.883 10.883 0 01-.178-.429h-1.796a1.027 1.027 0 01-1.023-1.032v-6.19c0-.572.457-1.033 1.023-1.033h1.796c.056-.143.115-.286.178-.43l-1.27-1.28c-.4-.404-.4-1.056 0-1.46l4.343-4.377a1.017 1.017 0 011.447 0l1.27 1.281c.143-.064.284-.123.427-.18v-1.81c0-.57.457-1.031 1.024-1.031h6.142c.566 0 1.024.461 1.024 1.032v1.81a8.6 8.6 0 01.426.18l1.27-1.282a1.017 1.017 0 011.448 0l4.343 4.378c.4.403.4 1.055 0 1.459l-1.27 1.28c.063.144.121.287.178.43h1.795c.566 0 1.024.461 1.024 1.032zm-2.047 1.032h-1.494c-.448 0-.842-.292-.978-.723a9.296 9.296 0 00-.625-1.505 1.04 1.04 0 01.185-1.208l1.06-1.069-2.895-2.918-1.06 1.07c-.317.32-.801.393-1.198.185-.496-.26-1-.472-1.494-.63a1.031 1.031 0 01-.716-.984v-1.506h-4.095v1.506c0 .451-.29.848-.716.986a9.116 9.116 0 00-1.494.63c-.397.206-.88.133-1.198-.186l-1.06-1.07-2.896 2.919L39.34 43c.317.318.392.806.185 1.207a9.271 9.271 0 00-.624 1.506c-.135.429-.53.72-.977.72H36.43v4.128h1.494c.447 0 .842.292.978.722.155.499.365 1.007.624 1.506.207.4.132.888-.184 1.207l-1.06 1.07 2.895 2.917 1.06-1.069c.318-.319.8-.393 1.198-.185.495.26 1 .472 1.494.63.426.135.715.533.715.984v1.505h4.095v-1.505c0-.451.29-.849.717-.986a9.243 9.243 0 001.494-.63 1.018 1.018 0 011.198.186l1.06 1.07 2.896-2.919-1.061-1.069a1.037 1.037 0 01-.184-1.207c.259-.5.468-1.007.624-1.506.135-.43.53-.721.977-.721h1.494zm-5.12 2.063c0 3.415-2.754 6.192-6.142 6.192-3.388 0-6.143-2.777-6.143-6.192 0-3.414 2.755-6.191 6.143-6.191s6.143 2.777 6.143 6.191zm-2.047 0c0-2.276-1.837-4.127-4.095-4.127-2.259 0-4.095 1.85-4.095 4.127 0 2.277 1.836 4.128 4.095 4.128 2.258 0 4.095-1.851 4.095-4.128zM9.81 24.765v2.063c-1.693 0-3.071 1.39-3.071 3.096H4.692c0-1.707-1.378-3.096-3.071-3.096v-2.063c1.693 0 3.071-1.39 3.071-3.096H6.74c0 1.707 1.378 3.096 3.071 3.096zm-3.04 1.032a5.122 5.122 0 01-1.055-1.065 5.127 5.127 0 01-1.056 1.065c.403.3.757.658 1.056 1.063a5.131 5.131 0 011.055-1.063zm15.325-7.224v2.064c-1.693 0-3.071 1.389-3.071 3.096h-2.048c0-1.707-1.378-3.096-3.071-3.096v-2.064c1.693 0 3.071-1.389 3.071-3.096h2.048c0 1.707 1.378 3.096 3.071 3.096zm-3.04 1.032A5.118 5.118 0 0118 18.541a5.116 5.116 0 01-1.055 1.064A5.13 5.13 0 0118 20.669a5.132 5.132 0 011.056-1.064zM11.86 9.287v2.063c-1.694 0-3.072 1.389-3.072 3.095H6.74c0-1.706-1.378-3.095-3.072-3.095V9.287c1.694 0 3.072-1.39 3.072-3.097h2.047c0 1.707 1.378 3.097 3.072 3.097zm-3.04 1.03a5.134 5.134 0 01-1.056-1.063 5.133 5.133 0 01-1.055 1.064 5.14 5.14 0 011.055 1.064 5.136 5.136 0 011.056-1.064z"/></svg>