<svg xmlns="http://www.w3.org/2000/svg" width="67" height="67" viewBox="0 0 67 67"><defs><linearGradient id="uf6qa" x1="0" x2="67" y1="34" y2="33" gradientUnits="userSpaceOnUse"><stop offset="0" stop-color="#0087cd"/><stop offset="1" stop-color="#5400ff"/></linearGradient></defs><path d="M52.451 29.37c0 4.566-1.75 8.983-5.1 12.402-3.063 3.13-4.662 7.56-4.662 12.401l-.014 7.41c0 2.995-2.475 5.416-5.538 5.416H30c-3.063 0-5.538-2.42-5.538-5.415l.013-7.41c0-4.705-1.75-9.272-4.95-12.69-3.637-3.993-5.387-9.27-4.662-14.685 1.162-8.122 8.491-15.683 18.637-15.683 10.337 0 18.938 8.121 18.951 18.254zM39.885 61.584v-3.281H27.511v3.28c0 1.437 1.162 2.572 2.625 2.572h7.138c1.463 0 2.625-1.15 2.625-2.571zm9.64-32.214c0-8.41-7.137-15.397-16.025-15.397-8.491 0-14.85 6.426-15.875 13.264-.574 4.566.738 8.982 3.938 12.401 3.637 3.993 5.825 9.257 5.825 14.535v1.285h12.374v-1.285c0-5.565 1.9-10.693 5.538-14.398 2.762-2.858 4.225-6.563 4.225-10.405zM32.037-.001h2.912v6.836h-2.912zM56.129 8.38l2.052 2.037-4.991 4.8-2.038-2.038zm3.733 22.41H67v2.858h-7.138zM0 30.792h7.138v2.858H0zm15.793-17.624l-2.038 2.037-4.99-4.8 2.05-2.037z"/><path fill="url(#uf6qa)" d="M52.451 29.37c0 4.566-1.75 8.983-5.1 12.402-3.063 3.13-4.662 7.56-4.662 12.401l-.014 7.41c0 2.995-2.475 5.416-5.538 5.416H30c-3.063 0-5.538-2.42-5.538-5.415l.013-7.41c0-4.705-1.75-9.272-4.95-12.69-3.637-3.993-5.387-9.27-4.662-14.685 1.162-8.122 8.491-15.683 18.637-15.683 10.337 0 18.938 8.121 18.951 18.254zM39.885 61.584v-3.281H27.511v3.28c0 1.437 1.162 2.572 2.625 2.572h7.138c1.463 0 2.625-1.15 2.625-2.571zm9.64-32.214c0-8.41-7.137-15.397-16.025-15.397-8.491 0-14.85 6.426-15.875 13.264-.574 4.566.738 8.982 3.938 12.401 3.637 3.993 5.825 9.257 5.825 14.535v1.285h12.374v-1.285c0-5.565 1.9-10.693 5.538-14.398 2.762-2.858 4.225-6.563 4.225-10.405zM32.037-.001h2.912v6.836h-2.912zM56.129 8.38l2.052 2.037-4.991 4.8-2.038-2.038zm3.733 22.41H67v2.858h-7.138zM0 30.792h7.138v2.858H0zm15.793-17.624l-2.038 2.037-4.99-4.8 2.05-2.037z"/></svg>