<svg xmlns="http://www.w3.org/2000/svg" width="58" height="58" viewBox="0 0 58 58"><defs><linearGradient id="d1a9a" x1="0" x2="58" y1="29" y2="29" gradientUnits="userSpaceOnUse"><stop offset="0" stop-color="#0087cd"/><stop offset="1" stop-color="#5400ff"/></linearGradient></defs><g><g><path d="M58 41.187c0 7.993-5.611 14.687-13.097 16.384v.428H0V28.55l4.677-3.743V0h35.549v24.808l4.677 3.743v3.803l5.613-5.612 2.56 2.56A16.697 16.697 0 0 1 58 41.186zm-12.71-6.576l1.484 1.484 5.214-5.214c-.08-.084-.152-.174-.235-.258l-1.237-1.237zm-.387 10.84l3.629-3.63a.935.935 0 0 0 0-1.322l-3.629-3.629zm-2.258-10.84l.387-.386v-3.42l-13.651 9.636 4.275 3.16.957-.957L40.5 48.53a.935.935 0 0 0 1.323 0l1.21-1.21V34.999zM34.613 45.29l-5.226 5.226 1.237 1.237c.083.083.174.154.259.234l5.213-5.213zm5.613-14.794l2.185-1.543-2.185-1.748zm-33.692 1.31l10.574 7.465 5.344-3.95 5.343 3.95 10.574-7.465h-.014V1.87H6.548v29.935zm-4.042-2.853l2.185 1.543v-3.291zm-.621 21.58l13.651-10.09-13.651-9.637zm31.614 5.596a16.846 16.846 0 0 1-4.184-3.054l-2.56-2.56 5.577-5.575-9.866-7.294L1.87 52.858v3.27zm22.644-14.94c0-3.24-1.04-6.313-2.935-8.867l-5.097 5.097 1.758 1.758a2.809 2.809 0 0 1 0 3.968l-6.71 6.71a2.809 2.809 0 0 1-3.968 0l-1.758-1.758-5.097 5.097a14.81 14.81 0 0 0 8.866 2.935c.446 0 .884-.028 1.32-.067.413-.04.837-.097 1.278-.174.01-.003.02-.003.031-.005l.492-.087c6.745-1.44 11.82-7.44 11.82-14.608zM36.484 20.578H8.419V3.741h28.065zM34.613 5.612H10.29v13.096h24.323zM8.419 22.451h28.065v1.87H8.419zm0 3.741h28.065v1.871H8.419zm26.194 3.742h1.87v1.871h-1.87zm-3.742 0h1.87v1.871h-1.87zm-22.452 0H29v1.871H8.42z"/><path fill="url(#d1a9a)" d="M58 41.187c0 7.993-5.611 14.687-13.097 16.384v.428H0V28.55l4.677-3.743V0h35.549v24.808l4.677 3.743v3.803l5.613-5.612 2.56 2.56A16.697 16.697 0 0 1 58 41.186zm-12.71-6.576l1.484 1.484 5.214-5.214c-.08-.084-.152-.174-.235-.258l-1.237-1.237zm-.387 10.84l3.629-3.63a.935.935 0 0 0 0-1.322l-3.629-3.629zm-2.258-10.84l.387-.386v-3.42l-13.651 9.636 4.275 3.16.957-.957L40.5 48.53a.935.935 0 0 0 1.323 0l1.21-1.21V34.999zM34.613 45.29l-5.226 5.226 1.237 1.237c.083.083.174.154.259.234l5.213-5.213zm5.613-14.794l2.185-1.543-2.185-1.748zm-33.692 1.31l10.574 7.465 5.344-3.95 5.343 3.95 10.574-7.465h-.014V1.87H6.548v29.935zm-4.042-2.853l2.185 1.543v-3.291zm-.621 21.58l13.651-10.09-13.651-9.637zm31.614 5.596a16.846 16.846 0 0 1-4.184-3.054l-2.56-2.56 5.577-5.575-9.866-7.294L1.87 52.858v3.27zm22.644-14.94c0-3.24-1.04-6.313-2.935-8.867l-5.097 5.097 1.758 1.758a2.809 2.809 0 0 1 0 3.968l-6.71 6.71a2.809 2.809 0 0 1-3.968 0l-1.758-1.758-5.097 5.097a14.81 14.81 0 0 0 8.866 2.935c.446 0 .884-.028 1.32-.067.413-.04.837-.097 1.278-.174.01-.003.02-.003.031-.005l.492-.087c6.745-1.44 11.82-7.44 11.82-14.608zM36.484 20.578H8.419V3.741h28.065zM34.613 5.612H10.29v13.096h24.323zM8.419 22.451h28.065v1.87H8.419zm0 3.741h28.065v1.871H8.419zm26.194 3.742h1.87v1.871h-1.87zm-3.742 0h1.87v1.871h-1.87zm-22.452 0H29v1.871H8.42z"/></g></g></svg>