<svg xmlns="http://www.w3.org/2000/svg" width="426" height="350" viewBox="0 0 426 350"><defs><clipPath id="1r8ia"><path d="M188.134 175.438a543.661 543.661 0 0 0 6.73 11.146c-3.575 2.924-12.163 11.737-8.205 26.26a67.573 67.573 0 0 1-3.433 2.25c-2.388-3.514-4.47-7.003-6.176-10.424-10.065-19.838-17.673-17.786-31.505-21.744-13.86-3.957-14.523-8.202-21.39-9.427-7.39-1.331-11.281-4.764-13.564-11.772-1.712-5.257-1.927-10.514-1.927-10.514-.075-.717-.14-1.487-.202-2.251a181.284 181.284 0 0 1-.245-3.304v-.016c.245-1.2 3.549-16.247 14.497-23.897.549 5.246 5.169 11.252 15.257 16.028 7.215 3.4 15.08 6.361 22.15 9.622l.005.02c7.99 16.449 15.032 25.645 28.008 28.023z"/></clipPath><clipPath id="1r8ib"><path d="M99.737 55.212c2.854-5.72 7.722-8.206 11.871-9.272l.387-.072c7.28 1.695 11.348 8.898 14.578 18.264 0 0 .972 10.794-2.181 17.728.337-.155 4.587-2.205 7.283-.365.375 1.273.75 2.546 1.129 3.82l.002.02c-.55 7.24-4.78 9.549-7.556 8.954-.57.514-1.928 1.83-3.49 3.572-1.684 1.842-3.658 4.2-5.21 6.655-2.644 4.118-12.703 2.977-25.42-4.15-4.248-2.348-8.813-5.396-13.49-9.126-9.98-7.979-1.965-11.162-.845-12.298 1.618-1.643 8.863-7.416 7.606-11.492-.955-3.1-.43-5.5-.43-5.5 7.52.485 13.704-2.943 15.766-6.738zm25.54 34.475c6.784-.044 3.8-5.788 3.8-5.788z"/></clipPath></defs><g><g><g><path fill="#fbae39" d="M81.598 79.673c-.02.003 0 .023 0 .023-1.22 2.923-1.904 6.387-1.917 9.919-1.483 3.122-1.833 6.209-1.76 8.71.122 3.332.99 5.638.99 5.638s-11.796-8.426-20.848-21.315l-.21-.263c-3.836-4.23-7.562-9.218-10.604-14.819-7.116-13.089-17.39-26.222-24.262-32.028-12.714-3.319-9.36-8.732-18.867-15.052 0 0 .667-2.9 11.51 3.761C12.94 19.903 3.878 12.99 3.32 11.407.356 3.08.841.082.841.082 5.506 8.467 18.469 15.15 26.858 23.296c5.483 5.297 4.147 8.639 8.54 12.118 4.414 3.454 28.267 23.8 46.201 44.26z"/></g><g><path fill="#cefaf2" d="M79.681 89.615c-.03 2.58 36.088 11.727 42.943 23.885 3.395 6.019-10.754 15.442-9.808 17.005-1.783-1.634-33.308-31.108-34.875-32.18h-.02c-.073-2.501.278-5.588 1.76-8.71z"/></g><g><path fill="#ff9a2d" d="M78.58 103.592c-1.124-.938-1.788-2.159-2.222-3.422-.461-1.263-.595-2.61-.567-3.954.098-1.334.36-2.676.955-3.901.57-1.226 1.394-2.354 2.594-3.152l.194.088a18.41 18.41 0 0 0-1.613 7.062c-.132 2.421.122 4.892.858 7.207z"/></g><g><path fill="#ffab00" d="M81.346 79.841c-3.75-3.029-7.22-6.254-10.936-9.238l-10.757-9.276-10.734-9.254c-3.557-3.103-7.1-6.22-10.708-9.242-1.782-1.563-3.506-3.065-5.352-4.577-1.106-.885-2.31-2.18-3.13-3.513-.843-1.347-1.369-2.613-1.79-3.62-.828-1.997-1.737-3.47-3.147-5.025a92.512 92.512 0 0 0-4.83-4.712C16.51 18.302 12.83 15.247 9.3 11.915c-1.724-1.719-3.417-3.49-4.96-5.406-1.563-1.89-2.93-4-3.768-6.3L.943 0c2.366 4.093 6.075 7.214 9.753 10.151 3.73 2.932 7.633 5.648 11.363 8.615 1.858 1.482 3.691 3.028 5.394 4.713a20.01 20.01 0 0 1 4.11 5.923c.971 2.187 2.044 4.241 3.932 5.64 1.863 1.474 3.684 3.015 5.496 4.553a496.016 496.016 0 0 1 20.997 19.314c6.808 6.64 13.431 13.475 19.675 20.651z"/></g><g><path fill="#dd8c2c" d="M15.457 24.313c-1.352-2.04-3.14-3.746-4.904-5.445l-5.432-4.985c-.439-.43-.878-.864-1.296-1.325a6.453 6.453 0 0 1-.6-.74c-.2-.3-.259-.614-.364-.892a60.365 60.365 0 0 1-1.094-3.533C1.15 5.015.521 2.603.652.087l.21.036c.647 2.392 1.643 4.58 2.518 6.813l1.373 3.327.177.424.04.109c.003-.001-.01-.05-.022-.07-.043-.08-.013-.04-.004-.034.063.078.227.279.413.466.368.378.803.783 1.242 1.183 1.711 1.667 3.527 3.379 5.12 5.314 1.583 1.916 3.176 4.021 3.92 6.54z"/></g><g><path fill="#ffab00" d="M3.938 20.467c-.101-.878.853-1.38 1.457-1.595a5.61 5.61 0 0 1 1.956-.248c1.255.03 2.366.396 3.405.834 1.009.502 1.959 1.081 2.774 1.861.824.762 1.555 1.652 2.07 2.845l-.11.183c-1.829-1.074-3.687-2.102-5.622-2.948-.95-.453-1.926-.863-2.931-1.145-.507-.137-1.022-.24-1.533-.251-.486-.016-1.087.109-1.26.518z"/></g><g><path fill="#dd8c2c" d="M78.735 104.103C72.98 99.423 67.7 94.207 62.732 88.71c-4.957-5.505-9.539-11.353-13.619-17.537-3.98-6.259-7.856-12.529-12.14-18.558-4.3-5.982-8.714-12-14.222-16.884l.085.047c-1.993-.535-3.98-1.194-5.816-2.187-1.846-.973-3.464-2.393-4.71-4.057-1.26-1.651-2.34-3.4-3.717-4.917-1.357-1.531-2.94-2.851-4.643-3.99l.178-.267c1.854.943 3.654 2.108 5.191 3.604 1.572 1.457 2.872 3.204 4.199 4.634 1.339 1.419 2.725 2.51 4.422 3.284 1.681.78 3.557 1.29 5.474 1.685l.368.076.44.34c3.113 2.427 5.807 5.125 8.266 8.005 2.458 2.87 4.827 5.785 7.003 8.84 2.184 3.042 4.325 6.106 6.345 9.25l5.827 9.418a152.29 152.29 0 0 0 6.097 9.024c2.112 2.963 4.27 5.915 6.567 8.762 4.647 5.652 9.424 11.252 14.607 16.566z"/></g><g><path fill="#b67649" d="M95.557 102.508c11.673 5.057 19.835 4.82 21.764 1.012 1.129-2.27 3.303-4.159 4.605-5.907 1.548 3.657 5.007 8.448 7.564 11.73-11.484 16.723-19.05 21.086-19.05 21.086-10.214-13.787-14.898-27.898-14.898-27.898z"/></g><g><path fill="#fbae39" d="M425.116 349.205c.863 2.754-9.773-3.536-21.37-7.87-11.593-4.312-23.542-9.343-57.515-27.692a1466.53 1466.53 0 0 1-24.123-13.335c-4.4-2.496-7.573-4.342-9.989-5.685.638.181 14.387 3.937 38.217-2.299 11.258 10.81 19.727 21.513 25.703 21.822 8.457.434 16.998-1.158 19.617 1.01 2.593 2.166 2.994 7.616 12.75 12.527 9.751 4.887 14.675 15.173 16.71 21.522z"/></g><g><path fill="#fbae39" d="M312.12 294.623c2.415 1.343 5.587 3.189 9.988 5.685-20.608-7.244-26.344-1.085-41.602-1.2-11.315-.071-41.623 3.362-58.641 5.854.623-.523 10.668-9.026 23.732-26.504 13.549-.63 27.244 1.608 32.064 3.252 8.345 2.813 8.588 4.47 12.43.625.3.232.554.47.785.705 3.595 3.908 7.692 7.494 12.757 8.094 2.226.248 4.157 1.077 8.464 3.493z"/></g><g><path fill="#337772" d="M305.875 269.62l-.287 1.716c-1.152-.248-2.117-.73-2.902-1.69-4.157-5.068-24.663-28.296-46.007-41.926-21.344-13.631-22.462-18.442-22.952-21.85-1.163-7.79-3.406-13.503-6.4-17.714l-.021-.017c.202-.338.372-.676.542-1.005 0 0-2.578-3.244-8.243-7.05l-.322.52h-.02c-2.104-1.133-4.76-1.947-7.063-2.573-2.643-4.861-5.169-8.879-7.462-12.076-7.47-12.097-14.362-16.039-14.362-16.039.208 1.741.286 3.278.224 4.63-2.957-1.601-7.891-5.398-18.54-16.338-7.45-7.664-14.466-13.608-20.7-17.882v.025c-12.9-5.149-22.122-3.185-28.647 1.394-10.948 7.65-14.252 22.697-14.496 23.897-.099-1.175-.19-2.345-.258-3.472 0 0 1.427-24.957 18.31-31.53 7.18-2.83 17.204-2.293 31.117 4.98 8.11-.101 18.54 6.83 23.988 3.78a300.002 300.002 0 0 0 27.219 7.093c7.494 1.6 14.882 2.89 22.134 3.886h.026c40.105 5.474 75.717 1.99 97.04-7.143 29.81-12.773 12.23-13.795 22.464 11.548 10.226 25.329 4.848 24.497-2.025 39.678-6.887 15.184 13.01 50.44-2.926 57.274-15.94 6.813-30.159 4.707-33.296 20.487-2.65 13.326-5.359 16.672-6.135 17.397z"/></g><g><path fill="#cefaf2" d="M334.735 279.497c5.706 3.797 10.888 8.329 15.601 12.827-23.83 6.236-37.579 2.48-38.217 2.3l-.022.002c-4.307-2.415-6.238-3.244-8.465-3.492-5.064-.6-9.16-4.186-12.755-8.094a7.902 7.902 0 0 0-.787-.705c-4.551-3.362-18.25-4.845-48.971-19.755a175.675 175.675 0 0 1-19.502-11.038c-12.097-7.885-22.037-16.633-29.838-25.491 5.47-3.612 12.575-8.963 19.477-16.013 2.884 3.582 5.899 6.979 8.97 10.027 0 0 2.037 17.767 9.196 16.778 7.181-.985 11.307-2.133 11.797-4.832.465-2.695-1.49-4.14-7.369-8.503-5.88-4.367-7.263-11.45-7.263-11.45a243.387 243.387 0 0 0-5.177-14.168 82.065 82.065 0 0 0 5.896-9.751l.022.017c2.994 4.211 5.237 9.925 6.4 17.713.49 3.409 1.608 8.22 22.952 21.85s41.85 36.86 46.007 41.927c.785.96 1.75 1.442 2.901 1.69 4.9 1.039 13.483-2.226 29.147 8.16z"/></g><g><path fill="#cd9963" d="M95.633 102.571c.44 1.871 1.184 3.503 1.886 5.155.753 1.626 1.495 3.252 2.316 4.861l2.373 4.942c.786 1.686 7.734 10.961 8.316 12.863l-.152.113c-2.253-3.007-10.539-13.706-12.23-17.085-.82-1.699-1.523-3.46-2.046-5.276-.497-1.812-.907-3.702-.647-5.61z"/></g><g><path fill="#fbae39" d="M212.201 178.031a194.168 194.168 0 0 1 3.722 7.32c1.825 3.792 3.662 7.976 5.487 12.539a244.81 244.81 0 0 1 5.178 14.167s1.382 7.084 7.262 11.451c5.878 4.363 7.834 5.808 7.37 8.503-.492 2.699-4.617 3.847-11.797 4.832-7.16.989-9.197-16.778-9.197-16.778-3.07-3.048-6.086-6.445-8.971-10.027a169.914 169.914 0 0 1-7.972-10.66c-3-4.276-5.815-8.612-8.42-12.794a547.88 547.88 0 0 1-6.73-11.146c-2.407-4.068-4.494-7.688-6.256-10.61l.063-.048s8.284 1.002 8.66-10.234c.063-1.352-.015-2.889-.223-4.63 0 0 6.891 3.941 14.361 16.039 2.293 3.197 4.82 7.215 7.463 12.076z"/></g><g><path fill="#cefaf2" d="M219.754 285.684c6.223-4.827 15.984-6.795 25.843-7.226-13.065 17.478-23.11 25.98-23.733 26.504-5.942.888-10.271 1.644-11.61 2.096-5.171 1.766-7.454-.041-11.036-9.369-3.118-8.101-13.87-35.908-15.225-66.959 1.683-.911 4.427-2.483 7.786-4.679 7.801 8.858 17.74 17.606 29.838 25.491l-.13.207c1.748 11.574-1.733 33.935-1.733 33.935z"/></g><g><path fill="#fbae39" d="M227.848 187.134c-.17.33-.34.667-.54 1.005a82.594 82.594 0 0 1-5.898 9.75 201.722 201.722 0 0 0-5.488-12.538c1.665-2.188 2.831-3.91 3.342-4.748h.02l.322-.52c5.665 3.807 8.242 7.051 8.242 7.051z"/></g><g><path fill="#007b84" d="M219.264 180.604c-.51.836-1.678 2.56-3.342 4.747a192.713 192.713 0 0 0-3.721-7.32c2.302.626 4.959 1.44 7.063 2.573z"/></g><g><path fill="#fbae39" d="M203.283 199.378a168.74 168.74 0 0 0 7.972 10.66c-6.902 7.05-14.007 12.401-19.477 16.013-3.358 2.196-6.103 3.768-7.785 4.68-1.186.647-1.85.964-1.85.964l-.468-15.643c.528-.32 1.04-.64 1.549-.957a67.6 67.6 0 0 0 3.433-2.252c6.486-4.36 12.014-9.044 16.626-13.465z"/></g><g><path fill="#cefaf2" d="M194.863 186.584c2.605 4.182 5.419 8.518 8.42 12.794-4.61 4.421-10.14 9.106-16.624 13.465-3.958-14.522 4.63-23.335 8.204-26.259z"/></g><g><path fill="#cefaf2" d="M188.134 175.438a543.661 543.661 0 0 0 6.73 11.146c-3.575 2.924-12.163 11.737-8.205 26.26a67.573 67.573 0 0 1-3.433 2.25c-2.388-3.514-4.47-7.003-6.176-10.424-10.065-19.838-17.673-17.786-31.505-21.744-13.86-3.957-14.523-8.202-21.39-9.427-7.39-1.331-11.372-4.735-13.564-11.772l11.451-5.36-13.378-5.154c-.075-.717-.14-1.487-.202-2.251a181.284 181.284 0 0 1-.245-3.304v-.016c.245-1.2 3.549-16.247 14.497-23.897.549 5.246 5.169 11.252 15.257 16.028 7.215 3.4 15.08 6.361 22.15 9.622l.005.02c7.99 16.449 15.032 25.645 28.008 28.023z"/></g><g><path fill="#cefaf2" d="M172.06 138.208c10.65 10.94 15.584 14.737 18.539 16.338-.375 11.236-8.658 10.234-8.658 10.234l-.064.047c-.687-1.124-1.31-2.141-1.872-3.041-3.85-6.09-11.318-10.455-19.88-14.37l-.006-.02c-7.07-3.262-14.935-6.223-22.149-9.623-10.089-4.776-14.709-10.782-15.257-16.028 6.525-4.579 15.747-6.543 28.647-1.394v-.025c6.233 4.274 13.25 10.218 20.7 17.882z"/></g><g><path fill="#337772" d="M181.877 164.827c1.76 2.923 3.849 6.543 6.257 10.61-12.976-2.377-20.019-11.573-28.009-28.021 8.562 3.915 16.03 8.28 19.88 14.37.563.9 1.186 1.917 1.872 3.041z"/></g><g><path fill="#bfefe6" d="M186.535 212.877c-.986-2.247-1.564-4.718-1.713-7.214-.16-2.515.21-5.052.912-7.482.828-2.39 1.965-4.686 3.514-6.659 1.543-1.98 3.389-3.704 5.51-4.971l.066.084c-3.724 3.1-6.637 7.228-8.072 11.863-1.514 4.625-1.373 9.674-.113 14.353z"/></g><g><path fill="#ffab00" d="M221.727 304.773c4.06-1.42 8.199-2.333 12.313-3.464 4.139-.95 8.292-1.838 12.469-2.55 4.165-.809 8.367-1.315 12.57-1.92 4.211-.497 8.44-.898 12.705-1.228 2.143-.11 4.283-.19 6.476-.216l3.218.013 2.932-.042c3.958-.055 7.97-.794 12.368-1.077 4.375-.398 9.01-.106 13.287.95 4.264 1.205 8.307 2.72 12.032 4.883l-.144.401c-3.975-1.364-8.043-2.492-12.2-3.053-4.151-.587-8.371-.478-12.52.138-4.15.605-8.306 1.467-12.544 1.758-2.116.182-4.253.126-6.336.187-2.1.054-4.204.171-6.297.316-8.402.519-16.794 1.338-25.176 2.239-8.38.903-16.744 1.909-25.089 3.087z"/></g><g><path fill="#bfefe6" d="M245.524 278.664c-2.242.802-4.409 1.47-6.556 2.176-2.15.683-4.235 1.431-6.255 2.174a65.442 65.442 0 0 0-5.787 2.519c-1.794.963-3.485 1.981-4.942 3.133l-7.016 5.551.98-9.107c.291-2.72.734-5.521 1.11-8.279.342-2.771.883-5.529 1.268-8.291l1.435-8.3c.512-2.78.96-5.543 1.43-8.453l.421-.064c.812 5.662.583 11.393.263 17.062-.389 5.677-.922 11.341-1.805 16.968l-.645-.38c3.713-2.793 8.114-4.39 12.54-5.437 4.448-1.035 9.002-1.512 13.538-1.698z"/></g><g><path fill="#dd8c2c" d="M290.115 282.466c-.485.867-.98 1.748-1.879 2.509-.879.841-2.514 1.048-3.6.9-2.225-.326-3.966-.85-5.806-1.296l-2.687-.646a38.112 38.112 0 0 0-2.632-.483c-1.803-.32-3.641-.633-5.492-.865l-11.137-1.766c-3.738-.618-7.486-1.25-11.358-2.209l-.016-.318c7.672-.379 15.382.038 22.999 1.125 3.775.624 7.61 1.343 11.192 2.79 1.804.648 3.562 1.489 5.361 2.02.9.262 1.841.262 2.648-.215.811-.444 1.5-1.115 2.184-1.779z"/></g><g><g><path fill="#e5c4b5" d="M190.363 154.838c-3.919-2.087-7.19-5.057-10.408-7.984-3.201-2.952-6.298-6.036-9.355-9.123-3.016-3.112-6.132-6.123-9.39-8.983-3.27-2.838-6.624-5.588-10.125-8.14l.36-.527c4.894.603 9.161 2.525 13.11 4.798 3.925 2.34 7.45 5.166 10.616 8.368 3.071 3.127 5.748 6.38 8.295 9.86 1.284 1.724 2.429 3.583 3.64 5.382l3.566 5.791z"/></g></g><g><path fill="#cefaf2" d="M122.042 156.367l-11.45 5.36c-.923-2.864-1.523-6.328-1.929-10.514z"/></g><g><path fill="#de002a" d="M190.466 154.648c-4.19-1.564-7.81-4.292-11.182-7.071-3.4-2.784-6.547-5.867-9.596-8.946-2.987-3.095-6.075-6.09-9.108-9.152a150.686 150.686 0 0 0-4.667-4.498c-1.516-1.563-3.146-2.982-4.706-4.546l.12-.181c7.196 4.913 13.74 10.716 19.885 16.877 3.025 3.126 6.062 6.234 9.218 9.22 3.183 2.936 6.377 5.957 10.141 8.11z"/></g><g><path fill="#3a8380" d="M181.362 119.206c26.822 8.225 54.767 12.934 82.81 13.34 14.008.236 28.078-.6 41.848-3.224 6.876-1.338 13.68-3.13 20.178-5.731 3.239-1.33 6.44-2.771 9.588-4.308 3.18-1.504 6.154-3.296 9.352-4.875l.156.397c-5.715 4.03-11.888 7.646-18.252 10.872-6.518 3.084-13.394 5.315-20.377 6.936-13.972 3.29-28.32 4.332-42.557 4.196-7.124-.164-14.233-.595-21.303-1.357-7.064-.858-14.102-1.833-21.04-3.33-6.961-1.397-13.833-3.175-20.61-5.22-6.731-2.213-13.453-4.418-19.916-7.29z"/></g><g><path fill="#dd8c2c" d="M290.224 281.955c.465.355.898.773 1.246 1.179.488.536.992 1.06 1.508 1.57 1.025 1.023 2.097 1.994 3.252 2.851 2.292 1.741 4.906 3.02 7.806 3.304 3.02.515 5.56 2.133 8.13 3.497l-.313.566c-1.41-.469-2.823-.924-4.215-1.284-1.385-.4-2.71-.663-3.938-.617-.746.01-1.426.043-2.404-.118a16.27 16.27 0 0 1-2.508-.566c-1.625-.503-3.158-1.226-4.59-2.053-1.42-.848-2.709-1.828-3.937-2.829-.612-.5-1.21-1.01-1.791-1.529-.11-.094-.36-.33-.364-.308-.054-.044-.173-.158-.177-.145-.014.012.025.05-.016.03l-.474-.202a30.491 30.491 0 0 0-1.352-.482z"/></g><g><path fill="#bfefe6" d="M221.856 257.748a94.987 94.987 0 0 1-6.462-4.832c-9.42-7.477-17.862-16.338-23.94-26.645l.48-.422c7.761 8.718 16.702 16.342 26.324 22.926 1.038.72 2.09 1.424 3.147 2.117z"/></g><g><path fill="#ffab00" d="M425.231 349.175l.05.252c-.007.123.006.258-.078.38-.154.255-.423.284-.605.297-.38.012-.71-.077-1.039-.152a17.557 17.557 0 0 1-1.896-.65 90.865 90.865 0 0 1-3.65-1.55l-7.227-3.21c-4.815-2.15-9.82-3.802-14.717-5.8-9.804-3.954-19.295-8.605-28.71-13.382-9.368-4.862-18.651-9.876-27.898-14.956-9.255-5.074-18.4-10.353-27.553-15.579l.207-.372c9.884 3.987 19.476 8.398 28.95 13.005 4.778 2.231 9.453 4.669 14.185 6.966l14.061 7.138c4.642 2.45 9.319 4.82 13.985 7.165 4.633 2.428 9.353 4.633 14.04 6.9l7.134 3.25a137.414 137.414 0 0 1 7.22 3.59l6.901 3.991c1.142.664 2.286 1.314 3.434 1.927.567.32 1.142.628 1.716.884.278.117.582.235.827.268.127.013.198.013.207.013.03.01.017-.029.048-.05l-.01-.244z"/></g><g><path fill="#dd8c2c" d="M395.562 315.168c1.628 1.14 2.502 3.004 3.747 4.397a21.933 21.933 0 0 0 3.974 3.903 29.671 29.671 0 0 0 4.745 2.926c1.694.807 3.513 1.851 5.081 3.042 3.167 2.437 5.779 5.517 7.747 8.913a35.364 35.364 0 0 1 4.168 10.864 61.402 61.402 0 0 0-5.572-9.964c-2.17-3.076-4.68-5.889-7.632-8.12-1.482-1.156-2.998-2.044-4.743-2.955-1.716-.98-3.388-2.07-4.853-3.426-1.495-1.327-2.763-2.903-3.773-4.588-1.016-1.697-1.626-3.53-2.89-4.992z"/></g><g><path fill="#dd8c2c" d="M350.379 292.232c3.26 3.096 6.412 6.302 9.58 9.499 3.168 3.172 6.31 6.412 9.833 9.145 1.748 1.343 3.658 2.648 5.8 2.974 2.192.177 4.46.148 6.695.105 2.241-.046 4.49-.15 6.744-.15 1.134 0 2.265.02 3.388.15 1.116.153 2.299.342 3.25 1.09l-.207.245c-2.05-.65-4.233-.181-6.417.199-2.189.33-4.414.738-6.686.984-1.137.14-2.285.267-3.444.308l-1.757.069-.877.015-.424.01-.637-.043c-3.3-.434-5.384-2.037-7.378-3.418-3.79-3.045-6.824-6.402-9.69-9.917-2.898-3.477-5.488-7.163-7.997-11.038z"/></g><g><path fill="#e5c4b5" d="M306.425 266.343c.056.056.07.058.097.084"/></g><g><path fill="#bfefe6" d="M227.425 188.038c2.051 2.876 3.53 6.137 4.594 9.502.534 1.68.964 3.39 1.315 5.123.4 1.706.503 3.515.998 5.132 1.139 3.252 3.796 5.748 6.35 8.063 2.627 2.298 5.441 4.393 8.31 6.405 2.87 2.01 5.805 3.915 8.766 5.799 2.956 1.922 5.815 3.97 8.615 6.094 5.594 4.27 10.915 8.875 16.052 13.677a283.145 283.145 0 0 1 14.754 15.05l3.505 3.947 1.712 2.006c.57.71 1.068 1.317 1.811 1.688 1.458.76 3.265.715 4.992.74 1.754.005 3.524.017 5.284.169 7.11.561 13.768 3.573 19.63 7.405 5.892 3.865 11.245 8.485 16.299 13.35l-.295.314c-5.626-4.263-11.151-8.528-17.22-11.772-5.949-3.363-12.293-5.719-18.692-5.951-1.613-.069-3.231-.005-5.014.071-.903.029-1.85.042-2.952-.038-1.08-.092-2.403-.288-3.781-.993-1.337-.587-2.652-2.144-2.977-2.542l-1.714-1.905-3.548-3.777c-4.761-5.026-9.633-9.968-14.718-14.653-5-4.776-10.192-9.33-15.573-13.588a136.738 136.738 0 0 0-8.2-6.15 154.322 154.322 0 0 1-8.676-6.192c-2.833-2.185-5.66-4.414-8.28-6.986-1.308-1.297-2.582-2.653-3.754-4.182-1.143-1.524-2.277-3.262-2.837-5.352-.494-2.209-.376-3.733-.646-5.47a49.042 49.042 0 0 0-.866-5.06c-.795-3.326-1.901-6.604-3.595-9.684z"/></g><g><path fill="#bfefe6" d="M160.235 147.31c3.087 6.138 6.37 12.254 10.79 17.47 2.172 2.628 4.672 4.997 7.572 6.8 2.884 1.805 6.136 3.013 9.498 3.663l-.08.418c-3.675.862-7.611.334-11.167-1.216-1.818-.714-3.418-1.833-4.98-2.961-1.514-1.191-2.84-2.572-4.102-3.958-1.161-1.474-2.244-2.982-3.186-4.549-.857-1.617-1.752-3.185-2.356-4.896-1.335-3.337-2.227-6.83-2.374-10.58z"/></g><g><path fill="#ffab00" d="M221.62 304.824c4.43-3.933 8.47-8.314 12.351-12.791 3.98-4.401 7.755-8.988 11.375-13.703l.337.258c-.574 3.278-1.802 6.147-3.284 8.82-.684 1.385-1.589 2.593-2.414 3.882-.886 1.225-1.865 2.387-2.817 3.568-1.047 1.095-2.078 2.21-3.189 3.25-1.177.975-2.272 2.032-3.577 2.88-2.5 1.783-5.237 3.362-8.507 4.165z"/></g><g><path fill="#ffab00" d="M312.069 294.437c3.098.748 6.328 1.006 9.524 1.11a81.16 81.16 0 0 0 9.614-.32c6.4-.44 12.76-1.538 19-3.088l.109.414c-2.741 2.267-5.802 3.746-8.968 4.848-1.57.626-3.209.939-4.832 1.353-1.643.33-3.306.528-4.976.722-1.676.08-3.353.148-5.044.077-1.684-.166-3.369-.233-5.039-.643-3.318-.677-6.672-1.79-9.508-4.064z"/></g><g><path fill="#dd8c2c" d="M210.457 207.98c-.228.267-.465.537-.685.808a111.666 111.666 0 0 1-6.361 6.205c-2.221 2.006-4.55 3.89-6.831 5.846-2.301 1.926-4.7 3.747-7.142 5.529-2.39 1.845-4.9 3.535-7.426 5.242l.088.194c5.438-2.749 10.556-6.062 15.451-9.664 4.888-3.62 9.513-7.594 13.78-11.928l.005-.005.008-.013.536-.641a20.495 20.495 0 0 1-1.423-1.572z"/></g><g><path fill="#dd8c2c" d="M227.871 187.045c-2.41-2.746-5.287-4.988-8.287-7.029l-.117.182a90.361 90.361 0 0 1 3.988 3.658c.633.633 1.247 1.28 1.832 1.947.401.465.799.946 1.175 1.411-.926 1.6-1.884 3.18-2.916 4.706-1.118 1.698-2.365 3.3-3.53 4.956l-.334.388c.06.098.135.179.173.302.2.569.368 1.148.55 1.722l1.056-1.268.008-.008.005-.007a84.976 84.976 0 0 0 6.416-10.808l.042-.084z"/></g><g><path fill="#ffab00" d="M219.437 180.05c-1.102 1.702-2.305 3.346-3.54 4.96l-1.152 1.274a7.4 7.4 0 0 1 .523 1.01c.432-.566.88-1.11 1.297-1.698l.06-.088c1.076-1.737 2.136-3.48 2.994-5.344z"/></g><g><path fill="#ffab00" d="M204.885 197.24l-1.817 2.018c-6.6 6.264-13.778 11.942-21.566 16.672l-.072.048v.092l.518 15.64.217-.007c.296-2.62.396-5.226.582-7.845.106-1.309.093-2.61.143-3.923l.09-3.02c1.82-.967 3.604-2.002 5.314-3.16a130.184 130.184 0 0 0 5.68-3.983c1.848-1.39 3.71-2.78 5.399-4.355a137.567 137.567 0 0 0 5.039-4.765l.071-.071.018-.026 1.483-1.718a24.333 24.333 0 0 1-1.099-1.598z"/></g><g><path fill="#ff9a2d" d="M181.861 164.696c1.614.093 3.278-.346 4.617-1.25 1.351-.908 2.318-2.286 2.888-3.798 1.208-3.041 1.162-6.454.824-9.71l.212-.026c.943 1.559 1.444 3.261 1.63 5.04.198 1.782 0 3.653-.684 5.478-.718 1.795-2.073 3.553-3.94 4.422-1.826.887-3.92.93-5.572.051z"/></g><g><path fill="#dd8c2c" d="M190.403 149.744c5.138 3.408 9.11 8.177 12.6 13.153 1.66 2.564 3.42 4.997 5.068 7.578 1.638 2.567 3.167 5.2 4.625 7.873 5.833 10.695 10.301 22.077 14.112 33.617l.004.008.005.028c.967 4.056 3.124 7.955 6.33 10.68 1.64 1.32 3.414 2.555 5.065 3.924.824.692 1.653 1.397 2.322 2.285.698.85 1.05 2.078.805 3.175l-.424-.071c.01-1.072-.46-1.884-1.186-2.5-.68-.663-1.551-1.222-2.429-1.77-1.82-1.137-3.616-2.002-5.639-3.269-1.972-1.386-3.667-3.157-5.063-5.125-.69-.988-1.272-2.045-1.795-3.125-.53-1.136-.96-2.124-1.349-3.548l.098.385c-2.24-5.58-4.562-11.101-6.886-16.597-2.437-5.451-4.802-10.917-7.493-16.205a150.34 150.34 0 0 0-4.115-7.86 107.797 107.797 0 0 0-2.162-3.845l-.69-1.114-.512-.976-1.053-1.935c-2.895-5.107-6.08-10.188-10.455-14.395z"/></g><g><path fill="#ffab00" d="M181.974 164.713c1.906 2.137 3.62 4.401 5.349 6.644a176.782 176.782 0 0 1 5.094 6.759c1.685 2.25 3.286 4.549 4.922 6.813l4.865 6.8c3.303 4.471 6.454 9.017 9.899 13.303 3.288 4.41 6.857 8.554 10.493 12.567l.92 1.018.095 1.065c.215 2.53.67 5.287 1.22 7.813.58 2.492 1.497 5.053 2.673 6.451.293.338.572.552.856.692.142.077.295.118.464.148.091.02.163.02.296.026l.53-.018c1.424-.02 2.802-.05 4.191-.148 1.376-.105 2.744-.261 4.02-.59 1.239-.368 2.564-.769 3.054-2.062l.423.071c-.283 1.593-1.749 2.494-3.031 3.033-1.336.562-2.727.913-4.124 1.204-1.402.292-2.81.524-4.21.73-.672.12-1.49.213-2.219.005a4.838 4.838 0 0 1-1.976-1.043c-2.232-2.002-3.266-4.82-4.161-7.506-.853-2.733-1.437-5.533-1.818-8.377l.103.222c-8.06-7.926-14.754-17.075-20.897-26.496-6.174-9.419-11.712-19.215-17.393-28.904z"/></g><g><path fill="#bfefe6" d="M137.961 137.634c4.439.84 8.663 1.963 12.862 3.294a98.486 98.486 0 0 1 12.402 4.782c4.008 1.985 8.007 4.257 11.463 7.396a25.317 25.317 0 0 1 4.574 5.305c1.28 2.031 2.04 4.178 2.67 6.331l-.277.166c-1.163-1.86-2.232-3.777-3.676-5.403-1.42-1.647-3.059-3.096-4.807-4.393-3.502-2.598-7.38-4.65-11.329-6.513-7.873-3.806-16.105-6.886-24.018-10.674z"/></g><g><path fill="#cc9c71" d="M129.078 83.899s2.983 5.744-3.801 5.788"/></g><g><path fill="#261109" d="M131.673 81.495c-2.694-1.84-6.946.21-7.281.365 3.153-6.934 2.182-17.728 2.182-17.728 1.823 5.287 3.373 11.29 5.1 17.363z"/></g><g><path fill="#cd9963" d="M99.737 55.212c2.853-5.72 7.721-8.206 11.87-9.272l.387-.072c7.28 1.695 11.348 8.898 14.578 18.264 0 0 .972 10.794-2.181 17.728.337-.155 4.587-2.205 7.283-.365.375 1.273.751 2.546 1.129 3.82l.002.02c-.549 7.24-4.78 9.549-7.556 8.954-.57.514-1.928 1.83-3.489 3.572-1.685 1.842-3.66 4.2-5.211 6.655-2.644 4.118-12.703 2.977-25.419-4.15-4.249-2.348-8.813-5.396-13.49-9.126-9.982-7.979-1.966-11.162-.846-12.298 1.618-1.643 8.863-7.416 7.607-11.492-.955-3.1-.431-5.5-.431-5.5 7.52.485 13.704-2.943 15.767-6.738zm25.54 34.475c6.783-.044 3.8-5.788 3.8-5.788z"/></g><g><path fill="#261109" d="M142.39 87.12c3.826 17.974 5.284 28.276 15.22 33.354l-.076.16c-7.904-3.083-13.288-9.039-17.273-16.314-3.184-5.77-5.47-12.343-7.455-18.984l-.003-.021c-.378-1.274-.754-2.547-1.129-3.82-1.727-6.074-3.278-12.076-5.101-17.363-3.23-9.366-7.3-16.569-14.579-18.264l.019-.021c12.908-6.378 17.535-5.355 20.809-1.303 3.247 4.03 5.749 24.622 9.568 42.577z"/></g><g><path fill="#261109" d="M140.155 104.376c15.668 29.74 40.474 42.28 43.095 39.336 2.762-3.113-3.48-5.99-3.48-5.99 3.977-2.224 15.134 1.415 8.788 12.338-1.945 3.333-6.856 3.78-13.367 1.664-11.929-3.822-29.174-16.213-43.188-35.014 0 0-1.288-1.88-2.984-4.595-2.535-4.039-5.918-9.905-7.259-14.254 1.563-1.742 2.92-3.058 3.49-3.572 2.775.595 7.006-1.715 7.556-8.953 1.985 6.64 4.271 13.214 7.455 18.984z"/></g><g><path fill="#261109" d="M235.125 108.858c7.469 9.229.197 22.906-16.283 18.796 10.905 14.326 37.8 9.388 38.432-4.887 0 0 4.11 15.681-11.42 22.643l-.023.02c-11.736 15.465-46.845 18.67-70.64 6.294 6.511 2.117 11.42 1.669 13.368-1.664 6.345-10.923-4.81-14.562-8.788-12.338 0 0 6.242 2.877 3.48 5.99-2.621 2.943-27.429-9.595-43.097-39.336l.107-.056c3.986 7.275 9.369 13.23 17.274 16.314 2.727 1.056 5.773 1.782 9.155 2.095 8.211 4.88 13.07 3.718 13.07 3.718-36.769-13.935-23.711-44.674-20.813-57.359 2.922-12.685-9.568-17.66-9.568-17.66s2.143-9.7-2.12-11.9c0 0-7.434-5.826-21.24-3.676 7.703-3.172 18.039-4.133 29.732 3.525 24.91 16.307 28.866 20.525 32.067 41.54 3.227 21.012 40.173 42.89 42.605 32.389 2.385-10.261-6.578-7.126-6.961-7.012.225-.511 3.644-7.338 11.663 2.564z"/></g><g><path fill="#2d130c" d="M158.947 69.088c-2.898 12.685-15.955 43.424 20.815 57.359 0 0-4.86 1.161-13.072-3.718-3.382-.313-6.427-1.04-9.155-2.095l.076-.16c-9.936-5.078-11.394-15.38-15.22-33.353-3.82-17.955-6.322-38.547-9.569-42.577-3.272-4.052-7.9-5.075-20.808 1.303.418-.51 5.65-6.557 13.985-9.994l.02-.001c13.807-2.15 21.243 3.676 21.243 3.676 4.26 2.2 2.118 11.9 2.118 11.9s12.49 4.975 9.567 17.66z"/></g><g><path fill="#261109" d="M103.759 55.041c.607 2.052 1.336 3.407 2.131 4.713.74 1.329 2.113 1.958 3.072 3.126a20.363 20.363 0 0 1 2.488 3.84c.722 1.408 1.188 3.005 1.372 4.806l.454-.05c.556-1.983.56-4.033.358-5.976a19.564 19.564 0 0 0-1.53-5.404c-.734-1.642-1.334-3.569-2.813-4.507-1.418-.944-3.155-1.559-5.266-1.023z"/></g><g><g><path fill="#e5c4b5" d="M122.947 91.998c.24 1.389 1.626 2.234 2.96 2.242 1.356.06 2.67-.562 3.657-1.47 2.072-1.817 2.884-4.696 3.128-7.423l.216.016c.656 1.456.785 3.038.502 4.62a7.893 7.893 0 0 1-2.404 4.397c-1.344 1.174-3.268 1.961-5.188 1.564a4.358 4.358 0 0 1-2.478-1.374c-.608-.727-.893-1.773-.602-2.523z"/></g></g><g><path fill="#bd8758" d="M77.844 78.39c.05.477-.514.942-.9 1.305-1.2 1.165-2.33 2.074-2.798 3.24-1.045 2.138 1.164 4.497 3.357 6.231 4.757 3.574 9.762 7.078 15.07 9.836 5.166 2.976 10.768 5.405 16.432 6.333 1.402.203 2.828.278 4.107.025a4.668 4.668 0 0 0 1.719-.649c.5-.293.802-.712 1.325-1.386 2.018-2.435 4.16-4.677 6.565-6.64l.162.15c-2.093 2.239-4.073 4.587-5.784 7.124-.409.627-.853 1.317-1.502 1.782a5.997 5.997 0 0 1-2.122.984c-1.511.405-3.088.405-4.622.278-6.17-.667-11.926-3.21-17.32-6.106-5.378-2.987-10.432-6.525-15.15-10.474-1.143-1.03-2.233-2.162-3.005-3.524-.796-1.32-1.076-3.12-.235-4.517.775-1.404 2.164-2.256 3.31-3.21.59-.48 1.36-1.27 1.391-.782z"/></g><g><path fill="#cc9c71" d="M84.063 62.018c.726 1.213.927 1.894 1.014 2.654.017.766-.065 1.446-.605 2.776l-.141.076a7.038 7.038 0 0 1-.873-2.731 6.835 6.835 0 0 1 .452-2.835z"/></g><g><g><path fill="#f5f5f5" d="M104.585 63.658c1.234 2.316 1.198 5.05 2.559 6.707-.142.748-.956 1.176-.956 1.176-1.672-1.806-4.354-2.3-6.51-3.29.3-.067 3.222-.716 4.907-4.593z"/></g><g><path fill="#23160a" d="M103.403 62.054c.515.504.9 1.04 1.181 1.604-1.685 3.877-4.608 4.526-4.907 4.592l-.023.002c-.112-.036-.202-.093-.312-.15-.82-4.017 4.061-6.048 4.061-6.048z"/></g><g><path d="M103.025 62.947c.261.255.456.527.599.814-.855 1.963-2.336 2.293-2.488 2.326h-.011c-.058-.018-.104-.046-.16-.076-.413-2.035 2.06-3.064 2.06-3.064z"/></g><g><path fill="#f5f5f5" d="M103.326 63.45c.134.128.234.266.305.41-.433.996-1.183 1.162-1.26 1.179l-.006.001c-.03-.009-.052-.022-.082-.04-.209-1.03 1.043-1.55 1.043-1.55z"/></g></g><g/><g><g><g/><g clip-path="url(#1r8ia)"><g><g><g><path fill="#fbae39" d="M110.072 149.155l-3.48 5.647 7.444 33.834 2.635-2.98z"/></g><g><path fill="#fbae39" d="M125.604 172.072l-3.485 5.788L115 165.456c-.793-1.171-1.419-2.843-1.753-4.7l-1.936-10.274z"/></g></g></g></g></g></g><g><g><g/><g clip-path="url(#1r8ib)"><path fill="#a65f41" d="M71.935 64.066S79.4 81.69 93.01 77.977"/></g></g></g></g></g></svg>