<svg xmlns="http://www.w3.org/2000/svg" width="518" height="414.422" viewBox="0 0 518 414.422">
  <g id="hero" style="isolation: isolate">
    <g id="Layer_2" data-name="Layer 2">
      <g id="_1" data-name="1">
        <path id="Path_557" data-name="Path 557" d="M146.885,227.249S84.631,285.3,65.049,374.832,32.873,495.134,0,502.828c0,0,125.9-9.791,167.866,9.791S246.9,497,246.9,497s-45.463-170.783-13.989-244.921C232.915,252.079,187.453,199.62,146.885,227.249Z" transform="translate(0 -127.095)" fill="#337772"/>
        <path id="Path_558" data-name="Path 558" d="M278.754,229.33c-29.944,1.929-55.741,21.128-88.064,55.531l18.216,9.665c21.153-.92,45.442-21.7,69.6-23.271Z" transform="translate(-110.56 -132.963)" fill="#cefaf2"/>
        <path id="Path_559" data-name="Path 559" d="M511.97,228.79c28.129.882,47.3,33.617,60.116,67.835l-13.342,4.664c-12.745-7.446-30.012-32.974-48.854-37.315Z" transform="translate(-295.628 -132.65)" fill="#cefaf2"/>
        <path id="Path_560" data-name="Path 560" d="M428.891,20.33c-25.146,4.2-41.63,15.884-59.641,34.945l4.975,4.362,55.51-17.262C432.736,36.206,431.979,28.39,428.891,20.33Z" transform="translate(-214.087 -11.787)" fill="#191919"/>
        <path id="Path_561" data-name="Path 561" d="M581.769,375.477c18.859,14.707-26.335,25.213-44.383,43.1L533.68,415.7S563.229,361,581.769,375.477Z" transform="translate(-309.421 -216.283)" fill="#cefaf2"/>
        <path id="Path_562" data-name="Path 562" d="M556.551,294.065c-11.346-10.535-25.036-26.688-39.672-30.062l2-34.256a36.139,36.139,0,0,0-6.942-.908l-2.1,35.184c14.636,3.362,28.322,19.527,39.676,30.062-15.1,11.043-29.68,38.029-29.68,38.029l3.706,2.874c1.038-1.025,2.164-2.03,3.362-3.009C528.006,329.994,542.02,304.676,556.551,294.065Z" transform="translate(-295.599 -132.679)" fill="#bfefe6"/>
        <path id="Path_563" data-name="Path 563" d="M527.6,423.945c2.9-6.471,15.649-53.115,45.11-22.776-4.984,9.093-28.415,18.884-37.718,27.969l-1.538,2.807,4.278,5.463-10.812,10.48L516.25,436.052Z" transform="translate(-299.315 -226.702)" fill="#fbae39"/>
        <path id="Path_564" data-name="Path 564" d="M526.467,432.306c5.538-16.611,12.8-29.28,28.675-41.269-18.183-.609-25.423,28.2-27.536,32.919l-11.346,12.09,10.669,11.837,10.812-10.48-5.152,1.723Z" transform="translate(-299.321 -226.713)" fill="#f4b545"/>
        <path id="Path_565" data-name="Path 565" d="M328.135,513.92l-19.38-43.32C284.4,548.76,260.011,620.872,239,669.68l7.627.689C275.932,605.392,304.272,536.481,328.135,513.92Z" transform="translate(-138.569 -272.848)" fill="#cefaf2"/>
        <path id="Path_566" data-name="Path 566" d="M467.13,456.709l36.281-27.549L475.5,640.081l-6.98-3.446C474.093,566.053,477.908,489.082,467.13,456.709Z" transform="translate(-270.836 -248.822)" fill="#cefaf2"/>
        <path id="Path_567" data-name="Path 567" d="M434.9,232.481c-14.14-18.607-91.606-16.59-90.615,12.9-3.618,29.957,35.663,50.69,10.837,127.19,3.668-.723,13.959,5.975,17.3,5.366,17.9-3.269,31.76-4.69,49.682-2.139C426.026,277.184,476.027,286.63,434.9,232.481Z" transform="translate(-199.473 -127.819)" fill="#cefaf2"/>
        <path id="Path_568" data-name="Path 568" d="M449.46,517.14l-66.331.7-1.4,7.463,67.028-1.748Z" transform="translate(-221.322 -299.831)" fill="#ffcb4a"/>
        <path id="Path_569" data-name="Path 569" d="M448.153,526.29l-65.864.7-1.4,7.463,66.389-2.916Z" transform="translate(-220.835 -305.136)" fill="#bfefe6"/>
        <path id="Path_570" data-name="Path 570" d="M239,671.393l2.614.235c17.754-41.6,42.021-106.091,62.25-169.3,1.887-6.614,14.476-49.106-2.1-16.775a153.8,153.8,0,0,1-3.971,21.431C277.143,571.567,256.834,629.9,239,671.393Z" transform="translate(-138.569 -274.561)" fill="#bfefe6"/>
        <path id="Path_571" data-name="Path 571" d="M453.78,723.612c3.921-49.379,9.274-110.02,6.976-147.612-12.186.971-17.62,3.421-25.486,6.391,5.677-.765,13.9-1.618,19.426-1.727,2.336,38.239-.714,91.266-4.648,141.107Z" transform="translate(-252.364 -333.958)" fill="#bfefe6"/>
        <path id="Path_572" data-name="Path 572" d="M329.769,385.765c5.311-35.747-3.068-53.657-9.43-69.335-10.152,3.706-22.477,14.111-34.13,22.586,9.543-4.084,19.443-9.371,29.465-13.027C321.731,340.912,330.82,358.178,329.769,385.765Z" transform="translate(-165.941 -183.462)" fill="#bfefe6"/>
        <path id="Path_573" data-name="Path 573" d="M459.468,222.468c-6.148-5.69-31.718-4.059-39.634-4.009-18.54.118.933,21.96,24.944,20.8C452.69,238.869,465.637,228.158,459.468,222.468Z" transform="translate(-239.143 -126.513)" fill="#fbae39"/>
        <path id="Path_574" data-name="Path 574" d="M516.422,939.623c-3.446-3.282-37.475-1.034-41.471-22.633-.756-4.105-3.547-4.358-6.837-5.53l-2.055,27.7,51.06,1.164Z" transform="translate(-270.216 -528.453)" fill="#e04d46"/>
        <path id="Path_575" data-name="Path 575" d="M134.559,939.876c4.442-3.206,35.5-.265,46.3-21.372,2.055-4.009,4.891-4.257,8.509-5.4l-7.013,27.478-49.194.929Z" transform="translate(-77.205 -529.404)" fill="#e04d46"/>
        <path id="Path_576" data-name="Path 576" d="M259.2,386.389c-5.664-6.253-53.854-58.225-73.029-33.835-17.569,22.351,40,22.427,67.784,39.718,2.1,1.576,4.021,1.925,8.568,7.169l-7.892,6.929,12.606,2.862,6.076-12.884Z" transform="translate(-106.043 -200.655)" fill="#cefaf2"/>
        <path id="Path_577" data-name="Path 577" d="M264.482,348.91l7.681-6.723.13-.277c-4.484-5.156-6.4-5.513-8.484-7.076C236,317.549,175.5,316.469,193.748,294.669c16.787-20.048,28.911-29.142,50.926-46.459-18.01,8.551-35.811,23.784-56.14,45.164a18.492,18.492,0,0,0-2.32,2.45c-17.59,22.334,39.975,22.41,67.763,39.7,2.1,1.576,4.021,1.925,8.568,7.169l-7.892,6.929,12.606,2.862,1.261-2.639Z" transform="translate(-106.062 -143.909)" fill="#cefaf2"/>
        <path id="Path_578" data-name="Path 578" d="M455.271,174.742l-36.2-4.992c2.139,5.938,2.744,13.027-2.744,23.423,20.221,20.048,41.513,15.615,43.357,2.021Z" transform="translate(-241.383 -98.419)" fill="#eea48a"/>
        <path id="Path_579" data-name="Path 579" d="M416.027,195.6q-1.7-.639-3.547-1.185l-.042-.042a8.967,8.967,0,0,0-2.555-1.559l-3.105-14.371a61.187,61.187,0,0,0-7.795-4.669l-29.2-4.026c2,5.543,2.652,12.1-1.731,21.393a4.16,4.16,0,0,0-2.278,1.9,75.75,75.75,0,0,0-7.564,1.92,80.074,80.074,0,0,0-26.86,7.459C353,227.844,415.245,222.352,416.027,195.6Z" transform="translate(-192.113 -98.419)" fill="#692100" opacity="0.3" style="mix-blend-mode: multiply;isolation: isolate"/>
        <path id="Path_580" data-name="Path 580" d="M451.83,71.812,439.2,54.05c-21.7,1.366-32.751,7.144-45.383,24.557L414.3,116.22l28.764,8.623,18.447-9.7C459.928,104.963,446.666,99.2,451.83,71.812Z" transform="translate(-228.332 -31.338)" fill="#f5bca2"/>
        <path id="Path_581" data-name="Path 581" d="M443.031,126.586,414.7,115.572l1.925-18.01c-1.227-21.683-11.543-27.28,1.6-34.172-9.459,3.58-16.657,9.883-24.461,20.632l20.5,37.613,28.94,9.325,18.1-10.316-.176-2.45-9.245,2.857-2.332-2.1-1.168,3.731Z" transform="translate(-228.303 -36.753)" fill="#e6a48a"/>
        <path id="Path_582" data-name="Path 582" d="M398.586,73.94c-7.614.672-16.031,6.61-23.876,13.842l18.4,24.843,9.127-1.261C409.033,90.265,392.25,81.815,398.586,73.94Z" transform="translate(-217.252 -42.869)" fill="#191919"/>
        <path id="Path_583" data-name="Path 583" d="M365.9,109.5a13.515,13.515,0,0,1,10.085,3.034l5.194,10.026S373.048,112.357,365.9,109.5Z" transform="translate(-212.144 -63.444)" fill="#723f1d"/>
        <path id="Path_584" data-name="Path 584" d="M375.115,61.753c8.9-9.409,17.409-17.01,26.78-22.813-12.606,6.127-23.3,15.174-34.588,27.125l3.273,2.87a14.01,14.01,0,0,0-4.681-.3c3.362,1.345,6.959,4.328,9.812,7.106L388,92.332l9.127-1.261c.256-.8.483-1.593.677-2.362C395.815,68.578,374.766,67.834,375.115,61.753Z" transform="translate(-212.144 -22.577)" fill="#191919"/>
        <path id="Path_585" data-name="Path 585" d="M424.54,53.474c13.867-5.971,33.533-4.047,33.419-10.014-.349-18.187-30.31,3.177-30.31,3.177Z" transform="translate(-246.143 -20.946)" fill="#723f1d"/>
        <path id="Path_586" data-name="Path 586" d="M492.6,95.64c-2.883,3.782-25.923,6.387-25.923,6.387l-2.391,12.8,11.842,4.383,12.539-10.346,3.5,3.858Z" transform="translate(-269.19 -55.451)" fill="#008581"/>
        <path id="Path_587" data-name="Path 587" d="M487.65,101.85c-7.677,2.349-20.969,3.782-20.969,3.782l-2.391,12.8,11.842,4.383,12.539-10.346S488.175,107.04,487.65,101.85Z" transform="translate(-269.19 -59.051)" fill="#337772"/>
        <path id="Path_588" data-name="Path 588" d="M477.635,176.287l-2.824,3-.811-.773,3.74-3.971c5.593,7.265,14.531,5.463,21.662.542-1.983-1.551-2.244-2.622-2.261-2.811a2.521,2.521,0,0,0,1.08-.244,13.934,13.934,0,0,0,3.08,3.084C490.2,183.035,482.018,181.262,477.635,176.287Z" transform="translate(-274.819 -99.741)" fill="#b25b39"/>
        <path id="Path_589" data-name="Path 589" d="M485.53,119.892l9.186-.672S487.74,126.107,485.53,119.892Z" transform="translate(-281.504 -69.122)" fill="#eae0a4"/>
        <path id="Path_590" data-name="Path 590" d="M523.64,112.9s2.4,2.1,2.908-1.261Z" transform="translate(-303.6 -64.727)" fill="#eae0a4"/>
        <path id="Path_591" data-name="Path 591" d="M280.051,405.22c-4.9-6.059-40.8-47.093-66.1-24.129-16.426,19.595,27.621,13.207,54.455,28.285l.092-.109,8.4,6.27-8.568,8.047,17.309,7.518,7.871-15.913Z" transform="translate(-121.975 -216.939)" fill="#fbae39"/>
        <path id="Path_592" data-name="Path 592" d="M410.988,154.315c-3.311-3.731-8.3-5.248-11.148-3.4s-2.458,6.383.84,10.115,8.308,5.248,11.152,3.391S414.324,158.059,410.988,154.315Z" transform="translate(-230.717 -87.043)" fill="#f5bca2"/>
        <path id="Path_593" data-name="Path 593" d="M413.061,160.5c-2.521-2.857-6.236-3.681-8.173-2.378-1.614,1.088-1.647,3.475-.189,5.639,1.584,2.353,4.74,4.168,7.337,3.782C415.259,167.1,415.91,163.718,413.061,160.5Z" transform="translate(-234.026 -91.328)" fill="#eea78e"/>
        <path id="Path_594" data-name="Path 594" d="M473.158,877.1l5.463-34.878-14.107.353c-1.63,28.911-.66,27.62-3.9,58.792h54.88l-.134-2.765C511.968,895.377,477.881,897.831,473.158,877.1Z" transform="translate(-267.056 -488.309)" fill="#fbae39"/>
        <path id="Path_595" data-name="Path 595" d="M186.039,844.22c-4.328,11.766-10.446,33.251-10.505,33.34-10.8,21.763-44.652,18.91-49.093,22.2l-1,2.778h54.653l4.2-20.557c5.425-12.451,12.157-25.1,17.485-37.42Z" transform="translate(-72.729 -489.468)" fill="#fbae39"/>
        <path id="Path_596" data-name="Path 596" d="M449.46,517.14l-66.331.7-1.4,7.463,67.028-1.748Z" transform="translate(-221.322 -299.831)" fill="#ffcb4a"/>
        <path id="Path_597" data-name="Path 597" d="M524.016,150.9s-14.863,16.808-9.182-5.148Z" transform="translate(-297.744 -84.504)" fill="#eea78e"/>
        <path id="Path_598" data-name="Path 598" d="M517.153,143.072c22.57-11.56,8.144-2.853-.727-16.262L512.11,134.5Z" transform="translate(-296.915 -73.523)" fill="#f5bca2"/>
        <path id="Path_599" data-name="Path 599" d="M459.68,16.238S479.06,13.09,475.648.03a28.6,28.6,0,0,1,7.984,19.389Z" transform="translate(-266.517 -0.017)" fill="#191919"/>
        <path id="Path_600" data-name="Path 600" d="M279.163,432.252l1.983-3.383c-19.586-26.347-72.482-27.831-67.5-38.239-20.893,23.082,50.711,16.2,64.713,37.6l-2.471,3.152Z" transform="translate(-121.671 -226.482)" fill="#ea9c34"/>
        <path id="Path_601" data-name="Path 601" d="M423.781,162.6c-1.752.235-6.82,2.681,1.681,3.9Z" transform="translate(-243.905 -94.273)" fill="#f5bca2"/>
        <path id="Path_602" data-name="Path 602" d="M551.78,486.9l1.227,2.273,2.072-1.315,3.3,3.719-3.408-6.992Z" transform="translate(-319.915 -280.953)" fill="#f4b545"/>
        <path id="Path_603" data-name="Path 603" d="M376.484,479.41l4.429.118-5.013,2.1Z" transform="translate(-217.942 -277.956)" fill="#edaa3e"/>
        <path id="Path_604" data-name="Path 604" d="M372.562,486.35l.635,2.715-2.967-2.441Z" transform="translate(-214.655 -281.98)" fill="#edaa3e"/>
        <path id="Path_605" data-name="Path 605" d="M501.846,363.18c-6.3,9.173-42.555,6.463-65.746,8.4,27.02,2.694,55.846-2.979,59.208,6.391Z" transform="translate(-252.845 -210.567)" fill="#bfefe6"/>
        <path id="Path_606" data-name="Path 606" d="M436.192,11.766c-18.464,5.114-31.3,18.8-31.3,18.8l8.257,1.971c11.619-5,27.133-4.706,32.012-7.66,5.194-3.152,1.13-21.553-1.231-24.877C443.886,5.29,441.074,10.4,436.192,11.766Z" transform="translate(-234.75)" fill="#0f0e0e"/>
        <path id="Path_607" data-name="Path 607" d="M263.58,391.426c-26.276-20.62-54.069,3.013-37.189,9.791C221.89,394.019,241.956,378.152,263.58,391.426Z" transform="translate(-128.271 -222.152)" fill="#dd8c2c"/>
        <path id="Path_608" data-name="Path 608" d="M560.11,414.768c10.694-29.415,36.214-11.547,26.507-1.193C587.869,406.46,572.313,391.719,560.11,414.768Z" transform="translate(-324.745 -231.135)" fill="#ea9c34"/>
        <path id="Path_609" data-name="Path 609" d="M465.91,899.272c3.152-30.31,2.324-29.936,3.782-56.472l-5.118.13c-1.63,28.911-.66,27.621-3.9,58.792h54.88l-.118-2.45Z" transform="translate(-267.091 -488.645)" fill="#ea9c34"/>
        <path id="Path_610" data-name="Path 610" d="M485.727,925.22l-3.437,9.85,5.421-4.719Z" transform="translate(-279.626 -536.431)" fill="#edaa3e"/>
        <path id="Path_611" data-name="Path 611" d="M492.026,941.59l-3.5,6.992,7-3.5Z" transform="translate(-283.244 -545.922)" fill="#edaa3e"/>
        <path id="Path_612" data-name="Path 612" d="M225.12,949.9l6.122,3.673-2.32-6.093Z" transform="translate(-130.522 -549.337)" fill="#edaa3e"/>
        <path id="Path_613" data-name="Path 613" d="M235.67,940.808l7.337,2.71-4.244-6.568Z" transform="translate(-136.639 -543.232)" fill="#edaa3e"/>
        <path id="Path_614" data-name="Path 614" d="M141.858,899.747l.118-1.088c22.381-2.681,31.125,2.215,49.535-54.321l-5.463-.118c-4.328,11.766-10.446,33.251-10.505,33.34-10.8,21.763-44.652,18.91-49.093,22.2l-1.008,2.778h54.653l.571-2.8Z" transform="translate(-72.729 -489.468)" fill="#ea9c34"/>
        <path id="Path_615" data-name="Path 615" d="M281.935,841.012l-19.41-2.622-2.446,6.118,21.158,3.147Z" transform="translate(-150.791 -486.088)" fill="#ea9c34"/>
        <path id="Path_616" data-name="Path 616" d="M482.671,837.79l-19.515,1.7L462.11,846l21.334-1.572Z" transform="translate(-267.926 -485.74)" fill="#ea9c34"/>
        <path id="Path_617" data-name="Path 617" d="M400.068,518.38l-16.939.177-1.4,7.463,17.872-.466Z" transform="translate(-221.322 -300.55)" fill="#ea9c34"/>
        <path id="Path_618" data-name="Path 618" d="M446.64,435.549c4.992-24.482,37.361-31.827,34.953.466C481.593,436.016,474.382,394.07,446.64,435.549Z" transform="translate(-258.956 -240.272)" fill="#bfefe6"/>
        <path id="Path_619" data-name="Path 619" d="M347.88,227.968c6.412-1.164,17.846,15.548,24.83,12.825,4.038-1.584-1.4-19.33,4.9-21.334C377.606,219.459,355.225,217.127,347.88,227.968Z" transform="translate(-201.697 -127.117)" fill="#337772"/>
        <path id="Path_620" data-name="Path 620" d="M542.57,236.827c-6.118-4.547-9.467,4.622-14.976,1.559-3.181-1.765-3.009-10.791-7.984-13.056C519.593,225.33,537.225,225.67,542.57,236.827Z" transform="translate(-301.263 -130.644)" fill="#337772"/>
        <ellipse id="Ellipse_14" data-name="Ellipse 14" cx="1.748" cy="1.836" rx="1.748" ry="1.836" transform="translate(166.03 105.574)" fill="#fbae39"/>
        <ellipse id="Ellipse_15" data-name="Ellipse 15" cx="1.748" cy="1.576" rx="1.748" ry="1.576" transform="translate(228.02 100.326)" fill="#fbae39"/>
        <path id="Path_621" data-name="Path 621" d="M554.28,814.391c11.657-3.727,20.985-7.69,15.855-23.532-2.8-13.056-15.619-62.019-15.619-62.019S566.4,801.335,554.28,814.391Z" transform="translate(-321.365 -422.572)" fill="#008581"/>
        <path id="Path_622" data-name="Path 622" d="M483.549,0c1.4,4.311,2.681,7.925-1.4,13.867l2.45-.235S489.029,7.824,483.549,0Z" transform="translate(-279.545)" fill="#191919"/>
        <path id="Path_623" data-name="Path 623" d="M493.82,119.667l.223,2.992a8.149,8.149,0,0,0,2.941-1.223l-.147-1.836Z" transform="translate(-286.311 -69.343)" fill="#9e4725"/>
        <path id="Path_624" data-name="Path 624" d="M526,112.944s0,1.021.273,1.084a1.135,1.135,0,0,0,.983-.248V112.52Z" transform="translate(-304.968 -65.238)" fill="#9e4725"/>
        <g id="Layer_2-2" data-name="Layer 2-2" transform="translate(192.588 122.773)">
          <g id="Layer_1-2" data-name="Layer 1-2">
            <path id="Path_336" data-name="Path 336" d="M478.463,292.17H469.9L458.31,327.817l8.694-.58Z" transform="translate(-458.31 -292.17)" fill="#fbae39"/>
            <path id="Path_337" data-name="Path 337" d="M515.529,329.087l-8.824.571-6.3-16.25a8.342,8.342,0,0,1-.118-5.463l3.152-9.867Z" transform="translate(-482.412 -295.597)" fill="#fbae39"/>
          </g>
        </g>
        <rect id="Rectangle_52" data-name="Rectangle 52" width="150.31" height="119.937" transform="translate(367.69 294.485)" fill="#eabd98"/>
        <rect id="Rectangle_53" data-name="Rectangle 53" width="65.2" height="119.937" transform="translate(302.482 294.485)" fill="#e0b18c"/>
        <rect id="Rectangle_54" data-name="Rectangle 54" width="27.49" height="27.49" transform="translate(430.735 294.485)" fill="#ddbda2"/>
        <rect id="Rectangle_55" data-name="Rectangle 55" width="27.49" height="27.49" transform="translate(321.341 294.699)" fill="#c4a894"/>
        <rect id="Rectangle_56" data-name="Rectangle 56" width="27.49" height="27.49" transform="translate(321.341 386.932)" fill="#c4a894"/>
        <rect id="Rectangle_57" data-name="Rectangle 57" width="27.49" height="27.49" transform="translate(430.735 386.932)" fill="#ddbda2"/>
        <rect id="Rectangle_95" data-name="Rectangle 95" width="116.655" height="109.545" transform="translate(401.345 184.944)" fill="#efc29a"/>
        <rect id="Rectangle_96" data-name="Rectangle 96" width="33.655" height="109.545" transform="translate(367.69 184.944)" fill="#e0b18c"/>
        <rect id="Rectangle_54-2" data-name="Rectangle 54" width="18.544" height="25.158" transform="translate(450.405 184.944)" fill="#ddbda2"/>
        <rect id="Rectangle_57-2" data-name="Rectangle 57" width="18.544" height="25.158" transform="translate(450.405 269.545)" fill="#ddbda2"/>
        <rect id="Rectangle_55-2" data-name="Rectangle 55" width="15.434" height="25.154" transform="translate(376.8 184.944)" fill="#c4a894"/>
        <rect id="Rectangle_56-2" data-name="Rectangle 56" width="15.434" height="25.154" transform="translate(376.8 269.335)" fill="#c4a894"/>
      </g>
    </g>
  </g>
</svg>
