<svg xmlns="http://www.w3.org/2000/svg" width="517.624" height="389.597" viewBox="0 0 517.624 389.597">
  <g id="heroAsset_12" data-name="heroAsset 12" transform="translate(0.001)" style="isolation: isolate">
    <g id="Layer_2" data-name="Layer 2" transform="translate(-0.001)">
      <g id="_1" data-name="1">
        <path id="Path_844" data-name="Path 844" d="M761.573,214.66c13.768,17.572,77.442,10.707,95.534,67.566l-19.23,4.21c-16.632-64.619-96.729-36.813-99.686-54.822Z" transform="translate(-354.522 -103.092)" fill="#cefaf2"/>
        <path id="Path_845" data-name="Path 845" d="M837.328,275.821c-20.093-35.077-83.58-23.248-93.907-35.961l-5.3,3.836c2.973,18.009,83.1-9.8,99.728,54.822l19.23-4.21c-.556-1.752-5.717-13.664-6.336-15.3Z" transform="translate(-354.488 -115.195)" fill="#bfefe6"/>
        <path id="Path_846" data-name="Path 846" d="M82.77,100.165s104.66,42.1,105.695,177.871c0,0,182.752-135.684,255.235-121.006C388.233,57.8,313.754,41.211,82.77,100.165Z" transform="translate(-39.751 -31.73)" fill="#337772"/>
        <path id="Path_847" data-name="Path 847" d="M333.648,392.524,307.334,373.19c-36.741,129.5-115.637,122.519-190.267,78.128l-7.677,9.771C182.5,513.827,283.2,526.717,333.648,392.524Z" transform="translate(-52.535 -179.228)" fill="#cefaf2"/>
        <path id="Path_848" data-name="Path 848" d="M308.8,416.081c-35.374,108.59-126.328,105.476-197.6,60.565l-1.814,2.308C182.5,531.693,283.2,544.582,333.648,410.39Z" transform="translate(-52.535 -197.093)" fill="#bfefe6"/>
        <path id="Path_849" data-name="Path 849" d="M523.643,389.34,505,416.886C571.35,450.093,648.625,490.96,693.983,541.5l10.395-9.355C659.275,482.348,585.238,432.12,523.643,389.34Z" transform="translate(-242.53 -186.984)" fill="#cefaf2"/>
        <path id="Path_850" data-name="Path 850" d="M518.058,362.7l-15.9-8.8c-25.571-1.476-32.151,11.892-36.19,45.119l61.413,17.973C509.285,397.079,527.377,375.588,518.058,362.7Z" transform="translate(-223.786 -169.91)" fill="#008581"/>
        <rect id="Rectangle_97" data-name="Rectangle 97" width="68.892" height="64.692" transform="matrix(0.952, -0.306, 0.306, 0.952, 168.777, 72.876)" fill="#efc29a"/>
        <rect id="Rectangle_98" data-name="Rectangle 98" width="19.875" height="64.692" transform="matrix(0.952, -0.306, 0.306, 0.952, 149.859, 78.954)" fill="#e0b18c"/>
        <rect id="Rectangle_54" data-name="Rectangle 54" width="10.951" height="14.854" transform="matrix(0.952, -0.306, 0.306, 0.952, 196.359, 64.009)" fill="#ddbda2"/>
        <rect id="Rectangle_57" data-name="Rectangle 57" width="10.951" height="14.854" transform="matrix(0.952, -0.306, 0.306, 0.952, 211.643, 111.571)" fill="#ddbda2"/>
        <rect id="Rectangle_55" data-name="Rectangle 55" width="9.116" height="14.854" transform="matrix(0.952, -0.306, 0.306, 0.952, 154.979, 77.313)" fill="#c4a894"/>
        <rect id="Rectangle_56" data-name="Rectangle 56" width="9.116" height="14.854" transform="matrix(0.952, -0.306, 0.306, 0.952, 170.233, 124.755)" fill="#c4a894"/>
        <path id="Path_851" data-name="Path 851" d="M56.694,139.253c72.977-75.2,325.93-52.281,360.425-17.671,0,0-61.439-134.915-336.824-56.371C80.3,65.189,47.988,82.408,56.694,139.253Z" transform="translate(-26.512 -19.52)" fill="#008581"/>
        <path id="Path_852" data-name="Path 852" d="M611.815,186.059c-27.962,5.868,0,59.77-89.915,89.073l15.9,29.3c75.451-29.953,123.1-29.625,125.559-84.967C659.341,188.647,640.692,181.7,611.815,186.059Z" transform="translate(-250.647 -88.789)" fill="#cefaf2"/>
        <path id="Path_853" data-name="Path 853" d="M634.528,185.449c-6.616-1-14.215-.7-22.713.577-27.962,5.868,0,59.77-89.915,89.073l9.08,16.725C614.466,262.849,610,195.2,634.528,185.449Z" transform="translate(-250.646 -88.777)" fill="#bfefe6"/>
        <path id="Path_854" data-name="Path 854" d="M588.045,144.963c-62.286-49.381-85.867-61.116-164.275-30.041l2.386,12.687c86.438-26.751,101.246-10.915,129.208,32.432C574.355,168.3,588.856,168.652,588.045,144.963Z" transform="translate(-203.519 -46.945)" fill="#cefaf2"/>
        <path id="Path_855" data-name="Path 855" d="M431.571,128.876l-1.242-6.616c-2.147.811-4.324,1.653-6.559,2.542l2.386,12.687c86.438-26.751,101.246-10.915,129.208,32.432,1.715,6.725,9.137,5.53,14.9,4.808C543.467,127.842,516.066,102.728,431.571,128.876Z" transform="translate(-203.519 -56.824)" fill="#bfefe6"/>
        <path id="Path_856" data-name="Path 856" d="M54.54,502.511l64.334,37.681,6.393-14.849L60.933,492.35Z" transform="translate(-26.193 -236.455)" fill="#008581"/>
        <path id="Path_857" data-name="Path 857" d="M70.2,524.217c-32.894-19.532-38.84-26.1-62.7-1.7C-4.33,534.6-2.563,511.7,15.649,498.843c26.039-18.383,28.227-5.878,48.7,7.4C89.676,522.678,70.2,524.217,70.2,524.217Z" transform="translate(0.001 -235.131)" fill="#008581"/>
        <path id="Path_858" data-name="Path 858" d="M778.923,159.44c-21.309,11.382-13.836,8.8-34.443,15.384l23.009,22.817L789.147,181.1Z" transform="translate(-357.542 -76.572)" fill="#653928"/>
        <path id="Path_859" data-name="Path 859" d="M949.945,343.679c2.391-17.64-9.47-24.386-23.846-22.136-9.283,1.6-12.276,7.547-2.6,22.011,9.828,14.672,2.25,25.181,13.451,23.43C943.079,372.681,947.892,358.814,949.945,343.679Z" transform="translate(-440.655 -154.223)" fill="#f9c943"/>
        <path id="Path_860" data-name="Path 860" d="M923.49,337.8a45.983,45.983,0,0,1-4.75-8.732c-2.427,3.383-1.393,9.121,4.75,18.3,9.828,14.672,2.25,25.182,13.451,23.43,6.117,5.717,10.915-8.17,12.994-23.305a27.5,27.5,0,0,0-.1-8.836C942.689,389.843,927.258,343.4,923.49,337.8Z" transform="translate(-440.649 -158.039)" fill="#fbae39"/>
        <path id="Path_861" data-name="Path 861" d="M403.064,136.866c22.557-3.009,27.266-9.844,24.111-20.457s-17.8-11.232-35.862-1.2c-16.46,9.158-18.711,14.958-19.23,22.255C371.537,145.088,382.649,139.589,403.064,136.866Z" transform="translate(-178.686 -51.893)" fill="#fbae39"/>
        <path id="Path_862" data-name="Path 862" d="M409.28,143.113c-20.41,2.723-31.522,8.222-30.977.6a18.511,18.511,0,0,1,2.49-8.706c-7,5.587-8.316,10.1-8.711,15.405-.546,7.619,10.566,2.121,30.982-.6,15.519-2.079,22.588-5.951,24.464-11.632C423.563,140.353,417.658,142,409.28,143.113Z" transform="translate(-178.686 -64.84)" fill="#e5a638"/>
        <path id="Path_863" data-name="Path 863" d="M355.527,156.475c0-6.289-8.274-5.977-17.557-5.977s-18.3,5.1-18.3,11.393.691,10.021,9.989,10.021S355.527,162.784,355.527,156.475Z" transform="translate(-153.524 -72.277)" fill="#fbae39"/>
        <path id="Path_864" data-name="Path 864" d="M951.223,400.392c.478-6.138.52-19.859-6.237-20.015-6.528-.146-7.7,4.361-9.568,9.329-1.913,5.083-5.961,10.941-.889,15.426C941.156,410.969,949.472,405.87,951.223,400.392Z" transform="translate(-447.635 -182.677)" fill="#fbae39"/>
        <path id="Path_865" data-name="Path 865" d="M719.653,245.33s-5.592,37.375-17.193,53.944c0,0,29.942-10.327,43.835-37.421Z" transform="translate(-337.362 -117.822)" fill="#fbae39"/>
        <path id="Path_866" data-name="Path 866" d="M740.533,267.5s-3.118,20.79-9.563,30c0,0,16.632-5.743,24.376-20.816Z" transform="translate(-351.054 -128.469)" fill="#008581"/>
        <path id="Path_867" data-name="Path 867" d="M711.21,148.45c17.448,24.948,51.735,75.487,46.922,44.511Z" transform="translate(-341.564 -71.294)" fill="#337772"/>
        <path id="Path_868" data-name="Path 868" d="M490.373,48.74S397.251-4.835,294.56,21.313C294.56,21.313,373.015-15.677,490.373,48.74Z" transform="translate(-141.465 -5.16)" fill="#008581"/>
        <path id="Path_869" data-name="Path 869" d="M930.247,403.834c2.079-2.24,2.963-4.782,1.991-5.67s-3.43.2-5.5,2.443-2.2,3.986-1.232,4.88S928.179,406.079,930.247,403.834Z" transform="translate(-444.2 -191.072)" fill="#fbae39"/>
        <path id="Path_870" data-name="Path 870" d="M925.976,411.811c1.715,2.521,3.992,3.955,5.083,3.2s.567-3.389-1.154-5.909-3.4-3.035-4.48-2.292S924.251,409.285,925.976,411.811Z" transform="translate(-444.066 -195.225)" fill="#fbae39"/>
        <path id="Path_871" data-name="Path 871" d="M927.472,418.9c2.994-.556,5.229-2.079,4.984-3.358s-2.869-1.887-5.868-1.325-4.158,1.887-3.909,3.176S924.468,419.461,927.472,418.9Z" transform="translate(-443.109 -198.83)" fill="#fbae39"/>
        <path id="Path_872" data-name="Path 872" d="M932.14,426.442c2.63-.385,4.6-1.762,4.407-3.072s-2.474-2.053-5.1-1.658-3.638,1.637-3.461,2.947S929.541,426.832,932.14,426.442Z" transform="translate(-445.661 -202.48)" fill="#fbae39"/>
        <path id="Path_873" data-name="Path 873" d="M942.614,430.3c3.285-.837,5.681-2.552,5.348-3.831s-3.259-1.637-6.544-.8-4.491,2.271-4.158,3.55S939.329,431.145,942.614,430.3Z" transform="translate(-450.101 -204.216)" fill="#fbae39"/>
        <path id="Path_874" data-name="Path 874" d="M308.844,175.4c-.333-2.38-4.8-1.341-10.546-1.331s-13.659-.369-14,.977c-.712,2.874,7.895,3.337,13.643,3.332S309.041,176.776,308.844,175.4Z" transform="translate(-136.518 -83.487)" fill="#fbae39"/>
        <path id="Path_875" data-name="Path 875" d="M308.9,163.543c-.25-2.391-4.756-1.507-10.5-1.71s-13.643-.863-14.033.473c-.821,2.843,7.77,3.638,13.513,3.82S309.047,164.926,308.9,163.543Z" transform="translate(-136.544 -77.557)" fill="#fbae39"/>
        <path id="Path_876" data-name="Path 876" d="M316.825,186.519c-.655-2.313-9.594-1.357-15.286-.567s-13.586,1.492-13.737,2.869c-.317,2.942,8.279,2.235,13.971,1.445S317.2,187.855,316.825,186.519Z" transform="translate(-138.215 -88.88)" fill="#fbae39"/>
        <path id="Path_877" data-name="Path 877" d="M340.94,178.542c-.9-2.23-8.94,3.638-14.08,6.237-4.631,2.313-12.042,4.241-11.5,5.52,1.3,3.056,11.18-1.091,16.756-2.49S341.46,179.81,340.94,178.542Z" transform="translate(-151.442 -85.508)" fill="#fbae39"/>
        <path id="Path_878" data-name="Path 878" d="M869.521,0,799.33,6.445l.551,82.041L854.9,25.2,870.613,5.275Z" transform="translate(-383.885)" fill="#352012"/>
        <path id="Path_879" data-name="Path 879" d="M870.03,0,851.382,25.483l-50.992,63L855.4,25.2,871.122,5.275Z" transform="translate(-384.394)" fill="#26170c"/>
        <path id="Path_880" data-name="Path 880" d="M787.067,201.727c-8.581-2.6-16.351-4.865-22.136-7.8l16.829-12.853L771.537,159.42c-19.906,10.634-14.693,9.075-30.743,14.2L729.1,162.528a153.551,153.551,0,0,0,3.186,30.415c4.064,20.052,11.3,37.26,19.381,48.112,5.717-7.235,9.355-16.148,10.7-27.77a167.716,167.716,0,0,1,25.078,3.384A132.334,132.334,0,0,0,787.067,201.727Z" transform="translate(-350.156 -76.563)" fill="#a24600" opacity="0.3" style="mix-blend-mode: multiply;isolation: isolate"/>
        <path id="Path_881" data-name="Path 881" d="M855.217,32.211c-19.984-6.7-36.507-8.836-51.179-2.365L800,113.837l42.77,20.707C854.864,103.936,860.025,80.423,855.217,32.211Z" transform="translate(-384.206 -12.461)" fill="#653928"/>
        <path id="Path_882" data-name="Path 882" d="M857.162,37.251c-.847-.281-1.679-.52-2.516-.811,3.56,43.258-3.067,65.347-14.5,94.349l-36.1-10.9,40.685,19.7C856.809,108.975,861.97,85.462,857.162,37.251Z" transform="translate(-386.151 -17.501)" fill="#7e4c34"/>
        <path id="Path_883" data-name="Path 883" d="M809.6,9.39,789.49,11.344l4.75,81.262,6.216-6.252Z" transform="translate(-379.159 -4.51)" fill="#352012"/>
        <path id="Path_884" data-name="Path 884" d="M803.18,111.62l-17.91,3.513v12.895l16.45,2.734Z" transform="translate(-377.132 -53.606)" fill="#653928"/>
        <path id="Path_885" data-name="Path 885" d="M864.576,172.509c-3.919,0-10.2-.941-18.856-5.073l.774-1.627c12.474,5.961,19.8,4.974,21.777,4.517a23.532,23.532,0,0,0-.821-6.086l1.731-.52a23.812,23.812,0,0,1,.852,7.36l-.047.566-.52.2A14.808,14.808,0,0,1,864.576,172.509Z" transform="translate(-406.164 -78.628)" fill="#5f2d10"/>
        <path id="Path_886" data-name="Path 886" d="M793.988,92.53l42.1,16.543,9.049-11.564,8.1,9.761.561-24.21-60.41,1.653Z" transform="translate(-381.032 -39.89)" fill="#008581"/>
        <path id="Path_887" data-name="Path 887" d="M820.515,84.81l-27.125.743.6,7.817L820.515,103.8Z" transform="translate(-381.032 -40.731)" fill="#337772"/>
        <path id="Path_888" data-name="Path 888" d="M893.776,113.87,906.9,127.331l-13.674,8.222Z" transform="translate(-428.981 -54.687)" fill="#653928"/>
        <path id="Path_889" data-name="Path 889" d="M873.413,94.949s-11.954,19.958-11.736-.229Z" transform="translate(-413.826 -45.49)" fill="#ffd3b6"/>
        <path id="Path_890" data-name="Path 890" d="M897,95.9s4.47,20.9,5.717.785Z" transform="translate(-430.791 -46.057)" fill="#ffd3b6"/>
        <path id="Path_891" data-name="Path 891" d="M871.36,94.49c.229,5.863,2.147,7.1,3.945.333Z" transform="translate(-418.478 -45.38)" fill="#a86a40"/>
        <path id="Path_892" data-name="Path 892" d="M902.18,96.72c.161,5.244,1.559,6.356,2.833.3Z" transform="translate(-433.279 -46.451)" fill="#a86a40"/>
        <path id="Path_893" data-name="Path 893" d="M805.218,119.18l-11,2.162v7.921l10.1,1.679Z" transform="translate(-381.43 -57.237)" fill="#7e4c34"/>
        <path id="Path_894" data-name="Path 894" d="M500.237,353.847c-23.976-.691-30.332,12.817-34.267,45.218l44.438,12.994c60.191,30.883,124.889,67.883,164.831,112.4l3.248-2.921c-29.651-34.131-82.7-78.543-143.5-108.558s-40.431-30.114-14.917-29.158C524.254,379.938,502.835,363.789,500.237,353.847Z" transform="translate(-223.786 -169.926)" fill="#bfefe6"/>
        <path id="Path_895" data-name="Path 895" d="M501.807,340.34l-24.4,6.221,47.359,30.613,9.568-3.347Z" transform="translate(-229.28 -163.451)" fill="#fbae39"/>
        <path id="Path_896" data-name="Path 896" d="M897.833,680.795,846.019,626.3l-8.279,13.83,44.376,42.915Z" transform="translate(-402.331 -300.786)" fill="#008581"/>
        <path id="Path_897" data-name="Path 897" d="M900.864,663.912C925.9,689.6,931.57,682.955,938.15,648.387c3.259-17.151,15.265,3.316,5.941,24.428s-15.166,36.138-37.286,14.652C884.882,666.152,900.864,663.912,900.864,663.912Z" transform="translate(-429.946 -308.32)" fill="#008581"/>
        <path id="Path_898" data-name="Path 898" d="M859.555,630.856,845.683,615.55l-14.833,24.4,12.427,12.287Z" transform="translate(-399.022 -295.623)" fill="#fbae39"/>
        <path id="Path_899" data-name="Path 899" d="M187.157,547.507l-17.9-10.317-6.637,27.77,15.592,7.884Z" transform="translate(-78.099 -257.99)" fill="#fbae39"/>
      </g>
    </g>
  </g>
</svg>
