<svg xmlns="http://www.w3.org/2000/svg" width="273" height="536" viewBox="0 0 273 536"><g><g><g><g><g><path fill="#c17f49" d="M56.29 70.322l-7.428-3.488a52.548 52.548 0 0 1 2.532-6.15c7.025-1.666 32.95 19.615 36.378-2.64 1.392-9.08-7.708-16.314-27.823-13.782 1.056-13.44 10.138-17.24 10.138-17.24 5.33-3.852 11.376-4.33 17.767-3.51.977.132 1.981.289 2.983.473 18.293 4.385 4.421 32.078 3.909 33.162.184 0 1.742-.056 4.01-1.556 11.3-4.702 10.138 9.026 5.149 13.409 0 0 1.478 4.302 3.38 8.344l-6.573.128-1.971 8.647c-1.794 7.76-18.823 9.505-30.52 11.404-1.348.21-2.611.42-3.775.656-11.404 2.276-13.516-3.19-13.516-3.19-3.036-5.285 3.378-10.252 4.357-12.046zm43.163-11.724a5.59 5.59 0 0 1 .234 3.22 6.389 6.389 0 0 1-1.684 3.115s2.532 1.455 4.249-1.82c1.717-3.275-.61-5.492-2.799-4.515z"/></g><g><path fill="#fbae39" d="M7.16 189.225a71.5 71.5 0 0 0-6.1-1.873s0 31.76 37.7 59.35c0 0-.512 4.567 3.906 10.507a29.884 29.884 0 0 0 4.041 4.434c1.822-4.805 3.378-8.188 4.031-9.954a17.83 17.83 0 0 0 .974-5.253 37.073 37.073 0 0 0-.102-5.41l-4.91-3.383c-6.945-28.116-18.163-35.584-18.163-35.584a39.77 39.77 0 0 0-4.515-3.856 65.752 65.752 0 0 0-16.863-8.978z"/></g><g><path fill="#fbae39" d="M46.259 262.86c5.253 2.166 10.507 2.401 10.953 2.43a12.694 12.694 0 0 1-.256-3.25l.512-10.19c.053-1.545.45-3.06 1.164-4.433a18.113 18.113 0 0 1-6.897-.981 17.83 17.83 0 0 1-.974 5.253c-.66 1.769-2.216 5.149-4.038 9.951-.175.4-.341.785-.464 1.22z"/></g><g><path fill="#008581" d="M71.207 266.448c.451-1.173.71-2.411.769-3.667l.5-10.167c.105-1.845-.21-3.562-.818-4.779-.556-1.212-1.402-1.978-2.353-2.032l-8.024-.398c-1.004-.053-1.978.718-2.662 2.012a10.387 10.387 0 0 0-1.164 4.434l-.512 10.19c-.055 1.089.031 2.181.256 3.249.513 2.083 1.584 3.508 2.906 3.562l8.024.395c1.228.079 2.366-1.059 3.078-2.799z"/></g><g><path fill="#cefaf2" d="M26.562 141.282s-21.04 16.765-19.403 47.943a65.753 65.753 0 0 1 16.87 8.97c14.283-6.522 16.34-15.787 16.633-19.116a2.271 2.271 0 0 0 0-.397c0-.29 0-.577.023-.84.212-5.439.845-8.399.845-8.399-16.657-16.26-7.337-44.01 16.686-59.08-20.566-1.815-28.882 17.167-31.655 30.919z"/></g><g><path fill="#fbae39" d="M9.99 513.478c-9.689 4.17-11.25 7.84 2.164 9.397 17.872 2.086 31.178-3.331 41.157-2.506 9.98.825 17.875.366 15.074-13.326-3.075-15.1-.66-23.321-.66-23.321 5.068-12.253 7.944-22.711 9.32-31.553 0 0-8.201-7.365-16.13-21.803-7.93-14.439-14.387-8.714-14.733 5.674.794 10.876 3.408 22.465 4.569 38.676 1.743 24.236-11.986 28.808-24.446 33.183-4.733 1.642-13.103 4.18-16.314 5.579z"/></g><g><path fill="#dd8c2c" d="M42.666 257.207c-14.808-6.545-5.992 1.589 2.19 9.533.475-1.373.923-2.668 1.403-3.88.13-.425.29-.82.448-1.22a29.883 29.883 0 0 1-4.041-4.433z"/></g><g><path fill="#cefaf2" d="M130.26 186.611c2.67 6.84 7.237 14.18 14.92 20.702 10.764-.769 19.351.236 25.556 1.635 2.77-10.638 2.306-20.776.605-29.215-2.82-14.095-8.947-23.654-8.947-23.654 3.906-15.815-1.374-30.24-13.518-39.723-31.127-4.33-65.924 1.213-81.157 4.46 0 0-4.01-3.006-9.503-10.426-24.023 15.072-33.343 42.821-16.686 59.082 0 0-.633 2.96-.845 8.398.014.28.006.561-.023.84.011.133.011.265 0 .398-.257 9.587.868 25.845 8.2 46.598 0 0 2.163 7.737 2.745 15.34.166 1.799.2 3.607.103 5.41a18.114 18.114 0 0 0 6.896.982c.684-1.294 1.658-2.066 2.663-2.012l8.024.397c.95.054 1.793.82 2.352 2.033 16.289.635 26.478-1.003 26.478-1.003 2.481-3.036 5.81-6.65 9.482-10.425 1.325-20.086 11.282-25.258 22.655-49.817z"/></g><g><path fill="#cefaf2" d="M49.055 410.49c-3.035 9.225-3.483 17.17-2.878 25.526.346-14.39 6.811-20.089 14.733-5.673 7.921 14.415 16.13 21.803 16.13 21.803 4.646-29.774-7.366-41.447-7.366-41.447 2.64-9.982-.979-25.291-.979-25.291 3.332-6.994 10.536-22.914 11.379-48.052 10.72 45.597 21.255 39.687 20.781 47.342-.474 7.655-2.59 17.683 6.676 25.184v.023c-2.504 6.788-3.193 13.626-2.799 20.438 1.269-15.415 11.092-7.432 22.176 6.663C137.992 451.1 140.4 455.97 140.4 455.97c.13-2.801.256-5.81.369-9.113.581-19.295-3.75-28.057-7.55-34.182-2.773-4.544-5.254-7.657-5.254-12.516 0-15.313-2.401-22.127-2.401-22.127 12.327-38.78 2.217-78.484-7.101-106.154-6.364.216-12.832-.184-14.282-.471-1.451-.287-4.595-1.825-7.235-4.441l-.028.03s-10.905.077-25.712-.556c-.713 1.74-1.85 2.878-3.075 2.799l-8.024-.395c-1.323-.054-2.404-1.479-2.906-3.562-.449-.028-5.7-.256-10.954-2.43-.479 1.213-.927 2.507-1.401 3.88-6.574 19.136-14.352 53.695-1.664 96.915 5.743 19.598-8.462 21.63 5.872 46.842z"/></g><g><path fill="#008581" d="M63.362 57.014s-2.373-3.076 1.717-6.205c6.18 2.14 9.029 6.523 9.029 6.523s-1.979 1.898-10.746-.318zm-11.957 3.67c7.024-1.666 32.949 19.615 36.378-2.64 1.396-9.08-7.71-16.314-27.819-13.782-.08.897-.107 1.822-.107 2.798a79.925 79.925 0 0 0-8.452 13.624z"/></g><g><path fill="#eae0a4" d="M65.09 50.81c-4.1 3.139-1.717 6.204-1.717 6.204 8.767 2.217 10.745.318 10.745.318s-2.86-4.383-9.028-6.523z"/></g><g><path fill="#008581" d="M58.216 110.37c5.492 7.419 9.503 10.425 9.503 10.425 15.233-3.247 50.03-8.79 81.157-4.46a47.824 47.824 0 0 0-11.407-6.68c-8.657-3.642-14.413-5.807-18.134-8.457-13.65 10.374-31.34 14.81-49.66 11.747a25.939 25.939 0 0 1-1.848-7.575 64.26 64.26 0 0 0-9.61 5z"/></g><g><path fill="#1c0b06" d="M67.773 1.361c-20.09 5.756 2.324 25.661 2.324 25.661 5.33-3.844 11.376-4.331 17.768-3.51 1.006.067 2.005.226 2.983.473 9.738 1.743 20.091 5.705 29.673 4.754.846-.082 1.666-.184 2.427-.256 14.52-1.897 14.52-6.784 14.52-6.784s-10.268 3.037-19.666-4.592c-9.397-7.63-29.966-21.499-50.03-15.746z"/></g><g><path fill="#c17f49" d="M67.827 105.38a25.94 25.94 0 0 0 1.847 7.576c18.321 3.062 36.012-1.374 49.661-11.748-4.87-3.434-6.284-7.737-6.284-17.24-1.558 1.32-3.844-2.537-5.756-6.624l-6.573.128-1.981 8.636c-1.794 7.76-18.823 9.506-30.52 11.405a27.79 27.79 0 0 0-.394 7.867z"/></g><g><path fill="#fbae39" d="M71.973 262.78a11.715 11.715 0 0 1-.769 3.668c14.808.633 25.712.556 25.712.556l.028-.03c-3.513-3.404-6.099-8.63-2.43-15.095a37.509 37.509 0 0 1 3.617-5.046s-10.19 1.638-26.478 1.002c.607 1.217.922 2.934.817 4.78z"/></g><g><path fill="#1c0b06" d="M94.756 57.15c.184 0 1.743-.057 4.01-1.556 11.3-4.705 10.146 9.023 5.15 13.406 0 0 1.478 4.302 3.38 8.344 1.9 4.087 4.197 7.944 5.755 6.625 9.872-8.457 17.632-31.97 17.632-31.97.746-17.056-7.735-23.526-7.735-23.526-.768.082-1.58.184-2.426.256-9.583.95-19.933-3.011-29.674-4.754 18.292 4.395 4.433 32.088 3.908 33.175z"/></g><g><path fill="#a86a3b" d="M98.003 64.933s2.532 1.48 4.249-1.82c1.717-3.3-.61-5.492-2.799-4.515a5.59 5.59 0 0 1 .239 3.22 6.39 6.39 0 0 1-1.69 3.115z"/></g><g><path fill="#fbae39" d="M110.278 516.194c-12.752 13.706-26.583 18.14-2.747 18.14 17.188 0 17.214-6.074 29.938-10.587 7.975-2.85-3.908-21.912-2.242-30.781 1.478-7.87 4.01-14.972 5.174-36.988 0 0-2.402-4.805-13.493-18.965-11.092-14.159-20.907-22.09-22.175-6.663 1.137 20.43 11.934 40.633 12.557 58.528.564 16.068 1.12 18.58-7.012 27.316z"/></g><g><path fill="#337772" d="M130.26 186.611c-11.373 24.556-21.33 29.728-22.647 49.797 12.855-13.178 29.856-28.28 29.856-28.28 2.668-.37 5.256-.633 7.711-.815-7.683-6.522-12.25-13.862-14.92-20.702z"/></g><g><path fill="#337772" d="M124.827 248.683s-1.453 5.992-6.497 13.962c0 0 9.82.715 13.014 4.013 3.619 3.721-4.536 4.99-12.88 5.228 9.318 27.678 19.428 67.375 7.101 106.154 0 0 2.401 6.814 2.401 22.126 0 4.87 2.481 7.973 5.254 12.517 14.646 7.522 30.279 11.32 43.587-12.517 13.308-23.835 27.72-27.164 49.338-26.61 21.616.553 15.525-20.503 26.48-36.253-4.223-4.3-9.925-9.103-17.606-14.17-29.384-19.436-58.82-76.139-65.472-98.237-9.531 7.575-24.367 17.157-44.72 23.787z"/></g><g><path fill="#008581" d="M169.547 224.868v.028c6.663 22.098 36.088 78.801 65.472 98.237 7.689 5.067 13.383 9.87 17.606 14.17 12.045 12.229 12.33 20.65 12.33 20.65s18.849-24.32-4.434-47.813c-23.282-23.492-53.776-58-89.183-130.417 1.691 8.457 2.166 18.587-.605 29.215 7.604 1.666 11.615 3.844 11.615 3.844s-4.221 5.248-12.801 12.086z"/></g><g><path fill="#bfefe6" d="M77.301 452.208c1.192-7.135 1.704-14.477.754-21.727a49.35 49.35 0 0 0-2.535-10.658c-1.297-3.445-2.89-6.766-5.474-9.629l.192.695c1.105-4.257 1.148-8.624.913-12.909a80.129 80.129 0 0 0-1.858-12.736l-.052.492a110.84 110.84 0 0 0 8.173-23.621c1.863-8.134 2.745-16.468 2.919-24.784l-.792-.028-3.798 12.014-1.912 5.817-2.032 5.69c-1.281 3.787-2.934 7.398-4.398 11.02-1.522 3.623-3.357 7.006-5.087 10.593l-.986 2.05.497 2.515c.34 1.699.666 3.785.897 5.686l.605 5.784c.171 1.852.239 3.712.202 5.572a42.684 42.684 0 0 1-.461 4.943l-.528 3.916 2.34 2.601c-.193-.202.023 0 .066.026l.29.282c.2.21.41.448.623.705.441.538.855 1.1 1.237 1.68.82 1.195 1.482 2.564 2.217 3.924 1.466 2.753 2.473 5.854 3.44 9.057.965 3.204 1.609 6.607 2.237 10.097a352.85 352.85 0 0 1 1.537 10.807z"/></g><g><path fill="#ea9c34" d="M68.203 516.427c1.151-2.61.936-5.53.526-8.236-.513-2.72-1-5.4-1.282-8.127a63.93 63.93 0 0 1-.397-8.2c.062-2.714.272-5.485.918-8.078l-.016.044c4.147-10.187 7.496-20.759 9.152-31.663l-.39-.06c-1.16 2.59-2.124 5.162-3.188 7.69l-3.055 7.58c-2.073 4.99-4.059 9.994-6.186 14.946l-.092.217-.039.157a28.609 28.609 0 0 0-.715 4.713 40.658 40.658 0 0 0-.136 4.42c.152 2.914.39 5.787 1.026 8.593a57.837 57.837 0 0 0 2.306 8.114c.84 2.49 1.538 4.992 1.181 7.734z"/></g><g><path fill="#ea9c34" d="M2.27 519.157c-.026.769.57 1.386 1.158 1.794.612.41 1.27.748 1.96 1.004 1.368.514 2.77.926 4.198 1.236 2.842.557 5.716.94 8.606 1.145 5.804.415 11.632-.102 17.329-.902 5.697-.8 11.304-2.068 16.816-2.086 2.804.08 5.78.236 8.698-.205 1.481-.22 2.909-.71 4.211-1.448a6.15 6.15 0 0 0 2.76-3.347c-1.458 2.606-4.38 3.467-7.109 3.506-2.79.161-5.553-.2-8.457-.538-5.971-.454-11.666.768-17.299 1.504a122.98 122.98 0 0 1-16.896 1.494c-2.831.04-5.663-.09-8.48-.387a27.86 27.86 0 0 1-4.18-.625 9.506 9.506 0 0 1-1.973-.682c-.587-.297-1.22-.725-1.343-1.463z"/></g><g><path fill="#edaa3e" d="M45.744 436.844c.197 2.594.492 5.17.82 7.737 1.496 11.379 3.377 22.742 3.672 34.14.026 5.639-.933 11.456-4.013 16.205-3.037 4.792-8.086 7.893-13.326 10.038-5.285 2.16-10.764 3.896-16.2 5.71-2.71.936-5.468 1.794-8.087 3.024-1.322.594-2.6 1.28-3.827 2.05-.62.397-1.202.853-1.735 1.361-.512.513-1.05 1.174-1.045 2.05l.528-.023c.302-1.168 1.722-1.809 2.916-2.373a31.23 31.23 0 0 1 3.878-1.484c2.626-.856 5.43-1.373 8.241-1.976 5.613-1.28 11.212-2.54 16.914-4.52 5.692-1.856 11.879-5.338 15.89-11.16 3.977-5.839 5.048-12.715 5.125-18.909-.023-3.224-.356-6.12-.64-9.015-.285-2.896-.626-5.813-1.082-8.693-.961-5.743-1.943-11.422-3.099-16.978-1.15-5.828-2.088-11.6-2.414-17.427z"/></g><g><path fill="#dd8c2c" d="M46.7 261.517c-.91-1.178-1.666-2.393-2.443-3.587a23.908 23.908 0 0 1-1.912-3.706 23.081 23.081 0 0 1-1.132-3.844 12.206 12.206 0 0 1-.234-1.866 5.724 5.724 0 0 1 .088-1.538l.402-1.025-1.394-1.21a174.817 174.817 0 0 1-12.773-12.213 98.588 98.588 0 0 1-5.781-6.56 90.795 90.795 0 0 1-5.316-6.902A102.435 102.435 0 0 1 7.29 204.06c-2.563-5.264-4.813-10.782-6.166-16.694h-.4c.256 6.094 1.843 12.02 3.964 17.683a80.858 80.858 0 0 0 8.365 16.12c6.697 10.15 15.633 18.636 25.405 25.763l-.108-.256a12.737 12.737 0 0 0 .677 4.39 19.817 19.817 0 0 0 1.811 4.008 28.92 28.92 0 0 0 5.592 6.722z"/></g><g><path fill="#dd8c2c" d="M51.464 246.405a19.99 19.99 0 0 1-.718 4.249c-.413 1.358-1.079 2.67-1.638 4.006a208.52 208.52 0 0 0-3.118 8.136l.256.095a14.325 14.325 0 0 0 3.193-3.406 22.016 22.016 0 0 0 2.11-3.8c.512-1.397 1.024-2.625 1.206-4.46a8.264 8.264 0 0 0-1.025-4.805z"/></g><g><path fill="#e1ab7b" d="M43.837 227.366"/></g><g><path fill="#471b00" d="M63.765 44.1a43.861 43.861 0 0 0 2.862-.108c.836-.064 1.587-.112 2.307-.222 1.453-.12 2.734-1.09 4.303-1.459a35.705 35.705 0 0 1 4.846-.743 38.664 38.664 0 0 1 5.125-.138l.151-.513c-1.58-.876-3.275-1.448-5.02-1.978a23.304 23.304 0 0 0-5.477-.843c-1.858-.06-3.982-.357-5.763.715-1.715.984-3.368 2.647-3.68 4.869z"/></g><g><path fill="#cc8a58" d="M68.165 96.89a25.232 25.232 0 0 0 1.281 16.104l.185-.072c.202-3.003-.039-5.456-.187-8.024-.128-1.266-.205-2.542-.385-3.844a37.79 37.79 0 0 0-.702-4.1z"/></g><g><path fill="#edaa3e" d="M104.279 430.822a79.576 79.576 0 0 0 1.645 11.955c2.232 10.912 6.056 21.384 8.6 32.13 1.326 5.38 2.207 10.793 2.269 16.334.105 2.773.238 5.54.223 8.293-.016 2.752-.208 5.51-1.202 8.029-.995 2.52-2.689 4.715-4.488 6.796-1.799 2.081-3.746 4.047-5.763 5.938-2.017 1.892-4.1 3.703-6.2 5.523-1.045.915-2.09 1.825-3.075 2.819-.511.49-.983 1.021-1.412 1.586-.39.554-.892 1.282-.674 2.112l.513-.1c-.051-.587.41-1.043.86-1.494a13.73 13.73 0 0 1 1.564-1.23 75.67 75.67 0 0 1 3.378-2.355c2.306-1.538 4.654-3.117 6.96-4.808a82.463 82.463 0 0 0 6.538-5.638c2.076-2.02 4.198-4.42 5.676-7.624 1.479-3.204 1.838-6.592 1.956-9.498.133-2.954.115-5.753.125-8.526a62.945 62.945 0 0 0-.533-8.775c-.38-2.94-.933-5.807-1.573-8.61-2.799-11.164-6.792-21.402-9.672-31.758-1.39-5.18-2.578-10.382-3.032-15.694-.12-.93-.202-1.868-.256-2.804z"/></g><g><path fill="#ea9c34" d="M139.888 520.879a3.984 3.984 0 0 1-1.93 2.178c-.832.36-1.945.554-2.931.887a37.306 37.306 0 0 0-5.838 2.488c-3.76 1.997-7.055 4.316-10.864 5.323-3.78 1.128-7.852 1.376-11.955 1.558-2.05.077-4.123.175-6.17.172a26.497 26.497 0 0 1-3.076-.1c-.956-.169-2.125-.2-2.686-1.107.32 1.097 1.594 1.466 2.54 1.794a26.25 26.25 0 0 0 3.106.705c2.076.306 4.166.507 6.263.602 4.167.23 8.496.108 12.704-1.09a26.487 26.487 0 0 0 5.943-2.647c1.827-1.127 3.52-2.306 5.217-3.436a58.22 58.22 0 0 1 5.29-3.076c.9-.512 1.83-.827 2.819-1.476a3.903 3.903 0 0 0 1.568-2.775z"/></g><g><path fill="#ea9c34" d="M140.068 455.978c-1.697 5.415-2.835 10.791-3.988 16.099a763.657 763.657 0 0 1-3.588 15.81l-.771 4.159-.105.658-.06.533c-.047.49-.07.98-.068 1.471-.001.828.066 1.654.202 2.47a40.872 40.872 0 0 0 2.48 8.442c.995 2.62 2.166 5.098 3.201 7.594 1.036 2.496 2.158 4.905 2.325 7.629l.384.1c.63-2.801-.077-5.582-.681-8.247-.672-2.675-1.494-5.307-2.245-7.944-.751-2.637-1.464-5.29-1.766-7.986-.413-2.693.415-5.312.984-8.019a155.069 155.069 0 0 0 2.82-16.273c.64-5.469 1.024-10.963 1.28-16.46z"/></g><g><path fill="#bfefe6" d="M117.954 272.022c1.281 9.075 2.862 17.94 4.01 26.778 1.148 8.839 2.107 17.596 2.376 26.312.513 8.692.118 17.334-.625 25.837a122.544 122.544 0 0 1-1.93 12.619 111.77 111.77 0 0 1-2.968 12.368l-.633 2.099.697 2.306.198.651.256.994c.164.687.318 1.41.454 2.15l.748 4.531c.456 3.076.753 6.269.935 9.483l.131 2.547c.06 1.26.247 2.511.559 3.734.59 2.427 1.73 4.51 2.79 6.179 2.184 3.316 4.1 5.584 5.664 8.177 1.563 2.594 2.932 5.2 3.965 8.134a73.63 73.63 0 0 1 2.53 9.17c1.319 6.348 1.852 13.103 2.76 19.887l.791.043c.333-6.727.769-13.48.197-20.245-.571-6.766-2.001-13.526-5.14-19.613-1.538-3.052-3.509-5.84-5.144-8.713a16.347 16.347 0 0 1-1.812-4.5c-.382-1.538-.274-3.178-.3-4.895-.138-6.774-.474-13.534-2.34-20.246v.467a115.41 115.41 0 0 0 5.247-26.653c.707-9.04.59-18.124-.351-27.142-1.794-18.039-6.469-35.637-12.322-52.703z"/></g><g><path fill="#bfefe6" d="M129.76 186.455c-4.487 2.988-7.778 6.263-10.925 9.595a73.292 73.292 0 0 0-8.334 10.881c-2.46 3.995-4.702 8.757-5.59 14.023-.822 5.264-.33 10.64 2.174 15.436l.792.051c.401-4.54 1.4-9.007 2.97-13.285 1.615-4.25 3.944-8.183 6.407-12.066 2.383-3.92 4.841-7.842 7.099-11.878a115.219 115.219 0 0 0 6.138-12.421z"/></g><g><path fill="#dd8c2c" d="M51.443 246.536l.087-.257c2.228.775 4.586 1.1 6.94.959h.02l1.203.03c-.34.491-.6 1.033-.77 1.605-.163-.02-.327-.036-.489-.067h.162a14.388 14.388 0 0 1-3.778-.733 12.147 12.147 0 0 1-3.375-1.537z"/></g><g><path fill="#dd8c2c" d="M57.842 265.5c-4.01-.256-8.034-1.01-11.763-2.563l.077-.187c2.1.451 4.152.866 6.25 1.002 1.026.113 2.069.208 3.1.241l2.026.018c.05.506.153 1.005.31 1.489z"/></g><g><path fill="#efc29a" d="M195.673 192.92l-3.818 55.582-109.87-7.548 3.819-55.583z"/></g><g><path fill="#e0b18c" d="M200.283 193.235l-3.818 55.583-4.608-.316 3.819-55.583z"/></g><g><path fill="#ddbda2" d="M149.472 189.746l-.877 12.765-17.465-1.2.877-12.765z"/></g><g><path fill="#ddbda2" d="M146.521 232.673l-.877 12.766-17.465-1.2.877-12.765z"/></g><g><path fill="#edaa3e" d="M104.722 430.348c.71-2.266 1.35-4.749 2.773-6.107.677-.677 1.282-.825 2.02-.682.898.22 1.744.616 2.488 1.166a32.768 32.768 0 0 1 4.926 4.45 88.204 88.204 0 0 1 4.613 5.212c3.054 3.531 5.994 7.314 9.174 10.85a318.596 318.596 0 0 1 4.67 5.41c1.65 1.745 3.17 3.588 4.748 5.402l.239-.117c-2.363-4.196-5.2-8.045-8.017-11.917-2.857-3.844-5.727-7.658-8.8-11.338-3.15-3.588-6.366-7.252-10.53-9.761-1.051-.587-2.207-1.087-3.46-1.14a3.695 3.695 0 0 0-3.201 1.637c-1.4 2.05-1.681 4.551-1.914 6.92z"/></g><g><path fill="#fbae39" d="M118.33 262.645c5.044-7.97 6.497-13.962 6.497-13.962 20.353-6.63 35.189-16.212 44.72-23.787v-.028c8.58-6.838 12.813-12.066 12.813-12.066s-4.01-2.188-11.614-3.844c-6.204-1.399-14.787-2.401-25.556-1.635-2.455.182-5.043.446-7.71.815 0 0-17.002 15.102-29.857 28.28-3.67 3.775-6.998 7.388-9.482 10.425a37.508 37.508 0 0 0-3.616 5.046c-3.67 6.466-1.084 11.691 2.43 15.095 2.64 2.616 5.804 4.146 7.234 4.44 1.43.296 7.92.688 14.282.472 8.345-.238 16.5-1.507 12.88-5.228-3.2-3.308-13.02-4.023-13.02-4.023z"/></g><g><path fill="#edaa3e" d="M46.19 436.178c.553-2.332.976-4.613 1.817-6.74.71-2.076 1.793-4.213 3.036-5.095a1.594 1.594 0 0 1 1.538-.218c.571.188 1.302.718 1.966 1.405 1.373 1.37 2.611 3.224 3.685 5.143 2.278 4.05 4.907 8.232 8.026 11.84a88.156 88.156 0 0 0 4.893 5.274c1.82 1.574 3.587 3.204 5.653 4.457l.174-.198c-3.37-3.244-6.322-6.919-9.056-10.727a111.392 111.392 0 0 1-7.404-11.96c-1.2-2.033-2.53-4.024-4.288-5.654-.881-.8-1.894-1.538-3.098-1.825a3.744 3.744 0 0 0-3.46.89c-1.794 1.694-2.514 4.1-3.037 6.37a36.63 36.63 0 0 0-.72 7.028z"/></g><g><path fill="#a86a3b" d="M56.205 70.232c-.674-1.794-1.794-2.642-3.004-3.265-1.263-.533-2.632-.838-4.428-.22l-.087.182 3.672 1.83 3.762 1.655z"/></g><g><path fill="#a86a3b" d="M100.455 77.439c-.935 2.411-1.712 4.869-2.537 7.298-.397 1.354-.769 2.143-1.502 2.958a9.31 9.31 0 0 1-2.655 1.986c-2.05 1.074-4.423 1.755-6.827 2.291a94.707 94.707 0 0 1-7.334 1.489c-4.972.869-10.061 1.23-15.19 2.378-2.488.554-4.7.854-6.947.651a9.018 9.018 0 0 1-2.998-.769 5.529 5.529 0 0 1-1.161-.733 6.467 6.467 0 0 1-.744-.704l.067.015-.19-.277a3.967 3.967 0 0 1-.707-2.788c.108-1.053.595-2.204 1.261-3.306.666-1.102 1.517-2.153 2.345-3.367.238-.337.453-.689.643-1.054l.041-.082a.686.686 0 0 0 .062-.148l.05-.18c.042-.151.066-.307.073-.464a4.756 4.756 0 0 0 0-.64 14.968 14.968 0 0 0-.377-2.212l-.256-.602s-.034 3.588-1.21 4.572c-.905 1.063-1.863 2.109-2.67 3.275-.808 1.166-1.502 2.445-1.774 3.872a5.974 5.974 0 0 0 .705 4.18v-.026c1.281 2.476 4.067 3.465 6.581 3.78 2.583.316 5.2 0 7.704-.512 5.028-.902 10.112-1.56 15.153-2.517 5.003-1.002 10.143-2.032 14.63-4.674a10.62 10.62 0 0 0 2.922-2.563c.846-1.025 1.187-2.365 1.428-3.588l1.699-7.493z"/></g><g><path fill="#dd8c2c" d="M104.01 271.625c3.754.512 7.496.576 11.25.625 3.755 0 7.52-.095 11.276-.659 1.833-.397 3.803-.614 5.382-2.05a1.727 1.727 0 0 0 .454-1.591 3.173 3.173 0 0 0-.785-1.343 7.774 7.774 0 0 0-2.378-1.676c-3.495-1.584-7.268-2.12-11.02-2.463l-.028.397c3.509 1.723 7.132 3.112 9.654 4.87.273.193.524.415.751.66.07.063.13.134.182.21l.205.232s.192.194 0 .028l.033.059c.11.15.026.256-.138-.187-.241-.513.138-1.576.305-1.694.307-.336-.346.128-.99.235a18.35 18.35 0 0 1-2.306.428c-1.643.328-3.421.513-5.202.715-1.794.293-3.603.4-5.433.726-3.757.497-7.484 1.2-11.163 2.106z"/></g><g><path fill="#dd8c2c" d="M137.172 207.938c-10.81 9.585-21.476 19.346-31.594 29.692-2.488 2.63-4.936 5.302-7.25 8.096-2.24 2.806-4.69 5.674-5.692 9.323-1.076 3.631.05 7.655 2.4 10.48 2.35 2.823 5.38 5.101 8.956 6.15l.105-.513a20.486 20.486 0 0 1-6.873-7.36c-1.515-2.783-1.561-5.4-.587-7.67.948-2.135 3.119-4.741 5.497-7.235 2.324-2.545 4.736-5.125 7.25-7.63l7.363-7.751c2.375-2.691 4.907-5.234 7.232-7.999 4.772-5.41 9.408-11 13.544-17.198z"/></g><g><path fill="#dd8c2c" d="M114.876 267.758a67.623 67.623 0 0 0 5.907-9.024c1.707-3.175 3.208-6.463 4.195-9.969l-.192.208c10.886-3.514 21.445-8.186 31.17-14.252a133.665 133.665 0 0 0 14.006-9.93c4.428-3.626 8.677-7.47 12.406-11.86l-.308-.257c-4.456 3.644-9.115 6.881-13.787 10.01-2.332 1.571-4.67 3.111-7.076 4.547a130.771 130.771 0 0 1-7.198 4.282c-4.81 2.819-9.785 5.336-14.798 7.783l-7.611 3.496-7.75 3.275-1.601.679-.223 1.3c-.257 1.437-.79 3.182-1.264 4.804-.474 1.622-1.133 3.273-1.753 4.913a65.77 65.77 0 0 1-2.063 4.897l-2.378 4.85z"/></g><g><path fill="#049b93" d="M69.19 245.67c-2.898-.118-5.702-.436-8.675-.388-1.56.5-2.306 1.994-2.819 3.332-.497 1.384-.64 2.896-.69 4.318l-.36 8.634a11.89 11.89 0 0 0 .45 4.334c.439 1.314 1.246 2.939 2.891 3.093v-.256c-1.255-.654-1.443-2.017-1.57-3.242a9.771 9.771 0 0 1 .015-1.897l.107-.894c.052-.402.1-.666.167-1.025.462-2.85.771-5.723.925-8.606l.028-1.079c.016-.295.02-.59.062-.874.063-.567.169-1.129.315-1.68a5.66 5.66 0 0 1 .536-1.428c.194-.364.512-.641.404-.692.05-.151.933-.12 1.648-.228l2.176-.257c1.47-.203 2.925-.5 4.357-.889z"/></g><g><path fill="#337772" d="M59.98 268.99c2.893.116 5.702.439 8.674.395 1.561-.513 2.307-1.999 2.82-3.332.512-1.386.64-2.895.691-4.313l.357-8.644c.114-1.46-.04-2.929-.454-4.333-.438-1.312-1.243-2.935-2.888-3.094l-.013.257c1.256.658 1.445 2.024 1.573 3.247a9.983 9.983 0 0 1-.017 1.896l-.108.897c-.051.402-.1.659-.167 1.025a80.135 80.135 0 0 0-.927 8.611l-.034 1.079c0 .295-.018.59-.056.876-.065.567-.171 1.128-.318 1.679-.11.497-.288.977-.53 1.425-.195.369-.513.643-.403.694-.051.154-.933.126-1.648.228l-2.175.257c-1.475.2-2.936.496-4.372.886z"/></g><g><path fill="#602712" d="M70.94 76.852s-10.14 3.047-13.39-1.174"/></g><g><path fill="#9e4725" d="M69.774 53.05l-2.23 5.343c-1.445-.941-2.606-3.155-3.054-4.009l1.397-3.267z"/></g><g><path fill="#fbae39" d="M63.57 130.608l10.01.715 12.929 39.753-9.984-1.276z"/></g><g><path fill="#fbae39" d="M48.57 166.294l10.074 1.253 7.317-17.265c.76-1.898.82-4.005.17-5.943l-3.632-11.056z"/></g><g><path fill="#cefaf2" d="M130.26 186.611c2.67 6.84 7.237 14.18 14.92 20.702 10.764-.769 19.351.236 25.556 1.635 2.77-10.638 2.306-20.776.605-29.215-2.82-14.095-8.947-23.654-8.947-23.654 3.906-15.815-1.374-30.24-13.518-39.723"/></g><g><path fill="#bfefe6" d="M33.368 145.672a29.471 29.471 0 0 0 1.246 12.91 28.057 28.057 0 0 0 6.95 10.984l-.105-.363c-1.156 6.501-1.143 13.07-.744 19.597.4 6.527 1.495 13 2.963 19.369 1.415 6.363 3.506 12.621 5.5 18.749 1.537 6.281 2.8 12.737 2.585 19.22l.513.026c.864-3.255 1.158-6.663 1.122-10.033a71.327 71.327 0 0 0-.784-10.07l-.194-1.28-.36-1.405-.578-2.33-1.049-4.661c-.722-3.098-1.394-6.194-1.932-9.31-1.245-6.192-2.05-12.422-2.675-18.64-.257-3.113-.413-6.224-.541-9.325-.082-3.044.028-6.327.215-9.031l.174-2.496-1.222-.98a29.181 29.181 0 0 1-4.031-4.043 24.576 24.576 0 0 1-3.18-4.87 28.14 28.14 0 0 1-2.192-5.66 39.042 39.042 0 0 1-1.163-6.3z"/></g><g><path fill="#bfefe6" d="M145.518 206.895c-1.968-4.123-3.93-7.657-5.707-11.178-.802-1.812-1.794-3.46-2.49-5.251-.82-1.728-1.613-3.458-2.258-5.246-.8-1.73-1.418-3.542-2.066-5.344-.738-1.794-1.228-3.657-1.922-5.522l-3.77-11.922-.512-.08c-.541 4.206-.375 8.437.192 12.617a53.288 53.288 0 0 0 3.198 12.232 52.204 52.204 0 0 0 14.992 20.094z"/></g></g></g></g></g></svg>