<svg xmlns="http://www.w3.org/2000/svg" width="518" height="389.228" viewBox="0 0 518 389.228">
  <g id="hero" transform="translate(0.002)" style="isolation: isolate">
    <g id="Layer_2" data-name="Layer 2" transform="translate(-0.002)">
      <g id="_1" data-name="1">
        <path id="Path_491" data-name="Path 491" d="M419.306,0C397.126,0,374,22.278,374,45.6c0,3.236,7.67,10.459,7.67,10.459l55.015-24.349-3.43-23.475S430.814,0,419.306,0Z" transform="translate(-131.934)" fill="#302015"/>
        <path id="Path_492" data-name="Path 492" d="M429.978,27.237,385.85,60.544,440.865,36.2l-3.43-23.475Z" transform="translate(-136.114 -4.487)" fill="#3d2312"/>
        <path id="Path_493" data-name="Path 493" d="M331.093,149.638c-28.025-15.268-84.347-3.275-129.414,48.122-42.432,48.387-30.077,50.484-75.985,92.463C77.7,334.1,55.923,329.5,43.58,358.577c0,0,32.575-32.29,109.7-11.055C258.914,376.6,331.093,149.638,331.093,149.638Z" transform="translate(-15.372 -50.611)" fill="#008581"/>
        <path id="Path_494" data-name="Path 494" d="M314.252,214.036c-28.025-15.262-54.367-30.536-99.46,20.854-42.439,48.393-43.19,33.125-89.1,75.079C77.7,353.838,55.923,349.242,43.58,378.316c0,0,32.575-32.29,109.7-11.055C258.914,396.342,314.252,214.036,314.252,214.036Z" transform="translate(-15.372 -70.351)" fill="#337772"/>
        <path id="Path_495" data-name="Path 495" d="M585.33,109.369c-16.427-23.5-49.578-7.6-86.179,5.974-38.743,14.369-59.616,48.737-50.7,67.312s54.367,31.184,82.956-.1C563.868,146.96,600.139,143.608,585.33,109.369Z" transform="translate(-157.476 -34.342)" fill="#cefaf2"/>
        <path id="Path_496" data-name="Path 496" d="M680.341,80.253c-1.676-2.634-3.327-12.718-5.612-14.433-20.064,10.278-41.352,2.751-66.859,12.1-31,11.372-50.795,38.077-45.222,52.73s21.592,18.336,50.665,6.8S661.209,92.4,680.341,80.253Z" transform="translate(-198.152 -23.219)" fill="#cefaf2"/>
        <path id="Path_497" data-name="Path 497" d="M498.864,106.73c17.572-6.518,35.481-10.129,50-13.1,5.7-3.812,12.485-10.246,19.514-12.789,25.514-9.352,46.795,2.925,66.84-7.353,1.236.926,2.285,4.285,3.236,7.6.388-.265.777-.537,1.165-.783-1.676-2.634-3.327-12.718-5.611-14.433-20.064,10.278-41.352,2.751-66.859,12.1A90.386,90.386,0,0,0,548,87.74c-14.517,2.971-31.287,10.006-48.859,16.53-37.345,13.851-58.076,46.284-51.546,65.222C447.674,150.373,466.166,118.872,498.864,106.73Z" transform="translate(-157.474 -23.237)" fill="#afddd4"/>
        <path id="Path_498" data-name="Path 498" d="M634.03,65.82c-19.1,12.142-40.31,42.2-69.383,53.72-30.232,12.032-59.416-2.88-73.39,12.433-25.792,28.239-30.828,45.669-44.827,30.277a21.78,21.78,0,0,0,2.026,9.236c8.906,18.556,54.367,31.184,82.956-.1,14.33-15.7,29.391-25.113,40.484-33.688l.718-.272c29.074-11.534,47.927-45.047,67.027-57.2C637.965,77.619,636.315,67.535,634.03,65.82Z" transform="translate(-157.485 -23.219)" fill="#bfefe6"/>
        <path id="Path_499" data-name="Path 499" d="M455.753,207.059c-6.4-54.982-29.9-70.924-122.722-22.09-75.079,30.368-27.255,96.392-75.668,143.284-16.181,43.876,2.285,24.88,36.323,25.6C365.937,297.86,464.653,283.608,455.753,207.059Z" transform="translate(-88.694 -54.96)" fill="#cefaf2"/>
        <path id="Path_501" data-name="Path 501" d="M362.736,237.7c-19.249-91.441-93.577,9.061-93.978,90.1-16.142,43.876-5.605,41.423,28.433,42.154,72.244-56.011,170.96-70.263,162.06-146.812,0,0,2.8,56.911-55.746,68.542C368.089,298.741,367.144,257.351,362.736,237.7Z" transform="translate(-92.192 -71.045)" fill="#bfefe6"/>
        <path id="Path_502" data-name="Path 502" d="M228.114,397.87c-19.527,28.918-56.587,56.393-95.984,84.263l5.618,9.424L264.4,441.578Z" transform="translate(-46.61 -140.356)" fill="#cefaf2"/>
        <path id="Path_503" data-name="Path 503" d="M230.891,397.87c-14.673,20.1-21.889,25.812-46.251,47.17a96.514,96.514,0,0,0,9.424,7.715L140,490.657l.537.9,126.637-49.979Z" transform="translate(-49.386 -140.356)" fill="#bfefe6"/>
        <path id="Path_504" data-name="Path 504" d="M268.354,450.627l56.1,22.906,35.6-3.165c-29.824-38.31-55.1-51.416-91.544-78.108C250.3,409.813,244.743,429.269,268.354,450.627Z" transform="translate(-89.134 -138.377)" fill="#cefaf2"/>
        <path id="Path_505" data-name="Path 505" d="M275.746,404.693c32.277,23.643,55.8,36.64,81.48,65.927l2.841-.252c-29.824-38.31-55.1-51.416-91.544-78.108-16.181,15.534-22.336,32.608-7.12,51.131C256.73,429.631,263.241,416.687,275.746,404.693Z" transform="translate(-89.135 -138.377)" fill="#afddd4"/>
        <path id="Path_506" data-name="Path 506" d="M337.649,487.34l-61.358,39.792-.4,13.061c44.161-17.391,64.484-17.165,91.907-35.921Z" transform="translate(-97.324 -171.918)" fill="#cefaf2"/>
        <path id="Path_507" data-name="Path 507" d="M368.256,470.368c-29.824-38.31-55.1-51.416-91.544-78.108,9.6,18.122,64.548,46.989,70.691,75.3l-.906.078.466.265c-22.653,15.462-40.439,18.032-70.749,28.206l-.324,10.517c44.161-17.391,64.484-17.165,91.907-35.921l-.466-.259Z" transform="translate(-97.324 -138.377)" fill="#bfefe6"/>
        <path id="Path_508" data-name="Path 508" d="M294.3,521.06l-26.472,16.614-.123-.052c-18.343,22.006-29.125,61.616,13.236,10.246,13.4-4.789,24.595-8.155,34.627-11.45Z" transform="translate(-88.737 -183.814)" fill="#fbae39"/>
        <path id="Path_509" data-name="Path 509" d="M152.378,491.77c-10.187,7.463-20.815,14.958-31.54,22.543l.058.1c-17.475,16.731-33.281,55.228,10.356,9.6l28.1-11.158Z" transform="translate(-36.374 -173.481)" fill="#fbae39"/>
        <path id="Path_510" data-name="Path 510" d="M351.6,219.1c-15.572-8.09-50.969,9.98-70.458,47.118S265.429,345.494,281,353.6,312.878,329,344.489,301C378.9,270.486,367.168,227.186,351.6,219.1Z" transform="translate(-94.501 -76.621)" fill="#cefaf2"/>
        <path id="Path_512" data-name="Path 512" d="M334.15,312.168c6.893.252,14.1,2.958,20.31,4.207,4.285-4.472,9.708-10.013,14.705-14.433,34.413-30.5,21.359-74.645,5.825-82.729a17.164,17.164,0,0,0-5.741-1.7C412.368,255.684,361.813,297.793,334.15,312.168Z" transform="translate(-117.876 -76.731)" fill="#afddd4"/>
        <path id="Path_513" data-name="Path 513" d="M350.749,368.8c15.152,3.618,26.213,9.508,26.536,14.239.472,7.2-34.478,25.889-63.875,30.277a83.307,83.307,0,0,0,16.135.168c30.232-2.349,68.852-21.585,67.959-28.7C396.638,378.677,374.975,370.5,350.749,368.8Z" transform="translate(-110.56 -130.101)" fill="#afddd4"/>
        <path id="Path_514" data-name="Path 514" d="M383.583,384.615c-.99-7.579-34.064-18.336-64.3-15.993s-46,13.158-45.183,24.491,11.32,22.556,41.552,20.207S384.508,391.734,383.583,384.615Z" transform="translate(-96.683 -129.923)" fill="#bfefe6"/>
        <path id="Path_515" data-name="Path 515" d="M376.353,383.08c-6.634,8.414-39.967,23.753-66.742,25.831-17.391,1.353-28.245-1.793-34.491-6.861,2.731,9.916,14.006,18.576,40.905,16.485,30.232-2.349,68.852-21.585,67.959-28.7C383.674,387.708,380.884,385.345,376.353,383.08Z" transform="translate(-97.052 -135.139)" fill="#afddd4"/>
        <path id="Path_516" data-name="Path 516" d="M292.836,217.944c66.976-46.523,85.435,20.187,152.8-27.941C459,169.939,454.5,129.927,432.4,128.109,330.13,119.688,272.177,213.491,292.836,217.944Z" transform="translate(-101.837 -45.004)" fill="#008581"/>
        <path id="Path_518" data-name="Path 518" d="M463.964,142.591,401.28,97c9.391,25.294,14.983,39,9.21,54.141C470.385,181.354,486.689,175.742,463.964,142.591Z" transform="translate(-141.558 -34.219)" fill="#83442d"/>
        <path id="Path_519" data-name="Path 519" d="M432.927,36.35C411.3,36.965,399.614,44.919,390.1,63.2l28.575,64.827c19.572,9.365,50.4,9.708,67.7-7.624C468.169,64.446,446.474,46.007,432.927,36.35Z" transform="translate(-137.614 -12.823)" fill="#83442d"/>
        <path id="Path_520" data-name="Path 520" d="M418.9,187.347c83.389,27.74,85.247-38.245,4.641-47.63-1.773-.207-12.815-14.582-14.673-14.731-2.971-.239-2.2,5.825,0,13.7C385.209,144.973,386.089,176.435,418.9,187.347Z" transform="translate(-138.463 -44.089)" fill="#337772" opacity="0.4" style="mix-blend-mode: multiply;isolation: isolate"/>
        <path id="Path_521" data-name="Path 521" d="M465.125,82.267c-16.181,11.579-42.07,9.061-59.086,3.476L393.929,67.73c-1.294,2.019-2.589,4.194-3.8,6.544L418.686,139.1c19.572,9.365,50.4,9.708,67.7-7.624C481.305,115.865,471,91.626,465.125,82.267Z" transform="translate(-137.624 -23.893)" fill="#5f3d31"/>
        <path id="Path_522" data-name="Path 522" d="M415.172,125.286c1.722-3.987-1.294-9.126-6.777-11.482s-11.288-1.029-13.009,2.964,1.294,9.132,6.776,11.488S413.451,129.286,415.172,125.286Z" transform="translate(-139.308 -39.735)" fill="#83442d"/>
        <path id="Path_523" data-name="Path 523" d="M414.685,126.215c1.262-2.932-.971-6.712-4.984-8.414s-8.3-.751-9.553,2.181.958,6.718,4.977,8.414S413.417,129.153,414.685,126.215Z" transform="translate(-141.034 -41.259)" fill="#602712"/>
        <path id="Path_524" data-name="Path 524" d="M422.049,129.178c.738-1.7-.79-4-3.4-5.133s-5.333-.647-6.065,1.055.79,4.006,3.4,5.133S421.318,130.919,422.049,129.178Z" transform="translate(-145.479 -43.543)" fill="#83442d"/>
        <path id="Path_525" data-name="Path 525" d="M458.9,108.111s15.993,4.8,21.119-1.851C472.026,110.842,460.3,106.48,458.9,108.111Z" transform="translate(-161.884 -37.485)" fill="#602712"/>
        <path id="Path_526" data-name="Path 526" d="M467.064,85.648s9.4.647,14.1-4.259c0,0-9.65-17.32-19.508-21.779,0,0-6.252,2.2-7.042,3.715S467.064,85.648,467.064,85.648Z" transform="translate(-160.359 -21.029)" fill="#602712"/>
        <path id="Path_527" data-name="Path 527" d="M460.633,51.03,426.88,67.366l3.741,8.874L468.29,60.027Z" transform="translate(-150.588 -18.002)" fill="#008581"/>
        <path id="Path_528" data-name="Path 528" d="M395.772,55.42,385.85,75.607l11,16.983c3.307-.492,7.456-1.01,11.838,3.566l2.984-1.372C405.921,77.989,408.924,62.352,395.772,55.42Z" transform="translate(-136.114 -19.55)" fill="#302015"/>
        <path id="Path_529" data-name="Path 529" d="M398.7,44.317l36.491-12.006,5-15.521-19.287,2.226Z" transform="translate(-140.647 -5.923)" fill="#302015"/>
        <path id="Path_530" data-name="Path 530" d="M40.3,479.392s-34.51-54.833,25.113-74.115c2.052-.647,42.782-23.151,58.193-38.7,0,0-76.237,68.225-82.308,110.152" transform="translate(-10.709 -129.318)" fill="#008581"/>
        <path id="Path_531" data-name="Path 531" d="M442.98,74.128l9.23-2.938-4.88,5.547Z" transform="translate(-156.268 -25.114)" fill="#ffd4ae"/>
        <path id="Path_532" data-name="Path 532" d="M477.217,60.31l-.3,3.379-6.233-.181Z" transform="translate(-166.04 -21.275)" fill="#ffd4ae"/>
        <path id="Path_533" data-name="Path 533" d="M447.22,73.714l1.605,3.612,2.155-2.408-.906-2.058Z" transform="translate(-157.764 -25.703)" fill="#824922"/>
        <path id="Path_534" data-name="Path 534" d="M476.914,61.48l1.4,2.705-3.01-.1-.608-1.579Z" transform="translate(-167.458 -21.688)" fill="#824922"/>
        <path id="Path_535" data-name="Path 535" d="M435.586,40.77,399.82,47.754l3.2,4.013Z" transform="translate(-141.043 -14.382)" fill="#3d2312"/>
        <path id="Path_536" data-name="Path 536" d="M739.539,68.024l-13.805-33.6L683.845,55.908c-1.605.324-64.788-5.98-54.762,41.746,24.485,43.287,69.034-21.6,70.652-23.093l2.79,3.152Z" transform="translate(-221.539 -12.142)" fill="#fbae39"/>
        <rect id="Rectangle_92" data-name="Rectangle 92" width="84.302" height="79.163" transform="translate(235.982 183.108)" fill="#efc29a"/>
        <rect id="Rectangle_93" data-name="Rectangle 93" width="24.323" height="79.163" transform="translate(211.659 183.108)" fill="#e0b18c"/>
        <rect id="Rectangle_54" data-name="Rectangle 54" width="13.398" height="18.181" transform="translate(271.431 183.108)" fill="#ddbda2"/>
        <rect id="Rectangle_57" data-name="Rectangle 57" width="13.398" height="18.181" transform="translate(271.431 244.246)" fill="#ddbda2"/>
        <rect id="Rectangle_55" data-name="Rectangle 55" width="11.152" height="18.174" transform="translate(218.241 183.108)" fill="#c4a894"/>
        <rect id="Rectangle_56" data-name="Rectangle 56" width="11.152" height="18.174" transform="translate(218.241 244.097)" fill="#c4a894"/>
        <path id="Path_537" data-name="Path 537" d="M756.09,79.66l-20.88,5.333,6.44,13.915,21.475-8.531Z" transform="translate(-259.358 -28.102)" fill="#ea9c34"/>
        <path id="Path_538" data-name="Path 538" d="M418.181,382.714l-3.812-23.061-28.478-6.013-8.822,1-.6,12.026c-44.594-12.369-62.7,5.754-62.134,18.051.835,19.294,35.287,35.688,68.173,8.019Z" transform="translate(-110.881 -124.753)" fill="#fbae39"/>
        <path id="Path_539" data-name="Path 539" d="M409.563,350.051l9.825.6-.3-3.812-21.656-4.511L386.8,362.478l16.174,7Z" transform="translate(-136.449 -120.763)" fill="#fbae39"/>
        <path id="Path_540" data-name="Path 540" d="M302.6,530.85c-9.145,2.951-16.013,10.4-27.876,14.64-14.239,17.288-18.938,24.478-22.893,25.287-1.812,9.534,5.133,9.618,29.125-19.456,13.4-4.79,25.825-7.767,35.889-11.048Z" transform="translate(-88.741 -187.267)" fill="#ea9c34"/>
        <path id="Path_541" data-name="Path 541" d="M342.625,536.279,316.69,516.5l-3.21,2.673,24.038,18.867Z" transform="translate(-110.584 -182.205)" fill="#ea9c34"/>
        <path id="Path_542" data-name="Path 542" d="M390.373,353.44l-.5,25.326c-29.947,12.3-37.086,14.064-62.218,21.139,12.42,9.87,36.361,12.3,59.545-7.236l38.769-8.291-3.676-28.407-5.113-.362-1.573,1.43-1.139-1.7L408.638,355l-1.8,1.392-2.822-1.851Z" transform="translate(-115.583 -124.683)" fill="#ea9c34"/>
        <path id="Path_543" data-name="Path 543" d="M408.516,344.19l-5.346,20,6.951,1.152,1.307-15.139,13.534,1.4-.3-4.11Z" transform="translate(-142.224 -121.419)" fill="#ea9c34"/>
        <path id="Path_544" data-name="Path 544" d="M516.93,158.815l7.618,6.615-4.414-8.22Z" transform="translate(-182.355 -55.459)" fill="#70513a"/>
        <path id="Path_545" data-name="Path 545" d="M728.808,34.42,706.8,45.714l8.272,20.148c-41.106,7.553-63.079,27.883-78.354,38.336,25.041,29.274,64.568-28.258,66.089-29.663l2.79,3.152,37.015-9.708Z" transform="translate(-224.613 -12.142)" fill="#ea9c34"/>
        <path id="Path_546" data-name="Path 546" d="M743.138,78.96,732.86,83.471l7.65,15.6,9-7.76Z" transform="translate(-258.529 -27.855)" fill="#fbae39"/>
        <path id="Path_547" data-name="Path 547" d="M753.09,45.2l-10,5.055,11.2,23.216,12.55-1.948Z" transform="translate(-262.137 -15.945)" fill="#f9b65d"/>
        <rect id="Rectangle_94" data-name="Rectangle 94" width="6.013" height="26.303" transform="translate(111.723 317.932) rotate(-21.27)" fill="#ea9c34"/>
        <path id="Path_548" data-name="Path 548" d="M152.389,491.77c-1.786,1.294-3.6,2.589-5.4,3.922l4.608,13.954L123.548,520.8c-8.615,9-14.886,14.718-19.339,17.987-3.683,9.793,1.43,12.026,27.087-14.783l28.064-11.158Z" transform="translate(-36.384 -173.481)" fill="#ea9c34"/>
        <path id="Path_549" data-name="Path 549" d="M3.171,483.012c-12.3-40.374,28.608-66.445,67.914-78.872C71.085,404.14-17.683,421.246,3.171,483.012Z" transform="translate(0.002 -142.568)" fill="#337772"/>
        <path id="Path_550" data-name="Path 550" d="M573.867,238.88s14.945,28.394-24.187,65.04C549.68,303.92,594.546,272.212,573.867,238.88Z" transform="translate(-193.908 -84.269)" fill="#337772"/>
        <path id="Path_551" data-name="Path 551" d="M533.329,259l-12.783,1.1-10.466,45.83a64.987,64.987,0,0,0,10.563-6.3Z" transform="translate(-179.939 -91.367)" fill="#fbae39"/>
        <path id="Path_552" data-name="Path 552" d="M544.271,286.325,542.976,265.4l-6.6,17.216a19.773,19.773,0,0,0-.977,9.23l.408,4.731A60.837,60.837,0,0,0,544.271,286.325Z" transform="translate(-188.81 -93.625)" fill="#fbae39"/>
        <path id="Path_553" data-name="Path 553" d="M524.7,318.847l-3.171,10.168a113.356,113.356,0,0,0,10.013-9.2L531,313.52A61.324,61.324,0,0,1,524.7,318.847Z" transform="translate(-183.978 -110.6)" fill="#bfefe6"/>
        <path id="Path_554" data-name="Path 554" d="M560.8,235s1.049,21.359-11.6,40.581l.408,6.472C558.591,269.148,563.005,254,560.8,235Z" transform="translate(-193.739 -82.901)" fill="#bfefe6"/>
        <path id="Path_555" data-name="Path 555" d="M508.7,328.048l-2.589,11.4q5.262-3.67,10-7.534l3.171-10.168A64.986,64.986,0,0,1,508.7,328.048Z" transform="translate(-178.538 -113.503)" fill="#ea9c34"/>
        <path id="Path_556" data-name="Path 556" d="M544.614,297.73a60.84,60.84,0,0,1-8.414,10.22l.544,6.291a83.176,83.176,0,0,0,8.3-10.058Z" transform="translate(-189.153 -105.03)" fill="#ea9c34"/>
      </g>
    </g>
  </g>
</svg>
