<svg xmlns="http://www.w3.org/2000/svg" width="631" height="515" viewBox="0 0 631 515"><defs><clipPath id="t4osa"><path d="M134.633 124.448c2.2.53 7.169 6.367 8.317 11.011-1.358-2.38-4.736-2.112-6.378-3.573-3.304-2.942-4.747-6.308-4.747-6.308z"/></clipPath><clipPath id="t4osb"><path d="M278.03 238.432c-3.842 21.034 4.538 41.365 15.353 50.38-6.155 13.939-18.563 23.868-27.39 29.51-2.235-.913-4.893-.73-7.03.73l-3.916 2.607c-11.399-21.442-60.78-37.56-68.32-64.243l-.144.37c-5.126-2.42-9.021-5.687-13.435-10.497-8.785-9.577-19.728-28.344-22.46-36.264-3.106-8.998-3.076-14.512-1.486-25.144 7.575 9.57 16.842 9.431 16.842 9.431 36.008 3.73 42.438-22.728 42.438-22.728 2.012-4.226 4.523-7.457 7.394-9.816l.028-.034c16.289-13.37 43.67 2.044 52.737 25.737 0 0 26.754 6.858 56.09 41.285.158 5.565-.617 12.683-4.454 18.634-16.363.905-30.728-3.8-42.246-9.958z"/></clipPath></defs><g><g><g><path fill="#008581" d="M279.505 335.987a7.74 7.74 0 0 1 .708 7.126 7.623 7.623 0 0 1-2.817 3.452l-3.52 2.311c-7.315-6.786-12.645-12.128-17.812-25.044a18.023 18.023 0 0 0-1.017-2.173l3.916-2.607c2.137-1.46 4.796-1.643 7.03-.73a7.31 7.31 0 0 1 3.52 2.842z"/></g><g><path fill="#cefaf2" d="M386.82 430.946s11.07-6.537 22.848-6.33c2.043.09 4.08.185 6.175.208-8.629 16.424-30.602 21.62-21.593 37.002-8.576 2.365-13.983 4.029-13.983 4.029-15.944 1.741 0 0-39.414-23.588-39.448-23.56-42.949-54.86-53.6-80.258 2.22 2.394 4.56 5.072 7.073 8.197 15.64 19.318 44.365 42.942 89.553 51.433z"/></g><g><path fill="#cefaf2" d="M536.534 436.142c-26.927 2.92-57.576-12.234-59.922 5.356-9.668-6.012-13.349-8.874-13.349-8.874-27.418 3.664-40.424-7.785-40.424-7.785-2.377.032-4.705.025-6.996-.015-2.095-.023-4.132-.118-6.175-.209a185.551 185.551 0 0 1-25.79-2.976c-45.187-8.49-73.911-32.115-89.552-51.433a152.533 152.533 0 0 0-7.073-8.197c-5.167-5.645-9.544-9.574-13.377-13.133l3.52-2.31a7.624 7.624 0 0 0 2.816-3.452c10.425-6.964 28.908-21.896 38.047-44.744 16.522 5.82 37.03 16.791 43.68 42.423 0 0 29.196 9.206 64.704 39.04 3.526 2.936 7.069 6.103 10.691 9.45 0 0 10.098 2.535 17.56 9.57 0 0 35.154-14.41 65.428 18.554a397.51 397.51 0 0 1 16.212 18.735z"/></g><g><path fill="#337772" d="M323.527 220.412s1.027 3.945 1.204 9.344c-29.336-34.427-56.09-41.285-56.09-41.285-9.067-23.693-36.448-39.107-52.737-25.737 3.234-3.453 5.515-6.763 7.1-9.824l.037.027c30.505-4.943 80.126-.643 139.535 29.903 59.401 30.516 99.562 52.082 168.507 57.558 0 0 18.57 21.99.03 42.953-18.51 20.96-29.84 25.16-25.19 52.374 4.647 27.211-12.523 46.738-30.053 42.002-17.556-4.735-42.37-5.595-49.227 2.107-35.508-29.835-64.704-39.04-64.704-39.04-6.65-25.632-27.158-36.603-43.68-42.424-7.098-2.518-13.479-4.068-17.644-5.402-2.45-.805-4.882-2.218-7.232-4.156-10.815-9.015-19.195-29.346-15.352-50.38 11.519 6.158 25.882 10.863 42.246 9.958a21.657 21.657 0 0 1-4.816 5.414s26.05 27.706 62.326 42.235c1.96.779 3.167 2.933 3.708 4.858 6.467 22.612 6.318 23.918 18.788 26.738 19.894 4.486 19.518-2.51 13.928-15.078-3.748-8.46-10.61-16.059-17.857-23.175-7.214-7.085-39.1-48.014-53.522-61.732-29.567-28.126-20.167-15.516-19.305-7.238z"/></g><g><path fill="#efd2c0" d="M320.277 248.39c-.27.011-.53-.003-.8.01.198.093.39.19.584.284.062-.102.153-.193.216-.294z"/></g><g><path fill="#008581" d="M158.144 188.479l7.9 6.833s-9.267.139-16.842-9.431c.238-1.468.467-3.002.687-4.663.293-1.956.606-4.046.936-6.36.036 5.219 1.432 8.553 7.319 13.62z"/></g><g><path fill="#008581" d="M215.876 162.768c-2.87 2.359-5.382 5.59-7.394 9.816 0 0-6.43 26.458-42.437 22.728 0 0 27.064-2.056 38.194-32.569 7.254.025 11.637.025 11.637.025z"/></g><g><path fill="#a86a3b" d="M184.658 145.73c2.587.923 2.754 4.578-1.257 5.967-3.982 1.384-4.953-1.854-4.953-1.854s1.872.043 3.864-1.247c1.685-1.072 2.346-2.865 2.346-2.865z"/></g><g><path fill="#c17f49" d="M134.633 124.448c2.2.53 1.353 6.367 2.502 11.011-4.093-7.175-5.31-9.88-5.31-9.88z"/></g><g><path fill="#1c0b06" d="M204.24 162.743c-3.739-.022-8.254-.044-13.313-.053-4.576-.017-10.983-5.107-10.983-5.107 7.598-.1 18.823-11.123 5.548-15.495-3.318-.378-4.678-1.652-4.678-1.652s34.383-13.962 21.176-31.841c7.22 8.792 13.287 20.063 22.371 26.419.823.578 1.57 1.099 2.318 1.552l.003.033c.11.567 1.228 7.212-3.677 16.31-1.586 3.062-3.867 6.372-7.1 9.825l-.029.034s-4.382 0-11.637-.025z"/></g><g><path fill="#1c0b06" d="M230.694 122.868c2.454 13.624 13.658 18.649 13.658 18.649s-3.656 4.228-17.67-4.918l-.003-.033c-.748-.453-1.495-.974-2.318-1.552-9.085-6.356-15.152-17.627-22.371-26.42-.552-.825-1.264-1.672-2.105-2.505-.244-.238-.49-.508-.77-.777-4.73-5.062-10.12-8.75-17.224-9.337 0 0-4.616-33.978 17.102-24.037 21.688 9.977 29.218 37.338 31.701 50.93z"/></g><g><path fill="#008581" d="M163.775 105.851c16.111 11.941 17.81 23.791 10.37 30.193-19.56 16.758-26.256-21.015-33.554-24.806 1.056-.472 2.12-.882 3.15-1.287 7.686-2.974 14.318-4.25 14.318-4.25a34.837 34.837 0 0 1 2.164-2.335c1.26.83 2.453 1.671 3.552 2.485zm-3.978 6.99c-5.89-.296-6.11 4.138-6.11 4.138 5.966 8.44 9.109 8.253 9.109 8.253s.778-5.928-2.999-12.39z"/></g><g><path fill="#eae0a4" d="M159.797 112.841c3.777 6.463 2.999 12.39 2.999 12.39s-3.144.188-9.11-8.252c0 0 .221-4.434 6.11-4.138z"/></g><g><path fill="#c17f49" d="M185.492 142.088c13.275 4.372 2.05 15.395-5.548 15.495 0 0 6.407 5.09 10.983 5.107 5.06.01 9.574.031 13.312.053-11.13 30.513-38.194 32.57-38.194 32.57l-7.9-6.834c-5.888-5.068-7.285-8.402-7.32-13.62a.565.565 0 0 1 .013-.227c-.011-1.737.122-3.683.323-5.987-3.982-1.42-8.393-3.769-12.692-6.322-5.246-3.088-10.354-6.48-14.507-8.816-11.58-6.541-9.352-12.842-9.352-12.842.682-3.537 3.516-5.15 6.35-5.961 2.679-.764 5.346-.85 6.409-1.257.907-.335 1.794-1.727 2.541-3.236 1.113-2.184 1.915-4.633 1.915-4.633s1.217 2.706 5.31 9.882c-1.149-4.645-.301-10.481-2.502-11.012l3.028-1.212-3.883-8.549a62.624 62.624 0 0 1 6.813-3.449c7.298 3.791 13.993 41.564 33.554 24.806 7.44-6.402 5.74-18.252-10.37-30.193a78.375 78.375 0 0 0-3.552-2.485c10.945-10.907 21.669-7.391 21.669-7.391 7.104.586 12.493 4.275 17.223 9.337.28.269.526.54.77.777.71.813 1.425 1.657 2.105 2.506 13.207 17.88-21.176 31.84-21.176 31.84s1.36 1.275 4.678 1.653zm-2.091 9.609c4.012-1.39 3.845-5.044 1.258-5.966 0 0-.66 1.793-2.347 2.865-1.99 1.29-3.864 1.247-3.864 1.247s.972 3.239 4.953 1.854z"/></g><g><path fill="#cefaf2" d="M278.03 238.432c-3.841 21.034 4.538 41.365 15.353 50.38-6.155 13.939-18.563 23.868-27.39 29.51-2.235-.913-4.893-.73-7.03.73l-3.916 2.607c-11.399-21.442-60.78-37.56-68.32-64.243l-.144.37c-5.126-2.42-9.021-5.687-13.435-10.497-8.785-9.577-19.728-28.344-22.46-36.264-3.106-8.998-3.076-14.512-1.486-25.144 7.575 9.57 16.842 9.431 16.842 9.431 36.008 3.73 42.438-22.728 42.438-22.728 2.012-4.226 4.523-7.457 7.394-9.816l.028-.034c16.289-13.37 43.67 2.044 52.737 25.737 0 0 26.754 6.858 56.09 41.285.158 5.565-.617 12.683-4.454 18.634-16.363.905-30.728-3.8-42.246-9.958z"/></g><g><path fill="#c3d6d9" d="M273.419 190.146a54.366 54.366 0 0 0-2.529-.956c-.154.353-.337.692-.5 1.042.905-.21 1.964-.18 3.029-.086z"/></g><g><path fill="#cefaf2" d="M150.825 174.859c-.33 2.313-.643 4.403-.936 6.359-4.177-7.01-7.972-13.308-11.42-18.895 4.299 2.553 8.71 4.903 12.691 6.322-.2 2.304-.334 4.25-.322 5.987a.556.556 0 0 0-.013.227z"/></g><g><path fill="#cefaf2" d="M132.459 101.938l11.282 8.013c-1.03.405-2.094.815-3.15 1.287a62.763 62.763 0 0 0-6.813 3.45l3.883 8.547-3.027 1.213-2.809 1.13s-.802 2.449-1.915 4.633c-.747 1.509-1.634 2.901-2.541 3.236-1.063.406-3.73.493-6.408 1.257-3.781-5.721-5.712-8.464-5.712-8.464 6.184-3.24 14.136-10.101 17.21-24.302z"/></g><g><path fill="#fbae39" d="M476.618 441.534c1.459.91 3.053 1.91 4.81 2.962-26.98 1.442-66.414 11.524-87.177 17.33-9.01-15.382 12.963-20.578 21.592-37.002 2.291.04 4.619.047 6.996.015 0 0 13.006 11.45 40.425 7.785 0 0 3.68 2.862 13.349 8.874z"/></g><g><path fill="#fbae39" d="M592.332 475.36c9.727 11.908 41.432 32.55 37.853 38.084 0 0-3.621 4.263-31.79-4.13-28.138-8.42-38.909-21.666-80.486-44.083-16.174-8.714-28.039-15.585-36.48-20.735-1.758-1.052-3.353-2.052-4.811-2.962l-.006-.036c2.346-17.59 32.996-2.436 59.923-5.356 15.39 18.895 18.742 26.516 29.633 29.314 13.956 3.54 16.399-2.035 26.164 9.904z"/></g><g><path fill="#fbae39" d="M300.616 292.968c4.165 1.334 10.545 2.884 17.643 5.402-9.139 22.848-27.621 37.78-38.047 44.743a7.74 7.74 0 0 0-.707-7.126l-9.992-14.823a7.311 7.311 0 0 0-3.52-2.843c8.827-5.64 21.235-15.57 27.39-29.509 2.35 1.938 4.782 3.351 7.233 4.156z"/></g><g><path fill="#fbae39" d="M133.02 98.895a70.055 70.055 0 0 1-.561 3.043c-3.075 14.2-11.026 21.063-17.21 24.302-4.478 2.39-8.052 2.843-8.052 2.843-18.2-15.06-56.31-51.196-63.59-57.954-7.25-6.763-22.335-9.989-25.442-14.538C9.757 44.253-3.708 27.97.972 29.656 9.531 32.7 13.675 41.71 20.698 44.463c6.985 2.722 7.043-7.755-6.197-19.253C1.293 13.711 2.458.211 2.458.211c12.836 9.694 28.216 16.183 36.278 26.23 8.066 10.078 17.098 29.327 17.098 29.327C95.414 73 133.02 98.895 133.02 98.895z"/></g><g><path fill="#bfefe6" d="M394.535 462.276a647.924 647.924 0 0 0-13.93 4.128l-.05.013-.052.005c-1.522.174-3.039.36-4.59.476-1.472.09-3.355.223-4.815-.92-1.316-1.065-2.22-2.24-3.312-3.308a59.13 59.13 0 0 0-3.28-3.131c-4.545-4.007-9.558-7.497-14.662-10.814-5.086-3.373-10.46-6.232-15.588-9.71-5.11-3.447-9.949-7.33-14.283-11.738-8.764-8.742-15.458-19.383-20.278-30.673-4.926-11.283-8.118-23.142-12.731-34.43l.89-.372c7.604 10.229 12.55 21.809 18.439 31.9a108.917 108.917 0 0 0 4.54 7.393c1.517 2.42 3.087 4.765 4.782 6.996 3.453 4.419 7.012 8.65 11.027 12.492 4.075 3.766 8.316 7.395 12.91 10.71a95.912 95.912 0 0 0 3.467 2.38l1.865 1.202 1.891 1.267a270.467 270.467 0 0 1 7.725 5.477c5.156 3.695 9.967 7.997 14.575 12.823 1.152 1.213 2.196 2.566 3.218 3.896.934 1.26 2.118 2.893 2.186 3.156-.006.071-.608-.029-.357.153.202.114.82.254 1.475.335 1.352.167 2.921.245 4.458.337l-.655.14c2.465-.36 4.93-.555 7.411-.756 2.454-.247 4.978-.254 7.468-.354z"/></g><g><path fill="#ea9c34" d="M481.597 444.725c-14.792.963-29.407 3.736-43.887 6.847-14.52 3.015-28.927 6.575-43.238 10.474l-.13-.463a136.332 136.332 0 0 1 20.754-8.778c7.073-2.432 14.311-4.3 21.607-5.942 7.327-1.482 14.725-2.731 22.237-3.272 7.483-.637 15.116-.526 22.628.653z"/></g><g><path fill="#edaa3e" d="M394.265 461.891c-.983-1.663-1.781-3.493-2.076-5.443-.308-1.947-.008-3.984.775-5.788 1.61-3.636 4.542-6.37 7.349-8.998 5.758-5.093 11.898-10.046 15.544-16.912l.284.147c-.813 3.985-2.957 7.624-5.46 10.745-2.49 3.17-5.451 5.82-8.21 8.397-2.808 2.505-5.524 4.94-7.19 7.635-1.705 2.635-1.772 6.127-.731 10.062z"/></g><g><path fill="#bfefe6" d="M384.344 421.534c1.123 3.06 2.148 6.154 3.15 9.25l-.804-.306c3.524-2.042 7.252-3.626 11.163-4.687 3.885-1.074 7.939-1.748 11.984-1.492l-.01.643c-2.002 1.582-3.716 2.763-5.403 3.8-1.674 1.025-3.274 1.98-4.9 2.776a47.49 47.49 0 0 1-4.956 2.133c-1.642.61-3.495 1.243-5.066 1.576l-7.198 1.526-.078-4.31-.038-2.552c-.053-.835.12-1.744.178-2.614.043-.865.308-1.807.453-2.703.236-.929.51-1.868.914-2.853z"/></g><g><path fill="#ea9c34" d="M1.054 29.874c-.482-.087-.64-.003-.496.054.03.188.218.554.403.849.386.619.857 1.222 1.342 1.815a84.957 84.957 0 0 0 2.931 3.568l6.191 6.975 5.975 7.216 2.945 3.692c.2.245.58.776.633.787.383.451.17.124.453.382.382.282.896.599 1.471.895 4.91 2.338 11.094 4.32 17.006 7.333 1.502.756 2.972 1.672 4.43 2.723a25.46 25.46 0 0 1 2.16 1.73l1.759 1.604 6.861 6.316c8.983 8.57 17.982 17.113 26.616 26.047l13.022 13.333c4.18 4.63 8.56 9.021 12.745 13.688l-.304.371c-9.577-7.936-18.783-16.288-27.987-24.637L51.821 79.323l-6.774-6.397a30.8 30.8 0 0 0-7.338-5.512c-5.378-3.048-11.334-4.94-16.781-8.115-1.332-.789-2.653-1.936-3.43-3.295l-2.666-3.814-5.46-7.543-5.447-7.572c-.885-1.279-1.762-2.566-2.574-3.903-.408-.668-.801-1.344-1.124-2.077-.144-.38-.33-.729-.302-1.247-.02-.278.334-.609.612-.557.307-.011.436.073.637.117z"/></g><g><path fill="#ea9c34" d="M24.957 44.162c-.099.624-.86 1.364-1.589 1.617-.764.307-1.558.328-2.328.323-.313-.017-.84-.117-1.108-.16a6.853 6.853 0 0 1-1.006-.216c-.725-.19-1.339-.467-1.985-.748-2.546-1.163-4.511-2.948-6.286-4.638-1.705-1.78-3.24-3.51-4.71-5.267-1.511-1.73-3.003-3.402-4.884-5.282l.107-.3c4.715 1.6 8.325 5.198 11.753 8.577 1.703 1.724 3.416 3.449 5.41 4.792.988.668 2.067 1.237 3.188 1.608 1.098.34 2.434.41 3.211-.532z"/></g><g><path fill="#ea9c34" d="M2.85.211C4.428 4.426 6.3 7.986 8.374 11.263c1.116 1.595 2.12 3.199 3.387 4.627 1.173 1.485 2.412 2.918 3.806 4.223a45.382 45.382 0 0 0 2.08 2.072c.73.698 1.7 1.575 2.425 2.427 1.487 1.785 2.99 3.586 4.095 5.7a22.037 22.037 0 0 1 2.552 6.746c.178 1.227.31 2.486.116 3.776-.162 1.246-.69 2.677-1.804 3.368l-.371-.308c1.14-1.667.435-4.02-.3-5.888-.811-1.943-1.952-3.745-3.23-5.43-2.528-3.455-5.796-6.118-8.983-9.074-3.027-3.097-5.532-6.725-7.246-10.7C3.203 8.828 2.185 4.529 2.37.175z"/></g><g><path fill="#edaa3e" d="M133.03 99.093l-19.69-10.196a586.104 586.104 0 0 0-19.573-10.16c-6.559-3.29-13.07-6.64-19.661-9.796-6.533-3.28-13.208-6.236-19.832-9.252l-1.516-.692-.654-1.42c-2.683-5.81-5.752-11.594-8.778-17.252-1.544-2.82-3.154-5.592-4.877-8.225-1.745-2.688-3.35-5.084-5.509-7.27-4.252-4.448-9.66-8.135-14.966-11.992C12.733 8.858 7.218 5.056 2.465.385L2.755 0c5.256 3.938 10.895 7.329 16.5 10.774 5.585 3.46 11.24 6.928 16.136 11.418 4.927 4.518 8.347 10.29 11.75 15.9 3.339 5.69 6.404 11.52 9.27 17.463l-.237-.23c13.55 5.9 26.659 12.752 39.502 20.026 12.83 7.31 25.412 15.047 37.627 23.348z"/></g><g><path fill="#008581" d="M223.114 152.45c13.405-2.169 27.083-2.226 40.578-1.018 13.51 1.228 26.879 3.773 39.962 7.31 13.093 3.537 25.907 8.073 38.374 13.386 12.52 5.244 24.49 11.642 36.524 17.754 24.019 12.376 48.184 24.617 73.67 33.554 25.44 9.048 52.127 14.312 79.045 16.476l-.073.96c-27.235 1.298-54.98-2.228-81.456-10.282-13.305-3.831-26.113-9.056-38.72-14.43-12.545-5.54-24.718-11.672-36.853-17.706l-17.908-9.397c-5.855-3.033-11.826-5.827-17.812-8.581-11.933-5.627-24.294-10.202-36.79-14.408-25.103-7.971-51.265-13.319-78.393-12.667z"/></g><g><path fill="#bfefe6" d="M226.74 206.99c1.88.609 3.798 1.076 5.654 1.56 1.888.418 3.72.888 5.57 1.176 1.85.268 3.65.581 5.443.687 1.787.128 3.538.092 5.215.027l1.349-.053 1.76 1.627c4.602 4.257 9.87 8.497 15.071 12.311 2.605 1.963 5.345 3.71 8.05 5.485a94.858 94.858 0 0 0 8.346 4.935c2.808 1.59 5.687 3.071 8.659 4.349a91.033 91.033 0 0 0 9.037 3.671c6.164 2.289 12.627 3.882 19.527 5.31l.033.645c-13.771.87-27.64-2.401-39.986-8.494a95.541 95.541 0 0 1-17.461-10.996c-5.402-4.272-10.488-8.936-14.96-14.219l.335.172c-3.939-.236-7.792-1.173-11.468-2.51-3.678-1.35-7.21-3.043-10.526-5.147z"/></g><g><path fill="#bfefe6" d="M151.669 189.093c.002.61.006 1.22.013 1.827-.077 5.347.347 10.072 2.005 14.345 1.736 4.298 4.195 8.733 7.029 13.091 2.716 4.39 5.613 8.951 8.522 13.215 2.797 4.378 5.766 8.559 8.952 12.284 3.11 3.828 6.649 6.94 10.575 9.382 7.913 4.857 18.559 5.303 29.418 4.721l.163.62c-5.196 1.378-10.533 2.391-15.95 2.455-5.4.103-10.897-.882-15.814-3.247-4.935-2.333-9.178-5.888-12.842-9.851-3.681-3.965-6.84-8.357-9.85-12.814a276.279 276.279 0 0 1-8.423-13.75c-2.629-4.679-5.192-9.486-6.657-14.74-1.537-5.271-1.246-10.847-.505-16.14l.705-4.76z"/></g><g><path fill="#ea9c34" d="M107.33 128.91a58.75 58.75 0 0 0 8.651-5.63c2.56-2.078 4.896-4.303 6.892-6.837 2.075-2.467 3.788-5.242 5.436-8.168 1.61-2.953 3.04-6.093 4.699-9.403l.318.05c-1.021 6.993-3.468 13.946-7.963 19.546a31.46 31.46 0 0 1-8.06 6.97c-3.058 1.825-6.4 3.203-9.934 3.79z"/></g><g><path fill="#bfefe6" d="M293.652 288.072c-4.502-3.887-7.907-8.98-10.444-14.393-5.042-10.887-6.65-23.355-4.537-35.19l-.948-.171c-3.578 11.78-3.197 25.102 1.425 37.237 2.302 6.082 5.62 11.97 10.758 16.891.36.345.732.678 1.118 1.007z"/></g><g><path fill="#bfefe6" d="M315.606 304.294c8.263 3.32 15.842 7.45 22.198 12.674 4.093 3.4 7.575 7.324 10.253 11.702 2.658 4.386 4.593 9.178 5.898 14.235l1.113 4.344 4.487 1.56c2.812.978 6.352 2.471 9.502 3.929 3.245 1.498 6.461 3.11 9.635 4.816 6.327 3.448 12.596 7.076 18.712 11.001a249.216 249.216 0 0 1 17.798 12.607c5.749 4.467 11.484 8.999 16.955 13.856l1.661 1.48 1.776.389c.916.199 2.514.698 3.772 1.164a42.475 42.475 0 0 1 3.895 1.682 35.578 35.578 0 0 1 6.808 4.388l4.08 3.346 3.65-1.908c.36-.189 1.35-.568 2.094-.822.81-.276 1.647-.537 2.5-.773 1.7-.47 3.457-.855 5.224-1.153a54.584 54.584 0 0 1 10.79-.713c7.244.196 14.53 1.776 21.323 4.903 6.82 3.068 13.214 7.433 18.95 12.806a830.256 830.256 0 0 1 17.653 16.645l.746-.61a409.454 409.454 0 0 0-15.814-18.402c-5.437-6.028-11.793-11.322-18.977-15.197-7.174-3.889-15.159-6.312-23.307-6.998-7.992-.646-16.097.127-23.778 2.77-2.422-2.222-5.134-4.105-8.007-5.65-2.957-1.573-6.02-2.852-9.28-3.782-10.98-10.258-22.768-19.66-35.31-27.949-6.299-4.163-12.782-8.054-19.49-11.525-6.571-3.396-13.255-6.532-20.32-8.98-1.565-5.778-3.972-11.358-7.291-16.352-3.39-5.148-7.695-9.65-12.534-13.415-7.257-5.652-15.573-9.587-24.158-12.612z"/></g><g><path fill="#edaa3e" d="M584.208 468.407c-2.648-.169-4.863.354-7.453.765-2.567.356-5.34.55-8.062.313-1.373-.097-2.706-.243-4.073-.541-1.406-.3-2.895-.73-4.282-1.274-2.802-1.166-5.31-2.985-7.42-4.886-4.056-4.009-6.91-8.236-9.53-12.625-2.625-4.373-4.994-8.87-6.863-13.858l.372-.305c3.226 3.902 6.357 7.87 9.486 11.845 3.145 3.947 6.192 8.012 9.832 11.431 1.802 1.723 3.805 3.223 6.05 4.283 2.23 1.086 4.674 1.692 7.135 2.198 2.46.492 4.96.736 7.474.873 2.5.149 5.151.252 7.512 1.333z"/></g><g><path fill="#ea9c34" d="M630.19 513.37c.356-1.254-.632-2.275-1.417-3.245-.87-.958-1.882-1.821-2.927-2.656-2.032-1.72-4.208-3.323-6.341-4.977a386.406 386.406 0 0 1-12.866-10.087c-4.167-3.58-8.361-7.183-12.04-11.471-1.844-2.083-3.559-4.597-5.022-6.687-1.473-2.245-3.144-4.259-5.34-5.918l.125-.294c2.557 1.128 4.609 3.074 6.472 5.073 1.82 2.065 3.515 4.184 5.517 6.048 3.92 3.8 8.134 7.292 12.342 10.774 4.181 3.529 8.404 7.015 12.487 10.668 2.038 1.827 4.051 3.696 5.914 5.718.928 1.013 1.824 2.064 2.58 3.226.665 1.11 1.566 2.585.8 3.982z"/></g><g><path fill="#ea9c34" d="M476.897 441.315c6.572 3.012 12.93 6.31 19.472 9.285a1165.58 1165.58 0 0 0 19.302 9.466c6.5 2.974 12.913 6.458 19.257 9.9 6.312 3.553 12.49 7.33 18.601 11.15 12.153 7.819 23.686 15.896 36.356 21.617 6.303 2.908 13.06 5.18 19.839 7.268 3.366 1.112 6.771 2.119 10.214 2.858 1.723.37 3.457.66 5.195.81 1.687.156 3.617.31 5.019-.375l.364.31c-1.713 1.171-3.572 1.076-5.369 1.175-1.81.022-3.615-.129-5.401-.343-3.58-.435-7.112-1.142-10.613-1.962-6.979-1.696-13.913-3.633-20.621-6.261-13.492-5.203-25.458-13.422-37.564-21.038a526.084 526.084 0 0 0-37.07-21.81c-12.585-6.912-25.067-14.008-37.237-21.639z"/></g><g><path fill="#bfefe6" d="M261.294 318.073c-.073-.124-.146-.249-.217-.367-4.276-6.842-9.753-11.202-15.06-15.209-5.353-3.975-10.928-7.194-16.364-10.47-5.444-3.256-10.849-6.398-16.14-9.643-5.266-3.285-10.342-6.771-14.99-10.731-4.552-4.021-8.771-8.574-11.175-14.393l-.92.283c1.754 6.198 5.601 11.57 9.958 16.15 4.392 4.608 9.355 8.592 14.438 12.348 10.173 7.524 21.034 14.04 30.852 21.867 4.838 3.941 9.557 8.244 12.597 13.604.096.178.188.355.278.533z"/></g><g><path fill="#edaa3e" d="M476.603 441.49c.29-2.673 1.604-5.421 4.01-6.862 2.36-1.47 5.163-1.868 7.84-2.004 5.433-.212 10.802.577 16.137 1.252 10.622 1.525 21.366 3.17 32.09 2.105l.029.322c-2.62.89-5.346 1.275-8.085 1.708-2.735.256-5.49.347-8.239.372-5.5.048-10.918-.654-16.238-1.322-5.302-.753-10.551-1.652-15.583-1.917-2.5-.064-4.969.018-7.049.925-2.182.765-3.666 2.884-4.595 5.47z"/></g><g><path fill="#edaa3e" d="M266.085 318.2c5.7-3.697 11.05-7.963 15.745-12.868 4.74-4.845 8.817-10.401 11.59-16.612l.222.096c-1.28 6.942-5.272 13.144-10.084 18.188-4.906 4.997-10.727 9.09-17.343 11.4z"/></g><g><path fill="#ea9c34" d="M280.295 343.003c1.806-1.77 3.693-3.367 5.44-5.131a125.626 125.626 0 0 0 5.336-5.1c3.472-3.46 6.95-6.887 10.032-10.653 3.336-3.555 6.225-7.466 9.1-11.402a87.15 87.15 0 0 0 4.117-6.087c1.417-2.035 2.615-4.187 3.973-6.314l.222.089c-3.665 9.26-9.082 17.778-15.598 25.296-6.587 7.468-14.21 13.995-22.488 19.498z"/></g><g><path fill="#dcc6b0" d="M141.705 167.335a81.777 81.777 0 0 0 4.66 2.041c2.848 1.11 5.808 2.15 9.085 2.37 1.622.118 3.331.062 5.01-.428a9.238 9.238 0 0 0 2.46-1.135l.94-.74.824-.731c2.225-1.918 4.365-3.951 6.508-5.978l-.286-.388-7.087 5.191c-2.21 2.06-5.155 2.468-8.016 1.958-5.708-1.046-10.908-3.99-15.95-6.867a250.87 250.87 0 0 1-1.666-.985z"/></g><g><path fill="#a86a3b" d="M137.697 123.286l-2.036-4.23-1.817-4.332.22-.098c2.109.768 3.09 2.04 3.793 3.442.588 1.45.893 3.027.06 5.119z"/></g><g><path fill="#1c0b06" d="M163.952 105.514c1.927-1.803 4.644-2.05 6.89-1.647 2.376.381 3.994 2.274 5.557 3.731a26.48 26.48 0 0 1 4.103 4.862c1.103 1.785 2.131 3.557 2.831 5.517l-.541.348c-1.499-1.31-2.997-2.577-4.61-3.643a41.763 41.763 0 0 0-4.775-2.907c-1.641-.828-3.482-.888-4.799-1.883a27.783 27.783 0 0 1-2.133-1.578c-.76-.59-1.491-1.226-2.537-2.155z"/></g><g><path fill="#049b93" d="M255.11 321.534c1.79-1.121 3.396-2.51 5.375-3.425 2.012-.818 4.366-.727 6.326.228a7.879 7.879 0 0 1 2.567 1.99c.694.871 1.218 1.747 1.839 2.616l3.569 5.24 3.505 5.284c1.108 1.734 2.605 3.478 2.807 5.727.285 2.158-.384 4.424-1.815 6.062-.693.84-1.623 1.456-2.5 2.015l-2.648 1.743-.178-.267c1.305-1.697 3.342-3.058 4.036-4.581.9-1.464 1.093-3.213.636-4.649a4.282 4.282 0 0 0-.434-1.014c-.212-.398-.188-.38-.568-.942l-1.84-2.416-3.664-5.173-3.42-5.335-1.482-2.51a6.535 6.535 0 0 0-1.527-1.517 6.234 6.234 0 0 0-4.584-.92c-1.733.271-3.742 1.542-5.822 2.105z"/></g><g><path fill="#a86a3b" d="M171.144 162.669l-7.056 5.236c-1.118.882-2.42 1.803-3.92 2.06-1.47.315-2.983.258-4.444.037-5.869-1.042-11.094-3.98-16.184-6.835-5.085-2.93-9.996-6.135-15.03-9.1-2.541-1.436-5.056-3.107-7.064-5.306-1.946-2.152-3.627-5.082-2.895-8.202l-.011.036c.37-2.133 1.839-3.996 3.726-4.985 1.871-1.03 3.967-1.463 6.019-1.788 1.023-.171 2.081-.257 3.04-.525.892-.312 1.487-1.271 2.017-2.116 1.034-1.777 1.805-3.72 2.474-5.67l.308.099c-.383 2.083-.909 4.13-1.843 6.127-.54.959-.874 2.116-2.515 2.91-1.264.459-2.198.632-3.208.896-1.963.439-3.839 1.012-5.238 1.949-1.42.941-2.11 2.13-2.257 3.58l-.035.337-.057.004c.047-.004.004.696.135 1.099.075.474.235.972.454 1.46.44.99 1.145 1.958 2.005 2.852 1.786 1.827 3.914 3.2 6.482 4.567 5.325 2.817 9.996 6.306 14.955 9.258a114.102 114.102 0 0 0 7.453 4.18c2.474 1.319 5.023 2.515 7.592 3.11 1.277.291 2.557.429 3.74.272.624-.1 1.111-.214 1.636-.39l.903-.455.952-.56c2.542-1.489 5.05-3.02 7.675-4.395z"/></g><g><path fill="#a86a3b" d="M185.713 141.939c1.417.467 2.855 1.061 4.076 1.998 1.214.91 2.21 2.326 2.257 3.934.017 3.265-2.421 5.762-4.824 7.493-2.522 1.646-5.578 2.894-8.69 2.31-1.537-.31-2.915-1.405-3.515-2.847-.643-1.426-.727-2.993-.652-4.497l.32.013c.527 1.499 1.042 2.902 1.868 3.766.776.906 1.603 1.072 2.51 1.098 1.889-.05 4.368-1.07 6.342-2.49 2.044-1.32 3.779-3.281 4.113-4.745.18-.705.014-1.671-.784-2.696-.754-1.067-1.89-1.981-3.128-3.034z"/></g><g><path fill="#bfefe6" d="M208.35 172.422c2.777-6.029 7.59-11.528 14.085-13.765 6.445-2.321 13.605-1.368 19.788 1.154 6.244 2.55 11.785 6.613 16.402 11.484 4.609 4.883 8.36 10.628 10.748 16.929l-.433-.38c5.918 1.808 11.355 4.553 16.642 7.572 5.258 3.057 10.271 6.514 15.048 10.261 9.564 7.5 18.168 16.154 25.907 25.48l-.492.413c-4.771-3.884-9.216-7.935-14.06-11.507-4.704-3.707-9.52-7.18-14.374-10.503-4.911-3.226-9.857-6.333-14.976-9.006a196.013 196.013 0 0 0-7.734-3.744 68.33 68.33 0 0 0-3.9-1.604c-1.233-.47-2.73-.97-3.645-1.206l-2.788-.717-1.137-2.784c-2.2-5.412-5.23-10.627-9.278-15.004-3.903-4.498-8.672-8.256-13.902-10.881-2.613-1.32-5.376-2.265-8.186-2.74-2.8-.547-5.682-.566-8.47.087-2.814.55-5.586 1.8-8.05 3.695a25.024 25.024 0 0 0-3.464 3.24 32.958 32.958 0 0 0-3.158 3.81z"/></g><g><path fill="#9e4725" d="M160.806 115.016l-7.102 1.815c.914 1.983 3.474 3.843 4.461 4.56l4.348-1.15z"/></g><g><g><g/><g clip-path="url(#t4osa)"><path fill="#602712" d="M132.36 121.391s3.271 11.38 9.206 11.88"/></g></g></g><g><path fill="#bfefe6" d="M295.8 386.094c.242.26.486.515.732.77a123.979 123.979 0 0 0 14.961 13.374c10.623 8.11 22.219 14.945 34.536 19.948 13.068 5.345 26.736 8.815 40.526 10.602l-2.927-8.377c-11.684-2.28-23.11-5.726-34.02-10.5-11.505-5.004-22.392-11.444-32.25-19.182a150.058 150.058 0 0 1-14.008-12.521c-4.468-4.41-8.257-9.382-12.442-14.185a151.622 151.622 0 0 0-3.655-4.014z"/></g><g><g><g/><g clip-path="url(#t4osb)"><g><g><g><path fill="#fbae39" d="M173.83 219.745l-9.933 2.145 2.19 30.782 7.824.427z"/></g><g><path fill="#fbae39" d="M197.043 252.616l-8.547.461-11.042-16.22c-1.256-1.585-1.948-3.412-1.922-5.146l.22-9.878z"/></g></g></g></g></g></g><g><g><path fill="#efc29a" d="M303.563 354.117l-34.466-68.875 136.146-68.13 34.466 68.875z"/></g><g><path fill="#e0b18c" d="M297.853 356.974L263.387 288.1l5.71-2.857 34.466 68.875z"/></g><g><path fill="#ddbda2" d="M334.266 272.409l-7.916-15.817 21.64-10.83 7.916 15.818z"/></g><g><path fill="#ddbda2" d="M360.884 325.601l-7.916-15.817 21.64-10.829 7.916 15.817z"/></g></g><g><g><path fill="#fbae39" d="M324.731 229.756c-.178-5.399-1.204-9.344-1.204-9.344-.862-8.278-10.262-20.888 19.305 7.238 14.422 13.718 46.309 54.647 53.522 61.732 7.247 7.116 14.109 14.714 17.856 23.175 5.59 12.568 5.966 19.564-13.927 15.078-12.47-2.82-12.322-4.126-18.788-26.738-.54-1.925-1.749-4.08-3.708-4.858-36.275-14.53-62.326-42.235-62.326-42.235a21.644 21.644 0 0 0 4.816-5.414c3.837-5.952 4.613-13.07 4.454-18.634z"/></g><g><path fill="#ea9c34" d="M417.345 326.283c-.645 1.33-2.066 2.198-3.449 2.552-1.405.37-2.849.438-4.27.408-2.85-.087-5.653-.57-8.423-1.154-2.748-.604-5.547-1.166-8.186-2.35-2.71-1.15-4.66-3.612-5.815-6.197-2.317-5.235-3.632-10.73-5.26-16.13-.418-1.336-.708-2.776-1.29-3.948-.592-1.192-1.441-2.31-2.591-2.863-2.532-1.062-5.206-2.16-7.752-3.353-10.244-4.81-19.951-10.706-29.114-17.305-9.145-6.633-17.847-13.889-25.738-21.99l.351-.332c4.565 3.388 8.99 6.839 13.686 9.935 4.578 3.229 9.23 6.303 13.906 9.31 9.394 5.914 18.959 11.467 28.94 16.02l3.734 1.72 1.857.811.977.41c.372.169.498.187 1.248.574 2.518 1.302 3.79 3.274 4.67 5.055 1.003 2.285 1.07 3.248 1.483 4.714 1.358 5.42 2.677 11.076 4.335 15.761.93 2.345 1.854 3.739 3.766 4.863 1.968 1.152 4.685 1.974 7.328 2.808 2.62.869 5.267 1.649 7.93 2.045 1.33.186 2.66.268 3.935.11 1.28-.145 2.49-.558 3.323-1.721z"/></g><g><path fill="#edaa3e" d="M321.841 210.153c1.04-.265 1.72.371 2.422.722.689.425 1.34.899 1.975 1.38a83.94 83.94 0 0 1 3.718 3.031c2.417 2.075 4.776 4.223 7.12 6.385 4.691 4.304 9.352 8.693 13.614 13.443 8.61 9.423 16.778 19.213 24.959 28.982l12.173 14.742c2.042 2.438 4.088 4.88 6.187 7.263 2.056 2.418 4.402 4.552 6.603 6.885 4.4 4.619 8.58 9.525 11.797 15.08 1.612 2.782 2.89 5.728 3.996 8.728.544 1.504 1.03 3.038 1.32 4.63.25 1.58.38 3.31-.371 4.84l-.434-.212c.477-1.458.145-2.998-.294-4.43-.437-1.46-1.034-2.885-1.708-4.28-1.382-2.823-2.92-5.556-4.706-7.998-3.428-5.053-7.712-9.541-12.298-13.764l-3.5-3.141c-1.247-1.085-2.456-2.382-3.554-3.54-2.239-2.384-4.372-4.765-6.505-7.151-4.22-4.822-8.281-9.732-12.411-14.573l-24.023-29.527c-1.98-2.443-4.005-4.881-6.068-7.167l-6.505-6.943c-2.119-2.38-4.252-4.746-6.437-7.038a87.55 87.55 0 0 0-3.348-3.359 27.843 27.843 0 0 0-1.723-1.587c-.573-.452-1.271-1.037-1.825-.958z"/></g><g><path fill="#ea9c34" d="M315.523 253.667c4.7-3.797 7.475-9.496 8.472-15.362a47.252 47.252 0 0 0-.54-17.837l-.004-.025v-.011c-.183-1.696-.632-3.366-1.099-5.03-.23-.833-.476-1.666-.673-2.518a10.53 10.53 0 0 1-.232-1.3c-.014-.417-.096-.988.405-1.354l.159.29c-.232.558.327 1.395.654 2.125l1.195 2.321c.776 1.592 1.545 3.248 1.955 5.222l-.058-.324c1.117 3.122 1.685 6.177 1.916 9.384.236 3.183.01 6.426-.669 9.606-.742 3.17-1.993 6.28-3.895 8.964-1.917 2.656-4.45 4.886-7.373 6.092z"/></g></g></g></g></svg>