<svg xmlns="http://www.w3.org/2000/svg" width="304" height="598" viewBox="0 0 304 598"><g><g><g><g><g><path fill="#c17f49" d="M62.166 78.506l-8.29-3.894a58.667 58.667 0 0 1 2.826-6.866c7.842-1.86 36.784 21.898 40.612-2.947 1.553-10.136-8.606-18.213-31.062-15.386C67.43 34.41 77.57 30.167 77.57 30.167c5.95-4.3 12.7-4.835 19.835-3.92 1.09.15 2.212.324 3.33.53 20.422 4.895 4.935 35.81 4.363 37.02.206 0 1.946-.062 4.478-1.736 12.614-5.25 11.318 10.076 5.747 14.969 0 0 1.651 4.803 3.774 9.315l-7.338.143-2.2 9.653c-2.003 8.663-21.014 10.611-34.072 12.731-1.505.235-2.915.47-4.214.733-12.732 2.54-15.089-3.562-15.089-3.562-3.39-5.9 3.77-11.444 4.864-13.447zm48.188-13.089a6.24 6.24 0 0 1 .26 3.596 7.132 7.132 0 0 1-1.88 3.476s2.827 1.625 4.744-2.031c1.917-3.656-.68-6.131-3.124-5.041z"/></g><g><path fill="#fbae39" d="M7.319 211.247a79.806 79.806 0 0 0-6.81-2.092s0 35.457 42.088 66.258c0 0-.572 5.098 4.36 11.73a33.362 33.362 0 0 0 4.512 4.95c2.034-5.365 3.771-9.141 4.5-11.113a19.904 19.904 0 0 0 1.088-5.865c.109-2.013.07-4.031-.115-6.04l-5.481-3.776c-7.754-31.387-20.276-39.724-20.276-39.724a44.403 44.403 0 0 0-5.041-4.306 73.402 73.402 0 0 0-18.825-10.022z"/></g><g><path fill="#fbae39" d="M50.969 293.451c5.865 2.418 11.73 2.681 12.227 2.713a14.173 14.173 0 0 1-.286-3.628l.573-11.375a11.596 11.596 0 0 1 1.298-4.95 20.219 20.219 0 0 1-7.698-1.096 19.903 19.903 0 0 1-1.088 5.865c-.738 1.974-2.474 5.748-4.509 11.11-.194.446-.38.875-.517 1.361z"/></g><g><path fill="#008581" d="M78.82 297.457c.504-1.31.794-2.692.859-4.094l.557-11.35c.118-2.06-.234-3.977-.912-5.336-.621-1.353-1.565-2.208-2.627-2.268l-8.957-.444c-1.122-.06-2.209.801-2.973 2.246a11.597 11.597 0 0 0-1.299 4.95l-.572 11.375c-.06 1.216.035 2.436.286 3.628.572 2.326 1.768 3.916 3.245 3.976l8.957.44c1.37.09 2.64-1.18 3.436-3.123z"/></g><g><path fill="#cefaf2" d="M28.98 157.724S5.49 176.44 7.318 211.247a73.406 73.406 0 0 1 18.833 10.013c15.945-7.28 18.242-17.623 18.568-21.34a2.538 2.538 0 0 0 0-.443c0-.323 0-.644.026-.939.237-6.07.944-9.375.944-9.375-18.596-18.153-8.19-49.132 18.628-65.957-22.96-2.026-32.243 19.166-35.339 34.518z"/></g><g><path fill="#fbae39" d="M10.48 573.235c-10.817 4.655-12.56 8.752 2.415 10.491 19.952 2.33 34.806-3.719 45.947-2.798 11.14.922 19.955.41 16.828-14.877-3.433-16.857-.738-26.035-.738-26.035 5.659-13.678 8.869-25.354 10.405-35.224 0 0-9.155-8.222-18.007-24.341-8.851-16.119-16.061-9.727-16.447 6.334.886 12.142 3.805 25.08 5.1 43.178 1.946 27.056-13.38 32.16-27.29 37.044-5.284 1.834-14.628 4.666-18.213 6.228z"/></g><g><path fill="#dd8c2c" d="M46.958 287.14c-16.531-7.307-6.69 1.774 2.446 10.643.529-1.534 1.03-2.978 1.565-4.332.146-.475.323-.915.5-1.362a33.36 33.36 0 0 1-4.511-4.949z"/></g><g><path fill="#cefaf2" d="M144.746 208.329c2.98 7.636 8.08 15.83 16.656 23.11 12.016-.858 21.604.264 28.53 1.826 3.093-11.876 2.575-23.194.675-32.615-3.147-15.736-9.988-26.407-9.988-26.407 4.36-17.655-1.533-33.76-15.091-44.345-34.75-4.835-73.596 1.353-90.602 4.978 0 0-4.477-3.356-10.608-11.639-26.819 16.826-37.224 47.805-18.628 65.957 0 0-.707 3.305-.944 9.376.016.313.007.627-.026.938a2.55 2.55 0 0 1 0 .444c-.286 10.703.97 28.853 9.155 52.021 0 0 2.415 8.637 3.064 17.126.186 2.007.224 4.026.115 6.04a20.222 20.222 0 0 0 7.699 1.095c.764-1.445 1.85-2.306 2.972-2.246l8.958.444c1.061.06 2.003.915 2.626 2.268 18.185.71 29.56-1.118 29.56-1.118 2.77-3.39 6.486-7.424 10.586-11.639 1.479-22.424 12.594-28.197 25.29-55.614z"/></g><g><path fill="#cefaf2" d="M54.09 458.261c-3.388 10.3-3.888 19.169-3.213 28.498.386-16.064 7.604-22.427 16.448-6.334 8.843 16.093 18.007 24.341 18.007 24.341 5.187-33.239-8.223-46.27-8.223-46.27 2.947-11.144-1.093-28.236-1.093-28.236 3.72-7.807 11.762-25.58 12.703-53.643 11.968 50.903 23.729 44.305 23.2 52.851-.53 8.546-2.893 19.74 7.453 28.115v.026c-2.796 7.578-3.565 15.212-3.125 22.816 1.417-17.209 12.383-8.297 24.757 7.438 12.373 15.736 15.063 21.172 15.063 21.172.146-3.127.286-6.486.412-10.174.649-21.54-4.186-31.322-8.429-38.16-3.095-5.072-5.865-8.548-5.865-13.973 0-17.094-2.68-24.702-2.68-24.702 13.76-43.292 2.474-87.617-7.928-118.507-7.104.24-14.325-.206-15.945-.526-1.619-.32-5.13-2.037-8.076-4.958l-.032.034s-12.173.086-28.704-.62c-.795 1.942-2.065 3.212-3.433 3.123l-8.958-.44c-1.476-.06-2.683-1.651-3.244-3.977-.5-.032-6.363-.286-12.228-2.712-.535 1.353-1.036 2.798-1.565 4.331-7.338 21.363-16.021 59.944-1.857 108.194 6.412 21.878-9.447 24.147 6.555 52.293z"/></g><g><path fill="#008581" d="M70.063 63.649s-2.65-3.433 1.917-6.927c6.897 2.39 10.079 7.282 10.079 7.282s-2.209 2.12-11.996-.355zm-13.35 4.097c7.842-1.86 36.784 21.898 40.612-2.947 1.56-10.136-8.606-18.213-31.056-15.386a35.382 35.382 0 0 0-.12 3.124 89.233 89.233 0 0 0-9.436 15.209z"/></g><g><path fill="#eae0a4" d="M71.991 56.722c-4.578 3.505-1.917 6.927-1.917 6.927 9.788 2.475 11.996.355 11.996.355s-3.193-4.893-10.079-7.282z"/></g><g><path fill="#008581" d="M64.318 123.214c6.13 8.283 10.608 11.639 10.608 11.639 17.006-3.625 55.852-9.813 90.602-4.978a53.388 53.388 0 0 0-12.734-7.459c-9.665-4.065-16.09-6.483-20.245-9.441-15.237 11.581-34.987 16.534-55.44 13.115a28.957 28.957 0 0 1-2.063-8.457 71.735 71.735 0 0 0-10.728 5.581z"/></g><g><path fill="#1c0b06" d="M74.986 1.52c-22.427 6.426 2.595 28.647 2.595 28.647 5.951-4.292 12.7-4.835 19.835-3.92 1.124.076 2.239.253 3.33.53 10.872 1.945 22.43 6.368 33.128 5.307.944-.092 1.86-.206 2.71-.286 16.21-2.118 16.21-7.573 16.21-7.573s-11.464 3.39-21.956-5.127C120.348 10.58 97.385-4.903 74.986 1.52z"/></g><g><path fill="#c17f49" d="M75.047 117.644a28.961 28.961 0 0 0 2.062 8.457c20.453 3.42 40.203-1.533 55.44-13.114-5.435-3.834-7.015-8.638-7.015-19.246-1.74 1.473-4.291-2.833-6.425-7.396l-7.339.143-2.211 9.642c-2.003 8.663-21.014 10.611-34.072 12.731a31.029 31.029 0 0 0-.44 8.783z"/></g><g><path fill="#fbae39" d="M79.676 293.363a13.078 13.078 0 0 1-.859 4.094c16.531.706 28.704.62 28.704.62l.032-.034c-3.922-3.8-6.81-9.633-2.712-16.85a41.868 41.868 0 0 1 4.037-5.634s-11.376 1.828-29.56 1.118c.678 1.36 1.03 3.276.913 5.336z"/></g><g><path fill="#1c0b06" d="M105.11 63.8c.206 0 1.945-.062 4.477-1.736 12.614-5.253 11.327 10.073 5.748 14.966 0 0 1.65 4.803 3.773 9.315 2.123 4.563 4.687 8.87 6.426 7.396 11.02-9.442 19.684-35.691 19.684-35.691.832-19.04-8.635-26.264-8.635-26.264-.858.092-1.765.206-2.71.286-10.696 1.062-22.252-3.361-33.126-5.307 20.421 4.907 4.95 35.822 4.363 37.036z"/></g><g><path fill="#a86a3b" d="M108.735 72.49s2.826 1.653 4.743-2.032c1.917-3.685-.68-6.131-3.124-5.041a6.24 6.24 0 0 1 .266 3.596 7.133 7.133 0 0 1-1.885 3.476z"/></g><g><path fill="#fbae39" d="M122.439 576.268c-14.237 15.3-29.677 20.25-3.067 20.25 19.188 0 19.217-6.78 33.422-11.819 8.903-3.181-4.363-24.461-2.504-34.363 1.651-8.786 4.478-16.714 5.777-41.292 0 0-2.681-5.365-15.063-21.172-12.383-15.807-23.34-24.661-24.756-7.438 1.27 22.807 13.323 45.36 14.018 65.339.63 17.938 1.25 20.742-7.827 30.495z"/></g><g><path fill="#337772" d="M144.746 208.329c-12.697 27.414-23.812 33.187-25.283 55.591 14.35-14.71 33.33-31.57 33.33-31.57 2.979-.412 5.868-.707 8.61-.91-8.578-7.281-13.676-15.475-16.657-23.111z"/></g><g><path fill="#337772" d="M138.68 277.624s-1.622 6.69-7.252 15.587c0 0 10.963.798 14.528 4.48 4.04 4.154-5.064 5.57-14.38 5.837 10.403 30.898 21.69 75.215 7.928 118.507 0 0 2.681 7.608 2.681 24.702 0 5.436 2.77 8.9 5.865 13.973 16.35 8.397 33.803 12.637 48.66-13.973s30.947-30.326 55.08-29.708c24.132.617 17.331-22.888 29.562-40.472-4.715-4.8-11.08-10.162-19.655-15.818-32.804-21.698-65.665-85-73.093-109.67-10.64 8.457-27.202 19.154-49.924 26.555z"/></g><g><path fill="#008581" d="M188.605 251.037v.032c7.438 24.67 40.288 87.972 73.092 109.67 8.583 5.656 14.94 11.017 19.655 15.818 13.446 13.653 13.764 23.054 13.764 23.054s21.042-27.15-4.95-53.377c-25.992-26.227-60.034-64.75-99.562-145.596 1.889 9.442 2.418 20.751-.675 32.616 8.489 1.86 12.966 4.29 12.966 4.29s-4.712 5.86-14.29 13.493z"/></g><g><path fill="#bfefe6" d="M85.624 504.835c1.33-7.965 1.902-16.162.84-24.255a55.087 55.087 0 0 0-2.829-11.9c-1.447-3.844-3.227-7.552-6.11-10.748l.214.775c1.233-4.752 1.282-9.627 1.018-14.41a89.449 89.449 0 0 0-2.074-14.22l-.057.55a123.743 123.743 0 0 0 9.124-26.37c2.08-9.08 3.064-18.384 3.258-27.668l-.884-.032-4.24 13.412-2.134 6.495-2.269 6.351c-1.43 4.229-3.276 8.26-4.91 12.302-1.699 4.046-3.747 7.822-5.678 11.828l-1.102 2.289.555 2.806c.38 1.897.744 4.226 1.002 6.349l.675 6.457c.191 2.067.267 4.144.226 6.22a47.649 47.649 0 0 1-.515 5.519l-.59 4.371 2.612 2.904c-.214-.226.026 0 .075.029l.323.314c.223.235.458.501.695.787.494.6.955 1.227 1.382 1.877.916 1.333 1.654 2.86 2.475 4.38 1.637 3.073 2.76 6.535 3.84 10.11 1.078 3.577 1.796 7.376 2.497 11.273.612 3.9 1.196 7.916 1.717 12.065z"/></g><g><path fill="#ea9c34" d="M75.467 576.528c1.285-2.915 1.044-6.174.587-9.195-.573-3.036-1.116-6.028-1.43-9.072a71.369 71.369 0 0 1-.444-9.155c.068-3.03.303-6.123 1.024-9.018l-.017.049c4.629-11.373 8.368-23.174 10.216-35.348l-.435-.066c-1.296 2.89-2.371 5.762-3.559 8.583L78 521.77c-2.314 5.57-4.532 11.158-6.906 16.685l-.103.243-.043.175a31.931 31.931 0 0 0-.798 5.261 45.394 45.394 0 0 0-.152 4.935c.169 3.253.435 6.46 1.144 9.593a64.571 64.571 0 0 0 2.575 9.058c.939 2.781 1.717 5.573 1.32 8.635z"/></g><g><path fill="#ea9c34" d="M1.86 579.575c-.029.858.638 1.548 1.293 2.003.683.458 1.418.835 2.189 1.121a33.54 33.54 0 0 0 4.686 1.38 78.89 78.89 0 0 0 9.607 1.278c6.48.464 12.986-.114 19.346-1.007 6.36-.893 12.62-2.309 18.774-2.329 3.13.089 6.451.264 9.71-.229a13.559 13.559 0 0 0 4.7-1.616 6.867 6.867 0 0 0 3.082-3.736c-1.628 2.91-4.89 3.87-7.937 3.913-3.115.18-6.2-.223-9.44-.6-6.667-.507-13.024.858-19.312 1.679a137.264 137.264 0 0 1-18.863 1.668c-3.161.044-6.323-.1-9.467-.432a31.132 31.132 0 0 1-4.666-.698 10.62 10.62 0 0 1-2.203-.761c-.655-.332-1.362-.81-1.5-1.634z"/></g><g><path fill="#edaa3e" d="M50.394 487.684c.22 2.895.549 5.77.915 8.637 1.67 12.702 3.77 25.388 4.1 38.114.028 6.294-1.042 12.788-4.48 18.09-3.39 5.35-9.027 8.811-14.878 11.206-5.899 2.412-12.016 4.349-18.084 6.374-3.027 1.045-6.105 2.003-9.029 3.376a35.034 35.034 0 0 0-4.272 2.29 12.71 12.71 0 0 0-1.936 1.518c-.573.573-1.173 1.31-1.168 2.29l.59-.027c.337-1.304 1.922-2.02 3.255-2.649 1.405-.647 2.851-1.2 4.33-1.656 2.932-.956 6.062-1.534 9.2-2.206 6.266-1.43 12.517-2.835 18.883-5.047 6.354-2.071 13.26-5.96 17.738-12.46 4.44-6.517 5.636-14.193 5.722-21.108-.026-3.599-.398-6.832-.716-10.065-.317-3.233-.698-6.488-1.207-9.704-1.073-6.412-2.169-12.751-3.459-18.954-1.285-6.506-2.332-12.95-2.695-19.455z"/></g><g><path fill="#dd8c2c" d="M51.46 291.952c-1.015-1.316-1.859-2.672-2.726-4.005a26.701 26.701 0 0 1-2.134-4.137 25.773 25.773 0 0 1-1.265-4.292 13.647 13.647 0 0 1-.26-2.082 6.39 6.39 0 0 1 .097-1.717l.45-1.144-1.557-1.35a195.144 195.144 0 0 1-14.26-13.636 110.06 110.06 0 0 1-6.454-7.324 101.351 101.351 0 0 1-5.933-7.705 114.35 114.35 0 0 1-9.953-16.75c-2.861-5.877-5.373-12.037-6.884-18.637H.135c.286 6.803 2.057 13.418 4.426 19.74a90.266 90.266 0 0 0 9.338 17.996c7.476 11.332 17.452 20.805 28.36 28.761l-.12-.286a14.219 14.219 0 0 0 .756 4.901 22.119 22.119 0 0 0 2.023 4.475 32.289 32.289 0 0 0 6.242 7.504z"/></g><g><path fill="#dd8c2c" d="M56.78 275.081a22.32 22.32 0 0 1-.802 4.744c-.46 1.516-1.204 2.98-1.828 4.471-1.216 3.01-2.395 6.031-3.482 9.084l.286.106a15.99 15.99 0 0 0 3.565-3.803 24.574 24.574 0 0 0 2.355-4.242c.572-1.56 1.144-2.93 1.347-4.978a9.226 9.226 0 0 0-1.144-5.365z"/></g><g><path fill="#e1ab7b" d="M48.265 253.827"/></g><g><path fill="#471b00" d="M70.512 49.232c1.325-.017 2.263-.048 3.196-.12.932-.071 1.77-.126 2.575-.249 1.622-.134 3.052-1.216 4.803-1.628 1.782-.4 3.59-.677 5.41-.83a43.163 43.163 0 0 1 5.722-.154l.169-.572c-1.765-.978-3.656-1.616-5.605-2.209a26.015 26.015 0 0 0-6.114-.94c-2.074-.067-4.446-.399-6.434.797-1.914 1.099-3.76 2.956-4.108 5.436z"/></g><g><path fill="#cc8a58" d="M75.424 108.166a28.169 28.169 0 0 0 1.43 17.978l.207-.08c.226-3.353-.043-6.091-.21-8.958-.142-1.413-.228-2.838-.428-4.291a42.201 42.201 0 0 0-.784-4.578z"/></g><g><path fill="#edaa3e" d="M115.741 480.96c.274 4.49.888 8.95 1.837 13.347 2.492 12.182 6.76 23.872 9.601 35.868 1.48 6.008 2.464 12.05 2.532 18.236.118 3.095.266 6.185.25 9.258-.018 3.072-.233 6.15-1.343 8.963-1.11 2.812-3 5.264-5.01 7.587-2.008 2.324-4.182 4.518-6.434 6.63-2.251 2.11-4.577 4.134-6.92 6.165-1.168 1.021-2.335 2.037-3.433 3.147a15.076 15.076 0 0 0-1.577 1.77c-.435.619-.995 1.431-.752 2.358l.572-.111c-.057-.655.458-1.165.961-1.668a15.32 15.32 0 0 1 1.745-1.374 84.388 84.388 0 0 1 3.771-2.629c2.575-1.716 5.196-3.479 7.77-5.367a92.078 92.078 0 0 0 7.299-6.294c2.317-2.255 4.686-4.935 6.337-8.512 1.65-3.576 2.051-7.358 2.183-10.602.149-3.299.129-6.423.14-9.519a70.269 70.269 0 0 0-.595-9.796c-.423-3.281-1.041-6.483-1.757-9.613-3.124-12.462-7.581-23.892-10.797-35.453-1.55-5.782-2.878-11.59-3.384-17.52a44.176 44.176 0 0 1-.287-3.13z"/></g><g><path fill="#ea9c34" d="M155.494 581.498a4.447 4.447 0 0 1-2.154 2.431c-.93.401-2.171.618-3.273.99a41.66 41.66 0 0 0-6.517 2.778c-4.197 2.23-7.876 4.818-12.128 5.943-4.22 1.258-8.766 1.536-13.346 1.739-2.29.086-4.604.195-6.89.192a29.569 29.569 0 0 1-3.433-.112c-1.067-.189-2.372-.223-2.998-1.236.358 1.225 1.78 1.637 2.835 2.003 1.139.332 2.297.595 3.468.787 2.318.341 4.651.566 6.992.672 4.652.257 9.484.12 14.182-1.216a29.572 29.572 0 0 0 6.634-2.955c2.04-1.259 3.931-2.575 5.825-3.837a64.995 64.995 0 0 1 5.905-3.433c1.005-.572 2.043-.924 3.147-1.648a4.358 4.358 0 0 0 1.751-3.098z"/></g><g><path fill="#ea9c34" d="M155.695 509.043c-1.894 6.046-3.165 12.048-4.452 17.973a852.66 852.66 0 0 1-4.005 17.65l-.862 4.643-.117.735-.066.595a16.43 16.43 0 0 0-.077 1.642c0 .924.075 1.847.226 2.758a45.623 45.623 0 0 0 2.77 9.424c1.11 2.924 2.417 5.69 3.573 8.477 1.156 2.787 2.409 5.476 2.595 8.518l.429.111c.704-3.127-.086-6.231-.761-9.206-.75-2.987-1.668-5.926-2.506-8.87-.839-2.943-1.634-5.904-1.972-8.914-.46-3.007.464-5.931 1.1-8.952a173.102 173.102 0 0 0 3.146-18.168c.715-6.105 1.145-12.239 1.43-18.376z"/></g><g><path fill="#bfefe6" d="M131.007 303.68c1.43 10.13 3.196 20.026 4.478 29.894 1.281 9.867 2.351 19.643 2.652 29.373.572 9.705.131 19.352-.698 28.845a136.825 136.825 0 0 1-2.154 14.087 124.79 124.79 0 0 1-3.314 13.807l-.706 2.343.778 2.575.22.727.286 1.11c.184.767.355 1.574.507 2.4l.835 5.059c.51 3.433.841 6.998 1.044 10.585l.146 2.844c.068 1.407.277 2.804.624 4.169.658 2.709 1.931 5.035 3.116 6.897 2.437 3.702 4.577 6.235 6.322 9.13 1.746 2.895 3.273 5.805 4.426 9.08a82.208 82.208 0 0 1 2.824 10.237c1.474 7.087 2.069 14.628 3.081 22.201l.884.049c.372-7.51.859-15.049.22-22.602-.637-7.553-2.234-15.1-5.738-21.895-1.717-3.407-3.917-6.52-5.742-9.727a18.25 18.25 0 0 1-2.023-5.024c-.426-1.717-.306-3.548-.335-5.465-.154-7.561-.529-15.108-2.612-22.601v.52a128.844 128.844 0 0 0 5.857-29.754c.789-10.09.658-20.233-.392-30.3-2.003-20.139-7.221-39.785-13.756-58.836z"/></g><g><path fill="#bfefe6" d="M144.188 208.154c-5.01 3.336-8.683 6.992-12.197 10.712a81.817 81.817 0 0 0-9.303 12.147c-2.747 4.46-5.25 9.776-6.24 15.656-.919 5.876-.37 11.878 2.426 17.231l.884.057a57.82 57.82 0 0 1 3.316-14.83c1.802-4.744 4.403-9.136 7.152-13.47 2.66-4.378 5.405-8.755 7.925-13.26 2.56-4.482 4.848-9.112 6.852-13.868z"/></g><g><path fill="#dd8c2c" d="M56.756 275.227l.098-.286a19.939 19.939 0 0 0 7.747 1.07h.023l1.342.034a6.258 6.258 0 0 0-.859 1.791c-.183-.023-.366-.04-.546-.074h.18a16.065 16.065 0 0 1-4.217-.818 13.556 13.556 0 0 1-3.768-1.717z"/></g><g><path fill="#dd8c2c" d="M63.9 296.398c-4.477-.286-8.969-1.127-13.132-2.86l.086-.21c2.343.504 4.635.967 6.978 1.119a45.14 45.14 0 0 0 3.46.269l2.262.02c.055.565.171 1.122.346 1.662z"/></g><g><path fill="#efc29a" d="M217.772 215.37l-4.263 62.052-122.656-8.426 4.263-62.052z"/></g><g><path fill="#e0b18c" d="M222.918 215.724l-4.263 62.051-5.143-.353 4.263-62.052z"/></g><g><path fill="#ddbda2" d="M166.193 211.828l-.979 14.251-19.497-1.34.979-14.25z"/></g><g><path fill="#ddbda2" d="M162.9 259.752l-.98 14.25-19.497-1.339.979-14.251z"/></g><g><path fill="#edaa3e" d="M116.236 480.43c.793-2.528 1.508-5.3 3.096-6.817.755-.755 1.43-.921 2.254-.761a7.76 7.76 0 0 1 2.778 1.302 36.582 36.582 0 0 1 5.499 4.966 98.455 98.455 0 0 1 5.15 5.82c3.41 3.942 6.691 8.165 10.242 12.113a355.38 355.38 0 0 1 5.213 6.04c1.842 1.948 3.539 4.005 5.301 6.03l.266-.131c-2.638-4.684-5.805-8.98-8.949-13.304-3.19-4.291-6.394-8.548-9.825-12.656-3.516-4.006-7.106-8.097-11.755-10.898-1.173-.655-2.464-1.213-3.863-1.273a4.125 4.125 0 0 0-3.573 1.828c-1.562 2.289-1.877 5.081-2.137 7.725z"/></g><g><path fill="#fbae39" d="M131.428 293.211c5.63-8.898 7.252-15.587 7.252-15.587 22.722-7.4 39.285-18.098 49.925-26.555v-.032c9.578-7.633 14.304-13.47 14.304-13.47s-4.477-2.442-12.966-4.29c-6.926-1.563-16.507-2.681-28.53-1.826-2.74.203-5.63.498-8.608.91 0 0-18.98 16.86-33.33 31.57-4.097 4.215-7.814 8.249-10.586 11.64a41.88 41.88 0 0 0-4.037 5.632c-4.097 7.219-1.21 13.052 2.712 16.852 2.947 2.92 6.48 4.629 8.077 4.958 1.596.329 8.84.766 15.944.526 9.316-.266 18.42-1.682 14.38-5.836-3.574-3.694-14.537-4.492-14.537-4.492z"/></g><g><path fill="#edaa3e" d="M50.891 486.94c.618-2.604 1.09-5.15 2.029-7.525.792-2.317 2.002-4.703 3.39-5.688a1.78 1.78 0 0 1 1.717-.243c.638.21 1.453.801 2.194 1.568 1.533 1.53 2.915 3.6 4.114 5.742 2.543 4.52 5.479 9.19 8.96 13.218 1.752 2.034 3.554 4.005 5.462 5.888 2.032 1.756 4.006 3.576 6.312 4.975l.194-.22c-3.762-3.622-7.058-7.725-10.11-11.976a124.353 124.353 0 0 1-8.266-13.353c-1.339-2.268-2.824-4.491-4.786-6.311-.985-.893-2.115-1.717-3.46-2.037a4.18 4.18 0 0 0-3.862.993c-2.002 1.89-2.806 4.577-3.39 7.112-.52 2.583-.79 5.21-.804 7.845z"/></g><g><path fill="#a86a3b" d="M62.072 78.406c-.752-2.003-2.003-2.95-3.353-3.645-1.41-.595-2.938-.936-4.944-.246l-.097.203 4.1 2.043 4.2 1.848z"/></g><g><path fill="#a86a3b" d="M111.472 86.45c-1.044 2.693-1.91 5.437-2.832 8.149-.443 1.51-.858 2.392-1.676 3.302a10.394 10.394 0 0 1-2.964 2.217c-2.29 1.199-4.938 1.96-7.622 2.558-2.672.649-5.41 1.215-8.188 1.662-5.55.97-11.232 1.373-16.957 2.655-2.778.618-5.247.952-7.756.726a10.068 10.068 0 0 1-3.348-.858 6.172 6.172 0 0 1-1.296-.818 7.217 7.217 0 0 1-.83-.787l.075.017-.212-.309a4.429 4.429 0 0 1-.79-3.112c.12-1.176.664-2.46 1.408-3.691.744-1.23 1.694-2.403 2.618-3.76.266-.375.506-.768.718-1.175l.046-.092a.767.767 0 0 0 .069-.166l.057-.2c.046-.17.073-.343.08-.518a5.318 5.318 0 0 0 0-.715 16.711 16.711 0 0 0-.42-2.47l-.287-.672s-.037 4.006-1.35 5.104c-1.01 1.188-2.08 2.355-2.981 3.657-.901 1.302-1.677 2.73-1.98 4.323a6.67 6.67 0 0 0 .787 4.666v-.029c1.43 2.764 4.54 3.868 7.347 4.22 2.884.352 5.805 0 8.6-.572 5.613-1.007 11.29-1.742 16.917-2.81 5.584-1.118 11.324-2.268 16.333-5.218a11.856 11.856 0 0 0 3.262-2.86c.944-1.145 1.324-2.641 1.593-4.006l1.897-8.366z"/></g><g><path fill="#dd8c2c" d="M115.44 303.236c4.192.572 8.37.644 12.56.698 4.192 0 8.394-.106 12.589-.735 2.045-.444 4.245-.687 6.008-2.29.46-.467.65-1.136.506-1.776a3.543 3.543 0 0 0-.875-1.499 8.677 8.677 0 0 0-2.655-1.87c-3.903-1.769-8.114-2.367-12.303-2.75l-.031.443c3.917 1.923 7.962 3.473 10.777 5.436.305.216.586.463.839.738.077.07.145.148.203.235l.229.257s.214.218 0 .032l.037.065c.123.17.028.287-.155-.208-.269-.573.155-1.76.34-1.892.344-.374-.385.144-1.104.264-.847.214-1.707.373-2.574.478-1.834.366-3.82.572-5.808.798-2.003.326-4.023.446-6.066.81-4.194.555-8.354 1.34-12.462 2.351z"/></g><g><path fill="#dd8c2c" d="M152.462 232.138c-12.068 10.7-23.975 21.597-35.27 33.147-2.778 2.935-5.51 5.92-8.094 9.038-2.5 3.133-5.236 6.334-6.354 10.408-1.202 4.054.054 8.546 2.678 11.699 2.623 3.152 6.008 5.696 9.999 6.866l.117-.572a22.87 22.87 0 0 1-7.673-8.217c-1.691-3.107-1.743-6.028-.655-8.563 1.058-2.383 3.481-5.293 6.136-8.076 2.595-2.841 5.288-5.722 8.094-8.518l8.22-8.654c2.652-3.004 5.479-5.842 8.073-8.93 5.328-6.039 10.503-12.278 15.12-19.2z"/></g><g><path fill="#dd8c2c" d="M127.571 298.919a75.497 75.497 0 0 0 6.595-10.074c1.905-3.544 3.582-7.215 4.683-11.129l-.214.232c12.153-3.923 23.94-9.138 34.798-15.91a149.226 149.226 0 0 0 15.635-11.086c4.944-4.049 9.687-8.34 13.85-13.241l-.343-.286c-4.976 4.068-10.177 7.682-15.392 11.175-2.604 1.754-5.213 3.473-7.9 5.075a146.006 146.006 0 0 1-8.036 4.781c-5.37 3.147-10.923 5.957-16.52 8.689l-8.496 3.902-8.652 3.656-1.788.759-.25 1.45c-.285 1.605-.88 3.553-1.41 5.364-.529 1.811-1.264 3.654-1.956 5.485a73.433 73.433 0 0 1-2.304 5.467l-2.655 5.413z"/></g><g><path fill="#049b93" d="M76.569 274.26c-3.236-.132-6.366-.486-9.685-.432-1.742.558-2.575 2.226-3.147 3.72-.555 1.544-.715 3.232-.77 4.82l-.403 9.639c-.131 1.63.04 3.27.504 4.837.489 1.468 1.39 3.282 3.227 3.454v-.286c-1.402-.73-1.61-2.252-1.754-3.62a10.916 10.916 0 0 1 .017-2.117l.12-.998c.058-.45.112-.744.186-1.145a89.892 89.892 0 0 0 1.033-9.607l.032-1.204c.017-.33.022-.658.068-.976.071-.633.189-1.26.352-1.877a6.316 6.316 0 0 1 .598-1.593c.218-.406.572-.715.452-.773.055-.169 1.042-.134 1.84-.254l2.429-.286c1.64-.228 3.265-.56 4.863-.993z"/></g><g><path fill="#337772" d="M66.286 300.295c3.23.129 6.366.49 9.685.44 1.742-.572 2.574-2.231 3.147-3.719.572-1.548.715-3.233.772-4.815l.398-9.65c.127-1.63-.044-3.27-.507-4.838-.489-1.465-1.387-3.276-3.224-3.453l-.014.286c1.402.735 1.613 2.26 1.756 3.625.061.705.054 1.414-.02 2.117l-.12 1.001c-.057.45-.111.736-.186 1.145a89.466 89.466 0 0 0-1.035 9.613l-.037 1.204c0 .33-.02.658-.063.979-.073.632-.191 1.258-.355 1.874a6.111 6.111 0 0 1-.592 1.59c-.218.412-.573.718-.45.776-.057.171-1.041.14-1.84.254l-2.428.286a38.126 38.126 0 0 0-4.881.99z"/></g><g><path fill="#602712" d="M78.523 85.796s-11.321 3.401-14.949-1.31"/></g><g><path fill="#9e4725" d="M77.221 59.223l-2.49 5.965c-1.613-1.05-2.909-3.522-3.41-4.474l1.56-3.648z"/></g><g><path fill="#fbae39" d="M70.294 145.808l11.175.798 14.434 44.38-11.146-1.425z"/></g><g><path fill="#fbae39" d="M53.55 185.647l11.246 1.399 8.168-19.275c.847-2.119.914-4.47.189-6.634l-4.054-12.342z"/></g><g><path fill="#cefaf2" d="M144.746 208.329c2.98 7.636 8.08 15.83 16.656 23.11 12.016-.858 21.604.264 28.53 1.826 3.093-11.876 2.575-23.194.675-32.615-3.147-15.736-9.988-26.407-9.988-26.407 4.36-17.655-1.533-33.76-15.091-44.345"/></g><g><path fill="#bfefe6" d="M36.578 162.624a32.902 32.902 0 0 0 1.39 14.414 31.321 31.321 0 0 0 7.76 12.262l-.118-.406c-1.29 7.258-1.276 14.59-.83 21.878.447 7.287 1.668 14.514 3.308 21.623 1.579 7.104 3.913 14.09 6.14 20.931 1.716 7.012 3.126 14.22 2.886 21.457l.572.03c.964-3.634 1.293-7.44 1.253-11.202a79.631 79.631 0 0 0-.875-11.24l-.218-1.431-.4-1.568-.647-2.6-1.17-5.205c-.807-3.458-1.556-6.915-2.157-10.393-1.39-6.913-2.289-13.868-2.987-20.808-.286-3.477-.46-6.95-.604-10.411-.091-3.4.032-7.064.24-10.083l.195-2.786-1.364-1.093a32.58 32.58 0 0 1-4.5-4.515 27.437 27.437 0 0 1-3.551-5.436 31.412 31.412 0 0 1-2.446-6.32 43.591 43.591 0 0 1-1.3-7.032z"/></g><g><path fill="#bfefe6" d="M161.78 230.973c-2.197-4.603-4.389-8.548-6.371-12.48-.896-2.022-2.003-3.862-2.781-5.861-.916-1.929-1.8-3.86-2.52-5.857-.893-1.931-1.583-3.954-2.307-5.965-.824-2.003-1.37-4.083-2.145-6.165l-4.209-13.31-.572-.088c-.604 4.694-.418 9.418.214 14.084a59.49 59.49 0 0 0 3.57 13.656 58.28 58.28 0 0 0 16.738 22.433z"/></g></g></g></g></g></svg>