<svg xmlns="http://www.w3.org/2000/svg" width="341" height="630" viewBox="0 0 341 630"><defs><clipPath id="ygvga"><path d="M243.374 193.28c.449-.485.668-.77.668-.77-1.38-6.784-.084-17.842 0-18.531-1.517 4.55-3.31 8.493-5.211 11.003-.857 1.185-1.737 2.04-2.648 2.508-6.48 3.365-18.89.331-31.297-2.674a19.116 19.116 0 0 1-3.28-1.103c.77 2.122 1.295 4.246 1.488 6.287.443 4.195-.427 8.106-2.865 11.36 12.53-11.041 30.703-4.175 43.145-8.08z"/></clipPath></defs><g><g><g><path fill="#261109" d="M13.964 80.145c-.499-4.026-.14-8.246.743-12.713 7.5-2.868 25.395 5.185 18.475 21.922 0 0-3.256-17.262-19.218-9.21z"/></g><g><path fill="#261109" d="M98.202 105.899c-39.35-1.903-30.415-22.307-30.415-22.307.58 9.236 21.343 18.446 51.591-3.117-.772 1.075-1.488 2.289-2.177 3.695-3.806 7.75-10.505 15.635-18.999 21.729z"/></g><g><path fill="#261109" d="M238.45 88.045a.09.09 0 0 1 .012.009zm1.729 1.263c.249.187.498.377.747.568zM207.98 77.46c-15.208 0-27.42 7.803-34.005 14.788-3.985 4.2-4.897 13.663-4.937 14.105.04-.442.948-9.904 4.934-14.105 6.588-6.986 18.798-14.789 34.008-14.788zM114.3 151.194l-.188-.1zm1.422.147c-.37-.054-.742-.11-1.118-.17zm52.4-44.72c-3.41 1.044-15.146 5.651-14.248 19.379.883 13.538-.233 26.51-24.053 26.51 23.815-.002 24.935-12.973 24.05-26.51-.895-13.728 10.84-18.335 14.251-19.38zm-3.37 46.807l-.345.218zm-.38.24c-6.195 3.846-13.062 5.223-19.684 5.245zm-19.849 5.245h-.046zm-.046 0h-.047.047zm-25.042 10.404c2.4 0 4.842.03 7.298.03 14.949 0 30.315-1.08 38.72-16.38 19.414-35.324 39.212-66.233 54.433-49.412l.025-.029c14.563-10.423 27.713 5.352 30.363 17.206h.029c-.253-12.408-1.52-22.499-7.751-29.063a43.07 43.07 0 0 1-1.626-1.793c-3.255-3.747-5.406-7.223-7.502-11 0-.028-.03-.028-.03-.028-1.65-3.114-3.305-6.423-5.485-10.286-18.226-15.576-33.226-14.972-56.305-1.71-10.25 5.899-20.126 5.87-28.83 5.84-9.57-.028-17.724-.06-23.397 7.782-.772 1.075-1.488 2.288-2.177 3.696-3.804 7.749-10.503 15.634-18.997 21.728-14.259 10.312-33.531 15.525-52.34 6.506-22.25-10.67-30.52-20.706-31.898-32.26-.5-4.026-.142-8.244.742-12.712-7.499 2.897-23.632 16.16-5.185 51.4 18.448 35.239 64.028 24.181 80.766 36.81 12.85 9.733 18.886 7.94 29.147 13.675z"/><path fill="none" stroke="#000" stroke-miterlimit="20" d="M238.45 88.045a.09.09 0 0 1 .012.009zm1.729 1.263c.249.187.498.377.747.568zM207.98 77.46c-15.208 0-27.42 7.803-34.005 14.788-3.985 4.2-4.897 13.663-4.937 14.105.04-.442.948-9.904 4.934-14.105 6.588-6.986 18.798-14.789 34.008-14.788zM114.3 151.194l-.188-.1zm1.422.147c-.37-.054-.742-.11-1.118-.17zm52.4-44.72c-3.41 1.044-15.146 5.651-14.248 19.379.883 13.538-.233 26.51-24.053 26.51 23.815-.002 24.935-12.973 24.05-26.51-.895-13.728 10.84-18.335 14.251-19.38zm-3.37 46.807l-.345.218zm-.38.24c-6.195 3.846-13.062 5.223-19.684 5.245zm-19.849 5.245h-.046zm-.046 0h-.047.047zm-25.042 10.404c2.4 0 4.842.03 7.298.03 14.949 0 30.315-1.08 38.72-16.38 19.414-35.324 39.212-66.233 54.433-49.412l.025-.029c14.563-10.423 27.713 5.352 30.363 17.206h.029c-.253-12.408-1.52-22.499-7.751-29.063a43.07 43.07 0 0 1-1.626-1.793c-3.255-3.747-5.406-7.223-7.502-11 0-.028-.03-.028-.03-.028-1.65-3.114-3.305-6.423-5.485-10.286-18.226-15.576-33.226-14.972-56.305-1.71-10.25 5.899-20.126 5.87-28.83 5.84-9.57-.028-17.724-.06-23.397 7.782-.772 1.075-1.488 2.288-2.177 3.696-3.804 7.749-10.503 15.634-18.997 21.728-14.259 10.312-33.531 15.525-52.34 6.506-22.25-10.67-30.52-20.706-31.898-32.26-.5-4.026-.142-8.244.742-12.712-7.499 2.897-23.632 16.16-5.185 51.4 18.448 35.239 64.028 24.181 80.766 36.81 12.85 9.733 18.886 7.94 29.147 13.675z"/></g><g><path fill="#2d130c" d="M201.606 183.713c-10.756-4.606-18.643-17.814-20.986-25.506l-.552-.552c-11.582 11.69-30.606 20.404-60.606 11.69 3.059 1.71 6.506 4.137 10.615 7.723 17.896 15.607 40.37 28.814 73.017 12.932-.193-2.042-.718-4.165-1.488-6.287z"/></g><g><path fill="#2d130c" d="M237.783 121.423c.659.165 1.322.303 2.01.413 0 0 3.615 4.275 2.015 10.285.69.166 1.239.386 1.6.634.8.552.99 1.352.632 2.4 1.516.854 4.22 3.695 4.468 12.712.193 7.086-1.654 17.619-4.468 26.085v.027c-.083.69-1.379 11.747 0 18.53 0 0 8.908-3.695 8.272-14.725h.028c-.469-9.457-1.24-19.192-1.71-29.393-.47-10.01-.192-19.357-.329-27.658h-.03c-2.647-11.856-15.798-27.63-30.358-17.205l-.027.026c.632.69 1.268 1.49 1.874 2.345-.662 0-1.352.055-2.04.192v.056c4.992 9.071 11.169 13.594 18.063 15.276z"/></g><g><path fill="#412211" d="M219.887 103.555c.632.689 1.268 1.489 1.874 2.343-.663 0-1.352.056-2.041.193-9.043 1.628-19.383 13.622-26.085 30.608-2.4 6.038-6.673 14.034-13.567 20.956-11.581 11.691-30.606 20.405-60.606 11.691l-.027-.027c17.013 0 36.231 1.46 46.02-16.352 19.412-35.322 39.209-66.233 54.432-49.413z"/></g><g><path fill="#efaf52" d="M275.283 111.827c-.773-.634-15.002-12.05-41.856-32.95 0-.029-.03-.029-.03-.029-1.654-3.115-3.307-6.425-5.486-10.285-2.345-4.163-5.294-8.961-9.54-14.834-7.252-9.983-11.06-16.076-15.995-19.33-4.465-2.95-9.926-3.558-19.77-2.564-5.763.55-18.062-4.909-18.062-9.237 0 0-.716-4.633.168-8.66 0 0 .88-2.315 2.617-6.92 0 0 1.131-8.08 10.37-6.37 4.495.827 21.976 9.789 31.791 16.517 2.041 1.407 4.193 2.923 6.562 4.55 6.204 4.274 18.643 14.751 29.535 26.415 37.83 40.617 29.723 63.725 29.723 63.725h-.027z"/></g><g><path fill="#de9d4b" d="M97.071 347.448c9.9.027.386 7.004-8.024 7.004-1.985-.994-3.53-2.592-4.522-4.936 5.764-.358 9.816-1.13 12.52-2.068z"/></g><g><path fill="#de9d4b" d="M97.045 347.448c-2.704.937-6.757 1.71-12.52 2.068 0 0-4.246-1.654-3.476-7.362 8.77.661 14.285.469 17.538-.194h.028c3.694.91 4.192 3.53-1.544 5.488z"/></g><g><path fill="#de9d4b" d="M80.969 332.337l6.01 1.13h.027c-1.406 2.428-2.701 4.633-3.638 5.82-2.015 2.507 1.817 4.659 11.663-3.971 0 0 1.736.882 3.557.937v.027c4.025 1.544 6.23 4.44.026 5.68h-.026c-3.253.663-8.768.855-17.538.194 0 0-4.411-7.363-.081-9.817z"/></g><g><path fill="#de9d4b" d="M86.978 333.467l-6.01-1.13s-3.365-7.472 2.784-8.41c2.096-.33 5.074.441 8.025 1.738-1.546 2.177-3.256 5.129-4.772 7.802z"/></g><g><path fill="#efaf52" d="M95.03 335.316c-9.845 8.63-13.677 6.479-11.662 3.97.937-1.186 2.232-3.391 3.638-5.819 1.516-2.674 3.225-5.625 4.771-7.802.496-.663.937-1.241 1.379-1.739 6.314-7.14 20.956 12.658 20.956 12.658s5.845.634 19.853-5.846c-3.032 3.144-5.405 5.846-5.405 5.846a99.869 99.869 0 0 0 2.51 2.398c-2.455 3.833-4.908 8.162-7.28 13.043-14.09 2.262-27.435 6.177-34.743 2.427 8.41 0 17.923-6.977 8.024-7.004 5.736-1.957 5.238-4.577 1.543-5.488 6.204-1.24 4-4.136-.027-5.68v-.027c-1.82-.056-3.556-.937-3.556-.937z"/></g><g><path fill="#efaf52" d="M133.966 330.738c2.342-2.426 5.047-5.101 7.445-7.086.358.358.717.744 1.102 1.075 4.082 4.025 9.155 7.831 14.78 11.333 13.925 8.713 31.379 15.745 46.434 20.018 7.72 2.206 14.782 3.695 20.434 4.302 1.324.138 2.593.221 3.75.276 0 0 .633 9.237 0 18.834 0 0-1.709.164-4.771.109-7.115-.055-21.535-1.158-39.347-7.583a145.2 145.2 0 0 1-25.396-12.188c-8.934-5.376-18.144-12.188-27.326-20.846a100.238 100.238 0 0 1-2.51-2.398s2.372-2.702 5.405-5.846z"/></g><g><path fill="#efaf52" d="M170.308 471.366c-4.274 10.037 2.646 16.571-9.264 29.642-11.912 13.098-17.896 11.554-16.849 7.693 1.075-3.833-1.489-14.09 4.22-22.803 5.625 0 11.773-2.923 21.893-14.532z"/></g><g><path fill="#efaf52" d="M131.07 545.623s-5.324 36.674-5.405 45.388c-.083 7.555 5.238 20.764.552 23.133-6.645 3.393-10.396 13.898-28.125 15.443-2.537.248-3.915-1.71-2.925-4.055 1.326-3.089 6.452-9.126 8.272-11.388 6.371-8.078 15.58-12.683 5.763-45.58-2.757-9.264-4.963-19.632-6.727-29.725l3.2-25.12c3.28 8.08 16.845 22.915 22.691 29.092 1.656 1.764 2.704 2.812 2.704 2.812z"/></g><g><path fill="#457572" d="M312.177 354.452c-26.169-44.642-31.544-81.482-31.544-124.635 0 0-7.502 35.185-31.16 60.552-22.17 23.825-28.87 40.23-26.996 57.437.11 1.132.278 2.29.469 3.42.525 3.088.94 6.121 1.214 9.155 1.325.137 2.594.22 3.751.275 0 0 .633 9.237 0 18.834 0 0-1.71.164-4.772.109-2.867 14.725-11.029 32.538-29.116 59.56-6.04 9.045-11.25 16.407-15.802 22.39 26.832 25.534 51.648-16.296 70.288 2.924 18.64 19.246 24.43 18.473 43.649 6.893 19.246-11.608 32.316 20.018 32.316 20.018 22.308-25.395 13.844-92.262-12.297-136.932z"/></g><g><path fill="#4d807f" d="M247.708 196.838c1.098 1.373 2.195 3.001 3.25 4.815 1.115-.893 1.576-1.59 1.576-1.59h.026c.305-7.334.138-14.723-.22-22.28h-.028c.636 11.03-8.271 14.726-8.271 14.726s-.219.286-.668.77c1.715.957 3.193 2.133 4.335 3.559z"/></g><g><path fill="#4d807f" d="M223.608 204.173c16.803 3.596 24.418-.17 27.35-2.52-1.055-1.814-2.15-3.442-3.25-4.815-1.142-1.426-2.62-2.603-4.335-3.558-1.928 2.076-8.116 7.851-19.765 10.893z"/></g><g><path fill="#4d807f" d="M192.56 213.382a50.453 50.453 0 0 0-2.003 2.595 28.907 28.907 0 0 0-.56 2.13c10.494-1.38 21.96-5.16 29.448-13.024-6.283 1.147-13.927 1.445-23.023.164-2.594 3.105-4.627 6.687-5.865 10.73a50.453 50.453 0 0 1 2.003-2.595z"/></g><g><path fill="#4d807f" d="M190.557 215.977a44.19 44.19 0 0 0-1.533 2.256c.324-.037.647-.083.972-.126.165-.722.345-1.435.56-2.13z"/></g><g><path fill="#4d807f" d="M196.422 205.248c-.087-.014-.164-.015-.25-.028v-.028c-2.48 1.71-5.68 3.034-9.678 3.944-5.984 1.379-11.361 4.412-15.193 8.935 4.465.774 10.85.976 17.724.162.48-.748.978-1.498 1.532-2.256 1.239-4.043 3.272-7.625 5.865-10.73z"/></g><g><path fill="#cc9763" d="M236.294 168.243c.053 0 .11.029.137.029-7.198 2.757-9.818 6.865-15.801 7.251-.331.027-.69.027-1.048.027 3.256-3.915 6.094-6.204 8.3-6.755h.029c.66-.138 1.295-.138 1.847.027 0 0 7.526-6.093 6.536-.579z"/></g><g><path fill="#cc9763" d="M236.431 168.272c2.122.716.773 3.115.773 3.115a11.51 11.51 0 0 1-2.62 3.447v.027c-3.916 3.557-9.57 4.08-10.976 2.84 0 0-1.93-.744-2.978-2.178 5.983-.386 8.603-4.494 15.801-7.251z"/></g><g><path fill="#ddb58b" d="M196.171 205.193v.027c.086.013.164.014.25.028.215-.261.447-.51.673-.764-.31.236-.589.485-.923.709z"/></g><g><path fill="#b67649" d="M219.445 205.083c1.462-.276 2.841-.58 4.163-.91 11.65-3.042 17.837-8.817 19.765-10.893-10.564-5.891-30.614-2.962-43.144 8.08-.845 1.129-1.89 2.174-3.134 3.124-.227.255-.458.502-.673.763 9.096 1.281 16.74.983 23.023-.164z"/></g><g><path fill="#ddb58b" d="M243.373 193.28c.45-.485.668-.77.668-.77-1.379-6.784-.084-17.842 0-18.531-1.516 4.55-3.31 8.493-5.21 11.003-.857 1.185-1.738 2.04-2.648 2.508-6.481 3.365-18.89.331-31.298-2.674a19.116 19.116 0 0 1-3.28-1.103c.77 2.122 1.296 4.246 1.489 6.287.442 4.195-.428 8.106-2.865 11.36 12.53-11.041 32.58-13.971 43.144-8.08z"/></g><g><path fill="#bc8658" d="M224.685 160.744a47.527 47.527 0 0 1-4.055 1.13c4.604-4.356 6.922-8.52 9.928-7.363h.027c.8.304 1.627.966 2.563 2.097-2.399 1.902-5.596 3.226-8.463 4.136z"/></g><g><path fill="#cc9763" d="M226.89 140.753s-.468 2.398 4.439 2.315c4.908-.082 8.88-1.985 10.892-4.688.937-1.24 1.573-2.315 1.82-3.226 1.516.855 4.22 3.696 4.467 12.713.194 7.086-1.653 17.619-4.467 26.085v.027c-1.516 4.55-3.31 8.493-5.21 11.003 2.288-8.935-4.22-10.121-4.22-10.121h-.027v-.027a11.5 11.5 0 0 0 2.62-3.447s1.349-2.399-.773-3.115c-.027 0-.083-.029-.137-.029.99-5.515-6.536.58-6.536.58-.552-.166-1.187-.166-1.847-.028h-.03c-2.948-4.08-3.196-8.05-3.196-8.05 2.868-.911 6.064-2.235 8.464-4.137-.937-1.131-1.765-1.793-2.564-2.097h-.027c-7.362-5.652-11.528-10.946-10.37-16.13 0 0 .552-6.176 7.088-11.085 6.562-4.908 10.507-5.873 10.507-5.873.66.165 1.807-.11 2.496 0 0 0 8.955 19.726 8.229 26.444 0 0-6.7-15.746-6.73-15.746-2.148-.579-5.705-.524-9.483 1.793-5.02 3.032-5.405 6.839-5.405 6.839z"/></g><g><path fill="#fff" d="M243.408 132.755c.8.552.991 1.352.633 2.4-.248.91-.883 1.985-1.82 3.225-2.012 2.703-5.984 4.606-10.893 4.689-4.906.082-4.438-2.316-4.438-2.316s.385-3.807 5.405-6.839c3.778-2.317 7.335-2.372 9.484-1.793h.03c.69.166 1.238.386 1.599.634z"/></g><g><path fill="#fff" d="M204.94 148.142s3.669 2.123 1.46 6.728c-2.205 4.577-10.119 5.322-17.012 1.903 0 0 3.915-5.874 8.024-7.418 4.109-1.543 6.398-1.654 7.529-1.213z"/></g><g><path fill="#cc9763" d="M220.63 175.523c1.048 1.434 2.978 2.179 2.978 2.179 1.406 1.24 7.06.716 10.976-2.841h.027s6.509 1.186 4.22 10.12c-.857 1.185-1.737 2.04-2.648 2.509-6.481 3.365-18.89.331-31.297-2.674a19.117 19.117 0 0 1-3.28-1.103c-10.755-4.606-18.642-17.814-20.986-25.506l-.552-.552c6.894-6.921 11.168-14.918 13.567-20.956 6.702-16.986 17.043-28.98 26.085-30.608v.055c4.993 9.072 11.17 13.595 18.063 15.277 0 0-3.945.965-10.507 5.873-6.535 4.908-7.088 11.084-7.088 11.084-1.158 5.185 3.009 10.48 10.37 16.131-3.005-1.157-5.323 3.007-9.928 7.363a47.617 47.617 0 0 0 4.055-1.13s.248 3.97 3.197 8.051c-2.205.55-5.044 2.84-8.3 6.755.359 0 .717 0 1.048-.027zm-31.242-18.75c6.894 3.419 14.808 2.674 17.013-1.903 2.208-4.605-1.46-6.729-1.46-6.729-1.13-.44-3.42-.33-7.528 1.214-4.11 1.544-8.025 7.418-8.025 7.418z"/></g><g><path fill="#d6f8f1" d="M158.809 313.725c.083-.055.194-.084.304-.139-.883 5.82-1.656 13.677-1.82 22.474-5.626-3.502-10.699-7.308-14.781-11.334 5.655-5.542 11.224-8.988 16.297-11.001z"/></g><g><path fill="#d6f8f1" d="M222.945 351.226c.525 3.087.94 6.12 1.215 9.155-5.652-.608-12.713-2.097-20.433-4.302 5.983-3.778 12.355-6.812 18.75-8.273.11 1.131.277 2.29.468 3.42z"/></g><g><path fill="#d6f8f1" d="M170.336 386.547c.439-.55 5.625-7.004 13.456-14.531 17.813 6.425 32.233 7.527 39.347 7.583-2.867 14.725-11.03 32.538-29.116 59.56-6.041 9.045-11.251 16.407-15.802 22.39-2.896 3.805-5.516 7.06-7.914 9.817-10.12 11.609-16.268 14.532-21.893 14.532-3.035 0-5.902-.828-9.181-1.627-15.113-3.64 16.544-76.518 28.841-98.469v-.026a9.9 9.9 0 0 0 2.262.771z"/></g><g><path fill="#d6f8f1" d="M163.082 381.998c1.188 1.296 2.289 2.207 3.337 2.896-18.831 35.267-32.537 65.129-50.13 90.305l.027.027c-2.48 10.396 10.508 18.475 12.024 50.792a170.51 170.51 0 0 1 .027 16.793c-5.847-6.177-19.412-21.012-22.692-29.092l-3.199 25.12c-4.468-25.725-5.983-49.742-5.983-49.742-4.743-5.185 2.425-64.607 17.427-111.896 3.086-9.706 6.422-18.062 9.87-25.176 2.371-4.881 4.825-9.21 7.28-13.043 9.183 8.658 18.392 15.47 27.327 20.846.91 7.501 2.399 15.056 4.685 22.17z"/></g><g><path fill="#b32531" d="M170.336 386.547a9.914 9.914 0 0 1-2.262-.771 9.668 9.668 0 0 1-1.656-.882c-1.047-.69-2.149-1.6-3.336-2.896-2.286-7.115-3.775-14.669-4.685-22.17a145.184 145.184 0 0 0 25.396 12.188c-7.831 7.528-13.018 13.98-13.457 14.531z"/></g><g><path fill="#d6f8f1" d="M170.336 386.547a9.914 9.914 0 0 1-2.262-.771 9.668 9.668 0 0 1-1.656-.882c-1.047-.69-2.149-1.6-3.336-2.896-2.286-7.115-3.775-14.669-4.685-22.17a145.184 145.184 0 0 0 25.396 12.188c-7.831 7.528-13.018 13.98-13.457 14.531z"/></g><g><path fill="#d6f8f1" d="M236.679 260.258c29.793-9.93 23.817-42.208 14.28-58.605-2.933 2.35-10.548 6.116-27.351 2.52-1.322.33-2.7.634-4.163.91-7.489 7.863-18.955 11.644-29.449 13.024-.061.265-.14.52-.193.79.053-.27.132-.525.193-.79-.325.043-.648.089-.972.126-19.654 30.604 21.449 52.509 47.655 42.025z"/></g><g><path fill="#d6f8f1" d="M275.282 111.855v-.028c-.772-.634-15.001-12.05-41.856-32.95 2.095 3.776 4.246 7.251 7.499 11a44.999 44.999 0 0 0 1.626 1.793c6.231 6.564 7.5 16.655 7.75 29.063.137 8.3-.14 17.647.329 27.658.47 10.201 1.241 19.936 1.71 29.393.357 7.556.524 14.945.22 22.28h-.027s-.46.696-1.575 1.589c9.538 16.397 15.513 48.675-14.28 58.605-26.206 10.484-67.309-11.421-47.654-42.024-6.874.813-13.26.61-17.724-.163-6.479 7.61-8.547 19.439-1.653 34.522 3.695 8.079-.167 18.06-1.988 37.005-1.02 10.506-5.348 18.557-9.042 23.658l.191.469c.084-.055.195-.083.305-.139-.883 5.82-1.657 13.677-1.82 22.474 13.924 8.713 31.378 15.745 46.434 20.018 5.983-3.777 12.354-6.81 18.75-8.272-1.875-17.206 4.825-33.612 26.995-57.437 23.659-25.367 31.161-60.552 31.161-60.552 18.86-31.021 2.148-76.766-5.351-117.962z"/></g><g><path fill="#c8ede5" d="M222.477 347.806a52.257 52.257 0 0 1-.256-3.669 326.073 326.073 0 0 1-3.325 4.7c1.193-.378 2.385-.758 3.58-1.03z"/></g><g><path fill="#f2ad3d" d="M144.48 511.11c-.444-.338-.73-.999-.708-1.567-.016-.598.212-1.136.253-1.631.126-1.051.113-2.134.1-3.212-.038-2.163-.105-4.342.026-6.526.343-4.345 1.525-8.727 3.994-12.363l.302.197c-.108 2.49-.272 4.517-.399 6.512l-.323 5.91c-.2 1.988-.301 4.048-.775 6.266a16.75 16.75 0 0 1-1.045 3.494c-.17.4-.326.617-.506.903-.143.14-.27.291-.402.447-.21.34-.49.676-.27 1.309z"/></g><g><path fill="#d18e42" d="M170.21 471.363c-1.32 4.24-.732 8.403-.662 12.833.043 2.22-.227 4.53-.868 6.748-.654 2.216-1.712 4.283-2.935 6.187-2.566 3.767-5.706 6.867-9.118 9.684-1.72 1.394-3.57 2.66-5.59 3.646-1.023.466-2.087.863-3.201 1.077-1.075.208-2.402.242-3.232-.558.986.52 2.079.196 3.032-.145.97-.387 1.872-.937 2.728-1.547 1.731-1.191 3.313-2.616 4.838-4.086 2.981-3.009 5.968-6.153 8.244-9.59 2.356-3.431 3.66-7.287 3.96-11.505.182-2.104.251-4.311.607-6.511.41-2.19 1.052-4.36 2.197-6.233z"/></g><g><path fill="#f2ad3d" d="M88.928 354.328a61.07 61.07 0 0 1 4.196-2.404c1.287-.722 2.57-1.32 3.737-1.987.608-.276 1.163-.624 1.627-.915l.555-.334c.128-.082.047.015.199.505.231.515.538.493.425.297-.079-.182-.334-.391-.624-.584-.587-.436-1.341-.787-2.12-1.305v-.275c.797-.008 1.597.015 2.394.152.73.168 1.76.32 2.058 1.34.09 1.012-.647 1.637-1.21 2.178-.617.535-1.298.975-1.997 1.367-2.867 1.447-6.043 2.255-9.235 2.24z"/></g><g><path fill="#f2ad3d" d="M84.39 349.375c1.8-1.098 3.542-1.77 5.281-2.35 1.727-.612 3.45-1.014 5.076-1.498 1.621-.381 3.297-.894 4.368-1.33.267-.093.396-.208.496-.122.08.095.318.227.312-.027.013-.526-.73-1.248-1.465-1.937l.065-.27c.901.228 1.853.528 2.528 1.29.342.368.496.952.342 1.456-.143.506-.479.898-.832 1.224-1.48 1.26-3.312 1.85-5.095 2.376-3.632.912-7.354 1.251-11.054 1.463z"/></g><g><path fill="#f2ad3d" d="M98.541 336.154c1.088.414 2.16.93 3.063 1.723.43.398.866.893.944 1.565.08.7-.414 1.285-.905 1.612-2.1 1.262-4.507 1.415-6.805 1.659-4.652.254-9.292-.033-13.91-.419l.021-.274c2.381-.792 4.697-1.162 6.98-1.444 2.281-.312 4.532-.415 6.716-.612 1.09-.04 2.168-.138 3.182-.262 1.008-.05 2.023-.31 2.577-.436.13-.03.198-.051.213.01.003.053-.008.25.075.33.186.154.16-.287-.08-.655-.442-.837-1.303-1.65-2.173-2.54z"/></g><g><path fill="#d18e42" d="M123.711 352.177c-2.82 1.439-5.655 2.482-8.555 3.376-2.892.919-5.851 1.582-8.884 2.09-3.04.413-6.169.698-9.365.331-3.121-.328-6.61-1.322-8.776-3.797l.146-.234c2.574 1.535 5.666 1.878 8.633 1.865 2.994-.028 5.98-.416 8.945-.889 5.945-.88 11.85-2.119 17.813-3.014z"/></g><g><path fill="#f2ad3d" d="M88.126 354.175c-1.745-1.048-3.097-2.72-3.886-4.594l.097.094c-1.395-.62-2.485-1.772-3.1-3.147-.616-1.382-.713-2.935-.527-4.402l.032.15c-.912-1.601-1.64-3.303-1.957-5.144-.143-.914-.178-1.888.126-2.812.278-.935.975-1.727 1.81-2.192l-.105.324c-.603-1.493-.997-3.072-.897-4.707.035-1.639 1.159-3.279 2.77-3.735 1.579-.534 3.205-.326 4.757.001 1.548.35 3.037.901 4.48 1.535l-.107.254c-1.608-.212-3.14-.523-4.65-.531-.725.023-1.525-.013-2.077.069-.24.01-.67.106-1.05.183-.119.064-.52.195-.713.313-.94.58-.917 1.064-.989 2.083.008.995.468 2.405.907 3.439l.76 1.79-1.769 1.303c-.326.238-.426.363-.517.704a4.245 4.245 0 0 0-.06 1.567c.078.66.28 1.396.54 2.125.25.715.556 1.537.86 2.158l.415.848-.115.605c-.219 1.148-.259 2.237-.003 3.232.135.5.377.955.665 1.414.266.436.76.902 1.066 1.145l.722.566.04.172c.208.879.466 1.766.91 2.593.464.826.994 1.588 1.72 2.368z"/></g><g><path fill="#f2ad3d" d="M89.062 334.198c.038-.036.079-.071.12-.105.514-.69 1.055-1.373 1.577-2.072-.794-.11-1.588-.231-2.394-.304l-.91-.058c-.45-.05-.646-.025-.983-.042l-1.841.068c-1.24.102-2.478.202-3.76.527l-.048.272c2.345.481 4.723.887 7.042 1.43l1.197.284z"/></g><g><path fill="#f2ad3d" d="M101.926 332.944c-.525-.958-1.297-1.698-2.084-2.395l-.183.208c.447 1.023.95 2.02 1.034 2.816.048.4-.156.584-.178.224a1.544 1.544 0 0 1-.665.347c-.382.035-.916.01-1.643-.178-.667-.213-1.58-.51-2.173-.84l-.14-.079-.245-.071c-.382.963-1.106 1.676-1.954 2.315.385.093.77.188 1.157.274.97.443 1.969.758 3.024.895 1.05.133 2.227.051 3.159-.599a3.42 3.42 0 0 0 1.06-1.256c.287-.58.071-1.194-.169-1.661z"/></g><g><path fill="#4d807f" d="M280.798 229.822c1.066 11.423 1.895 22.804 3.807 33.998 1.586 11.217 3.888 22.28 7.163 33.016 3.352 10.706 7.144 21.246 11.985 31.356 2.381 5.066 4.858 10.095 7.556 15.016 2.645 4.98 5.61 9.579 8.472 14.948 10.806 20.912 17.673 43.66 19.903 66.944 1.03 11.633 1.095 23.414-.752 35.011-1.05 5.775-2.58 11.483-4.834 16.904-1.13 2.707-2.458 5.335-4.017 7.81a40.145 40.145 0 0 1-5.518 6.755l-.415-.364c3.73-4.29 6.361-9.442 8.23-14.802 1.858-5.38 2.997-10.994 3.67-16.648 1.317-11.33.845-22.817-.609-34.12-3.043-22.601-9.922-44.739-20.53-64.914-2.636-5.029-5.69-9.906-8.336-14.984a240.66 240.66 0 0 1-7.561-15.431c-4.67-10.463-8.518-21.3-11.4-32.39-5.84-22.205-7.45-45.258-7.364-68.105z"/></g><g><path fill="#c8ede5" d="M158.507 340.102l-.202-3.464c-.013-3.705-.003-7.644.157-11.462.201-3.841.252-7.708.608-11.56l-.135-.021c-.581 3.82-1.01 7.663-1.32 11.515-.288 3.855-.53 7.708-.525 11.584l.11 2.371c.44.34.87.694 1.307 1.037z"/></g><g><path fill="#c8ede5" d="M160.833 370.883c-.592-3.364-.947-6.758-1.343-10.142a9.218 9.218 0 0 1-1.255-.425c.926 7.354 2.389 14.658 4.682 21.71l.13-.04a118.916 118.916 0 0 1-1.223-5.54z"/></g><g><path fill="#c8ede5" d="M200.551 357.755c.294.108.578.249.868.373.77-.622 1.553-1.232 2.324-1.857 5.765-3.658 11.974-6.76 18.644-8.33l-.058-.27c-1.753.07-3.49.355-5.205.732-1.72.374-3.445.8-5.084 1.44-3.294 1.24-6.555 2.638-9.6 4.403l-.043.024-.157.116c-1.276.956-2.568 1.89-3.842 2.85a9.87 9.87 0 0 1 2.153.519z"/></g><g><path fill="#c8ede5" d="M185.413 370.917c-.443-.208-.88-.439-1.306-.695a10.715 10.715 0 0 1-1.187-.393c-.186.163-.377.318-.563.482l-.148.13c-1.177 1.2-2.259 2.488-3.363 3.75-1.107 1.258-2.144 2.583-3.167 3.91-1.045 1.31-1.974 2.72-2.92 4.106-.944 1.388-1.86 2.793-2.657 4.285l.215.173c4.198-5.114 8.763-9.933 13.543-14.505l-.016.012c.525-.415 1.045-.84 1.569-1.255z"/></g><g><path fill="#e8c19c" d="M243.99 173.978a99.931 99.931 0 0 0-.547 9.28c-.065 3.093-.017 6.21.547 9.257l-.135.027c-.775-1.44-1.166-3.015-1.44-4.58-.28-1.57-.279-3.154-.348-4.728.118-1.572.182-3.142.472-4.693.292-1.549.65-3.09 1.316-4.58z"/></g><g><path fill="#c8ede5" d="M175.495 218.587a22.791 22.791 0 0 0-3.07 4.442c-4.186 8.006-2.754 17.832 1.256 26.679l.415.967.403 1.007c.359.97.59 1.749.784 2.6.396 1.677.568 3.334.617 4.91.07 3.162-.213 6.044-.67 8.79a571.133 571.133 0 0 1-3.073 15.748c-.555 2.617-.89 5.07-1.48 7.844-.634 2.865-1.458 5.575-2.57 8.182-2.4 5.125-5.356 9.91-9.366 13.657l-.447-.323a49.125 49.125 0 0 0 7.036-14.193 45.326 45.326 0 0 0 1.66-7.754l.87-7.964c.637-5.307 1.55-10.58 2.226-15.853.638-5.233 1.04-10.702-1.454-15.41-2.136-4.936-3.627-10.223-3.832-15.648-.218-5.399 1.008-10.946 3.937-15.542a24.104 24.104 0 0 1 1.863-2.579z"/></g><g><path fill="#c8ede5" d="M148.286 486.32c-2.443.022-4.906-.495-7.241-1.04-1.18-.346-2.325-.333-3.617-1.145-1.152-.781-1.866-2.003-2.27-3.212-.778-2.463-.735-4.971-.608-7.412.153-2.45.527-4.86.97-7.25 1.863-9.552 4.89-18.773 8.131-27.883 3.36-9.072 7.077-18.001 11.016-26.825 3.948-8.82 8.117-17.55 12.93-25.952l.723.403c-2.081 9.804-4.702 19.063-7.645 28.204-1.333 4.622-3.062 9.058-4.497 13.604-1.575 4.487-3.272 8.915-4.76 13.399-1.73 4.396-3.297 8.832-4.855 13.232-1.738 4.349-3.073 8.781-4.573 13.068-.716 2.15-1.255 4.316-1.777 6.386-.525 2.044-.846 4.158-.79 5.643-.007.762.038 1.186.09 1.534.05.082-.224.045-.046.207l.4.228.1.056.027.014c.057.018-.401-.11-.196-.05l.054.025.213.098c.57.253 1.122.548 1.664.834 1.088.565 2.154 1.124 3.228 1.617 1.083.544 2.114 1.023 3.356 1.39z"/></g><g><path fill="#dfc4b6" d="M169.408 480.635a72.395 72.395 0 0 1-2.93 1.948c-2.703 1.53-5.507 3.054-8.676 3.902-1.578.415-3.207.703-4.83.739-1.638-.024-3.226-.223-4.673-.765v-1.104c5.5-.035 10.217-3.494 14.194-7.19 3.159-2.912 6.047-6.134 8.81-9.47 0 0-1.671 4.555-1.922 6.125-.226 1.415.027 5.815.027 5.815z"/></g><g><path fill="#c8ede5" d="M220.524 348.302a49.725 49.725 0 0 1-.958-6.2c-.55-6.459.355-13.163 2.386-19.4 2.067-6.237 5.016-12.083 8.396-17.533 3.46-5.413 7.24-10.495 11.255-15.411 2.006-2.52 4.026-4.71 5.782-6.922a103.22 103.22 0 0 0 5.103-6.97c3.234-4.788 6.015-9.893 8.705-15.054 2.642-5.19 4.963-10.57 6.983-16.058 1.028-2.74 1.899-5.533 2.825-8.295.883-2.716 1.753-5.677 2.348-8.167l.326-1.354.584-.93c4.71-7.501 6.996-16.5 7.946-25.974.447-4.744.501-9.617.291-14.535-.13-4.925-.493-9.91-1.03-14.917-.564-5.003-1.226-10.039-1.873-15.11-.651-5.07-1.51-10.128-2.152-15.253-1.383-10.22-2.754-20.543-3.136-30.94l.813-.144c3.576 20.25 9.188 40.101 12.486 60.48 1.624 10.175 2.693 20.52 2.095 30.884-.573 10.319-3.048 20.764-8.5 29.735l.099-.246c-2.83 12.053-7.381 23.564-13.057 34.5-2.866 5.45-6.078 10.728-9.684 15.728-3.546 5.04-7.752 9.63-11.9 14.094-8.094 9.083-15.82 18.815-20.446 30.1-2.294 5.618-3.642 11.638-3.67 17.712-.05 1.792.06 3.576.25 5.358z"/></g><g><path fill="#c8ede5" d="M222.792 347.48c.46 4.262 1.38 8.515 1.659 12.863l-.824.07c-.636-3.027-1.438-5.923-2.314-8.9a66.273 66.273 0 0 1-.788-3.211z"/></g><g><path fill="#bc8658" d="M180.623 158.186c1.866 4.936 4.728 9.42 8.036 13.42 3.24 4.025 7.079 7.648 11.558 9.885 2.272 1.17 4.483 1.7 7.15 2.294 2.57.59 5.136 1.172 7.7 1.69 5.106 1.003 10.321 1.917 15.223 1.567 2.398-.185 4.846-.641 6.136-2.059 1.542-1.585 2.779-3.89 3.832-6.18 2.116-4.657 3.525-9.704 4.838-14.736 1.24-5.056 2.168-10.235 2.346-15.403.105-2.605.04-5.188-.493-7.72-.267-1.258-1.003-5.189-.785-4.001.721 1.128 1.06 2.55 1.408 3.83.958 2.575.915 5.239.958 7.882.01 5.307-.778 10.574-1.863 15.75-1.123 5.17-2.575 10.289-4.689 15.159-1.088 2.409-2.29 4.825-4.138 6.796-.908 1.02-2.193 1.644-3.46 2.032-1.28.413-2.613.604-3.94.711-5.338.312-10.597-.717-15.764-1.785-2.587-.554-5.159-1.17-7.728-1.792-2.566-.574-5.18-1.291-7.497-2.618-4.688-2.554-8.504-6.422-11.67-10.648-3.132-4.263-5.758-8.951-7.357-14.012z"/></g><g><path fill="#261109" d="M206.288 139.503c-1.917-2.529-5.542-3.158-8.44-2.796-3.047.303-5.428 2.145-7.722 3.623-2.321 1.493-4.448 3.179-6.446 4.963-1.982 1.824-3.905 3.651-5.72 5.6l.328.429c2.343-1.26 4.605-2.622 6.942-3.805 2.305-1.225 4.616-2.38 6.937-3.36 2.338-.98 4.82-1.276 6.899-2.166 2.18-.825 4.088-1.59 7.029-1.982z"/></g><g><path fill="#261109" d="M222.816 137.163c.216-.71.415-1.086.722-1.48.253-.39.576-.717.846-1.038.597-.632 1.232-1.215 1.857-1.848 1.315-1.173 2.155-3.026 3.571-4.482 1.4-1.44 2.94-2.817 4.578-4.08 1.632-1.295 3.382-2.435 5.337-3.21l-.08-.54c-2.268-.05-4.449.644-6.566 1.375a30.35 30.35 0 0 0-6.021 3.101c-1.885 1.247-4.12 2.417-5.272 4.74-.587 1.118-1.007 2.427-1.056 3.832a5.795 5.795 0 0 0 .329 2.113c.135.326.29.672.517.987.194.33.457.45.716.678z"/></g><g><path fill="#d39a68" d="M230.432 154.565c-2.68-2.029-5.283-4.211-7.441-6.823-1.05-1.322-1.976-2.768-2.57-4.361-.596-1.588-.785-3.349-.397-5.007l.135.03c.113 1.73.546 3.23 1.262 4.6.725 1.361 1.565 2.687 2.642 3.873.935 1.301 2.087 2.456 3.178 3.7 1.093 1.249 2.234 2.47 3.276 3.878z"/></g><g><path fill="#d09a6c" d="M230.412 154.592c-3.511-.945-6.433-2.991-8.762-5.769-1.105-1.429-2.09-3.07-2.51-4.961-.476-1.857-.207-3.982.851-5.497l.2.046c-.35 1.63-.138 3.338.47 4.878.61 1.547 1.54 2.952 2.599 4.236 2.085 2.612 4.637 4.833 7.276 6.903z"/></g><g><path fill="#c8ede5" d="M159.495 312.684c.752-.281 1.514-.54 2.286-.774 7.602-1.587 14.076-6.102 19.16-11.774 5.137-5.63 8.81-12.604 10.512-20.059 1.708-7.46 1.492-15.314-.2-22.823l.803-.197c4.713 6.877 6.749 15.674 5.806 24.456-.884 8.79-4.705 17.46-10.777 24.157-3.04 3.345-6.573 6.271-10.612 8.525-2.033 1.099-4.15 2.107-6.449 2.803a31.83 31.83 0 0 1-3.622.916l-2.72.305a47.316 47.316 0 0 0-5.312 1.064z"/></g><g><path fill="#c8ede5" d="M158.37 319.283c-4.971 1.277-10.147 3.33-15.691 5.758l-.571-.6c4.885-4.993 10.741-9.269 17.387-11.757z"/></g><g><path fill="#c8ede5" d="M101.962 538.92c-2.903-16.476-4.923-33.089-6.196-49.78l.158.375c-1.211-1.7-1.185-3.356-1.432-5.008-.159-1.65-.207-3.294-.216-4.932-.01-3.28.148-6.543.375-9.799.458-6.513 1.195-12.994 2.068-19.453 1.72-12.925 4.2-25.732 7.087-38.438 2.909-12.7 6.277-25.306 10.383-37.676 4.17-12.35 9.32-24.453 16.424-35.438l.694.45c-5.102 12.087-8.8 24.353-11.788 36.718-1.516 6.263-2.99 12.492-4.239 18.797a483.804 483.804 0 0 0-3.859 18.856c-2.574 12.566-4.668 25.234-6.737 37.846a359.654 359.654 0 0 0-1.325 9.47c-.468 3.146-.91 6.29-1.26 9.415-.355 3.122-.643 6.243-.77 9.25-.043 1.497-.14 2.975-.11 4.301.01.648.038 1.295.086 1.735.018.217.04.372.027.42-.062-.036-.027-.14-.665-.848l1.483 1.646.027 1.91.348 24.863.169 12.543c.07 4.19.072 8.401.081 12.637z"/></g><g><path fill="#c8ede5" d="M116.484 475.292c.353 3.021 1.527 5.269 3.021 7.6 1.411 2.34 3.097 4.722 4.546 7.32 1.572 2.547 2.774 5.345 3.99 8.155 1.105 2.853 1.966 5.805 2.714 8.773.59 3.005 1.097 6.015 1.336 9.04.144 3.037.307 6.05.032 9.06-.384 5.942-1.394 11.886-3.586 17.594l-.55-.025c.343-11.546.033-23.22-2.606-34.454-1.212-5.633-3.06-11.109-5.324-16.426-1.112-2.668-2.337-5.299-3.307-8.062-.972-2.728-1.561-5.796-.805-8.693z"/></g><g><path fill="#d18e42" d="M82.999 340.996c.791.213 1.454-.176 2.119-.588.667-.374 1.303-.847 1.946-1.297 1.266-.946 2.553-1.902 3.833-2.902 2.63-1.927 5.253-3.948 8.606-5.422l.15.143c-2.345 2.467-4.81 4.834-7.512 6.928-1.374 1.012-2.81 1.959-4.35 2.713-.772.371-1.57.703-2.415.9-.802.16-1.826.357-2.522-.33z"/></g><g><path fill="#f2ad3d" d="M133.971 330.996c-2.64 2.574-5.623 4.67-8.87 6.4-1.627.867-3.315 1.677-5.136 2.268-.91.31-1.844.594-2.833.838-.498.114-1.007.241-1.55.308-.627.058-.936.146-2.05.095l-1.535-.07-1.481-1.666c-1.155-1.297-2.547-2.664-3.82-3.96a55.318 55.318 0 0 0-3.897-3.78c-1.341-1.133-2.583-2.326-3.848-3.14-1.22-.843-2.47-1.246-2.55-1.352-.049-.051.113-.232-.07-.2-.197.111-.986.884-1.538 1.463-1.228 1.286-2.372 2.832-3.69 4.295-1.256 1.507-2.562 3.033-3.998 4.51-.69.758-1.47 1.467-2.278 2.172-.843.854-1.766.964-1.688 1.715l-.426.353c-.439-.55-.253-1.254.016-1.706.28-.469.598-.812.86-1.222a45.21 45.21 0 0 0 1.542-2.489l2.925-5.12c.985-1.707 1.987-3.408 3.11-5.049.576-.82 1.142-1.618 1.882-2.379a4.776 4.776 0 0 1 2.895-1.342c2.184-.172 4.128.784 5.835 1.798a29.777 29.777 0 0 1 4.734 3.673c2.89 2.738 5.474 5.735 7.858 8.907l-.31-.178c1.602.082 3.363-.205 5.028-.538a51.03 51.03 0 0 0 4.992-1.33c3.293-1.048 6.503-2.348 9.664-3.775z"/></g><g><path fill="#d18e42" d="M227.94 360.654c.377 6.28.429 12.58.041 18.865l-.01.156-.152.01c-9.298.513-18.58-.68-27.644-2.628-9.061-2.001-17.915-4.95-26.365-8.791-16.932-7.64-32.254-18.596-45.468-31.586l.195-.197c7.18 5.892 14.55 11.43 22.253 16.403 7.774 4.851 15.717 9.386 24.091 12.998 8.394 3.527 16.962 6.669 25.832 8.752 8.841 1.943 17.978 3.6 26.961 3.477l-1.265 1.301c.293-3.09.662-6.2.834-9.328.183-3.126.318-6.266.423-9.414z"/></g><g><path fill="#de9d4b" d="M227.79 360.94c-8.144 1.236-16.41.233-24.402-1.182-7.998-1.562-15.85-3.82-23.441-6.802a128.968 128.968 0 0 1-21.965-10.938c-6.91-4.458-13.58-9.623-18.83-16.275l4.081.221c-4.798 3.254-9.605 7.156-14.586 10.799l-.415-.363c4.063-4.546 8.202-9.025 12.844-13.027l.256-.218.24.245c5.568 5.643 12.171 10.178 19.016 14.17 6.875 3.974 14.078 7.359 21.392 10.456a204.906 204.906 0 0 0 22.482 7.906c7.64 2.135 15.43 4.004 23.354 4.455z"/></g><g><path fill="#d18e42" d="M127.308 612.722c.547-2.716-.285-5.417-1.03-8.092-.723-2.692-1.573-5.385-2.19-8.229-.748-2.749-.886-6.12-.721-8.924.15-2.877.433-5.703.708-8.53.694-5.634 1.473-11.239 2.641-16.789l1.79-8.313c.771-2.747 1.39-5.512 2.317-8.232l.274.04c-1.553 11.185-3.047 22.381-4.283 33.6-.322 2.804-.631 5.61-.857 8.418-.288 2.815-.221 5.601.277 8.386l1.48 8.34c.225 1.396.41 2.803.47 4.224.043 1.409.003 2.895-.622 4.214z"/></g><g><path fill="#d18e42" d="M95.186 628.52c1.287 1.175 2.752.585 4.322.243a63.6 63.6 0 0 0 4.473-1.233c2.919-.95 5.698-2.17 8.237-3.794 2.577-1.579 4.877-3.584 7.29-5.636 1.198-1.032 2.457-2.055 3.836-2.949.7-.428 1.428-.83 2.198-1.128.76-.259 1.4-.574 1.893-1.244-.194.786-.862 1.483-1.52 1.912-.613.47-1.192.972-1.733 1.524-1.098 1.077-2.105 2.267-3.18 3.433-2.106 2.364-4.516 4.645-7.32 6.422-2.819 1.74-5.958 2.97-9.179 3.538-1.607.308-3.226.445-4.854.494-.795-.041-1.573.05-2.47-.127-.854-.164-1.656-.722-1.993-1.454z"/></g><g><path fill="#f2ad3d" d="M102.573 538.814c2.741 7.704 5.234 15.351 7.693 22.923l1.915 5.638a174.627 174.627 0 0 1 1.896 5.874c1.125 3.981 2.021 8.062 2.6 12.282.437 4.225.615 8.63-.301 13.121-.91 4.457-3.22 8.921-6.255 12.027-1.47 1.591-2.92 3.002-4.28 4.348l-4.232 4.3c-1.435 1.396-2.85 2.81-4.144 4.29-.638.73-1.28 1.533-1.734 2.263-.499.761-.746 1.631-.375 2.522l-.34.238c-.646-.919-.576-2.147-.182-3.09.398-.976.937-1.827 1.49-2.681 1.111-1.697 2.334-3.307 3.578-4.895 2.474-3.176 5.1-6.272 7.685-9.329 2.542-3.086 4.32-6.75 4.966-10.687.683-3.923.517-7.963.021-11.928-.475-3.976-1.29-7.916-2.273-11.81-.972-3.893-2.219-7.735-3.19-11.656-2.013-7.816-3.585-15.735-4.947-23.678z"/></g><g><path fill="#c8ede5" d="M233.69 78.956c1.882 2.378 3.777 4.677 5.765 6.817a50.349 50.349 0 0 0 3.145 3.037l1.71 1.484a18.074 18.074 0 0 1 1.753 1.703c4.548 5.193 6.433 11.823 7.432 17.983 1.939 12.486 1.292 24.436 1.901 36.15.143 5.897.507 11.836.727 17.826.118 5.992.404 12.015.2 18.085a153.973 153.973 0 0 1-1.33 18.218c-1.035 6.032-2.096 12.057-4.196 17.787l-.544-.096c2.076-11.784 2.237-23.807 1.74-35.746-.502-11.955-1.581-23.885-2.104-35.87-.482-11.993.386-24.005-.718-35.883-.622-5.872-1.902-11.912-5.432-16.691-1.804-2.316-4.028-4.42-5.752-6.895-1.793-2.421-3.35-5.008-4.782-7.643z"/></g><g><path fill="#f2ad3d" d="M164.717 22.578c.277.946.98 1.49 1.756 2.008.754.516 1.591.944 2.466 1.303 1.748.72 3.56 1.314 5.41 1.693 1.818.432 3.673.739 5.377.764.84 0 1.657-.01 2.227-.146l2.933-.524c4.182-.702 8.544-1.027 13.494-.068 2.458.515 4.92 1.62 7.07 3.088l.652.45.825.63c.554.43.952.8 1.426 1.21.87.812 1.708 1.633 2.448 2.473 5.642 6.957 9.511 13.27 13.825 20.534 4.15 7.2 7.05 15.02 9.064 22.963l-.485.267c-3.813-7.103-7.548-14.217-12.166-20.798-2.265-3.308-4.71-6.511-7.05-9.788-2.366-3.25-4.685-6.548-7.319-9.528-2.56-3.022-5.751-5.528-9.594-6.47-3.813-.994-7.874-.878-11.854-.629-1.952.135-4.074.464-6.104.013-2.02-.354-3.97-.968-5.854-1.728-1.883-.768-3.706-1.693-5.392-2.85-.837-.582-1.64-1.23-2.342-1.997-.684-.74-1.339-1.732-1.363-2.824z"/></g><g><path fill="#d18e42" d="M275 111.8c.926-6.951-.864-13.907-3.415-20.271-2.566-6.41-5.907-12.498-9.85-18.195-1.96-2.856-4.06-5.616-6.236-8.318a157.914 157.914 0 0 0-6.611-8.05c-4.588-5.246-9.468-10.228-14.573-14.98-5.16-4.692-10.29-9.462-15.667-13.834-2.663-2.206-5.407-4.103-8.361-6.21-2.909-2.098-5.65-4.007-8.628-5.842-5.95-3.574-11.908-7.361-18.114-10.493-1.54-.786-3.102-1.547-4.624-2.176-.807-.319-1.403-.56-2.122-.69-.818-.16-1.424-.232-2.178-.23-1.409.035-2.663.402-3.724 1.214-1.043.78-1.904 2.21-2.265 3.506l-.097.342.02-.04-3.09 6.745.044-.14c-.706 2.643-.977 5.56-.862 8.432l-.41.063c-.374-2.898-.438-5.845.135-8.738l.003-.014.008-.02 2.601-6.918-.013.05c.34-1.806 1.19-3.493 2.526-4.764C170.827.952 172.66.278 174.47.172c3.705-.27 7.038 1.51 10.245 2.881 6.45 2.976 12.702 6.34 18.799 9.98 3.05 1.81 6.01 3.799 8.91 5.825 2.908 2.005 5.876 3.99 8.649 6.214 5.58 4.396 10.911 9.09 16.02 14.017 10.194 9.857 19.654 20.585 27.22 32.63 3.752 6.025 7 12.406 9.218 19.171 1.096 3.381 1.937 6.857 2.348 10.397.38 3.532.474 7.15-.487 10.647z"/></g><g><path fill="#f09d48" d="M233.625 78.925c8.11 3.975 15.336 9.095 22.326 14.514 3.439 2.782 6.872 5.569 10.074 8.652l4.788 4.636c1.488 1.68 3.077 3.236 4.47 5.032l-.173.216-41.657-32.832z"/></g><g><path fill="#21160c" d="M205.483 150.732a3.76 3.76 0 0 1-2.026 4.914 3.756 3.756 0 0 1-4.917-2.015 3.765 3.765 0 0 1 2.015-4.921c1.917-.8 4.12.105 4.928 2.022z"/></g><g><path fill="#21160c" d="M238.356 136.27a3.04 3.04 0 0 1-1.634 3.979 3.05 3.05 0 0 1-3.983-1.633 3.049 3.049 0 0 1 1.632-3.983 3.046 3.046 0 0 1 3.985 1.638z"/></g><g><path d="M204.914 151.3a1.64 1.64 0 1 1-3.279 0 1.64 1.64 0 0 1 3.279 0z"/></g><g><path fill="#fff" d="M201.646 150.848c.466-.157.952.03 1.082.417.13.39-.14.831-.61.989-.467.157-.954-.027-1.086-.414-.133-.39.142-.83.614-.992z"/></g><g><path fill="#301f10" d="M199.103 153.45c1.121.149 1.988.396 2.842.519.422.075.821.082 1.254.106.442.01.878-.096 1.457-.182a2.266 2.266 0 0 1-1.19 1.21c-.539.262-1.16.299-1.732.227-1.13-.215-2.13-.85-2.63-1.88z"/></g><g><path d="M237.554 136.743a1.302 1.302 0 1 1-2.6-.003 1.302 1.302 0 0 1 2.6.003z"/></g><g><path fill="#fff" d="M234.96 136.385c.37-.124.757.023.86.331.102.309-.111.659-.485.784-.372.125-.757-.02-.862-.327-.102-.31.116-.659.487-.788z"/></g><g><path fill="#301f10" d="M232.946 138.45c.803.23 1.498.525 2.222.61.722.144 1.39.033 2.181-.26-.232.341-.557.66-.983.808-.414.16-.87.17-1.303.132-.849-.181-1.632-.59-2.117-1.29z"/></g><g><path fill="#d09a6c" d="M232.998 156.674c-1.22-.714-2.426-1.48-3.341-1.383-.819.05-1.732.686-2.616 1.618-.993.792-1.89 1.826-2.962 2.693-1.066.878-2.191 1.726-3.513 2.317l-.098-.1c1.977-1.875 3.673-4.006 5.64-5.92.99-.883 2.22-1.866 3.689-1.672 1.432.23 2.44 1.344 3.303 2.355z"/></g><g><path fill="#4d807f" d="M243.975 192.57c-1.232 1.788-2.764 3.36-4.394 4.823-1.68 1.399-3.497 2.636-5.389 3.748-3.81 2.196-8.005 3.646-12.257 4.69-4.3.857-8.67 1.34-13.025 1.21a73.386 73.386 0 0 1-6.49-.504 87.593 87.593 0 0 1-6.365-1.248l.022-.137c8.476 1.184 17.19 1.224 25.556-.665 4.177-.922 8.26-2.33 12.062-4.298 3.775-1.985 7.38-4.458 10.173-7.702z"/></g><g><path fill="#c8ede5" d="M186.587 234.794c.288 3.421.517 6.36 1.126 8.998.374 1.306.641 2.545 1.188 3.673.45 1.15 1 2.23 1.718 3.217 1.281 2.072 3.11 3.885 5.223 5.742 2.147 1.838 4.637 3.553 7.295 5.722l-.096.401c-3.06-.688-6.083-1.696-8.833-3.276-2.752-1.546-5.261-3.647-7.041-6.318-1.77-2.677-2.67-5.875-2.747-9.048-.105-3.184.608-6.341 1.78-9.248z"/></g><g><path fill="#c8ede5" d="M252.501 247.894c-.71 2.48-1.871 4.914-3.519 6.965a20.431 20.431 0 0 1-5.967 5.12c-4.653 2.466-10.13 3.39-15.255 2.352l.086-.544c2.798-1.527 4.958-2.615 6.99-3.642l5.502-2.985c1.723-.958 3.35-1.924 5.222-3.054 1.838-1.202 3.746-2.555 6.425-4.397z"/></g><g><path fill="#f2ad3d" d="M117.536 530.192c-2.17-2.624-4.284-5.295-6.263-8.051-1.936-2.773-3.956-5.546-5.273-8.608l-.718-1.675-.214 1.797-2.975 25.16.55.07c.996-2.002 1.895-4.016 2.614-6.053.8-2.027 1.398-4.08 2.052-6.125.063-.21.108-.42.167-.628a131.93 131.93 0 0 0 2.744 3.406 150.788 150.788 0 0 0 3.635 3.806c2.488 2.455 5.098 4.77 7.914 6.866 2.788 2.118 5.72 4.083 8.994 5.67l.393-.388c-4.707-4.93-9.268-10.006-13.62-15.247z"/></g><g><g><path fill="#b67649" d="M243.374 193.28c.449-.485.668-.77.668-.77-1.38-6.784-.084-17.842 0-18.531-1.517 4.55-3.31 8.493-5.211 11.003-.857 1.185-1.737 2.04-2.648 2.508-6.48 3.365-18.89.331-31.297-2.674a19.116 19.116 0 0 1-3.28-1.103c.77 2.122 1.295 4.246 1.488 6.287.443 4.195-.427 8.106-2.865 11.36 12.53-11.041 30.703-4.175 43.145-8.08z"/></g><g><g><path fill="#b67649" d="M243.374 193.28c.449-.485.668-.77.668-.77-1.38-6.784-.084-17.842 0-18.531-1.517 4.55-3.31 8.493-5.211 11.003-.857 1.185-1.737 2.04-2.648 2.508-6.48 3.365-18.89.331-31.297-2.674a19.116 19.116 0 0 1-3.28-1.103c.77 2.122 1.295 4.246 1.488 6.287.443 4.195-.427 8.106-2.865 11.36 12.53-11.041 30.703-4.175 43.145-8.08z"/></g><g clip-path="url(#ygvga)"><g><path fill="#b67649" d="M180.787 158.133c1.61 4.997 4.244 9.639 7.376 13.843 3.158 4.168 6.961 7.963 11.558 10.431 2.29 1.288 4.768 1.95 7.37 2.52 2.571.607 5.142 1.206 7.723 1.74 5.148 1.037 10.393 2.015 15.572 1.68 2.518-.222 5.248-.672 6.944-2.482 1.742-1.829 2.962-4.205 4.042-6.57 2.114-4.79 3.593-9.878 4.74-15.01 1.109-5.138 1.924-10.378 1.944-15.626-.028-2.626-.227-5.251-.894-7.773-.334-1.255-.803-2.479-1.487-3.56-.665-1.053-1.663-2.052-2.798-2.293l.055-.55c1.561.082 2.82 1.068 3.812 2.152.95 1.137 1.632 2.445 2.173 3.77 1.08 2.635 1.657 5.501 2.045 8.23.549 5.62.21 11.122-.614 16.563-.762 5.47-2.163 10.794-4.237 16.195-1.135 2.715-2.355 5.352-4.938 8.219-.337.357-.727.72-1.155 1.075-.256.196-.399.326-.767.572l-.692.432c-1.124.598-1.845.891-2.766 1.19-1.753.575-3.412.818-5.006.962-6.337.282-11.735-.886-17.054-2.092-2.635-.672-5.215-1.399-7.773-2.128l-1.915-.548c-.64-.204-1.516-.426-2.219-.73a25.428 25.428 0 0 1-4.169-2.111c-5.237-3.22-8.94-7.767-11.835-12.512a55.091 55.091 0 0 1-3.527-7.508c-1.001-2.544-1.734-5.214-2.035-7.914z"/></g></g></g></g><g><path fill="#cd9963" d="M201.58 183.689c2.667 3.29 3.851 7.8 2.994 12.235-.468 2.192-1.459 4.323-2.972 5.97-1.462 1.684-3.407 2.834-5.455 3.4l-.113-.172c3.306-2.225 5.816-5.683 6.516-9.612.824-3.903.153-7.993-1.163-11.754z"/></g><g><path fill="#a65f41" d="M218.716 174.183s17.346 2.087 20.585-10.374"/></g><g><g><g><g><path fill="#fbae39" d="M225.786 225.617l-7.29-.167-10.809 27.382 7.308.353z"/></g><g><path fill="#fbae39" d="M235.47 254.176l-7.383-.357-4.716-13.763a6.535 6.535 0 0 1 .084-4.43l3.017-7.942z"/></g></g></g></g></g></g></svg>