<svg xmlns="http://www.w3.org/2000/svg" width="373" height="427" viewBox="0 0 373 427"><g><g><g><path fill="#f4fffd" d="M0 206C0 106.036 81.036 25 181 25s181 81.036 181 181-81.036 181-181 181S0 305.964 0 206z"/></g><g><g><g><g><path fill="#fbae39" d="M363.942 407.325s7.326 2.7 8.965 6.322c0 0-4.82 1.156-24.424.368-15.96-.682-21.8 1.522-26.948.268-7.383-1.79-1.965-3.527-.227-21.685-13.975-21.917-17.752-35.854-18.138-46.784 10.158-1.59 17.445-9.907 21.165-15.206a42.465 42.465 0 0 0 2.795-4.513s2.295 41.886 3.122 54.187c.303 1.752.612 3.448.927 5.087 1.286 6.902 16.648 21.302 32.763 21.956z"/></g><g><path fill="#fbae39" d="M352.146 138.365s2.41 7.306-12.895 19.7a75.587 75.587 0 0 0-6.015 5.473s-1.407 4.166-4.49 5.804l-.098 4.106 5.878-1.93s-.077 4.282-4.026 5.995c-1.716.753-3.163 1.255-4.57 1.389-1.35-2.62-2.852-5.106-4.454-7.594-1.502-2.332-3.083-4.666-4.701-7.074 2.727-3.97 9.405-7.172 9.405-7.172 1.59-10.35 6.304-14.13 6.304-14.13a62.022 62.022 0 0 1 13.3-3.863 51.142 51.142 0 0 1 6.362-.704z"/></g><g><path fill="#cefaf2" d="M308.485 121.384c-2.18 10.543-1.986 21.703 1.62 31.11a37.073 37.073 0 0 0 3.373 6.709c1.1 1.736 2.217 3.392 3.297 5.03 1.618 2.41 3.2 4.743 4.701 7.075a45.936 45.936 0 0 1-1.818 13.338v.02c-7.228 1.735-18.179 3.432-32.904 3.144-3.463-5.168-8.05-9.524-14.095-11.256-.866-1.347-1.927-2.176-3.275-2.985 3.652-8.15 5.927-14.83 4.184-22.772-3.334-15.111-15.498-34.994-15.498-34.994-6.11 9.503-14.361 25.31-19.624 30.904 0 0 .52.657 1.564 1.831 0 0-7.867 2.139-20.647 2.273v-.077c.559-2.795 1.563-6.188 2.583-9.947 4.607-16.752 10.526-18.406 16.5-35.814.193-.58.405-1.157.618-1.698.307-.79.616-1.54.946-2.254 11.816-8.097 32.613-10.226 41.963-10.776 3.409.328 6.631.057 9.444-.965 2.97.29 13.303.85 22.072-3.198a9.45 9.45 0 0 1 4.454 3.102c8.807 11.085 11.362 16.443 17.724 30.573 3.45 7.653 7.576 14.052 10.119 19.294a62.018 62.018 0 0 0-13.3 3.863s-9.38-12.973-15.711-23.44c-1.364-2.256-2.604-4.414-3.547-6.282-.598 3.236-2.293 5.994-4.743 8.192z"/></g><g><path fill="#cefaf2" d="M316.775 164.234c-1.08-1.639-2.198-3.295-3.297-5.031a37.069 37.069 0 0 1-3.373-6.708c-1.802-4.707-2.75-9.851-2.976-15.137-23.563-5.003-29.784 22.79-28.582 41.962 3.263 2.172 5.976 5.156 8.214 8.49 14.727.288 25.678-1.41 32.904-3.143v-.02a45.938 45.938 0 0 0 1.818-13.34c-1.509-2.33-3.09-4.665-4.708-7.073z"/></g><g><path fill="#fbae39" d="M330.23 181.235c4.065 8.863 3.99 13.803 3.99 13.803s-.946.366-2.7.909a131.52 131.52 0 0 1-19.322 4.45 134.516 134.516 0 0 1-18.738 1.56c-10.58.134-22.321-1.061-34.04-4.838-.454-.136-.909-.29-1.35-.454l3.336-9.6c2.466 1.022 4.772 1.254 6.554-.578a188.13 188.13 0 0 0 18.813 1.311c14.727.289 25.677-1.409 32.904-3.143a75.655 75.655 0 0 0 7.903-2.333c1.763-.643 2.65-1.086 2.65-1.086z"/></g><g><path fill="#cefaf2" d="M332.156 203.905c.328 20.374 1.58 60.66-4.703 85.798-2.466 9.868 1.483 16.036-1.966 28.238-.868 3.066-1.214 7.46-1.157 12.667-3.72 5.299-11.007 13.606-21.165 15.206-.386-10.698 2.486-18.524 2.273-28.161-.212-8.828.636-15.248.116-20.413-1.66-17.022-8.656-35.778-9.999-72.923.83-6.574.85-10.543.85-10.543 7.883-1.968 11.237-6.902 11.237-6.902s2.063-2.236 4.606-6.135l-.057-.348a131.527 131.527 0 0 0 19.322-4.447c.39 2.637.606 5.297.643 7.963z"/></g><g><path fill="#cefaf2" d="M327.568 182.315v.018c-2.59.921-5.228 1.7-7.903 2.334v-.02a45.932 45.932 0 0 0 1.818-13.34c1.59 2.5 3.104 4.975 4.454 7.595a70.23 70.23 0 0 1 1.631 3.413z"/></g><g><path fill="#337772" d="M316.775 119.475s-.682 14.148-6.67 33.02c-3.606-9.408-3.8-20.568-1.62-31.111 2.45-2.198 4.145-4.956 4.743-8.192.943 1.868 2.176 4.026 3.547 6.283z"/></g><g><path fill="#cefaf2" d="M312.198 200.396l.057.348c-2.543 3.892-4.606 6.135-4.606 6.135s-3.354 4.934-11.237 6.901a78.456 78.456 0 0 0-2.954-11.816 134.516 134.516 0 0 0 18.74-1.568z"/></g><g><path fill="#261109" d="M302.24 36.722c-4.953-1.754-9.002-5.552-11.432-12.78.465-.032.931-.006 1.389.077.288-2.622-1.098-4.974-1.098-4.974l-.29-.288c-9.213-17.91-28.633-9.485-28.633-9.485-3.933.559-4.935 8.771-4.935 8.771s-8.365.309-11.412 7.383c-10.485 5.28-13.686 17.831-32.131 26.178-18.445 8.346-26.769 7.014-26.769 7.014-1.744.167-3.5.16-5.242-.02-14.07-1.33-16-14.032-7.576-19.217 9.369-5.765 9.869 1.231 9.869 1.231s-6.417-5.338-7.401 3.568c-.984 8.905 34.022 1.94 42.35-13.646 8.328-15.586 23.71-22.38 47.765-28.298 24.055-5.917 28.22 11.76 28.22 11.76s20.704 15.361 13.687 28.99c0 0 8.18 23.652-13.55 38.072a29.787 29.787 0 0 1-1.005-3.297c1.448-.443 1.93-1.177 2.777-2.738.482-.887 1.1-2.045 2.045-3.566 3.316-5.263 4.725-10.66 5.65-14.938 1.522-6.94-.116-7.865-.116-7.865l-.116-.154c1.754-1.33 1.677-2.834 1.677-2.834s-1.136-1.59-3.702-1.698a8.058 8.058 0 0 0 .79-4.47 7.576 7.576 0 0 0-.81-2.776z"/></g><g><path fill="#008581" d="M297.98 84.564c3.874 1.216 10.39-.327 15.498 1.525-8.779 4.047-19.102 3.488-22.072 3.206a14.257 14.257 0 0 0 6.574-4.73z"/></g><g><path fill="#fff" d="M302.259 43.968c2.563.098 3.702 1.698 3.702 1.698s.077 1.504-1.677 2.834a7.727 7.727 0 0 1-1.66.924c-3.449 1.446-6.3-.056-7.344-.615 0 0 .696-3.636 4.82-4.627a7.426 7.426 0 0 1 2.159-.214z"/></g><g><path fill="#d69659" d="M293.526 65.89a7.117 7.117 0 0 1-.289-3.993 14.602 14.602 0 0 0 3.586-1.29c-.481-.866-.963-1.407-1.445-1.695-4.222-4.627-4.545-10.951-3.16-14.246 0 0 1.501-4.897 10.832-5.165a8.058 8.058 0 0 1-.791 4.47 7.426 7.426 0 0 0-2.159.213c-4.124.984-4.82 4.627-4.82 4.627 1.043.559 3.895 2.06 7.345.616a7.724 7.724 0 0 0 1.658-.925l.116.154s1.639.925.116 7.865c-.925 4.279-2.333 9.676-5.649 14.939-.943 1.522-1.56 2.679-2.045 3.565"/></g><g/><g><path fill="#d69659" d="M283.196 51.776s-2.157 2.45-5.65 2.798c-3.492.347-8.037-3.625-8.037-3.625s4.645-4.983 9.233-4.008c4.588.975 5.136 3.776 4.454 4.838zm10.33 14.114a7.117 7.117 0 0 1-.277-4.002 32.555 32.555 0 0 1-5.34.696c3.586-2.332 5.61-4.838 7.48-3.682-4.222-4.626-4.549-10.95-3.16-14.245 0 0 1.502-4.897 10.832-5.165a7.575 7.575 0 0 0-.809-2.777c-4.954-1.754-9.003-5.551-11.432-12.78-5.84.348-11.68 9.078-20.933 17.118-2.602 2.272-5.474 5.654-8.694 9.317-1.505 3.854.463 9.58 4.51 14.727a34.713 34.713 0 0 0 3.74 4.008 32.47 32.47 0 0 0 8.442 5.572c7.46 3.295 11.49 4.55 16.173 3.084 1.447-.443 1.93-1.177 2.777-2.738.984-3.477-.77-3.932-.77-3.932z"/></g><g><path fill="#d69659" d="M291.406 89.295c-2.813 1.023-6.033 1.293-9.444.966-5.09-.482-10.582-2.272-15.845-4.82 6.167-1.733 7.517-7.614 3.315-16.326a32.473 32.473 0 0 0 8.453 5.562c7.46 3.295 11.49 4.545 16.173 3.084.27 1.117.606 2.218 1.004 3.297.482 1.309 1.118 2.62 1.773 3.006.367.206.755.373 1.156.5a14.257 14.257 0 0 1-6.585 4.731z"/></g><g><path fill="#cefaf2" d="M295.55 224.317c-1.733 13.635-6.919 38.403-22.514 61.972-3.892 5.88-2.272 14.862-7.285 23.133-4.608 7.633-6.613 19.815-9.544 36.335-.752-8.114-4.029-20.703-4.029-20.703s-14.611 12.357-18.313 27.141h-.018c-.886-21.647 3.136-32.306 11.543-42.427 2.1-2.545 3.104-6.843 3.604-10.928.503-4.127.482-8.058.58-9.794 1.945-41.75 1.445-64.75 8.48-87.764.455-1.427.91-2.815 1.35-4.163 11.719 3.777 23.46 4.972 34.04 4.838a78.466 78.466 0 0 1 2.954 11.817s-.018 3.97-.847 10.543z"/></g><g><path fill="#c6854f" d="M295.383 58.91c.481.288.963.829 1.445 1.694a14.604 14.604 0 0 1-3.586 1.291 32.554 32.554 0 0 1-5.34.696c3.581-2.332 5.606-4.838 7.48-3.682z"/></g><g><path fill="#2d130c" d="M261.181 50.37c-2.39 2.727-4.954 5.57-7.767 8.25l-.098.096c-6.033 5.763-13.127 10.64-21.55 11.18 9.137-1.272 13.127-8.944 21.069-21.937 7.98-13.03 15.613-28.489 19.276-30.764 3.663-2.274 10.467-6.63 18.697 1.562l.291.288s1.386 2.352 1.098 4.974a5.585 5.585 0 0 0-1.389-.077c-5.84.348-11.68 9.078-20.933 17.118-2.602 2.272-5.474 5.647-8.694 9.31z"/></g><g><path fill="#fff" d="M278.742 46.938c4.588.964 5.147 3.777 4.454 4.838 0 0-2.18 2.448-5.65 2.795-3.47.348-8.037-3.624-8.037-3.624s4.645-4.972 9.233-4.009z"/></g><g><path fill="#cefaf2" d="M272.659 176.554c6.054 1.737 10.641 6.093 14.111 11.26a188.125 188.125 0 0 1-18.813-1.311c4.404-4.613 7.49-5.672 4.702-9.949z"/></g><g><path fill="#2d130c" d="M245.818 25.426c3.047-7.074 11.412-7.383 11.412-7.383s1.002-8.212 4.935-8.771c0 0 19.431-8.424 28.632 9.485-8.23-8.181-15.054-3.818-18.697-1.562-3.643 2.257-11.296 17.725-19.277 30.764-7.953 12.993-11.932 20.665-21.069 21.937a24.63 24.63 0 0 1-7.826-.734c-7.787 1.564-11.257-.682-11.257-.682 32.704-.772 30.95-28.495 32.165-39.257.127-1.31.458-2.59.982-3.797z"/></g><g><path fill="#337772" d="M273.568 150.797c1.754 7.953-.52 14.611-4.181 22.767-2.954-1.754-7.345-3.393-14.573-10.026a200.985 200.985 0 0 1-14.804-14.997 48.051 48.051 0 0 1-1.564-1.832c5.263-5.59 13.514-21.397 19.624-30.904-.011.007 12.153 19.88 15.498 34.992z"/></g><g><path fill="#fbae39" d="M256.21 179.847c-4.03-2.854-4.36-5.513-4.36-5.513-.576-.25-1.154-.52-1.733-.752-26.62-10.525-37.435-22.862-37.435-22.862 2.352.098 4.57.136 6.67.098 12.78-.137 20.646-2.273 20.646-2.273 4.67 5.255 9.611 10.261 14.805 14.998 7.228 6.633 11.62 8.271 14.572 10.026 1.348.809 2.41 1.638 3.275 2.985 2.797 4.282-.289 5.34-4.702 9.949-1.774 1.831-4.09 1.59-6.553.577-3.702-1.466-7.726-4.645-10.776-5.05-.002-.004 2.563-3.958 5.59-2.183z"/></g><g><path fill="#008581" d="M281.962 90.252c-9.35.56-30.15 2.68-41.964 10.776a31.73 31.73 0 0 1 3.027-5.438h.018c5.908-8.46 13.666-9.174 20.279-9.694a14.85 14.85 0 0 0 2.795-.455c5.263 2.536 10.755 4.33 15.845 4.811z"/></g><g><path fill="#261109" d="M269.432 69.105c4.202 8.713 2.852 14.594-3.315 16.327-.915.24-1.851.393-2.795.455-6.613.52-14.362 1.234-20.279 9.694h-.018c-30.323 12.223-48.674 8.233-66.91-.634 1.002.307 17.331 5.088 39.287-5.745v-.02c13.705-1.59 33.713-9.387 50.29-24.087a34.714 34.714 0 0 0 3.74 4.01z"/></g><g><path fill="#fbae39" d="M260.18 416.517c6.553 6.362 6.689 9.369 3.7 9.369h-10.602c-6.785 0-6.88-2.005-11.276-4.954-4.394-2.95-3.933-5.513-1.986-20.451-3.635-20.722-5.667-36.22-6.167-48.288h.018c3.702-14.784 18.313-27.141 18.313-27.141s3.277 12.588 4.03 20.703c-.637 3.565-1.312 7.344-2.064 11.335-4.49 23.671-3.238 33.328-3.47 42.213 0 .003 1.909 9.872 9.503 17.214z"/></g><g><path fill="#337772" d="M261.395 187.075l-3.336 9.601 1.35.455a158.365 158.365 0 0 0-1.35 4.163c-7.035 23.003-6.533 46.002-8.48 87.743-.098 1.736-.078 5.667-.58 9.794-15.69 3.863-29.357-28.86-39.44-22.613-10.082 6.247-30.676-.654-36.278-12.161-5.601-11.508-7.878-24.974-25.964-27.923-18.086-2.95-20.047-23.999-20.047-23.999 56.54 1.311 90.398-74.947 111.783-108.853-.214.54-.425 1.118-.618 1.697-5.974 17.407-11.894 19.063-16.5 35.815-1.02 3.759-2.025 7.151-2.584 9.946v.078c-2.1.038-4.317 0-6.669-.098 0 0 10.814 12.337 37.435 22.862.58.227 1.157.502 1.734.752 0 0 .33 2.659 4.358 5.513-3.027-1.775-5.59 2.18-5.59 2.18 3.045.404 7.074 3.583 10.776 5.048z"/></g><g><path fill="#337772" d="M273.568 150.797c-1.707-7.726-5.722-16.702-9.237-23.633a377.033 377.033 0 0 1-12.805 33.293c1.04.995 2.12 2.013 3.283 3.081 6.547 6.008 10.765 7.917 13.696 9.528 2.068-6.59 3.906-13.243 5.426-19.997-.102-.752-.204-1.51-.363-2.272z"/></g><g><path fill="#337772" d="M240.928 149.59a431.766 431.766 0 0 0 18.883-30.788c-1.073-1.88-1.752-2.99-1.752-2.99-6.11 9.503-14.361 25.31-19.624 30.904 0 0 .52.657 1.563 1.831.27.305.586.662.93 1.043z"/></g><g><path fill="#337772" d="M212.682 150.72c2.352.098 4.57.136 6.67.098v-.078c.558-2.795 1.563-6.187 2.583-9.946 4.606-16.752 10.526-18.406 16.5-35.815.193-.58.404-1.156.618-1.697-21.385 33.906-55.244 110.164-111.783 108.853 0 0 1.966 21.029 20.047 23.999 5.243.854 9.13 2.613 12.182 4.933 26.414-22.974 50.383-48.556 71.157-76.865-12.534-7.324-17.974-13.482-17.974-13.482z"/></g><g><path fill="#337772" d="M258.059 201.282c.454-1.427.909-2.815 1.35-4.163-.455-.136-.91-.29-1.35-.454l3.336-9.6c-3.702-1.467-7.726-4.646-10.776-5.05 0 0 2.563-3.954 5.59-2.18-4.029-2.853-4.358-5.512-4.358-5.512-.577-.25-1.155-.52-1.734-.752a164.396 164.396 0 0 1-3.863-1.59c-17.2 36.073-39.705 69.563-65.594 100.24 8.635 6.106 21.553 8.553 28.9 4.002 4.826-2.988 10.473 2.954 16.77 9.528 7.85-28.507 20.208-54.991 30.94-81.767.253-.9.514-1.8.789-2.702z"/></g><g><path fill="#2d130c" d="M261.181 50.37c-1.504 3.863.455 9.58 4.51 14.727-16.587 14.707-36.584 22.496-50.289 24.087-1.936.257-3.89.36-5.842.31-5.86-.137-9.696-1.819-10.312-4.955-1.041-5.474 1.213-7.98 3.951-8.694 2.41-.636 5.186.116 6.363 1.445 0 0-5.706.541-4.395 3.761 1.311 3.22 26.853-.33 48.152-22.342l.097-.095c2.811-2.675 5.381-5.527 7.765-8.244z"/></g><g><path fill="#261109" d="M231.756 69.896c8.424-.54 15.518-5.417 21.551-11.18-21.298 22.013-46.81 25.542-48.151 22.342-1.34-3.2 4.395-3.76 4.395-3.76-1.175-1.33-3.952-2.082-6.363-1.446-7.749 1.85-13.32 1.909-13.32 1.909s-13.8.909-30.07-9.426a25.558 25.558 0 0 1-4.202-3.258c-10.256-9.735-2.7-20.906-2.7-20.906-3.45 11.362 16.27 22.648 28.78 14.438v-.02c1.742.18 3.498.187 5.242.02 0 0 8.29 1.33 26.757-7.017 18.468-8.346 21.647-20.906 32.131-26.177a12.598 12.598 0 0 0-.981 3.797c-1.205 10.773.55 38.496-32.143 39.257 0 0 3.47 2.257 11.257.682 2.55.665 5.189.916 7.817.745z"/></g><g><path fill="#261109" d="M209.56 89.5v.023c-22.149 3.297-49.02-9.001-53.953-24.442a25.562 25.562 0 0 0 4.202 3.259c16.27 10.332 30.07 9.425 30.07 9.425s5.572-.059 13.32-1.908c-2.738.713-4.999 3.22-3.951 8.694.616 3.138 4.451 4.813 10.312 4.949z"/></g><g><path fill="#bfefe6" d="M295.66 224.247c.93 5.07 1.545 10.126 2.527 15.134.816 5.02 1.734 9.998 2.66 14.98 1.896 9.95 4.13 19.755 6.159 29.86.454 2.541.886 5.104 1.24 7.702.325 2.636.712 5.133.682 8.037-.127 5.42-.622 10.346-.861 15.36l-.152 3.828a42.842 42.842 0 0 1-.4 4.02c-.391 2.622-.91 5.167-1.473 7.667-.604 2.5-1.202 4.951-1.672 7.437-.47 2.486-.834 5-1.098 7.544l-.386.014c-.527-10.303 2.865-20.278 2.152-30.495-.077-5.115.336-10.226.266-15.302-.187-5.052-1.15-10.092-2.08-15.093-1.922-9.999-4.021-20.024-5.385-30.152a292.154 292.154 0 0 1-2.565-30.514z"/></g><g><path fill="#d9f9f3" d="M255.843 345.771c-.056-5.908.275-11.728.802-17.622.682-5.863 1.464-11.817 3.904-17.865.57-1.496 1.482-3.134 1.916-4.145a23.665 23.665 0 0 0 1.213-3.357c.682-2.377 1.016-4.98 1.405-7.9.438-2.898.931-6.225 2.727-9.85.227-.454.48-.89.756-1.328l.598-.953 1.113-1.792c.714-1.16 1.418-2.389 2.111-3.59 2.891-4.773 5.402-9.772 7.727-14.873 2.438-5.061 4.41-10.333 6.435-15.623a260.467 260.467 0 0 0 9.471-33.095h.577c-.386 11.66-2.5 23.178-5.68 34.37a144.46 144.46 0 0 1-13.537 32.127c-1.434 2.5-3.136 4.999-4.583 7.373-1.303 2.477-1.818 5.34-2.343 8.18-.525 2.841-1.018 5.75-1.961 8.547a26.066 26.066 0 0 1-1.741 4.072c-.716 1.302-1.482 2.489-2.081 3.795-2.466 5.2-3.793 10.88-5.022 16.532-1.23 5.651-2.191 11.389-3.234 17.1z"/></g><g><path fill="#d9f9f3" d="M323.97 330.605a49.55 49.55 0 0 1-.99-8.635 24.04 24.04 0 0 1 .298-4.545c.205-1.323.337-2.656.396-3.994.454-5.304-.857-10.162-1.284-16.425a34.87 34.87 0 0 1 .027-4.795c.118-1.59.495-3.354.752-4.633.496-2.597.91-5.315 1.234-8.015a232.667 232.667 0 0 0 1.67-16.406c.534-5.508.827-11.062 1.161-16.63.44-5.567.607-11.157 1.062-16.763.327-5.603.788-11.228 1.256-16.868.305-2.822.537-5.646.896-8.475.359-2.83.618-5.543.715-8.408l.573-.087c.877 5.627.664 11.299.866 16.923.12 5.637.213 11.28.227 16.922.043 11.282-.161 22.58-1.004 33.858-.473 5.63-1.114 11.25-2.046 16.832-.47 2.79-1.024 5.565-1.688 8.324a30.775 30.775 0 0 0-1.136 8.248c-.023 2.79.254 5.6.33 8.435a40.856 40.856 0 0 1-.585 8.501 42.623 42.623 0 0 1-.97 4.15 27.496 27.496 0 0 0-.777 4.09 68.606 68.606 0 0 0-.4 8.408z"/></g><g><path fill="#dd8c2c" d="M318.059 412.7c.82.835 2.01 1.01 3.106 1.256 1.108.217 2.237.302 3.365.252 2.257-.043 4.545-.359 6.831-.609a104 104 0 0 1 13.882-.645l13.802.595c2.295.106 4.591.173 6.888.2a64.67 64.67 0 0 0 6.897-.093c-4.52 1.086-9.188 1.211-13.796 1.363-4.608.153-9.269-.045-13.83-.152-4.56-.107-9.141 0-13.734.193-2.3.068-4.615.227-6.97.075a15 15 0 0 1-3.462-.698c-1.073-.354-2.31-.747-2.98-1.738z"/></g><g><path fill="#dd8c2c" d="M303.222 345.816c.468 2.1.893 4.148 1.468 6.165.575 2.018 1.22 3.988 1.905 5.94 1.383 3.902 3 7.7 4.758 11.442.909 1.856 1.777 3.738 2.727 5.58l2.904 5.518a576.404 576.404 0 0 0 6.113 10.944l.438.763-.1.646a84.853 84.853 0 0 1-.973 5.171c-.374 1.714-.874 3.41-1.388 5.075-.514 1.665-1.211 3.288-1.84 4.883-.321.798-.641 1.59-.891 2.37s-.512 1.561-.168 2.302l-.228.168c-.552-.788-.434-1.765-.3-2.595.134-.83.373-1.684.589-2.51.438-1.657.866-3.31 1.23-4.977A82.674 82.674 0 0 0 321 392.579l.037.146c-4.568-7.126-8.83-14.489-12.13-22.308-3.311-7.783-5.727-16.081-5.967-24.587z"/></g><g><path fill="#dd8c2c" d="M332.468 143.017a26.792 26.792 0 0 0-1.698 3.492 35.958 35.958 0 0 0-1.24 3.552c-.407 1.175-.664 2.397-.982 3.6a116.533 116.533 0 0 0-.764 3.674l-.175.895-.77.373-2.55 1.234c-.843.454-1.715.86-2.554 1.331a34.634 34.634 0 0 0-4.958 3.127l-.16-.11c1.15-1.656 2.696-2.974 4.3-4.155a37.582 37.582 0 0 1 5.118-3.116l-.1.134a31.374 31.374 0 0 1 2.086-7.61 23.57 23.57 0 0 1 1.817-3.513c.688-1.13 1.53-2.16 2.5-3.058z"/></g><g><path fill="#dd8c2c" d="M328.541 173.387l2.918-1.039 2.954-.909.045.137a4.429 4.429 0 0 1-2.558 2.136 4.38 4.38 0 0 1-3.325-.196z"/></g><g><path fill="#ea9c34" d="M334.542 171.519c-.1 2.088-1.04 4.2-2.779 5.474-.89.62-1.89.943-2.86 1.307-.982.36-2.004.6-3.043.713l-.028-.186a29.47 29.47 0 0 1 2.545-1.943c.41-.307.812-.511 1.27-.802.347-.187.677-.403.987-.646a10.91 10.91 0 0 0 1.775-1.558c.588-.643 1.197-1.4 1.936-2.357z"/></g><g><path fill="#ea9c34" d="M352.244 138.31c.552 2.848-.604 5.55-1.877 7.936-1.343 2.4-3.065 4.544-4.924 6.558a55.153 55.153 0 0 1-6.024 5.544 74.04 74.04 0 0 0-6.04 5.404l.066-.11a14.09 14.09 0 0 1-1.818 3.355 8.597 8.597 0 0 1-2.84 2.547l.122-.197-.14 4.115h-.387a34.196 34.196 0 0 1-1.15-4.145l-.07-.334.843-.91a8.966 8.966 0 0 0 1.59-2.542c.194-.482.373-.975.546-1.463a7.69 7.69 0 0 0 .359-1.41l.025-.272.613-.777a40.54 40.54 0 0 1 5.909-6.174c1.936-1.738 3.944-3.35 5.778-5.104.961-.836 1.857-1.722 2.727-2.615a37.14 37.14 0 0 0 2.563-2.727c1.573-1.904 3.182-3.884 3.754-6.544z"/></g><g><path fill="#008581" d="M239.144 103.384l-9.033 18.384c-3.077 6.094-6.197 12.18-9.544 18.158-3.277 6.022-6.88 11.871-10.578 17.684a240.363 240.363 0 0 1-12.089 16.815c-4.379 5.372-9.007 10.583-14.088 15.375-5.127 4.733-10.583 9.2-16.625 12.814a70.921 70.921 0 0 1-19.315 8.312c-6.817 1.61-13.862 2.295-20.692 1.391l.01-.386a61.33 61.33 0 0 0 20.068-2.94c6.472-2.069 12.59-5.164 18.252-8.908 11.35-7.526 20.906-17.457 29.375-28.064 8.523-10.614 16.004-22.042 23.071-33.674 7.067-11.633 13.623-23.599 20.863-35.165z"/></g><g><path fill="#2d130c" d="M308.621 42.96a26.992 26.992 0 0 1 2.786 10.76 29.706 29.706 0 0 1-1.486 11.225c-1.268 3.604-3.215 7-5.835 9.746a33.33 33.33 0 0 1-4.215 3.729c-1.564 1.027-3.13 2.018-4.845 2.727l-.107-.162a36.037 36.037 0 0 0 8.006-7.228 30.498 30.498 0 0 0 5.183-9.433 33.567 33.567 0 0 0 1.79-10.614 36.166 36.166 0 0 0-1.447-10.68z"/></g><g><path fill="#2d130c" d="M181.669 58.703a17.92 17.92 0 0 1-9.397 3.208 23.206 23.206 0 0 1-9.937-1.775c-3.129-1.288-6.19-3.181-8.237-6.071-2.063-2.789-2.934-6.818-1.363-9.91l.184.057c-.455 3.308.736 6.324 2.713 8.691a22.353 22.353 0 0 0 7.328 5.825 21.917 21.917 0 0 0 9.287 2.22 17.316 17.316 0 0 0 9.317-2.411z"/></g><g><path fill="#c6854f" d="M265.842 85.278c2.022-.516 3.938-1.693 4.897-3.568 1.018-1.922 1.011-4.23.609-6.362-.402-2.132-1.202-4.222-2.143-6.215l.261-.123c1.189 1.881 2.227 3.915 2.825 6.158.597 2.243.88 4.772-.196 7.251-.79 1.775-2.297 3.095-3.956 3.947z"/></g><g><path fill="#008581" d="M239.5 101.255c1.702-3.863 4.016-7.544 7.302-10.283 3.435-2.926 7.878-4.374 12.27-4.878 2.196-.339 4.447-.253 6.558-.762l.228-.054 2.297 1.09a10.88 10.88 0 0 1-2.061.803 20.722 20.722 0 0 1-3.538.663c-1.084.146-2.148.3-3.181.493-4.147.78-7.929 2.089-10.81 4.736a22.192 22.192 0 0 0-4.538 5.592z"/></g><g><path fill="#bfefe6" d="M244.027 98.655a33.97 33.97 0 0 0-2.122 4.33c-.412.963-.78 1.917-1.137 2.94a80.744 80.744 0 0 1-1.19 3.181 67.865 67.865 0 0 1-2.798 6.247c-2.108 4.067-4.599 7.869-6.985 11.46a59.023 59.023 0 0 0-5.797 11.52c-1.59 4.05-3.101 8.28-4.563 12.432l-.284-.056c.925-4.34 2.17-8.574 3.395-12.833a59.72 59.72 0 0 1 5.302-12.173c2.188-3.844 4.59-7.548 6.478-11.539a81.318 81.318 0 0 0 2.616-6.067c.797-2.056 1.427-4.174 2.295-6.229.086-.204.173-.409.264-.613z"/></g><g><path fill="#de995e" d="M295.26 58.941a15.018 15.018 0 0 1-3.556-6.724c-.539-2.5-.564-5.176.397-7.574l.089.039a18.826 18.826 0 0 0-.1 3.736c.063 1.209.248 2.409.552 3.581a18.6 18.6 0 0 0 1.075 3.468c.48 1.163 1.018 2.3 1.613 3.408z"/></g><g><path fill="#db9963" d="M295.242 58.957a8.251 8.251 0 0 1-3.04-2.704 10.843 10.843 0 0 1-1.819-7.885 7.097 7.097 0 0 1 1.691-3.734l.134.057c-.909 2.372-.843 5.027-.273 7.472a14.839 14.839 0 0 0 3.409 6.699z"/></g><g><g><path fill="#e5c4b5" d="M261.51 49.895c-1.433 3.083-.465 6.66.91 9.637 1.431 3.043 3.506 5.76 5.867 8.149a32.575 32.575 0 0 0 8.103 5.935c3.022 1.443 6.179 2.788 9.387 3.709 1.59.486 3.245.716 4.906.681a12.228 12.228 0 0 0 2.445-.352c.82-.207 1.591-.427 2.123-.97 1.045-1.136 1.68-2.843 2.595-4.259a49.488 49.488 0 0 0 2.536-4.399c1.47-3.04 2.6-6.233 3.368-9.521.428-1.634.761-3.291 1-4.963.114-.828.157-1.664.129-2.5-.039-.786-.177-1.752-.645-2.206l.188-.339c.91.652 1.09 1.623 1.345 2.5.172.892.268 1.796.287 2.704.054 1.818-.16 3.559-.328 5.283-.454 3.463-1.21 7.004-2.624 10.378a42.85 42.85 0 0 1-1.136 2.55l-1.196 2.218c-.372.702-.709 1.4-1.081 2.177-.373.777-.716 1.695-1.886 2.967a6.244 6.244 0 0 1-2.173 1.455c-.397.15-.263.115-.827.295l-.754.227c-1.04.276-2.107.445-3.182.507a19.524 19.524 0 0 1-6.103-.704 44.658 44.658 0 0 1-5.158-1.905c-1.632-.722-3.159-1.338-4.872-2.293-3.257-1.895-6.215-4.206-8.585-7.026a28.782 28.782 0 0 1-5.56-9.426c-.562-1.752-.969-3.583-.964-5.453.004-1.87.454-3.804 1.545-5.204z"/></g></g><g><path fill="#c6854f" d="M261.4 49.847c-1.191 3.22-.098 6.64 1.42 9.503 1.5 2.938 3.61 5.55 5.992 7.817 2.42 2.23 5.049 4.24 7.971 5.695 2.938 1.381 6.154 2.727 9.237 3.583 1.496.468 3.056.694 4.622.67a11.224 11.224 0 0 0 2.273-.309 8.207 8.207 0 0 0 1.081-.32c.244-.097.467-.239.657-.418.396-.364.793-1.086 1.2-1.818.407-.732.832-1.504 1.284-2.245.94-1.536 1.807-2.81 2.58-4.295 1.56-2.915 2.696-6.067 3.6-9.305.506-1.602.92-3.232 1.241-4.881.153-.818.238-1.647.255-2.48 0-.797-.018-1.729-.534-2.315l.07-.125c.682.66.716 1.59.796 2.422.034.853-.003 1.708-.112 2.555a44.438 44.438 0 0 1-.974 4.999 46.101 46.101 0 0 1-3.334 9.619c-.755 1.52-1.59 3-2.5 4.433a62.01 62.01 0 0 0-1.231 2.223c-.4.747-.784 1.524-1.411 2.151-.628.628-1.52.898-2.33 1.105-.83.212-1.681.34-2.538.382a16.188 16.188 0 0 1-5.07-.657c-3.276-.964-6.396-2.322-9.46-3.806a32.95 32.95 0 0 1-8.164-6.072c-2.375-2.432-4.452-5.192-5.885-8.287a17.432 17.432 0 0 1-1.52-4.868c-.228-1.68-.119-3.472.647-5.015z"/></g><g><path fill="#23160a" d="M281.946 50.174a2.727 2.727 0 1 1-5.448.244 2.727 2.727 0 0 1 5.448-.244z"/></g><g><path fill="#261109" d="M284.528 43.194a20.277 20.277 0 0 1-5.034.881c-1.52.153-2.988-.497-4.545-.58a23.801 23.801 0 0 0-4.649.192c-1.591.2-3.132.691-4.545 1.452l-.297-.343c1.054-1.387 2.56-2.423 4.138-3.252a18.902 18.902 0 0 1 5.097-1.65c1.745-.313 3.606-.863 5.376-.298 1.738.52 3.46 1.425 4.615 3.182z"/></g><g><path d="M280.996 49.81a1.136 1.136 0 1 1-2.272-.022 1.136 1.136 0 0 1 2.272.023z"/></g><g><path fill="#fff" d="M278.708 49.497a.527.527 0 1 1-.427.682.582.582 0 0 1 .427-.682z"/></g><g><path fill="#261109" d="M293.338 43.446a1.575 1.575 0 0 1-.164-.618c-.007-.24.014-.48.064-.716.107-.452.3-.88.568-1.259a5.506 5.506 0 0 1 1.908-1.684c1.434-.834 3.034-.618 4.459-.593 1.433.023 2.86.208 4.251.552 1.364.384 2.752.807 3.904 1.66l-.156.33a13.407 13.407 0 0 0-3.918-.142 27.844 27.844 0 0 0-3.802.554c-1.245.273-2.32.977-3.408 1.098l-1.607.252a6.442 6.442 0 0 0-1.25.355c-.147.056-.322.227-.502.327z"/></g><g><path fill="#23160a" d="M302.906 46.439c.185 1.154-.51 2.272-1.547 2.479-1.036.206-2.027-.553-2.211-1.707-.184-1.154.511-2.272 1.552-2.484 1.04-.21 2.027.553 2.206 1.712z"/></g><g><path d="M302.2 46.618c0 .523-.35.948-.784.948-.434 0-.786-.425-.786-.948 0-.523.352-.95.786-.95.434 0 .784.425.784.95z"/></g><g><path fill="#fff" d="M300.732 46.07a.393.393 0 1 1-.318.519.434.434 0 0 1 .318-.519z"/></g><g><path fill="#db9963" d="M296.71 60.643c-.732-.611-1.446-1.254-2.045-1.288-.534-.055-1.207.25-1.9.763-.752.402-1.468.982-2.286 1.423-.818.485-1.7.854-2.62 1.095l-.052-.082c1.533-1.004 2.91-2.213 4.44-3.247.761-.455 1.695-.97 2.645-.668.95.302 1.456 1.182 1.91 1.956z"/></g><g><path fill="#bfefe6" d="M313.41 85.919a10.335 10.335 0 0 1 3.426 1.974c1.011.889 1.745 1.989 2.575 2.998a132.003 132.003 0 0 1 4.676 6.324c2.995 4.317 5.504 8.95 7.758 13.682 2.254 4.73 4.206 9.603 6.59 14.243 2.384 4.64 5.074 9.15 7.385 13.861l-.259.125c-1.645-2.097-3.122-4.238-4.75-6.333-1.524-2.145-3.026-4.317-4.394-6.612-2.84-4.607-4.897-9.413-7.192-14.046-2.175-4.706-4.46-9.203-7.044-13.634l-4-6.665-.99-1.709a10.409 10.409 0 0 0-.993-1.513 11.708 11.708 0 0 0-2.895-2.42z"/></g><g><path fill="#008581" d="M297.941 84.523c2.5.694 5.145.455 7.726.47 2.582.017 5.227.137 7.701 1.017l-.031.09a46.637 46.637 0 0 0-3.852-.174c-1.268 0-2.534-.035-3.82.03-1.286-.067-2.593-.035-3.91-.2-1.319-.167-2.677-.433-3.84-1.137z"/></g><g><path fill="#fed6a6" d="M294.02 77.763c.337 1.331.77 2.637 1.292 3.906.239.641.552 1.251.934 1.818.375.57 1.073.798 1.695 1.041l-.03.093c-.378.037-.76.023-1.135-.04-.364-.042-.857-.387-1.123-.642-.59-.574-.886-1.256-1.23-1.897a11.717 11.717 0 0 1-.54-2.07 6.46 6.46 0 0 1 .043-2.18z"/></g><g><path fill="#bfefe6" d="M287.884 125.542c-4.265 1.393-9.07 1.722-13.425.155a14.49 14.49 0 0 1-5.618-3.89 16.535 16.535 0 0 1-3.333-5.909l.361-.132c2.045 1.618 3.652 2.954 5.227 3.993 1.489.936 3.067 1.72 4.712 2.343a45.585 45.585 0 0 0 5.331 1.56c1.977.442 4.107.823 6.631 1.516z"/></g><g><path fill="#dd8c2c" d="M250.487 182.008a7.09 7.09 0 0 1 2.402-2.338 3.274 3.274 0 0 1 3.275.111l-.073.125a6.327 6.327 0 0 0-1.543.511c-.354.196-.65.337-.993.539-.933.498-1.926.875-2.954 1.123z"/></g><g><path fill="#bfefe6" d="M258.154 115.925c-3.238 5.172-6.192 10.517-9.264 15.8a197.763 197.763 0 0 1-4.85 7.788c-1.667 2.56-3.408 5.099-5.517 7.355v-.284l1.534 1.836-.288.255a19.073 19.073 0 0 1-2.255-1.273l-.436-.295.491-1.136c1.209-2.784 2.395-5.527 3.686-8.254 1.334-2.695 2.756-5.358 4.351-7.953 1.596-2.595 3.307-5.122 5.315-7.499 2.01-2.377 4.161-4.69 6.9-6.571z"/></g><g><path fill="#bfefe6" d="M269.13 173.5c2.059-4.713 4.029-9.56 4.522-14.67.593-5.127-.909-10.162-2.59-14.998a127.68 127.68 0 0 0-5.947-14.257 187.38 187.38 0 0 0-7.288-13.647l.33-.203c3.824 3.754 6.933 8.024 9.678 12.519 1.424 2.224 2.595 4.585 3.801 6.949 1.137 2.39 2.13 4.863 3.068 7.383a59.364 59.364 0 0 1 2.068 7.912c.418 2.866.502 5.847-.096 8.655-1.086 5.666-3.876 10.367-7.198 14.514z"/></g><g><path fill="#bfefe6" d="M309.585 200.25a.69.69 0 0 1-.073 0c-.47.755-.925 1.519-1.424 2.255l-1.041 1.511-1.023 1.448-.261.368.066-.123a12.9 12.9 0 0 1-1.743 2.238 18.466 18.466 0 0 1-2.273 2.127A20.966 20.966 0 0 1 299.21 212a64.727 64.727 0 0 1-2.922 1.65l.075.279a23.22 23.22 0 0 0 6.251-2.515c1.936-1.16 3.734-2.573 5.134-4.404l-.02.025c1.7-1.93 3.257-3.98 4.66-6.136v-.033c.166-.35.325-.703.488-1.055-1.083.188-2.179.354-3.29.44z"/></g><g><path fill="#bfefe6" d="M319.836 184.56a47.287 47.287 0 0 0 1.715-13.246h-.29c-.271 1.137-.519 2.232-.753 3.325-.234 1.093-.563 2.165-.895 3.222-.561 2.032-1.234 4.006-1.945 5.951-.228.387-.43.789-.643 1.182.938-.136 1.877-.275 2.81-.434z"/></g><g><path fill="#ea9c34" d="M265.249 425.215c.24-.518 0-1.054-.273-1.552a10.502 10.502 0 0 0-1.077-1.418 31.218 31.218 0 0 0-2.688-2.526c-.955-.83-1.93-1.498-2.97-2.36a33.167 33.167 0 0 1-2.988-2.853c-1.882-2.018-3.409-4.334-4.752-6.733a36.229 36.229 0 0 1-3.1-7.845l-.052-.21v-.494c-.047-4.302-.3-8.892-.12-13.489.156-4.594.621-9.171 1.393-13.702.34-2.273.818-4.497 1.331-6.72.514-2.222 1.057-4.428 1.705-6.612 1.268-4.359 2.645-8.635 4.292-12.914l.38.066c-1.484 8.862-3.366 17.66-4.34 26.586-.51 4.454-.844 8.929-.946 13.408-.102 4.478 0 8.964-.111 13.475v-.073a36.835 36.835 0 0 0 6.362 13.707c1.489 2.07 3.425 3.731 5.161 5.654.876.95 1.67 1.973 2.377 3.056.36.55.652 1.142.872 1.761.2.602.34 1.404-.127 2.013z"/></g><g><path fill="#dd8c2c" d="M239.482 418.585c.807.909 1.782 1.5 2.825 2.045a27.315 27.315 0 0 1 3.027 1.981c.968.682 1.845 1.33 2.84 1.664a10.98 10.98 0 0 0 3.204.595c1.12.1 2.295.08 3.49.111a74.15 74.15 0 0 1 3.561.162c1.187.088 2.375.168 3.561.279l1.782.205c.554.066 1.147.09 1.624-.303-.31.546-1.022.766-1.624.839l-1.782.204a93.333 93.333 0 0 1-3.56.28c-2.4.125-4.689.257-7.19.145a12.126 12.126 0 0 1-3.745-.83 10.892 10.892 0 0 1-3.113-2.192c-.878-.811-1.7-1.616-2.61-2.365-.908-.75-1.835-1.682-2.29-2.82z"/></g><g><path fill="#dd8c2c" d="M233.922 352.186c.486 2.013.834 4.013 1.256 6.01.423 1.998.814 3.984 1.203 5.972a657.784 657.784 0 0 1 2.158 11.935c.641 3.988 1.364 7.953 1.907 11.973.62 3.997 1.136 8.017 1.625 12.043l.054.455-.04.207c-.58 3.008-1.221 6-1.853 8.964-.311 1.48-.67 2.954-.861 4.42-.157 1.463-.273 2.927.243 4.354l-.248.15c-.831-1.364-.979-2.975-1.002-4.497.01-1.535.099-3.068.266-4.593.31-3.045.711-6.074 1.089-9.105v.066c-1.436-7.992-2.809-16.005-3.847-24.065-1.039-8.06-1.932-16.134-2.241-24.266z"/></g><g><path fill="#bfefe6" d="M259.52 197.194c-3.181 12.953-4.224 26.04-4.797 39.199l-1.197 39.723-.5 9.967c-.084 1.688-.193 3.295-.239 4.917-.059 1.68-.13 3.409-.307 5.124-.354 3.457-.85 6.956-2.124 10.533a19.66 19.66 0 0 1-1.205 2.69c-.249.461-.525.908-.827 1.336-.288.416-.603.812-.943 1.187a58.22 58.22 0 0 0-3.013 3.674c-7.749 9.964-9.708 23.405-10.396 36.644l-.386.016c-.27-6.637-.196-13.332.931-19.913 1.09-6.574 3.53-12.97 7.354-18.463 1.802-2.838 4.426-5.058 5.296-8.264 1.037-3.111 1.45-6.417 1.7-9.706l.81-19.896c.592-13.267.979-26.549 2.017-39.806 1.039-13.257 3.027-26.514 7.462-39.084z"/></g><g><path fill="#bfefe6" d="M321.313 174.912c-1.46-1.787-2.914-3.566-4.368-5.381-1.775-2.11-3.381-4.363-5.067-6.602a42.406 42.406 0 0 1-4.468-7.655 43.018 43.018 0 0 1-2.5-8.565c-.436-2.92-.731-5.84-.577-8.746.187-5.795 1.439-11.485 3.88-16.636l.377.077a65.52 65.52 0 0 0-1.232 16.404c.314 5.474 1.416 10.933 3.593 15.95 1.047 2.534 2.431 4.877 3.963 7.178l4.556 6.908c.757 1.146 1.505 2.3 2.243 3.466z"/></g><g><path fill="#bfefe6" d="M321.717 171.31c2.218 3.51 4.29 7.124 5.951 10.937l-.35.161c-2.008-2.586-4.01-5.05-6.005-7.499z"/></g><g><path fill="#bfefe6" d="M313.241 113.155c1.911 2.334 3.768 4.627 5.486 7.017 1.76 2.361 3.408 4.79 5.056 7.229 1.59 2.477 3.206 4.935 4.633 7.53l2.154 3.89c.628 1.364 1.352 2.657 1.916 4.07l-.157.114a487.257 487.257 0 0 1-10.153-14.543c-3.215-4.958-6.406-9.948-9.105-15.225z"/></g><g><path fill="#ea9c34" d="M327.241 326.1c1.073 18.058 2.111 36.13 3.311 54.168v-.041c.366 1.888.661 3.863 1.066 5.68.536 1.78 1.59 3.425 2.727 4.948 2.336 3.042 5.203 5.68 8.29 7.976 6.18 4.545 13.509 7.88 21.237 8.264H363.945a30.724 30.724 0 0 1 5.035 2.518c1.559 1.014 3.154 2.18 4.02 3.947l-.352.162c-1.027-1.498-2.688-2.339-4.263-3.161a29.241 29.241 0 0 0-5.04-1.848l.454.094c-4.113.288-8.24-.523-12.15-1.773a45.813 45.813 0 0 1-10.998-5.517c-3.368-2.368-6.59-5-9.256-8.422-1.32-1.74-2.59-3.526-3.433-6.156-.255-.893-.284-1.24-.391-1.738l-.282-1.434a68.181 68.181 0 0 1-.52-2.879l-.041-.243v-.134c-.228-4.545-.514-9.055-.63-13.584-.116-4.53-.266-9.049-.227-13.582-.039-4.53.055-9.065.184-13.603.27-4.544.339-9.09.807-13.634z"/></g><g><path fill="#ea9c34" d="M303.05 345.632c5.26-.89 9.998-3.701 13.875-7.271a47.722 47.722 0 0 0 9.955-12.346l.34.175c-.088 3.036-1.076 5.774-2.424 8.287-.634 1.296-1.504 2.427-2.345 3.595a34.362 34.362 0 0 1-2.954 3.163 31.294 31.294 0 0 1-3.534 2.602c-1.3.7-2.59 1.434-4.033 1.848-2.806.945-5.924 1.252-8.808.322z"/></g><g><path fill="#ea9c34" d="M254.73 335.32a216.42 216.42 0 0 0-2.295-10.35l-.134-.539-.42.364a68.43 68.43 0 0 0-11.106 12.393c-3.17 4.545-5.844 9.544-7.18 14.957l.375.096c1.5-2.452 2.988-4.709 4.572-6.875a105.217 105.217 0 0 1 4.956-6.244 65.104 65.104 0 0 1 2.613-2.984c.9-.968 1.74-1.99 2.652-2.954.606-.615 1.21-1.259 1.818-1.897l1.536 4.56c.63 1.65 1.172 3.318 1.836 4.97.604 1.668 1.297 3.313 1.99 5.02l.384-.036a103.121 103.121 0 0 0-1.597-10.48z"/></g><g><path fill="#dd8c2c" d="M257.9 196.654l1.58-4.83 1.753-4.771.182.063c.317.903.443 1.862.37 2.816a9.112 9.112 0 0 1-1.658 4.801 6.893 6.893 0 0 1-2.045 1.98z"/></g><g><path fill="#bfefe6" d="M286.52 187.898c.025.048.048.098.07.148.696 0 1.392.03 2.09.068-.167-.339-.33-.682-.496-1.018l-.068-.139-.055-.077c-1.838-2.609-4.056-5-6.699-6.863-1.313-.924-2.674-1.8-4.183-2.363a16.869 16.869 0 0 0-4.58-1.19l-.054.184a21.748 21.748 0 0 1 7.979 4.37c2.313 1.999 4.332 4.316 5.996 6.88z"/></g><g><path fill="#bfefe6" d="M294.717 201.55l-.014-.031c-.52.153-1.061.23-1.604.227.043.093.086.186.132.28a79.184 79.184 0 0 1 2.99 11.763l.191-.029c.06-2.077-.21-4.118-.44-6.174a53.615 53.615 0 0 0-1.255-6.035z"/></g><g><path fill="#2d130c" d="M294.899 13.923a29.64 29.64 0 0 1 7.34 4.943 32.178 32.178 0 0 1 5.798 6.83c1.555 2.59 2.834 5.509 3.068 8.665a14.77 14.77 0 0 1-.375 4.658c-.477 1.484-1.125 2.888-2.115 4.016l-.17-.09a13.162 13.162 0 0 0 1.185-8.339c-.497-2.82-1.715-5.472-3.23-7.896a43.007 43.007 0 0 0-5.266-6.801 55.924 55.924 0 0 0-6.351-5.829z"/></g><g><path fill="#261109" d="M183.834 40.696c-1.252-.88-2.829-1.622-4.258-1.315-1.43.306-2.08 1.908-2.334 3.36-.118.725-.25 1.591-.136 2.155.152.607.56 1.12 1.118 1.404 1.17.682 2.738.836 4.233.87 3.043.07 6.147-.436 9.162-1.168a56.266 56.266 0 0 0 8.83-2.974c5.63-2.5 11.185-5.647 14.976-10.26.464-.568.895-1.162 1.29-1.78.384-.59.728-1.258 1.125-1.976a41.123 41.123 0 0 1 2.62-4.2 41.626 41.626 0 0 1 6.617-7.369c5.032-4.317 10.892-7.408 16.88-9.817a127.326 127.326 0 0 1 18.394-5.68C268.441.413 275.234-.91 281.694.808a18.983 18.983 0 0 1 8.496 4.85 18.034 18.034 0 0 1 4.738 8.319l-.188.043a17.66 17.66 0 0 0-4.966-7.933 18.216 18.216 0 0 0-8.312-4.306c-3.083-.718-6.294-.748-9.437-.386-3.143.36-6.22 1.197-9.294 1.99-6.135 1.616-12.237 3.452-18.109 5.863-5.871 2.41-11.502 5.472-16.274 9.646a40.08 40.08 0 0 0-6.39 7.001 39.468 39.468 0 0 0-2.545 4.004 22.528 22.528 0 0 1-2.636 4c-4.165 4.899-9.903 8.13-15.766 10.52a57.915 57.915 0 0 1-9.121 2.818c-3.111.664-6.295 1.12-9.492.95-1.58-.118-3.231-.33-4.622-1.209a2.922 2.922 0 0 1-1.363-1.972c-.096-.834.093-1.616.247-2.4.162-.793.463-1.55.889-2.238a3.009 3.009 0 0 1 1.96-1.382c1.667-.252 3.2.612 4.457 1.56z"/></g><g><path fill="#2d130c" d="M176.035 94.856c3.24.909 6.636 1.211 9.999 1.266a56.55 56.55 0 0 0 10.062-.807c6.658-1.059 13.123-3.234 19.186-6.192l.086.172c-1.363 1.082-2.843 1.932-4.318 2.834a64.564 64.564 0 0 1-4.667 2.222 44.994 44.994 0 0 1-9.976 2.866c-3.435.567-6.928.71-10.398.425-3.459-.286-6.917-1.06-10.033-2.602z"/></g><g><path fill="#331e0d" d="M277.115 51.476c.784.103 1.388.278 1.986.362.29.043.584.068.877.075a6.557 6.557 0 0 0 1.018-.128 1.59 1.59 0 0 1-.831.846c-.38.168-.801.223-1.212.159a2.5 2.5 0 0 1-1.838-1.314z"/></g><g><path fill="#331e0d" d="M299.416 47.727c.534.207.993.454 1.477.511.235.047.477.047.711 0a3.05 3.05 0 0 0 .753-.245 1.384 1.384 0 0 1-.639.597c-.287.12-.601.159-.909.112a2.102 2.102 0 0 1-1.393-.975z"/></g><g><path fill="#412211" d="M292.097 24.167c-1.752-.307-3.5.289-5 1.182s-2.885 2.045-4.194 3.258c-2.609 2.423-5.034 5.05-7.567 7.572a138.99 138.99 0 0 1-3.863 3.72c-1.316 1.22-2.677 2.358-3.904 3.654-2.459 2.57-4.75 5.315-7.115 7.992-4.75 5.312-9.771 10.573-15.936 14.315-3.072 1.852-6.445 3.264-9.999 3.893a25.293 25.293 0 0 1-10.684-.454l.07-.28c7.19.909 13.907-1.286 19.438-5.117a56.78 56.78 0 0 0 7.815-6.604c2.46-2.422 4.822-4.999 7.133-7.678 2.383-2.62 4.699-5.35 7.321-7.974a49.213 49.213 0 0 1 2.105-1.927l2.045-1.704 3.965-3.463c2.625-2.354 5.25-4.793 8.137-7.065 1.475-1.095 3.02-2.159 4.745-2.954a10.391 10.391 0 0 1 2.727-.864 6.59 6.59 0 0 1 2.802.228z"/></g><g><g><path fill="#e5c4b5" d="M297.984 84.6a14.68 14.68 0 0 1-6.976 4.923c-2.747.925-5.68 1.12-8.557.909-5.765-.493-11.283-2.457-16.448-4.945l.064-.13c1.41.37 2.765.839 4.158 1.177a57.07 57.07 0 0 0 4.109 1.1c2.74.634 5.474 1.246 8.228 1.364 2.708.304 5.449.12 8.092-.543a14.544 14.544 0 0 0 3.777-1.502c1.25-.628 2.33-1.477 3.444-2.445z"/></g></g><g><path fill="#008581" d="M290.94 89.318a14.504 14.504 0 0 0 6.942-4.81l.11.093c-.657 1.293-1.678 2.445-2.784 3.458-.62.508-1.28.964-1.973 1.364z"/></g><g><path fill="#bfefe6" d="M293.228 89.427c-.623.36-1.268.68-1.931.96-2.852 1.151-5.958 1.333-8.933 1.204a38.514 38.514 0 0 1-5.388-.973l6.031-.43c2.668.164 5.379-.036 7.924-.87z"/></g><g><path fill="#008581" d="M276.976 90.618a30.257 30.257 0 0 1-3.251-1.04 52.393 52.393 0 0 1-4.006-1.79 36.72 36.72 0 0 1-3.725-2.294l.064-.13c5.172 2.44 10.68 4.347 16.406 4.786l.543.038z"/></g><g><path fill="#008581" d="M286.68 90.107a145.29 145.29 0 0 0-24.104 2.65 89.42 89.42 0 0 0-11.732 3.078c-3.815 1.323-7.55 2.966-10.907 5.227l-.055-.078A38.287 38.287 0 0 1 245 97.633a55.069 55.069 0 0 1 5.594-2.5c3.825-1.466 7.801-2.454 11.785-3.318 4.002-.756 8.042-1.299 12.102-1.627 2.03-.14 4.059-.247 6.09-.302 2.045 0 4.068.027 6.095.127z"/></g><g><path fill="#008581" d="M290.51 89.161c1.964-.118 3.896-.209 5.818-.356 1.922-.148 3.833-.26 5.726-.557a56.224 56.224 0 0 0 5.668-.873c1.886-.352 3.744-.836 5.651-1.331l.04.086c-3.544 1.64-7.377 2.584-11.243 3.075a52.218 52.218 0 0 1-11.673.052z"/></g><g><path fill="#bfefe6" d="M310.742 100.962c1.224 2.19 2.227 4.567 2.65 7.078a14.707 14.707 0 0 1-.598 7.558 15.488 15.488 0 0 1-4.459 6.136 21.562 21.562 0 0 1-6.558 3.758l-.104-.27c1.967-1.837 3.726-3.466 5.174-5.204 1.447-1.739 2.568-3.513 3.24-5.431.75-1.89 1.023-3.943 1.055-6.176.031-2.234-.344-4.604-.657-7.31z"/></g><g><path fill="#ea9c34" d="M332.368 142.853a61.827 61.827 0 0 1 9.628-3.23 53.097 53.097 0 0 1 10.062-1.349v.191a37.75 37.75 0 0 1-4.843 1.732c-1.59.497-3.18.881-4.772 1.292-3.215.73-6.403 1.42-9.998 1.532z"/></g><g><path fill="#dd8c2c" d="M334.181 195.133c-6.097 2.16-12.396 3.684-18.75 4.856a136.68 136.68 0 0 1-19.262 2.114c-12.912.418-25.962-1.136-38.208-5.327l.062-.182c3.18.682 6.3 1.405 9.484 1.85 3.154.555 6.324.98 9.506 1.24 6.362.564 12.725.85 19.088.494 6.374-.093 12.725-.802 19.063-1.668 3.18-.411 6.337-.945 9.484-1.57 3.182-.53 6.31-1.252 9.465-1.988z"/></g><g><path fill="#ea9c34" d="M267.887 186.305c10.453 1.175 20.983 1.59 31.46.91a142.41 142.41 0 0 0 15.614-1.9c5.136-.978 10.292-2.228 15.064-4.318l.252-.11.107.228a56.628 56.628 0 0 1 2.59 6.776c.682 2.323 1.278 4.68 1.364 7.142h-.384c-.264-1.16-.736-2.288-1.136-3.392a87.75 87.75 0 0 0-1.432-3.248c-.49-1.068-1.08-2.095-1.609-3.138-.53-1.043-1.122-2.045-1.729-3.056l3.14 1.111c-2.629 1.493-5.072 2.436-7.673 3.402a90.481 90.481 0 0 1-7.863 2.206 116.72 116.72 0 0 1-8.005 1.364c-2.684.332-5.377.49-8.067.627a100.845 100.845 0 0 1-16.07-.72c-5.309-.728-10.565-1.766-15.662-3.5z"/></g><g><path fill="#dd8c2c" d="M256.493 178.947a12.769 12.769 0 0 1-2.115-2.393c-.27-.415-.514-.847-.732-1.293a3.656 3.656 0 0 1-.348-1.102l.087-.727-1.027-.513c-3.486-1.734-6.87-3.325-10.206-5.156-3.38-1.696-6.637-3.604-9.889-5.484-3.231-1.92-6.363-3.988-9.421-6.135a87.466 87.466 0 0 1-4.336-3.306 131.18 131.18 0 0 0 7.953-.766 57.236 57.236 0 0 0 6.852-1.325 45.103 45.103 0 0 0 6.655-2.065l-.077-.28c-4.436 1.07-9 1.618-13.557 1.952-4.563.31-9.14.358-13.71.143l-.579-.027.394.418c2.651 2.834 5.655 5.247 8.746 7.542 3.106 2.27 6.34 4.361 9.687 6.26a130.817 130.817 0 0 0 10.244 5.29c3.445 1.637 7.01 3.018 10.512 4.493.275 1.166.909 2.13 1.63 3.009a14.287 14.287 0 0 0 2.587 2.363 26.173 26.173 0 0 0 6.204 3.17l.102-.27c-2.036-1.128-4.004-2.327-5.656-3.798z"/></g><g><path fill="#ea9c34" d="M240.066 148.42c4.136 4.645 8.547 9.042 13.1 13.275a77.167 77.167 0 0 0 7.093 6.018 56.506 56.506 0 0 0 7.935 4.808c2.706 1.363 5.717 3.665 5.767 7.23-.273 1.798-1.668 2.866-2.74 3.939a105.003 105.003 0 0 0-3.38 3.229c-1.208 1.188-3.072 1.438-4.61 1.054-1.57-.345-3-1.045-4.379-1.777l-4.074-2.286c-1.364-.725-2.761-1.447-4.254-1.682l.048-.381c1.665-.098 3.308.393 4.826.909 1.518.516 2.972 1.156 4.404 1.647 1.397.525 2.8.977 3.954 1.034 1.215.041 1.66-.227 2.025-.734l.197-.227c-.048.045.123-.123-.102.1l.011-.016.025-.03.05-.06.1-.12.4-.476.814-.93c.545-.606 1.118-1.168 1.631-1.709.456-.456.879-.945 1.266-1.46.304-.426.254-.585.186-.426-.068.16-.013.028-.243-.377l-.14-.243c-.073-.109-.267-.42-.257-.388a4.748 4.748 0 0 0-.439-.534c-.573-.623-1.559-1.205-2.915-1.902-2.689-1.452-5.718-3.236-8.272-5.281a60.067 60.067 0 0 1-7.006-6.718c-4.258-4.658-8.205-9.65-11.31-15.238z"/></g><g><g><g><path fill="#fbae39" d="M292.813 98.655l-5 .455-5.244 19.385 4.999-.643z"/></g><g><path fill="#fbae39" d="M301.545 116.11l-5.026.617-4.26-8.425a4.133 4.133 0 0 1-.285-2.907l1.463-5.454z"/></g></g></g><g><path fill="#b25b39" d="M283.634 67.48s9.167 5 13.726-1.204"/></g></g></g></g></g></g></svg>