<svg id="Layer_2" data-name="Layer 2" xmlns="http://www.w3.org/2000/svg" xmlns:xlink="http://www.w3.org/1999/xlink" width="1188.126" height="669.143" viewBox="0 0 1188.126 669.143">
  <defs>
    <clipPath id="clip-path">
      <rect id="Rectangle_61" data-name="Rectangle 61" width="1188.126" height="669.142" fill="#008581"/>
    </clipPath>
  </defs>
  <g id="Layer_1" data-name="Layer 1">
    <g id="Group_2" data-name="Group 2" clip-path="url(#clip-path)">
      <path id="Path_196" data-name="Path 196" d="M368.75,204.755c.39,4.485-6.106,13.678-10.517,14.612-4.553.965-13.1-5.821-16.084-9.4-1-1.206-.934-4.881-2.122-5.914-2.512-2.184-11.438.192-13.041-2.728-1.188-2.165,1.274-8.153,3.489-9.279,1.912-.946,6.143,3.037,8.191,2.431,4.869-1.441,13.511-10.4,13.189-15.466-.068-1.126-2.215-3.13-3.334-3.031-2.666.235-4.12,7.312-6.52,8.494a4.213,4.213,0,0,1-2.963,0c-1.547-.959-3.563-4.72-3.254-6.514.266-1.559,4.281-2.839,4.547-4.4a2.252,2.252,0,0,0-.909-1.819c-1.033-.39-3.013,1.905-4.1,1.664a3.471,3.471,0,0,1-1.819-1.967c-.2-.872.507-2.8,1.058-4.108a1.9,1.9,0,0,0-1.07-2.518h-.043a1.911,1.911,0,0,0-2.524,1.46c-.433,2.345-.037,5.834-1.07,7.2-.569.755-2.858.953-3.328,1.769-.749,1.324.971,4.7.3,6.069-1.318,2.716-6.854,6.65-9.855,6.978-1.268.136-3.446-2.2-4.7-1.973a3.115,3.115,0,0,0-1.973,1.856c-.52,4.658,11.222,10.814,10.616,15.466-.136,1.039-2.239,2.27-3.18,2.734-1.12.551-3.835.322-4.875,1.008-1.367.9-2.128,5.067-3.712,5.4-4.516.94-11.135-10.244-15.695-9.712-8.382.971-21.207,15.868-23.873,23.879-1.027,3.093.105,10.1,1.856,12.849,3.532,5.6,18.021,9.434,22.035,14.7,2.648,3.458,1.54,14.729,5.512,16.53,1.076.483,3.712-.848,4.361-1.856,2.474-3.879-2.06-13.981-.693-18.367,2.06-6.576,15.534-15.224,16.53-22.042.569-3.885-5.568-10.82-5.444-14.748.037-1.584,1.2-4.9,2.475-5.815s4.7-.742,6.23-.414c6.761,1.4,20.73,7.04,24.522,12.855,1.757,2.7-1.522,10.671.829,12.88.619.569,2.586.371,3.322,0,2.19-1.107,3.631-6.8,5.821-7.9a5.851,5.851,0,0,1,4.151,0c8.89,5.493,15.237,27.529,18.695,37.4,3.093,8.921,14.315,30.04,7.894,36.969-4.188,4.522-19.883.872-24.423-3.291-1.813-1.658-.068-8.308-2.165-9.589-2.474-1.509-9.96.3-11.216,2.908-2.1,4.361,9.471,13.127,7.869,17.7-4.615,13.177-38.7,16.957-49.583,25.71-8.382,6.737-24.071,22.889-27.547,33.053-1.577,4.621,3.848,15.756.718,19.5-1.41,1.689-6.749,2.227-8.723,1.237-4.788-2.376-5.425-16.7-10.387-18.689-9.824-3.928-33.56,4.553-40.371,12.645-3.953,4.689-6.329,19.017-3.248,24.324,1.683,2.9,9.131,5.673,12.428,5.06,4.64-.866,9.026-12.867,13.746-12.954,3.31-.062,8.45,5.778,9.966,8.723,1.918,3.712.21,12.7,1.664,16.616,2,5.388,8.129,16.084,13.189,18.831,15.373,8.265,53.332-3.984,69.787,1.856,16.363,5.79,40.013,33.653,55.095,42.234,8.593,4.887,30.405,7.089,36.728,14.692,2.994,3.6,4.052,13.7,3.675,18.361-.953,11.754-8.834,35.175-16.53,44.077-4.485,5.19-19.023,8.562-24.027,13.257-17.767,16.7-45.908,58.769-52.342,82.277-2.184,7.968-4.862,27.294,1.076,33.041,1.98,1.918,8.914-1.775,11.018,0s3.458,8.747,1.856,11.024c-3.248,4.541-16.932,5.92-22.042,3.669-8.5-3.755-17.371-22.363-20.2-31.216-9.514-29.768,3.978-95.107-5.512-124.888-5.141-16.134-34.915-40.087-36.728-56.914-.841-7.8,12.991-21.788,11.018-29.385-1.052-4.1-9.279-8.76-12.855-11.024s-12.478-4.281-15.824-7.028c-1.763-1.448-3.557-5.933-5.258-7.424-4.683-4.176-15.868-10.789-22.017-12.045-3.167-.619-9.762,2.1-12.88,1.237-7.256-2.011-19.32-12.181-24.25-17.878-7.714-8.9-13.467-33.2-22.116-42.128a3.025,3.025,0,0,0-5.172,1.955c-.575,12,20.415,38.454,20.415,38.454.087-1.132-3.539-.05-4.473-.687-16.7-11.426-36.963-50.2-40.631-70.127-3.124-16.926,12.942-50.851,11.018-67.956-2.054-18.219-14.7-54.878-27.547-67.956-6.477-6.588-24.838-16.548-33.734-14.414-5.766,1.386-10.387,14.76-15.224,18.188-1.479,1.039-5.073,1.905-6.768,2.53C57.692,210.316,43.9,218.9,34.76,219.824a3.8,3.8,0,0,1-2.431-6.953c7.256-4.621,23.508-6.056,28.593-10.82,1.237-1.163,4.1-4.367,3.39-5.92s-5.147-.179-6.347-1.237c-4.454-4.052-7.424-17.062-6.935-23.062.99-12.694,11.754-38.386,22.035-45.908,2.623-1.924,10.517.39,12.861-1.856,3.4-3.223.173-15.255,3.668-18.367,8.605-7.646,34.68-6.186,45.914-3.675,11.55,2.586,30.164,18.967,41.089,23.508,8.191,3.421,26.137,5.827,34.2,9.527,10.517,4.825,27.374,22.722,38.565,25.71,6.669,1.782,22.023,2.3,27.547-1.856,9.112-6.8,5.679-37.365,15.725-42.685,6.032-3.2,24.51,0,26.514,6.545,1.67,5.413-13.3,11.513-15.15,16.87-1.689,4.893-.483,15.831,1.38,20.662.749,1.942,3.093,6.644,5.166,6.539,2.549-.124,5.648-6.056,5.506-8.605-.13-2.326-5.3-4.949-5.852-7.232-.946-3.835.885-12.224,3.093-15.466,2.648-3.916,11.135-9.9,15.837-10.331,1.12-.1,3.093,1.311,4.132,1.726,6.533,2.6,22.141,4.33,26.285,9.985,1.577,2.159-.2,8.116.575,10.671,1.918,6.23,11.544,16.128,13.443,22.369.526,1.732-.087,5.475.346,7.232.878,3.594,6.675,9.762,6.186,13.43-.458,3.545-5.568,10.69-9.106,11.012-1.59.142-3.3-4.33-4.875-4.108-.835.13-1.912,2.035-1.813,2.877C364.487,201.952,368.62,203.208,368.75,204.755Z" transform="translate(-11.673 -38.14)" fill="#008581"/>
      <path id="Path_197" data-name="Path 197" d="M.615,301.166c-.39.513-.922,2.128-.421,2.53,2.023,1.646,8.407-1.54,9.725-3.792.377-.65.235-2.617-.427-2.969C7.333,295.772,2.1,299.2.615,301.166Z" transform="translate(0.004 -113.154)" fill="#008581"/>
      <path id="Path_198" data-name="Path 198" d="M470.505,600.152c1.07-1.373-.761-5.506-2.072-6.65-2.388-2.078-9.391-1.361-12.465-2.078-4.547-1.058-13.443-3.9-17.866-5.395-7.034-2.375-20.415-9.948-27.838-10.393-3.093-.186-11.135-.056-12.045,2.914-.538,1.757,3.353,4.553,4.98,5.4,4.188,2.171,14.173,1.151,18.695,2.474,6.947,2.06,19.177,10.665,26.174,12.459C453.518,600.295,467.053,604.582,470.505,600.152Z" transform="translate(-151.851 -219.512)" fill="#008581"/>
      <path id="Path_199" data-name="Path 199" d="M434.375,605.972c.835,1.856,4.664,4.213,6.644,4.572,1.268.229,4.559-.037,4.986-1.237.693-1.955-3.155-5.654-4.986-6.644-1.367-.749-5.029-1.417-6.23-.415C434.054,602.835,433.986,605.118,434.375,605.972Z" transform="translate(-165.57 -229.488)" fill="#008581"/>
      <path id="Path_200" data-name="Path 200" d="M565.335,1038.107c-1.132,1.1-1.782,4.949-.829,6.229,1.4,1.856,7.009,2.134,9.137,1.237a5.6,5.6,0,0,0,2.474-3.316c.167-1.342-.916-4.293-2.072-4.986C572.183,1036.171,566.913,1036.616,565.335,1038.107Z" transform="translate(-215.113 -395.355)" fill="#008581"/>
      <path id="Path_201" data-name="Path 201" d="M405.524,125.177c-.08-2-3.52-5.568-5.512-5.852-2.79-.377-6.922,5.1-9.638,5.852a13.61,13.61,0,0,1-5.852,0c-2.524-.81-5.964-6.038-8.611-6.186-6.96-.421-20.415,7.764-24.448,13.43-.866,1.237-1.973,4.7-1.033,5.852,1.961,2.406,9.657-1.095,12.373.346,1.033.544,3.2,2.7,2.753,3.786-1.027,2.475-8.63-.043-10.671,1.726-1.281,1.107-1.726,5.506-1.726,6.539s9.409,9.18,13.43,10.677c6.322,2.351,20.619,4.949,26.861,2.413,2.091-.86,5.667-4.64,5.852-6.891s-4.132-6.885-4.479-8.265.959-10.09,2.413-13.084S405.653,128.511,405.524,125.177Z" transform="translate(-133.508 -45.374)" fill="#008581"/>
      <path id="Path_202" data-name="Path 202" d="M369.74,108.679c.786-2.784-3.464-8.358-5.858-9.985-2.3-1.571-8.617-3.149-11.018-1.72-1.1.65-1.058,3.712-1.72,4.819-2.431,4.009-12.768,9.081-12.744,13.771,0,2.258,3.978,6.186,6.186,6.545C351.632,123.248,367.8,115.54,369.74,108.679Z" transform="translate(-129.057 -36.77)" fill="#008581"/>
      <path id="Path_203" data-name="Path 203" d="M412.131,93.456c6.186,3.607,22.957,5.8,28.574,1.38,1.794-1.41,2.474-6.8,1.726-8.958-.489-1.38-3.972-2.413-4.479-3.786-.538-1.472,1.98-4.949,1.033-6.186s-5-1.7-6.186-.687c-2.178,1.856,1.268,9.279-.687,11.364-1.015,1.07-4.64,1.522-5.852.687-2.629-1.813-.173-11.135-3.093-12.372-4.417-1.924-15.67,4.633-16.876,9.279C405.586,86.819,409.755,92.071,412.131,93.456Z" transform="translate(-154.919 -28.433)" fill="#008581"/>
      <path id="Path_204" data-name="Path 204" d="M395.707,78.5c-.316.829.835,3.025,1.72,3.093,1.646.136,5.091-3.817,4.132-5.166S396.258,77.051,395.707,78.5Z" transform="translate(-150.892 -28.977)" fill="#008581"/>
      <path id="Path_205" data-name="Path 205" d="M404.664,61.846c1.677-1.528,5.3-6.57,3.786-8.259-3.817-4.256-19.505,1.949-21.7,7.226-.662,1.6,1.5,5.568,3.093,6.186C393.485,68.49,401.762,64.488,404.664,61.846Z" transform="translate(-147.452 -19.897)" fill="#008581"/>
      <path id="Path_206" data-name="Path 206" d="M452.8,55.484c.031-1.237-7.888-3.891-9.985-2.413-1.076.761-1.664,4.009-1.033,5.166.878,1.633,5.1,3.254,6.885,2.753C450.323,60.526,452.748,57.191,452.8,55.484Z" transform="translate(-168.385 -20.074)" fill="#008581"/>
      <path id="Path_207" data-name="Path 207" d="M461.738,43.07c-1.349-2.1-8.253-1.454-9.985.346a3,3,0,0,0,0,2.753c1.114,1.547,5.469,3.136,7.226,2.413C460.4,47.988,462.567,44.381,461.738,43.07Z" transform="translate(-172.16 -15.925)" fill="#008581"/>
      <path id="Path_208" data-name="Path 208" d="M479.213,104.2c2.277-1.039,2.734-7.133,2.753-9.638,0-2.32-.507-7.634-2.413-8.958-2.27-1.577-9.236-1.083-11.018,1.033-2.11,2.512-.841,10.393,1.033,13.084C471.084,101.909,476.794,105.293,479.213,104.2Z" transform="translate(-178.27 -32.295)" fill="#008581"/>
      <path id="Path_209" data-name="Path 209" d="M491.9,119.258c1.806-.662,2.289-5.877,1.38-7.578a2.911,2.911,0,0,0-2.413-1.033c-1.448.532-3.093,4.009-2.753,5.512C488.366,117.353,490.748,119.679,491.9,119.258Z" transform="translate(-186.136 -42.183)" fill="#008581"/>
      <path id="Path_210" data-name="Path 210" d="M545.7,25.423c3.223,1.689,14.47-1.924,14.463,1.72s-11.531-.056-14.8,1.72a9.379,9.379,0,0,0-3.569,4.33c-.538,2.178,3.019,6.867,1.856,8.772-1.584,2.58-11.692,3.093-11.692,3.093.495,2.475-1.856,7.7-3.8,9.279-4,3.266-15.218,4.627-20.316,3.792-2.431-.4-6.223-5.456-8.605-4.825-1.714.458-3.093,5.166-2.753,6.545s4.745,2.3,5.506,3.786c1.676,3.279-4.485,11.216-2.753,14.463,1.856,3.47,10.647,5.234,14.463,6.186,3.712.934,11.754,3.093,15.15,1.38,1.955-1,4.677-5.388,4.473-7.578-.167-1.856-3.217-4.627-4.819-5.512-3.916-2.159-15,.8-17.618-2.827a2.6,2.6,0,0,1-.322-2.332c1.3-3.792,9.669-.105,13.121.687,3,.687,8.63,3.668,11.7,3.786,2.567.1,8.506-.309,9.991-2.413.946-1.342-1.3-5.011-.693-6.539.885-2.215,4.949-5.469,7.232-6.186.99-.322,3.291.946,4.132.346,1.442-1.033.674-5.456,1.72-6.891.779-1.058,3.576-1.794,4.479-2.753s1.522-3.563,2.413-4.479c6.186-6.322,23.3-12.657,30.647-17.557,3.161-2.116,10.467-5.84,12.051-9.279.619-1.41.569-4.949-.346-6.186C603.185,4.7,589.327.071,582.894.616c-1,.087-2.474,2.153-3.446,2.066S577.592.535,576.7.269c-2.413-.705-7.881,0-10.009,1.392-.841.551-1.07,3.322-2.066,3.446-.619.074-1.138-1.559-1.726-1.726-2.048-.569-6.6.736-8.265,2.066-.619.483-.619,2.6-1.373,2.759s-1.627-1.936-2.413-2.066C547.83,5.633,541.05,8,539.479,10.613c-1.157,1.936.118,6.9,1.033,8.952A16.344,16.344,0,0,0,545.7,25.423Z" transform="translate(-189.324 0.003)" fill="#008581"/>
      <path id="Path_211" data-name="Path 211" d="M531.174,52.077c.878,1.169,3.712,2.988,5.165,2.753,1.924-.316,3.712-4.671,5.37-5.667,2.178-1.293,8.191-.619,9.78-2.6,1.138-1.4-.266-5.524.346-7.232.433-1.237,3.285-2.852,3.093-4.132-.3-2.011-5.729-2.957-6.545-4.819-.619-1.429.965-4.664.687-6.186-.235-1.324-1.095-4.528-2.406-4.819-3.229-.711-8.253,5.691-10.331,8.265-1.856,2.277-4.819,9.638-4.819,10.671s1.311,3.365,1.033,4.479c-.241.947-2.475,1.819-2.759,2.753C529.318,47.134,530.172,50.741,531.174,52.077Z" transform="translate(-201.997 -7.369)" fill="#008581"/>
      <path id="Path_212" data-name="Path 212" d="M516.831,62.54c-.619-1.237-3.953-2.753-5.165-2.066-2.351,1.33-3.2,8.419-1.72,10.671.619.891,3.211,1.565,4.132,1.033C516.25,70.929,517.939,64.792,516.831,62.54Z" transform="translate(-194.2 -22.998)" fill="#008581"/>
      <path id="Path_213" data-name="Path 213" d="M517.443,82.66c-.656-1.237-4.473-1.608-5.512-.687a2.2,2.2,0,0,0,0,2.066c.619.878,3.093,1.794,4.132,1.373C516.762,85.122,517.789,83.34,517.443,82.66Z" transform="translate(-195.139 -31.066)" fill="#008581"/>
      <path id="Path_214" data-name="Path 214" d="M487.16,58.927c1.1,1.5,5.6,2.617,7.232,1.726,2.728-1.485,3.928-8.611,4.132-11.711.111-1.664-.049-5.524-1.38-6.539s-5.227-.619-6.539.34-.829,4.949-2.066,5.858c-1.033.779-4.07-.346-5.165.34-.588.371-1.578,1.751-1.38,2.413.445,1.472,4.751,1.417,5.512,2.753C488.106,55.159,486.448,57.955,487.16,58.927Z" transform="translate(-183.81 -15.945)" fill="#008581"/>
      <path id="Path_215" data-name="Path 215" d="M475.3,72.2c.823-.885.5-3.959-.346-4.825-.668-.674-3.13-1.027-3.786-.34-.9.94-.291,4.33.687,5.166C472.5,72.759,474.713,72.827,475.3,72.2Z" transform="translate(-179.523 -25.422)" fill="#008581"/>
      <path id="Path_216" data-name="Path 216" d="M715.427,133.759l11.488-19.932a3.532,3.532,0,0,0,.47-1.763V87.48a3.532,3.532,0,0,1,.551-1.856L747.329,54.99a3.526,3.526,0,0,0-.619-4.535l-3.285-2.877a3.5,3.5,0,0,0-2.512-.86l-11.568.619a3.514,3.514,0,0,1-3.05-1.448l-.909-1.274a3.52,3.52,0,0,1,.909-4.986h0a3.52,3.52,0,0,0,0-5.877L712.81,25a3.539,3.539,0,0,0-2.555-.513l-33.6,6.106a3.52,3.52,0,0,0-2.326,1.615l-1.083,1.726a3.526,3.526,0,0,1-5.246.829,9.949,9.949,0,0,0-1.973-1.386c-2.877-1.237-9.36-2.246-12.447-1.664-8.846,1.67-26.409,10.016-31.55,17.427-.835,1.237,0,4.609-.829,5.809-3.78,5.394-20.378,6.508-23.229,12.441-2.474,5.135.13,18.361,4.145,22.4,3.873,3.9,18.219-.2,21.571,4.151,9.279,12.02-5.048,45.413-4.151,60.563.662,11.166,2.246,34.563,8.3,43.972,2.338,3.631,9.941,11.08,14.1,9.954,7.708-2.079,7.337-23.7,13.276-29.032,2.474-2.227,11.463-4.256,14.167-4.819a3.513,3.513,0,0,0,1.41-.656l9.991-7.683a3.567,3.567,0,0,1,.316-.217L713.268,146.4a3.52,3.52,0,0,0,1.689-3.007v-7.881A3.532,3.532,0,0,1,715.427,133.759Z" transform="translate(-227.684 -9.317)" fill="#008581"/>
      <path id="Path_217" data-name="Path 217" d="M799.1,268.24l-2.1-4.609a3.3,3.3,0,0,0-3.328-1.918l-11.964,1.2a3.291,3.291,0,0,1-3.279-1.806h0a3.3,3.3,0,0,0-4.423-1.472l-2.246,1.126a3.285,3.285,0,0,0-1.757,2.3l-1.67,8.345a3.291,3.291,0,0,0,1.813,3.619l13.257,6.353a3.3,3.3,0,0,0,3.44-.377l11.278-8.766a3.291,3.291,0,0,0,.977-4Z" transform="translate(-293.001 -98.885)" fill="#008581"/>
      <path id="Path_218" data-name="Path 218" d="M940.369,125.069c1.726-1.237.916-6.316,1.658-8.3.588-1.571,1.646-5.8,3.322-5.809,2.419,0,2.573,8,4.949,8.3,1.744.21,4.912-3.223,4.949-4.98.254-7-11.377-20.149-18.3-21.2-4.1-.619-12.991,4.763-14.055,8.76-1.67,6.081,6.471,18.744,11.612,22.394C935.761,125.088,939.175,125.917,940.369,125.069Z" transform="translate(-351.883 -35.48)" fill="#008581"/>
      <path id="Path_219" data-name="Path 219" d="M970.911,91.441c-1.237-3.613-10.987-4.182-14.785-3.811-1.547.155-5.407,1.144-5.568,2.685-.489,4.139,8.815,10.956,12.991,10.517C966.464,100.485,971.858,94.274,970.911,91.441Z" transform="translate(-362.512 -33.383)" fill="#008581"/>
      <path id="Path_220" data-name="Path 220" d="M1058.357,69.94c.285-1.305-1.485-4.151-2.753-4.584-1.509-.526-4.6,1.46-5.963,2.3-1.182.718-4.231,2.289-4.132,3.668.111,1.652,3.854,3.712,5.506,3.675C1053.235,75,1057.887,72.118,1058.357,69.94Z" transform="translate(-398.73 -24.892)" fill="#008581"/>
      <path id="Path_221" data-name="Path 221" d="M1095.811,53.477c.062-1.3-2.394-3.452-3.675-3.675-2.375-.408-6.329,3.786-8.716,4.132-1.5.217-4.51-1.293-5.97-.922-1.856.47-5.97,2.71-5.97,4.6,0,3.192,6.91,7.863,10.1,7.8C1086.222,65.318,1095.613,58.117,1095.811,53.477Z" transform="translate(-408.635 -18.983)" fill="#008581"/>
      <path id="Path_222" data-name="Path 222" d="M1238.533,45.4c2.27-2.134-1.188-9.613-3.093-12.057-4.2-5.326-17.847-15.664-23.972-12.731-2.741,1.311-3.594,9.187-2.3,11.933,1.856,3.9,11.185,6.564,15.15,8.265C1227.75,42.259,1235.829,47.938,1238.533,45.4Z" transform="translate(-460.921 -7.665)" fill="#008581"/>
      <path id="Path_223" data-name="Path 223" d="M1264.654,60.3c1.646.2,2.8-4.1,3.675-5.506.971-1.577,4.033-4.615,3.668-6.428-.489-2.406-5.351-5.834-7.8-5.97a3.458,3.458,0,0,0-2.3,1.373c-1.2,2.227,0,7.621.458,10.1C1262.686,55.552,1262.959,60.093,1264.654,60.3Z" transform="translate(-481.059 -16.17)" fill="#008581"/>
      <path id="Path_224" data-name="Path 224" d="M1242.574,1028.668c.619,1.516,3.953,3.829,5.568,3.464s3.928-3.978,3.458-5.568c-.619-2-5.729-4.368-7.615-3.458C1242.679,1023.75,1242.042,1027.344,1242.574,1028.668Z" transform="translate(-473.815 -390.11)" fill="#008581"/>
      <path id="Path_225" data-name="Path 225" d="M1130.719,799.42c-1.076,2.394.352,7.968-.4,10.486-.483,1.627-3.037,4.182-3.489,5.821-.854,3.093-1.856,10.195,0,12.812,2.023,2.852,10.034,6.143,13.2,4.652,10.473-4.949,18.707-32.243,15.917-43.477-.619-2.53-5.153-7.028-7.764-6.984C1142.145,782.816,1133.193,793.915,1130.719,799.42Z" transform="translate(-429.346 -298.513)" fill="#008581"/>
      <path id="Path_226" data-name="Path 226" d="M1622.841,417.7c-3.248,3.031-10.22,10.016-10.331,14.457-.068,2.864,3.365,9.211,6.186,9.644.86.13,2.289-1.448,2.679-2.227.86-1.738.346-7.733.346-7.739,4.108-6.675,23.867-7.467,27.968-14.136,2.252-3.668.742-12.991,0-17.223-.786-4.5-8.605-13.325-6.186-17.216.749-1.237,4.33-.124,5.667-.668,1.448-.619,4.479-2.369,4.949-3.873.619-2.128-1.175-6.935-2.815-8.432-1.738-1.59-7.584-.433-9.162-2.178-3.5-3.866-1.305-15.651-2.753-20.662-2.524-8.729-6.112-32.082-15.15-33.053-.854-.093-1.936,1.905-2.066,2.753-1.361,8.853,9.688,25.11,11.89,33.789,1.286,5.091,3.545,15.466,3.3,20.736-.118,2.635-2.747,7.584-2.6,10.22.111,1.967,2.475,5.438,2.815,7.386.872,4.757,2.357,15.125,0,19.344C1635.454,412.4,1626,414.752,1622.841,417.7Z" transform="translate(-614.97 -119.902)" fill="#008581"/>
      <path id="Path_227" data-name="Path 227" d="M1102.2,225.94a2.371,2.371,0,1,0-3.006-3.668c-.674.507-1.237,2.957-.668,3.668S1101.52,226.559,1102.2,225.94Z" transform="translate(-418.86 -84.659)" fill="#008581"/>
      <path id="Path_228" data-name="Path 228" d="M1125.508,173.947c1.3-.08,4-2.035,4-3.341,0-3.5-9.465-5.735-10.684-9.013-1.472-3.959,1.076-12.775,2.672-16.7,2.889-7.1,18.559-17.421,17.693-25.036-.229-2-4-5.4-6.007-5.345-2.363.068-4.7,5.388-6.681,6.681-1.349.878-4.708,1.386-6.007,2.332-3.211,2.345-8.735,8.593-10.015,12.373-2.32,6.8-2.827,22.438.668,28.71C1113.234,168.336,1121.233,174.2,1125.508,173.947Z" transform="translate(-422.805 -43.671)" fill="#008581"/>
      <path id="Path_229" data-name="Path 229" d="M1338.03,71.236c-4.825.377-17.439.34-18.695,5.011-.52,1.936,5.432,3.712,5.679,5.673A4.472,4.472,0,0,1,1323,85.26c-2.505.984-7.652-3.007-10.343-3.007-5.654,0-16.22,7.745-21.7,6.347-2.629-.674-5.036-7.04-7.677-7.683-3.483-.848-10.152,3.712-13.684,4.33-1.726.309-5.3.718-7.015.334-3.786-.86-9.855-6.706-13.684-7.343-7.591-1.237-27.108-1.967-30.381,5-1.188,2.543,6.638,7.046,5.679,9.681-1.6,4.417-15.292,2.3-17.693,6.347-.817,1.38,1.856,4.98,1,6.341-.619.965-3.26,1.683-4.33,1.336-4.708-1.509-7.751-13.2-12.02-15.688-4.07-2.388-14.773-5.308-18.688-2.672-1.145.767-.26,4.479-1.336,5.339-2.474,1.986-9.515.346-12.688.334-4.844,0-15.051-2.877-19.363-.668-1.856.959-3.062,5.654-4.677,7.009-.619.532-2.332,1.819-3,1.336-5.314-3.8,6.186-20.78,2.338-26.038-3.347-4.528-16.8-2.611-22.035-4.671-3.625-1.429-9.527-8.735-13.356-8.042-2.276.427-5.184,5.073-5.667,7.343-.52,2.431,3.433,7.424,2.332,9.681-1.169,2.376-7.572,2.722-9.675,4.33-5.036,3.86-14.884,13.449-16.022,19.691-.427,2.338,3.9,6.8,3,9.02-1.67,4.071-15.4,3.613-15.688,8.011-.415,6.186,22.339,7.424,16.493,15.125a1.62,1.62,0,0,1-.885.582c-5.135,1.237-12.119-13.579-17.278-12.373-2.58.619-4.887,6.7-5.011,9.347-.266,5.976,4.417,18.645,9.348,22.029,2.066,1.423,7.875-.953,10.022.34,1.151.693,2.536,3.334,2.666,4.671.049.526-.149,1.905-.668,2-1.281.241-2.178-3.421-3.341-4.009-1.342-.674-4.807-1.237-6.007-.334-3.341,2.53,0,14.383-3.675,16.363-1.021.544-3.817-.619-4.33-1.676-1.293-2.549,3.2-8.166,3.006-11.012-.619-8.8-7.256-26.725-14.024-32.385-1.12-.934-4.534-.427-5.673-1.33-.878-.693-1.1-3.341-2-4.009s-3.211-1.3-4.009-.668c-3.935,3.093-1.819,15.039-1.336,20.031.254,2.58,1.163,7.906,2.672,10.016,1.751,2.444,9.935,3.668,10.016,6.675,0,.835-1.856,1.942-2.672,2-3.984.278-10.2-6.5-14.018-7.677-3.2-1-10.071-2.048-13.35-1.336-1.132.247-4.015,1.175-4,2.332,0,2.58,9.162,2.431,9.007,5-.087,1.534-4.194,1.924-5.673,2.338-3.582,1-11.222.99-14.686,2.332-4.949,1.924-12.769,13.653-17.693,11.686-2.066-.823-.031-7.646-2-8.661-.8-.414-2.907.551-3.341,1.336-1.1,2.011,2.351,6.8,1.67,9.013-.489,1.577-3.631,3.39-4.671,4.677-1.856,2.246-3.712,8.432-6.341,9.675-1.516.724-5.128-1.3-6.681-.662-.619.241-1.683,1.349-1.664,2,0,1.361,3.508,2.66,3.669,4.009.1.854-.835,2.8-1.67,3.007-2.7.68-7.856-3.668-9.347-6.007-1.318-2.06-2.994-7.887-1.336-9.681,1.856-2.023,8.506,1.813,11.018.668s7.275-6.013,6.675-8.661c-1.986-8.89-23.922-13.307-32.379-16.7-3.316-1.324-10.145-4.4-13.69-4-7.2.792-20.544,8.611-25.364,14.024-4.38,4.918-6.186,18.992-10.016,24.368-4.2,5.933-19.214,12.527-21.7,19.363-1.59,4.33,0,14.55,2.666,18.355,1.194,1.72,5.258,4.151,7.343,4,2.8-.192,6.366-7.578,9.013-6.669,3.78,1.287,1.658,12.373,4.33,15.354a10.226,10.226,0,0,0,6.007,2.338c2.648-.161,8.116-2.66,9.347-5,.353-.674-.328-2.252-.328-3.007,0-1.763-.4-5.611.662-7.015.705-.922,3.656-.724,4.33-1.664.934-1.287,1.027-4.912.334-6.347-.619-1.293-3.922-2.11-4.671-3.341-1.237-2.017-1.893-7.052-1.33-9.347.779-3.192,6.063-7.813,7.677-10.677,1.466-2.611,1.949-9.768,4.671-11.018,1.751-.8,6.687.526,7.343,2.332,1.485,4.1-8.246,10.48-9.347,14.692-.761,2.908-.736,9.354.668,12.02a9.583,9.583,0,0,0,4.331,3.334c4.411,1.324,15.4-4.856,18.361-1.336.885,1.052-.278,4.454-1.33,5.339-2.827,2.363-11.946-1.454-14.692,1a4.532,4.532,0,0,0-.662,3.675c.421,1.052,3.483,1.553,3.668,2.672.111.705-1.008,2.06-1.67,2.332-.94.39-3.093-1.126-4.009-.662-1.992,1.015-4.262,5.784-4,8.005.241,2.06,5.518,4.281,5.339,6.347-.062.65-1.367,1.528-2,1.67-2.53.557-7.424-2.672-10.009-2.672-3.545,0-10.214,3-13.69,3.668-2.06.4-6.254,1.237-8.345,1-1.052-.105-3.52-.4-4.009-1.336-.4-.767.81-2.474,1-3.334.359-1.565,1.324-4.77,1-6.347-.155-.773-.885-2.58-1.67-2.666-1.522-.173-3.823,2.9-4.33,4.33-.879,2.475,2.394,8.16,1,10.35-1.479,2.314-8.042,2.153-10.35,3.675-4.034,2.685-9.075,11.544-12.991,14.352-2.332,1.664-7.807,3.65-10.517,4.516-1.491.47-5.24,1.237-7.188,1.571a1.5,1.5,0,0,0-1.237,1.472h0a2.642,2.642,0,0,0,1.2,2.215c2.011,1.287,5.92,3.934,6.9,5.568,1.905,3.13,5.06,11.605,2.7,14.408s-11.135,1.751-16.845.742a5.036,5.036,0,0,0-5.852,4.219l-1.015,6.737-1.126,6.316a10.234,10.234,0,0,0,.111,4.157l.3,1.237a5.2,5.2,0,0,0,1.856,2.92l5.456,4.275h0l.309.074a3.427,3.427,0,0,0,3.464-1.126l.124-.148h0s8.741.421,11.407-.619a17.157,17.157,0,0,0,6.3-5.1c1.045-1.732.526-5.865,1.5-7.51,1.237-2.1,5.957-4.4,7.5-6.3s2.32-7.423,4.5-8.407c1.98-.872,6.316,2.679,8.4,2.1,2.474-.68,4.658-7.188,7.207-7.2,4.083,0,8.426,8.964,11.7,11.407,2.474,1.856,8.828,3.619,10.8,5.995,1.237,1.466,3.446,5.623,2.4,7.207-1.757,2.66-11.593-2.27-11.284,2.406a1.283,1.283,0,0,0,.13.495c1.126,2.2,7.108,5.215,9.354,4,.736-.4.155-2.586.619-3.3.934-1.5,5.091-2.543,5.7-4.2.693-1.856-3.52-6.774-1.8-7.8,1.274-.773,3.025,4.1,4.5,3.9.538-.074,1.237-1.237,1.2-1.8-.111-1.429-2.846-3.229-3.9-4.207-4.213-3.885-16.121-8.735-18.163-14.173a3.446,3.446,0,0,1,3.959-4.528c6.6,1.336,15.608,11.989,19,16.9,1.961,2.846,2.159,10.313,4.009,13.239,2.382,3.774,9.57,9.434,13.22,12.02,1.806,1.281,5.568,4.4,7.807,4.207.959-.087,3.056-1.441,3.013-2.4-.155-3.037-9.149-3.767-10.22-6.613-.384-1.027,1.287-3.093,1.2-4.207-.2-2.474-5.252-6.755-4.207-9.013.718-1.553,5.029-2.475,6.613-1.806,4.275,1.8,5.153,13.647,9.007,16.227,5.568,3.712,22.889-2.623,26.446,3.006,2.2,3.5-1.856,13.486-5.407,15.633-9.613,5.827-34.433-11.68-44.473-6.619-2.283,1.151-2.4,8.172-4.813,9.013-7.114,2.474-22.8-6.242-27.64-12.02-2.085-2.475-.346-10.764-3.007-12.62-11.3-7.869-54.687,6.613-54.687,6.613h0l-23.706,32.094a44.671,44.671,0,0,0-7.306,15.367l-4.262,16.548a30.641,30.641,0,0,0,5.636,26.644l4.33,5.512a38.893,38.893,0,0,0,38.763,13.876c7.634-1.658,15.268-2.9,19.573-2.475,5.023.513,16.295,3.334,18.627,7.813,1.633,3.136-3.464,10.319-3,13.82,1.287,9.725,17.786,25.048,18.027,34.853.142,5.784-9.385,15.261-9.613,21.033-.749,18.856,10.516,59.92,25.84,70.919,5.376,3.854,20.365,3.2,26.446.619,11.055-4.714,27.411-24.553,32.447-35.46,1.528-3.3.235-11.135,1.813-14.426,3.174-6.607,17.674-14.228,20.415-21.033,2.938-7.238-2.425-23.823,0-31.253,5.135-15.738,35.175-37.39,39.066-53.486.68-2.809.433-9.589-1.8-11.414-5.357-4.38-21.534,4.442-27.646,1.2C987.282,419.4,961.337,386.5,965.1,369.482a5.673,5.673,0,0,1,7.046-4.231c12.218,3.563,20.415,32.3,27.139,43.248,1.93,3.136,4.25,11.352,7.733,12.546,8.351,2.858,25.636-7.615,33.059-12.372,6.551-4.213,23.075-14.315,22.035-22.035-.551-4.126-11.315-5.537-14.457-8.265-1.485-1.287-2.877-5.97-4.825-6.186-2.19-.26-4.683,5.636-6.885,5.512-6.415-.359-17.9-11.933-17.94-18.194a3.483,3.483,0,0,1,2.01-2.976c5.4-2.035,11.853,11.884,17.284,12.9,2.3.433,6.8-3.712,8.951-2.753,1.9.854,1.745,6.378,3.446,7.572,6.922,4.869,26.1-.885,33.746,2.759,4.949,2.351,10.325,13.239,15.15,15.837,1.7.909,6.4-.148,7.572,1.38,1.237,1.646-1.126,6.236-.687,8.265,2.165,10.016,10.857,31.117,19.969,35.806,1.386.718,4.838-1.448,6.186-.687,2.475,1.4,2.091,9.521,4.819,10.331,1.559.458,4.85-1.961,5.512-3.446,3.2-7.188-8.327-23.644-5.512-30.987,3.91-10.195,23.619-28.345,34.439-26.861,4.021.557,7.77,9.477,9.638,13.084,1,1.936,1.1,6.848,2.759,8.265s6.452.315,8.259,1.379c1.905,1.114,4.677,4.844,5.512,6.885,1.905,4.646-.674,15.769,2.066,19.969.755,1.163,3.928,1.7,4.819,2.759,1.3,1.54,1.677,5.877,2.759,7.572,2.747,4.33,9.737,16.418,14.457,14.463,1.911-.792.619-6.291,0-8.265-1.621-5.2-10.628-12.756-12.373-17.9-1.008-2.938-3.4-10.894-.693-12.372,4.949-2.759,12.923,13.437,18.6,13.084,5.11-.316,14.488-8.7,15.15-13.771.9-6.916-14.655-16.462-15.15-23.415-.173-2.475,1.757-8.283,4.132-8.958,1.194-.334,3.625,1.621,4.133,2.759s-1.343,3.792-.687,4.819c.965,1.516,5.271,2.858,6.885,2.066,2.153-1.058,1.856-7.158,3.44-8.952,4.139-4.671,17.872-7.065,22.042-11.711,4.949-5.518,11.414-20.142,11.018-27.547-.353-6.613-12.478-16.789-12.373-23.415.043-3.161,7.516-8.147,6.186-11.018-1.738-3.78-15.571,1.342-14.1-4.949a1.125,1.125,0,0,1,.241-.476c2.753-3.093,12.874-2.642,16.61-.779,5.431,2.71,7.98,18.181,13.777,19.969,2.289.711,7.869-1.3,8.951-3.44,2.66-5.252-7.5-16.987-6.186-22.728,1.107-4.881,10.461-10.888,13.084-15.15,4.949-8.085,14.3-25.63,14.463-35.126.161-9.366-6.186-28.8-13.084-35.119-2.9-2.648-12.892-.922-15.15-4.132-3.774-5.37-1.676-20.78,2.066-26.168,3.248-4.683,14.971-9.279,20.662-9.644,2.332-.161,6.613,2.877,8.952,2.753,2.617-.136,8.661-1.707,9.638-4.132.711-1.714-2.474-5.048-2.753-6.885-.421-3.093-1.144-10.566,1.38-12.372,3.415-2.475,14.228-.118,16.523,3.446,3.235,5.073-5.97,17.421-5.506,23.415.922,11.859,18.021,32.169,17.9,44.077,0,1.311-2.27,3.526-2.066,4.819.291,1.806,3,5.7,4.825,5.512,3.334-.353,5.8-8.438,6.539-11.711.9-3.953-1.707-12.187-1.033-16.183.3-1.751,2.641-4.77,2.759-6.545.124-1.955-2.2-5.617-2.066-7.572.087-1.311,1.973-3.514,2.066-4.819.445-6.5-8.11-18.738-6.892-25.141.4-2.116,3.192-6.025,5.166-6.885,2.227-.965,7.838,2.654,9.644,1.033.9-.8-.334-3.662,0-4.819,1.744-6.137,13.61-15.317,13.43-21.7-.149-5.252-10.745-12.131-12.057-17.216-.879-3.427-.9-11.463,1.5-14.061,3.056-3.31,15.354.507,17.7-3.341,3.167-5.209-2.32-19.474-7.015-23.365C1381.111,68.341,1351.417,70.191,1338.03,71.236ZM985.314,311.12c-7.009,5.2-26.372,1.806-34.909,0-2.66-.563-9.075-1.819-9.947-4.4-1.54-4.553,4.813-15.014,9.279-16.87,1.169-.489,3.712.8,4.862,1.386,2.394,1.268,5.636,6.57,8.321,6.935,1.386.186,4.46-1.064,5.085-2.307s-1.93-4.207-1.157-5.326c.668-.959,3.656-1.336,4.627-.687,1.584,1.058.73,5.852,1.856,7.393,2.369,3.26,12.236,4.782,13.647,8.556C987.424,307.1,986.434,310.291,985.314,311.12Zm31.21,13.641c-1.373-2.184,3.248-7.423,2.778-9.941-1.089-5.939-15.274-13.461-14.334-19.419.668-4.219,9.607-10.1,13.87-9.948.9.037,2.716,1.417,2.778,2.314.173,2.413-6.341,4.757-6.471,7.17-.192,3.638,6.922,8.531,8.556,11.785.866,1.738,1.67,5.568,2.307,7.424,1.163,3.334,7.331,10.449,5.091,13.177C1028.748,330.162,1018.5,327.885,1016.524,324.761Z" transform="translate(-302.172 -24.078)" fill="#008581"/>
      <path id="Path_230" data-name="Path 230" d="M856.648,357.842l1.237,1.819a2.159,2.159,0,0,1-.619,3.044l-1.534,1a2.128,2.128,0,0,0-.965,1.5l-1.237,8.37a2.135,2.135,0,0,1-.8,1.386l-1.367,1.083a2.159,2.159,0,0,0-.569,2.728h0a2.159,2.159,0,0,0,2.617,1.015c2.654-.922,7.609-2.617,9.7-3.093,2.326-.563,7.5-.105,9.453-1.491,1.856-1.311,4.4-5.71,4.225-7.956-.4-5.407-11.327-12.236-12.929-17.414-.483-1.547.8-4.949.247-6.465-.619-1.683-3.619-4.664-5.568-6.458a2.165,2.165,0,0,0-3.093.167l-4.609,5.32a2.146,2.146,0,0,0-.5,1.095l-.458,3.037a2.159,2.159,0,0,0,.879,2.085l3.5,2.474a2.178,2.178,0,0,1,.847,1.237l1.2,4.813A2.13,2.13,0,0,0,856.648,357.842Z" transform="translate(-324.111 -128.27)" fill="#008581"/>
      <path id="Path_231" data-name="Path 231" d="M830.953,381.262h0a3.223,3.223,0,0,0,4.132,2.023l6.694-2.376a3.217,3.217,0,0,0,2.147-3.037v-5.7a3.155,3.155,0,0,1,.316-1.386l.934-1.961a3.223,3.223,0,0,0-1.237-4.12l-.81-.5a3.211,3.211,0,0,0-3.712.247l-6.861,5.629a3.217,3.217,0,0,0-1.169,2.246l-.619,7.677A3.244,3.244,0,0,0,830.953,381.262Z" transform="translate(-316.832 -138.718)" fill="#008581"/>
      <path id="Path_232" data-name="Path 232" d="M926.019,461.688c.8.445,2.74-.965,3.235-1.738.569-.891,1.12-3.631.247-4.225s-3.2.854-3.712,1.738S925.1,461.174,926.019,461.688Z" transform="translate(-352.912 -173.749)" fill="#008581"/>
      <path id="Path_233" data-name="Path 233" d="M927.734,476.556c.619.619,2.827,1.349,3.483.748,1.992-1.806,1.175-9.508-1.237-10.7-.977-.482-3.291,1.237-3.712,2.239C925.445,470.642,926.361,475.158,927.734,476.556Z" transform="translate(-353.136 -177.921)" fill="#008581"/>
      <path id="Path_234" data-name="Path 234" d="M1468.24,71.413c-1.163-.513-2.351-3.328-3.594-3.594-.47-.1-1.621.229-1.794.674-.563,1.479,2.1,4.256,2.92,5.611,1.021,1.7,2.617,5.871,4.485,6.508,2.474.841,9.317-.619,9.9-3.143.47-2.091-4.33-5.011-6.285-5.834C1472.558,71.1,1469.527,71.976,1468.24,71.413Z" transform="translate(-557.865 -25.858)" fill="#008581"/>
      <path id="Path_235" data-name="Path 235" d="M1449.068,53.844c1.305-.724,4.8-.26,5.828-1.342.9-.953,1.039-3.86.9-5.166-.179-1.627-1.12-5.141-2.474-6.063-4.5-3.056-17.371-3.415-21.776-.223-1.955,1.417-3.854,6.978-2.92,9.205,1.732,4.12,11.525,8.784,15.942,8.079C1446.142,58.107,1447.676,54.618,1449.068,53.844Z" transform="translate(-544.749 -14.803)" fill="#008581"/>
      <path id="Path_236" data-name="Path 236" d="M1480.861,43.545c.718.544,1.454,2.475,2.3,2.784,1.392.551,4.862.254,5.927-.792a4.8,4.8,0,0,0,.569-3.78c-.656-1.608-3.854-3.78-5.568-4.182-2.128-.5-7.349-.2-8.6,1.59-.315.458.043,1.757.384,2.19C1476.728,42.426,1479.778,42.7,1480.861,43.545Z" transform="translate(-562.666 -14.247)" fill="#008581"/>
      <path id="Path_237" data-name="Path 237" d="M1569.446,565.311c-.241,2.277.619,7.888,2.753,8.723.866.334,2.722-1.052,3.217-1.856,1.658-2.623,2.7-9.842.916-12.372a3.762,3.762,0,0,0-3.217-.922C1571.4,559.583,1569.644,563.474,1569.446,565.311Z" transform="translate(-598.532 -213.109)" fill="#008581"/>
      <path id="Path_238" data-name="Path 238" d="M1566.266,658.948c1.918-.476,4.757-4.46,4.59-6.427-.062-.81-1.485-2.369-2.289-2.3-2.221.2-5.611,5.2-5.054,7.355C1563.692,658.317,1565.511,659.133,1566.266,658.948Z" transform="translate(-596.261 -247.976)" fill="#008581"/>
      <path id="Path_239" data-name="Path 239" d="M1582.933,616.218c-1.423-3.143,1.813-11.655-.916-13.771-1.472-1.145-6.124-.037-7.349,1.379-1.949,2.258-1.045,9.007-.458,11.933.755,3.712,4.739,10.374,6.434,13.777.984,1.974,2.078,7,4.132,7.8,2.6,1.021,9.187-1.237,10.554-3.668.8-1.435-.619-4.986-1.38-6.428C1592.095,623.808,1584.542,619.763,1582.933,616.218Z" transform="translate(-600.086 -229.577)" fill="#008581"/>
      <path id="Path_240" data-name="Path 240" d="M1591.126,661.59c-.9,1.052-1.466,4.559-.464,5.512,1.237,1.2,5.314-1.652,6.885-.916,1.961.922,2.512,6.762,4.6,7.343,1.237.346,4.1-1.107,4.59-2.3,1.237-3.019-1.281-10.814-4.132-12.372C1600.022,657.408,1593.044,659.376,1591.126,661.59Z" transform="translate(-606.435 -251.083)" fill="#008581"/>
      <path id="Path_241" data-name="Path 241" d="M1468.911,706.841c-5.815-6.186-18.194-18.713-26.174-21.578-1.856-.662-6.96-1.763-7.807,0-2.6,5.45,11.172,14.278,15.156,18.825,4.275,4.887,12.014,16.084,17.9,18.825,1.67.779,5.92,1.621,7.349.458,1.237-1.027,1.305-4.856.916-6.428C1475.5,713.911,1471.051,709.117,1468.911,706.841Z" transform="translate(-547.122 -260.979)" fill="#008581"/>
      <path id="Path_242" data-name="Path 242" d="M1552.381,763.9c1.46-.291,4.683-1.052,5.512-2.289.507-.767.619-2.994,0-3.675-4.565-5.054-20.458-1.237-27.09-2.759-3.928-.9-11.135-5.178-15.156-5.506-1.856-.155-5.475,1.287-7.343,1.373-1.237.062-3.959-1.1-5.048-.458-.755.452-1.769,2.431-1.38,3.217,4.813,9.607,31.111,8.828,41.782,10.1A37.059,37.059,0,0,0,1552.381,763.9Z" transform="translate(-572.745 -285.902)" fill="#008581"/>
      <ellipse id="Ellipse_10" data-name="Ellipse 10" cx="2.716" cy="1.72" rx="2.716" ry="1.72" transform="translate(974.168 479.039)" fill="#008581"/>
      <path id="Path_243" data-name="Path 243" d="M1606.087,769.16c.8-.359,3.05-.52,3.217-1.373.124-.619-1.237-1.652-1.856-1.856-1.12-.34-3.5.495-4.6.922-1.627.619-5.568,1.973-5.963,3.675a2.747,2.747,0,0,0,1.379,2.289C1600.346,773.46,1604.12,770.045,1606.087,769.16Z" transform="translate(-609.006 -292.076)" fill="#008581"/>
      <path id="Path_244" data-name="Path 244" d="M1524.542,691.365c-1.794.841-6.1.371-7.807,1.38-1.237.749-3.656,3.093-3.675,4.59-.056,4.912,7.646,13.22,11.939,15.614,1.008.563,3.464.217,4.59.458,1.417.3,4.058,1.775,5.512,1.856s4.541-.334,5.506-1.373.464-4.188.922-5.512c.94-2.716,4.8-7.312,5.506-10.1.619-2.474-.4-7.609,0-10.1.291-1.788,2.852-5.153,2.3-6.885-.619-2.035-4.751-5.128-6.885-5.054C1536.586,676.419,1529.849,688.878,1524.542,691.365Z" transform="translate(-577.043 -257.9)" fill="#008581"/>
      <path id="Path_245" data-name="Path 245" d="M1575.258,711.4c-2.425,1.992-4.881,8.351-5.054,11.476-.124,2.289.977,7.287,2.753,8.729a5.734,5.734,0,0,0,4.59.458c.9-.495.848-3.421,1.856-3.675,1.757-.452,4.219,4.634,5.964,4.132.841-.241,1.454-2.338,1.38-3.211-.2-2.32-5.463-5.518-5.054-7.807.3-1.7,5.221-2.437,5.512-4.132a3.6,3.6,0,0,0-1.856-2.753c-1.714-.619-5.413,3.353-6.885,2.3-.619-.47-.513-2.592,0-3.211,2.388-2.877,12.936.538,14.692-2.759.414-.767-.619-2.815-1.373-3.217C1588.015,705.8,1578.531,708.717,1575.258,711.4Z" transform="translate(-598.832 -269.672)" fill="#008581"/>
      <path id="Path_246" data-name="Path 246" d="M1638.931,780.36c-1.2-.532-4.114.464-5.048,1.373-4.027,3.935-1.052,19.932-6.434,21.584-3.093.959-9.038-5.178-10.1-8.265-.841-2.475,3.625-7.881,2.295-10.1-2.474-4.089-13.764-6.267-18.367-5.048-3.922,1.039-7.6,10.257-11.476,11.475-1.893.619-5.858-1.732-7.807-1.38-5.518,1.015-15.262,7.566-19.283,11.482-1.856,1.8-3.551,7.04-5.512,8.723-5.221,4.491-21.441,5.283-25.246,11.018-5.141,7.751.334,27.925-.464,37.192-.309,3.588-3.613,10.875-2.295,14.228.959,2.437,5.7,5.92,8.265,6.434,12.731,2.53,37.117-14.847,50.047-13.777a15.774,15.774,0,0,1,6.885,3.211c3.458,3.223,5.407,13.69,9.187,16.53,1.237.922,4.906.272,5.964,1.379.885.928.3,3.928.922,5.054,1.856,3.409,8,8.772,11.476,10.554,3.025,1.553,9.96,3.279,13.313,2.753,3.91-.619,11.166-4.825,13.777-7.8,10.059-11.451,24.126-41.275,22.951-56.474-.619-8.259-12.991-21.206-16.987-28.457C1650.716,804.264,1647.048,783.96,1638.931,780.36Z" transform="translate(-583.08 -297.306)" fill="#008581"/>
      <path id="Path_247" data-name="Path 247" d="M1679.727,993.021c-2.815,1.565-1.639,9.867-.464,12.861.532,1.361,2.7,3.829,4.132,4.132,1.565.334,4.869-1.138,5.97-2.3,2-2.1,5.37-8.661,3.669-11.024-1-1.392-5.221.445-6.885,0C1684.361,996.226,1681.342,992.124,1679.727,993.021Z" transform="translate(-639.942 -378.664)" fill="#008581"/>
      <path id="Path_248" data-name="Path 248" d="M1790.348,1035.834l-.458,9.18,5.048,1.373s29.261-19.227,30.764-29.836c.26-1.856-1.856-6.087-3.675-6.427C1812,1008.249,1790.348,1035.834,1790.348,1035.834Z" transform="translate(-682.618 -385.201)" fill="#008581"/>
      <path id="Path_249" data-name="Path 249" d="M1862.631,972.342c-4.949-3.056-3.341-19.369-8.723-21.584-.811-.334-2.784.619-3.211,1.38-2.722,4.856,5.475,16.95,3.211,22.035-.841,1.893-6.39,2.586-6.885,4.6-.347,1.4,2.728,3.607,2.753,5.048,0,1.281-2.474,3.322-2.3,4.59.186,1.373,2.289,4.083,3.675,4.132,6.242.229,16.295-11.407,17.9-17.445a4.043,4.043,0,0,0-.916-3.211C1867,971.1,1863.813,973.065,1862.631,972.342Z" transform="translate(-704.397 -362.569)" fill="#008581"/>
      <path id="Path_250" data-name="Path 250" d="M1606.849,726.289c.526-.315,1.237-1.782.916-2.289-.711-1.046-4.157-.9-5.048,0a1.856,1.856,0,0,0,0,1.856C1603.416,726.6,1605.958,726.815,1606.849,726.289Z" transform="translate(-611.141 -275.837)" fill="#008581"/>
      <path id="Path_251" data-name="Path 251" d="M1623.435,706.4c-.371-.9-1.825-3.056-2.753-2.753-1.435.47-1.349,4.522-.922,5.97.4,1.33,2.382,4.627,3.675,4.132C1625.155,713.095,1624.135,708.1,1623.435,706.4Z" transform="translate(-617.631 -268.34)" fill="#008581"/>
      <path id="Path_252" data-name="Path 252" d="M1617.228,734.4c-1.2-.68-4.739-1.138-5.512,0-.346.513.408,1.949.916,2.3,1.237.835,5.24,1.293,5.976,0C1618.935,736.117,1617.809,734.731,1617.228,734.4Z" transform="translate(-614.634 -279.819)" fill="#008581"/>
      <path id="Path_253" data-name="Path 253" d="M1629.845,733.649c1.293.359,3.378,3.316,4.6,2.753.619-.291.748-2.122.458-2.753-.563-1.237-3.291-2.474-4.59-2.753-1.46-.346-5.178-.817-5.97.458-.328.52.4,1.949.916,2.3C1626.208,734.293,1628.738,733.34,1629.845,733.649Z" transform="translate(-619.451 -278.601)" fill="#008581"/>
      <path id="Path_254" data-name="Path 254" d="M1660.508,747.388c-.619-.433-2.53.619-2.759,1.38-.347,1.126,1.144,4.38,2.3,4.132C1661.4,752.609,1661.652,748.161,1660.508,747.388Z" transform="translate(-632.204 -284.996)" fill="#008581"/>
      <path id="Path_255" data-name="Path 255" d="M1654.876,726.279c-1.033-1.175-.619-4.986-1.856-5.976-1.856-1.528-8.221-2.877-9.644-.916-1.856,2.542,2.542,9.607,5.054,11.482,1.485,1.1,5.568.353,7.343.916,3.229,1.033,10.572,3.328,11.939,6.428.767,1.732-2.839,5.741-1.856,7.349,1.423,2.3,8.624.408,10.56,2.289.34.334.093,1.54.458,1.856,1.856,1.528,7.423,1.429,9.644.458,1.639-.724,2.809-5.339,4.59-5.512,3.817-.377,8.463,8.042,11.933,9.644,1.59.742,5.258,2.017,6.891,1.373.916-.359,2.394-2.227,2.3-3.211-.458-4.528-9.9-9.372-13.319-12.372-3.037-2.71-8.8-8.661-12.372-10.56-4.528-2.406-14.686-6.316-19.74-5.512-2.048.328-4.825,4.423-6.892,4.59A8.81,8.81,0,0,1,1654.876,726.279Z" transform="translate(-626.572 -273.983)" fill="#008581"/>
      <path id="Path_256" data-name="Path 256" d="M1749.775,743.136c-1.435.414-5.141-.779-5.964.464-.4.619.365,2.283.916,2.753,1.6,1.361,6.254,1.955,8.265,1.38,2.351-.668,7.028-4.009,7.343-6.428a3.476,3.476,0,0,0-1.856-2.753C1756.115,737.915,1752.144,742.431,1749.775,743.136Z" transform="translate(-665.002 -281.642)" fill="#008581"/>
      <path id="Path_257" data-name="Path 257" d="M1757.068,730.375c-.4-.056-1.4.186-1.491.575-.272,1.188,2.116,3.452,3.328,3.557.569.049,1.856-.8,1.856-1.38C1760.724,732,1758.187,730.53,1757.068,730.375Z" transform="translate(-669.524 -278.543)" fill="#008581"/>
      <path id="Path_258" data-name="Path 258" d="M1778.34,749.631c.421.916,2.852,1.751,3.786,1.373a1.658,1.658,0,0,0,.687-1.373c-.235-1.076-2.376-3.05-3.44-2.759C1778.662,747.07,1778.031,748.963,1778.34,749.631Z" transform="translate(-678.183 -284.827)" fill="#008581"/>
      <path id="Path_259" data-name="Path 259" d="M1792.546,755.773a4.535,4.535,0,0,0-3.093-2.753c-.34,0-1.046.526-1.033.86,0,1.138,2.474,2.969,3.613,2.753C1792.274,756.589,1792.583,756.02,1792.546,755.773Z" transform="translate(-682.058 -287.183)" fill="#008581"/>
      <path id="Path_260" data-name="Path 260" d="M1805.65,765.156c.223-.959-2.153-2.679-3.093-2.413-.353.1-.619,1.027-.52,1.38a3.283,3.283,0,0,0,1.9,1.373C1804.357,765.589,1805.551,765.582,1805.65,765.156Z" transform="translate(-687.243 -290.88)" fill="#008581"/>
      <path id="Path_261" data-name="Path 261" d="M1817.159,770.3c-.074-1.237-2.722-3.316-3.959-3.093a1.628,1.628,0,0,0-.86,1.38c.253,1.151,2.784,2.7,3.959,2.58C1816.6,771.132,1817.178,770.606,1817.159,770.3Z" transform="translate(-691.18 -292.588)" fill="#008581"/>
      <path id="Path_262" data-name="Path 262" d="M1812.593,772.483c.1-.538-1.169-1.38-1.72-1.373-.34,0-1.033.526-1.033.86s.816.959,1.2,1.033S1812.519,772.9,1812.593,772.483Z" transform="translate(-690.227 -294.082)" fill="#008581"/>
      <path id="Path_263" data-name="Path 263" d="M1817.629,776.566c-.037.619,1.448,1.4,2.066,1.38.216,0,.668-.3.687-.52.056-.513-.866-1.448-1.373-1.547C1818.632,775.774,1817.654,776.151,1817.629,776.566Z" transform="translate(-693.197 -295.894)" fill="#008581"/>
      <path id="Path_264" data-name="Path 264" d="M1840.3,854.447c-.4-2.159-3.711-6.99-5.852-6.545-.538.111-.792,1.534-.693,2.066.415,2.159,3.514,7.083,5.685,6.718C1840.03,856.613,1840.407,855.035,1840.3,854.447Z" transform="translate(-699.34 -323.357)" fill="#008581"/>
      <path id="Path_265" data-name="Path 265" d="M1852.313,817.359c.2-1.534-1.608-4.949-3.093-5.339a1.77,1.77,0,0,0-1.547.86c-.4,1.6,1.973,5.345,3.613,5.512C1851.644,818.429,1852.269,817.717,1852.313,817.359Z" transform="translate(-704.638 -309.684)" fill="#008581"/>
      <path id="Path_266" data-name="Path 266" d="M1858.12,827.2c.167-.371-.13-1.417-.52-1.547-.291-.105-.922.4-1.033.687s.031,1.237.346,1.38A1.324,1.324,0,0,0,1858.12,827.2Z" transform="translate(-708.033 -314.877)" fill="#008581"/>
      <path id="Path_267" data-name="Path 267" d="M1901.4,823.3c0,.99,2.3,2.437,3.272,2.239,1.1-.229,2.617-2.685,2.413-3.786a2.573,2.573,0,0,0-1.9-1.38C1903.992,820.388,1901.369,822.1,1901.4,823.3Z" transform="translate(-725.146 -312.868)" fill="#008581"/>
      <path id="Path_268" data-name="Path 268" d="M1909.368,812.865c-.458.588.124,2.419.693,2.9.983.817,4.058,1.027,5.1.291.68-.476,1.423-2.524.928-3.186C1915.078,811.523,1910.407,811.547,1909.368,812.865Z" transform="translate(-728.122 -309.626)" fill="#008581"/>
      <path id="Path_269" data-name="Path 269" d="M1684.743,394.3c.52-.693,2.475-1.59,2.475-2.475s-1.59-2.555-2.475-2.475c-1.775.186-3.854,4.2-3.873,5.982,0,.829.928,2.833,1.757,2.809C1683.728,398.133,1684.081,395.182,1684.743,394.3Z" transform="translate(-641.041 -148.486)" fill="#008581"/>
    </g>
  </g>
</svg>
