<svg xmlns="http://www.w3.org/2000/svg" width="145" height="25" viewBox="0 0 145 25"><g><g><g><path fill="#fbae39" d="M6.242 5.447H8.37c.793 0 1.947.11 2.67.867.649.65.72 1.516.72 2.164 0 .576-.035 1.55-.794 2.202-.757.684-1.983.755-2.633.755h-2.09zm3.93 11.04c1.876 0 4.111-.25 5.989-2.092 1.878-1.841 2.13-4.076 2.13-5.988 0-2.02-.362-4.04-2.238-5.845C14.222.794 12.048.398 9.957.398H0V24.46h6.242v-7.974z"/></g><g><path fill="#fbae39" d="M60.483 5.232h1.19c1.372 0 2.418.36 2.994.937.536.536.834 1.263.83 2.02a2.996 2.996 0 0 1-.793 2.02c-.758.723-2.091.975-3.031.975h-1.19zM54.243.398V24.46h6.24v-9.237l5.989 9.233h7.758l-7.541-9.85a6.727 6.727 0 0 0 3.317-1.654c1.192-1.155 1.912-2.958 1.912-5.014 0-1.913-.684-4.006-2.056-5.412C68.094.686 65.786.398 63.982.398z"/></g><g><path fill="#fbae39" d="M97.898 23.81C95.41 24.712 94.04 25 92.486 25c-4.184 0-7.322-1.659-9.305-3.607a12.623 12.623 0 0 1-3.652-8.766A12.628 12.628 0 0 1 92.271 0c1.153 0 3.03.181 5.627 1.226v7.469c-2.02-2.499-4.4-2.633-5.446-2.633-1.805 0-3.175.54-4.33 1.587a6.727 6.727 0 0 0-2.091 4.941c0 1.661.684 3.5 1.947 4.692 1.045.972 2.706 1.656 4.474 1.656.938 0 3.246-.107 5.446-2.523z"/></g><g><path fill="#fbae39" d="M113.16.398v18.758h7.495v5.304h-13.736V.398z"/></g><g><path fill="#fbae39" d="M134.043.398v18.758h7.495v5.304h-13.734V.398z"/></g><g><path fill="#fbae39" d="M142.272.688v1.44h-.336V.688h-.384v-.29h1.114v.29z"/></g><g><path fill="#fbae39" d="M143.054.398h.245l.457 1.1.48-1.1h.245l.29 1.73h-.342l-.156-1.067-.465 1.067h-.113l-.444-1.067-.177 1.067h-.342z"/></g><g><path fill="#008581" d="M38.16.398h-6.816L22.107 24.46h6.604z"/></g><g><path fill="#008581" d="M47.217 24.46H40.55l-4.449-11.612a5.266 5.266 0 0 1 .02-3.803l2.7-6.883z"/></g></g></g></svg>