<svg xmlns="http://www.w3.org/2000/svg" width="178" height="46" viewBox="0 0 178 46"><g><g><g><path fill="#008581" d="M1.33 0l12.028 25.062-12.029 4.81s0 2.65 26.01 8.99c0 0 92.17 8.63 141.264 5.511 3.804-.241 7.085-1.77 8.356-3.99 1.718-2.998 1.512-7.548-8.713-12.503-2.085-1.01-2.344-1.193-2.344-1.193l-12.396-6.889c-4.41-1.868-10.621-3.957-17.298-4.933-18.413-2.69-87.925 10.336-101.274 5.239L16.981 1.91z"/></g><g><path fill="#458c87" d="M153.506 19.798c-4.41-1.868-10.621-3.958-17.298-4.933-18.413-2.69-87.925 10.336-101.274 5.239l-.089-.09v-.001L16.98 1.91l-4.728-.426c1.139 1.28 8.589 10.072 13.514 15.63.383.432.802.82 1.246 1.17l-.005.002s2.813 3.081 8.123 3.788c13.298 1.768 47.185 4.045 120.424-1.138z"/></g><g><path fill="#abddef" d="M143.416 25.283l-.32 2.38a2.099 2.099 0 0 0 2.443 2.347l3.2.032a2.098 2.098 0 0 0 1.704-2.43l-.594-2.52a2.098 2.098 0 0 0-2.165-1.733l-2.287.108a2.1 2.1 0 0 0-1.981 1.816z"/></g><g><path fill="#abddef" d="M153.234 24.595l.572 3.493c.503 3.348 13.576-.63 13.576-.63l-9.628-5.327s-2.447-.114-3.51.434a1.925 1.925 0 0 0-1.01 2.03z"/></g><g><g><path fill="#bfc4cc" d="M174.159 31.463l.646.567"/></g><g><path fill="#dfe1e5" d="M80.457 34.962L9.31 33.851c3.186 1.289 18.115 5.012 18.115 5.012s92.147 8.63 141.227 5.51c3.804-.241 7.084-1.77 8.354-3.99.651-1.135 1.183-2.538.681-4.013-.856-2.52-75.589-.662-97.229-1.408z"/></g><g><path fill="#838c9c" d="M174.127 31.436l.005.008.027.02z"/></g><g><path fill="#838c9c" d="M175.131 32.315l-.326-.285c.106.095.224.192.324.287z"/></g></g><g><g><path fill="#dfe1e5" d="M25.383 27.383L2.117 26.49s-5.294.328.863 1.784c0 0 3.738.741 24.948.599 0 0 4.259-.672-2.545-1.49z"/></g><g><g><path fill="#4f5b72" d="M.049 26.984c-.201.273.362.683 2.931 1.29 0 0 3.738.741 24.948.599 0 0 1.703-.27 1.223-.677-1.223.677-27.881.348-29.102-1.212z"/></g></g></g><g><g><path fill="#bfc4cc" d="M128.019 25.456c-.76 11.326-.023 11.815-.023 11.815.32.443 1.006.828 1.677.8l2.723-.022c1.165-.048 1.879-.383 2.19-2.242 0 0 .479-4.297.868-9.092.105-1.29-.392-2.504-1.753-2.49l-3.855.039c-.807.007-1.777.427-1.827 1.193z"/></g><g><path fill="#008581" d="M128.651 26.248c-.536 9.673.067 10.098.067 10.098.263.38.822.714 1.367.695l2.21.001c.946-.033 1.523-.314 1.763-1.901 0 0 .358-3.67.64-7.763.076-1.102-.337-2.143-1.443-2.14l-3.129.004c-.655 0-1.439.353-1.475 1.006z"/></g></g><g><g><path fill="#ebebeb" d="M110.787 38.073l-35.506-5.7a3.068 3.068 0 0 0-.543-.05l-11.968-.079c-.145 0-.191.194-.063.258l13.672 5.57z"/></g><g><path fill="#838c9c" d="M108.769 38.073L76.2 32.913a3.164 3.164 0 0 0-.544-.051l-10.869-.07c-.144-.001-.19.192-.062.257l12.587 5.024z"/></g></g><g><path fill="#abddef" d="M48.429 29.224a1.286 1.286 0 1 1-2.573 0 1.286 1.286 0 0 1 2.573 0z"/></g><g><path fill="#abddef" d="M53.862 29.224a1.286 1.286 0 1 1-2.572 0 1.286 1.286 0 0 1 2.572 0z"/></g><g><path fill="#abddef" d="M59.295 29.224a1.286 1.286 0 1 1-2.575 0 1.286 1.286 0 0 1 2.575 0z"/></g><g><path fill="#abddef" d="M64.729 29.224a1.286 1.286 0 1 1-2.572 0 1.286 1.286 0 0 1 2.572 0z"/></g><g><path fill="#abddef" d="M70.162 29.224a1.286 1.286 0 1 1-2.572 0 1.286 1.286 0 0 1 2.572 0z"/></g><g><path fill="#abddef" d="M75.596 29.224a1.286 1.286 0 1 1-2.572 0 1.286 1.286 0 0 1 2.572 0z"/></g><g><path fill="#abddef" d="M81.03 29.224a1.286 1.286 0 1 1-2.573 0 1.286 1.286 0 0 1 2.572 0z"/></g><g><path fill="#abddef" d="M86.463 29.224a1.286 1.286 0 1 1-2.573 0 1.286 1.286 0 0 1 2.573 0z"/></g><g><path fill="#abddef" d="M91.896 29.224a1.286 1.286 0 0 1-2.574 0 1.287 1.287 0 1 1 2.574 0z"/></g><g><path fill="#abddef" d="M97.33 29.224a1.286 1.286 0 1 1-2.574 0 1.287 1.287 0 1 1 2.573 0z"/></g><g><path fill="#abddef" d="M102.763 29.224a1.286 1.286 0 1 1-2.572 0 1.286 1.286 0 0 1 2.572 0z"/></g><g><path fill="#abddef" d="M108.196 29.224a1.286 1.286 0 1 1-2.571.001 1.286 1.286 0 0 1 2.571 0z"/></g><g><path fill="#abddef" d="M113.63 29.224a1.286 1.286 0 1 1-2.572 0 1.286 1.286 0 0 1 2.572 0z"/></g><g><path fill="#abddef" d="M119.063 29.224a1.286 1.286 0 1 1-2.572 0 1.286 1.286 0 0 1 2.572 0z"/></g><g><path fill="#abddef" d="M124.497 29.224a1.286 1.286 0 1 1-2.573 0 1.286 1.286 0 0 1 2.573 0z"/></g><g opacity=".45"><path fill="#9199a7" d="M110.787 38.073l-4.5 6.1s-26.644-1.36-33.695-1.826l3.787-4.274z"/></g><g><g><g><path fill="#e6e5e9" d="M112.902 39.483c-.07-.85-.936-1.48-1.913-1.395l-12.643 1.16c-1.087.095-2.077.62-2.496 1.43-.322.622-.478 1.462-.074 2.52.357.933 1.427 1.584 2.637 1.687l12.108 1.033.033.003c.912.068 2.145-.557 2.145-1.35z"/></g></g><g><g><path fill="#fbae39" d="M110.989 38.088c-.163-.012-.326-.024-.49-.008l-12.361 1.168c-1.006.095-1.923.62-2.312 1.43-.297.622-.442 1.462-.068 2.52.331.933 1.321 1.584 2.441 1.687l11.21 1.033c.558.051 1.05.117 1.58-.015z"/></g></g><g><path fill="#ebebeb" d="M98.453 39.218l-4.2.513c-.558.07-1.066.328-1.38.733-.557.716-1.143 1.965-.103 3.37.35.472.94.775 1.586.814l4.057.237z"/></g></g><g opacity=".35"><path fill="#9199a7" d="M105.424 38.56l-6.97.658h-.001l-.315.03c-.037.003-.07.017-.107.022l-3.778.461c-.558.069-1.066.328-1.38.733-.557.716-1.143 1.965-.103 3.37.35.472.94.775 1.586.814l3.765.22c.027.002.051.014.078.017l11.21 1.033c.558.051 1.05.117 1.58-.014V45.9c.487-.065.99-.284 1.324-.588-4.321-.169-7.586-1.936-6.89-6.753z"/></g><g><path fill="#6e788b" d="M73.033 35.107c-.136-.005-.992-.15-.586-.343l7.51-.156c1.16.105 1.856.49 1.412.825z"/></g><g><path fill="#6e788b" d="M79.802 36.724c-.136-.005-.991-.15-.587-.343l7.51-.155c1.16.105 1.857.489 1.413.825z"/></g></g></g></svg>