<svg xmlns="http://www.w3.org/2000/svg" width="110" height="57" viewBox="0 0 110 57"><g><g><g><g><path fill="#353535" d="M21.008 46.176a1.985 1.985 0 0 1-1.986 1.986H6.125a1.83 1.83 0 0 1-1.83-1.834v-.152h16.498z"/></g></g><g><g><path fill="#e8e8e8" d="M17.665 43.07a3.128 3.128 0 0 0 3.105 3.106H3.874l-2.228 1.666v-2.739l.718-.49V43.07z"/></g></g><g><g><path fill="#373747" d="M15.093 48.967c.688 0 .774 1.07.08 1.07"/></g></g><g><g><path fill="#373747" d="M13.458 50.413c.694 0 .775 1.075.081 1.075"/></g></g><g><g><path fill="#373747" d="M12.9 49.424c0-.35.29-.64.64-.64.354 0 .644.29.644.64a.642.642 0 0 1-1.285 0z"/></g></g><g><g><path fill="#373747" d="M13.588 48.36c-.689 0-.77-1.076-.081-1.076"/></g></g><g><g><path fill="#373747" d="M11.926 49c.688 0 .774 1.075.08 1.075"/></g></g><g><g><path fill="#f3f3f3" d="M11.077 49.424a2.462 2.462 0 0 1 2.462-2.462 2.464 2.464 0 1 1-2.462 2.462zm.85-.424c-.694 0-.608 1.075.08 1.075zm1.612-.216c-.35 0-.64.29-.64.64a.642.642 0 1 0 1.285 0c0-.35-.29-.64-.645-.64zm.049-.424c.693 0 .612-1.076-.081-1.076zm-.049 3.128c.694 0 .613-1.075-.08-1.075zm1.634-1.451c.694 0 .608-1.07-.08-1.07z"/></g></g><g><g><path fill="#e8e8e8" d="M9.11 49.424a4.43 4.43 0 0 1 4.43-4.43 4.432 4.432 0 1 1-4.43 4.43zm4.43-2.462a2.462 2.462 0 0 0-2.463 2.462 2.464 2.464 0 1 0 2.462-2.462z"/></g></g><g><g><path fill="#b7b7b7" d="M13.54 43.376a6.051 6.051 0 1 1 .003 12.103 6.051 6.051 0 0 1-.004-12.103zm0 1.618a4.43 4.43 0 0 0-4.43 4.43 4.432 4.432 0 1 0 4.43-4.43z"/></g></g><g><g><path fill="#1d1d28" d="M7.491 49.424a6.05 6.05 0 1 1 6.048 6.053 6.051 6.051 0 0 1-6.048-6.053zm6.048-7.687a7.686 7.686 0 0 0-7.687 7.687 7.687 7.687 0 0 0 7.687 7.693 7.688 7.688 0 0 0 7.693-7.693 7.687 7.687 0 0 0-7.693-7.687z"/></g></g><g><g><path fill="#1d1d28" d="M76.9 48.784V38.1h20.356v10.684z"/></g></g><g><g><path fill="#373747" d="M87.905 48.967c.688 0 .774 1.07.08 1.07"/></g></g><g><g><path fill="#373747" d="M86.27 50.413c.694 0 .774 1.075.08 1.075"/></g></g><g><g><path fill="#373747" d="M85.711 49.424c0-.35.29-.64.64-.64.355 0 .645.29.645.64a.642.642 0 0 1-1.285 0z"/></g></g><g><g><path fill="#373747" d="M86.4 48.36c-.689 0-.77-1.076-.081-1.076"/></g></g><g><g><path fill="#373747" d="M84.738 49c.688 0 .775 1.075.081 1.075"/></g></g><g><g><path fill="#f3f3f3" d="M83.889 49.424a2.462 2.462 0 0 1 2.462-2.462 2.464 2.464 0 1 1-2.462 2.462zm.849-.424c-.693 0-.607 1.075.08 1.075zm1.613-.216c-.35 0-.64.29-.64.64a.641.641 0 0 0 1.285 0c0-.35-.29-.64-.645-.64zm.048-.424c.694 0 .613-1.076-.08-1.076zm-.048 3.128c.693 0 .613-1.075-.08-1.075zm1.634-1.451c.694 0 .608-1.07-.08-1.07z"/></g></g><g><g><path fill="#e8e8e8" d="M81.921 49.424a4.43 4.43 0 0 1 4.43-4.43 4.432 4.432 0 1 1 0 8.865 4.431 4.431 0 0 1-4.43-4.435zm4.43-2.462a2.462 2.462 0 0 0-2.462 2.462 2.464 2.464 0 1 0 2.462-2.462z"/></g></g><g><g><path fill="#b7b7b7" d="M86.35 43.376a6.051 6.051 0 1 1 .005 12.103 6.051 6.051 0 0 1-.004-12.103zm0 1.618a4.43 4.43 0 0 0-4.429 4.43 4.432 4.432 0 1 0 8.865 0 4.432 4.432 0 0 0-4.435-4.43z"/></g></g><g><g><path fill="#1d1d28" d="M80.303 49.424a6.05 6.05 0 1 1 6.048 6.053 6.051 6.051 0 0 1-6.048-6.053zm6.048-7.687a7.686 7.686 0 0 0-7.688 7.687 7.687 7.687 0 0 0 7.688 7.693 7.688 7.688 0 0 0 7.693-7.693 7.687 7.687 0 0 0-7.693-7.687z"/></g></g><g><g><path fill="#353535" d="M22.313 48.995v-4.479h42.105v4.479z"/></g></g><g><g><path fill="#1d1d28" d="M67.647 43.07v-2.105h1.03v2.445H70.7v1.947s-.038 1.576 2.868 1.576v1.159h3.998v2.664H62.104V43.07z"/></g></g><g><g><path fill="#e8e8e8" d="M48.9 44.612l.422-1.541h16.824l.005 1.54h-15.92z"/></g></g><g><g><path fill="#b7b7b7" d="M45.889 44.14h-3.967v-1.03h6.16v-.04h1.24l-.421 1.542-.496.648a3.116 3.116 0 0 1-2.212.916h-4.271v-.764h3.967z"/></g></g><g><g><path fill="#b7b7b7" d="M41.922 45.412V44.14h3.967v1.272z"/></g></g><g><g><path fill="#b7b7b7" d="M39.327 46.176v-.764h2.595v.764z"/></g></g><g><g><path fill="#b7b7b7" d="M39.327 45.412V44.14h2.595v1.272z"/></g></g><g><g><path fill="#b7b7b7" d="M39.327 44.14v-1.03h2.595v1.03z"/></g></g><g><g><path fill="#5b5b77" d="M39.327 43.11v-.039h2.595v.039z"/></g></g><g><g><path fill="#b7b7b7" d="M27.468 46.176v-.764h11.86v.764z"/></g></g><g><g><path fill="#b7b7b7" d="M27.468 45.412V44.14h11.86v1.272z"/></g></g><g><g><path fill="#b7b7b7" d="M27.468 44.14v-1.03h11.86v1.03z"/></g></g><g><g><path fill="#b7b7b7" d="M24.874 46.176v-.764h2.594v.764z"/></g></g><g><g><path fill="#b7b7b7" d="M24.874 45.412V44.14h2.594v1.272z"/></g></g><g><g><path fill="#b7b7b7" d="M24.874 44.14v-1.03h2.594v1.03z"/></g></g><g><g><path fill="#5b5b77" d="M24.874 43.11v-.039h2.594v.039z"/></g></g><g><g><path fill="#e8e8e8" d="M48.081 43.2H18.905v-1.358h29.176z"/></g></g><g><g><path fill="#b7b7b7" d="M21.008 45.412V44.14h3.866v1.272z"/></g></g><g><g><path fill="#b7b7b7" d="M21.008 46.176h-.238a3.128 3.128 0 0 1-3.105-3.105h1.24v.04h5.969v1.029h-3.866v1.272h3.866v.764z"/></g></g><g><g><path fill="#e9f4f4" d="M69.424 40.212H2.72V2.86h66.704zM.45 0v43.072l18.454-.024v-1.205h29.177v1.205h14.866v.024h8.745V0z"/></g></g><g><path fill="#f8fcfc" d="M2.72 2.859v37.354h66.704v-.777h.002V2.858z"/></g><g><path fill="#1d1d28" d="M95.98 26.301l-.271-3.05.465-.1.271 3.041z"/></g><g><path fill="#1d1d28" d="M96.445 26.192l.008.113-.234.025h-.013l-.226-.016V26.3z"/></g><g><path fill="#1d1d28" d="M95.798 18.947l.376 4.203-.465.101-.372-4.194z"/></g><g><path fill="#d9f0f9" d="M107.476 28.441c-.619-1.788-1.727-4.623-3.394-7.6-1.464-2.605-3.357-5.316-5.728-7.52a7.296 7.296 0 0 0-.505-.43l-.004.005v.825s2.62 2.637 5.202 7.229a40 40 0 0 1 .845 1.577 39.19 39.19 0 0 1 2.775 7.047s.32.756 1.36.922a14.564 14.564 0 0 0-.55-2.055z"/></g><g><path fill="#3a3a4c" d="M95.98 26.301v.013l-.04-.005z"/></g><g><path fill="#1d1d28" d="M95.53 15.914l.268 3.033-.461.11-.271-3.042z"/></g><g><path fill="#1d1d28" d="M95.393 14.4l.138 1.514-.465.1-.158-1.775.235-.02c.084.056.17.117.25.182z"/></g><g><g><path fill="#d9f0f9" d="M95.337 19.057l-.271-3.042-.158-1.776.234-.02a.676.676 0 0 0-.38-.114H83.89a.656.656 0 0 0-.66.656v9.199c0 .845.656 1.544 1.502 1.601l.433.028 10.775.72.041-.008-.271-3.05z"/></g><g><path fill="#d9f0f9" d="M104.284 28.963c-.1-.307-.23-.688-.392-1.128a48.097 48.097 0 0 0-2.08-4.923c-.149-.3-.303-.603-.46-.91h-.004a30.963 30.963 0 0 0-2.318-3.807 19.077 19.077 0 0 0-2.184-2.573 11.96 11.96 0 0 0-1.453-1.221l.138 1.513.267 3.033.376 4.203.271 3.042.008.113-.234.025a.642.642 0 0 1 .534.34l1.549 2.815c.113.21.336.344.574.344h4.781a.659.659 0 0 0 .627-.866z"/></g></g><g><path fill="#3a3a4c" d="M94.463 49.2l.146 1.437h-.457l-.215-1.436z"/></g><g><path fill="#008581" d="M94.463 49.2h13.842l.07.045a2.819 2.819 0 0 1-2.432 1.392H94.609z"/></g><g><path fill="#1d1d28" d="M108.334 43.016c.671.238 1.076.918.967 1.622l-.567 3.608c-.057.36-.182.7-.36 1l-.069-.045H94.463l-.121-1.214 1.986.037 9.38.153v-5.084h2.597z"/></g><g><path fill="#1d1d28" d="M94.342 47.987l.121 1.214h-.526l-.182-1.222z"/></g><g><path fill="#1d1d28" d="M74.682 50.637v-7.463h.567v7.463z"/></g><g><path fill="#1d1d28" d="M78.258 43.174v.1a5.685 5.685 0 0 0-.408 2.124v5.239h-2.601v-7.463z"/></g><g><path fill="#1d1d28" d="M79.12 43.174s-1.088 2.05-.704 7.463h-.566v-5.239a5.686 5.686 0 0 1 .449-2.224z"/></g><g><path fill="#03706a" d="M97.849 12.892l-.004.004h-22.2c.316-.821.789-1.416 1.323-1.42l16.532-.048a7.125 7.125 0 0 1 4.349 1.464z"/></g><g><path fill="#008581" d="M103.657 29.829h-4.78a.655.655 0 0 1-.575-.344l-1.55-2.815a.642.642 0 0 0-.533-.34h-.013l-.222.02-.004-.036-.04-.005-10.777-.72-.432-.028a1.606 1.606 0 0 1-1.501-1.602v-9.198c0-.364.295-.656.66-.656h10.873c.133 0 .266.037.38.114l.25.182c.506.355.987.768 1.453 1.221a19.077 19.077 0 0 1 2.184 2.573A30.963 30.963 0 0 1 101.348 22h.004c.157.308.311.611.461.91a48.135 48.135 0 0 1 2.08 4.924c.16.44.29.82.391 1.128a.659.659 0 0 1-.627.866zm4.822 8.038c0-1.02-.02-2.14-.073-3.318a64.812 64.812 0 0 0-.153-2.422 13.703 13.703 0 0 0-.227-1.63c-1.04-.167-1.359-.923-1.359-.923a39.19 39.19 0 0 0-2.775-7.047 39.981 39.981 0 0 0-.845-1.577c-2.581-4.592-5.202-7.229-5.202-7.229v-.825h-22.2a6.272 6.272 0 0 0-.396 2.192v28.086h3.05a5.721 5.721 0 0 1 5.275-3.5h5.436a5.043 5.043 0 0 1 4.87 3.738l.462 4.575 1.986.037 9.38.153v-5.084h2.597l.028-.077a.082.082 0 0 1-.028-.008s.11-1.331.154-3.39z"/></g><g><g><g><path fill="#fbae39" d="M8.7 18.615h.88c.402-.031.799.098 1.105.36.217.245.324.569.298.895a1.14 1.14 0 0 1-.328.91 1.684 1.684 0 0 1-1.09.313H8.7zm1.628 4.568a3.314 3.314 0 0 0 2.478-.865 3.235 3.235 0 0 0 .882-2.478 3.088 3.088 0 0 0-.926-2.419 3.424 3.424 0 0 0-2.525-.895h-4.12v9.957H8.7v-3.3z"/></g><g><path fill="#fbae39" d="M31.147 18.524h.492c.448-.033.892.107 1.24.39.221.222.345.523.343.836-.001.31-.118.608-.328.836-.358.277-.802.42-1.255.403h-.492zm-2.582-1.998v9.96h2.582v-3.823l2.477 3.82h3.21l-3.12-4.077a2.787 2.787 0 0 0 1.373-.685 2.873 2.873 0 0 0 .792-2.074 3.278 3.278 0 0 0-.85-2.24 3.22 3.22 0 0 0-2.434-.881z"/></g><g><path fill="#fbae39" d="M46.63 26.215c-.708.303-1.468.47-2.239.493a5.412 5.412 0 0 1-3.851-1.493 5.202 5.202 0 0 1 3.762-8.853 6.18 6.18 0 0 1 2.329.507v3.09a2.76 2.76 0 0 0-2.255-1.09 2.521 2.521 0 0 0-1.792.657 2.785 2.785 0 0 0-.865 2.045 2.75 2.75 0 0 0 .806 1.942 2.781 2.781 0 0 0 1.851.685 2.923 2.923 0 0 0 2.255-1.044z"/></g><g><path fill="#fbae39" d="M52.946 16.526v7.762h3.104v2.193h-5.686v-9.955z"/></g><g><path fill="#fbae39" d="M61.589 16.526v7.762h3.103v2.193h-5.685v-9.955z"/></g><g><path fill="#fbae39" d="M64.995 16.646v.596h-.14v-.596h-.158v-.12h.461v.12z"/></g><g><path fill="#fbae39" d="M65.319 16.526h.1l.19.455.198-.455h.101l.12.716h-.141l-.065-.442-.192.442h-.047L65.4 16.8l-.073.442h-.142z"/></g><g><path fill="#008581" d="M21.909 16.526h-2.821l-3.823 9.957h2.732z"/></g><g><path fill="#008581" d="M25.657 26.484h-2.758l-1.84-4.806a2.18 2.18 0 0 1 .008-1.572l1.117-2.848z"/></g></g></g></g></g></svg>