<svg xmlns="http://www.w3.org/2000/svg" width="64" height="58" viewBox="0 0 64 58"><defs><linearGradient id="purca" x1="0" x2="64" y1="29" y2="29" gradientUnits="userSpaceOnUse"><stop offset="0" stop-color="#0087cd"/><stop offset="1" stop-color="#5400ff"/></linearGradient></defs><path d="M64 21.933c0 5.996-4.948 10.875-11.03 10.875-6.082 0-11.03-4.879-11.03-10.875 0-.694.57-1.257 1.275-1.257h.854c.833-4.164 5.102-11.496 6.992-14.601a3.315 3.315 0 01-1.469-2.745c0-1.837 1.515-3.33 3.378-3.33 1.862 0 3.378 1.493 3.378 3.33a3.316 3.316 0 01-1.469 2.745c1.89 3.105 6.16 10.437 6.992 14.601h.854c.704 0 1.275.563 1.275 1.257zM52.142 3.33c0 .45.371.816.828.816a.824.824 0 00.828-.816.824.824 0 00-.828-.817.823.823 0 00-.828.817zm-5.475 17.346h12.61c-.82-3.28-4.152-9.26-6.31-12.851-2.528 4.191-5.526 9.78-6.3 12.851zm14.688 2.513h-16.77c.617 4.017 4.142 7.105 8.385 7.105 4.243 0 7.768-3.088 8.385-7.105zM44.623 52.031v4.71c0 .695-.571 1.258-1.275 1.258H20.785a1.266 1.266 0 01-1.275-1.257V52.03c0-.694.57-1.257 1.275-1.257h3.37V47.58c0-.694.571-1.256 1.275-1.256h3.238V11.21a4.804 4.804 0 01-.903-1.213L14.372 12.84a3.328 3.328 0 01-1.433 2.265c1.89 3.105 6.16 10.437 6.992 14.6h.854c.704 0 1.275.563 1.275 1.258 0 5.996-4.948 10.875-11.03 10.875C4.948 41.838 0 36.959 0 30.963c0-.695.57-1.258 1.275-1.258h.854c.833-4.163 5.102-11.495 6.992-14.6a3.315 3.315 0 01-1.469-2.746c0-1.836 1.515-3.33 3.378-3.33 1.12 0 2.113.54 2.728 1.37l13.48-2.86c.148-2.5 2.257-4.49 4.828-4.49a4.852 4.852 0 014.283 2.556l5.403-1.147a1.276 1.276 0 011.515.964 1.258 1.258 0 01-.978 1.494L36.898 8.06a4.727 4.727 0 01-1.433 3.15v35.114h3.237c.704 0 1.275.563 1.275 1.257v3.193h3.37c.705 0 1.276.562 1.276 1.257zM10.202 12.359c0 .45.371.816.828.816a.823.823 0 00.828-.816.823.823 0 00-.828-.816.823.823 0 00-.828.816zm9.212 19.86H2.645c.617 4.017 4.142 7.105 8.385 7.105 4.243 0 7.768-3.088 8.384-7.105zm-8.386-15.364c-2.53 4.191-5.527 9.78-6.3 12.85h12.608c-.82-3.28-4.15-9.26-6.308-12.85zm18.75-9.036c0 1.245 1.027 2.256 2.288 2.256 1.262 0 2.288-1.011 2.288-2.256 0-1.244-1.026-2.255-2.288-2.255-1.261 0-2.288 1.011-2.288 2.255zm2.288 4.77c-.29 0-.573-.026-.848-.074v33.81h1.697v-33.81a4.971 4.971 0 01-.849.074zm-5.36 36.25v1.935h10.721v-1.936zm15.367 4.449H22.06v2.197h20.013zm5.126-47.336l-.929.197a1.272 1.272 0 01-1.515-.964 1.257 1.257 0 01.979-1.494l.929-.197a1.275 1.275 0 011.514.965 1.257 1.257 0 01-.978 1.493z"/><path fill="url(#purca)" d="M64 21.933c0 5.996-4.948 10.875-11.03 10.875-6.082 0-11.03-4.879-11.03-10.875 0-.694.57-1.257 1.275-1.257h.854c.833-4.164 5.102-11.496 6.992-14.601a3.315 3.315 0 01-1.469-2.745c0-1.837 1.515-3.33 3.378-3.33 1.862 0 3.378 1.493 3.378 3.33a3.316 3.316 0 01-1.469 2.745c1.89 3.105 6.16 10.437 6.992 14.601h.854c.704 0 1.275.563 1.275 1.257zM52.142 3.33c0 .45.371.816.828.816a.824.824 0 00.828-.816.824.824 0 00-.828-.817.823.823 0 00-.828.817zm-5.475 17.346h12.61c-.82-3.28-4.152-9.26-6.31-12.851-2.528 4.191-5.526 9.78-6.3 12.851zm14.688 2.513h-16.77c.617 4.017 4.142 7.105 8.385 7.105 4.243 0 7.768-3.088 8.385-7.105zM44.623 52.031v4.71c0 .695-.571 1.258-1.275 1.258H20.785a1.266 1.266 0 01-1.275-1.257V52.03c0-.694.57-1.257 1.275-1.257h3.37V47.58c0-.694.571-1.256 1.275-1.256h3.238V11.21a4.804 4.804 0 01-.903-1.213L14.372 12.84a3.328 3.328 0 01-1.433 2.265c1.89 3.105 6.16 10.437 6.992 14.6h.854c.704 0 1.275.563 1.275 1.258 0 5.996-4.948 10.875-11.03 10.875C4.948 41.838 0 36.959 0 30.963c0-.695.57-1.258 1.275-1.258h.854c.833-4.163 5.102-11.495 6.992-14.6a3.315 3.315 0 01-1.469-2.746c0-1.836 1.515-3.33 3.378-3.33 1.12 0 2.113.54 2.728 1.37l13.48-2.86c.148-2.5 2.257-4.49 4.828-4.49a4.852 4.852 0 014.283 2.556l5.403-1.147a1.276 1.276 0 011.515.964 1.258 1.258 0 01-.978 1.494L36.898 8.06a4.727 4.727 0 01-1.433 3.15v35.114h3.237c.704 0 1.275.563 1.275 1.257v3.193h3.37c.705 0 1.276.562 1.276 1.257zM10.202 12.359c0 .45.371.816.828.816a.823.823 0 00.828-.816.823.823 0 00-.828-.816.823.823 0 00-.828.816zm9.212 19.86H2.645c.617 4.017 4.142 7.105 8.385 7.105 4.243 0 7.768-3.088 8.384-7.105zm-8.386-15.364c-2.53 4.191-5.527 9.78-6.3 12.85h12.608c-.82-3.28-4.15-9.26-6.308-12.85zm18.75-9.036c0 1.245 1.027 2.256 2.288 2.256 1.262 0 2.288-1.011 2.288-2.256 0-1.244-1.026-2.255-2.288-2.255-1.261 0-2.288 1.011-2.288 2.255zm2.288 4.77c-.29 0-.573-.026-.848-.074v33.81h1.697v-33.81a4.971 4.971 0 01-.849.074zm-5.36 36.25v1.935h10.721v-1.936zm15.367 4.449H22.06v2.197h20.013zm5.126-47.336l-.929.197a1.272 1.272 0 01-1.515-.964 1.257 1.257 0 01.979-1.494l.929-.197a1.275 1.275 0 011.514.965 1.257 1.257 0 01-.978 1.493z"/></svg>