<svg xmlns="http://www.w3.org/2000/svg" width="1424" height="459" viewBox="0 0 1424 459"><defs><linearGradient id="x1s4a" x1="1060" x2="1143" y1="459" y2="376" gradientUnits="userSpaceOnUse"><stop offset="0" stop-color="#002739"/><stop offset="1"/></linearGradient><linearGradient id="x1s4b" x1="1233.01" x2="1424" y1="290" y2="98.9" gradientUnits="userSpaceOnUse"><stop offset="0" stop-color="#eb8432"/><stop offset="1" stop-color="#8e3f00"/></linearGradient><linearGradient id="x1s4c" x1="819.27" x2="1072.63" y1="416.63" y2="350.19" gradientUnits="userSpaceOnUse"><stop offset="0" stop-color="#002739"/><stop offset="1"/></linearGradient></defs><g><g><path fill="#fafafa" d="M1015 333V53h280v280z"/></g><g><path fill="#fafafa" d="M985 427V296h132v131z"/></g><g><path fill="#fafafa" d="M62 242V111h132v131z"/></g><g><path fill="#fafafa" d="M0 162V61h102v101z"/></g><g><path fill="url(#x1s4a)" d="M1143 376v83h-83v-83z"/></g><g><path fill="#002739" d="M1182 152V0h152v152z"/></g><g><path fill="url(#x1s4b)" d="M1424 266.821a2.087 2.087 0 1 1-4.174 0 2.087 2.087 0 0 1 4.174 0zm-21.092 0a2.087 2.087 0 1 1-4.174 0 2.087 2.087 0 0 1 4.174 0zm-21.091 0a2.087 2.087 0 1 1-4.175 0 2.087 2.087 0 0 1 4.175 0zm-21.092 0a2.087 2.087 0 1 1-4.175 0 2.087 2.087 0 0 1 4.175 0zm-21.092 0a2.087 2.087 0 1 1-4.175 0 2.087 2.087 0 0 1 4.175 0zm-21.091 0a2.087 2.087 0 1 1-4.175 0 2.087 2.087 0 0 1 4.175 0zm-21.092 0a2.087 2.087 0 1 1-4.175 0 2.087 2.087 0 0 1 4.175 0zm-21.092 0a2.087 2.087 0 1 1-4.174 0 2.087 2.087 0 0 1 4.174 0zm-21.092 0a2.087 2.087 0 1 1-4.174 0 2.087 2.087 0 0 1 4.174 0zm-21.091 0a2.087 2.087 0 1 1-4.175 0 2.087 2.087 0 0 1 4.175 0zM1424 287.913a2.087 2.087 0 1 1-4.174 0 2.087 2.087 0 0 1 4.174 0zm-21.092 0a2.087 2.087 0 1 1-4.174 0 2.087 2.087 0 0 1 4.174 0zm-21.091 0a2.087 2.087 0 1 1-4.175 0 2.087 2.087 0 0 1 4.175 0zm-21.092 0a2.087 2.087 0 1 1-4.174 0 2.087 2.087 0 0 1 4.174 0zm-21.092 0a2.087 2.087 0 1 1-4.174 0 2.087 2.087 0 0 1 4.174 0zm-21.091 0a2.087 2.087 0 1 1-4.175 0 2.087 2.087 0 0 1 4.175 0zm-21.092 0a2.087 2.087 0 1 1-4.175 0 2.087 2.087 0 0 1 4.175 0zm-21.092 0a2.087 2.087 0 1 1-4.174 0 2.087 2.087 0 0 1 4.174 0zm-21.092 0a2.087 2.087 0 1 1-4.174 0 2.087 2.087 0 0 1 4.174 0zm-21.091 0a2.087 2.087 0 1 1-4.175 0 2.087 2.087 0 0 1 4.175 0zM1424 245.729a2.087 2.087 0 1 1-4.174 0 2.087 2.087 0 0 1 4.174 0zm-21.092 0a2.087 2.087 0 1 1-4.174 0 2.087 2.087 0 0 1 4.174 0zm-21.091 0a2.087 2.087 0 1 1-4.175 0 2.087 2.087 0 0 1 4.175 0zm-21.092 0a2.087 2.087 0 1 1-4.174 0 2.087 2.087 0 0 1 4.174 0zm-21.092 0a2.087 2.087 0 1 1-4.174 0 2.087 2.087 0 0 1 4.174 0zm-21.091 0a2.087 2.087 0 1 1-4.175 0 2.087 2.087 0 0 1 4.175 0zm-21.092 0a2.087 2.087 0 1 1-4.175 0 2.087 2.087 0 0 1 4.175 0zm-21.092 0a2.087 2.087 0 1 1-4.174 0 2.087 2.087 0 0 1 4.174 0zm-21.092 0a2.087 2.087 0 1 1-4.174 0 2.087 2.087 0 0 1 4.174 0zm-21.091 0a2.087 2.087 0 1 1-4.175 0 2.087 2.087 0 0 1 4.175 0zM1424 224.638a2.087 2.087 0 1 1-4.174 0 2.087 2.087 0 0 1 4.174 0zm-21.092 0a2.087 2.087 0 1 1-4.174 0 2.087 2.087 0 0 1 4.174 0zm-21.091 0a2.087 2.087 0 1 1-4.175 0 2.087 2.087 0 0 1 4.175 0zm-21.092 0a2.087 2.087 0 1 1-4.174 0 2.087 2.087 0 0 1 4.174 0zm-21.092 0a2.087 2.087 0 1 1-4.174 0 2.087 2.087 0 0 1 4.174 0zm-21.091 0a2.087 2.087 0 1 1-4.175 0 2.087 2.087 0 0 1 4.175 0zm-21.092 0a2.087 2.087 0 1 1-4.175 0 2.087 2.087 0 0 1 4.175 0zm-21.092 0a2.087 2.087 0 1 1-4.174 0 2.087 2.087 0 0 1 4.174 0zm-21.092 0a2.087 2.087 0 1 1-4.174 0 2.087 2.087 0 0 1 4.174 0zm-21.091 0a2.087 2.087 0 1 1-4.175 0 2.087 2.087 0 0 1 4.175 0zM1424 182.454a2.087 2.087 0 1 1-4.174 0 2.087 2.087 0 0 1 4.174 0zm-21.092 0a2.087 2.087 0 1 1-4.174 0 2.087 2.087 0 0 1 4.174 0zm-21.091 0a2.087 2.087 0 1 1-4.175 0 2.087 2.087 0 0 1 4.175 0zm-21.092 0a2.087 2.087 0 1 1-4.174 0 2.087 2.087 0 0 1 4.174 0zm-21.092 0a2.087 2.087 0 1 1-4.174 0 2.087 2.087 0 0 1 4.174 0zm-21.091 0a2.087 2.087 0 1 1-4.175 0 2.087 2.087 0 0 1 4.175 0zm-21.092 0a2.087 2.087 0 1 1-4.175 0 2.087 2.087 0 0 1 4.175 0zm-21.092 0a2.087 2.087 0 1 1-4.174 0 2.087 2.087 0 0 1 4.174 0zm-21.092 0a2.087 2.087 0 1 1-4.174 0 2.087 2.087 0 0 1 4.174 0zm-21.091 0a2.087 2.087 0 1 1-4.175 0 2.087 2.087 0 0 1 4.175 0zM1424 203.546a2.087 2.087 0 1 1-4.174 0 2.087 2.087 0 0 1 4.174 0zm-21.092 0a2.087 2.087 0 1 1-4.174 0 2.087 2.087 0 0 1 4.174 0zm-21.091 0a2.087 2.087 0 1 1-4.175 0 2.087 2.087 0 0 1 4.175 0zm-21.092 0a2.087 2.087 0 1 1-4.175 0 2.087 2.087 0 0 1 4.175 0zm-21.092 0a2.087 2.087 0 1 1-4.175 0 2.087 2.087 0 0 1 4.175 0zm-21.091 0a2.087 2.087 0 1 1-4.175 0 2.087 2.087 0 0 1 4.175 0zm-21.092 0a2.087 2.087 0 1 1-4.175 0 2.087 2.087 0 0 1 4.175 0zm-21.092 0a2.087 2.087 0 1 1-4.174 0 2.087 2.087 0 0 1 4.174 0zm-21.092 0a2.087 2.087 0 1 1-4.174 0 2.087 2.087 0 0 1 4.174 0zm-21.091 0a2.087 2.087 0 1 1-4.175 0 2.087 2.087 0 0 1 4.175 0zM1424 161.363a2.087 2.087 0 1 1-4.174 0 2.087 2.087 0 0 1 4.174 0zm-21.092 0a2.087 2.087 0 1 1-4.174 0 2.087 2.087 0 0 1 4.174 0zm-21.091 0a2.087 2.087 0 1 1-4.175 0 2.087 2.087 0 0 1 4.175 0zm-21.092 0a2.087 2.087 0 1 1-4.175 0 2.087 2.087 0 0 1 4.175 0zm-21.092 0a2.087 2.087 0 1 1-4.175 0 2.087 2.087 0 0 1 4.175 0zm-21.091 0a2.087 2.087 0 1 1-4.175 0 2.087 2.087 0 0 1 4.175 0zm-21.092 0a2.087 2.087 0 1 1-4.175 0 2.087 2.087 0 0 1 4.175 0zm-21.092 0a2.087 2.087 0 1 1-4.174 0 2.087 2.087 0 0 1 4.174 0zm-21.092 0a2.087 2.087 0 1 1-4.174 0 2.087 2.087 0 0 1 4.174 0zm-21.091 0a2.087 2.087 0 1 1-4.175 0 2.087 2.087 0 0 1 4.175 0zM1424 119.179a2.087 2.087 0 1 1-4.174 0 2.087 2.087 0 0 1 4.174 0zm-21.092 0a2.087 2.087 0 1 1-4.174 0 2.087 2.087 0 0 1 4.174 0zm-21.091 0a2.087 2.087 0 1 1-4.175 0 2.087 2.087 0 0 1 4.175 0zm-21.092 0a2.087 2.087 0 1 1-4.175 0 2.087 2.087 0 0 1 4.175 0zm-21.092 0a2.087 2.087 0 1 1-4.175 0 2.087 2.087 0 0 1 4.175 0zm-21.091 0a2.087 2.087 0 1 1-4.175 0 2.087 2.087 0 0 1 4.175 0zm-21.092 0a2.087 2.087 0 1 1-4.175 0 2.087 2.087 0 0 1 4.175 0zm-21.092 0a2.087 2.087 0 1 1-4.174 0 2.087 2.087 0 0 1 4.174 0zm-21.092 0a2.087 2.087 0 1 1-4.174 0 2.087 2.087 0 0 1 4.174 0zm-21.091 0a2.087 2.087 0 1 1-4.175 0 2.087 2.087 0 0 1 4.175 0zM1424 140.271a2.087 2.087 0 1 1-4.174 0 2.087 2.087 0 0 1 4.174 0zm-21.092 0a2.087 2.087 0 1 1-4.174 0 2.087 2.087 0 0 1 4.174 0zm-21.091 0a2.087 2.087 0 1 1-4.175 0 2.087 2.087 0 0 1 4.175 0zm-21.092 0a2.087 2.087 0 1 1-4.175 0 2.087 2.087 0 0 1 4.175 0zm-21.092 0a2.087 2.087 0 1 1-4.175 0 2.087 2.087 0 0 1 4.175 0zm-21.091 0a2.087 2.087 0 1 1-4.175 0 2.087 2.087 0 0 1 4.175 0zm-21.092 0a2.087 2.087 0 1 1-4.175 0 2.087 2.087 0 0 1 4.175 0zm-21.092 0a2.087 2.087 0 1 1-4.174 0 2.087 2.087 0 0 1 4.174 0zm-21.092 0a2.087 2.087 0 1 1-4.174 0 2.087 2.087 0 0 1 4.174 0zm-21.091 0a2.087 2.087 0 1 1-4.175 0 2.087 2.087 0 0 1 4.175 0zM1424 98.088a2.087 2.087 0 1 1-4.174 0 2.087 2.087 0 0 1 4.174 0zm-21.092 0a2.087 2.087 0 1 1-4.174 0 2.087 2.087 0 0 1 4.174 0zm-21.091 0a2.087 2.087 0 1 1-4.175 0 2.087 2.087 0 0 1 4.175 0zm-21.092 0a2.087 2.087 0 1 1-4.174 0 2.087 2.087 0 0 1 4.174 0zm-21.092 0a2.087 2.087 0 1 1-4.174 0 2.087 2.087 0 0 1 4.174 0zm-21.091 0a2.087 2.087 0 1 1-4.175 0 2.087 2.087 0 0 1 4.175 0zm-21.092 0a2.087 2.087 0 1 1-4.175 0 2.087 2.087 0 0 1 4.175 0zm-21.092 0a2.087 2.087 0 1 1-4.174 0 2.087 2.087 0 0 1 4.174 0zm-21.092 0a2.087 2.087 0 1 1-4.174 0 2.087 2.087 0 0 1 4.174 0zm-21.091 0a2.087 2.087 0 1 1-4.175 0 2.087 2.087 0 0 1 4.175 0z"/></g><g><path fill="url(#x1s4c)" d="M815.275 351.271a2.087 2.087 0 1 1 4.175-.001 2.087 2.087 0 0 1-4.175.001zm21.092 0a2.087 2.087 0 1 1 4.175-.001 2.087 2.087 0 0 1-4.175.001zm21.091 0a2.088 2.088 0 1 1 4.176 0 2.088 2.088 0 0 1-4.176 0zm21.092 0a2.088 2.088 0 1 1 4.176 0 2.088 2.088 0 0 1-4.176 0zm21.092 0a2.087 2.087 0 1 1 4.175-.001 2.087 2.087 0 0 1-4.175.001zm21.092 0a2.088 2.088 0 1 1 4.175 0 2.088 2.088 0 0 1-4.175 0zm21.174 0a2.088 2.088 0 1 1 4.177 0 2.088 2.088 0 0 1-4.177 0zm21.092 0a2.088 2.088 0 1 1 4.176-.001 2.088 2.088 0 0 1-4.176.001zm21.092 0a2.087 2.087 0 1 1 4.175-.001 2.087 2.087 0 0 1-4.175.001zm21.091 0a2.088 2.088 0 1 1 4.176 0 2.088 2.088 0 0 1-4.176 0zm21.092 0a2.088 2.088 0 1 1 4.176 0 2.088 2.088 0 0 1-4.176 0zm21.092 0a2.087 2.087 0 1 1 4.175-.001 2.087 2.087 0 0 1-4.175.001zm21.092 0a2.088 2.088 0 1 1 4.175 0 2.088 2.088 0 0 1-4.175 0zm-253.184 21.092a2.087 2.087 0 1 1 4.174-.001 2.087 2.087 0 0 1-4.174 0zm21.092 0a2.087 2.087 0 1 1 4.173-.001 2.087 2.087 0 0 1-4.173 0zm21.091 0a2.087 2.087 0 1 1 4.174 0 2.087 2.087 0 0 1-4.174 0zm21.092 0a2.087 2.087 0 1 1 4.175 0 2.087 2.087 0 0 1-4.175 0zm21.092 0a2.087 2.087 0 1 1 4.173-.001 2.087 2.087 0 0 1-4.173 0zm21.092 0a2.087 2.087 0 1 1 4.173 0 2.087 2.087 0 0 1-4.173 0zm21.174 0a2.087 2.087 0 1 1 4.175 0 2.087 2.087 0 0 1-4.175 0zm21.092 0a2.087 2.087 0 1 1 4.174-.001 2.087 2.087 0 0 1-4.174 0zm21.092 0a2.087 2.087 0 1 1 4.173-.001 2.087 2.087 0 0 1-4.173 0zm21.091 0a2.087 2.087 0 1 1 4.174 0 2.087 2.087 0 0 1-4.174 0zm21.092 0a2.087 2.087 0 1 1 4.174 0 2.087 2.087 0 0 1-4.174 0zm21.092 0a2.087 2.087 0 1 1 4.174-.001 2.087 2.087 0 0 1-4.174 0zm21.092 0a2.087 2.087 0 1 1 4.173 0 2.087 2.087 0 0 1-4.173 0zm-253.184 21.091a2.087 2.087 0 1 1 4.174 0 2.087 2.087 0 0 1-4.174 0zm21.092 0a2.087 2.087 0 1 1 4.174 0 2.087 2.087 0 0 1-4.174 0zm21.091 0a2.087 2.087 0 1 1 4.175 0 2.087 2.087 0 0 1-4.175 0zm21.092 0a2.088 2.088 0 1 1 4.175.001 2.088 2.088 0 0 1-4.175 0zm21.092 0a2.087 2.087 0 1 1 4.174 0 2.087 2.087 0 0 1-4.174 0zm21.092 0a2.087 2.087 0 1 1 4.174 0 2.087 2.087 0 0 1-4.174 0zm21.174 0a2.088 2.088 0 1 1 4.175.001 2.088 2.088 0 0 1-4.175 0zm21.092 0a2.087 2.087 0 1 1 4.174 0 2.087 2.087 0 0 1-4.174 0zm21.092 0a2.087 2.087 0 1 1 4.174 0 2.087 2.087 0 0 1-4.174 0zm21.091 0a2.087 2.087 0 1 1 4.175 0 2.087 2.087 0 0 1-4.175 0zm21.092 0a2.087 2.087 0 1 1 4.174 0 2.087 2.087 0 0 1-4.174 0zm21.092 0a2.087 2.087 0 1 1 4.174 0 2.087 2.087 0 0 1-4.174 0zm21.092 0a2.087 2.087 0 1 1 4.174 0 2.087 2.087 0 0 1-4.174 0zm-253.184 21.092a2.087 2.087 0 1 1 4.174-.001 2.087 2.087 0 0 1-4.174 0zm21.092 0a2.087 2.087 0 1 1 4.174-.001 2.087 2.087 0 0 1-4.174 0zm21.091 0a2.087 2.087 0 1 1 4.175 0 2.087 2.087 0 0 1-4.175 0zm21.092 0a2.088 2.088 0 1 1 4.175 0 2.088 2.088 0 0 1-4.175 0zm21.092 0a2.087 2.087 0 1 1 4.174-.001 2.087 2.087 0 0 1-4.174 0zm21.092 0a2.087 2.087 0 1 1 4.174 0 2.087 2.087 0 0 1-4.174 0zm21.174 0a2.088 2.088 0 1 1 4.175 0 2.088 2.088 0 0 1-4.175 0zm21.092 0a2.087 2.087 0 1 1 4.174-.001 2.087 2.087 0 0 1-4.174 0zm21.092 0a2.087 2.087 0 1 1 4.174-.001 2.087 2.087 0 0 1-4.174 0zm21.091 0a2.087 2.087 0 1 1 4.175 0 2.087 2.087 0 0 1-4.175 0zm21.092 0a2.087 2.087 0 1 1 4.174 0 2.087 2.087 0 0 1-4.174 0zm21.092 0a2.087 2.087 0 1 1 4.174-.001 2.087 2.087 0 0 1-4.174 0zm21.092 0a2.087 2.087 0 1 1 4.174 0 2.087 2.087 0 0 1-4.174 0z"/><path fill="none" stroke="#000" stroke-miterlimit="20" d="M815.275 351.271a2.087 2.087 0 1 1 4.175-.001 2.087 2.087 0 0 1-4.175.001zm21.092 0a2.087 2.087 0 1 1 4.175-.001 2.087 2.087 0 0 1-4.175.001zm21.091 0a2.088 2.088 0 1 1 4.176 0 2.088 2.088 0 0 1-4.176 0zm21.092 0a2.088 2.088 0 1 1 4.176 0 2.088 2.088 0 0 1-4.176 0zm21.092 0a2.087 2.087 0 1 1 4.175-.001 2.087 2.087 0 0 1-4.175.001zm21.092 0a2.088 2.088 0 1 1 4.175 0 2.088 2.088 0 0 1-4.175 0zm21.174 0a2.088 2.088 0 1 1 4.177 0 2.088 2.088 0 0 1-4.177 0zm21.092 0a2.088 2.088 0 1 1 4.176-.001 2.088 2.088 0 0 1-4.176.001zm21.092 0a2.087 2.087 0 1 1 4.175-.001 2.087 2.087 0 0 1-4.175.001zm21.091 0a2.088 2.088 0 1 1 4.176 0 2.088 2.088 0 0 1-4.176 0zm21.092 0a2.088 2.088 0 1 1 4.176 0 2.088 2.088 0 0 1-4.176 0zm21.092 0a2.087 2.087 0 1 1 4.175-.001 2.087 2.087 0 0 1-4.175.001zm21.092 0a2.088 2.088 0 1 1 4.175 0 2.088 2.088 0 0 1-4.175 0zm-253.184 21.092a2.087 2.087 0 1 1 4.174-.001 2.087 2.087 0 0 1-4.174 0zm21.092 0a2.087 2.087 0 1 1 4.173-.001 2.087 2.087 0 0 1-4.173 0zm21.091 0a2.087 2.087 0 1 1 4.174 0 2.087 2.087 0 0 1-4.174 0zm21.092 0a2.087 2.087 0 1 1 4.175 0 2.087 2.087 0 0 1-4.175 0zm21.092 0a2.087 2.087 0 1 1 4.173-.001 2.087 2.087 0 0 1-4.173 0zm21.092 0a2.087 2.087 0 1 1 4.173 0 2.087 2.087 0 0 1-4.173 0zm21.174 0a2.087 2.087 0 1 1 4.175 0 2.087 2.087 0 0 1-4.175 0zm21.092 0a2.087 2.087 0 1 1 4.174-.001 2.087 2.087 0 0 1-4.174 0zm21.092 0a2.087 2.087 0 1 1 4.173-.001 2.087 2.087 0 0 1-4.173 0zm21.091 0a2.087 2.087 0 1 1 4.174 0 2.087 2.087 0 0 1-4.174 0zm21.092 0a2.087 2.087 0 1 1 4.174 0 2.087 2.087 0 0 1-4.174 0zm21.092 0a2.087 2.087 0 1 1 4.174-.001 2.087 2.087 0 0 1-4.174 0zm21.092 0a2.087 2.087 0 1 1 4.173 0 2.087 2.087 0 0 1-4.173 0zm-253.184 21.091a2.087 2.087 0 1 1 4.174 0 2.087 2.087 0 0 1-4.174 0zm21.092 0a2.087 2.087 0 1 1 4.174 0 2.087 2.087 0 0 1-4.174 0zm21.091 0a2.087 2.087 0 1 1 4.175 0 2.087 2.087 0 0 1-4.175 0zm21.092 0a2.088 2.088 0 1 1 4.175.001 2.088 2.088 0 0 1-4.175 0zm21.092 0a2.087 2.087 0 1 1 4.174 0 2.087 2.087 0 0 1-4.174 0zm21.092 0a2.087 2.087 0 1 1 4.174 0 2.087 2.087 0 0 1-4.174 0zm21.174 0a2.088 2.088 0 1 1 4.175.001 2.088 2.088 0 0 1-4.175 0zm21.092 0a2.087 2.087 0 1 1 4.174 0 2.087 2.087 0 0 1-4.174 0zm21.092 0a2.087 2.087 0 1 1 4.174 0 2.087 2.087 0 0 1-4.174 0zm21.091 0a2.087 2.087 0 1 1 4.175 0 2.087 2.087 0 0 1-4.175 0zm21.092 0a2.087 2.087 0 1 1 4.174 0 2.087 2.087 0 0 1-4.174 0zm21.092 0a2.087 2.087 0 1 1 4.174 0 2.087 2.087 0 0 1-4.174 0zm21.092 0a2.087 2.087 0 1 1 4.174 0 2.087 2.087 0 0 1-4.174 0zm-253.184 21.092a2.087 2.087 0 1 1 4.174-.001 2.087 2.087 0 0 1-4.174 0zm21.092 0a2.087 2.087 0 1 1 4.174-.001 2.087 2.087 0 0 1-4.174 0zm21.091 0a2.087 2.087 0 1 1 4.175 0 2.087 2.087 0 0 1-4.175 0zm21.092 0a2.088 2.088 0 1 1 4.175 0 2.088 2.088 0 0 1-4.175 0zm21.092 0a2.087 2.087 0 1 1 4.174-.001 2.087 2.087 0 0 1-4.174 0zm21.092 0a2.087 2.087 0 1 1 4.174 0 2.087 2.087 0 0 1-4.174 0zm21.174 0a2.088 2.088 0 1 1 4.175 0 2.088 2.088 0 0 1-4.175 0zm21.092 0a2.087 2.087 0 1 1 4.174-.001 2.087 2.087 0 0 1-4.174 0zm21.092 0a2.087 2.087 0 1 1 4.174-.001 2.087 2.087 0 0 1-4.174 0zm21.091 0a2.087 2.087 0 1 1 4.175 0 2.087 2.087 0 0 1-4.175 0zm21.092 0a2.087 2.087 0 1 1 4.174 0 2.087 2.087 0 0 1-4.174 0zm21.092 0a2.087 2.087 0 1 1 4.174-.001 2.087 2.087 0 0 1-4.174 0zm21.092 0a2.087 2.087 0 1 1 4.174 0 2.087 2.087 0 0 1-4.174 0z"/></g></g></svg>