<svg xmlns="http://www.w3.org/2000/svg" width="195" height="96" viewBox="0 0 195 96"><g><g><path fill="#fff" d="M193.569 76.455l-48.107 18.173-.108-.04-47.999-18.133-48.107 18.173-.107-.04L1.034 76.415l.213-.567 48.001 18.134 48.107-18.174.108.04 47.999 18.134 48.107-18.174.107.04zm0-37.345l-48.107 18.175-.108-.04L97.355 39.11 49.248 57.285l-.107-.04L1.034 39.07l.213-.567 48.001 18.134 48.107-18.175.108.04 47.999 18.135 48.107-18.175.107.04zm0-37.344L145.462 19.94l-.108-.04L97.355 1.766 49.248 19.94l-.107-.04L1.034 1.727l.213-.567 48.001 18.134L97.355 1.119l.108.041 47.999 18.134 48.107-18.175.107.041z"/><path fill="none" stroke="#eb8432" stroke-miterlimit="20" d="M193.569 76.455l-48.107 18.173-.108-.04-47.999-18.133-48.107 18.173-.107-.04L1.034 76.415l.213-.567 48.001 18.134 48.107-18.174.108.04 47.999 18.134 48.107-18.174.107.04zm0-37.345l-48.107 18.175-.108-.04L97.355 39.11 49.248 57.285l-.107-.04L1.034 39.07l.213-.567 48.001 18.134 48.107-18.175.108.04 47.999 18.135 48.107-18.175.107.04zm0-37.344L145.462 19.94l-.108-.04L97.355 1.766 49.248 19.94l-.107-.04L1.034 1.727l.213-.567 48.001 18.134L97.355 1.119l.108.041 47.999 18.134 48.107-18.175.107.041z"/></g></g></svg>