<svg xmlns="http://www.w3.org/2000/svg" width="259" height="210" viewBox="0 0 259 210"><defs><linearGradient id="n2bta" x1="130.31" x2="259" y1="191.73" y2="62.96" gradientUnits="userSpaceOnUse"><stop offset="0" stop-color="#eb8432"/><stop offset="1" stop-color="#8e3f00"/></linearGradient></defs><g><g><path fill="#fafafa" d="M0 210V33h177v177z"/></g><g><path fill="#002739" d="M106 96V0h96v96z"/></g><g><path fill="url(#n2bta)" d="M259 189.638a2.087 2.087 0 1 1-4.174 0 2.087 2.087 0 0 1 4.174 0zm-21.092 0a2.087 2.087 0 1 1-4.174 0 2.087 2.087 0 0 1 4.174 0zm-21.091 0a2.087 2.087 0 1 1-4.175 0 2.087 2.087 0 0 1 4.175 0zm-21.092 0a2.087 2.087 0 1 1-4.174 0 2.087 2.087 0 0 1 4.174 0zm-21.091 0a2.087 2.087 0 1 1-4.175 0 2.087 2.087 0 0 1 4.175 0zm-21.092 0a2.087 2.087 0 1 1-4.175 0 2.087 2.087 0 0 1 4.175 0zm-21.092 0a2.087 2.087 0 1 1-4.174 0 2.087 2.087 0 0 1 4.174 0zM259 147.454a2.087 2.087 0 1 1-4.174 0 2.087 2.087 0 0 1 4.174 0zm-21.092 0a2.087 2.087 0 1 1-4.174 0 2.087 2.087 0 0 1 4.174 0zm-21.091 0a2.087 2.087 0 1 1-4.175 0 2.087 2.087 0 0 1 4.175 0zm-21.092 0a2.087 2.087 0 1 1-4.174 0 2.087 2.087 0 0 1 4.174 0zm-21.091 0a2.087 2.087 0 1 1-4.175 0 2.087 2.087 0 0 1 4.175 0zm-21.092 0a2.087 2.087 0 1 1-4.175 0 2.087 2.087 0 0 1 4.175 0zm-21.092 0a2.087 2.087 0 1 1-4.174 0 2.087 2.087 0 0 1 4.174 0zM259 168.546a2.087 2.087 0 1 1-4.174 0 2.087 2.087 0 0 1 4.174 0zm-21.092 0a2.087 2.087 0 1 1-4.174 0 2.087 2.087 0 0 1 4.174 0zm-21.091 0a2.087 2.087 0 1 1-4.175 0 2.087 2.087 0 0 1 4.175 0zm-21.092 0a2.087 2.087 0 1 1-4.174 0 2.087 2.087 0 0 1 4.174 0zm-21.091 0a2.087 2.087 0 1 1-4.175 0 2.087 2.087 0 0 1 4.175 0zm-21.092 0a2.087 2.087 0 1 1-4.175 0 2.087 2.087 0 0 1 4.175 0zm-21.092 0a2.087 2.087 0 1 1-4.175 0 2.087 2.087 0 0 1 4.175 0zM259 126.363a2.087 2.087 0 1 1-4.174 0 2.087 2.087 0 0 1 4.174 0zm-21.092 0a2.087 2.087 0 1 1-4.174 0 2.087 2.087 0 0 1 4.174 0zm-21.091 0a2.087 2.087 0 1 1-4.175 0 2.087 2.087 0 0 1 4.175 0zm-21.092 0a2.087 2.087 0 1 1-4.174 0 2.087 2.087 0 0 1 4.174 0zm-21.091 0a2.087 2.087 0 1 1-4.175 0 2.087 2.087 0 0 1 4.175 0zm-21.092 0a2.087 2.087 0 1 1-4.175 0 2.087 2.087 0 0 1 4.175 0zm-21.092 0a2.087 2.087 0 1 1-4.175 0 2.087 2.087 0 0 1 4.175 0zM259 84.179a2.087 2.087 0 1 1-4.174 0 2.087 2.087 0 0 1 4.174 0zm-21.092 0a2.087 2.087 0 1 1-4.174 0 2.087 2.087 0 0 1 4.174 0zm-21.091 0a2.087 2.087 0 1 1-4.175 0 2.087 2.087 0 0 1 4.175 0zm-21.092 0a2.087 2.087 0 1 1-4.174 0 2.087 2.087 0 0 1 4.174 0zm-21.091 0a2.087 2.087 0 1 1-4.175 0 2.087 2.087 0 0 1 4.175 0zm-21.092 0a2.087 2.087 0 1 1-4.175 0 2.087 2.087 0 0 1 4.175 0zm-21.092 0a2.087 2.087 0 1 1-4.175 0 2.087 2.087 0 0 1 4.175 0zM259 105.271a2.087 2.087 0 1 1-4.174 0 2.087 2.087 0 0 1 4.174 0zm-21.092 0a2.087 2.087 0 1 1-4.174 0 2.087 2.087 0 0 1 4.174 0zm-21.091 0a2.087 2.087 0 1 1-4.175 0 2.087 2.087 0 0 1 4.175 0zm-21.092 0a2.087 2.087 0 1 1-4.174 0 2.087 2.087 0 0 1 4.174 0zm-21.091 0a2.087 2.087 0 1 1-4.175 0 2.087 2.087 0 0 1 4.175 0zm-21.092 0a2.087 2.087 0 1 1-4.175 0 2.087 2.087 0 0 1 4.175 0zm-21.092 0a2.087 2.087 0 1 1-4.175 0 2.087 2.087 0 0 1 4.175 0zM259 63.088a2.087 2.087 0 1 1-4.174 0 2.087 2.087 0 0 1 4.174 0zm-21.092 0a2.087 2.087 0 1 1-4.174 0 2.087 2.087 0 0 1 4.174 0zm-21.091 0a2.087 2.087 0 1 1-4.175 0 2.087 2.087 0 0 1 4.175 0zm-21.092 0a2.087 2.087 0 1 1-4.174 0 2.087 2.087 0 0 1 4.174 0zm-21.091 0a2.087 2.087 0 1 1-4.175 0 2.087 2.087 0 0 1 4.175 0zm-21.092 0a2.087 2.087 0 1 1-4.175 0 2.087 2.087 0 0 1 4.175 0zm-21.092 0a2.087 2.087 0 1 1-4.174 0 2.087 2.087 0 0 1 4.174 0z"/></g></g></svg>