<svg xmlns="http://www.w3.org/2000/svg" width="337" height="337" viewBox="0 0 337 337"><defs><linearGradient id="n1bka" x1="0" x2="331.31" y1="5.22" y2="336.34" gradientUnits="userSpaceOnUse"><stop offset="0" stop-color="#eb8432"/><stop offset="1" stop-color="#8e3f00"/></linearGradient></defs><g><g><path fill="url(#n1bka)" d="M40.185 336.336a3.619 3.619 0 1 1 0-7.237 3.619 3.619 0 0 1 0 7.237zm0-36.567a3.619 3.619 0 1 1 0-7.237 3.619 3.619 0 0 1 0 7.237zm0-36.566a3.619 3.619 0 1 1 0-7.238 3.619 3.619 0 0 1 0 7.238zm0-36.567a3.619 3.619 0 1 1 0-7.237 3.619 3.619 0 0 1 0 7.237zm0-36.566a3.619 3.619 0 1 1 0-7.238 3.619 3.619 0 0 1 0 7.238zm0-36.566a3.619 3.619 0 1 1 0-7.237 3.619 3.619 0 0 1 0 7.237zm0-36.566a3.619 3.619 0 1 1 0-7.238 3.619 3.619 0 0 1 0 7.237zm0-36.567a3.619 3.619 0 1 1 0-7.237 3.619 3.619 0 0 1 0 7.237zm0-36.567a3.619 3.619 0 1 1 0-7.237 3.619 3.619 0 0 1 0 7.237zm0-36.566a3.619 3.619 0 1 1 0-7.237 3.619 3.619 0 0 1 0 7.237zM3.62 336.336a3.619 3.619 0 1 1-.001-7.237 3.619 3.619 0 0 1 0 7.237zm0-36.567a3.619 3.619 0 1 1-.001-7.237 3.619 3.619 0 0 1 0 7.237zm0-36.566a3.619 3.619 0 1 1 0-7.238 3.619 3.619 0 0 1 0 7.238zm0-36.567a3.619 3.619 0 1 1-.001-7.237 3.619 3.619 0 0 1 0 7.237zm0-36.566a3.619 3.619 0 1 1 0-7.238 3.619 3.619 0 0 1 0 7.238zm0-36.566a3.619 3.619 0 1 1-.001-7.237 3.619 3.619 0 0 1 0 7.237zm0-36.566a3.619 3.619 0 1 1 0-7.238 3.619 3.619 0 0 1 0 7.237zm0-36.567a3.619 3.619 0 1 1 0-7.237 3.619 3.619 0 0 1 0 7.237zm0-36.567a3.619 3.619 0 1 1 0-7.237 3.619 3.619 0 0 1 0 7.237zm0-36.566a3.619 3.619 0 1 1 0-7.237 3.619 3.619 0 0 1 0 7.237zm73.133 329.098a3.619 3.619 0 1 1-.001-7.237 3.619 3.619 0 0 1 0 7.237zm0-36.567a3.619 3.619 0 1 1-.001-7.237 3.619 3.619 0 0 1 0 7.237zm0-36.566a3.619 3.619 0 1 1 0-7.238 3.619 3.619 0 0 1 0 7.238zm0-36.567a3.619 3.619 0 1 1-.001-7.237 3.619 3.619 0 0 1 0 7.237zm0-36.566a3.619 3.619 0 1 1 0-7.238 3.619 3.619 0 0 1 0 7.238zm0-36.566a3.619 3.619 0 1 1-.001-7.237 3.619 3.619 0 0 1 0 7.237zm0-36.566a3.619 3.619 0 1 1 0-7.238 3.619 3.619 0 0 1 0 7.237zm0-36.567a3.619 3.619 0 1 1 0-7.238 3.619 3.619 0 0 1 0 7.238zm0-36.567a3.619 3.619 0 1 1 0-7.237 3.619 3.619 0 0 1 0 7.237zm0-36.566a3.619 3.619 0 1 1 0-7.237 3.619 3.619 0 0 1 0 7.237zm36.566 329.098a3.619 3.619 0 1 1 0-7.237 3.619 3.619 0 0 1 0 7.237zm0-36.567a3.619 3.619 0 1 1 0-7.237 3.619 3.619 0 0 1 0 7.237zm0-36.566a3.619 3.619 0 1 1 0-7.238 3.619 3.619 0 0 1 0 7.238zm0-36.567a3.619 3.619 0 1 1 0-7.237 3.619 3.619 0 0 1 0 7.237zm0-36.566a3.619 3.619 0 1 1 0-7.238 3.619 3.619 0 0 1 0 7.238zm0-36.566a3.619 3.619 0 1 1 0-7.237 3.619 3.619 0 0 1 0 7.237zm0-36.566a3.619 3.619 0 1 1 0-7.238 3.619 3.619 0 0 1 0 7.237zm0-36.567a3.619 3.619 0 1 1 0-7.237 3.619 3.619 0 0 1 0 7.237zm0-36.567a3.619 3.619 0 1 1 0-7.237 3.619 3.619 0 0 1 0 7.237zm0-36.566a3.619 3.619 0 1 1 0-7.237 3.619 3.619 0 0 1 0 7.237zm73.133 329.098a3.618 3.618 0 1 1-.001-7.237 3.618 3.618 0 0 1 0 7.237zm0-36.567a3.618 3.618 0 1 1-.001-7.237 3.618 3.618 0 0 1 0 7.237zm0-36.566a3.619 3.619 0 1 1 0-7.237 3.619 3.619 0 0 1 0 7.237zm0-36.567a3.618 3.618 0 1 1-.001-7.236 3.618 3.618 0 0 1 0 7.236zm0-36.566a3.619 3.619 0 1 1 0-7.237 3.619 3.619 0 0 1 0 7.237zm0-36.566a3.618 3.618 0 1 1-.001-7.237 3.618 3.618 0 0 1 0 7.237zm0-36.566a3.619 3.619 0 1 1 0-7.238 3.619 3.619 0 0 1 0 7.237zm0-36.567a3.619 3.619 0 1 1 0-7.237 3.619 3.619 0 0 1 0 7.237zm0-36.567a3.619 3.619 0 1 1 0-7.237 3.619 3.619 0 0 1 0 7.237zm0-36.566a3.619 3.619 0 1 1 0-7.237 3.619 3.619 0 0 1 0 7.237zm-36.566 329.098a3.619 3.619 0 1 1-.001-7.237 3.619 3.619 0 0 1 0 7.237zm0-36.567a3.619 3.619 0 1 1-.001-7.237 3.619 3.619 0 0 1 0 7.237zm0-36.566a3.619 3.619 0 1 1 0-7.238 3.619 3.619 0 0 1 0 7.238zm0-36.567a3.619 3.619 0 1 1-.001-7.237 3.619 3.619 0 0 1 0 7.237zm0-36.566a3.619 3.619 0 1 1 0-7.238 3.619 3.619 0 0 1 0 7.238zm0-36.566a3.619 3.619 0 1 1-.001-7.237 3.619 3.619 0 0 1 0 7.237zm0-36.566a3.619 3.619 0 1 1 0-7.238 3.619 3.619 0 0 1 0 7.237zm0-36.567a3.619 3.619 0 1 1-.001-7.238 3.619 3.619 0 0 1 0 7.238zm0-36.567a3.619 3.619 0 1 1-.001-7.237 3.619 3.619 0 0 1 0 7.237zm0-36.566a3.619 3.619 0 1 1-.001-7.237 3.619 3.619 0 0 1 0 7.237zm73.132 329.098a3.619 3.619 0 1 1 0-7.237 3.619 3.619 0 0 1 0 7.237zm0-36.567a3.619 3.619 0 1 1 0-7.237 3.619 3.619 0 0 1 0 7.237zm0-36.566a3.619 3.619 0 1 1 0-7.238 3.619 3.619 0 0 1 0 7.238zm0-36.567a3.619 3.619 0 1 1 0-7.237 3.619 3.619 0 0 1 0 7.237zm0-36.566a3.619 3.619 0 1 1 0-7.238 3.619 3.619 0 0 1 0 7.238zm0-36.566a3.619 3.619 0 1 1 0-7.237 3.619 3.619 0 0 1 0 7.237zm0-36.566a3.619 3.619 0 1 1 0-7.238 3.619 3.619 0 0 1 0 7.237zm0-36.567a3.619 3.619 0 1 1 0-7.238 3.619 3.619 0 0 1 0 7.238zm0-36.567a3.619 3.619 0 1 1 0-7.237 3.619 3.619 0 0 1 0 7.237zm0-36.566a3.619 3.619 0 1 1 0-7.237 3.619 3.619 0 0 1 0 7.237zm73.133 329.098a3.619 3.619 0 1 1 0-7.237 3.619 3.619 0 0 1 0 7.237zm0-36.567a3.619 3.619 0 1 1 0-7.237 3.619 3.619 0 0 1 0 7.237zm0-36.566a3.619 3.619 0 1 1 0-7.238 3.619 3.619 0 0 1 0 7.238zm0-36.567a3.619 3.619 0 1 1 0-7.237 3.619 3.619 0 0 1 0 7.237zm0-36.566a3.619 3.619 0 1 1 0-7.238 3.619 3.619 0 0 1 0 7.238zm0-36.566a3.619 3.619 0 1 1 0-7.237 3.619 3.619 0 0 1 0 7.237zm0-36.566a3.619 3.619 0 1 1 0-7.238 3.619 3.619 0 0 1 0 7.237zm0-36.567a3.619 3.619 0 1 1 0-7.238 3.619 3.619 0 0 1 0 7.238zm0-36.567a3.619 3.619 0 1 1 0-7.237 3.619 3.619 0 0 1 0 7.237zm0-36.566a3.619 3.619 0 1 1 0-7.237 3.619 3.619 0 0 1 0 7.237zm-36.566 329.098a3.619 3.619 0 1 1-.001-7.237 3.619 3.619 0 0 1 0 7.237zm0-36.567a3.619 3.619 0 1 1-.001-7.237 3.619 3.619 0 0 1 0 7.237zm0-36.566a3.619 3.619 0 1 1 0-7.238 3.619 3.619 0 0 1 0 7.238zm0-36.567a3.619 3.619 0 1 1-.001-7.237 3.619 3.619 0 0 1 0 7.237zm0-36.566a3.619 3.619 0 1 1 0-7.238 3.619 3.619 0 0 1 0 7.238zm0-36.566a3.619 3.619 0 1 1-.001-7.237 3.619 3.619 0 0 1 0 7.237zm0-36.566a3.619 3.619 0 1 1 0-7.238 3.619 3.619 0 0 1 0 7.237zm0-36.567a3.619 3.619 0 1 1 0-7.238 3.619 3.619 0 0 1 0 7.238zm0-36.567a3.619 3.619 0 1 1 0-7.237 3.619 3.619 0 0 1 0 7.237zm0-36.566a3.619 3.619 0 1 1 0-7.237 3.619 3.619 0 0 1 0 7.237zm73.133 329.098a3.618 3.618 0 1 1-.001-7.237 3.618 3.618 0 0 1 0 7.237zm0-36.567a3.618 3.618 0 1 1-.001-7.237 3.618 3.618 0 0 1 0 7.237zm0-36.566a3.619 3.619 0 1 1 0-7.237 3.619 3.619 0 0 1 0 7.237zm0-36.567a3.618 3.618 0 1 1-.001-7.236 3.618 3.618 0 0 1 0 7.236zm0-36.566a3.619 3.619 0 1 1 0-7.237 3.619 3.619 0 0 1 0 7.237zm0-36.566a3.618 3.618 0 1 1-.001-7.237 3.618 3.618 0 0 1 0 7.237zm0-36.566a3.619 3.619 0 1 1 0-7.238 3.619 3.619 0 0 1 0 7.237zm0-36.567a3.619 3.619 0 1 1 0-7.237 3.619 3.619 0 0 1 0 7.237zm0-36.567a3.619 3.619 0 1 1 0-7.237 3.619 3.619 0 0 1 0 7.237zm0-36.566a3.619 3.619 0 1 1 0-7.237 3.619 3.619 0 0 1 0 7.237z"/></g></g></svg>