<svg xmlns="http://www.w3.org/2000/svg" width="252" height="54" viewBox="0 0 252 54"><g><g><g><path d="M26.657 53.074v-9.446h5.203c2.002 0 3.202 1.52 3.202 3.202 0 1.681-1.04 3.202-3.362 3.202h-3.922v3.042zm4.803-8.405h-3.602v4.322h3.682c1.841 0 2.402-1.04 2.402-2.081 0-1.441-.88-2.161-2.482-2.161z"/></g><g><path d="M56.916 43.148l5.524 9.926h-1.361l-4.243-7.525-4.162 7.525h-1.361zm-.8 9.125c0-.48.4-.8.8-.8.48 0 .8.4.8.8 0 .48-.4.8-.8.8-.48 0-.8-.32-.8-.8z"/></g><g><path d="M81.332 53.074v-.08zm0-.08h-1.12v-9.366h5.203c1.84 0 3.202 1.28 3.202 3.202 0 1.52-.72 2.642-2.082 3.122l1.761 3.122h-1.36l-1.602-2.962h-4.002zm-.08-8.245v4.402h3.602c.48 0 2.562 0 2.562-2.241 0-1.681-1.201-2.161-2.562-2.161z"/></g><g><path d="M106.228 43.708v1.04h3.682v8.326h1.12v-8.325h3.603v-1.041z"/></g><g><path d="M139.529 43.708v7.124l-7.285-7.444v9.686h1.201v-6.965l7.285 7.365v-9.766z"/></g><g><path d="M160.502 43.708v9.366h8.486v-1.04h-7.285V48.67h6.404v-.96h-6.404v-2.962h7.285v-1.041z"/></g><g><path d="M189.641 52.994h-1.12v-9.366h5.203c1.84 0 3.202 1.28 3.202 3.202 0 1.52-.72 2.642-2.082 3.122l1.761 3.122h-1.36l-1.601-2.962h-4.003zm-.08-3.843h3.602c.48 0 2.562 0 2.562-2.241 0-1.681-1.2-2.161-2.562-2.161h-3.522z"/></g><g><path d="M215.498 46.59c0 1.68 1.92 2.241 3.362 2.241h2.882c1.44 0 2.641.32 2.641 1.361 0 1.36-2.081 1.921-3.842 1.921-1.601 0-3.683-.72-3.763-2.081h-1.28c0 2.401 2.961 3.042 5.123 3.042 1.921 0 4.963-.56 4.963-2.882 0-1.841-1.761-2.321-3.362-2.321h-2.882c-1.04 0-2.642-.24-2.642-1.361 0-1.281 2.082-1.922 3.843-1.922 1.68 0 3.442.64 3.442 2.082h1.2c0-2.082-2.32-3.042-4.802-3.042-2.002.08-4.883.96-4.883 2.962z"/></g><g><path d="M0 34.742v-32.9h6.564v32.9z"/></g><g><path d="M38.905 1.841v21.054L14.97.88v33.861h6.484V14.73l24.015 21.614V1.841z"/></g><g><path d="M67.003 35.383c7.204 0 13.368-3.923 16.33-9.607l-6.404-2.16c-2.001 2.88-5.043 5.282-9.926 5.282-6.484 0-11.448-4.963-11.448-10.566 0-6.084 5.284-10.647 11.448-10.647 4.483 0 7.845 2.001 10.086 5.363l6.324-2.161c-2.962-5.684-9.126-9.606-16.33-9.606-10.087 0-18.252 7.605-18.252 16.97-.08 9.527 8.085 17.132 18.172 17.132z"/></g><g><path d="M88.697 1.841v32.901h30.499V29.3H95.181v-8.966h20.973V15.53H95.181V7.365l24.015-.08V1.84z"/></g><g><path d="M151.056 1.841v21.054L127.121.88v33.861h6.484V14.73l24.016 21.614V1.841z"/></g><g><path d="M165.225 34.742v-32.9h13.85c9.365 0 16.65 7.044 16.65 16.33 0 9.205-7.285 16.57-16.41 16.57zm6.485-26.497v20.173h6.564c6.004 0 10.647-4.243 10.647-10.326 0-6.244-5.124-9.847-10.727-9.847z"/></g><g><path d="M202.209 34.742v-32.9h6.564v32.9z"/></g><g><path d="M232.708 0l19.453 34.742h-7.525L232.708 13.45l-11.847 21.293h-7.525zm-2.641 32.1c0-1.44 1.2-2.641 2.641-2.641s2.642 1.12 2.642 2.641c0 1.441-1.2 2.642-2.642 2.642-1.44 0-2.641-1.2-2.641-2.642z"/></g></g></g></svg>