<svg xmlns="http://www.w3.org/2000/svg" width="512" height="88" viewBox="0 0 512 88"><g><g><path fill="#fff" d="M479.049 87.365l-.071-.027L447.2 75.334l-31.845 12.031-.071-.027-31.776-12.004-31.846 12.031-.07-.027-31.776-12.004-31.846 12.031-.07-.027-31.774-12.004-31.846 12.031-.071-.027-31.775-12.004-31.843 12.031-.071-.027-31.773-12.004-31.845 12.031-.072-.027-31.773-12.004L33.21 87.365l-.07-.027-31.846-12.03.141-.376 31.775 12.004 31.846-12.03.07.026 31.775 12.004 31.845-12.03.071.026 31.773 12.004 31.843-12.03.07.026 31.776 12.004 31.846-12.03.07.026 31.774 12.004 31.846-12.03.07.026 31.776 12.004 31.846-12.03.07.026 31.777 12.004 31.845-12.03.071.026 31.778 12.004 31.777-12.004.142.375zm0-24.721l-.071-.027L447.2 50.613l-31.845 12.031-.071-.027-31.776-12.004-31.846 12.031-.07-.027-31.776-12.004-31.846 12.031-.07-.027-31.774-12.004-31.846 12.031-.071-.027-31.775-12.004-31.843 12.031-.071-.027-31.773-12.004-31.845 12.031-.072-.027-31.773-12.004L33.21 62.644l-.07-.027-31.846-12.03.141-.375 31.775 12.004 31.846-12.03.07.026 31.775 12.004 31.845-12.03.071.026 31.773 12.004 31.843-12.03.07.026 31.776 12.004 31.846-12.03.07.026 31.774 12.004 31.846-12.03.07.026 31.776 12.004 31.846-12.03.07.026 31.777 12.004 31.845-12.03.071.026 31.778 12.004 31.777-12.004.142.375zm0-24.72l-.071-.027L447.2 25.893l-31.845 12.031-.071-.027-31.776-12.004-31.846 12.031-.07-.027-31.776-12.004-31.846 12.031-.07-.027-31.774-12.004-31.846 12.031-.071-.027-31.775-12.004-31.843 12.031-.071-.027-31.773-12.004-31.845 12.031-.072-.027-31.773-12.004L33.21 37.924l-.07-.027-31.846-12.03.141-.376 31.775 12.004 31.846-12.03.07.026 31.775 12.004 31.845-12.03.071.026 31.773 12.004 31.843-12.03.07.026 31.776 12.004 31.846-12.03.07.026 31.774 12.004 31.846-12.03.07.026 31.776 12.004 31.846-12.03.07.026 31.777 12.004 31.845-12.03.071.026 31.778 12.004 31.777-12.004.142.375zm0-24.72l-.071-.028L447.2 1.172l-31.845 12.031-.071-.027-31.776-12.004-31.846 12.031-.07-.027-31.776-12.004-31.846 12.031-.07-.027-31.774-12.004-31.846 12.031-.071-.027-31.775-12.004-31.843 12.031-.071-.027-31.773-12.004-31.845 12.031-.072-.027L65.057 1.172 33.21 13.203l-.07-.027L1.294 1.146l.141-.375 31.775 12.005L65.057.744l.07.027 31.775 12.005L128.747.744l.071.027 31.773 12.005L192.434.744l.07.027 31.776 12.005L256.126.744l.07.027 31.774 12.005L319.816.744l.07.027 31.776 12.005L383.508.744l.07.027 31.777 12.005L447.2.744l.071.027 31.778 12.005L510.826.77l.142.376z"/><path fill="none" stroke="#eb8432" stroke-miterlimit="20" d="M479.049 87.365l-.071-.027L447.2 75.334l-31.845 12.031-.071-.027-31.776-12.004-31.846 12.031-.07-.027-31.776-12.004-31.846 12.031-.07-.027-31.774-12.004-31.846 12.031-.071-.027-31.775-12.004-31.843 12.031-.071-.027-31.773-12.004-31.845 12.031-.072-.027-31.773-12.004L33.21 87.365l-.07-.027-31.846-12.03.141-.376 31.775 12.004 31.846-12.03.07.026 31.775 12.004 31.845-12.03.071.026 31.773 12.004 31.843-12.03.07.026 31.776 12.004 31.846-12.03.07.026 31.774 12.004 31.846-12.03.07.026 31.776 12.004 31.846-12.03.07.026 31.777 12.004 31.845-12.03.071.026 31.778 12.004 31.777-12.004.142.375zm0-24.721l-.071-.027L447.2 50.613l-31.845 12.031-.071-.027-31.776-12.004-31.846 12.031-.07-.027-31.776-12.004-31.846 12.031-.07-.027-31.774-12.004-31.846 12.031-.071-.027-31.775-12.004-31.843 12.031-.071-.027-31.773-12.004-31.845 12.031-.072-.027-31.773-12.004L33.21 62.644l-.07-.027-31.846-12.03.141-.375 31.775 12.004 31.846-12.03.07.026 31.775 12.004 31.845-12.03.071.026 31.773 12.004 31.843-12.03.07.026 31.776 12.004 31.846-12.03.07.026 31.774 12.004 31.846-12.03.07.026 31.776 12.004 31.846-12.03.07.026 31.777 12.004 31.845-12.03.071.026 31.778 12.004 31.777-12.004.142.375zm0-24.72l-.071-.027L447.2 25.893l-31.845 12.031-.071-.027-31.776-12.004-31.846 12.031-.07-.027-31.776-12.004-31.846 12.031-.07-.027-31.774-12.004-31.846 12.031-.071-.027-31.775-12.004-31.843 12.031-.071-.027-31.773-12.004-31.845 12.031-.072-.027-31.773-12.004L33.21 37.924l-.07-.027-31.846-12.03.141-.376 31.775 12.004 31.846-12.03.07.026 31.775 12.004 31.845-12.03.071.026 31.773 12.004 31.843-12.03.07.026 31.776 12.004 31.846-12.03.07.026 31.774 12.004 31.846-12.03.07.026 31.776 12.004 31.846-12.03.07.026 31.777 12.004 31.845-12.03.071.026 31.778 12.004 31.777-12.004.142.375zm0-24.72l-.071-.028L447.2 1.172l-31.845 12.031-.071-.027-31.776-12.004-31.846 12.031-.07-.027-31.776-12.004-31.846 12.031-.07-.027-31.774-12.004-31.846 12.031-.071-.027-31.775-12.004-31.843 12.031-.071-.027-31.773-12.004-31.845 12.031-.072-.027L65.057 1.172 33.21 13.203l-.07-.027L1.294 1.146l.141-.375 31.775 12.005L65.057.744l.07.027 31.775 12.005L128.747.744l.071.027 31.773 12.005L192.434.744l.07.027 31.776 12.005L256.126.744l.07.027 31.774 12.005L319.816.744l.07.027 31.776 12.005L383.508.744l.07.027 31.777 12.005L447.2.744l.071.027 31.778 12.005L510.826.77l.142.376z"/></g></g></svg>