<svg xmlns="http://www.w3.org/2000/svg" width="160" height="163" viewBox="0 0 160 163"><g><g><path fill="#002739" d="M159.875 162.125l-.071-.026-31.888-12.047-31.961 12.073-.072-.026-31.889-12.047-31.961 12.073-.071-.026L0 150.025l.142-.377 31.89 12.048 31.962-12.075.071.027 31.89 12.048 31.96-12.075.072.027 31.888 12.048zm0-24.81l-.071-.027-31.888-12.047-31.961 12.074-.072-.027-31.889-12.047-31.961 12.074-.071-.027L0 125.214l.142-.377 31.89 12.048 31.962-12.075.071.027 31.89 12.048 31.96-12.075.072.027 31.888 12.048zm0-24.81l-.071-.027-31.888-12.048-31.961 12.075-.072-.027-31.889-12.048-31.961 12.075-.071-.027L0 100.404l.142-.377 31.89 12.048L63.995 100l.071.027 31.89 12.048L127.915 100l.072.027 31.888 12.048zm0-24.81l-.071-.027-31.888-12.048-31.961 12.075-.072-.027L63.994 75.62 32.033 87.695l-.071-.027L0 75.593l.142-.376 31.89 12.047L63.995 75.19l.071.027 31.89 12.047 31.96-12.074.072.027 31.888 12.047zm0-24.81l-.071-.028-31.888-12.048-31.961 12.075-.072-.027L63.994 50.81 32.033 62.884l-.071-.027L0 50.784l.142-.377 31.89 12.048L63.995 50.38l.071.027 31.89 12.048 31.96-12.075.072.027 31.888 12.048zm0-24.81l-.071-.028L127.916 26 95.955 38.074l-.072-.027L63.994 26 32.033 38.074l-.071-.027L0 25.973l.142-.377 31.89 12.048 31.962-12.075.071.027 31.89 12.048 31.96-12.075.072.027 31.888 12.048zm0-24.811l-.071-.027-31.888-12.048-31.961 12.075-.072-.027L63.994 1.189 32.033 13.264l-.071-.027L0 1.163.142.786l31.89 12.048L63.995.76l.071.026 31.89 12.048L127.915.76l.072.026 31.888 12.048z"/></g></g></svg>