<svg id="Group_136" data-name="Group 136" xmlns="http://www.w3.org/2000/svg" xmlns:xlink="http://www.w3.org/1999/xlink" width="550.18" height="635.293" viewBox="0 0 550.18 635.293">
  <defs>
    <clipPath id="clip-path">
      <path id="Path_142" data-name="Path 142" d="M169.924,534.964l23.035-39.9L281.183,546v0l23.336-13.476,55.746-32.183,19.984,34.622L275.09,595.681ZM34.3,456.662V335.335H87.292v98.718l75.377,43.522-23.038,39.9Zm356.252,26.19,69.982-40.4,14.545-8.4V413.367l-.006-.008V335.335h40.8V456.662L410.546,517.475ZM122.267,413.858v-183.5L281.183,138.6,440.1,230.358v183.5L281.183,505.61ZM34.3,178.631,139.47,117.914l26.9,46.593-71.012,41-8.064,4.654v90.2H34.3Zm352.552-19.4,23.855-41.316,105.163,60.717V300.36h-40.8V240.625l.006,0v-30.46l-.006,0v0l-14.534-8.39h-.006Zm-217.1-58.808L275.09,39.615l105.326,60.81-23.849,41.313-72.2-41.684-.006-.006-3.174-1.833-84.527,48.8ZM275.09,0,0,158.823V476.467L275.087,635.293h.008L550.18,476.467V158.823Z" fill="#009abc"/>
    </clipPath>
  </defs>
  <g id="Group_135" data-name="Group 135" clip-path="url(#clip-path)">
    <rect id="Rectangle_173" data-name="Rectangle 173" width="550.18" height="635.293" transform="translate(0 0)" fill="#009abc"/>
  </g>
</svg>
