<svg id="icon" xmlns="http://www.w3.org/2000/svg" xmlns:xlink="http://www.w3.org/1999/xlink" width="550.18" height="635.293" viewBox="0 0 550.18 635.293">
  <defs>
    <clipPath id="clip-path">
      <path id="Path_140" data-name="Path 140" d="M275.062,595.667h.056l-.028.014ZM120.7,415.837V369.811l40.926-23.628,40.923,23.628v46.026L161.63,439.465Zm231.657,0V369.811l40.926-23.628,40.926,23.628v46.026l-40.926,23.628ZM295.063,276.1l7.971-4.6,37.409,64.8-23.058,13.313v86.424l33.965,19.614h0l7.449,4.3,34.484,19.911h0l22.53-13.007,20.6,35.686L295.063,584.148ZM196.112,459.949v-.006l7.452-4.3h0l33.965-19.614V349.608l-24.307-14.031L250.7,270.663l9.38,5.42v310.93l-144.02-83.146,21.786-37.738,23.782,13.725ZM236.665,222.17V176.139l40.926-23.628,40.926,23.628V222.17L277.591,245.8ZM34.3,456.665V178.631L275.09,39.615,515.878,178.631V456.665l-49.161,28.38-20.6-35.686,23.078-13.327V349.608l-32.36-18.685h-.011l-9.049-5.223,0-.008-34.476-19.906-.006.006,0,0L370.74,318.806l-37.409-64.8L353.5,242.365V155.944l-32.36-18.688h-.011l-9.049-5.226-.006,0L277.6,112.121h-.008l-34.479,19.906,0,0-9.049,5.226h-.006l-32.363,18.682v86.43l18.719,10.806-37.477,64.91-21.3-12.3,0,.006-.006,0-34.476,19.906-.006.006-9.046,5.223h-.008L85.726,349.608v86.424l21.829,12.6-21.786,37.74ZM275.09,0,0,158.826V476.47L275.087,635.293h.008L550.18,476.47V158.826Z" fill="#009abc"/>
    </clipPath>
  </defs>
  <g id="Group_123" data-name="Group 123" clip-path="url(#clip-path)">
    <rect id="Rectangle_165" data-name="Rectangle 165" width="550.18" height="635.293" fill="#009abc"/>
  </g>
</svg>
