<svg xmlns="http://www.w3.org/2000/svg" width="94" height="128" viewBox="0 0 94 128"><g><g><g><g><g><g><path fill="#fffffe" d="M0 11.265v18.051h21.72V0H11.208C10.817 6.024 6.017 10.844 0 11.265"/></g><g><path fill="#fffffe" d="M93.712 0v127.56H26.74V0zm-63.09 123.678H89.83V3.881H30.622z"/></g></g><g><path fill="#fffffe" d="M84.851 25.811h-5.717v-5.55h5.05v-3.444h-5.05v-4.463h5.717V8.891H74.99v20.363h9.862v-3.443"/></g><g><path fill="#fffffe" d="M45.808 34.75v-3.464h-10.02V51.65h4.144v-8.797h5.208V39.39h-5.208v-4.64h5.876"/></g><g><path fill="#fffffe" d="M47.726 51.65h3.911V31.286h-3.911z"/></g><g><path fill="#fffffe" d="M77.955 51.427h3.911v-16.9h2.985v-3.464H74.99v3.463h2.966v16.901"/></g><g><path fill="#fffffe" d="M39.528 74.141c1.259 0 2.567-.383 3.211-1.813.03.428.092 1.153.184 1.508h2.944V62.201h-5.28v3.305h1.347v2.92c0 1.675-.325 2.415-1.277 2.415-.781 0-1.228-.507-1.228-1.893V58.509c0-1.327.33-1.982 1.228-1.982 1.087 0 1.207.914 1.207 1.901v1.121h3.944v-.916c0-2.054-.472-5.466-5.162-5.466-3.886 0-5.179 2.585-5.179 5.708v9.581c0 3.327.891 5.685 4.061 5.685"/></g><g><path fill="#fffffe" d="M47.726 73.836h3.911V53.472h-3.911z"/></g><g><path fill="#fffffe" d="M68.945 53.472H64.8v20.364h8.72V70.41h-4.575V53.472"/></g><g><path fill="#fffffe" d="M79.85 74.141c4.045 0 5.135-2.627 5.135-5.815 0-3.354-1.075-4.675-4.07-7.028-1.684-1.314-1.907-1.92-1.907-3.146 0-1.153.233-1.775.956-1.775.775 0 .977.611.977 1.847v1.22h3.7v-1.172c0-2.331-.606-5.125-4.702-5.125-3.858 0-4.821 2.681-4.821 5.59 0 3 1.18 4.15 3.473 6.093 2.08 1.74 2.441 2.296 2.441 4.218 0 .961-.212 1.883-1.114 1.883-.894 0-1.226-.622-1.226-1.961v-1.41h-3.837v1.22c0 3.018 1.109 5.361 4.994 5.361"/></g><g><path fill="#fffffe" d="M40.867 29.56c3.886 0 5.402-2.585 5.402-5.708v-1.286h-4.185v1.652c0 1.327-.33 1.983-1.228 1.983-1.087 0-1.207-.915-1.207-1.902l-.006-1.098v-9.25c0-1.327.355-2.006 1.251-2.006 1.088 0 1.208.915 1.208 1.902v1.518h4.167v-1.313c0-2.054-.695-5.466-5.385-5.466-3.886 0-5.402 2.585-5.402 5.707v9.801c0 2.054.695 5.466 5.385 5.466"/></g><g><path fill="#fffffe" d="M57.934 53.473c3.413 0 5.1 1.499 5.1 5.06v.732c0 2.902-1.159 3.765-2.032 4.177 1.267.612 1.861 1.543 1.861 4.385v6.01h-3.661v-6.172c0-2.291-.262-2.681-1.754-2.681h-.24v8.852H53.52V53.473h4.414zm1.39 5.132c0-1.367-.275-2.046-1.716-2.046h-.388v5.339h.262c1.308 0 1.842-.414 1.842-2.309z"/></g><g><path fill="#fffffe" d="M48.21 23.826v-9.592c0-3.932 2.366-5.648 5.8-5.648 3.454 0 5.78 1.687 5.78 5.753v9.447c0 4.04-2.083 5.774-5.98 5.774-3.698 0-5.6-1.776-5.6-5.734zm4.337.48c0 1.258.472 1.914 1.43 1.914 1 0 1.452-.594 1.452-1.933v-10.42c0-1.271-.385-1.922-1.463-1.922-.913 0-1.419.602-1.419 1.953z"/></g><g><path fill="#fffffe" d="M73.208 22.674c0 3.509-.836 6.58-6.055 6.58h-5.5V8.891h5.2c4.725 0 6.355 1.913 6.355 6.128v7.655zm-6.501 3.424c1.729 0 2.31-1.001 2.31-2.59V14.39c0-1.504-.674-2.322-2.345-2.322h-.898v14.031z"/></g><g><path fill="#fffffe" d="M57.934 31.286c3.413 0 5.1 1.5 5.1 5.06v.732c0 2.903-1.159 3.766-2.032 4.178 1.267.612 1.861 1.543 1.861 4.384v6.01h-3.661v-6.171c0-2.292-.262-2.682-1.754-2.682h-.24v8.853H53.52V31.286zm1.39 5.133c0-1.367-.275-2.047-1.716-2.047h-.388v5.34h.262c1.308 0 1.842-.414 1.842-2.31z"/></g><g><path fill="#fffffe" d="M73.763 37.313V36.14c0-2.331-.576-5.125-4.482-5.125-3.679 0-4.597 2.681-4.597 5.59 0 3 1.124 4.15 3.312 6.093 1.983 1.74 2.327 2.296 2.327 4.218 0 .961-.202 1.883-1.063 1.883-.852 0-1.169-.622-1.169-1.961v-1.41h-3.658v1.22c0 3.018 1.058 5.361 4.762 5.361 3.858 0 4.897-2.627 4.897-5.815 0-3.354-1.025-4.675-3.88-7.028-1.607-1.314-1.82-1.92-1.82-3.146 0-1.153.223-1.775.912-1.775.739 0 .933.611.933 1.847v1.22h3.526"/></g></g></g></g></g></svg>