<svg xmlns="http://www.w3.org/2000/svg" width="244" height="69" viewBox="0 0 244 69"><g><g><g><path fill="#fefefe" d="M238.122 31.829c.063-1.313-.188-2.251-.813-3.002-.313-.312-.813-.5-1.376-.5-1.188 0-1.688.813-1.938 1.75-.188.501-.25 1.064-.188 1.752v17.009c-.062 1.313.25 2.25.813 2.876.313.313.75.5 1.313.5 1.189 0 1.751-.75 2.001-1.688.188-.5.25-1.063.188-1.751zM244 49.025c-.188 3.252-1.188 5.565-3.314 7.379-1.126.938-2.69 1.376-4.69 1.376-4.002 0-6.003-2.252-7.004-4.44a12.493 12.493 0 0 1-1-4.44V31.891c.187-3.251 1.188-5.69 3.314-7.566 1.063-.938 2.626-1.376 4.627-1.376 4.002 0 6.066 2.251 7.067 4.378.562 1.313.937 2.75 1 4.314zm-20.386-25.638v34.705c0 1.751 0 4.44-.875 6.691-.875 2.314-2.814 4.065-6.316 4.065-1 0-1.688-.063-2.126-.188-.25-.062-.437-.125-.625-.187V62.72c.188.062.375.062.563.125.437.062.813.125 1.188.125 1.063 0 1.563-.876 1.813-1.939.063-.5.125-1.063.125-1.626v-36.08h6.253zm-6.253-11.631h6.254v6.253h-6.254zm-10.067 20.073c.062-1.313-.188-2.251-.813-3.002-.313-.312-.813-.5-1.376-.5-1.188 0-1.688.813-1.938 1.75-.188.501-.25 1.064-.188 1.752v17.009c-.063 1.313.25 2.25.813 2.876.313.313.75.5 1.313.5 1.188 0 1.751-.75 2.001-1.688.188-.5.25-1.063.188-1.751zm5.878 17.196c-.188 3.252-1.188 5.565-3.314 7.379-1.126.938-2.69 1.376-4.69 1.376-4.002 0-6.003-2.252-7.004-4.44a12.493 12.493 0 0 1-1-4.44V31.891c.187-3.251 1.188-5.69 3.314-7.566 1.063-.938 2.626-1.376 4.627-1.376 4.002 0 6.066 2.251 7.066 4.378.563 1.313.938 2.75 1 4.314zm-31.766 1.563c2.313 0 3.564-.25 4.252-2.5.312-1.064.562-2.69.625-4.816.062-2.188.062-5.065.062-8.817 0-3.69 0-6.628-.062-8.817-.063-2.126-.313-3.69-.625-4.815-.688-2.188-2.001-2.439-4.252-2.439zm-6.691-38.832h5.252c6.191 0 9.505 1.25 11.319 4.69 1.75 3.44 2 9.192 2 18.072 0 8.942-.25 14.57-2 18.009-1.814 3.44-5.128 4.69-11.319 4.69h-5.252zm-2.752 18.134c-.563-.187-1.188-.25-1.75-.25-1.001 0-2.19.125-3.127 1.063-1.189 1-1.376 2.064-1.376 3.064V57.28h-6.253V23.45h6.253v3.752c.062-.437.5-1.5 1.5-2.5 1.001-.939 2.502-1.814 4.753-1.814zm-22.511 6.754V31.89c0-1.313-.25-2.25-.876-3.001-.313-.313-.813-.5-1.376-.5-1.188 0-1.688.812-2 1.75-.188.5-.25 1.063-.313 1.751v4.753zm5.815 8.567v3.877c-.188 3.251-1.188 5.565-3.377 7.378-1.125.938-2.689 1.376-4.69 1.376-4.002 0-6.065-2.251-7.066-4.44a12.493 12.493 0 0 1-1-4.44V31.955c.187-3.252 1.25-5.69 3.439-7.567 1.063-.938 2.626-1.375 4.627-1.375 4.002 0 6.066 2.25 7.067 4.377.562 1.313.938 2.751 1 4.315v9.817H144.95v7.38c.063 1.312.438 2.25 1 2.876.313.312.751.5 1.314.5 1.188 0 1.75-.75 2-1.689.189-.5.251-1.063.251-1.75v-3.69h5.816zm-26.889-14.32c0-1-.938-2.064-1.876-2.064s-1.688.876-1.688 2.064V49.9c0 1.188.75 2.063 1.688 2.063s1.876-.875 1.876-2.063zm6.253 26.513v-.062zm-6.253-.062V55.09c-1.063 1-2 1.75-3.126 2.313a4.054 4.054 0 0 1-1.814.438c-1.75 0-2.939-1-3.627-2.314-.812-1.25-1.188-2.876-1.188-4.314V29.64c0-1.438.376-3.064 1.188-4.377.75-1.25 1.939-2.251 3.627-2.251 1.188 0 2.439.688 3.314 1.375a31.73 31.73 0 0 1 1.626 1.376V11.881h6.253v45.46zm-19.76-25.45c.063-1.314-.187-2.252-.813-3.002-.312-.313-.813-.5-1.375-.5-1.189 0-1.689.812-1.939 1.75-.188.5-.25 1.063-.188 1.751v17.01c-.062 1.312.25 2.25.813 2.876.313.312.75.5 1.314.5 1.188 0 1.75-.75 2-1.689.188-.5.25-1.063.188-1.75zm5.878 17.196c-.187 3.251-1.188 5.565-3.314 7.378-1.126.938-2.689 1.376-4.69 1.376-4.002 0-6.003-2.251-7.003-4.44a12.493 12.493 0 0 1-1.001-4.44V31.955c.188-3.252 1.188-5.69 3.314-7.567 1.063-.937 2.626-1.375 4.628-1.375 4.002 0 6.065 2.25 7.066 4.377.562 1.313.938 2.751 1 4.315zM95.05 47.962c-.063 1.876-.438 3.502-1.126 4.94-.563 1.25-1.438 2.439-2.689 3.314-1.25 1-2.876 1.564-5.127 1.564-2.252 0-3.94-.563-5.19-1.564-1.251-.938-2.064-2.126-2.627-3.314-.688-1.438-1.063-3.064-1.125-4.94V21.136c.062-1.814.437-3.44 1.125-4.878.563-1.25 1.376-2.501 2.627-3.376 1.25-.938 3.001-1.564 5.19-1.564 2.25 0 3.877.626 5.127 1.564 1.25.938 2.126 2.188 2.69 3.376.687 1.439 1.062 3.064 1.125 4.878v6.253h-6.253v-6.253c0-1.25-.313-2.126-1.001-2.877-.313-.312-.875-.5-1.563-.5-1.188 0-1.751.876-2.064 1.688-.187.5-.25 1.063-.313 1.689v26.826c.063 1.313.438 2.189 1.063 2.814.313.313.751.5 1.314.5 1.438 0 2-.75 2.313-1.688.188-.438.25-1 .25-1.688v-6.254h6.254z"/></g><g><g><path fill="#fefefe" d="M0 34.469C0 15.967 14.998.969 33.5.969c18.502 0 33.5 14.998 33.5 33.5 0 18.501-14.998 33.5-33.5 33.5-18.502 0-33.5-14.999-33.5-33.5z"/></g><g><path d="M33.83 1.75c8.942 0 16.196 7.255 16.196 16.197S42.772 34.142 33.83 34.142c-8.942 0-16.196 7.254-16.196 16.196 0 8.817 7.004 15.946 15.758 16.196-17.696-.25-31.954-14.632-31.954-32.392 0-17.696 14.258-32.141 31.892-32.391h.5zm-2.376 56.405h3.189V45.96h-3.127c-.313 0-.5-.125-.75-.313a1.036 1.036 0 0 1-.313-.75c0-.313.125-.5.313-.75.187-.188.438-.313.75-.313h5.19v14.257h2.064v-4.314c0-.25.125-.5.313-.75.187-.188.437-.313.75-.313s.5.125.75.312c.188.188.313.438.313.75v5.316c0 .312-.125.563-.313.75a1.036 1.036 0 0 1-.75.313h-8.317c-.313 0-.5-.125-.75-.313a1.036 1.036 0 0 1-.313-.75c0-.25.125-.5.313-.688.187-.188.438-.313.75-.313zM31.14 20.76V8.567h6.316V20.76zm-2.189.062c0 .5.188 1 .563 1.376.438.375.876.563 1.438.563h6.441c.563 0 1.063-.188 1.438-.563.376-.375.563-.813.563-1.376V8.504c0-.5-.187-1-.563-1.375-.375-.376-.813-.563-1.375-.563h-6.441c-.5 0-1 .187-1.376.563-.375.375-.563.813-.563 1.375v12.32zM0 34.143c0 18.822 15.258 34.142 34.142 34.142 18.823 0 34.143-15.258 34.143-34.143C68.285 15.32 53.027 0 34.142 0 15.32 0 0 15.258 0 34.142z"/></g></g></g></g></svg>