<svg xmlns="http://www.w3.org/2000/svg" width="250" height="80" viewBox="0 0 250 80"><g><g><g><path fill="#d2d5d2" d="M39.567 3.447c7.969 0 15.526 2.52 21.855 7.285h.071a75.75 75.75 0 0 1-7.667 17.257A75.786 75.786 0 0 1 27.605 53.99a75.748 75.748 0 0 1-17.32 7.522 36.402 36.402 0 0 1-6.996-18.565 36.407 36.407 0 0 1 3.772-19.477 36.406 36.406 0 0 1 13.42-14.612 36.402 36.402 0 0 1 19.086-5.412zM69.993 20.66zm0 0a36.316 36.316 0 0 1 5.665 26.545 36.316 36.316 0 0 1-14.264 23.093 36.287 36.287 0 0 1-21.603 7.116 36.535 36.535 0 0 1-15.484-3.44 36.263 36.263 0 0 1-12.88-10.104c8.32-2.577 15.835-4.204 22.465-5.64 11.147-2.414 19.95-4.32 26.816-9.358 2.26-1.735 4.201-3.73 5.77-5.934a25.108 25.108 0 0 0 3.48-6.931c1.553-4.867 1.566-10.15.035-15.275zM54.572 76.21a39.152 39.152 0 0 0 12.486-8.418 39.15 39.15 0 0 0 8.418-12.486 39.036 39.036 0 0 0 3.087-15.29 39.037 39.037 0 0 0-3.087-15.291 39.151 39.151 0 0 0-8.418-12.486A39.146 39.146 0 0 0 54.572 3.82 39.037 39.037 0 0 0 39.282.733a39.037 39.037 0 0 0-15.29 3.087 39.146 39.146 0 0 0-12.487 8.419 39.151 39.151 0 0 0-8.418 12.486A39.037 39.037 0 0 0 0 40.015a39.036 39.036 0 0 0 3.087 15.29 39.15 39.15 0 0 0 8.418 12.487 39.152 39.152 0 0 0 12.486 8.418 39.038 39.038 0 0 0 15.29 3.087 39.038 39.038 0 0 0 15.29-3.087z"/></g><g><path fill="#d2d5d2" d="M109.258 57.085c-3.714-.143-7.785-1.714-10.856-4.714v15.213a.716.716 0 0 1-.714.714h-4.286a.716.716 0 0 1-.714-.714v-24.14a38.566 38.566 0 0 1 .714-7.857c2.143-7.57 8.571-12.713 16.427-12.713 9.5 0 16.999 7.57 16.999 17.284A17.141 17.141 0 0 1 121.97 52.3c-3.071 3.07-7.214 4.785-11.642 4.785zm.357-28.426c-5.928 0-10.927 5.214-10.927 11.642.071 6.142 4.285 10.999 11.213 11.142 6 0 10.57-5 10.57-11.428 0-6.428-4.785-11.427-10.927-11.427z"/></g><g><path fill="#d2d5d2" d="M248.929 55.728c0 .394-.32.714-.715.714h-4.285a.714.714 0 0 1-.714-.714V25.017c0-.395.32-.715.714-.715h4.285c.395 0 .715.32.715.715zm-38.782-3.357c-.357-.429-.5-.714-.143-1.143l3.428-2.857c.572-.357.786-.357 1.286.072h.071c3.928 3.857 13.213 6.213 15.57-.572.143-2.142-1.428-3.642-4.285-4.142l-4.285-.857c-6.928-1.428-10.714-4.642-10.714-9.285 0-5.785 5.143-10.213 12-10.213 4.784 0 8.141 1.071 11.712 3.928.5.5.643.929.143 1.429l-2.857 2.57c-.5.358-1.071.358-1.642-.07-2.643-2.072-4.643-2.5-7.143-2.5-2.928 0-6.07 1.428-6.07 4.285 0 2.571 3.428 3.714 4.5 4 2.07.57 4.57 1 6.713 1.428 1.928.5 8.356 2.285 8.356 9.07 0 5-4.07 9.928-13.213 10h-.143c-5.213 0-9.356-1.929-13.07-5.357zm-42.424-12.07c0 .714 0 1.071-.715 1.571 0 0-2.07 1.5-7.284 2.5-3.143.5-6.143.285-9.714-.214-3.5-.572-6.356-.715-9.57.714v.143c3.142 7.856 13.498 9.784 18.855 3.356.357-.285.714-.571 1.428-.142 0 0 2.643 1.285 3.929 2 .428.285.57.785.142 1.285-3 3.714-6.999 5.642-11.57 6.214-.714.071-1.428.142-2.142.142-8.571 0-15.713-6.07-16.713-14.712-1.143-8.428 4.071-19.213 16.713-19.498 6.213-.215 14.998 4.428 16.426 14.998zm-16.713-1.643c4.071.286 7.285.357 10.856-.714-1.428-5-6.07-8.57-10.927-8.57l-1.429.07c-5.142.715-9.356 5-9.856 10v.214c2.357-.857 4.642-1.286 7.142-1.286l4.286.215z"/></g><g><path fill="#d2d5d2" d="M246.072 13.232a3.928 3.928 0 1 1 0 7.857 3.928 3.928 0 0 1 0-7.857z"/></g><g><path fill="#d2d5d2" d="M187.832 57.085c-3.714-.143-7.785-1.714-10.856-4.714v15.213a.716.716 0 0 1-.714.714h-4.285a.716.716 0 0 1-.715-.714v-24.14a38.566 38.566 0 0 1 .715-7.857c2.142-7.57 8.57-12.713 16.427-12.713 9.499 0 16.998 7.57 16.998 17.284a17.141 17.141 0 0 1-4.857 12.142c-3.07 3.07-7.213 4.785-11.641 4.785zm.357-28.426c-5.928 0-10.927 5.214-10.927 11.642.071 6.142 4.285 10.999 11.213 11.142 6 0 10.57-5 10.57-11.428 0-6.428-4.785-11.427-10.927-11.427z"/></g></g></g></svg>