<svg xmlns="http://www.w3.org/2000/svg" width="250" height="60" viewBox="0 0 250 60"><g><g><g><g><path fill="#d2d5d2" d="M227.744 11.917l-3.67-1.52 1.52 3.669h2.15z"/></g><g><path fill="#d2d5d2" d="M229.35 36.327h5.473l-2.737-6.606z"/></g><g><path fill="#d2d5d2" d="M229.35.5l2.736 6.605L234.823.5z"/></g><g><path fill="#d2d5d2" d="M243.394 18.413L250 21.15v-5.472z"/></g><g><path fill="#d2d5d2" d="M214.173 15.677v5.472l6.605-2.736z"/></g><g><path fill="#d2d5d2" d="M246.688 7.681l-3.87-3.87-2.736 6.606z"/></g><g><path fill="#d2d5d2" d="M217.485 29.146l3.87 3.869 2.735-6.605z"/></g><g><path fill="#d2d5d2" d="M221.354 3.812l-3.87 3.87 6.606 2.735z"/></g><g><path fill="#d2d5d2" d="M242.818 33.015l3.87-3.87-6.606-2.735z"/></g><g><path fill="#d2d5d2" d="M227.759.5v7.466l2.808 2.808 1.52-3.669L229.35.5z"/></g><g><path fill="#d2d5d2" d="M233.606 26.053l-1.52 3.668 2.737 6.606h1.59V28.86z"/></g><g><path fill="#d2d5d2" d="M240.082 26.41l-3.668-1.52v3.97l5.28 5.28 1.124-1.126z"/></g><g><path fill="#d2d5d2" d="M222.48 2.687l-1.126 1.125 2.736 6.606 3.67 1.52V7.966z"/></g><g><path fill="#d2d5d2" d="M220.778 18.413l-6.605 2.737v1.591h7.466l2.808-2.808z"/></g><g><path fill="#d2d5d2" d="M242.534 14.086l-2.808 2.808 3.668 1.52L250 15.676v-1.59z"/></g><g><path fill="#d2d5d2" d="M246.688 7.681l-6.606 2.736-1.52 3.67h3.972l5.279-5.28z"/></g><g><path fill="#d2d5d2" d="M221.64 22.74l-5.28 5.28 1.125 1.125 6.605-2.736 1.52-3.668z"/></g><g><path fill="#d2d5d2" d="M234.823.5l-2.737 6.605 1.52 3.669 2.807-2.808V.5z"/></g><g><path fill="#d2d5d2" d="M230.567 26.053l-2.808 2.808v7.466h1.591l2.737-6.606z"/></g><g><path fill="#d2d5d2" d="M224.09 26.41l-2.736 6.605 1.125 1.125 5.28-5.28v-3.97z"/></g><g><path fill="#d2d5d2" d="M241.693 2.687l-5.28 5.28v3.97l3.669-1.52 2.736-6.605z"/></g><g><path fill="#d2d5d2" d="M233.606 10.774l-1.52-3.669-1.519 3.669 1.52 1.52z"/></g><g><path fill="#d2d5d2" d="M230.567 26.053l1.52 3.668 1.519-3.668-1.52-1.52z"/></g><g><path fill="#d2d5d2" d="M225.61 22.74l-1.52 3.67 3.67-1.52v-2.15z"/></g><g><path fill="#d2d5d2" d="M238.563 14.086l1.52-3.669-3.67 1.52v2.15z"/></g><g><path fill="#d2d5d2" d="M239.726 19.933l2.807 2.808H250V21.15l-6.606-2.736z"/></g><g><path fill="#d2d5d2" d="M221.64 14.086h-7.467v1.591l6.605 2.736 3.669-1.52z"/></g><g><path fill="#d2d5d2" d="M242.533 22.74h-3.97l1.52 3.669 6.605 2.736 1.125-1.125z"/></g><g><path fill="#d2d5d2" d="M224.09 10.417l-6.605-2.736-1.125 1.125 5.279 5.28h3.971z"/></g><g><path fill="#d2d5d2" d="M236.414 24.89l3.668 1.52-1.52-3.67h-2.148z"/></g><g><path fill="#d2d5d2" d="M224.447 16.894l-3.67 1.52 3.67 1.519 1.52-1.52z"/></g><g><path fill="#d2d5d2" d="M238.206 18.413l1.52 1.52 3.668-1.52-3.668-1.519z"/></g><g><path fill="#d2d5d2" d="M0 58.626h6.432v-35.86H0z"/></g><g><path fill="#d2d5d2" d="M12.586 22.766h9.057L31.78 50.65h.102l9.88-27.884h8.954v35.86h-6.124V30.273h-.103L34.301 58.626H29L18.813 30.273h-.104v28.353h-6.123z"/></g><g><path fill="#d2d5d2" d="M56.818 22.766h6.432v35.86h-6.432z"/></g><g><g><path fill="#d2d5d2" d="M73.593 32.023v3.91h.103c1.989-3.018 4.853-4.528 8.593-4.528 1.646 0 3.138.344 4.477 1.03 1.338.686 2.28 1.852 2.83 3.498a9.289 9.289 0 0 1 3.524-3.344c1.459-.789 3.062-1.184 4.812-1.184 1.338 0 2.547.147 3.627.438 1.081.292 2.007.746 2.779 1.363.772.618 1.371 1.416 1.8 2.393.43.978.644 2.153.644 3.525v19.502h-4.374V41.182c0-.823-.069-1.595-.205-2.315-.138-.72-.395-1.346-.773-1.878-.377-.532-.9-.952-1.569-1.261-.669-.309-1.535-.463-2.599-.463-2.16 0-3.859.617-5.094 1.852-1.234 1.235-1.852 2.882-1.852 4.94v16.569h-4.373V41.182c0-.857-.078-1.646-.232-2.367-.154-.72-.42-1.346-.798-1.878a3.737 3.737 0 0 0-1.518-1.235c-.635-.29-1.45-.437-2.444-.437-1.27 0-2.36.257-3.267.772-.91.514-1.647 1.132-2.213 1.852-.566.72-.978 1.467-1.235 2.238-.257.772-.386 1.415-.386 1.93v16.569h-4.373V32.023z"/></g><g><path fill="#d2d5d2" d="M111.722 39.87c.548-1.698 1.371-3.173 2.47-4.425 1.097-1.252 2.452-2.239 4.064-2.96 1.613-.72 3.465-1.08 5.558-1.08 2.126 0 3.988.36 5.583 1.08 1.595.721 2.941 1.708 4.04 2.96 1.097 1.252 1.92 2.727 2.47 4.425.547 1.698.823 3.525.823 5.48 0 1.955-.276 3.774-.824 5.455-.549 1.68-1.372 3.147-2.47 4.399-1.098 1.253-2.444 2.23-4.04 2.933-1.594.702-3.455 1.055-5.582 1.055-2.093 0-3.945-.353-5.558-1.055-1.612-.703-2.967-1.68-4.065-2.933-1.098-1.252-1.92-2.719-2.47-4.4-.548-1.68-.823-3.499-.823-5.454zm4.45 9.777c.43 1.252 1.02 2.299 1.776 3.138a7.675 7.675 0 0 0 2.65 1.93 7.88 7.88 0 0 0 3.216.669 7.883 7.883 0 0 0 3.216-.669 7.692 7.692 0 0 0 2.65-1.93c.754-.84 1.346-1.886 1.775-3.138.43-1.252.643-2.684.643-4.297 0-1.612-.214-3.044-.643-4.297-.43-1.251-1.021-2.306-1.775-3.165a7.578 7.578 0 0 0-2.65-1.955 7.9 7.9 0 0 0-3.216-.668 7.897 7.897 0 0 0-3.216.668 7.562 7.562 0 0 0-2.65 1.955c-.755.859-1.347 1.914-1.775 3.165-.43 1.253-.644 2.685-.644 4.297z"/></g><g><path fill="#d2d5d2" d="M145.374 22.766v12.86h.102c.721-1.476 1.853-2.548 3.397-3.217 1.543-.67 3.241-1.004 5.094-1.004 2.059 0 3.85.378 5.377 1.133 1.526.754 2.796 1.775 3.808 3.06 1.01 1.288 1.775 2.772 2.29 4.452.514 1.681.771 3.465.771 5.351 0 1.888-.249 3.672-.746 5.352-.497 1.681-1.252 3.148-2.263 4.4-1.013 1.252-2.283 2.238-3.809 2.958-1.526.72-3.301 1.08-5.325 1.08-.652 0-1.381-.068-2.187-.205a12.187 12.187 0 0 1-2.393-.669 9.33 9.33 0 0 1-2.238-1.26 7.038 7.038 0 0 1-1.776-1.982h-.102v3.55H141V22.767zm15.72 18.7c-.327-1.184-.823-2.24-1.492-3.166a7.32 7.32 0 0 0-2.573-2.212c-1.047-.549-2.273-.823-3.68-.823-1.475 0-2.727.291-3.756.874a7.525 7.525 0 0 0-2.521 2.29c-.652.944-1.124 2.016-1.415 3.216a15.407 15.407 0 0 0-.438 3.653c0 1.305.155 2.565.463 3.783.31 1.218.798 2.29 1.467 3.216.669.926 1.535 1.672 2.598 2.238 1.063.566 2.35.85 3.86.85 1.509 0 2.77-.292 3.782-.876a7.035 7.035 0 0 0 2.444-2.315c.618-.96 1.063-2.059 1.338-3.293.274-1.236.411-2.504.411-3.808 0-1.235-.163-2.444-.488-3.628z"/></g><g><path fill="#d2d5d2" d="M170.587 27.238h4.374v-4.472h-4.374zm4.374 4.785h-4.374v26.603h4.374z"/></g><g><path fill="#d2d5d2" d="M185.354 58.626h-4.374v-35.86h4.374z"/></g><g><path fill="#d2d5d2" d="M209.95 56.928c-1.99 1.51-4.495 2.264-7.513 2.264-2.127 0-3.971-.344-5.532-1.03-1.561-.685-2.873-1.646-3.936-2.88-1.064-1.236-1.86-2.71-2.393-4.426-.531-1.715-.831-3.585-.9-5.609 0-2.023.309-3.876.926-5.557.617-1.68 1.483-3.14 2.598-4.374a11.803 11.803 0 0 1 3.963-2.882c1.526-.686 3.198-1.029 5.017-1.029 2.367 0 4.33.489 5.891 1.467 1.561.977 2.813 2.221 3.756 3.73a14.756 14.756 0 0 1 1.956 4.94c.36 1.784.506 3.482.437 5.094h-19.913a10.543 10.543 0 0 0 .411 3.32 7.505 7.505 0 0 0 1.492 2.778c.687.806 1.561 1.45 2.625 1.93 1.062.48 2.315.72 3.756.72 1.853 0 3.37-.428 4.554-1.287 1.183-.856 1.963-2.16 2.341-3.91h4.322c-.583 2.985-1.87 5.232-3.858 6.74zm-1.056-17.084a7.502 7.502 0 0 0-1.595-2.393 7.578 7.578 0 0 0-2.367-1.595c-.91-.394-1.913-.591-3.01-.591-1.132 0-2.153.197-3.062.591a7.069 7.069 0 0 0-2.34 1.621 7.75 7.75 0 0 0-1.545 2.393c-.378.91-.6 1.878-.668 2.907h15.283a8.979 8.979 0 0 0-.696-2.933z"/></g></g></g></g></g></svg>