<svg xmlns="http://www.w3.org/2000/svg" width="250" height="73" viewBox="0 0 250 73"><g><g><g><path fill="#d2d5d2" d="M2.73 63.869L14.225 52.45a1.58 1.58 0 0 0 0-2.243L2.73 38.787C1.723 37.789 0 38.495 0 39.913V62.75c0 1.412 1.723 2.118 2.73 1.119z"/></g><g><path fill="#d2d5d2" d="M200.522 34.496c1.422 0 2.494-1.18 2.494-2.744 0-1.526-1.025-2.591-2.494-2.591h-3.183v5.335h3.183zm.076 10.397c1.93 0 2.992-.974 2.992-2.743 0-1.643-1.144-2.705-2.915-2.705h-3.336v5.448h3.26zm26.084-36.278c.418 0 .817.166 1.123.468l11.496 11.42c.302.299.468.697.468 1.121 0 .424-.166.823-.468 1.122l-11.496 11.419a1.583 1.583 0 0 1-1.12.468c-.792 0-1.611-.596-1.611-1.593V10.202c0-.993.817-1.587 1.608-1.587zM52.798 23.68c.401 0 .728.324.728.723v4.15a.726.726 0 0 1-.728.722H42.176v4.727h8.746c.381 0 .728.344.728.722v4.15a.726.726 0 0 1-.728.723h-8.746v5.144h10.622c.401 0 .728.324.728.722v4.151a.726.726 0 0 1-.728.723H36.92a.726.726 0 0 1-.728-.723V24.403c0-.399.327-.723.728-.723zm122.946 0c.402 0 .728.324.728.723v4.15a.726.726 0 0 1-.728.722h-10.622v4.727h8.747c.38 0 .726.344.726.722v4.15a.725.725 0 0 1-.726.723h-8.747v5.144h10.622c.402 0 .728.324.728.722v4.151a.726.726 0 0 1-.728.723h-15.878a.726.726 0 0 1-.727-.723V24.403c0-.399.326-.723.727-.723zm-53.745 0c.381 0 .728.345.728.723v25.216c0 .379-.347.723-.728.723h-4.6c-.38 0-.727-.344-.727-.723V24.403c0-.378.347-.723.728-.723zm79.02 0c2.203 0 4.27.726 5.82 2.042 1.566 1.33 2.429 3.12 2.429 5.042 0 3.118-2.258 5.134-4.371 5.981v.04c1.389.452 2.566 1.144 3.406 2.002 1.097 1.123 1.654 2.537 1.654 4.205 0 2.15-.854 4.004-2.469 5.36-1.528 1.283-3.62 1.99-5.894 1.99h-9.512a.727.727 0 0 1-.728-.723V24.403c0-.399.327-.723.728-.723zm-100.138-.348c3.26 0 6.758 1.338 9.359 3.58.17.132.27.313.283.51a.664.664 0 0 1-.206.517l-3.03 3.199a.809.809 0 0 1-1.035.039c-1.346-1.233-2.99-1.832-5.026-1.832-2.013 0-3.91.809-5.344 2.276a7.716 7.716 0 0 0-2.21 5.417c0 2.01.792 3.908 2.23 5.346a7.54 7.54 0 0 0 5.362 2.232c1.267 0 2.383-.199 3.413-.609v-2.211h-2.418c-.414 0-.726-.294-.726-.684v-3.77a.7.7 0 0 1 .726-.723h7.707c.374 0 .69.331.69.723l.038 10.245c0 .336-.147.49-.306.609-.039.024-3.993 2.477-9.512 2.477-3.697 0-7.158-1.407-9.745-3.961-2.594-2.561-4.022-5.997-4.022-9.674 0-3.679 1.429-7.126 4.023-9.707 2.593-2.579 6.055-4 9.75-4zM64.995 35.409v14.21a.726.726 0 0 1-.727.723h-4.562c-.38 0-.727-.344-.727-.723l-.044-25.635c0-.371.333-.685.727-.685h.575c.383 0 .649.265.957.57l14.73 14.06h.037V24.403c0-.4.327-.724.728-.724h4.6c.38 0 .728.345.728.724v25.634c0 .473-.366.685-.728.685h-.382c-.386 0-.655-.118-.958-.419L65.034 35.408h-.039zm70.41 14.21a.726.726 0 0 1-.727.723h-4.561c-.381 0-.728-.344-.728-.723l-.038-25.635c0-.371.333-.685.727-.685h.575c.382 0 .648.265.957.57l14.73 14.06h.038V24.403c0-.4.326-.724.728-.724h4.6c.38 0 .727.345.727.724v25.634c0 .473-.365.685-.728.685h-.383c-.385 0-.653-.118-.956-.419l-14.922-14.895h-.038zm96.152 22.832a3.404 3.404 0 0 0 3.412-3.303.294.294 0 0 1 .007-.03.254.254 0 0 0 .009-.063V39.346c0-.892.365-1.767 1.002-2.4l13.007-12.918A3.362 3.362 0 0 0 250 21.625a3.36 3.36 0 0 0-1-2.406L235.991 6.302a3.36 3.36 0 0 1-1.001-2.401.22.22 0 0 0-.01-.058.381.381 0 0 0-.006-.035A3.41 3.41 0 0 0 231.557.5H13.335c-1.888 0-3.424 1.526-3.424 3.402v29.704c0 .906.355 1.76 1.001 2.401L23.92 48.923a3.37 3.37 0 0 1 1 2.4 3.377 3.377 0 0 1-1 2.409L10.912 66.65a3.36 3.36 0 0 0-1.001 2.4c0 1.876 1.536 3.401 3.424 3.401h218.222z"/></g></g></g></svg>