<svg xmlns="http://www.w3.org/2000/svg" width="250" height="251" viewBox="0 0 250 251"><g><g><g><g><path fill="#d2d5d2" d="M207.317 124.563c3.164 0 5.4-.703 6.644-2.09.993-1.107 1.06-2.323 1.089-2.842.08-1.442-.183-2.4-.853-3.107-.945-.999-2.75-1.484-5.519-1.484h-9.531v9.522h8.17zm-127.925-14.3l6.665 6.279c-.173.079-.383.176-.636.305-.455.237-.911.515-1.395.85-1.32.91-2.788 2.236-4.367 3.94l-13.024 13.786c-2.395 2.53-4.622 4.285-6.616 5.216l-6.666-6.278.028-.013c.167-.077.374-.172.605-.297.422-.21.892-.496 1.398-.85 1.333-.919 2.8-2.243 4.364-3.934L72.772 115.5c2.415-2.55 4.642-4.313 6.62-5.239zm119.755 14.474v16.825h-7.105v-32.128l16.65.002c5.129 0 8.681.95 10.86 2.903 1.87 1.677 2.742 4.062 2.742 7.507a8.808 8.808 0 0 1-2.464 6.138c-1.774 1.843-4.339 2.945-7.418 3.186l-.722.033c.006 0 .642.122 1.304.759l11.992 11.6h-9.269l-16.568-16.826-.002-.002zm-22.103-15.77c3.8 0 7.195.344 10.683 1.082l.007 6.825a409.82 409.82 0 0 1-.442-.136l-.012-.004c-2.09-.647-5.979-1.85-10.239-1.85-4.55 0-7.832.88-10.033 2.691-2.22 1.829-3.3 4.571-3.3 8.384 0 3.094 1.184 5.66 3.426 7.417 1.137.892 2.543 1.579 4.179 2.042 1.678.475 3.605.716 5.728.716 4.283 0 8.904-.99 11.384-1.91l-.008 6.622c-3.68.779-7.72 1.208-11.373 1.208-5.42 0-10.449-1.369-14.16-3.855-2.05-1.374-3.652-3.06-4.758-5.009-1.206-2.125-1.818-4.558-1.818-7.231 0-6.086 2.294-10.643 6.817-13.544 4.445-2.85 10.023-3.449 13.92-3.449zm-47.55 13.12c.013.05.34 1.253.34 2.277l-.006 17.2h-6.835V108.82l21.68 17.76c1.15.977 2.119 2.473 2.126 2.483-.016-.061-.403-1.509-.403-2.561v-17.066h6.839v32.87L131.35 124.19a10.219 10.219 0 0 1-1.855-2.103zm-50.059 20.276c.679.257 3.14 1.092 6.337 1.092.174 0 .348-.002.519-.007 4.368-.131 8.743-1.977 12.004-5.066a17.155 17.155 0 0 0 4.013-5.734c1-2.34 1.467-4.894 1.388-7.589-.147-4.935-2.185-9.473-5.738-12.776a18.29 18.29 0 0 0-5.68-3.6 17.535 17.535 0 0 0-6.542-1.277c-2.877 0-5.607.561-7.49 1.54-.933.484-2.14 1.266-3.075 1.993-.485.378-2.186 1.737-3.714 3.357L58.42 128.045c-2.572 2.707-4.687 4.327-6.464 4.954l-6.692-6.332c1.37-1.466 17.89-19.062 18.044-19.226a67.42 67.42 0 0 1 3.144-3.156c.748-.69 2.082-1.764 2.81-2.296a26.606 26.606 0 0 1 6.922-3.673c2.877-1.01 5.996-1.523 9.27-1.523 3.886 0 7.668.762 11.241 2.264a29.222 29.222 0 0 1 9.173 6.1c2.643 2.59 4.723 5.586 6.18 8.904 1.503 3.421 2.266 7.013 2.266 10.675 0 4.445-.832 8.62-2.472 12.411a27.919 27.919 0 0 1-6.427 9.21c-5.153 4.894-12.007 7.7-18.805 7.7-.301.01-.612.014-.923.014-3.15 0-6.073-.473-8.936-1.447-2.113-.717-3.793-1.584-5.02-2.217l-.007-.004-.448-.23c1.723-1.16 3.159-2.451 5.487-4.936l2.672-2.874zM53.65 96.923c3.151 0 6.07.474 8.922 1.447 2.128.722 3.813 1.592 5.048 2.23l.12.061.299.154c-1.55.998-3.035 2.338-5.475 4.946l-2.673 2.873c-.474-.182-3.012-1.09-6.326-1.09-.184 0-.363.003-.533.008-4.366.13-8.74 1.975-12.002 5.063a17.134 17.134 0 0 0-4.012 5.732c-1 2.34-1.467 4.894-1.387 7.589.145 4.937 2.182 9.475 5.734 12.778a18.293 18.293 0 0 0 5.68 3.6 17.55 17.55 0 0 0 6.543 1.277c2.872 0 5.604-.561 7.494-1.54.927-.484 2.132-1.266 3.07-1.992 1.296-1.014 2.685-2.27 3.714-3.36l13.044-13.746c2.566-2.709 4.68-4.329 6.46-4.954l6.692 6.332c-1.36 1.454-17.903 19.075-18.043 19.225a61.655 61.655 0 0 1-3.145 3.153c-.739.684-2.072 1.76-2.808 2.298a26.69 26.69 0 0 1-6.921 3.675c-2.876 1.01-5.995 1.522-9.269 1.522-3.885 0-7.667-.762-11.241-2.264a29.25 29.25 0 0 1-9.174-6.101c-2.645-2.592-4.725-5.589-6.183-8.906-1.504-3.422-2.266-7.013-2.266-10.675 0-4.444.831-8.618 2.471-12.41a27.91 27.91 0 0 1 6.428-9.208c5.153-4.895 12.007-7.702 18.805-7.702.308-.01.623-.014.934-.014zM250 250.5V.5H0v250z"/></g></g></g></g></svg>