<svg xmlns="http://www.w3.org/2000/svg" width="250" height="43" viewBox="0 0 250 43"><g><g><g><path fill="#d2d5d2" d="M1.243.573h30.393v6.631c-2.21-1.796-6.77-2.487-11.604-2.487v18.098c0 2.625.276 3.454 1.243 4.835h-9.67c.967-1.381 1.243-2.072 1.243-4.835V4.58c-4.835 0-9.394.691-11.605 2.487V.573z"/></g><g><path fill="#d2d5d2" d="M1.243.573h30.393v6.631c-2.21-1.796-6.77-2.487-11.604-2.487v18.098c0 2.625.276 3.454 1.243 4.835h-9.67c.967-1.381 1.243-2.072 1.243-4.835V4.58c-4.835 0-9.394.691-11.605 2.487V.573z"/></g><g><path fill="#d2d5d2" d="M1.243.573h30.393v6.631c-2.21-1.796-6.77-2.487-11.604-2.487v18.098c0 2.625.276 3.454 1.243 4.835h-9.67c.967-1.381 1.243-2.072 1.243-4.835V4.58c-4.835 0-9.394.691-11.605 2.487V.573z"/></g><g><path fill="#d2d5d2" d="M1.243.573h30.393v6.631c-2.21-1.796-6.77-2.487-11.604-2.487v18.098c0 2.625.276 3.454 1.243 4.835h-9.67c.967-1.381 1.243-2.072 1.243-4.835V4.58c-4.835 0-9.394.691-11.605 2.487V.573z"/></g><g><path fill="#d2d5d2" d="M46.142 23.368c3.177 0 8.289-.691 10.361-2.487v6.631H34.4c1.105-1.243 1.244-2.072 1.244-4.697V5.27c0-2.625-.139-3.454-1.244-4.697h20.999v6.631c-2.072-1.796-7.184-2.487-10.361-2.487H42.55v7.184h1.796c1.796 0 4.559-.138 6.355-.69v5.25c-1.796-.692-4.559-.692-6.355-.692H42.55v7.737h3.592z"/></g><g><path fill="#d2d5d2" d="M76.107 10.934c5.25.69 9.67 2.625 9.67 8.29 0 6.768-6.355 8.84-13.262 8.84-4.836 0-8.842-.552-11.881-1.657v-6.079c4.283 2.763 8.703 3.592 11.88 3.592 3.316 0 6.356-.829 6.356-3.315 0-2.487-2.902-3.178-8.704-4.007-4.973-.829-9.67-2.9-9.67-7.874C60.496 2.093 66.85.02 72.929.02c3.868 0 7.737.415 11.19 1.658v6.493c-2.9-2.625-7.322-4.006-11.466-4.006-2.901 0-5.664.967-5.664 3.04 0 2.624 4.006 3.038 9.118 3.73z"/></g><g><path fill="#d2d5d2" d="M106.53.02c3.177 0 5.94.415 8.012.967V7.62c-2.21-2.21-4.697-3.592-8.013-3.592-6.078 0-10.223 4.282-10.223 9.946 0 5.665 4.145 9.947 10.223 9.947 3.316 0 5.94-1.381 8.013-3.592v6.77c-2.21.552-4.974.967-8.013.967-10.637 0-18.236-5.25-18.236-14.092C88.293 5.27 96.03.02 106.53.02z"/></g><g><path fill="#d2d5d2" d="M134.27 23.92c-5.526 0-9.118-4.559-9.118-9.947 0-5.387 3.592-9.946 9.118-9.946s9.118 4.559 9.118 9.946c-.138 5.526-3.73 9.947-9.118 9.947zm0-23.9c-10.914 0-17.13 6.355-17.13 14.092 0 7.598 6.216 14.09 17.13 14.09 10.914 0 17.13-6.354 17.13-14.09C151.4 6.375 145.185.02 134.27.02z"/></g><g><path fill="#d2d5d2" d="M132.779 34.759h18.374v.138c-2.073.967-4.974 3.868-4.974 3.868-2.21 2.072-3.868 3.454-7.322 3.454h-17.406s-.139 0-.139-.138v-.138c1.935-1.106 4.836-4.007 4.836-4.007 1.243-1.381 3.592-3.177 6.63-3.177"/></g><g><path fill="#d2d5d2" d="M102.45 34.759h18.375v.138c-2.073.967-4.974 3.868-4.974 3.868-2.21 2.072-3.868 3.454-7.322 3.454H91.123s-.139 0-.139-.138v-.138c1.935-1.106 4.836-4.007 4.836-4.007 1.243-1.381 3.592-3.177 6.63-3.177"/></g><g><path fill="#d2d5d2" d="M72.123 34.759h18.374v.138c-2.073.967-4.974 3.868-4.974 3.868-2.21 2.072-3.868 3.454-7.322 3.454H60.794s-.138 0-.138-.138v-.138c1.934-1.106 4.836-4.007 4.836-4.007 1.243-1.381 3.591-3.177 6.63-3.177"/></g><g><path fill="#d2d5d2" d="M41.169 34.759h18.373v.138c-2.072.967-4.973 3.868-4.973 3.868-2.21 2.072-3.73 3.454-7.184 3.454H29.978s-.138 0-.138-.138v-.138c1.934-1.106 4.836-4.007 4.836-4.007 1.243-1.381 3.591-3.177 6.493-3.177"/></g><g><path fill="#d2d5d2" d="M11.328 34.759h18.374v.138c-2.072.967-4.973 3.868-4.973 3.868-2.21 2.072-3.73 3.454-7.184 3.454H.138s-.138 0-.138-.138v-.138c1.934-1.106 4.835-4.007 4.835-4.007 1.244-1.381 3.592-3.177 6.493-3.177"/></g><g><g><path fill="#d2d5d2" d="M174.847 24.335v-9.533h5.94c1.796 0 3.178.277 4.145 1.106.967.829 1.381 1.934 1.381 3.592 0 1.657-.414 2.763-1.381 3.591-.967.83-2.21 1.244-4.007 1.244zm.138-12.572V3.89h5.802c1.382 0 2.487.276 3.178.967.69.552 1.105 1.657 1.105 2.9 0 1.244-.415 2.211-1.105 2.902-.691.69-1.796.967-3.178.967zM171.669.573l-.138 26.801h9.67c2.625 0 4.698-.69 6.217-2.072 1.52-1.382 2.349-3.316 2.349-5.803 0-1.657-.415-3.177-1.243-4.282-.83-1.105-1.935-1.934-3.316-2.487a5.27 5.27 0 0 0 2.21-2.072c.691-.967.967-2.072.967-3.316 0-2.072-.552-3.73-1.934-4.973-1.381-1.243-3.177-1.796-5.526-1.796h-9.256z"/></g><g><path fill="#d2d5d2" d="M202.615 24.197c-.967.552-1.934.69-2.901.69-1.106 0-1.934-.276-2.625-.829-.691-.552-.967-1.381-.967-2.348 0-1.105.414-1.934 1.381-2.625.83-.69 2.21-.967 4.006-.967h4.145v.829c0 1.243-.276 2.21-.829 3.177-.552.967-1.243 1.658-2.21 2.073zm-6.77 2.9c1.106.553 2.21.691 3.454.83 1.382 0 2.625-.415 3.73-.967 1.105-.553 1.934-1.382 2.625-2.349l.553 3.04h2.624V14.663c0-2.21-.69-4.006-2.21-5.25-1.52-1.243-3.454-1.934-5.802-1.934-1.796 0-3.454.415-4.697 1.244-1.382.829-2.349 1.934-3.04 3.315l2.487 1.52c.553-.967 1.243-1.796 2.072-2.348.967-.553 1.934-.83 3.178-.83 1.381 0 2.625.415 3.454 1.106.967.69 1.381 1.796 1.381 3.04v.966h-4.283c-2.624 0-4.697.553-6.355 1.658-1.52 1.105-2.348 2.763-2.348 4.835 0 1.105.276 2.21.829 3.04a4.877 4.877 0 0 0 2.348 2.072z"/></g><g><path fill="#d2d5d2" d="M213.529 7.618h3.177v3.73c.553-1.243 1.382-2.21 2.625-2.9 1.243-.691 2.486-1.106 3.868-1.106 1.934 0 3.592.553 4.697 1.796 1.105 1.105 1.796 2.763 1.796 4.835v13.539h-3.177V14.664c0-1.381-.277-2.349-.967-3.177-.691-.691-1.658-1.106-2.902-1.106-1.105 0-2.072.277-2.9.967-.83.691-1.52 1.658-2.073 2.902-.414 1.243-.69 2.763-.69 4.42v8.842h-3.178V7.618z"/></g><g><path fill="#d2d5d2" d="M237.705 16.184l7.598-8.427h4.006l-8.15 9.117L250 27.65h-4.006l-8.29-10.085V27.65h-3.177V.297h3.178z"/></g></g></g></g></svg>