<svg xmlns="http://www.w3.org/2000/svg" width="250" height="154" viewBox="0 0 250 154"><g><g><path fill="#d2d5d2" d="M84.833 16.876c0-8.018 2.693-16.404 18.362-16.373 1.959-.03 3.917.183 5.845.581v109.102c0 7.957-3.213 12.547-18.637 12.547-1.867 0-3.734-.122-5.57-.398V16.875zm55.209 25.156c6.304-6.825 12.333-10.834 23.228-10.834 3.458.122 6.885.643 10.221 1.53l30.849 50.037 15.822-37c5.233-12.73 13.588-13.985 19.83-13.863 3.459.122 6.856.918 10.008 2.326l-48.445 107.938c-3.58 7.865-8.263 11.354-16.802 11.354h-.765a29.078 29.078 0 0 1-11.476-2.479l20.443-43.12-33.633-52.852-20.505 21.728 28.982 43.58c-4.376 1.775-9.09 2.632-13.802 2.57-9.58 0-15.424-3.519-19.831-10.405l-24.024-37.826 29.9-32.684zM29.135 32.055c4.253-.46 8.569-.673 12.853-.643 9.793.092 19.556.765 29.257 2.02.337 1.653.52 3.366.52 5.05 0 12.914-6.794 15.7-13.404 15.7-5.05 0-12.762-.919-21.82-.919-9.06 0-12.793 2.265-12.793 5.54 0 3.243 3.612 4.59 9.304 5.57l17.75 3.304c18.3 3.367 26.196 13.803 26.196 26.595 0 14.873-9.548 25.584-29.379 27.788-14.261 1.56-34.888-.245-44.712-1.377-.336-1.714-.55-3.428-.581-5.172 0-12.946 6.702-15.792 13.527-15.792 6.824 0 17.566 1.194 25.523 1.194 8.844 0 11.476-2.969 11.476-5.815 0-3.733-3.489-5.264-10.344-6.61L23.81 84.815C8.294 81.877 0 71.075 0 59.66c0-13.863 9.824-25.462 29.104-27.573z"/></g></g></svg>