<svg xmlns="http://www.w3.org/2000/svg" width="250" height="95" viewBox="0 0 250 95"><g><g><g><g><g><path fill="#d2d5d2" d="M242.457 33.739l-.008.009-134.273 28.537L0 33.74zm-.008.009l.035-.007.009-.002-.01.007L229.58 94.32l-33.68-8.9 46.49-51.608-64.572 46.876-44.064-11.627 108.688-35.307zm.044-.01zm-.036 0h.027v.003l.009-.002h-.009l.009-.04zm.036 0z"/></g></g><g><g><path fill="#d2d5d2" d="M9.182.5h8.74l5.734 19.807h.079L27.865.5h6.817L28.507 29.09h-8.74L13.913 9.32h-.08L9.745 29.089H2.928z"/></g></g><g><g><g><g><path fill="#d2d5d2" d="M50.92 28.445c-2.445.722-5.051 1.123-7.056 1.123-6.737 0-10.346-4.13-10.346-9.221.04-4.69 3.168-11.907 12.15-11.907 5.292 0 9.261 2.685 9.261 8.778 0 .802-.24 2.606-.522 3.81H40.134c.082 2.165 1.124 3.89 5.413 3.89 1.844 0 4.37-.483 6.336-1.403zm-1.804-11.346c0-2.165-.842-4.01-3.408-4.01-3.007 0-4.65 2.045-5.173 4.01z"/></g></g><g><g><path fill="#d2d5d2" d="M57.496 8.92h3.168l1.443-6.294h6.935L67.599 8.92h5.613l-.881 4.89h-5.896l-1.242 5.613c-.32 1.525-.601 2.527-.601 3.49 0 1.364 1.685 2.124 3.089 2.124.72 0 1.522-.32 2.244-.56l-.802 4.73c-1.485.24-2.928.401-4.33.401-3.57 0-7.178-1.722-7.178-5.975 0-1.002.16-2.004.643-4.128l1.243-5.653h-2.889z"/></g></g><g><g><path fill="#d2d5d2" d="M100.397 29.088h-8.1l-.201-14.595h-.08L85 29.088h-8.14L75.056 8.92h6.937l.122 14.595h.079L88.888 8.92h8.463l.079 14.595h.079l6.536-14.595h7.056z"/></g></g><g><g><path fill="#d2d5d2" d="M120.244 29.568c-7.457 0-10.464-4.13-10.464-9.222.04-7.095 5.17-11.907 13.07-11.907 6.856 0 10.464 3.968 10.425 9.022 0 8.42-5.495 12.107-13.03 12.107zm2.245-16.238c-3.369 0-5.492 3.648-5.492 6.856 0 2.727 1.403 4.531 3.767 4.492 3.25 0 5.333-2.728 5.333-7.3z"/></g></g><g><g><path fill="#d2d5d2" d="M144.58 8.92l-.801 4.13h.081c1.122-2.366 3.408-4.61 6.255-4.61.92 0 2.004.118 2.925.52l-1.604 6.174c-.88-.68-1.883-.841-3.207-.841-2.926 0-4.69 2.566-5.213 5.531l-2.004 9.304h-6.975l3.207-14.917c.36-1.723.681-3.448.882-5.252h6.455z"/></g></g><g><g><path fill="#d2d5d2" d="M157.893.5h7.056l-3.69 16.88h.082l6.695-8.46h7.94l-8.38 9.702 5.211 10.467h-7.738l-4.09-9.985h-.079l-2.165 9.985h-7.098z"/></g></g><g><g><path fill="#d2d5d2" d="M182.15.5h8.7c5.453.04 11.99.2 11.949 7.296-.042 4.854-3.529 7.618-7.9 8.14v.08c2.245.2 2.968 3.25 3.369 5.093l2.004 7.98h-7.177l-1.443-7.3c-.723-3.726-1.884-4.009-5.292-4.009h-.802l-2.365 11.309h-7.217zm4.53 11.868h3.007c3.329 0 5.895-.802 5.935-3.527 0-2.047-1.203-2.928-3.53-2.968h-4.048z"/></g></g><g><g><path fill="#d2d5d2" d="M216.07 26.282l-.081-.082v.082c-1.483 2.323-4.09 3.286-6.816 3.286-4.33 0-6.735-1.925-6.696-5.853.04-4.972 5.012-7.378 11.148-7.378 1.403 0 2.806.121 3.767.2.081-.279.081-.561.081-.801 0-1.443-1.403-2.606-3.69-2.606-2.524 0-4.21.4-6.534 1.603l.72-5.09c2.047-.684 4.252-1.164 7.418-1.164 4.812 0 8.742 1.883 8.702 6.856 0 3.168-1.804 7.697-2.606 13.793h-5.695zm-4.65-1.364c2.965 0 4.77-2.044 5.291-4.772-.601-.121-1.443-.121-1.844-.121-3.328-.119-5.774 1.084-5.774 2.849 0 .96.882 2.044 2.327 2.044z"/></g></g><g><g><path fill="#d2d5d2" d="M229.462 8.92h7.056l-4.291 20.169h-7.056zM231.266.5h7.056L237.2 5.633h-7.056z"/></g></g><g><g><path fill="#d2d5d2" d="M242.612.5h7.056l-6.093 28.589h-7.056z"/></g></g></g></g></g></g></g></svg>