<svg xmlns="http://www.w3.org/2000/svg" width="250" height="71" viewBox="0 0 250 71"><g><g><g><path fill="#d2d5d2" d="M36.093 42.974c0 6.73 4.339 12.69 12.395 12.69 8.057 0 12.307-5.96 12.307-12.69 0-6.846-4.25-12.69-12.307-12.69-8.056 0-12.395 5.844-12.395 12.69zm-16.999 0c0-16.438 12.07-27.918 29.394-27.918 17 0 29.306 11.746 29.306 27.918 0 16.173-12.336 27.92-29.306 27.92-17.323 0-29.424-11.481-29.394-27.92zm118.808-27.918c13.95.009 24.062 9.657 24.003 22.96V68.71a.825.825 0 0 1-.826.827h-15.11a.825.825 0 0 1-.827-.827V38.695c0-3.925-2.509-7.88-7.32-7.88-4.692 0-7.141 3.955-7.141 7.88V68.71a.825.825 0 0 1-.827.827h-15.169a.825.825 0 0 1-.826-.827V38.695c0-3.925-2.509-7.88-7.32-7.88-4.692 0-7.141 3.955-7.141 7.88V68.71a.825.825 0 0 1-.827.827H83.372a.825.825 0 0 1-.826-.827V38.046c0-13.31 10.093-22.96 24.023-22.96a20.777 20.777 0 0 1 14.874 5.99 1.121 1.121 0 0 0 1.624 0 21.013 21.013 0 0 1 14.844-6.02zM208.3 42.974c0 6.73 4.25 12.69 12.307 12.69 8.056 0 12.395-5.96 12.395-12.69 0-6.846-4.339-12.69-12.395-12.69-8.057 0-12.307 5.844-12.307 12.69zm-17 0c0-16.172 12.337-27.918 29.307-27.918C237.9 15.056 250 26.536 250 42.974c0 16.439-12.07 27.92-29.394 27.92-17 0-29.306-11.747-29.306-27.92zm-6.433-26.56h-.029zm-.025 0c.47.001.822.384.822.855v51.41a.825.825 0 0 1-.827.827h-15.14a.825.825 0 0 1-.826-.826V17.24c0-.457.37-.827.826-.827zm-.004 0z"/></g><g><path fill="#d2d5d2" d="M12.483.506A12.1 12.1 0 0 0 .058 13.786a12.277 12.277 0 0 0 13.429 11.038c6.739-.563 11.746-6.482 11.185-13.221A12.13 12.13 0 0 0 12.483.506z"/></g></g></g></svg>