<svg xmlns="http://www.w3.org/2000/svg" width="250" height="64" viewBox="0 0 250 64"><g><g><g><g><path fill="#d2d5d2" d="M125.066 44.755c-6.393 0-9.624-2.445-9.624-7.32 0-4.928 3.23-7.395 9.624-7.395 6.378 0 9.64 2.467 9.64 7.394zm0-21.09c-11.69 0-18.386 5.02-18.386 13.77 0 8.658 6.696 13.676 18.386 13.676 11.676 0 18.357-5.018 18.357-13.677z"/></g><g><path fill="#d2d5d2" d="M177.705 24.336h-31.89v5.853h11.07v18.172c0 1.732 2.648 2.358 4.886 2.358 2.233 0 4.88-.595 4.88-2.358V30.19h11.054"/></g><g><path fill="#d2d5d2" d="M236.608 44.394c-2.707 0-4.564-.453-5.581-1.293-1.317-1.12-1.47-2.784-1.505-4.047V26.228c0-1.71-2.513-2.268-4.655-2.268-2.175 0-4.702.557-4.702 2.24v12.423c0 4.74 1.522 8.065 4.557 9.886 3.743 2.171 10.55 2.093 17.095 2.01H250v-6.125"/></g><g><path fill="#d2d5d2" d="M110.731 16.4H72.07v6.454H85.4V42.45c0 4.63 3.896 7.778 10.504 8.325v-27.92h14.826"/></g><g><path fill="#d2d5d2" d="M189.956 39.377a47.99 47.99 0 0 1 6.471-7.842 50.355 50.355 0 0 1 6.426 7.842zm9.288-14.726c-.824-.563-1.689-.69-2.817-.726-1.157.037-2.057.163-2.856.726-2.526 1.819-14.737 14.085-16.89 24.813l-.245 1.06h8.64l.157-.769a27.997 27.997 0 0 1 1.675-4.858H205.9c.756 1.695 1.33 3.344 1.647 4.858l.184.77h8.653l-.23-1.06c-2.18-10.73-14.38-22.996-16.91-24.814z"/></g><g><path fill="#d2d5d2" d="M57.373 35.454c-.04-.135-.091-.263-.142-.39-4.485 5.114-15.497 8.428-25.404 7.693-5.835-.435-16.642-3.451-22.095-6.793 5.764 5.517 12.5 9.712 20.14 11.972 9.07 2.697 18.74 2.513 24.19-.325 4.003-2.693 4.91-7.51 3.311-12.156"/></g><g><path fill="#d2d5d2" d="M44.9 3.265c17.858 10.538 7.23 43.706-6.981 54.363-13.222 9.91-27.294 5.34-30.343-3.8 2.667 3.96 7.953 5.408 12.65 3.826 13.055-5.228 19.776-28.87 20.646-37.078.58-7.068-.34-11.815-2.795-14.803C35.262 2.804 30.96 1.36 24.65 3.339c4.338-3.558 13.625-3.98 20.25-.074"/></g><g><path fill="#d2d5d2" d="M54.892 47.144l.213-.136.035-.026c.368-.241.73-.508 1.07-.82.155-.14.318-.293.473-.456 6.946-7.047 8.42-26.644-8.703-35.928-6.091-3.307-20.261-7.934-34.386-.796C8.916 11.34 4.096 16.241 1.497 22.9c1.917-3.162 5.233-5.306 11.764-6.226 6.516-.823 15.505.19 24.288 3.293 5.669 2.087 10.25 4.668 13.837 7.589 2.954 2.532 4.857 4.946 5.843 7.507.051.13.103.255.144.391 1.599 4.646.692 9.461-3.309 12.16.19-.1.366-.196.569-.319l.087-.048.172-.103"/></g><g><path fill="#d2d5d2" d="M3.707 34.175c.328.52 1.072 1.409 1.549 1.968 3.44-8.07 22.241-13.31 27.785-13.243-12.458-4.01-24.67-2.097-29.573 2.157-1.784 1.987-2.34 4.965.239 9.118"/></g><g><path fill="#d2d5d2" d="M40.374 52.472c-10.014-.557-24.59-4.413-34.92-16.107l-.197-.223c-.48-.558-1.222-1.446-1.55-1.967-2.58-4.15-2.023-7.131-.24-9.115h-.004c-.324.29-.719.663-1.166 1.24-2.65 3.416-2.965 8.962-1.164 14.84C5.07 53.906 22.285 61.586 36.255 59.477c8.927-1.346 14.522-6.368 16.85-8.42-5.059 1.44-8.793 1.64-12.731 1.415"/></g></g></g></g></svg>