<svg xmlns="http://www.w3.org/2000/svg" width="250" height="68.922" viewBox="0 0 250 68.922">
  <path id="aggreko" d="M143.95,18l-1.417,8.376a13.656,13.656,0,0,0-6.084-.792c-7.084,1.333-6.084,9.959-6.167,12.251V51.087H120.114V18.293h10.167v3.75a9.377,9.377,0,0,1,8.959-4.75A30.615,30.615,0,0,1,143.95,18m33.128,18.21h-23.96c0,4.75,2.417,8.959,6.834,8.959a7.347,7.347,0,0,0,7.751-4.542l9.167,1.417C174.327,48.8,167.7,52,160.076,52c-10.376,0-17.46-6.292-17.46-17.585,0-10.626,6.834-16.668,16.46-17.251C170.66,16.5,177.2,24.127,177.2,35.045l-.125,1.167Zm-9.5-5.709a7.459,7.459,0,0,0-6.959-6.751,7.677,7.677,0,0,0-7.292,6.751Zm23.21,0L201.829,18.21H215l-15.168,14.71L216.08,51.046H202.7L190.787,37V50.921H180.494V0h10.293ZM250,35.253c0,10.834-8.959,16.918-18.543,16.918-10.376,0-19.335-5.875-19.335-17,0-12.251,9.042-17.876,19.335-17.876C241.582,17.335,250,24.085,250,35.253m-18.543,8.709a9.121,9.121,0,0,0,8.292-9.292,8.675,8.675,0,1,0-17.335-.75v.708a9.115,9.115,0,0,0,8.917,9.292c0,.042.042.042.125.042M36.566,51.254H26.857V46.837h-.208c-1.333,3.625-6.959,5.084-10.626,5.084-9.626,0-16-6.959-16-17.585a15.961,15.961,0,0,1,15.21-16.751,10.134,10.134,0,0,1,1.125,0A13.312,13.312,0,0,1,26.4,21.543l-.125-3.084H36.441V51.254ZM10.272,34.92a8.458,8.458,0,0,0,7.751,9.126,8.03,8.03,0,0,0,1,.042,8.47,8.47,0,0,0,8.751-8.167,8.029,8.029,0,0,0-.042-1,8.647,8.647,0,0,0-8.042-9.251c-.208,0-.458-.042-.667-.042a8.556,8.556,0,0,0-8.751,8.334,3.689,3.689,0,0,0,0,.958M76.444,47.837c.208,15.043-5.75,21.085-18,21.085-7.959,0-17-4.542-17.793-13.709H51.817A5.371,5.371,0,0,0,54.9,60.3a13.5,13.5,0,0,0,4.625.792c6.626-.208,6.959-6.417,6.626-11.5v-1.75a14.068,14.068,0,0,1-10.626,4.209A16.351,16.351,0,0,1,39.733,35.253c0-9.376,4.959-17.46,16.585-17.793A12.168,12.168,0,0,1,66.36,22.335h.125V18.251h9.959V47.837ZM50.15,34.669a8.741,8.741,0,1,0,17.46.875v-.833a8.745,8.745,0,1,0-17.46-1.042v1m66.3,13.168c.208,15.043-5.75,21.085-18,21.085-7.959,0-17-4.542-17.793-13.709H91.82A5.371,5.371,0,0,0,94.9,60.3a13.5,13.5,0,0,0,4.625.792c6.626-.208,6.959-6.417,6.626-11.5v-1.75a14.068,14.068,0,0,1-10.626,4.209A16.351,16.351,0,0,1,79.736,35.253c0-9.376,4.959-17.46,16.585-17.793a12.167,12.167,0,0,1,10.042,4.875h.125V18.251h9.959V47.837ZM90.154,34.794a8.741,8.741,0,1,0,17.46.875v-.833a8.748,8.748,0,1,0-17.46-1.125,4.706,4.706,0,0,0,0,1.083" transform="translate(0)" fill="#d2d5d2"/>
</svg>
