<svg xmlns="http://www.w3.org/2000/svg" width="250" height="62" viewBox="0 0 250 62"><g><g><g><path fill="#d2d5d2" d="M236.752 30.855h-.045zm3.725 0v-6.79h4.982v6.79h4.497v3.725h-4.497v12.08c0 .53.022.97.066 1.367.044.375.154.706.309.97.154.265.397.463.727.595.33.133.75.199 1.323.199.353 0 .705 0 1.058-.022a5.835 5.835 0 0 0 1.058-.155v3.858c-.551.066-1.102.11-1.61.176-.528.067-1.057.089-1.608.089-1.323 0-2.381-.133-3.175-.375-.793-.243-1.433-.617-1.873-1.102-.463-.485-.75-1.08-.926-1.808a13.582 13.582 0 0 1-.287-2.491V34.624h-3.77v-3.77zm-16.643 19.288c1.102 0 2.072-.242 2.888-.705a6.144 6.144 0 0 0 2.005-1.83c.53-.75.904-1.609 1.169-2.557.242-.948.375-1.918.375-2.91a11.8 11.8 0 0 0-.375-2.887 7.538 7.538 0 0 0-1.169-2.558 6.08 6.08 0 0 0-2.005-1.807c-.816-.463-1.786-.706-2.888-.706-1.102 0-2.072.243-2.888.706a6.331 6.331 0 0 0-2.006 1.807c-.53.75-.904 1.588-1.168 2.558-.243.97-.375 1.917-.375 2.887 0 .992.132 1.962.375 2.91a7.74 7.74 0 0 0 1.168 2.557 6.146 6.146 0 0 0 2.006 1.83c.816.485 1.786.705 2.888.705zm0 3.946c-1.808 0-3.417-.308-4.828-.904a10.66 10.66 0 0 1-3.593-2.468c-.97-1.059-1.72-2.315-2.227-3.77-.507-1.455-.771-3.064-.771-4.806 0-1.72.264-3.306.771-4.761s1.257-2.712 2.227-3.77c.97-1.058 2.182-1.873 3.593-2.469 1.41-.595 3.02-.903 4.828-.903 1.807 0 3.417.308 4.827.903a10.659 10.659 0 0 1 3.594 2.47c.97 1.057 1.719 2.314 2.226 3.769.507 1.455.772 3.042.772 4.761 0 1.742-.265 3.351-.772 4.806s-1.257 2.711-2.226 3.77c-.97 1.058-2.183 1.873-3.594 2.468-1.41.596-3.02.904-4.827.904zm-20.259-31.853h4.982v31.236h-4.982zm-9.435 8.619h4.982v22.617h-4.982zm0-8.62h4.982v4.718h-4.982zm-8.795 19.95a11.26 11.26 0 0 0-.397-2.975 8.026 8.026 0 0 0-1.19-2.558 6.065 6.065 0 0 0-1.962-1.785 5.5 5.5 0 0 0-2.712-.684c-2.094 0-3.681.728-4.74 2.183-1.057 1.455-1.586 3.395-1.586 5.82 0 1.146.132 2.204.418 3.174.287.97.684 1.807 1.257 2.513a5.95 5.95 0 0 0 1.984 1.653c.771.419 1.675.617 2.69.617 1.146 0 2.093-.242 2.887-.705a6.099 6.099 0 0 0 1.94-1.808 7.51 7.51 0 0 0 1.102-2.535c.199-.948.309-1.918.309-2.91zm-17.415-11.33h4.717v3.064h.089c.705-1.323 1.675-2.249 2.931-2.822 1.257-.573 2.602-.86 4.078-.86 1.786 0 3.33.31 4.652.948a9.091 9.091 0 0 1 3.306 2.58c.882 1.102 1.522 2.38 1.962 3.835.441 1.455.662 3.02.662 4.674 0 1.52-.199 2.998-.595 4.408-.397 1.433-.992 2.69-1.786 3.792-.794 1.102-1.808 1.962-3.042 2.623-1.235.662-2.667.992-4.343.992-.727 0-1.455-.066-2.182-.198a9.605 9.605 0 0 1-2.094-.64 7.561 7.561 0 0 1-1.852-1.124A6.982 6.982 0 0 1 173 50.54h-.088v11.287h-4.982zm-16.732 0h-.044zm3.726 0v-6.79h4.982v6.79h4.497v3.725h-4.497v12.08c0 .53.022.97.066 1.367.044.375.154.706.309.97.154.265.396.463.727.595.33.133.75.199 1.323.199.352 0 .705 0 1.058-.022a5.835 5.835 0 0 0 1.058-.155v3.858c-.551.066-1.102.11-1.61.176-.528.067-1.057.089-1.609.089-1.322 0-2.38-.133-3.174-.375-.794-.243-1.433-.617-1.874-1.102-.463-.485-.75-1.08-.926-1.808a13.593 13.593 0 0 1-.286-2.491V34.624h-3.77v-3.77zM134.709 46.22c.155 1.454.706 2.468 1.654 3.064.97.573 2.116.881 3.46.881.464 0 .993-.044 1.588-.11a6.666 6.666 0 0 0 1.675-.419 3.221 3.221 0 0 0 1.3-.903c.331-.397.486-.904.464-1.544-.022-.639-.265-1.168-.706-1.565-.44-.419-.992-.727-1.675-.992a16.813 16.813 0 0 0-2.337-.639c-.881-.176-1.763-.375-2.667-.573a25.329 25.329 0 0 1-2.69-.75 8.209 8.209 0 0 1-2.314-1.19 5.235 5.235 0 0 1-1.631-1.896c-.42-.771-.617-1.72-.617-2.866 0-1.234.308-2.248.903-3.086.595-.837 1.367-1.499 2.27-2.006.927-.507 1.94-.86 3.065-1.08 1.124-.198 2.204-.308 3.218-.308 1.169 0 2.293.132 3.351.374 1.058.243 2.028.64 2.888 1.213.86.55 1.565 1.278 2.138 2.16.573.882.926 1.962 1.08 3.218h-5.202c-.243-1.19-.772-2.006-1.631-2.402-.86-.42-1.852-.618-2.954-.618-.353 0-.772.022-1.257.089a6.877 6.877 0 0 0-1.367.33 2.962 2.962 0 0 0-1.08.706c-.286.308-.44.705-.44 1.212 0 .617.22 1.102.639 1.477.419.375.97.683 1.653.948.683.242 1.455.463 2.337.64.881.176 1.785.374 2.711.572.904.199 1.786.463 2.667.75a8.052 8.052 0 0 1 2.337 1.19 5.868 5.868 0 0 1 1.653 1.874c.42.75.64 1.697.64 2.8 0 1.344-.309 2.469-.926 3.416a7.327 7.327 0 0 1-2.381 2.271 11.193 11.193 0 0 1-3.262 1.279 16.37 16.37 0 0 1-3.55.396c-1.432 0-2.755-.154-3.967-.485-1.213-.33-2.271-.815-3.153-1.455a7.214 7.214 0 0 1-2.094-2.446c-.507-.97-.771-2.139-.816-3.483h5.026zm-8.487 7.252h-4.893V50.32h-.089c-.617 1.146-1.52 2.05-2.733 2.733-1.212.684-2.447 1.036-3.703 1.036-2.976 0-5.137-.727-6.46-2.204-1.322-1.477-1.983-3.704-1.983-6.68v-14.35h4.982V44.72c0 1.983.374 3.394 1.146 4.21.75.816 1.83 1.234 3.196 1.234 1.058 0 1.918-.154 2.624-.485.705-.33 1.278-.75 1.697-1.3.44-.53.75-1.19.948-1.94.198-.75.286-1.565.286-2.447V30.877h4.982zM90.07 30.855h4.673v4.364h.089a5.13 5.13 0 0 1 .86-1.785 7.95 7.95 0 0 1 1.52-1.587 8.108 8.108 0 0 1 1.984-1.169 6.07 6.07 0 0 1 2.227-.44c.573 0 .992.022 1.212.044.22.022.441.066.684.088v4.805c-.353-.066-.706-.11-1.08-.154a9.159 9.159 0 0 0-1.08-.066c-.838 0-1.632.176-2.381.507-.75.33-1.39.838-1.94 1.477-.551.661-.992 1.455-1.323 2.425-.33.97-.485 2.072-.485 3.328V53.45h-4.982V30.855zm1.08-8.62v4.718h-9.942v26.519h-5.467V26.953h-9.897v-4.717z"/></g><g><path fill="#d2d5d2" d="M59.806 22.236H36.968L29.914.5l-7.076 21.736L0 22.213 18.495 35.66l-7.076 21.714 18.495-13.425 18.473 13.425-7.054-21.714z"/></g><g><path fill="#5d6d77" d="M42.92 40.576l-1.587-4.916-11.42 8.289z"/></g></g></g></svg>