<svg xmlns="http://www.w3.org/2000/svg" width="250" height="68" viewBox="0 0 250 68"><g><g><g><g><g><path fill="#d2d5d2" d="M61.483 33.37H50.754c-2.279 0-4.393-1.35-5.067-3.37-1.945-5.647-7.516-7.67-7.516-7.67-2.029-.76-3.55-2.697-3.55-5.058v-10.7c0-2.946 2.448-5.301 5.408-5.301 2.956 0 5.321 2.188 5.321 5.302l.003 8.574L57.68 2.785a5.366 5.366 0 0 1 7.603 0c2.111 2.1 2.111 5.554 0 7.663L53.12 22.581h8.362c2.954 0 5.403 2.445 5.403 5.394 0 2.95-2.449 5.394-5.403 5.394zM61.4 46.342l-8.527-.009L65.196 58.65a5.32 5.32 0 0 1 0 7.575 5.35 5.35 0 0 1-7.6 0L45.35 54.01v8.429c0 3.206-2.452 5.395-5.406 5.395-2.958 0-5.408-2.446-5.408-5.395V51.733c0-2.276 1.436-4.382 3.466-5.056 5.656-1.938 7.598-7.495 7.598-7.495.76-2.018 2.789-3.538 5.07-3.538h10.729c2.958 0 5.404 2.444 5.404 5.396 0 2.942-2.196 5.303-5.405 5.303zM26.857 67.748c-2.953 0-5.322-1.945-5.236-5.31l.016-8.543-12.349 12.33c-2.107 2.112-5.572 2.112-7.6 0-2.11-2.1-2.11-5.557 0-7.575l12.214-12.226H5.49A5.377 5.377 0 0 1 .086 41.04a5.381 5.381 0 0 1 5.403-5.396h10.727c2.278 0 4.307 1.346 5.07 3.371 1.943 5.724 7.428 7.662 7.428 7.662 2.116.759 3.553 2.696 3.553 5.056v10.705c0 2.95-2.37 5.31-5.41 5.31zm1.946-45.334c-5.657 2.023-7.605 7.502-7.605 7.502-.762 2.021-2.784 3.54-5.065 3.54H5.404C2.45 33.456 0 31.009 0 28.062c0-2.953 2.025-5.311 5.404-5.311l8.51.014L1.6 10.448a5.336 5.336 0 0 1 0-7.58 5.366 5.366 0 0 1 7.602 0l12.248 12.197V6.658a5.38 5.38 0 0 1 5.406-5.387c2.961 0 5.326 2.44 5.326 5.387v10.7c0 2.275-1.353 4.385-3.38 5.056z"/></g></g><g><g><path fill="#d2d5d2" d="M86.746 5.325c.48-.078 1.187-.11 1.893-.11 3.043 0 4.529 1.738 4.529 4.148 0 2.34-1.784 3.955-4.679 3.955-.741 0-1.41-.035-1.743-.072zm0 11.491h.409l6.759 10.797h5.98l-5.832-8.754c-.596-.887-1.303-1.936-2.008-2.865 3.49-.596 6.165-3.397 6.165-7.113 0-5.126-3.566-7.604-9.096-7.604-2.901 0-5.24.036-7.21.148v26.188h4.833z"/></g></g><g><g><path fill="#d2d5d2" d="M109.455 23.936c-2.712 0-4.122-1.928-4.122-5.721 0-3.785 2.08-5.423 4.198-5.423 2.783 0 4.084 1.93 4.084 5.5 0 3.75-1.82 5.644-4.16 5.644zm.407-15.152c-5.607 0-9.435 4.156-9.435 9.916 0 6.572 3.42 9.281 8.654 9.281 5.5 0 9.437-4.157 9.437-9.952z"/></g></g><g><g><path fill="#d2d5d2" d="M130.683 28.655L138 9.155h-5.089l-2.19 6.279c-.594 1.704-1.375 4.196-1.783 5.866h-.039a72.046 72.046 0 0 0-1.447-5.087l-2.489-7.057h-5.313l6.834 18.458-.594 1.635c-1.003 2.894-2.634 3.637-4.194 3.637-.78 0-1.634-.147-2.338-.372l-.559 4.087c.705.15 1.818.261 2.6.261 4.27 0 6.873-1.82 9.285-8.207"/></g></g><g><g><path fill="#d2d5d2" d="M149.615 19.892c0 2.226-1.554 4.452-3.86 4.452-1.377 0-2.226-.97-2.226-2.154 0-1.594 1.298-2.784 6.086-2.784zm-5.38 8.09c2.616 0 4.783-1.318 5.753-3.243v2.874h4.532a69.62 69.62 0 0 1-.148-4.75v-7.618c0-4.123-1.706-6.5-7.424-6.5-2.495 0-5.13.523-6.985 1.266l.777 3.638c1.633-.708 3.901-1.263 5.573-1.263 2.451 0 3.302 1 3.302 3.235v.665c-6.46 0-10.657 2.042-10.657 6.427 0 3.008 1.935 5.268 5.278 5.268z"/></g></g><g><path fill="#d2d5d2" d="M162.99.5h-4.756v27.114h4.755z"/></g><g><g><path fill="#d2d5d2" d="M179.19 15.862c.522-.036 1.782-.036 2.118-.036 3.307 0 5.312 1.232 5.312 3.61 0 2.192-1.599 4.352-4.756 4.352-.892 0-2.079-.076-2.673-.113zm0-10.502a56.677 56.677 0 0 1 2.712-.073c2.933 0 4.05 1.382 4.05 3.237 0 2.23-1.49 3.7-4.795 3.7-.776 0-1.372 0-1.966-.04zm8.098 8.2v-.075c2.412-.964 3.788-3.249 3.788-5.738 0-4.01-3.009-6.323-8.393-6.323-3.047 0-6.202.078-8.32.185v26.004c3.158 0 5.644.072 7.318.072 7.348 0 10.1-4.533 10.1-8.398 0-2.787-1.82-5.165-4.493-5.727z"/></g></g><g><g><path fill="#d2d5d2" d="M205.215 19.893c0 2.226-1.56 4.45-3.862 4.45-1.375 0-2.229-.968-2.229-2.152 0-1.596 1.296-2.785 6.091-2.785zm-10.661 2.82c0 3.009 1.932 5.269 5.279 5.269 2.615 0 4.783-1.317 5.752-3.245v2.876h4.532c-.112-1.52-.147-3.27-.147-4.752v-7.615c0-4.123-1.709-6.5-7.43-6.5-2.487 0-5.124.521-6.986 1.266l.782 3.637c1.637-.71 3.9-1.262 5.57-1.262 2.454 0 3.31 1 3.31 3.233v.667c-6.462 0-10.662 2.041-10.662 6.426z"/></g></g><g><g><path fill="#d2d5d2" d="M218.598 18.7c0-3.234 1.891-5.942 4.271-5.942 1.782 0 2.3 1.15 2.3 3.046v11.81h4.717V14.65c0-3.232-1.335-5.865-5.498-5.865-2.826 0-4.886 1.353-6.052 3.307V9.156h-4.493v18.457h4.755z"/></g></g><g><path fill="#d2d5d2" d="M238.34 19.083l5.72 8.53H250l-7.3-10.027 6.822-8.43h-5.798l-5.384 6.78V.5h-4.754v27.113h4.754z"/></g><g><g><path fill="#d2d5d2" d="M89.567 63.753c-2.712 0-4.126-1.935-4.126-5.718 0-3.792 2.08-5.428 4.2-5.428 2.785 0 4.086 1.932 4.086 5.5 0 3.748-1.82 5.646-4.16 5.646zm.406-15.158c-5.607 0-9.432 4.162-9.432 9.92 0 6.575 3.419 9.283 8.653 9.283 5.495 0 9.434-4.16 9.434-9.952 0-6.35-3.38-9.25-8.655-9.25z"/></g></g><g><g><path fill="#d2d5d2" d="M103.475 47.502v1.52h-3.234v3.68h3.234v14.781h4.715V52.702h4.312v-3.68h-4.312v-1.559c0-2.449.927-3.528 3.01-3.528.7 0 1.56.074 2.302.335l.334-3.9c-.969-.222-2.007-.3-3.009-.3-5.05 0-7.352 2.454-7.352 7.432"/></g></g><g><g><path fill="#d2d5d2" d="M125.744 48.265c0-1.78 1.298-3.006 4.12-3.006 1.485 0 2.935.259 4.311.704l.444-4.237a23.935 23.935 0 0 0-4.53-.476c-6.056 0-9.473 3.08-9.473 7.536 0 8.247 10.546 6.757 10.546 11.547 0 2.343-1.929 3.272-4.196 3.272-2.004 0-3.861-.413-5.46-1.081l-.517 4.641c1.67.45 3.565.672 5.792.672 5.795 0 9.696-3.456 9.696-8.097 0-7.947-10.733-7.017-10.733-11.475"/></g></g><g><g><path fill="#d2d5d2" d="M147.754 63.68c-3.157 0-4.304-2.192-4.304-5.348 0-3.422 1.445-5.686 4.266-5.686 1.227 0 2.452.295 3.455.704l.742-4.083c-1.188-.412-2.637-.632-4.047-.632-6.389 0-9.399 4.417-9.399 10.175 0 6.28 3.197 8.954 8.32 8.954 1.786 0 3.754-.3 5.202-.854l-.633-3.979c-1.076.487-2.338.749-3.602.749"/></g></g><g><g><path fill="#d2d5d2" d="M162.067 63.753c-2.714 0-4.125-1.935-4.125-5.718 0-3.792 2.078-5.428 4.2-5.428 2.784 0 4.084 1.932 4.084 5.5 0 3.748-1.818 5.646-4.16 5.646zm.407-15.158c-5.606 0-9.435 4.162-9.435 9.92 0 6.575 3.42 9.283 8.655 9.283 5.5 0 9.436-4.16 9.436-9.952z"/></g></g><g><g><path fill="#d2d5d2" d="M182.818 63.788c-1.635 0-2.188-.67-2.188-3.047v-8.095h4.493v-3.68h-4.493v-7.732l-4.719 1.261v6.471h-3.194v3.68h3.194v9.357c0 4.31 1.264 5.796 5.347 5.796 1.3 0 2.826-.22 4.015-.521l-.337-3.75c-.63.185-1.335.26-2.118.26"/></g></g><g><path fill="#d2d5d2" d="M188.293 67.483h4.752V40.367h-4.752z"/></g><g><g><path fill="#d2d5d2" d="M206.453 59.748c0 2.232-1.558 4.46-3.858 4.46-1.375 0-2.23-.969-2.23-2.158 0-1.595 1.298-2.784 6.088-2.784zm4.753-4.644c0-4.12-1.705-6.497-7.428-6.497-2.485 0-5.123.52-6.979 1.264l.777 3.637c1.639-.703 3.9-1.26 5.572-1.26 2.454 0 3.305.999 3.305 3.23v.668c-6.462 0-10.657 2.046-10.657 6.425 0 3.012 1.932 5.275 5.271 5.275 2.625 0 4.796-1.327 5.759-3.254v2.884h4.533a67.968 67.968 0 0 1-.153-4.752z"/></g></g><g><g><path fill="#d2d5d2" d="M224.928 48.65c-2.83 0-4.892 1.36-6.055 3.311v-2.94h-4.493v18.462h4.755v-8.912c0-3.234 1.893-5.946 4.268-5.946 1.784 0 2.305 1.15 2.305 3.043v11.815h4.719V54.52c0-3.232-1.34-5.87-5.5-5.87"/></g></g><g><g><path fill="#d2d5d2" d="M245.282 57.884c0 3.154-1.488 6.054-3.976 6.054-2.153 0-3.154-1.787-3.154-5.239 0-4.57 1.93-6.277 4.641-6.277.815 0 1.637.111 2.49.298zm0-17.537v8.472a16.466 16.466 0 0 0-2.339-.147c-6.131 0-9.77 4.305-9.77 10.548 0 5.273 2.23 8.652 6.724 8.652 2.693 0 4.667-1.323 5.68-3.222v2.815H250V40.347z"/></g></g></g></g></g></svg>