<svg xmlns="http://www.w3.org/2000/svg" width="250" height="118" viewBox="0 0 250 118"><g><g><g><g><path fill="#d2d5d2" d="M13.722 69.74h12.66c2.399 0 4.64 1.752 4.762 4.075h.115V64.27H13.722l-.008-16.753h16.92c2.41 0 4.654 1.746 4.78 4.062h.11l-.017-9.55L0 42.042v.105c2.39.13 4.184 2.662 4.184 5.027v43.889c0 2.357-1.793 4.9-4.184 5.034v.102h17.915v-.102c-2.393-.135-4.201-2.677-4.201-5.034z"/></g></g><g><g><path fill="#d2d5d2" d="M50.38 81.636c0 5.632 4.696 10.501 10.492 10.501 5.79 0 10.503-4.933 10.503-10.567V47.175c0-2.366-1.8-4.897-4.197-5.028v-.102l17.928-.017v.12c-2.393.13-4.205 2.661-4.205 5.027v33.422c0 10.757-8.92 17.024-19.982 17.024-11.081 0-20.096-6.267-20.096-17.024l.023-33.422c0-2.366-1.808-4.897-4.188-5.028v-.12H54.56v.12c-2.387.143-4.189 2.677-4.189 5.028z"/></g></g><g><g><path fill="#d2d5d2" d="M196.861 50.8c-3.003-4.84-9.858-4.257-9.858-4.257-11.212 0-10.682 8.528-10.682 8.528s-.77 4.278 4.863 7.197l11.21 5.939c10.82 5.789 9.538 14.016 9.538 14.016s.488 15.37-22.142 15.37c0 0-6.575.201-10.298-1.19l-3.185-9.955h.11c3.448 4.957 13.465 5.672 13.465 5.672 12.716-.557 12.804-9.173 12.804-9.173s.572-3.71-4.406-6.398l-11.157-5.937C165.476 64.407 166.81 56.05 166.81 56.05s-.275-15.12 19.747-15.12c0 0 8.987.23 10.42 1.628V50.8z"/></g></g><g><g><path fill="#d2d5d2" d="M109.51 23.195c1.984 1.943 4.755 3.136 7.78 3.136 6.095 0 11.029-4.795 11.029-10.72 0-5.91-4.934-10.713-11.029-10.713 0 0-8.49-.784-12.31 9.78l.012-7.93C107.836 3.13 112.237.5 117.29.5c8.6 0 15.556 6.759 15.556 15.11 0 8.339-6.957 15.123-15.556 15.123-4.295 0-8.18-1.685-10.987-4.432l-5.35-5.847a8.153 8.153 0 0 0-5.696-2.29c-4.455 0-8.067 3.5-8.067 7.825 0 4.342 3.612 7.852 8.067 7.852 0 0 5.959.777 9.722-6.402l.013 6.349c-2.306 2.72-5.826 4.455-9.735 4.455-6.955 0-12.603-5.486-12.603-12.254 0-6.754 5.648-12.228 12.603-12.228 3.465 0 6.612 1.354 8.896 3.587z"/></g></g><g><g><path fill="#d2d5d2" d="M112.376 47.061c0-2.367-1.802-4.792-4.19-4.914v-.103h17.886v.103c-2.374.132-4.184 2.56-4.184 4.914v43.983c0 2.36 1.81 4.901 4.184 5.042v.1h-17.887v-.1c2.389-.14 4.19-2.681 4.19-5.042z"/></g></g><g><g><path fill="#d2d5d2" d="M101.143 47.175c0-2.365 1.798-4.897 4.189-5.027v-.105H87.417v.105c2.397.13 4.186 2.662 4.186 5.027l.015 54.985s-.2 9.71-8.023 15.296l.02.107c1.543-.252 17.541-3.205 17.541-18.658z"/></g></g><g><g><path fill="#d2d5d2" d="M126.006 51.787h.106c2.425-4.22 6.166-4.27 6.166-4.27h9.698l.006 43.547c0 2.357-1.804 4.88-4.192 5.021v.1h17.938v-.1c-2.408-.14-4.218-2.681-4.218-5.02l.012-43.548 8.106-.019c2.462 0 4.41 1.908 4.481 4.289h.098l2.978-9.76h-38.193z"/></g></g><g><g><path fill="#d2d5d2" d="M215.278 81.636c0 5.632 4.697 10.501 10.495 10.501 5.783 0 10.5-4.933 10.5-10.567V47.175c0-2.366-1.801-4.897-4.188-5.028v-.102L250 42.028v.12c-2.376.13-4.186 2.661-4.186 5.027v33.422c0 10.757-8.924 17.024-20.003 17.024-11.06 0-20.077-6.267-20.077-17.024l.012-33.422c0-2.366-1.803-4.897-4.197-5.028v-.12h17.92v.12c-2.4.143-4.204 2.677-4.204 5.028z"/></g></g></g></g></svg>