<svg xmlns="http://www.w3.org/2000/svg" width="250" height="160" viewBox="0 0 250 160"><g><g><g><path fill="#d2d5d2" d="M47.722 66.841c1.392 0 2.563-.242 3.388-.702.867-.481 1.325-1.193 1.325-2.057 0-1.513-1.539-2.38-4.222-2.38-.736 0-1.314.037-1.738.065l-.029.001-.013.001c-.224.014-.418.027-.559.027h-.017v4.95c.393.095.978.095 1.865.095zm77.18 0c1.392 0 2.564-.242 3.388-.702.867-.481 1.326-1.193 1.326-2.057 0-1.513-1.54-2.38-4.223-2.38-.737 0-1.333.038-1.727.064l-.04.002-.013.001c-.224.014-.417.027-.56.027h-.017v4.95c.393.095.98.095 1.866.095zm-26.316 6.664c3.758 0 6.187-2.317 6.187-5.902 0-1.701-.59-3.166-1.706-4.235-1.136-1.09-2.719-1.666-4.578-1.666-1.846 0-3.429.588-4.579 1.701-1.1 1.067-1.706 2.558-1.706 4.2 0 1.646.61 3.138 1.719 4.2 1.16 1.114 2.773 1.702 4.663 1.702zm-74.528 27.032c3.452 0 5.597-1.933 5.597-5.045 0-1.342-.428-2.46-1.24-3.235-.847-.81-2.116-1.238-3.67-1.238-1.486 0-2.349.132-2.651.19v9.232c.49.096 1.076.096 1.964.096zm31.421 12.373c2.034 0 3.736-1.066 4.923-3.082 1.148-1.95 1.755-4.67 1.755-7.864 0-3.053-.637-5.804-1.792-7.745-1.208-2.031-2.898-3.105-4.886-3.105-4.175 0-6.873 4.296-6.873 10.945 0 3.305.641 6.057 1.854 7.96 1.205 1.891 2.94 2.89 5.02 2.89zm108.111 0c2.034 0 3.736-1.066 4.923-3.082 1.148-1.95 1.755-4.67 1.755-7.864 0-3.051-.637-5.802-1.792-7.745-1.208-2.031-2.898-3.105-4.886-3.105-2.022 0-3.745 1.04-4.982 3.01-1.237 1.97-1.89 4.713-1.89 7.935 0 3.305.64 6.058 1.852 7.96 1.206 1.891 2.942 2.89 5.02 2.89zm29.395.002c1.414 0 2.71-.223 3.85-.662a7.949 7.949 0 0 0 3.035-2.057c1.793-1.962 2.703-4.89 2.703-8.705 0-3.35-.851-5.956-2.529-7.745-1.555-1.658-3.804-2.535-6.505-2.535-1.704 0-2.46.146-2.65.19v21.417c.391.095 1.278.095 1.864.095.078.002.155.002.232.002zm-19.771 22.176c2.846 0 4.615-.912 4.615-2.38 0-1.473-1.43-2.285-4.026-2.285-.99 0-1.686.044-2.102.07a9.627 9.627 0 0 1-.533.025l-.017.001v4.569zm-99.274 7.234c1.8 0 3.303-.58 4.346-1.677 1.011-1.065 1.546-2.559 1.546-4.32 0-1.652-.566-3.143-1.595-4.2-1.084-1.112-2.604-1.7-4.395-1.7-1.801 0-3.338.592-4.443 1.713-1.061 1.076-1.646 2.597-1.646 4.282 0 3.64 2.371 5.902 6.187 5.902zM50.873 36.236c-14.52 0-27.403 1.916-39.384 5.86L29.36 28.388l-17.872-5.902c11.947-3.932 24.794-5.843 39.277-5.843 15.07 0 29.566 2.06 43.123 4.169 1.289.2 2.567.4 3.832.6l.014.002c3.333.523 6.482 1.017 9.59 1.475v-8.398c0-.691 2.108-1.347 5.5-1.713 2.139-.257 4.41-.381 6.945-.381 9.22 0 20.243 1.729 31.914 3.56l.013.001 3.871.606c13.568 2.108 28.078 4.167 43.165 4.166 14.522 0 27.406-1.916 39.386-5.858l-17.871 13.706 17.871 5.901c-11.946 3.932-24.794 5.843-39.275 5.843-15.069 0-29.566-2.06-43.124-4.169a2637.19 2637.19 0 0 1-3.798-.594l-.062-.01-.051-.008c-3.31-.519-6.437-1.01-9.526-1.465v8.398c0 .613-2.107 1.27-5.499 1.714-2.126.255-4.398.38-6.944.38-9.214 0-20.23-1.727-31.897-3.556l-.48-.075-3.423-.535c-13.565-2.109-28.071-4.167-43.166-4.167h-.001zM191.77 57.228zm0 0c-1.333 3.05-3.004 5.852-5.105 8.566l-4.42.286c1.35-3.017 2.283-5.82 2.849-8.566zm-157.992.571v19.607H13.55V57.8zm202.474 0v19.607h-20.227V57.8zm-89.06 0v15.04h10.996v4.568h-18.165V57.8zm46.346 14.183c1.612.644 4.393 1.332 7.365 1.332 2.343 0 3.633-.574 3.633-1.617 0-.86-1.171-1.427-4.32-2.095-5.353-1.179-7.955-3.171-7.955-6.092 0-1.738 1.03-3.305 2.898-4.414 1.957-1.16 4.69-1.772 7.904-1.772 3.042 0 5.435.352 7.757 1.142l-1.67 4.283h-.005c-.965-.314-3.227-1.047-6.279-1.047-2.028 0-3.338.523-3.338 1.332 0 1.035 1.602 1.412 4.795 2.163l.115.027c5.025 1.267 7.266 3.116 7.266 5.996 0 1.777-.93 3.295-2.688 4.39-2.017 1.255-4.977 1.892-8.8 1.892-3.357 0-6.691-.671-8.249-1.333l1.57-4.187zM48.115 57.609c3.71 0 6.408.529 8.248 1.618 1.968 1.06 3.142 2.875 3.142 4.855 0 2.046-.894 3.78-2.454 4.758-2.09 1.473-5.109 2.19-9.23 2.19-.437 0-.839-.03-1.194-.055l-.018-.001h-.01a10.64 10.64 0 0 0-.742-.04v6.568h-7.07V58.085l.12-.01.004-.002.025-.002a87.258 87.258 0 0 1 9.179-.462zm32.993.285v4.474h-10.9v3.046h10.409l-.098 4.283H70.11v3.33h11.586v4.475H62.942V57.894zm44.089-.285c3.71 0 6.407.529 8.248 1.618 1.967 1.06 3.142 2.875 3.142 4.855 0 2.046-.895 3.78-2.454 4.758-2.09 1.473-5.11 2.19-9.23 2.19-.438 0-.839-.03-1.195-.055l-.017-.001h-.01c-.283-.022-.527-.04-.743-.04v6.568h-7.07V58.085l.12-.01.005-.002.024-.002a87.258 87.258 0 0 1 9.18-.462zm36.43.285h18.165v4.474h-10.997v3.046h10.408v4.283h-10.507v3.33h11.587v4.475h-18.657V57.894zm-63.04-.476c4.155 0 7.652.992 10.113 2.868 1.176.897 2.084 1.972 2.7 3.196.62 1.228.934 2.582.934 4.026 0 1.484-.33 2.876-.98 4.137-.646 1.249-1.593 2.343-2.813 3.251-2.536 1.891-6.114 2.891-10.348 2.891-4.05 0-7.487-1-9.941-2.89-2.328-1.794-3.61-4.317-3.61-7.103 0-1.479.339-2.875 1.006-4.151.655-1.253 1.61-2.359 2.837-3.286 1.237-.934 2.718-1.661 4.402-2.16 1.738-.517 3.656-.779 5.7-.779zM24.352 83.784c4.658 0 8.03.934 10.31 2.856 1.123.9 2.061 2.163 2.713 3.654.666 1.522 1.018 3.253 1.018 5.008 0 1.824-.269 3.518-.798 5.032-.542 1.553-1.331 2.838-2.344 3.82-1.289 1.248-2.9 2.197-4.787 2.82-1.797.592-3.853.892-6.112.892-.443 0-.882-.03-1.234-.053l-.046-.003c-.319-.02-.619-.04-.88-.04v12.184H13.55V84.546c3.177-.513 6.71-.762 10.802-.762zm98.29.19v8.091H114.2v27.89h-8.739v-27.89h-8.347v-8.09zm91.91 0l21.11 7.806h-12.371v5.805h11.685v7.902h-11.685v6.566h13.06v7.901h-21.8zm-21.995-.19c6.04 0 10.034 1.082 13.354 3.618 1.846 1.441 3.283 3.283 4.271 5.473 1.075 2.382 1.62 5.184 1.62 8.328 0 3.435-.561 6.505-1.669 9.125-.968 2.29-2.322 4.184-4.025 5.628-3.398 2.927-8.661 4.474-15.22 4.474-3.746 0-6.687-.225-8.74-.666V84.546c2.942-.491 6.64-.762 10.409-.762zM55.479 83.5c4.911 0 8.99 1.897 11.796 5.485 2.525 3.229 3.916 7.737 3.916 12.695 0 5.7-1.52 10.481-4.394 13.824-2.877 3.347-6.995 5.116-11.907 5.116-4.78 0-8.791-1.88-11.598-5.437-2.589-3.28-4.014-7.873-4.014-12.933 0-5.194 1.543-9.918 4.346-13.301 1.426-1.722 3.141-3.065 5.1-3.991 2.046-.967 4.319-1.458 6.755-1.458zm84.447 0c3.838 0 6.859.813 8.15 1.618l-1.669 7.614c-1.817-.82-3.833-1.237-5.99-1.237-2.644 0-4.906.88-6.542 2.547-.881.897-1.565 2.013-2.032 3.316-.5 1.394-.754 3.008-.754 4.797 0 3.24.87 5.935 2.516 7.794 1.66 1.875 4.083 2.867 7.009 2.867 2.328 0 4.636-.526 5.89-1.047l1.18 7.328c-1.084.566-4.04 1.523-8.25 1.523-2.932 0-5.584-.495-7.882-1.472-2.143-.91-3.984-2.24-5.471-3.952-1.398-1.61-2.47-3.54-3.189-5.737-.686-2.104-1.034-4.4-1.034-6.828 0-5.935 1.877-10.884 5.426-14.313 3.217-3.107 7.707-4.818 12.642-4.818zm23.86 0c4.875 0 8.94 1.897 11.76 5.485 2.548 3.244 3.952 7.753 3.952 12.695 0 5.7-1.52 10.481-4.393 13.824-2.878 3.347-6.995 5.116-11.907 5.116-4.78 0-8.792-1.88-11.6-5.437-2.588-3.28-4.013-7.873-4.013-12.933 0-5.194 1.543-9.918 4.345-13.301 1.426-1.722 3.142-3.065 5.1-3.991 2.048-.967 4.321-1.458 6.757-1.458zm-89.158 26.936c1.898 1.104 5.113 2.284 8.444 2.284 1.475 0 2.602-.268 3.351-.796.708-.502 1.068-1.226 1.068-2.154 0-1.632-1.289-2.688-5.106-4.188-6.06-2.308-9.133-5.959-9.133-10.85 0-1.588.297-3.084.882-4.445a10.136 10.136 0 0 1 2.556-3.563c2.343-2.109 5.67-3.224 9.622-3.224 3.523 0 6.414.623 8.837 1.903l-1.866 7.71c-.875-.424-3.535-1.713-7.069-1.713-2.583 0-4.124.996-4.124 2.665 0 1.836 1.846 2.603 5.892 4.284 2.964 1.196 5.084 2.644 6.48 4.425 1.388 1.77 2.062 3.872 2.062 6.425 0 1.572-.282 3.055-.839 4.41a10.215 10.215 0 0 1-2.56 3.669c-2.452 2.25-6.098 3.438-10.544 3.438-3.932 0-7.768-1.15-9.525-2.285l1.572-7.995zm-40.85 16.086v19.607H13.552v-19.607zm202.476 0v19.607h-20.228v-19.607zm-189.513.095v15.23h11.095v4.377H38.984v-19.607zm42.026 4.379v-4.379h22.682v4.379h-7.56v15.228H96.13v-15.228zm25.432 0v-4.379h22.683v4.379h-7.56v15.228h-7.758v-15.228zm25.53-4.379l18.756 4.283h-10.998v3.142h10.408l.099 4.283h-10.41v3.617h11.588v4.282H139.73zm55.382 0l2.454 4.379c.775 1.313 1.374 2.377 1.964 3.617h.099l.078-.163c.554-1.167 1.033-2.174 1.787-3.454l2.357-4.379h8.738l-9.524 11.518v8.09h-7.659v-7.9l-9.131-11.708zm-23.96 12.185v7.327h-7.659l-.098-19.226.036-.004c2.025-.176 5.414-.472 9.293-.472 4.77 0 7.707.455 9.819 1.523 1.89.963 2.847 2.404 2.847 4.283 0 1.115-.568 2.185-1.644 3.094-.878.742-2.068 1.349-3.266 1.665v.095c1.704.522 2.855 1.608 3.732 3.522.345.782.688 1.686 1.019 2.56l.011.03c.499 1.32.97 2.565 1.327 3.026h-7.856c-.414-.604-1.203-2.163-2.062-4.569-.397-1.156-.867-1.86-1.522-2.284-.619-.4-1.426-.571-2.7-.571h-1.277zm-97.309-12.566c4.365 0 8.003 1.033 10.52 2.987 2.27 1.764 3.522 4.22 3.522 6.913.076 2.478-.76 4.692-2.418 6.403-2.484 2.56-6.752 3.972-12.017 3.972-4.231 0-7.8-1.025-10.322-2.963-2.335-1.794-3.621-4.291-3.621-7.032 0-2.835 1.369-5.42 3.854-7.28 2.62-1.963 6.245-3 10.482-3zm162.607 33.123c7.472 0 13.551-5.892 13.551-13.135V13.636a13.43 13.43 0 0 0-4.05-9.282C243.41 1.87 240.037.5 236.45.5H13.55C6.08.5 0 6.393 0 13.636v132.587c0 7.243 6.079 13.135 13.55 13.135z"/></g></g></g></svg>