<svg xmlns="http://www.w3.org/2000/svg" width="250" height="47" viewBox="0 0 250 47"><g><g><path fill="#d2d5d2" d="M239.3 37.737c-2.907 0-5.863-.692-8.166-1.722-.703-.322-.874-.845-.874-1.496v-2.301c0-.829.367-1.07.955-1.07.441 0 .817.241 1.144.482 2.425 1.85 5.276 2.736 7.595 2.736h.033c2.63 0 4.655-1.127 4.655-3.299 0-5.068-15.11-3.137-15.11-12.47 0-5.712 4.983-8.287 10.618-8.287 2.532 0 5.195.483 7.596 1.529.735.322.898.885.898 1.528v2.012c0 .804-.35 1.046-.98 1.046-.27 0-.76-.242-1.11-.483-2.124-1.448-5.015-2.253-7.416-2.253-2.45 0-4.41.885-4.41 2.816 0 4.666 15.272 2.575 15.272 11.907 0 7.08-5.227 9.574-10.715 9.574zM226.585 9.972c-1.388.402 1.389-2.896.94-4.666-.49-1.69-2.475-4.023-1.062-4.554 1.388-.539 4.002-.53 4.737.402 1.633 3.09-.572 8.167-4.631 8.77zM185.25 36.924h-5.717c-.286 0-.572-.322-.572-.724V11.26c0-.403.286-.725.572-.725h5.554c.449 0 .735.322.735.724l.122 3.138c.033 0 .041 0 .05-.08 1.143-1.69 3.838-4.345 7.145-4.345.793 0 1.47 0 2.614.242.817.16 1.225.643 1.225 1.206v3.701c0 .403-.376.805-.817.805-.653 0-1.225-.242-2-.483a12.986 12.986 0 0 0-2.573-.241c-2.777 0-5.554 1.046-5.554 4.827v15.93c0 .402-.286.724-.694.724zm-78.202.853c-2.858 0-5.847-.684-8.167-1.714-.686-.346-.857-.86-.857-1.512v-2.317c0-.829.408-1.07.98-1.07.408 0 .816.185 1.143.482 2.45 1.827 5.309 2.712 7.596 2.712 2.695 0 4.655-1.127 4.655-3.299 0-5.068-15.028-3.138-15.028-12.518 0-5.745 4.982-8.344 10.618-8.344 2.531 0 5.145.515 7.595 1.505.735.298.899.885.899 1.529v1.955c0 .82-.327 1.062-.899 1.062-.245 0-.735-.242-1.143-.483-2.124-1.448-4.982-2.253-7.433-2.253-2.45 0-4.41.885-4.41 2.816 0 4.666 15.355 2.494 15.355 11.827 0 7.08-5.227 9.493-10.7 9.493zm-14.44-.652H86.81c-.327 0-.572-.305-.572-.724v-17.7c0-2.01-.327-4.376-4.247-4.376-2.042 0-4.492 1.166-5.635 1.81v20.274c0 .403-.245.724-.735.724h-5.717c-.27 0-.572-.321-.572-.724V11.308c0-.435.327-.724.784-.724h5.717c.408 0 .751.29.751.724v1.343c1.634-1.078 5.31-2.655 8.658-2.655 5.798 0 8.33 3.299 8.33 8.126V36.41c0 .403-.245.724-.735.724zm68.769.507c-5.962 0-11.924-2.413-11.924-9.091V11.348c0-.402.245-.724.572-.724h5.798c.409 0 .735.322.735.724v18.585c0 2.767 1.797 4.481 4.819 4.481 3.675 0 4.9-2.043 4.9-5.873V11.268c0-.403.245-.725.572-.725h5.717c.409 0 .735.322.735.725V27.84c0 7.321-6.044 9.783-12.006 9.783zm-98.334-.708h-5.799c-.326 0-.653-.322-.653-.724V11.26c0-.403.327-.725.572-.725h5.717c.408 0 .735.322.735.724v25.11c0 .427-.327.7-.735.7zm-52.18.95c-3.333 0-6.796-.724-9.867-2.173-.596-.402-.71-.643-.71-1.206v-2.953c0-.54.188-1.07 1.2-1.07.54 0 .899.281 1.667.829 3.079 2.115 6.01 2.976 8.494 2.976 4.181 0 7.023-2.494 7.023-5.583.033-8.07-18.67-5.6-18.67-17.507C0 5.676 4.312.857 12.275.857c3.962 0 7.555.748 9.58 1.528.548.242.654.515.654 1.062v3.42c0 .523-.163.933-.817.933-.53 0-.955-.322-1.617-.805-2.393-1.69-4.68-2.735-7.677-2.735-3.349 0-5.979 1.77-5.979 4.505 0 6.759 18.973 6.034 18.973 16.896 0 8.206-6.942 12.068-14.538 12.068zm191.048 8.962c-.735 0-1.47 0-2.483-.241-.776-.161-1.2-.644-1.2-1.207v-3.387c0-.402.36-.805.784-.805.653 0 1.143.161 1.83.322 1.143.242 2.204.402 3.184.402 3.35 0 5.8-1.69 5.88-4.988l-10.862-24.78c-.245-.643-.326-.804-.326-.965 0-.402.245-.563.571-.563h6.534c.49 0 .735.16.899.644l6.533 16.895 6.29-16.895c.081-.403.408-.644.816-.644h2.695c.245 0 .49.241.49.563 0 .241-.163.402-.245.724L212.35 39.748c-1.527 3.862-5.84 7.04-10.454 7.04zm-73.432-14.32c0 .563.147 1.126.817 1.528.572.402 1.47.644 3.267.644 3.814 0 6.517-3.862 6.517-10.46 0-2.413-.571-9.412-6.019-9.412-2.205 0-3.757 1.206-4.655 1.85v15.93zm3.594 5.253c-4.247 0-7.432-1.472-9.556-3.057-.898-.644-1.062-1.77-1.062-2.736V1.59c0-.418.327-.724.572-.724h5.799c.408 0 .735.306.735.724v11.73c1.143-.965 3.757-3.009 7.84-3.009 6.208 0 10.128 5.31 10.128 12.39 0 9.091-6.37 15.125-14.293 15.125zm-87.39-14.24c-6.615 0-9.147 2.936-9.147 6.13 0 2.22 1.225 4.482 4.41 4.482 2.777 0 4.819-2.06 4.819-2.84v-7.772zm-6.95 14.127c-5.04 0-9.344-2.8-9.344-8.125 0-6.437 7.253-7.845 10.422-8.263 5.21-.644 5.684-.998 5.684-2.357 0-2.88-.522-5.23-4.19-5.23-2.466 0-4.434.7-6.321 1.81l-.98.644c-.327.241-.898.885-1.552.885-.327 0-.98-.338-.98-1.183v-2.639c0-.547.245-1.062.898-1.432 2.45-1.174 6.126-1.826 9.393-1.826 8.494 0 11.026 3.299 11.026 8.086v18.36c0 .401-.245.691-.735.691h-5.472c-.245 0-.572-.281-.572-.692l-.164-1.528c-1.878 1.64-4.165 2.815-6.942 2.815zM60.136 7.43c-2.336 0-3.896-1.408-3.896-3.54 0-1.77 1.258-3.315 3.896-3.315 2.531 0 3.781 1.61 3.781 3.38 0 2.172-1.43 3.54-3.781 3.54z"/></g></g></svg>