<svg xmlns="http://www.w3.org/2000/svg" width="250" height="38" viewBox="0 0 250 38"><g><g><g><g><path fill="#d2d5d2" d="M31.983.5v36.685H17.285a7.548 7.548 0 0 0 4.2-6.598l.003-.002V5.215L7.977 26.955c-.8 1.376-1.375 2.336-1.375 3.8 0 2.988 1.723 5.21 4.21 6.43H0L22.821.5zM63.02 26.68v10.507H34.802V.502h14.772a7.54 7.54 0 0 0-4.55 6.846h-.015V35.81h4.078l4.079-.035c5.182-.34 9.341-3.888 9.81-9.1z"/></g><g><path fill="#d2d5d2" d="M250 24.327v1.696h-9.408V11.716h9.293v1.698h-7.597v4.148h6.127v1.656h-6.127v5.108zm-23.916 0h7.712v1.696h-9.408V11.716h9.293v1.698h-7.597v4.148h6.128v1.656h-6.128zm-15.135-.001h7.406v1.696h-9.102V11.715h1.696zm-20.074-12.61h1.715v14.307H191.1l-6.905-9.529a136.75 136.75 0 0 1-1.198-1.709c.01.652.028 1.577.028 2.598v8.639h-1.695V11.715h1.487l6.887 9.49a302 302 0 0 1 1.21 1.679c-.019-.651-.04-1.572-.04-2.548zm-15.881 7.153c0 4.234-3.119 7.427-7.253 7.427-4.123 0-7.233-3.193-7.233-7.427s3.11-7.427 7.233-7.427l2.019 2.067a5.79 5.79 0 0 0-2.019-.351c-3.186 0-5.5 2.402-5.5 5.711 0 3.31 2.314 5.712 5.5 5.712 3.198 0 5.518-2.403 5.518-5.712 0-.77-.126-1.49-.359-2.143zm-2.094-2.143l-3.14-3.217c1.475.547 2.598 1.698 3.14 3.217zm-22.581 1.001c1.884.538 4.729 1.351 4.729 4.348 0 2.486-2.095 4.222-5.096 4.222-2.843 0-4.894-1.68-5.226-4.28l-.035-.269 1.655-.462.032.371c.129 1.484 1.295 2.982 3.611 2.982 1.976 0 3.305-1.023 3.305-2.544 0-1.778-1.79-2.285-3.52-2.778a37.1 37.1 0 0 1-.654-.19c-1.575-.462-4.112-1.209-4.112-3.758 0-2.276 2.047-3.927 4.866-3.927 2.543 0 4.535 1.563 4.956 3.89l.052.283-1.665.457-.054-.34c-.253-1.61-1.559-2.652-3.326-2.652-1.88 0-3.095.884-3.095 2.25 0 1.398 1.774 1.894 3.489 2.374l.086.025zm-13.707-6.01h1.695v14.307h-1.695zm-13.553 0c4.113 0 7.215 3.11 7.215 7.233 0 4.033-3.036 7.074-7.062 7.074H117.2V11.717h5.86zm5.481 7.232c0-3.206-2.305-5.534-5.48-5.534h-4.163v10.912h4.315c2.647 0 5.328-1.848 5.328-5.377zm-24.892-7.232c4.114 0 7.215 3.11 7.215 7.233 0 4.033-3.035 7.074-7.061 7.074H97.79V11.717h5.858zm5.481 7.232c0-3.206-2.305-5.534-5.48-5.534h-4.164v10.912h4.317c2.646 0 5.327-1.848 5.327-5.377zm-24.687-7.232h1.367l6.208 14.307h-1.869l-1.7-3.988h-6.646l-1.698 3.987h-1.869l6.207-14.307zm1.026 3.368a31.62 31.62 0 0 1-.341-.886 37.97 37.97 0 0 1-.341.88l-2.278 5.338h5.236z"/></g></g></g></g></svg>