<svg xmlns="http://www.w3.org/2000/svg" width="250" height="82" viewBox="0 0 250 82"><g><g><g><g><path fill="#d2d5d2" d="M39.513 19.544H30.37a4.906 4.906 0 0 1-4.95-4.95V5.45c0-2.685 2.182-4.95 4.95-4.95h9.144c2.685 0 4.95 2.181 4.95 4.95v9.144a4.906 4.906 0 0 1-4.95 4.95"/></g><g><path fill="#d2d5d2" d="M15.772 40.098H5.537A5.532 5.532 0 0 1 0 34.56V24.24c0-3.02 2.517-5.536 5.537-5.536h10.319a5.532 5.532 0 0 1 5.537 5.537V34.56c0 3.104-2.517 5.537-5.621 5.537"/></g><g><path fill="#d2d5d2" d="M14.849 61.49H8.557a3.366 3.366 0 0 1-3.356-3.356v-6.291a3.366 3.366 0 0 1 3.356-3.356h6.292a3.366 3.366 0 0 1 3.356 3.356v6.291a3.366 3.366 0 0 1-3.356 3.356"/></g><g><path fill="#d2d5d2" d="M31.711 81.373h-7.466c-2.181 0-4.027-1.762-4.027-4.027v-7.467c0-2.181 1.762-4.027 4.027-4.027h7.466c2.182 0 4.027 1.762 4.027 4.027v7.467c0 2.265-1.761 4.027-4.027 4.027"/></g><g><path fill="#d2d5d2" d="M58.977 23.32h-5.118c-1.51 0-2.768-1.26-2.768-2.77v-5.117c0-1.51 1.258-2.768 2.768-2.768h5.118c1.51 0 2.768 1.258 2.768 2.768v5.118c.084 1.51-1.174 2.768-2.768 2.768"/></g><g><path fill="#d2d5d2" d="M171.896 26.759a2.918 2.918 0 0 0 2.936-2.937 2.918 2.918 0 0 0-2.936-2.936c-1.678 0-3.02 1.342-3.02 2.936 0 1.594 1.342 2.937 3.02 2.937z"/></g><g><path fill="#d2d5d2" d="M63.423 58.47c-.42.671-1.175 1.007-2.014 1.007-.419 0-1.006-.084-1.342-.336-.671-.419-1.09-1.258-1.09-2.097 0-.42.084-.839.335-1.174l6.88-10.822-6.88-10.823c-.252-.335-.336-.839-.336-1.174 0-.84.42-1.678 1.175-2.097.42-.252.839-.336 1.258-.336.84 0 1.594.336 2.098 1.007l5.62 8.892 5.705-8.892c.42-.671 1.259-1.007 2.098-1.007.419 0 .839.084 1.258.336.755.419 1.174 1.258 1.174 2.097 0 .42-.083.839-.335 1.174l-6.88 10.823 6.88 10.822c.252.335.335.755.335 1.174 0 .84-.419 1.762-1.09 2.097-.42.252-.923.336-1.342.336-.84 0-1.51-.336-2.014-1.007l-5.705-8.808z"/></g><g><path fill="#d2d5d2" d="M107.718 44.963c0 5.537-4.362 9.9-9.9 9.9-5.536 0-9.898-4.363-9.898-9.9s4.362-9.899 9.899-9.899c5.62 0 9.983 4.362 9.9 9.9zM88.003 32.715c0-1.258-1.09-2.349-2.432-2.349-1.259 0-2.433 1.09-2.433 2.35V68.62c0 1.258 1.258 2.35 2.433 2.35 1.258 0 2.432-1.092 2.432-2.35V55.953c2.601 2.35 6.125 3.775 9.9 3.775 8.221 0 14.849-6.627 14.849-14.765 0-8.221-6.544-14.849-14.85-14.849-3.774 0-7.298 1.426-9.899 3.775z"/></g><g><path fill="#d2d5d2" d="M154.782 42.279v14.849c0 1.258-1.175 2.349-2.433 2.349-1.342 0-2.433-1.091-2.433-2.35V32.716c0-1.259 1.175-2.35 2.433-2.35 1.175 0 2.349 1.007 2.433 2.266 2.013-1.51 4.614-2.433 7.382-2.433 1.51 0 2.685 1.174 2.685 2.433 0 1.342-1.174 2.517-2.685 2.517-3.775.084-7.382 1.426-7.382 7.13z"/></g><g><path fill="#d2d5d2" d="M171.896 30.366c-1.342 0-2.433 1.09-2.433 2.35v24.496c0 1.258 1.175 2.349 2.433 2.349 1.175 0 2.433-1.09 2.433-2.35V32.716c0-1.258-1.175-2.349-2.433-2.349z"/></g><g><path fill="#d2d5d2" d="M193.205 54.862c-5.537 0-9.9-4.362-9.9-9.899 0-5.537 4.363-9.9 9.9-9.9s9.9 4.363 9.9 9.9-4.363 9.9-9.9 9.9zm9.9-20.889c-2.685-2.349-6.125-3.775-9.9-3.775-8.222 0-14.85 6.627-14.85 14.765 0 8.222 6.544 14.85 14.85 14.85 3.775 0 7.215-1.427 9.9-3.776v1.174c0 1.259 1.09 2.35 2.432 2.35 1.258 0 2.433-1.091 2.433-2.35V32.715c0-1.259-1.259-2.35-2.433-2.35-1.258 0-2.433 1.091-2.433 2.35z"/></g><g><path fill="#d2d5d2" d="M232.886 42.614c0-4.11-3.523-7.634-7.634-7.634-3.943 0-7.634 1.594-7.634 7.382v14.85c0 1.258-1.175 2.348-2.433 2.348-1.343 0-2.433-1.09-2.433-2.349V32.715c0-1.259 1.174-2.35 2.433-2.35 1.174 0 2.349 1.007 2.433 2.266 2.097-1.594 4.698-2.433 7.55-2.433 6.627 0 12.584 5.201 12.584 11.745V57.21c0 1.259-1.175 2.35-2.433 2.35-1.342 0-2.433-1.091-2.433-2.35z"/></g><g><path fill="#d2d5d2" d="M42.785 35.064c4.447 0 8.138 2.852 9.396 6.879H33.305c1.259-4.027 4.95-6.88 9.48-6.88zm14.765 9.06c-.084-7.55-6.795-13.926-14.765-13.926-8.305 0-14.849 6.627-14.849 14.765 0 8.305 6.628 14.85 14.85 14.85 3.942 0 7.633-1.511 10.318-4.196.503-.42.839-1.174.839-1.845 0-1.342-1.175-2.433-2.433-2.433-.755 0-1.426.42-1.93 1.007-1.677 1.761-4.11 2.6-6.71 2.6-4.95 0-8.977-3.355-9.816-8.053h22.399c.084 0 .168 0 .252-.084 1.007-.42 1.845-1.427 1.845-2.685z"/></g><g><path fill="#d2d5d2" d="M131.04 35.064c4.447 0 8.138 2.852 9.396 6.879H121.56c1.259-4.027 4.95-6.88 9.48-6.88zm14.765 9.06c-.083-7.55-6.879-13.926-14.765-13.926-8.305 0-14.849 6.627-14.849 14.765 0 8.305 6.628 14.85 14.85 14.85 3.942 0 7.634-1.511 10.318-4.196.503-.42.839-1.174.839-1.845 0-1.342-1.174-2.433-2.433-2.433-.755 0-1.426.42-1.93 1.007-1.677 1.761-4.11 2.6-6.71 2.6-4.95 0-8.977-3.355-9.816-8.053h22.567c1.007-.42 1.93-1.51 1.93-2.769z"/></g><g><path fill="#d2d5d2" d="M242.953 59.56c-.252 0-.42-.167-.42-.419v-4.11h-.922c-.252 0-.42-.168-.42-.42s.168-.42.42-.42h2.684c.252 0 .42.168.42.42s-.168.42-.42.42h-.922v4.11c0 .252-.168.42-.42.42z"/></g><g><path fill="#d2d5d2" d="M247.735 59.56c-.252 0-.336-.167-.42-.335l-1.174-3.356v3.272c0 .252-.168.42-.42.42-.251 0-.419-.168-.419-.42V54.78c0-.336.252-.588.587-.588a.63.63 0 0 1 .588.42l1.174 3.44 1.175-3.44a.63.63 0 0 1 .587-.42c.335 0 .587.252.587.588v4.362c0 .252-.168.42-.42.42-.251 0-.419-.168-.419-.42V55.87c-.168.504-.42 1.343-.67 2.014-.42 1.342-.504 1.342-.504 1.342.084.252-.084.335-.252.335z"/></g></g></g></g></svg>