<svg id="mail" xmlns="http://www.w3.org/2000/svg" width="42.807" height="29.43" viewBox="0 0 42.807 29.43">
  <g id="Group_110" data-name="Group 110" transform="translate(28.376 5.426)">
    <g id="Group_109" data-name="Group 109">
      <path id="Path_133" data-name="Path 133" d="M339.392,154.4l14.431,9.123V144.9Z" transform="translate(-339.392 -144.896)" fill="#d2d5d2"/>
    </g>
  </g>
  <g id="Group_112" data-name="Group 112" transform="translate(0 5.426)">
    <g id="Group_111" data-name="Group 111">
      <path id="Path_134" data-name="Path 134" d="M0,144.9v18.632L14.431,154.4Z" transform="translate(0 -144.896)" fill="#d2d5d2"/>
    </g>
  </g>
  <g id="Group_114" data-name="Group 114" transform="translate(0.08)">
    <g id="Group_113" data-name="Group 113">
      <path id="Path_135" data-name="Path 135" d="M41.011,80H3.555a2.642,2.642,0,0,0-2.6,2.277L22.283,96.326,43.607,82.277A2.642,2.642,0,0,0,41.011,80Z" transform="translate(-0.96 -80)" fill="#d2d5d2"/>
    </g>
  </g>
  <g id="Group_116" data-name="Group 116" transform="translate(0.086 16.548)">
    <g id="Group_115" data-name="Group 115">
      <path id="Path_136" data-name="Path 136" d="M26.863,277.923l-3.786,2.494a1.344,1.344,0,0,1-1.471,0l-3.786-2.5-16.8,10.624a2.638,2.638,0,0,0,2.59,2.258H41.07a2.638,2.638,0,0,0,2.59-2.258Z" transform="translate(-1.024 -277.92)" fill="#d2d5d2"/>
    </g>
  </g>
</svg>
