<svg xmlns="http://www.w3.org/2000/svg" width="144" height="62" viewBox="0 0 144 62"><g><g><g><g><path fill="#d2d5d2" d="M132.23 12.423a.94.94 0 0 0-.938-.939h-1.281a.94.94 0 0 0-.939.939V44.73l-27.546-32.91a.935.935 0 0 0-.719-.336h-1.383a.94.94 0 0 0-.938.939v36.581c0 .517.42.938.938.938h1.28a.94.94 0 0 0 .94-.938V16.696l27.545 32.91c.18.214.44.336.72.336h1.383a.94.94 0 0 0 .938-.938V12.423zm-78.962 0a.94.94 0 0 0-.939-.939h-1.485a.936.936 0 0 0-.83.5L32.35 45.504 14.735 11.986a.936.936 0 0 0-.83-.502h-1.538a.94.94 0 0 0-.938.939v36.581c0 .517.42.938.938.938h1.23a.94.94 0 0 0 .938-.938v-30.83l16.42 31.266c.162.31.48.502.83.502h1.127c.35 0 .668-.192.83-.502l16.42-31.265v30.829c0 .517.42.938.938.938h1.23a.94.94 0 0 0 .938-.938zm24.776 34.515H63.97v-32.45h11.84c3.577 0 6.25.598 7.943 1.778 1.608 1.122 2.39 2.798 2.39 5.122 0 2.3-.77 3.978-2.355 5.134-1.512 1.102-3.698 1.804-6.63 1.804h-4.57a1.511 1.511 0 0 0 .03 3.021h6.701c3.266.047 5.866.76 7.726 2.122 1.861 1.362 2.766 3.21 2.766 5.647 0 5.264-3.849 7.822-11.767 7.822zm6.967-17.695c.773-.428 4.342-2.206 4.342-7.957 0-3.14-1.209-5.603-3.593-7.32-2.288-1.647-5.55-2.482-9.694-2.482H61.752a.94.94 0 0 0-.939.939v36.581c0 .517.42.938.939.938h16.496c4.723 0 8.38-.903 10.87-2.685 2.59-1.852 3.902-4.574 3.902-8.09 0-2.803-.891-5.136-2.65-6.933-1.066-1.089-2.697-2.323-5.359-2.99z"/></g></g><g><g><path fill="#d2d5d2" d="M142.151.002c-.416 0-.81.165-1.104.459-.294.293-.46.68-.46 1.096 0 .101.015.208.036.31.015.1.044.192.086.293.037.093.086.179.144.265a1.561 1.561 0 0 0 1.6.667c.099-.022.2-.05.292-.093a1.18 1.18 0 0 0 .266-.144c.086-.057.165-.121.237-.194.071-.07.143-.15.2-.236.051-.086.1-.172.144-.265a1.539 1.539 0 0 0 .114-.603 1.532 1.532 0 0 0-.114-.595c-.043-.093-.086-.186-.144-.265a1.231 1.231 0 0 0-.2-.236A1.542 1.542 0 0 0 142.15 0z"/></g></g><g><path fill="#d2d5d2" d="M142.78 7.888l-1.255-.003a.934.934 0 0 0-.935.935v47.973c0 .823-.667 1.49-1.49 1.49H4.607a1.49 1.49 0 0 1-1.489-1.49V4.608c0-.823.667-1.49 1.49-1.49h130.285a.935.935 0 0 0 .935-.934V.935a.935.935 0 0 0-.935-.935H4.607A4.608 4.608 0 0 0 0 4.608v52.185a4.608 4.608 0 0 0 4.607 4.608H139.1a4.608 4.608 0 0 0 4.608-4.608V8.823a.932.932 0 0 0-.929-.935z"/></g></g></g></svg>