<svg xmlns="http://www.w3.org/2000/svg" width="462.638" height="462.638" viewBox="0 0 462.638 462.638">
  <g id="pattern" transform="translate(-850 -507)" opacity="0.203">
    <path id="Path_4" data-name="Path 4" d="M1026.928,196.5a3.409,3.409,0,1,1-3.409-3.41A3.409,3.409,0,0,1,1026.928,196.5Zm-3.409,20.458a3.41,3.41,0,1,0,3.409,3.41A3.41,3.41,0,0,0,1023.519,216.962Zm23.868,0a3.41,3.41,0,1,0,3.41,3.41A3.409,3.409,0,0,0,1047.387,216.962Zm23.869,0a3.41,3.41,0,1,0,3.41,3.41A3.41,3.41,0,0,0,1071.256,216.962Zm23.869,0a3.41,3.41,0,1,0,3.41,3.41A3.41,3.41,0,0,0,1095.125,216.962Zm23.868,0a3.41,3.41,0,1,0,3.41,3.41A3.41,3.41,0,0,0,1118.993,216.962Zm23.869,0a3.41,3.41,0,1,0,3.41,3.41A3.41,3.41,0,0,0,1142.862,216.962Zm23.869,0a3.41,3.41,0,1,0,3.41,3.41A3.41,3.41,0,0,0,1166.731,216.962Zm23.869,0a3.41,3.41,0,1,0,3.409,3.41A3.41,3.41,0,0,0,1190.6,216.962Zm-143.213-23.868a3.41,3.41,0,1,0,3.41,3.41A3.409,3.409,0,0,0,1047.387,193.094Zm23.869,0a3.41,3.41,0,1,0,3.41,3.41A3.41,3.41,0,0,0,1071.256,193.094Zm23.869,0a3.41,3.41,0,1,0,3.41,3.41A3.41,3.41,0,0,0,1095.125,193.094Zm23.868,0a3.41,3.41,0,1,0,3.41,3.41A3.409,3.409,0,0,0,1118.993,193.094Zm23.869,0a3.41,3.41,0,1,0,3.41,3.41A3.41,3.41,0,0,0,1142.862,193.094Zm23.869,0a3.41,3.41,0,1,0,3.41,3.41A3.41,3.41,0,0,0,1166.731,193.094Zm23.869,0a3.41,3.41,0,1,0,3.409,3.41A3.409,3.409,0,0,0,1190.6,193.094Zm-167.081,47.737a3.41,3.41,0,1,0,3.409,3.41A3.41,3.41,0,0,0,1023.519,240.831Zm0,23.869a3.41,3.41,0,1,0,3.409,3.41A3.41,3.41,0,0,0,1023.519,264.7Zm23.868,0a3.41,3.41,0,1,0,3.41,3.41A3.409,3.409,0,0,0,1047.387,264.7Zm23.869,0a3.41,3.41,0,1,0,3.41,3.41A3.41,3.41,0,0,0,1071.256,264.7Zm23.869,0a3.41,3.41,0,1,0,3.41,3.41A3.41,3.41,0,0,0,1095.125,264.7Zm23.868,0a3.41,3.41,0,1,0,3.41,3.41A3.41,3.41,0,0,0,1118.993,264.7Zm23.869,0a3.41,3.41,0,1,0,3.41,3.41A3.41,3.41,0,0,0,1142.862,264.7Zm23.869,0a3.41,3.41,0,1,0,3.41,3.41A3.41,3.41,0,0,0,1166.731,264.7Zm23.869,0a3.41,3.41,0,1,0,3.409,3.41A3.41,3.41,0,0,0,1190.6,264.7Zm-143.213-23.869a3.41,3.41,0,1,0,3.41,3.41A3.41,3.41,0,0,0,1047.387,240.831Zm23.869,0a3.41,3.41,0,1,0,3.41,3.41A3.41,3.41,0,0,0,1071.256,240.831Zm23.869,0a3.41,3.41,0,1,0,3.41,3.41A3.41,3.41,0,0,0,1095.125,240.831Zm23.868,0a3.41,3.41,0,1,0,3.41,3.41A3.41,3.41,0,0,0,1118.993,240.831Zm23.869,0a3.41,3.41,0,1,0,3.41,3.41A3.41,3.41,0,0,0,1142.862,240.831Zm23.869,0a3.41,3.41,0,1,0,3.41,3.41A3.41,3.41,0,0,0,1166.731,240.831Zm23.869,0a3.41,3.41,0,1,0,3.409,3.41A3.41,3.41,0,0,0,1190.6,240.831Zm-167.081,47.738a3.41,3.41,0,1,0,3.409,3.409A3.409,3.409,0,0,0,1023.519,288.569Zm0,23.868a3.41,3.41,0,1,0,3.409,3.41A3.41,3.41,0,0,0,1023.519,312.437Zm23.868,0a3.41,3.41,0,1,0,3.41,3.41A3.409,3.409,0,0,0,1047.387,312.437Zm23.869,0a3.41,3.41,0,1,0,3.41,3.41A3.41,3.41,0,0,0,1071.256,312.437Zm23.869,0a3.41,3.41,0,1,0,3.41,3.41A3.41,3.41,0,0,0,1095.125,312.437Zm23.868,0a3.41,3.41,0,1,0,3.41,3.41A3.41,3.41,0,0,0,1118.993,312.437Zm23.869,0a3.41,3.41,0,1,0,3.41,3.41A3.41,3.41,0,0,0,1142.862,312.437Zm23.869,0a3.41,3.41,0,1,0,3.41,3.41A3.41,3.41,0,0,0,1166.731,312.437Zm23.869,0a3.41,3.41,0,1,0,3.409,3.41A3.41,3.41,0,0,0,1190.6,312.437Zm-143.213-23.868a3.41,3.41,0,1,0,3.41,3.409A3.409,3.409,0,0,0,1047.387,288.569Zm23.869,0a3.41,3.41,0,1,0,3.41,3.409A3.41,3.41,0,0,0,1071.256,288.569Zm23.869,0a3.41,3.41,0,1,0,3.41,3.409A3.41,3.41,0,0,0,1095.125,288.569Zm23.868,0a3.41,3.41,0,1,0,3.41,3.409A3.409,3.409,0,0,0,1118.993,288.569Zm23.869,0a3.41,3.41,0,1,0,3.41,3.409A3.41,3.41,0,0,0,1142.862,288.569Zm23.869,0a3.41,3.41,0,1,0,3.41,3.409A3.409,3.409,0,0,0,1166.731,288.569Zm23.869,0a3.41,3.41,0,1,0,3.409,3.409A3.409,3.409,0,0,0,1190.6,288.569Zm-167.081,47.737a3.41,3.41,0,1,0,3.409,3.41A3.41,3.41,0,0,0,1023.519,336.306Zm0,23.869a3.41,3.41,0,1,0,3.409,3.41A3.409,3.409,0,0,0,1023.519,360.175Zm23.868,0a3.41,3.41,0,1,0,3.41,3.41A3.409,3.409,0,0,0,1047.387,360.175Zm23.869,0a3.41,3.41,0,1,0,3.41,3.41A3.41,3.41,0,0,0,1071.256,360.175Zm23.869,0a3.41,3.41,0,1,0,3.41,3.41A3.41,3.41,0,0,0,1095.125,360.175Zm23.868,0a3.41,3.41,0,1,0,3.41,3.41A3.409,3.409,0,0,0,1118.993,360.175Zm23.869,0a3.41,3.41,0,1,0,3.41,3.41A3.41,3.41,0,0,0,1142.862,360.175Zm23.869,0a3.41,3.41,0,1,0,3.41,3.41A3.41,3.41,0,0,0,1166.731,360.175Zm23.869,0a3.41,3.41,0,1,0,3.409,3.41A3.409,3.409,0,0,0,1190.6,360.175Zm-143.213-23.869a3.41,3.41,0,1,0,3.41,3.41A3.41,3.41,0,0,0,1047.387,336.306Zm23.869,0a3.41,3.41,0,1,0,3.41,3.41A3.41,3.41,0,0,0,1071.256,336.306Zm23.869,0a3.41,3.41,0,1,0,3.41,3.41A3.41,3.41,0,0,0,1095.125,336.306Zm23.868,0a3.41,3.41,0,1,0,3.41,3.41A3.41,3.41,0,0,0,1118.993,336.306Zm23.869,0a3.41,3.41,0,1,0,3.41,3.41A3.41,3.41,0,0,0,1142.862,336.306Zm23.869,0a3.41,3.41,0,1,0,3.41,3.41A3.41,3.41,0,0,0,1166.731,336.306Zm23.869,0a3.41,3.41,0,1,0,3.409,3.41A3.41,3.41,0,0,0,1190.6,336.306Zm-167.081,47.738a3.41,3.41,0,1,0,3.409,3.409A3.409,3.409,0,0,0,1023.519,384.044Zm0,23.868a3.41,3.41,0,1,0,3.409,3.41A3.41,3.41,0,0,0,1023.519,407.912Zm23.868,0a3.41,3.41,0,1,0,3.41,3.41A3.41,3.41,0,0,0,1047.387,407.912Zm23.869,0a3.41,3.41,0,1,0,3.41,3.41A3.41,3.41,0,0,0,1071.256,407.912Zm23.869,0a3.41,3.41,0,1,0,3.41,3.41A3.41,3.41,0,0,0,1095.125,407.912Zm23.868,0a3.41,3.41,0,1,0,3.41,3.41A3.41,3.41,0,0,0,1118.993,407.912Zm23.869,0a3.41,3.41,0,1,0,3.41,3.41A3.41,3.41,0,0,0,1142.862,407.912Zm23.869,0a3.41,3.41,0,1,0,3.41,3.41A3.41,3.41,0,0,0,1166.731,407.912Zm23.869,0a3.41,3.41,0,1,0,3.409,3.41A3.41,3.41,0,0,0,1190.6,407.912Zm-143.213-23.868a3.41,3.41,0,1,0,3.41,3.409A3.409,3.409,0,0,0,1047.387,384.044Zm23.869,0a3.41,3.41,0,1,0,3.41,3.409A3.41,3.41,0,0,0,1071.256,384.044Zm23.869,0a3.41,3.41,0,1,0,3.41,3.409A3.41,3.41,0,0,0,1095.125,384.044Zm23.868,0a3.41,3.41,0,1,0,3.41,3.409A3.409,3.409,0,0,0,1118.993,384.044Zm23.869,0a3.41,3.41,0,1,0,3.41,3.409A3.41,3.41,0,0,0,1142.862,384.044Zm23.869,0a3.41,3.41,0,1,0,3.41,3.409A3.409,3.409,0,0,0,1166.731,384.044Zm23.869,0a3.41,3.41,0,1,0,3.409,3.409A3.409,3.409,0,0,0,1190.6,384.044Zm23.868-167.082a3.41,3.41,0,1,0,3.41,3.41A3.41,3.41,0,0,0,1214.468,216.962Zm23.869,0a3.41,3.41,0,1,0,3.41,3.41A3.41,3.41,0,0,0,1238.337,216.962Zm-23.869-23.868a3.41,3.41,0,1,0,3.41,3.41A3.409,3.409,0,0,0,1214.468,193.094Zm23.869,0a3.41,3.41,0,1,0,3.41,3.41A3.41,3.41,0,0,0,1238.337,193.094ZM1214.468,264.7a3.41,3.41,0,1,0,3.41,3.41A3.41,3.41,0,0,0,1214.468,264.7Zm23.869,0a3.41,3.41,0,1,0,3.41,3.41A3.41,3.41,0,0,0,1238.337,264.7Zm-23.869-23.869a3.41,3.41,0,1,0,3.41,3.41A3.41,3.41,0,0,0,1214.468,240.831Zm23.869,0a3.41,3.41,0,1,0,3.41,3.41A3.41,3.41,0,0,0,1238.337,240.831Zm-23.869,71.606a3.41,3.41,0,1,0,3.41,3.41A3.41,3.41,0,0,0,1214.468,312.437Zm23.869,0a3.41,3.41,0,1,0,3.41,3.41A3.41,3.41,0,0,0,1238.337,312.437Zm-23.869-23.868a3.41,3.41,0,1,0,3.41,3.409A3.409,3.409,0,0,0,1214.468,288.569Zm23.869,0a3.41,3.41,0,1,0,3.41,3.409A3.41,3.41,0,0,0,1238.337,288.569Zm-23.869,71.606a3.41,3.41,0,1,0,3.41,3.41A3.409,3.409,0,0,0,1214.468,360.175Zm23.869,0a3.41,3.41,0,1,0,3.41,3.41A3.41,3.41,0,0,0,1238.337,360.175Zm-23.869-23.869a3.41,3.41,0,1,0,3.41,3.41A3.41,3.41,0,0,0,1214.468,336.306Zm23.869,0a3.41,3.41,0,1,0,3.41,3.41A3.41,3.41,0,0,0,1238.337,336.306Zm-23.869,71.606a3.41,3.41,0,1,0,3.41,3.41A3.41,3.41,0,0,0,1214.468,407.912Zm23.869,0a3.41,3.41,0,1,0,3.41,3.41A3.41,3.41,0,0,0,1238.337,407.912Zm-23.869-23.868a3.41,3.41,0,1,0,3.41,3.409A3.409,3.409,0,0,0,1214.468,384.044Zm23.869,0a3.41,3.41,0,1,0,3.41,3.409A3.41,3.41,0,0,0,1238.337,384.044Z" transform="translate(-170.109 554.906)" fill="#d2d5d2"/>
    <path id="Path_7" data-name="Path 7" d="M1026.928,196.5a3.409,3.409,0,1,1-3.409-3.41A3.409,3.409,0,0,1,1026.928,196.5Zm-3.409,20.458a3.41,3.41,0,1,0,3.409,3.41A3.41,3.41,0,0,0,1023.519,216.962Zm23.868,0a3.41,3.41,0,1,0,3.41,3.41A3.409,3.409,0,0,0,1047.387,216.962Zm23.869,0a3.41,3.41,0,1,0,3.41,3.41A3.41,3.41,0,0,0,1071.256,216.962Zm23.869,0a3.41,3.41,0,1,0,3.41,3.41A3.41,3.41,0,0,0,1095.125,216.962Zm23.868,0a3.41,3.41,0,1,0,3.41,3.41A3.41,3.41,0,0,0,1118.993,216.962Zm23.869,0a3.41,3.41,0,1,0,3.41,3.41A3.41,3.41,0,0,0,1142.862,216.962Zm23.869,0a3.41,3.41,0,1,0,3.41,3.41A3.41,3.41,0,0,0,1166.731,216.962Zm23.869,0a3.41,3.41,0,1,0,3.409,3.41A3.41,3.41,0,0,0,1190.6,216.962Zm-143.213-23.868a3.41,3.41,0,1,0,3.41,3.41A3.409,3.409,0,0,0,1047.387,193.094Zm23.869,0a3.41,3.41,0,1,0,3.41,3.41A3.41,3.41,0,0,0,1071.256,193.094Zm23.869,0a3.41,3.41,0,1,0,3.41,3.41A3.41,3.41,0,0,0,1095.125,193.094Zm23.868,0a3.41,3.41,0,1,0,3.41,3.41A3.409,3.409,0,0,0,1118.993,193.094Zm23.869,0a3.41,3.41,0,1,0,3.41,3.41A3.41,3.41,0,0,0,1142.862,193.094Zm23.869,0a3.41,3.41,0,1,0,3.41,3.41A3.41,3.41,0,0,0,1166.731,193.094Zm23.869,0a3.41,3.41,0,1,0,3.409,3.41A3.409,3.409,0,0,0,1190.6,193.094Zm-167.081,47.737a3.41,3.41,0,1,0,3.409,3.41A3.41,3.41,0,0,0,1023.519,240.831Zm0,23.869a3.41,3.41,0,1,0,3.409,3.41A3.41,3.41,0,0,0,1023.519,264.7Zm23.868,0a3.41,3.41,0,1,0,3.41,3.41A3.409,3.409,0,0,0,1047.387,264.7Zm23.869,0a3.41,3.41,0,1,0,3.41,3.41A3.41,3.41,0,0,0,1071.256,264.7Zm23.869,0a3.41,3.41,0,1,0,3.41,3.41A3.41,3.41,0,0,0,1095.125,264.7Zm23.868,0a3.41,3.41,0,1,0,3.41,3.41A3.41,3.41,0,0,0,1118.993,264.7Zm23.869,0a3.41,3.41,0,1,0,3.41,3.41A3.41,3.41,0,0,0,1142.862,264.7Zm23.869,0a3.41,3.41,0,1,0,3.41,3.41A3.41,3.41,0,0,0,1166.731,264.7Zm23.869,0a3.41,3.41,0,1,0,3.409,3.41A3.41,3.41,0,0,0,1190.6,264.7Zm-143.213-23.869a3.41,3.41,0,1,0,3.41,3.41A3.41,3.41,0,0,0,1047.387,240.831Zm23.869,0a3.41,3.41,0,1,0,3.41,3.41A3.41,3.41,0,0,0,1071.256,240.831Zm23.869,0a3.41,3.41,0,1,0,3.41,3.41A3.41,3.41,0,0,0,1095.125,240.831Zm23.868,0a3.41,3.41,0,1,0,3.41,3.41A3.41,3.41,0,0,0,1118.993,240.831Zm23.869,0a3.41,3.41,0,1,0,3.41,3.41A3.41,3.41,0,0,0,1142.862,240.831Zm23.869,0a3.41,3.41,0,1,0,3.41,3.41A3.41,3.41,0,0,0,1166.731,240.831Zm23.869,0a3.41,3.41,0,1,0,3.409,3.41A3.41,3.41,0,0,0,1190.6,240.831Zm-167.081,47.738a3.41,3.41,0,1,0,3.409,3.409A3.409,3.409,0,0,0,1023.519,288.569Zm0,23.868a3.41,3.41,0,1,0,3.409,3.41A3.41,3.41,0,0,0,1023.519,312.437Zm23.868,0a3.41,3.41,0,1,0,3.41,3.41A3.409,3.409,0,0,0,1047.387,312.437Zm23.869,0a3.41,3.41,0,1,0,3.41,3.41A3.41,3.41,0,0,0,1071.256,312.437Zm23.869,0a3.41,3.41,0,1,0,3.41,3.41A3.41,3.41,0,0,0,1095.125,312.437Zm23.868,0a3.41,3.41,0,1,0,3.41,3.41A3.41,3.41,0,0,0,1118.993,312.437Zm23.869,0a3.41,3.41,0,1,0,3.41,3.41A3.41,3.41,0,0,0,1142.862,312.437Zm23.869,0a3.41,3.41,0,1,0,3.41,3.41A3.41,3.41,0,0,0,1166.731,312.437Zm23.869,0a3.41,3.41,0,1,0,3.409,3.41A3.41,3.41,0,0,0,1190.6,312.437Zm-143.213-23.868a3.41,3.41,0,1,0,3.41,3.409A3.409,3.409,0,0,0,1047.387,288.569Zm23.869,0a3.41,3.41,0,1,0,3.41,3.409A3.41,3.41,0,0,0,1071.256,288.569Zm23.869,0a3.41,3.41,0,1,0,3.41,3.409A3.41,3.41,0,0,0,1095.125,288.569Zm23.868,0a3.41,3.41,0,1,0,3.41,3.409A3.409,3.409,0,0,0,1118.993,288.569Zm23.869,0a3.41,3.41,0,1,0,3.41,3.409A3.41,3.41,0,0,0,1142.862,288.569Zm23.869,0a3.41,3.41,0,1,0,3.41,3.409A3.409,3.409,0,0,0,1166.731,288.569Zm23.869,0a3.41,3.41,0,1,0,3.409,3.409A3.409,3.409,0,0,0,1190.6,288.569Zm-167.081,47.737a3.41,3.41,0,1,0,3.409,3.41A3.41,3.41,0,0,0,1023.519,336.306Zm0,23.869a3.41,3.41,0,1,0,3.409,3.41A3.409,3.409,0,0,0,1023.519,360.175Zm23.868,0a3.41,3.41,0,1,0,3.41,3.41A3.409,3.409,0,0,0,1047.387,360.175Zm23.869,0a3.41,3.41,0,1,0,3.41,3.41A3.41,3.41,0,0,0,1071.256,360.175Zm23.869,0a3.41,3.41,0,1,0,3.41,3.41A3.41,3.41,0,0,0,1095.125,360.175Zm23.868,0a3.41,3.41,0,1,0,3.41,3.41A3.409,3.409,0,0,0,1118.993,360.175Zm23.869,0a3.41,3.41,0,1,0,3.41,3.41A3.41,3.41,0,0,0,1142.862,360.175Zm23.869,0a3.41,3.41,0,1,0,3.41,3.41A3.41,3.41,0,0,0,1166.731,360.175Zm23.869,0a3.41,3.41,0,1,0,3.409,3.41A3.409,3.409,0,0,0,1190.6,360.175Zm-143.213-23.869a3.41,3.41,0,1,0,3.41,3.41A3.41,3.41,0,0,0,1047.387,336.306Zm23.869,0a3.41,3.41,0,1,0,3.41,3.41A3.41,3.41,0,0,0,1071.256,336.306Zm23.869,0a3.41,3.41,0,1,0,3.41,3.41A3.41,3.41,0,0,0,1095.125,336.306Zm23.868,0a3.41,3.41,0,1,0,3.41,3.41A3.41,3.41,0,0,0,1118.993,336.306Zm23.869,0a3.41,3.41,0,1,0,3.41,3.41A3.41,3.41,0,0,0,1142.862,336.306Zm23.869,0a3.41,3.41,0,1,0,3.41,3.41A3.41,3.41,0,0,0,1166.731,336.306Zm23.869,0a3.41,3.41,0,1,0,3.409,3.41A3.41,3.41,0,0,0,1190.6,336.306Zm-167.081,47.738a3.41,3.41,0,1,0,3.409,3.409A3.409,3.409,0,0,0,1023.519,384.044Zm0,23.868a3.41,3.41,0,1,0,3.409,3.41A3.41,3.41,0,0,0,1023.519,407.912Zm23.868,0a3.41,3.41,0,1,0,3.41,3.41A3.41,3.41,0,0,0,1047.387,407.912Zm23.869,0a3.41,3.41,0,1,0,3.41,3.41A3.41,3.41,0,0,0,1071.256,407.912Zm23.869,0a3.41,3.41,0,1,0,3.41,3.41A3.41,3.41,0,0,0,1095.125,407.912Zm23.868,0a3.41,3.41,0,1,0,3.41,3.41A3.41,3.41,0,0,0,1118.993,407.912Zm23.869,0a3.41,3.41,0,1,0,3.41,3.41A3.41,3.41,0,0,0,1142.862,407.912Zm23.869,0a3.41,3.41,0,1,0,3.41,3.41A3.41,3.41,0,0,0,1166.731,407.912Zm23.869,0a3.41,3.41,0,1,0,3.409,3.41A3.41,3.41,0,0,0,1190.6,407.912Zm-143.213-23.868a3.41,3.41,0,1,0,3.41,3.409A3.409,3.409,0,0,0,1047.387,384.044Zm23.869,0a3.41,3.41,0,1,0,3.41,3.409A3.41,3.41,0,0,0,1071.256,384.044Zm23.869,0a3.41,3.41,0,1,0,3.41,3.409A3.41,3.41,0,0,0,1095.125,384.044Zm23.868,0a3.41,3.41,0,1,0,3.41,3.409A3.409,3.409,0,0,0,1118.993,384.044Zm23.869,0a3.41,3.41,0,1,0,3.41,3.409A3.41,3.41,0,0,0,1142.862,384.044Zm23.869,0a3.41,3.41,0,1,0,3.41,3.409A3.409,3.409,0,0,0,1166.731,384.044Zm23.869,0a3.41,3.41,0,1,0,3.409,3.409A3.409,3.409,0,0,0,1190.6,384.044Zm23.868-167.082a3.41,3.41,0,1,0,3.41,3.41A3.41,3.41,0,0,0,1214.468,216.962Zm23.869,0a3.41,3.41,0,1,0,3.41,3.41A3.41,3.41,0,0,0,1238.337,216.962Zm-23.869-23.868a3.41,3.41,0,1,0,3.41,3.41A3.409,3.409,0,0,0,1214.468,193.094Zm23.869,0a3.41,3.41,0,1,0,3.41,3.41A3.41,3.41,0,0,0,1238.337,193.094ZM1214.468,264.7a3.41,3.41,0,1,0,3.41,3.41A3.41,3.41,0,0,0,1214.468,264.7Zm23.869,0a3.41,3.41,0,1,0,3.41,3.41A3.41,3.41,0,0,0,1238.337,264.7Zm-23.869-23.869a3.41,3.41,0,1,0,3.41,3.41A3.41,3.41,0,0,0,1214.468,240.831Zm23.869,0a3.41,3.41,0,1,0,3.41,3.41A3.41,3.41,0,0,0,1238.337,240.831Zm-23.869,71.606a3.41,3.41,0,1,0,3.41,3.41A3.41,3.41,0,0,0,1214.468,312.437Zm23.869,0a3.41,3.41,0,1,0,3.41,3.41A3.41,3.41,0,0,0,1238.337,312.437Zm-23.869-23.868a3.41,3.41,0,1,0,3.41,3.409A3.409,3.409,0,0,0,1214.468,288.569Zm23.869,0a3.41,3.41,0,1,0,3.41,3.409A3.41,3.41,0,0,0,1238.337,288.569Zm-23.869,71.606a3.41,3.41,0,1,0,3.41,3.41A3.409,3.409,0,0,0,1214.468,360.175Zm23.869,0a3.41,3.41,0,1,0,3.41,3.41A3.41,3.41,0,0,0,1238.337,360.175Zm-23.869-23.869a3.41,3.41,0,1,0,3.41,3.41A3.41,3.41,0,0,0,1214.468,336.306Zm23.869,0a3.41,3.41,0,1,0,3.41,3.41A3.41,3.41,0,0,0,1238.337,336.306Zm-23.869,71.606a3.41,3.41,0,1,0,3.41,3.41A3.41,3.41,0,0,0,1214.468,407.912Zm23.869,0a3.41,3.41,0,1,0,3.41,3.41A3.41,3.41,0,0,0,1238.337,407.912Zm-23.869-23.868a3.41,3.41,0,1,0,3.41,3.409A3.409,3.409,0,0,0,1214.468,384.044Zm23.869,0a3.41,3.41,0,1,0,3.41,3.409A3.41,3.41,0,0,0,1238.337,384.044Z" transform="translate(70.891 554.906)" fill="#d2d5d2"/>
    <path id="Path_5" data-name="Path 5" d="M1026.928,196.5a3.409,3.409,0,1,1-3.409-3.41A3.409,3.409,0,0,1,1026.928,196.5Zm-3.409,20.458a3.41,3.41,0,1,0,3.409,3.41A3.41,3.41,0,0,0,1023.519,216.962Zm23.868,0a3.41,3.41,0,1,0,3.41,3.41A3.409,3.409,0,0,0,1047.387,216.962Zm23.869,0a3.41,3.41,0,1,0,3.41,3.41A3.41,3.41,0,0,0,1071.256,216.962Zm23.869,0a3.41,3.41,0,1,0,3.41,3.41A3.41,3.41,0,0,0,1095.125,216.962Zm23.868,0a3.41,3.41,0,1,0,3.41,3.41A3.41,3.41,0,0,0,1118.993,216.962Zm23.869,0a3.41,3.41,0,1,0,3.41,3.41A3.41,3.41,0,0,0,1142.862,216.962Zm23.869,0a3.41,3.41,0,1,0,3.41,3.41A3.41,3.41,0,0,0,1166.731,216.962Zm23.869,0a3.41,3.41,0,1,0,3.409,3.41A3.41,3.41,0,0,0,1190.6,216.962Zm-143.213-23.868a3.41,3.41,0,1,0,3.41,3.41A3.409,3.409,0,0,0,1047.387,193.094Zm23.869,0a3.41,3.41,0,1,0,3.41,3.41A3.41,3.41,0,0,0,1071.256,193.094Zm23.869,0a3.41,3.41,0,1,0,3.41,3.41A3.41,3.41,0,0,0,1095.125,193.094Zm23.868,0a3.41,3.41,0,1,0,3.41,3.41A3.409,3.409,0,0,0,1118.993,193.094Zm23.869,0a3.41,3.41,0,1,0,3.41,3.41A3.41,3.41,0,0,0,1142.862,193.094Zm23.869,0a3.41,3.41,0,1,0,3.41,3.41A3.41,3.41,0,0,0,1166.731,193.094Zm23.869,0a3.41,3.41,0,1,0,3.409,3.41A3.409,3.409,0,0,0,1190.6,193.094Zm-167.081,47.737a3.41,3.41,0,1,0,3.409,3.41A3.41,3.41,0,0,0,1023.519,240.831Zm0,23.869a3.41,3.41,0,1,0,3.409,3.41A3.41,3.41,0,0,0,1023.519,264.7Zm23.868,0a3.41,3.41,0,1,0,3.41,3.41A3.409,3.409,0,0,0,1047.387,264.7Zm23.869,0a3.41,3.41,0,1,0,3.41,3.41A3.41,3.41,0,0,0,1071.256,264.7Zm23.869,0a3.41,3.41,0,1,0,3.41,3.41A3.41,3.41,0,0,0,1095.125,264.7Zm23.868,0a3.41,3.41,0,1,0,3.41,3.41A3.41,3.41,0,0,0,1118.993,264.7Zm23.869,0a3.41,3.41,0,1,0,3.41,3.41A3.41,3.41,0,0,0,1142.862,264.7Zm23.869,0a3.41,3.41,0,1,0,3.41,3.41A3.41,3.41,0,0,0,1166.731,264.7Zm23.869,0a3.41,3.41,0,1,0,3.409,3.41A3.41,3.41,0,0,0,1190.6,264.7Zm-143.213-23.869a3.41,3.41,0,1,0,3.41,3.41A3.41,3.41,0,0,0,1047.387,240.831Zm23.869,0a3.41,3.41,0,1,0,3.41,3.41A3.41,3.41,0,0,0,1071.256,240.831Zm23.869,0a3.41,3.41,0,1,0,3.41,3.41A3.41,3.41,0,0,0,1095.125,240.831Zm23.868,0a3.41,3.41,0,1,0,3.41,3.41A3.41,3.41,0,0,0,1118.993,240.831Zm23.869,0a3.41,3.41,0,1,0,3.41,3.41A3.41,3.41,0,0,0,1142.862,240.831Zm23.869,0a3.41,3.41,0,1,0,3.41,3.41A3.41,3.41,0,0,0,1166.731,240.831Zm23.869,0a3.41,3.41,0,1,0,3.409,3.41A3.41,3.41,0,0,0,1190.6,240.831Zm-167.081,47.738a3.41,3.41,0,1,0,3.409,3.409A3.409,3.409,0,0,0,1023.519,288.569Zm0,23.868a3.41,3.41,0,1,0,3.409,3.41A3.41,3.41,0,0,0,1023.519,312.437Zm23.868,0a3.41,3.41,0,1,0,3.41,3.41A3.409,3.409,0,0,0,1047.387,312.437Zm23.869,0a3.41,3.41,0,1,0,3.41,3.41A3.41,3.41,0,0,0,1071.256,312.437Zm23.869,0a3.41,3.41,0,1,0,3.41,3.41A3.41,3.41,0,0,0,1095.125,312.437Zm23.868,0a3.41,3.41,0,1,0,3.41,3.41A3.41,3.41,0,0,0,1118.993,312.437Zm23.869,0a3.41,3.41,0,1,0,3.41,3.41A3.41,3.41,0,0,0,1142.862,312.437Zm23.869,0a3.41,3.41,0,1,0,3.41,3.41A3.41,3.41,0,0,0,1166.731,312.437Zm23.869,0a3.41,3.41,0,1,0,3.409,3.41A3.41,3.41,0,0,0,1190.6,312.437Zm-143.213-23.868a3.41,3.41,0,1,0,3.41,3.409A3.409,3.409,0,0,0,1047.387,288.569Zm23.869,0a3.41,3.41,0,1,0,3.41,3.409A3.41,3.41,0,0,0,1071.256,288.569Zm23.869,0a3.41,3.41,0,1,0,3.41,3.409A3.41,3.41,0,0,0,1095.125,288.569Zm23.868,0a3.41,3.41,0,1,0,3.41,3.409A3.409,3.409,0,0,0,1118.993,288.569Zm23.869,0a3.41,3.41,0,1,0,3.41,3.409A3.41,3.41,0,0,0,1142.862,288.569Zm23.869,0a3.41,3.41,0,1,0,3.41,3.409A3.409,3.409,0,0,0,1166.731,288.569Zm23.869,0a3.41,3.41,0,1,0,3.409,3.409A3.409,3.409,0,0,0,1190.6,288.569Zm-167.081,47.737a3.41,3.41,0,1,0,3.409,3.41A3.41,3.41,0,0,0,1023.519,336.306Zm0,23.869a3.41,3.41,0,1,0,3.409,3.41A3.409,3.409,0,0,0,1023.519,360.175Zm23.868,0a3.41,3.41,0,1,0,3.41,3.41A3.409,3.409,0,0,0,1047.387,360.175Zm23.869,0a3.41,3.41,0,1,0,3.41,3.41A3.41,3.41,0,0,0,1071.256,360.175Zm23.869,0a3.41,3.41,0,1,0,3.41,3.41A3.41,3.41,0,0,0,1095.125,360.175Zm23.868,0a3.41,3.41,0,1,0,3.41,3.41A3.409,3.409,0,0,0,1118.993,360.175Zm23.869,0a3.41,3.41,0,1,0,3.41,3.41A3.41,3.41,0,0,0,1142.862,360.175Zm23.869,0a3.41,3.41,0,1,0,3.41,3.41A3.41,3.41,0,0,0,1166.731,360.175Zm23.869,0a3.41,3.41,0,1,0,3.409,3.41A3.409,3.409,0,0,0,1190.6,360.175Zm-143.213-23.869a3.41,3.41,0,1,0,3.41,3.41A3.41,3.41,0,0,0,1047.387,336.306Zm23.869,0a3.41,3.41,0,1,0,3.41,3.41A3.41,3.41,0,0,0,1071.256,336.306Zm23.869,0a3.41,3.41,0,1,0,3.41,3.41A3.41,3.41,0,0,0,1095.125,336.306Zm23.868,0a3.41,3.41,0,1,0,3.41,3.41A3.41,3.41,0,0,0,1118.993,336.306Zm23.869,0a3.41,3.41,0,1,0,3.41,3.41A3.41,3.41,0,0,0,1142.862,336.306Zm23.869,0a3.41,3.41,0,1,0,3.41,3.41A3.41,3.41,0,0,0,1166.731,336.306Zm23.869,0a3.41,3.41,0,1,0,3.409,3.41A3.41,3.41,0,0,0,1190.6,336.306Zm-167.081,47.738a3.41,3.41,0,1,0,3.409,3.409A3.409,3.409,0,0,0,1023.519,384.044Zm0,23.868a3.41,3.41,0,1,0,3.409,3.41A3.41,3.41,0,0,0,1023.519,407.912Zm23.868,0a3.41,3.41,0,1,0,3.41,3.41A3.41,3.41,0,0,0,1047.387,407.912Zm23.869,0a3.41,3.41,0,1,0,3.41,3.41A3.41,3.41,0,0,0,1071.256,407.912Zm23.869,0a3.41,3.41,0,1,0,3.41,3.41A3.41,3.41,0,0,0,1095.125,407.912Zm23.868,0a3.41,3.41,0,1,0,3.41,3.41A3.41,3.41,0,0,0,1118.993,407.912Zm23.869,0a3.41,3.41,0,1,0,3.41,3.41A3.41,3.41,0,0,0,1142.862,407.912Zm23.869,0a3.41,3.41,0,1,0,3.41,3.41A3.41,3.41,0,0,0,1166.731,407.912Zm23.869,0a3.41,3.41,0,1,0,3.409,3.41A3.41,3.41,0,0,0,1190.6,407.912Zm-143.213-23.868a3.41,3.41,0,1,0,3.41,3.409A3.409,3.409,0,0,0,1047.387,384.044Zm23.869,0a3.41,3.41,0,1,0,3.41,3.409A3.41,3.41,0,0,0,1071.256,384.044Zm23.869,0a3.41,3.41,0,1,0,3.41,3.409A3.41,3.41,0,0,0,1095.125,384.044Zm23.868,0a3.41,3.41,0,1,0,3.41,3.409A3.409,3.409,0,0,0,1118.993,384.044Zm23.869,0a3.41,3.41,0,1,0,3.41,3.409A3.41,3.41,0,0,0,1142.862,384.044Zm23.869,0a3.41,3.41,0,1,0,3.41,3.409A3.409,3.409,0,0,0,1166.731,384.044Zm23.869,0a3.41,3.41,0,1,0,3.409,3.409A3.409,3.409,0,0,0,1190.6,384.044Zm23.868-167.082a3.41,3.41,0,1,0,3.41,3.41A3.41,3.41,0,0,0,1214.468,216.962Zm23.869,0a3.41,3.41,0,1,0,3.41,3.41A3.41,3.41,0,0,0,1238.337,216.962Zm-23.869-23.868a3.41,3.41,0,1,0,3.41,3.41A3.409,3.409,0,0,0,1214.468,193.094Zm23.869,0a3.41,3.41,0,1,0,3.41,3.41A3.41,3.41,0,0,0,1238.337,193.094ZM1214.468,264.7a3.41,3.41,0,1,0,3.41,3.41A3.41,3.41,0,0,0,1214.468,264.7Zm23.869,0a3.41,3.41,0,1,0,3.41,3.41A3.41,3.41,0,0,0,1238.337,264.7Zm-23.869-23.869a3.41,3.41,0,1,0,3.41,3.41A3.41,3.41,0,0,0,1214.468,240.831Zm23.869,0a3.41,3.41,0,1,0,3.41,3.41A3.41,3.41,0,0,0,1238.337,240.831Zm-23.869,71.606a3.41,3.41,0,1,0,3.41,3.41A3.41,3.41,0,0,0,1214.468,312.437Zm23.869,0a3.41,3.41,0,1,0,3.41,3.41A3.41,3.41,0,0,0,1238.337,312.437Zm-23.869-23.868a3.41,3.41,0,1,0,3.41,3.409A3.409,3.409,0,0,0,1214.468,288.569Zm23.869,0a3.41,3.41,0,1,0,3.41,3.409A3.41,3.41,0,0,0,1238.337,288.569Zm-23.869,71.606a3.41,3.41,0,1,0,3.41,3.41A3.409,3.409,0,0,0,1214.468,360.175Zm23.869,0a3.41,3.41,0,1,0,3.41,3.41A3.41,3.41,0,0,0,1238.337,360.175Zm-23.869-23.869a3.41,3.41,0,1,0,3.41,3.41A3.41,3.41,0,0,0,1214.468,336.306Zm23.869,0a3.41,3.41,0,1,0,3.41,3.41A3.41,3.41,0,0,0,1238.337,336.306Zm-23.869,71.606a3.41,3.41,0,1,0,3.41,3.41A3.41,3.41,0,0,0,1214.468,407.912Zm23.869,0a3.41,3.41,0,1,0,3.41,3.41A3.41,3.41,0,0,0,1238.337,407.912Zm-23.869-23.868a3.41,3.41,0,1,0,3.41,3.409A3.409,3.409,0,0,0,1214.468,384.044Zm23.869,0a3.41,3.41,0,1,0,3.41,3.409A3.41,3.41,0,0,0,1238.337,384.044Z" transform="translate(-170.109 313.906)" fill="#d2d5d2"/>
    <path id="Path_6" data-name="Path 6" d="M1026.928,196.5a3.409,3.409,0,1,1-3.409-3.41A3.409,3.409,0,0,1,1026.928,196.5Zm-3.409,20.458a3.41,3.41,0,1,0,3.409,3.41A3.41,3.41,0,0,0,1023.519,216.962Zm23.868,0a3.41,3.41,0,1,0,3.41,3.41A3.409,3.409,0,0,0,1047.387,216.962Zm23.869,0a3.41,3.41,0,1,0,3.41,3.41A3.41,3.41,0,0,0,1071.256,216.962Zm23.869,0a3.41,3.41,0,1,0,3.41,3.41A3.41,3.41,0,0,0,1095.125,216.962Zm23.868,0a3.41,3.41,0,1,0,3.41,3.41A3.41,3.41,0,0,0,1118.993,216.962Zm23.869,0a3.41,3.41,0,1,0,3.41,3.41A3.41,3.41,0,0,0,1142.862,216.962Zm23.869,0a3.41,3.41,0,1,0,3.41,3.41A3.41,3.41,0,0,0,1166.731,216.962Zm23.869,0a3.41,3.41,0,1,0,3.409,3.41A3.41,3.41,0,0,0,1190.6,216.962Zm-143.213-23.868a3.41,3.41,0,1,0,3.41,3.41A3.409,3.409,0,0,0,1047.387,193.094Zm23.869,0a3.41,3.41,0,1,0,3.41,3.41A3.41,3.41,0,0,0,1071.256,193.094Zm23.869,0a3.41,3.41,0,1,0,3.41,3.41A3.41,3.41,0,0,0,1095.125,193.094Zm23.868,0a3.41,3.41,0,1,0,3.41,3.41A3.409,3.409,0,0,0,1118.993,193.094Zm23.869,0a3.41,3.41,0,1,0,3.41,3.41A3.41,3.41,0,0,0,1142.862,193.094Zm23.869,0a3.41,3.41,0,1,0,3.41,3.41A3.41,3.41,0,0,0,1166.731,193.094Zm23.869,0a3.41,3.41,0,1,0,3.409,3.41A3.409,3.409,0,0,0,1190.6,193.094Zm-167.081,47.737a3.41,3.41,0,1,0,3.409,3.41A3.41,3.41,0,0,0,1023.519,240.831Zm0,23.869a3.41,3.41,0,1,0,3.409,3.41A3.41,3.41,0,0,0,1023.519,264.7Zm23.868,0a3.41,3.41,0,1,0,3.41,3.41A3.409,3.409,0,0,0,1047.387,264.7Zm23.869,0a3.41,3.41,0,1,0,3.41,3.41A3.41,3.41,0,0,0,1071.256,264.7Zm23.869,0a3.41,3.41,0,1,0,3.41,3.41A3.41,3.41,0,0,0,1095.125,264.7Zm23.868,0a3.41,3.41,0,1,0,3.41,3.41A3.41,3.41,0,0,0,1118.993,264.7Zm23.869,0a3.41,3.41,0,1,0,3.41,3.41A3.41,3.41,0,0,0,1142.862,264.7Zm23.869,0a3.41,3.41,0,1,0,3.41,3.41A3.41,3.41,0,0,0,1166.731,264.7Zm23.869,0a3.41,3.41,0,1,0,3.409,3.41A3.41,3.41,0,0,0,1190.6,264.7Zm-143.213-23.869a3.41,3.41,0,1,0,3.41,3.41A3.41,3.41,0,0,0,1047.387,240.831Zm23.869,0a3.41,3.41,0,1,0,3.41,3.41A3.41,3.41,0,0,0,1071.256,240.831Zm23.869,0a3.41,3.41,0,1,0,3.41,3.41A3.41,3.41,0,0,0,1095.125,240.831Zm23.868,0a3.41,3.41,0,1,0,3.41,3.41A3.41,3.41,0,0,0,1118.993,240.831Zm23.869,0a3.41,3.41,0,1,0,3.41,3.41A3.41,3.41,0,0,0,1142.862,240.831Zm23.869,0a3.41,3.41,0,1,0,3.41,3.41A3.41,3.41,0,0,0,1166.731,240.831Zm23.869,0a3.41,3.41,0,1,0,3.409,3.41A3.41,3.41,0,0,0,1190.6,240.831Zm-167.081,47.738a3.41,3.41,0,1,0,3.409,3.409A3.409,3.409,0,0,0,1023.519,288.569Zm0,23.868a3.41,3.41,0,1,0,3.409,3.41A3.41,3.41,0,0,0,1023.519,312.437Zm23.868,0a3.41,3.41,0,1,0,3.41,3.41A3.409,3.409,0,0,0,1047.387,312.437Zm23.869,0a3.41,3.41,0,1,0,3.41,3.41A3.41,3.41,0,0,0,1071.256,312.437Zm23.869,0a3.41,3.41,0,1,0,3.41,3.41A3.41,3.41,0,0,0,1095.125,312.437Zm23.868,0a3.41,3.41,0,1,0,3.41,3.41A3.41,3.41,0,0,0,1118.993,312.437Zm23.869,0a3.41,3.41,0,1,0,3.41,3.41A3.41,3.41,0,0,0,1142.862,312.437Zm23.869,0a3.41,3.41,0,1,0,3.41,3.41A3.41,3.41,0,0,0,1166.731,312.437Zm23.869,0a3.41,3.41,0,1,0,3.409,3.41A3.41,3.41,0,0,0,1190.6,312.437Zm-143.213-23.868a3.41,3.41,0,1,0,3.41,3.409A3.409,3.409,0,0,0,1047.387,288.569Zm23.869,0a3.41,3.41,0,1,0,3.41,3.409A3.41,3.41,0,0,0,1071.256,288.569Zm23.869,0a3.41,3.41,0,1,0,3.41,3.409A3.41,3.41,0,0,0,1095.125,288.569Zm23.868,0a3.41,3.41,0,1,0,3.41,3.409A3.409,3.409,0,0,0,1118.993,288.569Zm23.869,0a3.41,3.41,0,1,0,3.41,3.409A3.41,3.41,0,0,0,1142.862,288.569Zm23.869,0a3.41,3.41,0,1,0,3.41,3.409A3.409,3.409,0,0,0,1166.731,288.569Zm23.869,0a3.41,3.41,0,1,0,3.409,3.409A3.409,3.409,0,0,0,1190.6,288.569Zm-167.081,47.737a3.41,3.41,0,1,0,3.409,3.41A3.41,3.41,0,0,0,1023.519,336.306Zm0,23.869a3.41,3.41,0,1,0,3.409,3.41A3.409,3.409,0,0,0,1023.519,360.175Zm23.868,0a3.41,3.41,0,1,0,3.41,3.41A3.409,3.409,0,0,0,1047.387,360.175Zm23.869,0a3.41,3.41,0,1,0,3.41,3.41A3.41,3.41,0,0,0,1071.256,360.175Zm23.869,0a3.41,3.41,0,1,0,3.41,3.41A3.41,3.41,0,0,0,1095.125,360.175Zm23.868,0a3.41,3.41,0,1,0,3.41,3.41A3.409,3.409,0,0,0,1118.993,360.175Zm23.869,0a3.41,3.41,0,1,0,3.41,3.41A3.41,3.41,0,0,0,1142.862,360.175Zm23.869,0a3.41,3.41,0,1,0,3.41,3.41A3.41,3.41,0,0,0,1166.731,360.175Zm23.869,0a3.41,3.41,0,1,0,3.409,3.41A3.409,3.409,0,0,0,1190.6,360.175Zm-143.213-23.869a3.41,3.41,0,1,0,3.41,3.41A3.41,3.41,0,0,0,1047.387,336.306Zm23.869,0a3.41,3.41,0,1,0,3.41,3.41A3.41,3.41,0,0,0,1071.256,336.306Zm23.869,0a3.41,3.41,0,1,0,3.41,3.41A3.41,3.41,0,0,0,1095.125,336.306Zm23.868,0a3.41,3.41,0,1,0,3.41,3.41A3.41,3.41,0,0,0,1118.993,336.306Zm23.869,0a3.41,3.41,0,1,0,3.41,3.41A3.41,3.41,0,0,0,1142.862,336.306Zm23.869,0a3.41,3.41,0,1,0,3.41,3.41A3.41,3.41,0,0,0,1166.731,336.306Zm23.869,0a3.41,3.41,0,1,0,3.409,3.41A3.41,3.41,0,0,0,1190.6,336.306Zm-167.081,47.738a3.41,3.41,0,1,0,3.409,3.409A3.409,3.409,0,0,0,1023.519,384.044Zm0,23.868a3.41,3.41,0,1,0,3.409,3.41A3.41,3.41,0,0,0,1023.519,407.912Zm23.868,0a3.41,3.41,0,1,0,3.41,3.41A3.41,3.41,0,0,0,1047.387,407.912Zm23.869,0a3.41,3.41,0,1,0,3.41,3.41A3.41,3.41,0,0,0,1071.256,407.912Zm23.869,0a3.41,3.41,0,1,0,3.41,3.41A3.41,3.41,0,0,0,1095.125,407.912Zm23.868,0a3.41,3.41,0,1,0,3.41,3.41A3.41,3.41,0,0,0,1118.993,407.912Zm23.869,0a3.41,3.41,0,1,0,3.41,3.41A3.41,3.41,0,0,0,1142.862,407.912Zm23.869,0a3.41,3.41,0,1,0,3.41,3.41A3.41,3.41,0,0,0,1166.731,407.912Zm23.869,0a3.41,3.41,0,1,0,3.409,3.41A3.41,3.41,0,0,0,1190.6,407.912Zm-143.213-23.868a3.41,3.41,0,1,0,3.41,3.409A3.409,3.409,0,0,0,1047.387,384.044Zm23.869,0a3.41,3.41,0,1,0,3.41,3.409A3.41,3.41,0,0,0,1071.256,384.044Zm23.869,0a3.41,3.41,0,1,0,3.41,3.409A3.41,3.41,0,0,0,1095.125,384.044Zm23.868,0a3.41,3.41,0,1,0,3.41,3.409A3.409,3.409,0,0,0,1118.993,384.044Zm23.869,0a3.41,3.41,0,1,0,3.41,3.409A3.41,3.41,0,0,0,1142.862,384.044Zm23.869,0a3.41,3.41,0,1,0,3.41,3.409A3.409,3.409,0,0,0,1166.731,384.044Zm23.869,0a3.41,3.41,0,1,0,3.409,3.409A3.409,3.409,0,0,0,1190.6,384.044Zm23.868-167.082a3.41,3.41,0,1,0,3.41,3.41A3.41,3.41,0,0,0,1214.468,216.962Zm23.869,0a3.41,3.41,0,1,0,3.41,3.41A3.41,3.41,0,0,0,1238.337,216.962Zm-23.869-23.868a3.41,3.41,0,1,0,3.41,3.41A3.409,3.409,0,0,0,1214.468,193.094Zm23.869,0a3.41,3.41,0,1,0,3.41,3.41A3.41,3.41,0,0,0,1238.337,193.094ZM1214.468,264.7a3.41,3.41,0,1,0,3.41,3.41A3.41,3.41,0,0,0,1214.468,264.7Zm23.869,0a3.41,3.41,0,1,0,3.41,3.41A3.41,3.41,0,0,0,1238.337,264.7Zm-23.869-23.869a3.41,3.41,0,1,0,3.41,3.41A3.41,3.41,0,0,0,1214.468,240.831Zm23.869,0a3.41,3.41,0,1,0,3.41,3.41A3.41,3.41,0,0,0,1238.337,240.831Zm-23.869,71.606a3.41,3.41,0,1,0,3.41,3.41A3.41,3.41,0,0,0,1214.468,312.437Zm23.869,0a3.41,3.41,0,1,0,3.41,3.41A3.41,3.41,0,0,0,1238.337,312.437Zm-23.869-23.868a3.41,3.41,0,1,0,3.41,3.409A3.409,3.409,0,0,0,1214.468,288.569Zm23.869,0a3.41,3.41,0,1,0,3.41,3.409A3.41,3.41,0,0,0,1238.337,288.569Zm-23.869,71.606a3.41,3.41,0,1,0,3.41,3.41A3.409,3.409,0,0,0,1214.468,360.175Zm23.869,0a3.41,3.41,0,1,0,3.41,3.41A3.41,3.41,0,0,0,1238.337,360.175Zm-23.869-23.869a3.41,3.41,0,1,0,3.41,3.41A3.41,3.41,0,0,0,1214.468,336.306Zm23.869,0a3.41,3.41,0,1,0,3.41,3.41A3.41,3.41,0,0,0,1238.337,336.306Zm-23.869,71.606a3.41,3.41,0,1,0,3.41,3.41A3.41,3.41,0,0,0,1214.468,407.912Zm23.869,0a3.41,3.41,0,1,0,3.41,3.41A3.41,3.41,0,0,0,1238.337,407.912Zm-23.869-23.868a3.41,3.41,0,1,0,3.41,3.409A3.409,3.409,0,0,0,1214.468,384.044Zm23.869,0a3.41,3.41,0,1,0,3.41,3.409A3.41,3.41,0,0,0,1238.337,384.044Z" transform="translate(70.891 313.906)" fill="#d2d5d2"/>
  </g>
</svg>
