<svg xmlns="http://www.w3.org/2000/svg" width="102.294" height="102.294" viewBox="0 0 102.294 102.294">
  <g id="pattern" transform="translate(-850 -507)" opacity="0.203">
    <path id="Path_5" data-name="Path 5" d="M1026.928,196.5a3.409,3.409,0,1,1-3.409-3.41A3.409,3.409,0,0,1,1026.928,196.5Zm-3.409,20.458a3.41,3.41,0,1,0,3.409,3.41A3.41,3.41,0,0,0,1023.519,216.962Zm23.868,0a3.41,3.41,0,1,0,3.41,3.41A3.409,3.409,0,0,0,1047.387,216.962Zm23.869,0a3.41,3.41,0,1,0,3.41,3.41A3.41,3.41,0,0,0,1071.256,216.962Zm23.869,0a3.41,3.41,0,1,0,3.41,3.41A3.41,3.41,0,0,0,1095.125,216.962Zm23.868,0a3.41,3.41,0,1,0,3.41,3.41A3.41,3.41,0,0,0,1118.993,216.962Zm-71.606-23.868a3.41,3.41,0,1,0,3.41,3.41A3.409,3.409,0,0,0,1047.387,193.094Zm23.869,0a3.41,3.41,0,1,0,3.41,3.41A3.41,3.41,0,0,0,1071.256,193.094Zm23.869,0a3.41,3.41,0,1,0,3.41,3.41A3.41,3.41,0,0,0,1095.125,193.094Zm23.868,0a3.41,3.41,0,1,0,3.41,3.41A3.409,3.409,0,0,0,1118.993,193.094Zm-95.474,47.737a3.41,3.41,0,1,0,3.409,3.41A3.41,3.41,0,0,0,1023.519,240.831Zm0,23.869a3.41,3.41,0,1,0,3.409,3.41A3.41,3.41,0,0,0,1023.519,264.7Zm23.868,0a3.41,3.41,0,1,0,3.41,3.41A3.409,3.409,0,0,0,1047.387,264.7Zm0-23.869a3.41,3.41,0,1,0,3.41,3.41A3.41,3.41,0,0,0,1047.387,240.831Zm-23.868,47.738a3.41,3.41,0,1,0,3.409,3.409A3.409,3.409,0,0,0,1023.519,288.569Zm23.868,0a3.41,3.41,0,1,0,3.41,3.409A3.409,3.409,0,0,0,1047.387,288.569Z" transform="translate(-170.109 313.906)" fill="#d2d5d2"/>
  </g>
</svg>
