<svg xmlns="http://www.w3.org/2000/svg" width="104" height="103" viewBox="0 0 104 103"><defs><linearGradient id="bf30a" x1="-1259" x2="-1259" y1="-3772" y2="-3772" gradientUnits="userSpaceOnUse"><stop offset="0" stop-color="#06171d"/><stop offset="1" stop-color="#102754"/></linearGradient></defs><g><g><g><path fill="url(#bf30a)" d="M22.714 102.324a1.507 1.507 0 0 1-1.504-1.51c0-.831.672-1.509 1.504-1.509h9.36V88.368a3.765 3.765 0 0 0-1.111-2.66 3.747 3.747 0 0 0-2.655-1.105H10.296a3.754 3.754 0 0 0-2.66 1.105 3.76 3.76 0 0 0-1.105 2.66v10.937h9.359c.832 0 1.504.678 1.504 1.51 0 .831-.672 1.51-1.504 1.51H5.02a1.507 1.507 0 0 1-1.504-1.51V88.368c0-1.863.763-3.56 1.988-4.79a6.88 6.88 0 0 1 2.934-1.732c-.763-2.831-1.817-5.23-2.894-7.679C3.164 68.761.697 63.145.697 52.373c0-5.623.661-10.846 1.863-15.386 1.18-4.466 2.894-8.283 5.019-11.154v-7.792a6.9 6.9 0 0 1 2.039-4.9 6.915 6.915 0 0 1 4.905-2.038h4.158V6.944c0-1.914.78-3.646 2.034-4.904a6.914 6.914 0 0 1 9.81 0 6.914 6.914 0 0 1 2.038 4.904v4.158h4.153c1.914 0 3.652.78 4.905 2.04a6.9 6.9 0 0 1 2.039 4.899v4.158h4.159c1.908 0 3.645.78 4.904 2.04a6.914 6.914 0 0 1 0 9.808 6.944 6.944 0 0 1-4.904 2.034H43.66v4.158c0 1.909-.78 3.646-2.04 4.905a6.905 6.905 0 0 1-4.904 2.04h-3.19c.234 1.646.513 3.218.78 4.744.616 3.492 1.197 6.773 1.197 10.333 0 5.161-1.402 12.538-5.691 16.087v3.412a6.785 6.785 0 0 1 5.275 6.608v12.446c0 .832-.673 1.51-1.504 1.51H22.714zm58.856-3.019c.832 0 1.51.678 1.51 1.51 0 .831-.678 1.51-1.51 1.51H70.707c-.832 0-1.51-.679-1.51-1.51V88.368c0-1.863.763-3.56 1.994-4.79a6.735 6.735 0 0 1 3.28-1.818v-3.412c-4.289-3.549-5.684-10.925-5.684-16.086 0-3.56.575-6.842 1.19-10.334.274-1.526.547-3.098.786-4.744h-4.801a6.915 6.915 0 0 1-4.905-2.04 6.924 6.924 0 0 1-2.04-4.904v-5.663c0-.831.673-1.51 1.51-1.51h5.663a3.901 3.901 0 0 0 2.774-1.155 3.91 3.91 0 0 0 1.156-2.769 3.915 3.915 0 0 0-1.156-2.774 3.923 3.923 0 0 0-2.774-1.156h-5.663c-.837 0-1.51-.673-1.51-1.504V18.04a6.9 6.9 0 0 1 2.04-4.9 6.915 6.915 0 0 1 4.905-2.038h4.152V6.944c0-1.914.78-3.646 2.04-4.904A6.924 6.924 0 0 1 77.057 0c1.908 0 3.646.78 4.905 2.04a6.914 6.914 0 0 1 2.039 4.904v4.158h4.153c1.913 0 3.645.78 4.904 2.04a6.901 6.901 0 0 1 2.04 4.899v5.833c2.523 2.717 4.642 6.75 6.129 11.626 1.493 4.916 2.358 10.703 2.358 16.873 0 10.772-2.466 16.388-4.842 21.794-1.076 2.45-2.136 4.848-2.9 7.679a6.844 6.844 0 0 1 2.935 1.732 6.765 6.765 0 0 1 1.993 4.79v12.447c0 .831-.678 1.51-1.51 1.51H88.4c-.831 0-1.51-.679-1.51-1.51 0-.832.679-1.51 1.51-1.51h9.36V88.368a3.766 3.766 0 0 0-1.11-2.66 3.77 3.77 0 0 0-2.656-1.105H75.981a3.75 3.75 0 0 0-2.66 1.105 3.76 3.76 0 0 0-1.105 2.66v10.937zM18.97 47.183zm-4.448 0a6.915 6.915 0 0 1-4.905-2.039 6.925 6.925 0 0 1-2.04-4.905v-8.47c-.82 1.783-1.532 3.793-2.113 5.987C4.337 42.034 3.711 47 3.711 52.373c0 10.15 2.335 15.465 4.585 20.58 1.19 2.712 2.359 5.367 3.19 8.636h15.312v-3.987c0-.484.24-.957.672-1.247 3.868-2.598 5.02-10.009 5.02-14.093 0-3.31-.56-6.46-1.152-9.82-.814-4.638-1.452-8.784-1.452-13.518a3.922 3.922 0 0 0-1.162-2.786 3.936 3.936 0 0 0-2.792-1.162 3.932 3.932 0 0 0-2.785 1.162 3.922 3.922 0 0 0-1.162 2.786v16.383c0 .831-.673 1.503-1.504 1.503-.838 0-1.51-.672-1.51-1.503v-8.124zm70.79-8.26v5.241h2.842a3.91 3.91 0 0 0 2.774-1.15 3.924 3.924 0 0 0 1.157-2.774v-22.2a3.91 3.91 0 0 0-1.157-2.768 3.914 3.914 0 0 0-2.774-1.156h-5.662c-.832 0-1.51-.678-1.51-1.51V6.944a3.909 3.909 0 0 0-1.15-2.774 3.925 3.925 0 0 0-2.775-1.156 3.925 3.925 0 0 0-2.774 1.156 3.914 3.914 0 0 0-1.157 2.774v5.662c0 .832-.672 1.51-1.503 1.51h-5.662a3.914 3.914 0 0 0-2.775 1.156 3.91 3.91 0 0 0-1.156 2.769v4.158h4.158c1.914 0 3.646.78 4.905 2.04a6.914 6.914 0 0 1 0 9.808 6.934 6.934 0 0 1-4.905 2.034h-4.158v4.159c0 1.076.444 2.062 1.156 2.774a3.91 3.91 0 0 0 2.775 1.15h5.166a54.01 54.01 0 0 0 .262-5.24c0-1.914.78-3.657 2.045-4.916a6.936 6.936 0 0 1 9.838 0 6.942 6.942 0 0 1 2.04 4.916zm0 16.383a1.507 1.507 0 0 1-3.013 0V38.924a3.922 3.922 0 0 0-1.163-2.786 3.922 3.922 0 0 0-5.571 0 3.923 3.923 0 0 0-1.162 2.786c0 4.733-.638 8.88-1.458 13.517-.593 3.361-1.145 6.511-1.145 9.82 0 4.085 1.15 11.496 5.012 14.093.422.28.667.747.667 1.248l.005 3.987h15.312c.832-3.27 2-5.924 3.19-8.635 2.25-5.116 4.586-10.43 4.586-20.581 0-5.896-.815-11.382-2.222-16.001-.877-2.889-1.982-5.43-3.252-7.508v11.375c0 1.909-.78 3.646-2.04 4.905a6.915 6.915 0 0 1-4.904 2.04h-2.843zM18.971 38.924c0-1.914.78-3.657 2.045-4.916a6.937 6.937 0 0 1 9.838 0 6.946 6.946 0 0 1 2.044 4.916c0 1.857.097 3.594.263 5.24h3.554a3.91 3.91 0 0 0 2.774-1.15 3.924 3.924 0 0 0 1.156-2.774v-5.663c0-.831.673-1.51 1.51-1.51h5.662a3.902 3.902 0 0 0 2.775-1.155 3.91 3.91 0 0 0 1.156-2.769 3.915 3.915 0 0 0-1.156-2.774 3.923 3.923 0 0 0-2.775-1.156h-5.662c-.837 0-1.51-.673-1.51-1.504V18.04a3.911 3.911 0 0 0-1.156-2.769 3.915 3.915 0 0 0-2.774-1.156h-5.662a1.507 1.507 0 0 1-1.504-1.51V6.944a3.915 3.915 0 0 0-1.156-2.774 3.925 3.925 0 0 0-2.775-1.156 3.935 3.935 0 0 0-2.774 1.156 3.909 3.909 0 0 0-1.15 2.774v5.662c0 .832-.678 1.51-1.51 1.51h-5.662a3.924 3.924 0 0 0-2.774 1.156 3.911 3.911 0 0 0-1.157 2.769V40.24c0 1.076.445 2.062 1.157 2.774a3.92 3.92 0 0 0 2.774 1.15h4.449z"/></g></g></g></svg>