<svg xmlns="http://www.w3.org/2000/svg" width="103" height="103" viewBox="0 0 103 103"><defs><linearGradient id="vegwa" x1="-.09" x2="100.37" y1="93.24" y2="93.24" gradientUnits="userSpaceOnUse"><stop offset="0" stop-color="#06171d"/><stop offset="1" stop-color="#102754"/></linearGradient><linearGradient id="vegwb" x1="-.18" x2="100.4" y1="51.16" y2="51.16" gradientUnits="userSpaceOnUse"><stop offset="0" stop-color="#06171d"/><stop offset="1" stop-color="#102754"/></linearGradient><linearGradient id="vegwc" x1="-.25" x2="100.44" y1="99.08" y2="99.08" gradientUnits="userSpaceOnUse"><stop offset="0" stop-color="#06171d"/><stop offset="1" stop-color="#102754"/></linearGradient><linearGradient id="vegwd" x1="-.18" x2="100.38" y1="17.54" y2="17.54" gradientUnits="userSpaceOnUse"><stop offset="0" stop-color="#06171d"/><stop offset="1" stop-color="#102754"/></linearGradient><linearGradient id="vegwe" x1="-.16" x2="100.4" y1="17.54" y2="17.54" gradientUnits="userSpaceOnUse"><stop offset="0" stop-color="#06171d"/><stop offset="1" stop-color="#102754"/></linearGradient><linearGradient id="vegwf" x1="-.18" x2="100.4" y1="37.82" y2="37.82" gradientUnits="userSpaceOnUse"><stop offset="0" stop-color="#06171d"/><stop offset="1" stop-color="#102754"/></linearGradient></defs><g><g><g><path fill="url(#vegwa)" d="M75.634 95.892a1.462 1.462 0 0 1-.724-2.733 51.415 51.415 0 0 0 3.655-2.286 1.462 1.462 0 1 1 1.656 2.409 53.584 53.584 0 0 1-3.862 2.42c-.221.126-.471.191-.725.19z"/></g><g><path fill="url(#vegwb)" d="M51.688 102.324h-.526C22.906 102.324 0 79.418 0 51.162v-49.7C0 .655.655 0 1.462 0h17.541c.807 0 1.462.655 1.462 1.462V49.7c.03 14.55 10.243 27.093 24.486 30.069l.088.015c3.437.693 6.967.798 10.438.308a30.597 30.597 0 0 0 12.92-4.97 32.241 32.241 0 0 0 3.43-2.706c.344-.317.695-.653 1.047-1.004a28.84 28.84 0 0 0 2.448-2.769A30.427 30.427 0 0 0 81.86 49.7V1.462C81.86.655 82.514 0 83.321 0h17.541c.808 0 1.462.655 1.462 1.462v49.7A50.961 50.961 0 0 1 88.766 85.85a1.462 1.462 0 1 1-2.147-1.986 48.04 48.04 0 0 0 12.782-32.7V2.922H84.783V49.7A33.313 33.313 0 0 1 77.63 70.44a31.77 31.77 0 0 1-2.69 3.042c-.38.379-.76.743-1.14 1.093a35.14 35.14 0 0 1-3.759 2.966 33.558 33.558 0 0 1-9.76 4.531 32.094 32.094 0 0 1-4.397.917c-3.778.529-7.617.42-11.358-.323l-.088-.015C28.802 79.421 17.574 65.667 17.541 49.7V2.924H2.924v48.238c0 26.642 21.597 48.239 48.238 48.239h.526a1.462 1.462 0 0 1 0 2.923z"/></g><g><path fill="url(#vegwc)" d="M62.11 101.11a1.462 1.462 0 0 1-.315-2.889 41.94 41.94 0 0 0 3.97-1.073 1.462 1.462 0 1 1 .905 2.777 43.935 43.935 0 0 1-4.239 1.148 1.375 1.375 0 0 1-.322.038z"/></g><g><path fill="url(#vegwd)" d="M19.003 19.003H1.462a1.462 1.462 0 0 1 0-2.923h17.541a1.462 1.462 0 0 1 0 2.923z"/></g><g><path fill="url(#vegwe)" d="M100.862 19.003h-17.54a1.462 1.462 0 0 1 0-2.923h17.54a1.462 1.462 0 0 1 0 2.923z"/></g><g><path fill="url(#vegwf)" d="M54.026 21.625l-1.27 12.718c-.072.724.4 1.391 1.107 1.564l9.271 2.272-13.127 16.543-.438-12.588a1.462 1.462 0 0 0-1.284-1.4l-8.865-1.085zm-4.19 38.015l17.011-21.43a1.462 1.462 0 0 0-.795-2.33l-10.256-2.51 1.63-16.315a1.462 1.462 0 0 0-2.589-1.066L35.49 39.859a1.462 1.462 0 0 0 .96 2.372l10.245 1.254.54 15.305a1.462 1.462 0 0 0 1.457 1.41 1.463 1.463 0 0 0 1.144-.56z"/></g></g></g></svg>