<svg xmlns="http://www.w3.org/2000/svg" width="70" height="102" viewBox="0 0 70 102"><defs><linearGradient id="mee8a" x1="-.48" x2="64.32" y1="31.45" y2="31.45" gradientUnits="userSpaceOnUse"><stop offset="0" stop-color="#06171d"/><stop offset="1" stop-color="#102754"/></linearGradient><linearGradient id="mee8b" x1="-.49" x2="64.33" y1="25.63" y2="25.63" gradientUnits="userSpaceOnUse"><stop offset="0" stop-color="#06171d"/><stop offset="1" stop-color="#102754"/></linearGradient><linearGradient id="mee8c" x1="-.48" x2="64.33" y1="31.47" y2="31.47" gradientUnits="userSpaceOnUse"><stop offset="0" stop-color="#06171d"/><stop offset="1" stop-color="#102754"/></linearGradient><linearGradient id="mee8d" x1="-.49" x2="64.35" y1="61.43" y2="61.43" gradientUnits="userSpaceOnUse"><stop offset="0" stop-color="#06171d"/><stop offset="1" stop-color="#102754"/></linearGradient><linearGradient id="mee8e" x1="-.48" x2="64.33" y1="81.72" y2="81.72" gradientUnits="userSpaceOnUse"><stop offset="0" stop-color="#06171d"/><stop offset="1" stop-color="#102754"/></linearGradient></defs><g><g><g><g><path fill="url(#mee8a)" d="M38.14 3.101c4.366 0 8.58.988 12.525 2.936C64.678 12.957 70.45 29.987 63.531 44c-4.812 9.747-14.56 15.802-25.437 15.802-4.366 0-8.58-.988-12.525-2.936-14.014-6.919-19.785-23.95-12.867-37.963C17.515 9.156 27.262 3.101 38.14 3.101zm28.172 42.272c7.676-15.547 1.273-34.44-14.274-42.117A31.134 31.134 0 0 0 38.14 0C26.072 0 15.26 6.717 9.92 17.53 2.245 33.077 8.65 51.97 24.196 59.647a31.133 31.133 0 0 0 13.898 3.256c12.067 0 22.88-6.717 28.218-17.53z"/></g></g><g><g><path fill="url(#mee8b)" d="M50.541 14.41a21.295 21.295 0 0 0-3.088-1.866l1.373-2.78c1.239.61 2.43 1.33 3.54 2.137zm5 5.158a21.075 21.075 0 0 0-2.277-2.796l2.227-2.158a24.172 24.172 0 0 1 2.614 3.209zm2.976 6.544a21.278 21.278 0 0 0-1.209-3.4l2.824-1.283a24.414 24.414 0 0 1 1.384 3.896zm3.704 7.427l-3.09-.268a20.884 20.884 0 0 0 0-3.605l3.09-.266a24.18 24.18 0 0 1 0 4.139zm-2.105 7.97l-2.82-1.29c.502-1.098.911-2.24 1.217-3.396l2.998.793a24.341 24.341 0 0 1-1.395 3.893z"/></g></g><g><g><path fill="url(#mee8c)" d="M38.157 55.662c-3.625 0-7.298-.818-10.749-2.522-11.959-5.904-16.884-20.438-10.98-32.397C22.333 8.784 36.867 3.858 48.825 9.763l-1.373 2.781a20.95 20.95 0 0 0-16.104-1.063A20.948 20.948 0 0 0 19.21 22.116c-5.147 10.426-.853 23.096 9.572 28.243 9.271 4.578 20.383 1.826 26.422-6.544l2.515 1.815a24.082 24.082 0 0 1-19.561 10.032z"/></g></g><g><g><path fill="url(#mee8d)" d="M23.513 57.532l2.782 1.373-3.175 6.43-2.782-1.375z"/></g></g><g><g><path fill="url(#mee8e)" d="M19.144 65.059l3.826 1.889L7.453 98.375l-3.826-1.889zm-9.597 36.08l16.89-34.208a1.55 1.55 0 0 0-.703-2.077l-6.607-3.262a1.551 1.551 0 0 0-2.077.704L.16 96.504a1.55 1.55 0 0 0 .704 2.077l6.606 3.262a1.551 1.551 0 0 0 2.077-.704z"/></g></g></g></g></svg>