<svg xmlns="http://www.w3.org/2000/svg" width="107" height="104" viewBox="0 0 107 104"><defs><linearGradient id="dccsa" x1="-.23" x2="104.87" y1="90.69" y2="90.69" gradientUnits="userSpaceOnUse"><stop offset="0" stop-color="#06171d"/><stop offset="1" stop-color="#102754"/></linearGradient><linearGradient id="dccsb" x1="-.23" x2="104.87" y1="46.54" y2="46.54" gradientUnits="userSpaceOnUse"><stop offset="0" stop-color="#06171d"/><stop offset="1" stop-color="#102754"/></linearGradient><linearGradient id="dccsc" x1="-.23" x2="104.87" y1="82.76" y2="82.76" gradientUnits="userSpaceOnUse"><stop offset="0" stop-color="#06171d"/><stop offset="1" stop-color="#102754"/></linearGradient><linearGradient id="dccsd" x1="-.23" x2="104.87" y1="39.75" y2="39.75" gradientUnits="userSpaceOnUse"><stop offset="0" stop-color="#06171d"/><stop offset="1" stop-color="#102754"/></linearGradient><linearGradient id="dccse" x1="-.23" x2="104.87" y1="10.32" y2="10.32" gradientUnits="userSpaceOnUse"><stop offset="0" stop-color="#06171d"/><stop offset="1" stop-color="#102754"/></linearGradient><linearGradient id="dccsf" x1="-.23" x2="104.87" y1="66.91" y2="66.91" gradientUnits="userSpaceOnUse"><stop offset="0" stop-color="#06171d"/><stop offset="1" stop-color="#102754"/></linearGradient><linearGradient id="dccsg" x1="-.23" x2="104.87" y1="64.03" y2="64.03" gradientUnits="userSpaceOnUse"><stop offset="0" stop-color="#06171d"/><stop offset="1" stop-color="#102754"/></linearGradient><linearGradient id="dccsh" x1="-.23" x2="104.87" y1="60.89" y2="60.89" gradientUnits="userSpaceOnUse"><stop offset="0" stop-color="#06171d"/><stop offset="1" stop-color="#102754"/></linearGradient><linearGradient id="dccsi" x1="-.23" x2="104.88" y1="24.48" y2="24.48" gradientUnits="userSpaceOnUse"><stop offset="0" stop-color="#06171d"/><stop offset="1" stop-color="#102754"/></linearGradient></defs><g><g><g><g><path fill="url(#dccsa)" d="M12.45 98.61c-4.3 0-7.923-3.622-7.923-7.924 0-4.302 3.624-7.923 7.923-7.923 4.3 0 7.926 3.624 7.926 7.923 0 4.3-3.624 7.924-7.926 7.924zm0-20.374C5.658 78.236 0 83.894 0 90.686c0 6.792 5.658 12.453 12.45 12.453 6.792 0 12.453-5.66 12.453-12.453 0-6.792-5.66-12.45-12.453-12.45z"/></g><g><path fill="url(#dccsb)" d="M33.958 51.518a4.98 4.98 0 1 1 4.98-4.98 5.024 5.024 0 0 1-4.98 4.983zm-9.51-4.974c0 5.251 4.258 9.509 9.51 9.509s9.51-4.259 9.51-9.51a9.565 9.565 0 0 0-9.51-9.51 9.51 9.51 0 0 0-9.51 9.51z"/></g><g><path fill="url(#dccsc)" d="M58.86 87.74a4.98 4.98 0 1 1 4.981-4.98 5.024 5.024 0 0 1-4.98 4.983zm-9.511-4.973c0 5.25 4.258 9.509 9.511 9.508 5.251 0 9.51-4.259 9.508-9.511a9.565 9.565 0 0 0-9.507-9.508c-5.255 0-9.513 4.258-9.512 9.51z"/></g><g><path fill="url(#dccsd)" d="M70.18 44.727a4.983 4.983 0 1 1 4.98-4.982 5.026 5.026 0 0 1-4.98 4.982zm0-14.486c-5.255 0-9.513 4.259-9.512 9.511 0 5.252 4.259 9.51 9.511 9.509 5.251 0 9.51-4.259 9.509-9.512a9.565 9.565 0 0 0-9.508-9.508z"/></g><g><path fill="url(#dccse)" d="M97.348 15.296a4.982 4.982 0 1 1 4.98-4.982 5.026 5.026 0 0 1-4.98 4.982zm0-14.485a9.567 9.567 0 0 0-9.516 9.507 9.51 9.51 0 0 0 19.018 0A9.565 9.565 0 0 0 97.348.811z"/></g><g transform="rotate(-63.06 23 67)"><path fill="url(#dccsf)" d="M7.024 69.173v-4.528h31.923v4.528z"/></g><g transform="rotate(-37.75 48 64)"><path fill="url(#dccsg)" d="M45.514 78.517V49.54h4.527v28.977z"/></g><g transform="rotate(-76.28 64 61)"><path fill="url(#dccsh)" d="M50.34 63.158V58.63h28.524v4.527z"/></g><g transform="rotate(-45.47 84.5 24.5)"><path fill="url(#dccsi)" d="M72.498 26.741v-4.527h23.995v4.527z"/></g></g></g></g></svg>