<svg xmlns="http://www.w3.org/2000/svg" width="103" height="104" viewBox="0 0 103 104"><defs><linearGradient id="rrcba" x1="0" x2="101.12" y1="59.51" y2="59.51" gradientUnits="userSpaceOnUse"><stop offset="0" stop-color="#06171d"/><stop offset="1" stop-color="#102754"/></linearGradient><linearGradient id="rrcbb" x1=".07" x2="101.19" y1="46.62" y2="46.62" gradientUnits="userSpaceOnUse"><stop offset="0" stop-color="#06171d"/><stop offset="1" stop-color="#102754"/></linearGradient><linearGradient id="rrcbc" x1=".07" x2="101.19" y1="7.6" y2="7.6" gradientUnits="userSpaceOnUse"><stop offset="0" stop-color="#06171d"/><stop offset="1" stop-color="#102754"/></linearGradient><linearGradient id="rrcbd" x1=".07" x2="101.19" y1="12.49" y2="12.49" gradientUnits="userSpaceOnUse"><stop offset="0" stop-color="#06171d"/><stop offset="1" stop-color="#102754"/></linearGradient><linearGradient id="rrcbe" x1=".07" x2="101.19" y1="51.97" y2="51.97" gradientUnits="userSpaceOnUse"><stop offset="0" stop-color="#06171d"/><stop offset="1" stop-color="#102754"/></linearGradient><linearGradient id="rrcbf" x1=".07" x2="101.19" y1="51.98" y2="51.98" gradientUnits="userSpaceOnUse"><stop offset="0" stop-color="#06171d"/><stop offset="1" stop-color="#102754"/></linearGradient><linearGradient id="rrcbg" x1=".07" x2="101.19" y1="43.98" y2="43.98" gradientUnits="userSpaceOnUse"><stop offset="0" stop-color="#06171d"/><stop offset="1" stop-color="#102754"/></linearGradient><linearGradient id="rrcbh" x1=".07" x2="101.19" y1="43.98" y2="43.98" gradientUnits="userSpaceOnUse"><stop offset="0" stop-color="#06171d"/><stop offset="1" stop-color="#102754"/></linearGradient><linearGradient id="rrcbi" x1=".07" x2="101.19" y1="51.97" y2="51.97" gradientUnits="userSpaceOnUse"><stop offset="0" stop-color="#06171d"/><stop offset="1" stop-color="#102754"/></linearGradient><linearGradient id="rrcbj" x1=".07" x2="101.19" y1="59.97" y2="59.97" gradientUnits="userSpaceOnUse"><stop offset="0" stop-color="#06171d"/><stop offset="1" stop-color="#102754"/></linearGradient><linearGradient id="rrcbk" x1=".07" x2="101.19" y1="59.97" y2="59.97" gradientUnits="userSpaceOnUse"><stop offset="0" stop-color="#06171d"/><stop offset="1" stop-color="#102754"/></linearGradient><linearGradient id="rrcbl" x1=".07" x2="101.19" y1="59.97" y2="59.97" gradientUnits="userSpaceOnUse"><stop offset="0" stop-color="#06171d"/><stop offset="1" stop-color="#102754"/></linearGradient></defs><g><g><g><g><path fill="url(#rrcba)" d="M79.927 95.113a2.798 2.798 0 1 1-3.957-3.958 2.798 2.798 0 0 1 3.957 3.958zm-5.253-7.925a6.795 6.795 0 0 0-3.351 7.439 46.687 46.687 0 0 1-20.158 4.515c-26.008 0-47.167-21.16-47.167-47.167a46.941 46.941 0 0 1 13.19-32.707 2.002 2.002 0 1 0-2.89-2.77 51.164 51.164 0 0 0 36.867 86.64 50.627 50.627 0 0 0 22.15-5.036 6.795 6.795 0 0 0 9.438-9.773 6.795 6.795 0 0 0-8.079-1.14z"/></g><g><path fill="url(#rrcbb)" d="M95.933 78.017a2.798 2.798 0 1 1-.773-4.5c.06.035.122.069.188.099.214.12.41.27.585.443a2.798 2.798 0 0 1 0 3.958zM87.91 19.198l-.028.024c-.018.014-.032.03-.05.046a2.71 2.71 0 1 1 .08-.072zm10.717 51.918a51.212 51.212 0 0 0-6.914-50.341 6.777 6.777 0 1 0-3.011 2.638 47.21 47.21 0 0 1 6.33 45.922 6.795 6.795 0 1 0 3.718 1.898z"/></g><g><path fill="url(#rrcbc)" d="M69.552 9.585a2.798 2.798 0 1 1-3.957-3.957 2.798 2.798 0 0 1 3.957 3.957zm2.824-6.775a6.795 6.795 0 0 0-9.02-.534A51.363 51.363 0 0 0 51.165.811a50.64 50.64 0 0 0-23.248 5.574 1.999 1.999 0 1 0 1.819 3.56 46.671 46.671 0 0 1 21.429-5.137c3.316 0 6.617.346 9.855 1.033A6.795 6.795 0 1 0 72.376 2.81z"/></g><g><path fill="url(#rrcbd)" d="M23.486 11.316a1.998 1.998 0 0 0-2.798-.446l-.024.018a1.999 1.999 0 0 0 2.353 3.232l.016-.012a1.999 1.999 0 0 0 .453-2.792z"/></g><g><path fill="url(#rrcbe)" d="M65.954 66.765H36.375v-29.58h29.58zM34.377 33.188a1.999 1.999 0 0 0-1.999 1.999v33.576c0 1.104.895 1.999 1.999 1.999h33.576a1.999 1.999 0 0 0 1.999-1.999V35.187a1.999 1.999 0 0 0-1.999-1.999z"/></g><g><path fill="url(#rrcbf)" d="M73.949 74.759H28.38V29.191h45.568zm9.793-25.582a1.999 1.999 0 1 0 0-3.997h-5.796v-5.596h5.796a1.999 1.999 0 1 0 0-3.997h-5.796v-8.394a1.999 1.999 0 0 0-1.999-2h-8.394v-5.795a1.999 1.999 0 1 0-3.997 0v5.796H57.96v-5.796a1.999 1.999 0 1 0-3.997 0v5.796h-5.596v-5.796a1.999 1.999 0 0 0-3.997 0v5.796h-5.596v-5.796a1.999 1.999 0 1 0-3.998 0v5.796h-8.394a1.999 1.999 0 0 0-1.998 1.999v8.394h-5.796a1.999 1.999 0 1 0 0 3.997h5.796v5.596h-5.796a1.999 1.999 0 1 0 0 3.997h5.796v5.596h-5.796a1.999 1.999 0 1 0 0 3.997h5.796v5.596h-5.796a1.999 1.999 0 0 0 0 3.998h5.796v8.394c0 1.103.895 1.998 1.998 1.998h8.394v5.796a1.999 1.999 0 0 0 3.998 0v-5.796h5.596v5.796a1.999 1.999 0 0 0 3.997 0v-5.796h5.596v5.796a1.999 1.999 0 0 0 3.997 0v-5.796h5.596v5.796a1.999 1.999 0 1 0 3.997 0v-5.796h8.394a1.999 1.999 0 0 0 2-1.998v-8.394h5.795a1.999 1.999 0 1 0 0-3.998h-5.796V58.77h5.796a1.999 1.999 0 1 0 0-3.997h-5.796v-5.596z"/></g><g><path fill="url(#rrcbg)" d="M59.16 41.982h-8.235a1.999 1.999 0 0 0 0 3.997h8.234a1.999 1.999 0 1 0 0-3.997z"/></g><g><path fill="url(#rrcbh)" d="M43.518 42.568a1.999 1.999 0 1 0-2.826 2.826 1.999 1.999 0 0 0 2.826-2.826z"/></g><g><path fill="url(#rrcbi)" d="M59.16 49.976H42.104a1.999 1.999 0 0 0 0 3.998H59.16a1.999 1.999 0 0 0 0-3.998z"/></g><g><path fill="url(#rrcbj)" d="M43.518 58.556a1.999 1.999 0 1 0-2.826 2.827 1.999 1.999 0 0 0 2.826-2.827z"/></g><g><path fill="url(#rrcbk)" d="M51.75 58.556a1.999 1.999 0 1 0-2.826 2.827 1.999 1.999 0 0 0 2.826-2.827z"/></g><g><path fill="url(#rrcbl)" d="M60.572 58.556a1.999 1.999 0 1 0-2.826 2.828 1.999 1.999 0 0 0 2.826-2.828z"/></g></g></g></g></svg>