<svg xmlns="http://www.w3.org/2000/svg" width="103" height="103" viewBox="0 0 103 103"><defs><linearGradient id="b1dya" x1="-1.54" x2="100.47" y1="51.16" y2="51.16" gradientUnits="userSpaceOnUse"><stop offset="0" stop-color="#06171d"/><stop offset="1" stop-color="#102754"/></linearGradient><linearGradient id="b1dyb" x1="31.99" x2="69.35" y1="51.16" y2="51.16" gradientUnits="userSpaceOnUse"><stop offset="0" stop-color="#06171d"/><stop offset="1" stop-color="#102754"/></linearGradient><linearGradient id="b1dyc" x1="39.25" x2="44.35" y1="44.34" y2="44.34" gradientUnits="userSpaceOnUse"><stop offset="0" stop-color="#06171d"/><stop offset="1" stop-color="#102754"/></linearGradient><linearGradient id="b1dyd" x1="52.93" x2="63.01" y1="44.34" y2="44.34" gradientUnits="userSpaceOnUse"><stop offset="0" stop-color="#06171d"/><stop offset="1" stop-color="#102754"/></linearGradient><linearGradient id="b1dye" x1="39.31" x2="44.4" y1="57.99" y2="57.99" gradientUnits="userSpaceOnUse"><stop offset="0" stop-color="#06171d"/><stop offset="1" stop-color="#102754"/></linearGradient><linearGradient id="b1dyf" x1="52.87" x2="63.06" y1="57.99" y2="57.99" gradientUnits="userSpaceOnUse"><stop offset="0" stop-color="#06171d"/><stop offset="1" stop-color="#102754"/></linearGradient></defs><g><g><g><g><g><path fill="url(#b1dya)" d="M77 33.797a71.895 71.895 0 0 0-3.804-13.29 34.671 34.671 0 0 1 16.084 2.778 6.718 6.718 0 0 0-.433 2.296A6.802 6.802 0 0 0 97 32.267c1.059 4.56-.388 10.08-4.139 15.903A73.412 73.412 0 0 0 77 33.797zM87.42 79.863a37.836 37.836 0 0 1-14.247 1.997A72.247 72.247 0 0 0 77 68.472a73.058 73.058 0 0 0 15.872-14.454c4.288 6.587 5.738 13.032 3.442 18.235a14.751 14.751 0 0 1-8.893 7.61zM51.328 98.91c-6.274 0-12.317-5.092-16.801-14.058a81.823 81.823 0 0 0 16.815-3.692 83.218 83.218 0 0 0 16.779 3.714c-4.486 8.94-10.525 14.036-16.793 14.036zM13.382 79.038zm.426-2.296a6.8 6.8 0 0 0-8.15-6.685c-1.05-4.56.387-10.08 4.138-15.903a73.507 73.507 0 0 0 15.86 14.373 71.944 71.944 0 0 0 3.8 13.29 34.68 34.68 0 0 1-16.074-2.78c.276-.734.42-1.51.426-2.295zm-6.82 3.413a3.411 3.411 0 1 1-.005-6.819 3.411 3.411 0 0 1 .005 6.817zM6.34 30.071a14.75 14.75 0 0 1 8.892-7.611 36.37 36.37 0 0 1 12.7-2.032c.502 0 1.016.04 1.537.053a71.926 71.926 0 0 0-3.828 13.381A72.997 72.997 0 0 0 9.769 48.315c-4.267-6.6-5.728-13.055-3.43-18.248zm30.646-16.887a6.75 6.75 0 0 0 2.402.46 6.82 6.82 0 0 0 6.823-6.821 6.788 6.788 0 0 0-.362-2.09 12.475 12.475 0 0 1 5.486-1.322c6.274 0 12.315 5.092 16.801 14.059a81.75 81.75 0 0 0-16.793 3.677 83.346 83.346 0 0 0-16.81-3.718c.731-1.463 1.55-2.88 2.453-4.245zm2.402-9.773a3.411 3.411 0 1 1 .005 6.823 3.411 3.411 0 0 1-.006-6.823zm23.254 22.212a103.478 103.478 0 0 0-5.935-2.538 73.498 73.498 0 0 1 12.896-2.344 64.763 64.763 0 0 1 3.369 10.447 104.168 104.168 0 0 0-10.33-5.565zm-37.786 38.13l-.001-.014.01.007zm-13.015-12.52a65.628 65.628 0 0 1 13.015-12.598 96.599 96.599 0 0 0-.001 25.104 66.92 66.92 0 0 1-13.014-12.507zM45.925 23.09l-.003-.001.003-.001zm-5.91 2.53a100.76 100.76 0 0 0-10.338 5.589A64.916 64.916 0 0 1 33.066 20.7a74.711 74.711 0 0 1 12.856 2.389 112.804 112.804 0 0 0-5.907 2.53zM33.05 81.582a64.78 64.78 0 0 1-3.367-10.45c3.338 2.05 6.79 3.91 10.338 5.568 1.98.925 3.968 1.751 5.953 2.53a73.329 73.329 0 0 1-12.916 2.352zm44.74-43.005v.004l-.008-.006zm13.026 12.514a65.688 65.688 0 0 1-13.018 12.597 94.36 94.36 0 0 0 .813-12.532 94.43 94.43 0 0 0-.82-12.575 66.92 66.92 0 0 1 13.025 12.51zm-15.62.07a89.087 89.087 0 0 1-1.297 15.29 95.84 95.84 0 0 1-12.71 7.163 97.37 97.37 0 0 1-9.892 3.978 98.727 98.727 0 0 1-9.846-3.98 98.216 98.216 0 0 1-12.707-7.126 90.982 90.982 0 0 1 0-30.613 95.85 95.85 0 0 1 12.711-7.164 97.782 97.782 0 0 1 9.865-3.967 97.76 97.76 0 0 1 22.587 11.098 88.994 88.994 0 0 1 1.297 15.322zM62.639 76.7a100.27 100.27 0 0 0 10.346-5.587 65 65 0 0 1-3.41 10.532 74.86 74.86 0 0 1-12.869-2.405 109.33 109.33 0 0 0 5.933-2.54zm36.44-51.118a3.411 3.411 0 1 1-6.822 0 3.411 3.411 0 0 1 6.823 0zm3.41-.002a6.786 6.786 0 0 0-11.266-5.129c-4.986-2.558-11.655-3.696-19.457-3.293C66.638 6.246 59.238 0 51.328 0c-2.546.024-5.05.658-7.3 1.849a6.792 6.792 0 0 0-9.82 9.358 44.482 44.482 0 0 0-3.31 5.935 42.333 42.333 0 0 0-16.864 2.13 18.244 18.244 0 0 0-10.815 9.425c-2.898 6.575-1.05 14.58 4.407 22.54-5.019 7.32-6.82 14.478-5.117 20.403a6.79 6.79 0 1 0 8.912 10.242 36.018 36.018 0 0 0 16.43 3.391c.985 0 2.015-.055 3.047-.107 5.124 10.914 12.524 17.162 20.44 17.162 7.916 0 15.3-6.248 20.42-17.154 1.016.053 2.032.105 3.007.105a39.74 39.74 0 0 0 13.855-2.218 18.248 18.248 0 0 0 10.815-9.426c2.9-6.575 1.05-14.58-4.405-22.537 5.017-7.314 6.821-14.479 5.116-20.405a6.782 6.782 0 0 0 2.343-5.112z"/></g><g><path fill="url(#b1dyb)" d="M66.676 47.748a1.707 1.707 0 0 1-1.706 1.704H37.684a1.705 1.705 0 0 1-1.704-1.704v-6.82c0-.94.763-1.704 1.704-1.704H64.97c.942 0 1.705.763 1.706 1.705zm0 13.647A1.707 1.707 0 0 1 64.97 63.1H37.684a1.705 1.705 0 0 1-1.704-1.705v-6.823c0-.941.763-1.704 1.704-1.704H64.97c.942 0 1.705.763 1.706 1.704zM32.568 47.748a5.08 5.08 0 0 0 1.331 3.411 5.08 5.08 0 0 0-1.33 3.41v6.822a5.116 5.116 0 0 0 5.115 5.116H64.97a5.118 5.118 0 0 0 5.122-5.112v-6.822a5.08 5.08 0 0 0-1.33-3.41 5.098 5.098 0 0 0 1.33-3.415v-6.82a5.118 5.118 0 0 0-5.118-5.115h-27.29a5.116 5.116 0 0 0-5.116 5.116z"/></g><g><path fill="url(#b1dyc)" d="M41.096 46.047H42.8a1.707 1.707 0 0 0 0-3.411h-1.704a1.707 1.707 0 1 0 0 3.411z"/></g><g><path fill="url(#b1dyd)" d="M54.737 46.047h6.821a1.707 1.707 0 0 0 0-3.411h-6.82a1.707 1.707 0 0 0 0 3.411z"/></g><g><path fill="url(#b1dye)" d="M42.8 56.281h-1.704a1.705 1.705 0 1 0 0 3.41H42.8a1.705 1.705 0 1 0 0-3.41z"/></g><g><path fill="url(#b1dyf)" d="M61.558 56.281h-6.82a1.705 1.705 0 1 0 0 3.41h6.82a1.705 1.705 0 1 0 0-3.41z"/></g></g></g></g></g></svg>