<svg id="icon" xmlns="http://www.w3.org/2000/svg" xmlns:xlink="http://www.w3.org/1999/xlink" width="141.416" height="163.293" viewBox="0 0 141.416 163.293">
  <defs>
    <clipPath id="clip-path">
      <path id="Path_142" data-name="Path 142" d="M43.677,137.505,49.6,127.249l22.677,13.092h0l6-3.464L92.6,128.606l5.137,8.9-27.03,15.606ZM8.818,117.379V86.193h13.62v25.374l19.375,11.187L35.89,133.01Zm91.57,6.732,17.988-10.385,3.739-2.159V86.193H132.6v31.185L105.525,133.01Zm-68.96-17.734V59.21L72.274,35.626,113.121,59.21v47.166L72.274,129.96ZM8.818,45.915,35.849,30.308l6.914,11.976L24.51,52.823l-2.073,1.2V77.2H8.818Zm90.619-4.987,6.132-10.62L132.6,45.915V77.2H122.112V61.849h0V54.019h0l-3.736-2.156h0Zm-55.8-15.116,27.073-15.63L97.78,25.813,91.65,36.432,73.093,25.718h0l-.816-.471L50.549,37.789ZM70.708,0,0,40.823v81.646l70.707,40.824h0l70.707-40.824V40.823Z" fill="#d2d5d2"/>
    </clipPath>
  </defs>
  <g id="Group_135" data-name="Group 135" clip-path="url(#clip-path)">
    <rect id="Rectangle_173" data-name="Rectangle 173" width="141.416" height="163.293" transform="translate(0 0)" fill="#d2d5d2"/>
  </g>
</svg>
