<svg id="text-row-img_1" xmlns="http://www.w3.org/2000/svg" xmlns:xlink="http://www.w3.org/1999/xlink" width="141" height="162.813" viewBox="0 0 141 162.813">
  <defs>
    <clipPath id="clip-path">
      <path id="Path_140" data-name="Path 140" d="M70.493,152.657h.014l-.007,0ZM30.934,106.571v-11.8L41.423,88.72,51.91,94.775v11.8l-10.488,6.055Zm59.369,0v-11.8l10.489-6.055,10.489,6.055v11.8l-10.489,6.055ZM75.619,70.76l2.043-1.18,9.587,16.606L81.34,89.6v22.149l8.7,5.027h0l1.909,1.1,8.838,5.1h0l5.774-3.333,5.281,9.146L75.619,149.705ZM50.26,117.876h0l1.91-1.1h0l8.7-5.027V89.6L54.645,86l9.6-16.636,2.4,1.389V150.44L29.744,129.131l5.583-9.671,6.095,3.518ZM60.652,56.938v-11.8l10.489-6.055,10.489,6.055v11.8L71.141,62.993Zm-51.861,60.1V45.78L70.5,10.153,132.209,45.78v71.255l-12.6,7.273-5.28-9.146,5.914-3.415V89.6l-8.293-4.789h0l-2.319-1.339v0l-8.836-5.1h0L95.013,81.7,85.426,65.1l5.168-2.985V39.965L82.3,35.176h0l-2.319-1.339h0l-8.835-5.1h0l-8.836,5.1h0l-2.319,1.339h0l-8.294,4.788v22.15l4.8,2.769-9.6,16.635-5.458-3.152h0l-8.836,5.1h0l-2.318,1.339h0L21.97,89.6v22.149l5.594,3.23-5.583,9.672ZM70.5,0,0,40.7V122.11l70.5,40.7h0l70.5-40.7V40.7Z" fill="#d2d5d2"/>
    </clipPath>
  </defs>
  <g id="Group_123" data-name="Group 123" clip-path="url(#clip-path)">
    <rect id="Rectangle_165" data-name="Rectangle 165" width="141" height="162.813" fill="#d2d5d2"/>
  </g>
</svg>
