<svg width="36" height="22" viewBox="0 0 36 22" fill="none" xmlns="http://www.w3.org/2000/svg">
    <path d="M14.9696 6.44392C15.1865 6.44392 15.3986 6.46318 15.6078 6.49223C15.5309 6.13358 15.4919 5.76782 15.4916 5.40102C15.4916 2.52129 17.826 0.185814 20.7061 0.185814C23.5081 0.185814 25.7878 2.39764 25.9095 5.1696C26.4831 4.64724 27.2309 4.35764 28.0068 4.35744C28.4177 4.35744 28.8246 4.43838 29.2043 4.59565C29.584 4.75291 29.929 4.98342 30.2196 5.27401C30.5102 5.5646 30.7407 5.90958 30.8979 6.28926C31.0552 6.66894 31.1361 7.07587 31.1361 7.48683C31.1359 7.86872 31.065 8.24728 30.927 8.60338C31.1635 8.55608 31.4078 8.52973 31.6571 8.52973C33.674 8.52973 35.3078 10.1645 35.3078 12.1801C35.3078 14.197 33.674 15.8307 31.6571 15.8307H14.9699C12.3774 15.8307 10.2764 13.7297 10.2764 11.1372C10.2764 8.54561 12.377 6.44392 14.9696 6.44392Z" fill="#9C9C9C"/>
    <path d="M6.26013 10.6791C6.51689 10.6791 6.76858 10.7027 7.01689 10.7365C6.92523 10.3108 6.8788 9.87665 6.87838 9.44122C6.87838 6.02433 9.64865 3.25541 13.0649 3.25541C16.3892 3.25541 19.0929 5.87906 19.2372 9.16757C19.9176 8.54743 20.805 8.20371 21.7257 8.20372C23.7757 8.20372 25.4375 9.86656 25.4375 11.9166C25.4375 12.3834 25.3473 12.8287 25.1902 13.2402C25.4753 13.1825 25.7655 13.1535 26.0564 13.1537C28.4476 13.1537 30.3868 15.0926 30.3868 17.4841C30.3868 19.8753 28.4476 21.8142 26.0564 21.8142H6.26013C3.1848 21.8142 0.692566 19.3216 0.692566 16.2466C0.692566 13.1713 3.1848 10.6791 6.26013 10.6791Z" fill="#CBCBCB"/>
</svg>
