<svg width="24" height="24" viewBox="0 0 24 24" fill="none" xmlns="http://www.w3.org/2000/svg">
    <path d="M4.51149 6.69054C4.71824 6.69054 4.92027 6.70912 5.12128 6.73683C5.04713 6.39413 5.00953 6.04454 5.00912 5.69392C5.00912 2.93987 7.24122 0.707771 9.99527 0.707771C12.6743 0.707771 14.8534 2.82264 14.9699 5.47264C15.5183 4.97297 16.2335 4.6961 16.9753 4.69628C17.3682 4.69628 17.7572 4.77368 18.1202 4.92404C18.4831 5.07441 18.8129 5.2948 19.0907 5.57263C19.3685 5.85046 19.5888 6.18029 19.7391 6.54328C19.8893 6.90627 19.9666 7.29531 19.9666 7.68818C19.9663 8.05293 19.8987 8.41451 19.7672 8.75473C19.9969 8.70827 20.2306 8.68485 20.4649 8.6848C22.3929 8.6848 23.9551 10.2473 23.9551 12.1747C23.9551 14.1024 22.3929 15.6649 20.4652 15.6649H4.51115C2.03311 15.6649 0.0229721 13.6554 0.0229721 11.1777C0.0229721 8.7 2.03344 6.69054 4.51149 6.69054Z" fill="#EFEFED"/>
    <path d="M16.0581 18.1389L16.201 17.7571C16.2348 17.6668 16.2505 17.5708 16.2471 17.4745C16.2438 17.3782 16.2215 17.2834 16.1816 17.1957C16.1417 17.108 16.0849 17.029 16.0144 16.9633C15.9439 16.8975 15.8612 16.8463 15.7709 16.8125C15.6807 16.7787 15.5847 16.763 15.4883 16.7664C15.392 16.7697 15.2973 16.792 15.2096 16.8319C15.1219 16.8718 15.0429 16.9287 14.9771 16.9991C14.9114 17.0696 14.8601 17.1523 14.8264 17.2426L14.6838 17.625C14.6477 17.7157 14.63 17.8128 14.6319 17.9104C14.6338 18.008 14.6551 18.1043 14.6947 18.1936C14.7343 18.2829 14.7912 18.3634 14.8623 18.4303C14.9334 18.4973 15.0171 18.5494 15.1086 18.5836C15.2001 18.6178 15.2974 18.6334 15.395 18.6295C15.4926 18.6256 15.5884 18.6022 15.6768 18.5608C15.7653 18.5194 15.8445 18.4607 15.91 18.3883C15.9755 18.3158 16.0258 18.231 16.0581 18.1389ZM14.1986 23.1098L14.6997 21.7713C14.7233 21.7082 14.7342 21.6411 14.7319 21.5738C14.7295 21.5065 14.714 21.4404 14.6861 21.3791C14.6581 21.3178 14.6184 21.2626 14.5691 21.2167C14.5199 21.1708 14.4621 21.135 14.399 21.1115L13.9848 20.9561C13.8575 20.9086 13.7166 20.9136 13.593 20.97C13.4694 21.0264 13.3733 21.1295 13.3257 21.2568L12.8247 22.5963C12.8011 22.6593 12.7901 22.7263 12.7924 22.7935C12.7947 22.8608 12.8103 22.9269 12.8382 22.9881C12.8661 23.0493 12.9058 23.1044 12.955 23.1503C13.0042 23.1962 13.062 23.2319 13.125 23.2554L13.5392 23.4105C13.6022 23.4342 13.6693 23.4452 13.7366 23.4429C13.8039 23.4406 13.8701 23.425 13.9314 23.3971C13.9926 23.3692 14.0478 23.3294 14.0937 23.2801C14.1395 23.2308 14.1752 23.1729 14.1986 23.1098ZM11.1605 20.0642L11.7622 18.4541C11.7858 18.391 11.7968 18.3239 11.7945 18.2566C11.7922 18.1893 11.7766 18.1231 11.7487 18.0618C11.7207 18.0005 11.681 17.9453 11.6317 17.8994C11.5824 17.8535 11.5246 17.8178 11.4615 17.7943L11.0473 17.6395C10.9843 17.6159 10.9172 17.6049 10.8499 17.6072C10.7826 17.6095 10.7164 17.6251 10.6552 17.653C10.5939 17.681 10.5388 17.7207 10.4929 17.77C10.447 17.8193 10.4113 17.8771 10.3878 17.9402L9.78615 19.55C9.76254 19.613 9.75158 19.6801 9.75389 19.7473C9.75621 19.8146 9.77176 19.8807 9.79965 19.942C9.82754 20.0032 9.86723 20.0584 9.91645 20.1043C9.96567 20.1502 10.0234 20.1859 10.0865 20.2095L10.501 20.3649C10.6283 20.4124 10.7693 20.4075 10.893 20.3511C11.0167 20.2947 11.1129 20.1915 11.1605 20.0642ZM10.2514 22.4943L10.3432 22.2476C10.4043 22.0671 10.3927 21.8698 10.311 21.6976C10.2292 21.5255 10.0837 21.3918 9.90519 21.325C9.72668 21.2582 9.52918 21.2634 9.35445 21.3395C9.17972 21.4157 9.04146 21.5568 8.96892 21.7331L8.87635 21.9804C8.80821 22.1627 8.81529 22.3647 8.89604 22.5418C8.97679 22.7189 9.12459 22.8567 9.30693 22.9248C9.48926 22.993 9.6912 22.9859 9.86831 22.9051C10.0454 22.8244 10.1832 22.6766 10.2514 22.4943ZM8.56926 16.0922L8.81385 15.4385C8.84757 15.3483 8.86318 15.2523 8.8598 15.156C8.85642 15.0597 8.83411 14.9651 8.79414 14.8774C8.75417 14.7898 8.69733 14.7108 8.62687 14.6452C8.5564 14.5795 8.47369 14.5283 8.38345 14.4946C8.29321 14.4609 8.19721 14.4453 8.10094 14.4486C8.00466 14.452 7.91 14.4743 7.82235 14.5143C7.7347 14.5543 7.65577 14.6111 7.59009 14.6816C7.52441 14.752 7.47324 14.8348 7.43953 14.925L7.19527 15.5784C7.1571 15.6695 7.13773 15.7674 7.13831 15.8663C7.13889 15.9651 7.15941 16.0627 7.19865 16.1534C7.23788 16.2441 7.29503 16.326 7.36665 16.394C7.43827 16.4621 7.5229 16.515 7.61547 16.5496C7.70803 16.5842 7.80662 16.5998 7.90534 16.5953C8.00406 16.5909 8.10086 16.5666 8.18995 16.5238C8.27905 16.4811 8.35859 16.4208 8.42383 16.3466C8.48906 16.2724 8.5383 16.1861 8.56926 16.0922ZM6.87973 20.6115L7.48142 19.0024C7.50514 18.9393 7.51619 18.8721 7.51393 18.8048C7.51166 18.7374 7.49614 18.6712 7.46824 18.6098C7.44035 18.5485 7.40062 18.4932 7.35135 18.4473C7.30207 18.4013 7.24421 18.3655 7.18108 18.3419L6.76655 18.1872C6.63918 18.1397 6.49817 18.1447 6.37446 18.201C6.25076 18.2574 6.15448 18.3606 6.10676 18.4878L5.50541 20.0976C5.4818 20.1607 5.47086 20.2278 5.4732 20.295C5.47554 20.3623 5.49112 20.4284 5.51904 20.4897C5.54697 20.5509 5.58669 20.6061 5.63594 20.652C5.6852 20.6978 5.74301 20.7336 5.80608 20.7571L6.21959 20.9125C6.34701 20.9601 6.48811 20.9552 6.61189 20.8988C6.73567 20.8424 6.83201 20.7389 6.87973 20.6115Z" fill="#3B3C40"/>
</svg>
