<svg xmlns="http://www.w3.org/2000/svg" xmlns:xlink="http://www.w3.org/1999/xlink" width="199.265" height="81.878" viewBox="0 0 199.265 81.878">
  <defs>
    <clipPath id="clip-path">
      <path id="Path_6025" data-name="Path 6025" d="M0,25.169H199.265V-56.709H0Z" transform="translate(0 56.709)" fill="none"/>
    </clipPath>
  </defs>
  <g id="alscient-logo" transform="translate(0 56.709)">
    <g id="Group_562" data-name="Group 562" transform="translate(0 -56.709)" clip-path="url(#clip-path)">
      <g id="Group_560" data-name="Group 560" transform="translate(53.802 52.745)">
        <path id="Path_6023" data-name="Path 6023" d="M5.23,3.518C2.962,3.106.616,3.06-1.606,2.5-2.49,2.272-3.865.891-3.727.389c.264-.963,1.4-2.307,2.258-2.368a16.4,16.4,0,0,1,6.451.668c1.692.595,2.613.4,3.764-.8a16.565,16.565,0,0,1,2.906-1.978C6.463-8.426-2.07-9.08-6.849-6.084a8.19,8.19,0,0,0-3.815,8.654C-10.093,5.839-7.943,8-4.337,8.72c1.848.371,3.741.515,5.612.777,1.652.231,3.659.193,3.682,2.528C4.98,14.45,2.92,14.99,1.173,14.811c-3.025-.312-6-1.128-8.849-1.7-1.227,1.136-2.668,2.473-4.108,3.807,4,4.391,13.859,5.7,19.535,2.579a8.848,8.848,0,0,0,4.437-9.321c-.6-3.7-2.843-5.907-6.958-6.655" transform="translate(11.784 7.926)" fill="#fff"/>
      </g>
      <g id="Group_561" data-name="Group 561" transform="translate(82.568 52.53)">
        <path id="Path_6024" data-name="Path 6024" d="M5.3,6.354C-.4,10.183-4.643,8.189-5.014,1.676a18.182,18.182,0,0,1,.432-5.3c.918-3.74,4.469-5.18,7.891-3.368.7.37,1.349.833,1.562.966l5.186-4.428A13.226,13.226,0,0,0-2.889-13.867c-4.457,1.029-7.716,3.833-8.532,8.3a34.591,34.591,0,0,0-.128,11.175c.693,4.593,3.754,7.724,8.357,8.856,4.882,1.2,9.305.2,13.634-3.929C9.414,9.822,8.519,9.275,7.715,8.613,6.849,7.9,6.07,7.081,5.3,6.354" transform="translate(11.94 14.316)" fill="#fff"/>
      </g>
    </g>
    <path id="Path_6026" data-name="Path 6026" d="M76.306,8.265H83V-20.061h-6.7Z" transform="translate(33.867 16.265)" fill="#fff"/>
    <g id="Group_566" data-name="Group 566" transform="translate(0 -56.709)" clip-path="url(#clip-path)">
      <g id="Group_563" data-name="Group 563" transform="translate(38.145 42.426)">
        <path id="Path_6027" data-name="Path 6027" d="M3.791,10.178c-5.172-.655-5.173-.655-5.173-5.843V-22.932H-8.517c0,10.813-.082,21.412.051,32.008A6.8,6.8,0,0,0-3.011,15.62a55.351,55.351,0,0,0,6.852.6c.074-1.525.162-2.455.149-3.383-.013-.908-.131-1.815-.2-2.664" transform="translate(8.542 22.932)" fill="#fff"/>
      </g>
      <g id="Group_564" data-name="Group 564" transform="translate(53.624 0.001)">
        <path id="Path_6028" data-name="Path 6028" d="M31.295,3.158Q-19.615-17.38-70.512,3.09a222.878,222.878,0,0,1,101.807.068" transform="translate(70.512 7.115)" fill="#fff"/>
      </g>
      <g id="Group_565" data-name="Group 565" transform="translate(184.166 45.595)">
        <path id="Path_6029" data-name="Path 6029" d="M3.266,8.622C2.862,3.886,3.081-.9,3.081-5.643l4.453-.232v-5.282l-4.8-.342v-7.927H-4.453v7.772l-2.906.739v4.951l2.927.426c0,4.011.231,7.8-.048,11.54C-5.1,14.319.215,17.624,7.741,16.039V11.492c-1.93-1.181-4.394-1.925-4.474-2.87" transform="translate(7.359 19.426)" fill="#fff"/>
      </g>
    </g>
    <path id="Path_6031" data-name="Path 6031" d="M76.274-21.807h6.9v-5.606h-6.9Z" transform="translate(33.852 13.002)" fill="#fff"/>
    <g id="Group_571" data-name="Group 571" transform="translate(0 -56.709)" clip-path="url(#clip-path)">
      <g id="Group_567" data-name="Group 567" transform="translate(26.575 8.964)">
        <path id="Path_6032" data-name="Path 6032" d="M0,4.873a330.683,330.683,0,0,1,155.484-.094C103.639-16.344,51.809-16.151,0,4.873" transform="translate(0 10.979)" fill="#fff"/>
      </g>
      <g id="Group_568" data-name="Group 568" transform="translate(155.402 52.395)">
        <path id="Path_6033" data-name="Path 6033" d="M2.276.66C.306-2.574-2.568-.536-5.129-1.109V27.4H1.745c.071-1.05.183-1.965.188-2.88.02-4.727-.036-9.456.03-14.181C2.009,7,3.735,5.081,6.5,5.056s4.571,1.868,4.718,5.185c.111,2.517.035,5.042.038,7.563q0,4.806,0,9.612h7.19c0-6.128.049-11.9-.01-17.661C18.336-.219,10.773-4.382,2.276.66" transform="translate(5.129 1.487)" fill="#fff"/>
      </g>
      <g id="Group_569" data-name="Group 569" transform="translate(0 42.293)">
        <path id="Path_6034" data-name="Path 6034" d="M6.435.8C5.69-1.28,4.662-1.874,2.564-1.807c-2.04.066-3.371.231-4.2,2.6-4,11.483-8.247,22.877-12.391,34.31a17.785,17.785,0,0,0-.476,2.024c7.034.631,6.977.6,9.655-5.053A3.454,3.454,0,0,1-2.326,30.53c3.136-.188,6.3.079,9.433-.127,2.029-.134,2.971.7,3.185,2.5.45,3.8,2.579,5.088,6.2,4.456a22.4,22.4,0,0,1,3.319-.025C15.2,24.8,10.732,12.831,6.435.8M7.32,23.81H-2.154c1.529-4.368,3.016-8.618,4.8-13.722Z" transform="translate(14.499 1.812)" fill="#fff"/>
      </g>
      <g id="Group_570" data-name="Group 570" transform="translate(124.022 52.246)">
        <path id="Path_6035" data-name="Path 6035" d="M2.943,6.911A4.735,4.735,0,0,1,.388,1.582H18.242a67.873,67.873,0,0,0-.888-8.129A11.641,11.641,0,0,0,6.52-15.533C.645-15.91-3.841-13.5-5.5-8.024a30.976,30.976,0,0,0-1.021,11.1c.384,5.1,3.161,8.947,8.428,10.146,5.658,1.286,10.962.661,15.339-4.073C15.73,7.714,14.393,6.44,13.008,5.125c-3.169,2.5-6.47,3.634-10.065,1.786M5.317-9.2c3.3-.036,5,1.753,5.248,5.67H.307C.318-7.289,1.995-9.166,5.317-9.2" transform="translate(6.632 15.571)" fill="#fff"/>
      </g>
    </g>
  </g>
</svg>
