<svg xmlns="http://www.w3.org/2000/svg" width="45.191" height="41.064" viewBox="0 0 45.191 41.064">
  <g id="card-11-img_2" transform="translate(-503.192 -3604.591)">
    <path id="Path_1919" data-name="Path 1919" d="M505.1,3887.26a12.63,12.63,0,0,1-3.267-1.592c-.052-.155-.123-.329-.2-.517a2.618,2.618,0,0,1-.279-.936,16.335,16.335,0,0,1,.94-4.348,5,5,0,0,0,1.257-1.529,5.337,5.337,0,0,0,.392-3.063,1.4,1.4,0,0,0-.247-.594c.026-.157.057-.333.092-.524a26.508,26.508,0,0,0,.382-2.805,11.337,11.337,0,0,0,0-2.09c-.352-4.5-4.044-5.373-5.621-5.746l-.373-.091a1.282,1.282,0,0,0-.209-.038,19.71,19.71,0,0,0-4.371,0c-.453.041-.94.084-1.529.119a6.992,6.992,0,0,1-3.164-.581,1.4,1.4,0,0,0-2,.948,23.749,23.749,0,0,0-.44,5.921c.13,1.936.39,3.716.549,4.687a3.276,3.276,0,0,0-.429,2.25,4.68,4.68,0,0,0,1.619,2.973c.891,2.161,1.517,4.478,1.364,5.061-.209.512-2.024,1.647-3.225,2.4a38.448,38.448,0,0,0-4.13,2.847c-4.489,2.671-5.3,10.516-5.335,10.851a1.4,1.4,0,0,0,1.391,1.535h0l35.059-.041a1.4,1.4,0,0,0,1.39-1.527c-.065-.7-.712-6.951-3.35-9.995C509.89,3889.154,507.343,3888.147,505.1,3887.26Zm-25.21,12.339c.47-2.38,1.613-5.976,3.809-7.223a1.345,1.345,0,0,0,.209-.144,35.219,35.219,0,0,1,3.909-2.7c2.256-1.412,4.04-2.526,4.44-4.036.521-1.964-1.113-6.02-1.626-7.216a1.384,1.384,0,0,0-.509-.612,2.02,2.02,0,0,1-.765-1.247,2.137,2.137,0,0,1-.014-.314,1.4,1.4,0,0,0,.543-1.384,49.008,49.008,0,0,1-.639-5.116,19.533,19.533,0,0,1,.133-3.58,9.71,9.71,0,0,0,2.845.27c.621-.036,1.138-.082,1.617-.125a16.92,16.92,0,0,1,3.74-.017c.1.025.207.051.32.077,1.86.443,3.3.961,3.477,3.245a8.6,8.6,0,0,1,0,1.667,23.6,23.6,0,0,1-.347,2.518c-.066.369-.122.686-.153.935a2.163,2.163,0,0,0,.33,1.458,2.308,2.308,0,0,1-.135.978,2.216,2.216,0,0,1-.66.75h0a1.4,1.4,0,0,0-.592.693,19.835,19.835,0,0,0-1.266,5.646,4.936,4.936,0,0,0,.5,2.124c.049.116.1.221.126.313l.005.016c.505,1.554,2.437,2.317,4.883,3.284,1.951.771,4.163,1.644,5.18,2.809,1.344,1.552,2.119,4.755,2.471,6.894Z" transform="translate(26.333 -256.742)" fill="#e52558"/>
    <g id="Group_126" data-name="Group 126" transform="translate(536.359 3605.277)">
      <path id="Path_1920" data-name="Path 1920" d="M502.392,3873.2h3.366a6.521,6.521,0,0,1,.313,1.084,6.061,6.061,0,0,1,.114,1.2,5.343,5.343,0,0,1-.171,1.369,5.539,5.539,0,0,1-.6,1.383,12.866,12.866,0,0,1-1.128,1.582q-.7.855-1.754,1.911l.426,1.056a14.492,14.492,0,0,1,1.485-.285,10.272,10.272,0,0,1,1.454-.114,7.1,7.1,0,0,1,1.213.1q.555.1,1.1.214c.362.077.729.147,1.1.214a6.707,6.707,0,0,0,1.185.1,7.411,7.411,0,0,0,3.08-.685l-.37-1.142a12.462,12.462,0,0,1-1.442.413,5.781,5.781,0,0,1-1.183.128,5.511,5.511,0,0,1-1.012-.086c-.314-.056-.633-.117-.957-.184s-.66-.129-1.011-.186a7.417,7.417,0,0,0-1.156-.085,9.711,9.711,0,0,0-2.055.229q.857-.941,1.456-1.711a9.821,9.821,0,0,0,.969-1.485,5.793,5.793,0,0,0,.529-1.4,6.4,6.4,0,0,0,.156-1.425,6.206,6.206,0,0,0-.1-1.142,7.785,7.785,0,0,0-.27-1.056h4.536v-1.169h-5.022q-.314-.657-.683-1.269t-.686-1.213a8.012,8.012,0,0,1-.513-1.212,4.086,4.086,0,0,1-.2-1.269,3.527,3.527,0,0,1,.286-1.426,3.851,3.851,0,0,1,.77-1.156,3.615,3.615,0,0,1,1.126-.784,3.38,3.38,0,0,1,1.383-.286,4.232,4.232,0,0,1,2.311.713,5.353,5.353,0,0,1,1.8,1.939l.912-.885a6.429,6.429,0,0,0-2.139-2.181,5.268,5.268,0,0,0-2.823-.813,4.932,4.932,0,0,0-1.941.386,5,5,0,0,0-1.582,1.041,5.07,5.07,0,0,0-1.07,1.525,4.434,4.434,0,0,0-.4,1.87,4.55,4.55,0,0,0,.2,1.354,8.365,8.365,0,0,0,.5,1.242c.2.4.42.8.657,1.2s.47.808.7,1.227h-2.853Z" transform="translate(-502.392 -3862.193)" fill="none" stroke="#d33b5b" stroke-miterlimit="10" stroke-width="0.746"/>
      <path id="Path_1921" data-name="Path 1921" d="M502.392,3873.2h3.366a6.521,6.521,0,0,1,.313,1.084,6.061,6.061,0,0,1,.114,1.2,5.343,5.343,0,0,1-.171,1.369,5.539,5.539,0,0,1-.6,1.383,12.866,12.866,0,0,1-1.128,1.582q-.7.855-1.754,1.911l.426,1.056a14.492,14.492,0,0,1,1.485-.285,10.272,10.272,0,0,1,1.454-.114,7.1,7.1,0,0,1,1.213.1q.555.1,1.1.214c.362.077.729.147,1.1.214a6.707,6.707,0,0,0,1.185.1,7.411,7.411,0,0,0,3.08-.685l-.37-1.142a12.462,12.462,0,0,1-1.442.413,5.781,5.781,0,0,1-1.183.128,5.511,5.511,0,0,1-1.012-.086c-.314-.056-.633-.117-.957-.184s-.66-.129-1.011-.186a7.417,7.417,0,0,0-1.156-.085,9.711,9.711,0,0,0-2.055.229q.857-.941,1.456-1.711a9.821,9.821,0,0,0,.969-1.485,5.793,5.793,0,0,0,.529-1.4,6.4,6.4,0,0,0,.156-1.425,6.206,6.206,0,0,0-.1-1.142,7.785,7.785,0,0,0-.27-1.056h4.536v-1.169h-5.022q-.314-.657-.683-1.269t-.686-1.213a8.012,8.012,0,0,1-.513-1.212,4.086,4.086,0,0,1-.2-1.269,3.527,3.527,0,0,1,.286-1.426,3.851,3.851,0,0,1,.77-1.156,3.615,3.615,0,0,1,1.126-.784,3.38,3.38,0,0,1,1.383-.286,4.232,4.232,0,0,1,2.311.713,5.353,5.353,0,0,1,1.8,1.939l.912-.885a6.429,6.429,0,0,0-2.139-2.181,5.268,5.268,0,0,0-2.823-.813,4.932,4.932,0,0,0-1.941.386,5,5,0,0,0-1.582,1.041,5.07,5.07,0,0,0-1.07,1.525,4.434,4.434,0,0,0-.4,1.87,4.55,4.55,0,0,0,.2,1.354,8.365,8.365,0,0,0,.5,1.242c.2.4.42.8.657,1.2s.47.808.7,1.227h-2.853Z" transform="translate(-502.392 -3862.193)" fill="none" stroke="#d33b5b" stroke-width="1.372"/>
    </g>
  </g>
</svg>
