<svg xmlns="http://www.w3.org/2000/svg" width="42.813" height="39.355" viewBox="0 0 42.813 39.355">
  <g id="card-11-img_1" transform="translate(-76.152 -3606.3)">
    <g id="Group_329" data-name="Group 329" transform="translate(-615.936 2588.369)">
      <path id="Path_5789" data-name="Path 5789" d="M714.153,1057.286l15.518-15.793a12.522,12.522,0,0,0,2.693-2.741l1.944-1.976-.715-.09a13.451,13.451,0,0,0,1.308-5.821c0-7.132-5.457-12.934-12.168-12.934a11.938,11.938,0,0,0-9.234,4.532,11.759,11.759,0,0,0-9.244-4.532c-6.709,0-12.168,5.8-12.168,12.934a13.537,13.537,0,0,0,1.813,6.78l-.478.156,1.678,1.57a12.54,12.54,0,0,0,2.358,2.218Zm-16.975-19.753-.011-.014a10.643,10.643,0,0,1-2.306-6.654c0-5.6,4.215-10.163,9.4-10.163a9.209,9.209,0,0,1,8.03,4.91l1.209,2.155,1.208-2.155a9.21,9.21,0,0,1,8.03-4.91c5.181,0,9.4,4.56,9.4,10.163a10.6,10.6,0,0,1-1.924,6.138l-.041.06a9.8,9.8,0,0,1-2.216,2.256l-13.873,14.09-14.787-13.9-.15-.123a9.73,9.73,0,0,1-1.946-1.832Z" fill="#e52558"/>
      <path id="Path_5790" data-name="Path 5790" d="M703.842,1034.678h4.621v4.622a.552.552,0,0,0,.537.537h1.5a.552.552,0,0,0,.538-.537v-4.622h4.621a.55.55,0,0,0,.537-.537v-1.5a.527.527,0,0,0-.537-.537h-4.621v-4.622a.552.552,0,0,0-.538-.537H709a.552.552,0,0,0-.537.537v4.622h-4.621a.551.551,0,0,0-.538.537v1.5A.551.551,0,0,0,703.842,1034.678Z" transform="translate(4.11 3.301)" fill="#e52558"/>
    </g>
  </g>
</svg>
