<svg xmlns="http://www.w3.org/2000/svg" width="34.043" height="24.338" viewBox="0 0 34.043 24.338">
  <g id="card-2-img_31" transform="translate(2.008 19.838)">
    <path id="Path_6082" data-name="Path 6082" d="M.455,4.5H19.492a2.466,2.466,0,0,0,2.463-2.463V-1.273l7.362,4.139h.254A2.466,2.466,0,0,0,32.035.4V-16.068a2.467,2.467,0,0,0-2.463-2.463h-.229l-7.387,3.693v-2.536a2.466,2.466,0,0,0-2.463-2.463H.455a2.467,2.467,0,0,0-2.463,2.463V2.036A2.467,2.467,0,0,0,.455,4.5M6.882-17.9h12.61a.529.529,0,0,1,.523.523V-11.7l9.726-4.863a.53.53,0,0,1,.353.493V.4a.531.531,0,0,1-.334.486L20.015-4.592V2.036a.529.529,0,0,1-.523.523H6.879Zm-6.949.523A.529.529,0,0,1,.455-17.9H4.641l0,20.456H.455a.529.529,0,0,1-.523-.523Z" fill="#f49c20"/>
  </g>
</svg>
