<svg xmlns="http://www.w3.org/2000/svg" xmlns:xlink="http://www.w3.org/1999/xlink" width="23.083" height="32.588" viewBox="0 0 23.083 32.588">
  <defs>
    <clipPath id="clip-path">
      <path id="Path_6040" data-name="Path 6040" d="M0,1.945H23.083V-30.643H0Z" transform="translate(0 30.643)" fill="#f79000"/>
    </clipPath>
  </defs>
  <g id="cars-2-img_22" transform="translate(0 30.643)">
    <g id="Group_576" data-name="Group 576" transform="translate(0 -30.643)" clip-path="url(#clip-path)">
      <g id="Group_573" data-name="Group 573" transform="translate(4.074 0)">
        <path id="Path_6037" data-name="Path 6037" d="M.851,1.54H-12.727V-.5a2.069,2.069,0,0,1,1.911-2.025C-9.8-2.71-8.653-3.09-8.653-3.891V-5.249c0-1.13-.809-1.746-2.143-2.625-1.223-.806-2.61-1.72-2.61-3.485v-12.9H1.53v12.9C1.53-9.594.143-8.68-1.08-7.874-2.413-7-3.222-6.38-3.222-5.249v1.358c0,.8,1.15,1.182,2.113,1.36A2.092,2.092,0,0,1,.851-.5ZM-11.369.182H-.507V-.5c0-.133,0-.539-.805-.691-2.709-.5-3.268-1.746-3.268-2.7V-5.249c0-1.944,1.462-2.908,2.752-3.758,1.244-.82,2-1.387,2-2.351V-22.9H-12.048v11.542c0,.965.755,1.531,2,2.351C-8.759-8.157-7.3-7.193-7.3-5.249v1.358c0,.957-.559,2.2-3.224,2.7-.849.16-.849.566-.849.7Z" transform="translate(13.406 24.259)" fill="#f79000"/>
      </g>
      <g id="Group_574" data-name="Group 574" transform="translate(0 2.037)">
        <path id="Path_6038" data-name="Path 6038" d="M.243.608h-.8a2.02,2.02,0,0,1-1.44-.6l-.844-.843a3.377,3.377,0,0,1-.993-2.4V-9.576H.922v1.358H-2.473v4.985a2.028,2.028,0,0,0,.6,1.441l.844.843a.682.682,0,0,0,.48.2h.8Z" transform="translate(3.83 9.576)" fill="#f79000"/>
      </g>
      <g id="Group_575" data-name="Group 575" transform="translate(18.331 2.037)">
        <path id="Path_6039" data-name="Path 6039" d="M.088.608h-.8V-.75h.8a.676.676,0,0,0,.481-.2l.843-.843a2.024,2.024,0,0,0,.6-1.441V-8.218H-1.386V-9.576H3.366v6.343a3.374,3.374,0,0,1-.994,2.4L1.528.011a2.023,2.023,0,0,1-1.44.6" transform="translate(1.386 9.576)" fill="#f79000"/>
      </g>
    </g>
    <path id="Path_6041" data-name="Path 6041" d="M2.553.486H20.206V-7.661H2.553Zm0-8.147M3.911-6.3H18.847V-.872H3.911Z" transform="translate(0.162 1.459)" fill="#f79000"/>
  </g>
</svg>
