<svg xmlns="http://www.w3.org/2000/svg" width="28" height="26" viewBox="0 0 28 26"><g><g><g><path fill="#e52558" d="M8.172 4.57h11.674V2.235H8.172zM0 5.737a3.505 3.505 0 0 1 3.502-3.502h2.335V-.1H22.18v7.004H5.837V4.57H3.502c-.643 0-1.167.523-1.167 1.167v4.67c0 .644.524 1.167 1.167 1.167v2.335A3.506 3.506 0 0 1 0 10.407zm8.172 8.172h11.674v-2.335H8.172zm16.343 7.004c.644 0 1.168-.523 1.168-1.166V15.15c0-.66-.547-1.24-1.172-1.24h-2.33v2.334H5.837V9.239H22.18v2.335h2.33c1.9 0 3.507 1.638 3.507 3.576v4.597a3.506 3.506 0 0 1-3.503 3.501zM8.172 23.248h11.674v-2.335H8.172zm-2.335 2.335V18.58H22.18v7.004z"/></g></g></g></svg>