<svg xmlns="http://www.w3.org/2000/svg" width="79" height="86" viewBox="0 0 79 86"><g><g><g><path fill="#e52558" d="M55.26 23.369c-.58 0-1.051-.47-1.051-1.05V1.308a1.05 1.05 0 1 1 2.1 0v21.01c0 .58-.47 1.05-1.05 1.05z"/></g><g><path fill="#e52558" d="M55.26 83.242c-.58 0-1.051-.47-1.051-1.05V28.62a1.05 1.05 0 1 1 2.1 0v53.572c0 .58-.47 1.05-1.05 1.05z"/></g><g><path fill="#e52558" d="M56.31 5.51h10.504v8.404H56.31zm12.605 9.455V4.46c0-.58-.47-1.05-1.05-1.05H55.258c-.58 0-1.05.47-1.05 1.05v10.505c0 .58.47 1.05 1.05 1.05h12.605c.58 0 1.05-.47 1.05-1.05z"/></g><g><path fill="#e52558" d="M77.318 12.864h-9.454a1.05 1.05 0 1 1 0-2.101h7.599L73.266 7.1c-.2-.332-.2-.748 0-1.08l2.197-3.661h-9.7v2.102a1.05 1.05 0 1 1-2.1 0V1.309c0-.58.47-1.05 1.05-1.05h12.605a1.05 1.05 0 0 1 .9 1.59l-2.826 4.712 2.827 4.712a1.05 1.05 0 0 1-.901 1.59z"/></g><g><g><g><path fill="#2d7da5" d="M37.004 75.856a1.05 1.05 0 0 1-1.042-.933l-1.593-14.239-8.465-6.691-.06 19.766a1.05 1.05 0 0 1-1.05 1.047h-.003a1.051 1.051 0 0 1-1.047-1.053l.066-21.928a1.05 1.05 0 0 1 1.701-.82l10.504 8.303c.22.174.362.428.393.708l1.641 14.673a1.05 1.05 0 0 1-1.045 1.167z"/></g><g><path fill="#2d7da5" d="M44.948 78.81a1.05 1.05 0 0 1-1.047-.986l-1.053-17.41a5.022 5.022 0 0 0-1.465-3.281l-7.812-7.813a1.049 1.049 0 0 1-.308-.742V29.67a1.05 1.05 0 0 1 1.278-1.026l9.17 2.039 9.178-3.06c.107-.035.22-.054.332-.054H57.2c.123 0 .224-.1.224-.223V23.59c0-.123-.1-.223-.224-.223h-3.862l-9.342 2.076c-.176.039-.362.032-.536-.022l-13.563-4.154-13.432.098a1.103 1.103 0 0 1-.618-.196l-7.352-5.252a1.05 1.05 0 0 1-.39-1.177l2.984-9.223c.187-.515.159-1.03-.068-1.486a1.822 1.822 0 0 0-1.105-.938 1.822 1.822 0 0 0-1.407.134c-.435.233-.753.62-.895 1.094L3.977 16.424l12.21 13.595c.174.193.27.442.27.702v46.842a1.05 1.05 0 1 1-2.101 0v-46.44L2.02 17.388a1.05 1.05 0 0 1-.224-1.004L5.6 3.717A3.914 3.914 0 0 1 7.52 1.375a3.923 3.923 0 0 1 3.014-.29 3.907 3.907 0 0 1 2.369 2.013c.485.977.546 2.08.172 3.103l-2.734 8.455 6.45 4.607 13.252-.097c.095-.001.213.015.315.046l13.452 4.121 9.184-2.042a1.07 1.07 0 0 1 .228-.024H57.2a2.327 2.327 0 0 1 2.325 2.325v3.754a2.327 2.327 0 0 1-2.325 2.324h-3.808L44.1 32.767a1.05 1.05 0 0 1-.56.03l-8.176-1.817v17.163l7.505 7.504a7.117 7.117 0 0 1 2.076 4.644l1.052 17.406a1.05 1.05 0 0 1-1.049 1.114z"/></g><g><path fill="#2d7da5" d="M30.112 8.761c0 2.908-1.375 6.303-5.252 6.303-3.876 0-5.252-3.395-5.252-6.303 0-2.907 1.376-6.302 5.252-6.302 3.877 0 5.252 3.395 5.252 6.302zm2.101 0c0-5.026-2.955-8.403-7.353-8.403s-7.353 3.377-7.353 8.403c0 5.027 2.955 8.403 7.353 8.403s7.353-3.376 7.353-8.403z"/></g></g></g><g><path fill="#2d7da5" d="M58.998 85.617c-.143 0-.288-.029-.427-.09L30.047 72.834 1.473 85.354A1.05 1.05 0 1 1 .63 83.43l28.998-12.705c.27-.118.578-.12.849.002l28.949 12.88a1.051 1.051 0 0 1-.428 2.01z"/></g></g></g></svg>