<svg xmlns="http://www.w3.org/2000/svg" width="27" height="30" viewBox="0 0 27 30"><g><g><g><path fill="#e52558" d="M27 20.076v2.436H16.426l1.351-2.436zM7.515 22.512l-1.361 2.436H.213v-2.436zm-2.661-4.84a.85.85 0 0 0 .096.804.886.886 0 0 0 .742.383h5.028c1.036 0 1.97.536 2.502 1.434.537.906.555 1.996.05 2.913L9.6 29.818H6.815l4.326-7.789c.12-.22.03-.42-.015-.496a.46.46 0 0 0-.406-.239H5.692a3.31 3.31 0 0 1-3.119-4.477l1.706-4.555a2.91 2.91 0 0 1 4.666-1.142l5.931 5.328h5.33l4.52-7.91 2.114 1.207-5.222 9.114h-7.674l-6.626-5.927a.454.454 0 0 0-.429-.108.459.459 0 0 0-.33.293zM11.17 5.47a2.442 2.442 0 0 0 2.439 2.439 2.442 2.442 0 0 0 2.439-2.439 2.442 2.442 0 0 0-2.44-2.44 2.442 2.442 0 0 0-2.438 2.44zm-2.435 0A4.88 4.88 0 0 1 13.61.595a4.88 4.88 0 0 1 4.874 4.875 4.88 4.88 0 0 1-4.874 4.874A4.88 4.88 0 0 1 8.736 5.47z"/></g></g></g></svg>