<svg xmlns="http://www.w3.org/2000/svg" xmlns:xlink="http://www.w3.org/1999/xlink" width="34.19" height="24.533" viewBox="0 0 34.19 24.533">
  <defs>
    <clipPath id="clip-path">
      <path id="Path_6096" data-name="Path 6096" d="M0-2.949H34.19V-27.482H0Z" transform="translate(0 27.482)" fill="#f49c20"/>
    </clipPath>
  </defs>
  <g id="card-2-img_32" transform="translate(0 27.482)">
    <g id="Group_637" data-name="Group 637" transform="translate(0 -27.482)" clip-path="url(#clip-path)">
      <g id="Group_629" data-name="Group 629" transform="translate(0.223 0.223)">
        <path id="Path_6088" data-name="Path 6088" d="M-2.9,0A1.973,1.973,0,0,0-4.863,1.827L-23.4,7.351a1.839,1.839,0,0,0-1.5-.781h-.262a1.842,1.842,0,0,0-1.84,1.84v7.267a1.841,1.841,0,0,0,1.84,1.84h.262a1.839,1.839,0,0,0,1.5-.781l3.039.905-.164.553a1.284,1.284,0,0,0,.864,1.6l6.218,1.845a1.26,1.26,0,0,0,.367.054,1.272,1.272,0,0,0,.61-.156,1.274,1.274,0,0,0,.619-.763l.162-.545,6.827,2.034A1.972,1.972,0,0,0-2.9,24.087,1.973,1.973,0,0,0-.927,22.116V1.971A1.973,1.973,0,0,0-2.9,0M-24.907,16.6h-.262a.92.92,0,0,1-.919-.919V8.41a.919.919,0,0,1,.919-.918h.262a.919.919,0,0,1,.918.918v7.267a.919.919,0,0,1-.918.919m12.876,2.567-7.49-2.232-.281-.084-3.265-.973V8.213l18.2-5.422V21.3l-6.838-2.037Zm-.705,1.345a.36.36,0,0,1-.174.215.36.36,0,0,1-.275.029L-19.4,18.906a.362.362,0,0,1-.244-.449l.164-.553,6.909,2.059Zm10.887,1.608a1.051,1.051,0,0,1-1.05,1.05,1.05,1.05,0,0,1-1.049-1.05V1.971A1.051,1.051,0,0,1-2.9.921a1.052,1.052,0,0,1,1.05,1.05Z" transform="translate(27.009)" fill="#f49c20"/>
      </g>
      <g id="Group_630" data-name="Group 630" transform="translate(0.223 0.223)">
        <path id="Path_6089" data-name="Path 6089" d="M-2.9,0A1.973,1.973,0,0,0-4.863,1.827L-23.4,7.351a1.839,1.839,0,0,0-1.5-.781h-.262a1.842,1.842,0,0,0-1.84,1.84v7.267a1.841,1.841,0,0,0,1.84,1.84h.262a1.839,1.839,0,0,0,1.5-.781l3.039.905-.164.553a1.284,1.284,0,0,0,.864,1.6l6.218,1.845a1.26,1.26,0,0,0,.367.054,1.272,1.272,0,0,0,.61-.156,1.274,1.274,0,0,0,.619-.763l.162-.545,6.827,2.034A1.972,1.972,0,0,0-2.9,24.087,1.973,1.973,0,0,0-.927,22.116V1.971A1.973,1.973,0,0,0-2.9,0ZM-24.907,16.6h-.262a.92.92,0,0,1-.919-.919V8.41a.919.919,0,0,1,.919-.918h.262a.919.919,0,0,1,.918.918v7.267A.919.919,0,0,1-24.907,16.6Zm12.876,2.567-7.49-2.232-.281-.084-3.265-.973V8.213l18.2-5.422V21.3l-6.838-2.037Zm-.705,1.345a.36.36,0,0,1-.174.215.36.36,0,0,1-.275.029L-19.4,18.906a.362.362,0,0,1-.244-.449l.164-.553,6.909,2.059Zm10.887,1.608a1.051,1.051,0,0,1-1.05,1.05,1.05,1.05,0,0,1-1.049-1.05V1.971A1.051,1.051,0,0,1-2.9.921a1.052,1.052,0,0,1,1.05,1.05Z" transform="translate(27.009)" fill="#f49c20" stroke="#f49c20" stroke-width="1"/>
      </g>
      <g id="Group_631" data-name="Group 631" transform="translate(27.275 4.07)">
        <path id="Path_6090" data-name="Path 6090" d="M-.055-.438A.459.459,0,0,0,.27-.573L2.994-3.3a.462.462,0,0,0,0-.652.462.462,0,0,0-.652,0L-.381-1.225a.46.46,0,0,0,0,.652.459.459,0,0,0,.326.135" transform="translate(0.516 4.083)" fill="#f49c20"/>
      </g>
      <g id="Group_632" data-name="Group 632" transform="translate(27.275 4.07)">
        <path id="Path_6091" data-name="Path 6091" d="M-.055-.438A.459.459,0,0,0,.27-.573L2.994-3.3a.462.462,0,0,0,0-.652.462.462,0,0,0-.652,0L-.381-1.225a.46.46,0,0,0,0,.652A.459.459,0,0,0-.055-.438Z" transform="translate(0.516 4.083)" fill="#f49c20" stroke="#f49c20" stroke-width="1"/>
      </g>
      <g id="Group_633" data-name="Group 633" transform="translate(27.275 16.609)">
        <path id="Path_6092" data-name="Path 6092" d="M-.095-.016a.46.46,0,0,0-.652,0,.462.462,0,0,0,0,.652L1.977,3.359a.461.461,0,0,0,.652-.652Z" transform="translate(0.881 0.152)" fill="#f49c20"/>
      </g>
      <g id="Group_634" data-name="Group 634" transform="translate(27.275 16.609)">
        <path id="Path_6093" data-name="Path 6093" d="M-.095-.016a.46.46,0,0,0-.652,0,.462.462,0,0,0,0,.652L1.977,3.359a.461.461,0,0,0,.652-.652Z" transform="translate(0.881 0.152)" fill="#f49c20" stroke="#f49c20" stroke-width="1"/>
      </g>
      <g id="Group_635" data-name="Group 635" transform="translate(29.087 11.723)">
        <path id="Path_6094" data-name="Path 6094" d="M-.531,0H-4.489A.461.461,0,0,0-4.95.461a.461.461,0,0,0,.461.461H-.531A.461.461,0,0,0-.07.461.461.461,0,0,0-.531,0" transform="translate(4.95)" fill="#f49c20"/>
      </g>
      <g id="Group_636" data-name="Group 636" transform="translate(29.087 11.723)">
        <path id="Path_6095" data-name="Path 6095" d="M-.531,0H-4.489A.461.461,0,0,0-4.95.461a.461.461,0,0,0,.461.461H-.531A.461.461,0,0,0-.07.461.461.461,0,0,0-.531,0Z" transform="translate(4.95)" fill="#f49c20" stroke="#f49c20" stroke-width="1"/>
      </g>
    </g>
  </g>
</svg>
