<svg xmlns="http://www.w3.org/2000/svg" xmlns:xlink="http://www.w3.org/1999/xlink" width="34.155" height="32.02" viewBox="0 0 34.155 32.02">
  <defs>
    <clipPath id="clip-path">
      <path id="Path_5968" data-name="Path 5968" d="M0-.028H34.155v-32.02H0Z" transform="translate(0 32.048)" fill="none"/>
    </clipPath>
  </defs>
  <g id="card-2-img-19" transform="translate(0 32.048)">
    <g id="Group_505" data-name="Group 505" transform="translate(0 -32.048)" clip-path="url(#clip-path)">
      <g id="Group_504" data-name="Group 504" transform="translate(0.711 0.711)">
        <path id="Path_5967" data-name="Path 5967" d="M-.017-.01V-8.548H-17.806V11.375H-.017V8.529M7.1-2.145A2.916,2.916,0,0,1,4.252-5.194V-6.211A2.916,2.916,0,0,1,7.1-9.26,2.916,2.916,0,0,1,9.946-6.211v1.016A2.916,2.916,0,0,1,7.1-2.145ZM3.541,19.914V4.971A14.014,14.014,0,0,1,.695,6.394,6.045,6.045,0,0,1-2.152,4.971,21.557,21.557,0,0,1-3.844,3.5,1.026,1.026,0,0,1-2.765,1.807c1.112.418,2.233.838,2.749,1.029C1.05,1.725,2.162-.01,4.964-.01H9.946c2.549,0,3.557,1.076,3.557,4.269V9.24c0,1.527-.607,2.847-2.134,2.847M7.1,9.952v9.961M10.657,4.259V19.914M1.406-8.548H-19.229V-11.4H1.406ZM-14.248,11.375v8.539m10.674-8.539v8.539" transform="translate(19.229 11.395)" fill="none" stroke="#0096d1" stroke-width="1.424"/>
      </g>
    </g>
  </g>
</svg>
