<svg xmlns="http://www.w3.org/2000/svg" xmlns:xlink="http://www.w3.org/1999/xlink" width="28" height="30.02" viewBox="0 0 28 30.02">
  <defs>
    <clipPath id="clip-path">
      <path id="Path_5944" data-name="Path 5944" d="M0-1.511H28v-30.02H0Z" transform="translate(0 31.531)" fill="#2aafe3"/>
    </clipPath>
  </defs>
  <g id="card-2-img-17" transform="translate(0 31.531)">
    <g id="Group_483" data-name="Group 483" transform="translate(0 -31.531)" clip-path="url(#clip-path)">
      <g id="Group_482" data-name="Group 482" transform="translate(0)">
        <path id="Path_5943" data-name="Path 5943" d="M-.227-1.511h19.6A3.893,3.893,0,0,0,23.262-5.4V-27.643a3.893,3.893,0,0,0-3.888-3.888H2.885A3.894,3.894,0,0,0-1-27.636l.149,17.415h-.46v.05l-2.677.108a.778.778,0,0,0-.746.778v3.265A5.031,5.031,0,0,0-.227-1.511M-3.182-8.54l3.128-.126H12.382a4.231,4.231,0,0,0,3.769,4.044H17.2v-1.7H16.152a2.762,2.762,0,0,1-2.476-2.546v-1.358H.7L.552-27.643a2.336,2.336,0,0,1,2.334-2.333H19.374a2.336,2.336,0,0,1,2.334,2.333V-5.4a2.336,2.336,0,0,1-2.334,2.333H-.227A3.517,3.517,0,0,1-3.182-6.022Z" transform="translate(4.738 31.531)" fill="#2aafe3"/>
      </g>
    </g>
    <path id="Path_5945" data-name="Path 5945" d="M24.055-23.689H18.3v2.177h5.755Z" transform="translate(-0.877 -0.376)" fill="#2aafe3"/>
    <path id="Path_5946" data-name="Path 5946" d="M23.728-16.664H17.973v2.177h5.755Z" transform="translate(-0.861 -0.712)" fill="#2aafe3"/>
    <g id="Group_484" data-name="Group 484" transform="translate(8.334 -25.561)">
      <path id="Path_5947" data-name="Path 5947" d="M-.135-.232l.47.476L4.25-3.623l-1.2-1.218L.314-2.14-1.621-4.1l-1.2,1.185,2.668,2.7Z" transform="translate(2.822 4.841)" fill="#2aafe3"/>
    </g>
    <g id="Group_485" data-name="Group 485" transform="translate(8.489 -19.028)">
      <path id="Path_5948" data-name="Path 5948" d="M-.158-.136-2.093-2.1-3.294-.91l2.668,2.7.019-.019.47.476L3.778-1.619l-1.2-1.218Z" transform="translate(3.294 2.837)" fill="#2aafe3"/>
    </g>
  </g>
</svg>
