<svg xmlns="http://www.w3.org/2000/svg" xmlns:xlink="http://www.w3.org/1999/xlink" width="50.722" height="35" viewBox="0 0 50.722 35">
  <defs>
    <clipPath id="clip-path">
      <path id="Path_6123" data-name="Path 6123" d="M0-26.947H50.722v-35H0Z" transform="translate(0 61.947)" fill="#e52558"/>
    </clipPath>
  </defs>
  <g id="card-14-img_3" transform="translate(0 61.947)">
    <g id="Group_703" data-name="Group 703" transform="translate(0 -61.947)" clip-path="url(#clip-path)">
      <g id="Group_701" data-name="Group 701" transform="translate(14.767 3.766)">
        <path id="Path_6121" data-name="Path 6121" d="M-13.362-6.015a8.642,8.642,0,0,0-3.163-5.86A8.643,8.643,0,0,0-22.9-13.781a8.646,8.646,0,0,0-5.86,3.163,8.643,8.643,0,0,0-1.906,6.38,8.641,8.641,0,0,0,3.163,5.859A8.656,8.656,0,0,0-22.025,3.57a8.688,8.688,0,0,0,6.756-3.2h0a8.644,8.644,0,0,0,1.906-6.38M-16.7-.8A6.862,6.862,0,0,1-25.64.688l3.919-3.919,1.32,1.32.362-5.29-5.29.362,1.32,1.32-3.9,3.9a6.832,6.832,0,0,1-.927-2.807,6.807,6.807,0,0,1,1.5-5.025,6.807,6.807,0,0,1,4.615-2.491A6.87,6.87,0,0,1-22-11.979a6.8,6.8,0,0,1,4.312,1.538A6.808,6.808,0,0,1-15.2-5.826,6.808,6.808,0,0,1-16.7-.8" transform="translate(30.717 13.827)" fill="#e52558"/>
      </g>
      <g id="Group_702" data-name="Group 702" transform="translate(0 0)">
        <path id="Path_6122" data-name="Path 6122" d="M-38.366-23.172-53.459-35.454a12.4,12.4,0,0,0,1.136-6.622,12.392,12.392,0,0,0-4.535-8.4,12.487,12.487,0,0,0-17.547,1.8,12.394,12.394,0,0,0-2.733,9.146,12.383,12.383,0,0,0,2.888,6.786l-2.206,2.206L-79.7-33.781a.964.964,0,0,0-1.363,0l-6.852,6.852a.964.964,0,0,0,0,1.363.961.961,0,0,0,.682.282.961.961,0,0,0,.681-.282l6.17-6.17,3.245,3.245a.964.964,0,0,0,1.363,0l2.883-2.883c.1.082.19.166.289.246a12.415,12.415,0,0,0,7.86,2.793,12.489,12.489,0,0,0,7.786-2.714l15.04,12.239a2.4,2.4,0,0,0,1.523.541,2.413,2.413,0,0,0,1.876-.89l.5-.614a2.419,2.419,0,0,0-.349-3.4m-33.07-9.389c-.233-.19-.455-.39-.669-.6a.991.991,0,0,0-.158-.209.98.98,0,0,0-.2-.153,10.542,10.542,0,0,1-2.835-6.2,10.554,10.554,0,0,1,2.328-7.791,10.61,10.61,0,0,1,8.251-3.914,10.574,10.574,0,0,1,6.7,2.379,10.554,10.554,0,0,1,3.863,7.155,10.543,10.543,0,0,1-1.79,7.068l-1.131,1.389a10.637,10.637,0,0,1-14.354.87M-54.37-33.71l1.789,1.455L-53.7-30.883l-1.789-1.456Zm14.857,12.72-.5.613a.488.488,0,0,1-.329.178.489.489,0,0,1-.358-.107l-11.5-9.36,1.116-1.371,11.5,9.36a.489.489,0,0,1,.071.687" transform="translate(88.199 53.27)" fill="#e52558"/>
      </g>
    </g>
  </g>
</svg>
