<svg xmlns="http://www.w3.org/2000/svg" xmlns:xlink="http://www.w3.org/1999/xlink" width="27" height="20.254" viewBox="0 0 27 20.254">
  <defs>
    <clipPath id="clip-path">
      <path id="Path_5938" data-name="Path 5938" d="M0-1.335H27V-21.589H0Z" transform="translate(0 21.589)" fill="#e52558"/>
    </clipPath>
  </defs>
  <g id="card-2-img_16" transform="translate(0 21.589)">
    <g id="Group_475" data-name="Group 475" transform="translate(0 -21.589)" clip-path="url(#clip-path)">
      <g id="Group_474" data-name="Group 474" transform="translate(0 0)">
        <path id="Path_5937" data-name="Path 5937" d="M-.743-1.322a.8.8,0,0,0,.524.2.8.8,0,0,0,.564-.232C1.608-2.614,2.907-3.878,4.162-5.1c3.574-3.479,7.271-7.076,10.616-10.926a.8.8,0,0,0-.055-1.108c-.431-.4-.821-.853-1.235-1.328a9.577,9.577,0,0,0-3.442-2.854.8.8,0,0,0-.9.186c-2.978,3.149-6.065,6.25-9.187,9.225-.842-.745-1.615-1.56-2.425-2.414a27.1,27.1,0,0,0-4.073-3.738.8.8,0,0,0-.95.025,24.915,24.915,0,0,0-3.526,3.605c-.271.318-.542.636-.817.949a.8.8,0,0,0,0,1.051A109.44,109.44,0,0,0-.743-1.322M-9.792-13.388a26.88,26.88,0,0,1,2.83-3,28.942,28.942,0,0,1,3.341,3.172A34.253,34.253,0,0,0-.513-10.21a.8.8,0,0,0,1.056-.039C3.721-13.26,6.869-16.4,9.907-19.6a9.633,9.633,0,0,1,2.375,2.19c.258.3.522.6.8.894C9.909-12.925,6.423-9.534,3.047-6.247,1.962-5.192.846-4.105-.254-3.018a107.781,107.781,0,0,1-9.913-9.933l.374-.437" transform="translate(12.025 21.38)" fill="#e52558"/>
      </g>
    </g>
  </g>
</svg>
