<svg xmlns="http://www.w3.org/2000/svg" width="25" height="27" viewBox="0 0 25 27"><g><g><g><path fill="#e52558" d="M22.076 11.12c-1.073 6.226-6.08 13.063-9.567 13.063-3.601 0-8.696-7.662-9.565-13.054-.501-3.106-.156-4.666.063-5.275.907.045 2.858-.014 5.321-.969 2.203-.854 3.539-1.917 4.219-2.575.626.56 1.763 1.491 3.38 2.492 2.089 1.29 4.68.813 5.903.472.303.914.752 2.915.246 5.846zm.83-7.109a.738.738 0 0 0-.919-.335c-.03.012-3.13 1.203-5.284-.129C14.333 2.082 13.055.763 13.042.75a.743.743 0 0 0-1.126.072c-.012.016-1.179 1.547-4.12 2.688-2.967 1.15-5.087.84-5.105.837a.736.736 0 0 0-.695.268c-.136.17-1.305 1.806-.508 6.749 1.098 6.813 6.867 14.293 11.021 14.293 4.61 0 9.912-7.855 11.021-14.285.802-4.654-.566-7.253-.624-7.361z"/></g><g><g><path fill="#e52558" d="M3.473 6.488c1.093-.002 2.895-.174 5.08-1.021 1.887-.731 3.177-1.612 4.004-2.323.699.59 1.714 1.367 3.043 2.188 1.971 1.219 4.294 1.025 5.797.693.25 1.01.461 2.693.065 4.99-1.094 6.343-6.051 12.544-8.953 12.544-3.044 0-8.062-7.026-8.95-12.529-.389-2.413-.247-3.823-.086-4.542zm9.036 18.318c3.81 0 9.044-6.98 10.182-13.579.526-3.055.057-5.164-.27-6.149l-.187-.564-.572.16c-1.223.341-3.553.743-5.406-.402-1.553-.96-2.648-1.849-3.294-2.427l-.432-.386-.417.403c-.697.676-1.958 1.647-4.01 2.442-2.344.91-4.179.971-5.065.928l-.462-.024-.156.435c-.256.712-.608 2.386-.092 5.585.916 5.679 6.217 13.578 10.181 13.578zM2.594 4.963c.282.038 2.456.28 5.427-.872 3.099-1.202 4.342-2.825 4.395-2.895a.119.119 0 0 1 .087-.047.105.105 0 0 1 .09.034c.055.056 1.36 1.396 3.783 2.894 2.409 1.489 5.7.234 5.837.18a.117.117 0 0 1 .144.051c.068.127 1.318 2.555.559 6.957-1.047 6.07-6.157 13.77-10.407 13.77-3.825 0-9.369-7.336-10.406-13.77-.768-4.76.368-6.246.381-6.262a.111.111 0 0 1 .089-.041l.02.001zm9.915 21.319c2.354 0 4.955-1.772 7.325-4.986 2.14-2.902 3.75-6.572 4.31-9.818.822-4.765-.532-7.47-.69-7.762v-.002a1.366 1.366 0 0 0-1.692-.62c-.028.012-2.86 1.08-4.731-.077-2.277-1.408-3.529-2.688-3.54-2.698a1.354 1.354 0 0 0-1.067-.415c-.4.025-.767.224-1.004.541-.01.014-1.123 1.427-3.85 2.483-2.74 1.064-4.712.813-4.782.804a1.364 1.364 0 0 0-1.279.493C1.26 4.538.05 6.36.872 11.464c1.161 7.2 7.143 14.817 11.637 14.817z"/></g></g></g></g></svg>