<svg xmlns="http://www.w3.org/2000/svg" xmlns:xlink="http://www.w3.org/1999/xlink" width="35.7" height="30.408" viewBox="0 0 35.7 30.408">
  <defs>
    <clipPath id="clip-path">
      <path id="Path_6113" data-name="Path 6113" d="M0-38.513H35.7V-68.921H0Z" transform="translate(0 68.921)" fill="#e52558"/>
    </clipPath>
  </defs>
  <g id="card-14-img_1" transform="translate(0 68.921)">
    <g id="Group_687" data-name="Group 687" transform="translate(0 -68.921)" clip-path="url(#clip-path)">
      <g id="Group_682" data-name="Group 682" transform="translate(0 16.765)">
        <path id="Path_6108" data-name="Path 6108" d="M-8.146,0h-5.649a.783.783,0,0,0-.783.783v12.86h1.566V1.566h4.083V13.643h1.566V.783A.783.783,0,0,0-8.146,0" transform="translate(14.578)" fill="#e52558"/>
      </g>
      <g id="Group_683" data-name="Group 683" transform="translate(9.495 10.755)">
        <path id="Path_6109" data-name="Path 6109" d="M-8.146,0h-5.649a.783.783,0,0,0-.783.783v18.87h1.566V1.566h4.083V19.653h1.566V.783A.783.783,0,0,0-8.146,0" transform="translate(14.578)" fill="#e52558"/>
      </g>
      <g id="Group_684" data-name="Group 684" transform="translate(18.99 13.64)">
        <path id="Path_6110" data-name="Path 6110" d="M-8.146,0h-5.649a.783.783,0,0,0-.783.783V16.768h1.566V1.566h4.083v15.2h1.566V.783A.783.783,0,0,0-8.146,0" transform="translate(14.578)" fill="#e52558"/>
      </g>
      <g id="Group_685" data-name="Group 685" transform="translate(28.485 7.149)">
        <path id="Path_6111" data-name="Path 6111" d="M-8.146,0h-5.649a.783.783,0,0,0-.783.783V23.259h1.566V1.566h4.083V23.259h1.566V.783A.783.783,0,0,0-8.146,0" transform="translate(14.578)" fill="#e52558"/>
      </g>
      <g id="Group_686" data-name="Group 686" transform="translate(1.264 0)">
        <path id="Path_6112" data-name="Path 6112" d="M-2.892-19.028A2.283,2.283,0,0,0-.609-21.312a2.283,2.283,0,0,0-.078-.582l5.977-4.161a2.271,2.271,0,0,0,1.312.416,2.275,2.275,0,0,0,1.708-.772l5.27,2.068c0,.049-.008.1-.008.146a2.283,2.283,0,0,0,2.284,2.284A2.283,2.283,0,0,0,18.141-24.2a2.281,2.281,0,0,0-.074-.569l6.339-5.055a2.267,2.267,0,0,0,1.187.336,2.284,2.284,0,0,0,2.284-2.284,2.284,2.284,0,0,0-2.284-2.284,2.283,2.283,0,0,0-2.284,2.284,2.278,2.278,0,0,0,.119.724l-6.252,4.986a2.27,2.27,0,0,0-1.319-.422,2.277,2.277,0,0,0-1.645.7l-5.328-2.09c0-.019,0-.036,0-.054A2.284,2.284,0,0,0,6.6-30.206a2.284,2.284,0,0,0-2.284,2.284,2.281,2.281,0,0,0,.078.582l-5.977,4.161A2.268,2.268,0,0,0-2.892-23.6a2.283,2.283,0,0,0-2.284,2.284,2.283,2.283,0,0,0,2.284,2.284" transform="translate(5.176 34.052)" fill="#e52558"/>
      </g>
    </g>
  </g>
</svg>
