<svg xmlns="http://www.w3.org/2000/svg" xmlns:xlink="http://www.w3.org/1999/xlink" width="27" height="31.567" viewBox="0 0 27 31.567">
  <defs>
    <clipPath id="clip-path">
      <path id="Path_5906" data-name="Path 5906" d="M0-.613H27V-32.18H0Z" transform="translate(0 32.18)" fill="#e52558"/>
    </clipPath>
  </defs>
  <g id="card-2-img_10" transform="translate(0 32.18)">
    <g id="Group_431" data-name="Group 431" transform="translate(0 -32.18)" clip-path="url(#clip-path)">
      <g id="Group_429" data-name="Group 429" transform="translate(6.305 0)">
        <path id="Path_5904" data-name="Path 5904" d="M-.141,0A6.264,6.264,0,0,0-6.5,5.334a2.665,2.665,0,0,0-.884,2.308c0,1.314.52,2.379,1.16,2.379a.708.708,0,0,0,.078-.008,16.314,16.314,0,0,0,.66,2.446c1.376,3.8,3.666,4.6,5.344,4.6,3.6,0,5.319-3.543,6.008-7.069a.6.6,0,0,0,.171.028c.641,0,1.16-1.065,1.16-2.379,0-1.192-.428-2.177-.986-2.349A6.266,6.266,0,0,0-.141,0m0,15.436c-1.684,0-2.968-1.187-3.816-3.53a18.863,18.863,0,0,1-.956-5.929A4.583,4.583,0,0,1-.141,1.624,4.583,4.583,0,0,1,4.632,5.978c0,3.272-1,9.458-4.772,9.458" transform="translate(7.384)" fill="#e52558"/>
      </g>
      <g id="Group_430" data-name="Group 430" transform="translate(0 17.697)">
        <path id="Path_5905" data-name="Path 5905" d="M-.357-.22l-.675,1.74H6.485A1.74,1.74,0,0,0,8.225-.22v-6.5A1.74,1.74,0,0,0,7.312-8.25,31.18,31.18,0,0,0-3.651-11.524v1.448A.812.812,0,0,0-4.09-9.2l1.258,6.8L-5.283.259-7.732-2.405l1.257-6.8a.81.81,0,0,0-.269-.762v-1.573A31.091,31.091,0,0,0-17.861-8.25a1.74,1.74,0,0,0-.914,1.531v6.5a1.741,1.741,0,0,0,1.741,1.74h7.24l-.54-1.74h-6.7v-6.5a30.406,30.406,0,0,1,9-2.927.747.747,0,0,0-.043.149L-9.4-2.3s0,.011,0,.017,0,.028-.006.043,0,.026,0,.038,0,.026,0,.038,0,.029,0,.043,0,.023,0,.034,0,.029,0,.044l.006.034.009.042c0,.013.007.026.01.037l.012.037.015.04.014.032.02.039a.3.3,0,0,0,.017.03c.007.013.015.025.022.036l.023.032.023.03c.009.012.019.023.028.034L-9.2-1.6l3.086,3.356a.807.807,0,0,0,.228.367.81.81,0,0,0,.549.214l.057,0,.057,0a.81.81,0,0,0,.549-.214.8.8,0,0,0,.229-.367L-1.362-1.6l.01-.013.029-.034.023-.03.022-.032c.008-.012.016-.024.023-.036l.017-.03.02-.039.013-.032c.006-.014.011-.026.016-.04s.008-.025.011-.037.007-.025.011-.037,0-.027.008-.042l.006-.034c0-.015,0-.029,0-.044s0-.023,0-.034a.317.317,0,0,0,0-.043c0-.013,0-.026,0-.038l0-.038-.006-.043,0-.017-1.33-7.2a.8.8,0,0,0-.044-.152,30.387,30.387,0,0,1,9.021,2.93v6.5Z" transform="translate(18.775 11.537)" fill="#e52558"/>
      </g>
    </g>
  </g>
</svg>
