<svg xmlns="http://www.w3.org/2000/svg" xmlns:xlink="http://www.w3.org/1999/xlink" width="25.306" height="25.843" viewBox="0 0 25.306 25.843">
  <defs>
    <clipPath id="clip-path">
      <path id="Path_5970" data-name="Path 5970" d="M0-.8H25.306V-26.641H0Z" transform="translate(0 26.641)" fill="#2aafe3"/>
    </clipPath>
  </defs>
  <g id="card-2-img_21" transform="translate(0 26.641)">
    <g id="Group_508" data-name="Group 508" transform="translate(0 -26.641)" clip-path="url(#clip-path)">
      <g id="Group_507" data-name="Group 507" transform="translate(0 0)">
        <path id="Path_5969" data-name="Path 5969" d="M-.129-.282A4.2,4.2,0,0,0-4.322,3.909,4.2,4.2,0,0,0-.129,8.1,4.18,4.18,0,0,0,2.977,6.716l9.693,4.777a4.2,4.2,0,1,0,.5-1.363L3.752,5.489a4.175,4.175,0,0,0,.311-1.579A4.164,4.164,0,0,0,3.693,2.2l9.773-4.887a4.181,4.181,0,0,0,3.326,1.652A4.2,4.2,0,0,0,20.985-5.23a4.2,4.2,0,0,0-4.193-4.193A4.2,4.2,0,0,0,12.6-5.23a4.2,4.2,0,0,0,.194,1.261L2.874.99a4.18,4.18,0,0,0-3-1.273m0,6.941A2.752,2.752,0,0,1-2.878,3.909,2.751,2.751,0,0,1-.129,1.161,2.751,2.751,0,0,1,2.619,3.909,2.752,2.752,0,0,1-.129,6.658M16.792,9.479a2.749,2.749,0,1,1-2.748,2.748,2.752,2.752,0,0,1,2.748-2.748m0-17.459A2.752,2.752,0,0,1,19.541-5.23a2.752,2.752,0,0,1-2.749,2.748A2.739,2.739,0,0,1,14.58-3.614a.709.709,0,0,0-.057-.412.708.708,0,0,0-.315-.3,2.716,2.716,0,0,1-.164-.9A2.752,2.752,0,0,1,16.792-7.98" transform="translate(4.322 9.423)" fill="#2aafe3"/>
      </g>
    </g>
  </g>
</svg>
