<svg xmlns="http://www.w3.org/2000/svg" xmlns:xlink="http://www.w3.org/1999/xlink" width="30.165" height="31.186" viewBox="0 0 30.165 31.186">
  <defs>
    <clipPath id="clip-path">
      <path id="Path_6075" data-name="Path 6075" d="M0,2.3H30.165V-28.885H0Z" transform="translate(0 28.885)" fill="#f79000"/>
    </clipPath>
  </defs>
  <g id="cars-2-img_26" transform="translate(0 28.885)">
    <g id="Group_610" data-name="Group 610" transform="translate(20.754 -10.884)">
      <path id="Path_6071" data-name="Path 6071" d="M.129,0H-1.613V5.478h.037l-.024.044,4.577,2.5.682-1.248L.129,4.846Z" transform="translate(1.613)" fill="#f79000"/>
    </g>
    <path id="Path_6072" data-name="Path 6072" d="M3.629-14.77h11.03v-1.742H3.629Z" transform="translate(0.289 0.986)" fill="#f79000"/>
    <path id="Path_6073" data-name="Path 6073" d="M3.495-10.739h6.821v-1.742H3.495Z" transform="translate(0.278 1.307)" fill="#f79000"/>
    <g id="Group_612" data-name="Group 612" transform="translate(0 -28.885)" clip-path="url(#clip-path)">
      <g id="Group_611" data-name="Group 611" transform="translate(0 0)">
        <path id="Path_6074" data-name="Path 6074" d="M1.885,1.129V-8.215A2.47,2.47,0,0,0-.582-10.682h-.531V-11.9a2.329,2.329,0,0,0-2.372-2.276A2.328,2.328,0,0,0-5.856-11.9v1.215H-15.7v-1.075a2.329,2.329,0,0,0-2.372-2.276,2.328,2.328,0,0,0-2.371,2.276v1.075h-.75a2.471,2.471,0,0,0-2.468,2.467V10.07a2.471,2.471,0,0,0,2.468,2.467H-9.308A8.4,8.4,0,0,0-1.89,17.013a8.406,8.406,0,0,0,8.4-8.4A8.4,8.4,0,0,0,1.885,1.129M-4.448-11.9a.92.92,0,0,1,.963-.868.921.921,0,0,1,.964.868v3.416a.921.921,0,0,1-.964.868.92.92,0,0,1-.963-.868Zm-14.585.139a.921.921,0,0,1,.964-.868.921.921,0,0,1,.964.868v3.416a.921.921,0,0,1-.964.868.921.921,0,0,1-.964-.868Zm9.12,22.843H-21.191a1.017,1.017,0,0,1-1.016-1.015V-8.215a1.017,1.017,0,0,1,1.016-1.016h.75v.89A2.328,2.328,0,0,0-18.07-6.066,2.329,2.329,0,0,0-15.7-8.342v-.89h9.841v.75A2.328,2.328,0,0,0-3.485-6.2,2.329,2.329,0,0,0-1.113-8.481v-.75h.531A1.017,1.017,0,0,1,.434-8.215V.557A8.34,8.34,0,0,0-1.89.223a8.4,8.4,0,0,0-8.4,8.394,8.356,8.356,0,0,0,.371,2.467m8.024,4.521A7,7,0,0,1-8.877,8.618,7,7,0,0,1-1.89,1.63,7,7,0,0,1,5.1,8.618,7,7,0,0,1-1.89,15.606" transform="translate(23.659 14.173)" fill="#f79000"/>
      </g>
    </g>
  </g>
</svg>
