<svg xmlns="http://www.w3.org/2000/svg" xmlns:xlink="http://www.w3.org/1999/xlink" width="38.825" height="23.721" viewBox="0 0 38.825 23.721">
  <defs>
    <clipPath id="clip-path">
      <path id="Path_5933" data-name="Path 5933" d="M0,2.974H38.825V-20.747H0Z" transform="translate(0 20.747)" fill="#e52558"/>
    </clipPath>
  </defs>
  <g id="card-2-img_14" transform="translate(0 20.747)">
    <g id="Group_465" data-name="Group 465" transform="translate(0 -20.747)" clip-path="url(#clip-path)">
      <g id="Group_462" data-name="Group 462" transform="translate(8.064 0.001)">
        <path id="Path_5930" data-name="Path 5930" d="M.191,2.022c-1.972,2.7-1.47,6.757-1.447,6.929l.086.663H21.32l.18-.508a7.931,7.931,0,0,0-1.283-6.921C18.7.059,16.255-.725,14.469-1.3a10.2,10.2,0,0,1-1.742-.665c.115-.16.278-.359.409-.523a6.84,6.84,0,0,0,1.809-3.523c.185-2.233.415-5.011-1.15-6.713a4.875,4.875,0,0,0-3.754-1.386,4.873,4.873,0,0,0-3.733,1.353c-1.5,1.616-1.315,4.2-1.149,6.488L5.178-6A7.651,7.651,0,0,0,7.036-2.341c.117.154.257.338.368.5a15.714,15.714,0,0,1-1.813.724C3.724-.459,1.4.369.191,2.022m8.789-3.3c.327-.59-.073-1.115-.735-1.984A6.821,6.821,0,0,1,6.694-6.1l-.019-.274c-.143-1.975-.305-4.212.747-5.343a3.408,3.408,0,0,1,2.619-.867,3.4,3.4,0,0,1,2.634.9c1.115,1.211.915,3.62.752,5.589a5.73,5.73,0,0,1-1.474,2.661c-.645.8-1.154,1.428-.736,2.1C11.685-.6,12.708-.267,14,.149c1.672.536,3.751,1.2,4.975,2.919a6.59,6.59,0,0,1,1.21,5.025H.2A8.686,8.686,0,0,1,1.417,2.92C2.352,1.644,4.43.9,6.1.309,7.547-.205,8.592-.577,8.979-1.279" transform="translate(1.33 14.107)" fill="#e52558"/>
      </g>
      <g id="Group_463" data-name="Group 463" transform="translate(0 2.785)">
        <path id="Path_5931" data-name="Path 5931" d="M.016,2.263H6.542l.023-.126c.053-.3.12-.607.2-.909l.051-.191H1.123a6.47,6.47,0,0,1,.927-3.86c.71-.959,2.3-1.518,3.58-1.968,1.116-.391,1.923-.675,2.227-1.219.264-.471-.049-.876-.567-1.549A5.106,5.106,0,0,1,6.108-9.689L6.093-9.9c-.11-1.482-.232-3.162.555-4.01a2.6,2.6,0,0,1,2-.656,2.6,2.6,0,0,1,2.012.678c.833.907.681,2.73.558,4.2A4.307,4.307,0,0,1,10.1-7.694c-.505.617-.9,1.106-.568,1.637A3.119,3.119,0,0,0,11.27-5.044l.069.023.061-.04a11.646,11.646,0,0,1,1.078-.608l.333-.167-.757-.244a8.275,8.275,0,0,1-1.3-.481c.086-.112.193-.244.287-.357a5.2,5.2,0,0,0,1.4-2.694c.142-1.692.319-3.8-.879-5.1a3.78,3.78,0,0,0-2.914-1.076,3.781,3.781,0,0,0-2.9,1.048C4.6-13.5,4.743-11.538,4.871-9.806l.015.206A5.813,5.813,0,0,0,6.319-6.808c.083.107.176.228.255.335a13.009,13.009,0,0,1-1.353.528C3.786-5.441,2-4.813,1.065-3.552-.465-1.487-.072,1.6-.055,1.73Z" transform="translate(0.112 15.789)" fill="#e52558"/>
      </g>
      <g id="Group_464" data-name="Group 464" transform="translate(25.903 2.685)">
        <path id="Path_5932" data-name="Path 5932" d="M.751,2.109.8,2.3c.081.3.149.607.2.909l.022.126H7.553L7.624,2.8c.017-.13.41-3.217-1.12-5.281C5.57-3.74,3.782-4.368,2.337-4.876A13.235,13.235,0,0,1,.994-5.4c.08-.107.174-.228.258-.338A5.808,5.808,0,0,0,2.683-8.528l.015-.2c.127-1.733.272-3.7-.879-4.936a3.783,3.783,0,0,0-2.9-1.047,3.78,3.78,0,0,0-2.914,1.075c-1.2,1.3-1.021,3.409-.879,5.1a5.185,5.185,0,0,0,1.4,2.695c.091.112.2.242.284.354a8.268,8.268,0,0,1-1.3.482l-.755.242.333.167a11.47,11.47,0,0,1,1.077.608l.062.04.069-.023A3.116,3.116,0,0,0-1.96-4.985c.337-.532-.062-1.019-.569-1.64a4.314,4.314,0,0,1-1.12-1.993c-.122-1.465-.276-3.287.559-4.195a2.6,2.6,0,0,1,2.012-.678,2.6,2.6,0,0,1,2,.656c.787.847.663,2.528.555,4.011l-.015.207A5.128,5.128,0,0,1,.278-6.484c-.517.671-.83,1.076-.566,1.547.3.544,1.11.828,2.226,1.22,1.279.448,2.87,1.007,3.581,1.968a6.465,6.465,0,0,1,.927,3.859Z" transform="translate(5.241 14.716)" fill="#e52558"/>
      </g>
    </g>
  </g>
</svg>
