<svg xmlns="http://www.w3.org/2000/svg" xmlns:xlink="http://www.w3.org/1999/xlink" width="37.986" height="31.186" viewBox="0 0 37.986 31.186">
  <defs>
    <clipPath id="clip-path">
      <path id="Path_6063" data-name="Path 6063" d="M0-1.676H37.986V-32.862H0Z" transform="translate(0 32.862)" fill="#f79000"/>
    </clipPath>
  </defs>
  <g id="cars-2-img_27" transform="translate(0 32.862)">
    <g id="Group_601" data-name="Group 601" transform="translate(0 -32.862)" clip-path="url(#clip-path)">
      <g id="Group_599" data-name="Group 599" transform="translate(0.237 0.237)">
        <path id="Path_6061" data-name="Path 6061" d="M-2.006-.933-20.235-18.171a.525.525,0,0,0-.651,0L-39.115-.933a.525.525,0,0,0-.172.586.525.525,0,0,0,.5.355h5.367V9.561a2.924,2.924,0,0,0,2.971,2.866h19.783A2.924,2.924,0,0,0-7.7,9.561V.008h5.367a.526.526,0,0,0,.5-.355.526.526,0,0,0-.172-.586M-7.7-1.046v-.117H-8.789V9.561a1.85,1.85,0,0,1-1.88,1.813H-30.452a1.85,1.85,0,0,1-1.88-1.813V-1.162h-1.091v.117h-3.846L-20.56-17.087-3.851-1.046Z" transform="translate(39.316 18.284)" fill="#f79000"/>
      </g>
      <g id="Group_600" data-name="Group 600" transform="translate(0.237 0.237)">
        <path id="Path_6062" data-name="Path 6062" d="M-2.006-.933-20.235-18.171a.525.525,0,0,0-.651,0L-39.115-.933a.525.525,0,0,0-.172.586.525.525,0,0,0,.5.355h5.367V9.561a2.924,2.924,0,0,0,2.971,2.866h19.783A2.924,2.924,0,0,0-7.7,9.561V.008h5.367a.526.526,0,0,0,.5-.355A.526.526,0,0,0-2.006-.933ZM-7.7-1.046v-.117H-8.789V9.561a1.85,1.85,0,0,1-1.88,1.813H-30.452a1.85,1.85,0,0,1-1.88-1.813V-1.162h-1.091v.117h-3.846L-20.56-17.087-3.851-1.046Z" transform="translate(39.316 18.284)" fill="#f79000" stroke="#f79000" stroke-width="0.5"/>
      </g>
    </g>
    <g id="Group_602" data-name="Group 602" transform="translate(10.111 -13.903)">
      <path id="Path_6064" data-name="Path 6064" d="M-.23-.038H-4.517V-.743h5.5L-3.039,7.2h-.873Z" transform="translate(4.517 0.743)" fill="#f79000"/>
    </g>
    <g id="Group_603" data-name="Group 603" transform="translate(10.111 -13.903)">
      <path id="Path_6065" data-name="Path 6065" d="M-.23-.038H-4.517V-.743h5.5L-3.039,7.2h-.873Z" transform="translate(4.517 0.743)" fill="#f79000" stroke="#f79000" stroke-width="0.5"/>
    </g>
    <g id="Group_608" data-name="Group 608" transform="translate(0 -32.862)" clip-path="url(#clip-path)">
      <g id="Group_604" data-name="Group 604" transform="translate(16.39 18.802)">
        <path id="Path_6066" data-name="Path 6066" d="M-.3-.183a4.183,4.183,0,0,1-.213,1.36A3.406,3.406,0,0,1-1.1,2.251a2.661,2.661,0,0,1-.89.705,2.513,2.513,0,0,1-1.119.252,2.514,2.514,0,0,1-1.12-.252,2.658,2.658,0,0,1-.889-.705,3.368,3.368,0,0,1-.587-1.074,4.157,4.157,0,0,1-.214-1.36,4.158,4.158,0,0,1,.214-1.36A3.368,3.368,0,0,1-5.12-2.617a2.724,2.724,0,0,1,.889-.711,2.467,2.467,0,0,1,1.12-.257,2.466,2.466,0,0,1,1.119.257,2.727,2.727,0,0,1,.89.711A3.406,3.406,0,0,1-.515-1.543,4.183,4.183,0,0,1-.3-.183m-.772,0a3.735,3.735,0,0,0-.151-1.1,2.676,2.676,0,0,0-.419-.845,1.929,1.929,0,0,0-.643-.549,1.748,1.748,0,0,0-.823-.2,1.767,1.767,0,0,0-.834.2,1.929,1.929,0,0,0-.643.549,2.656,2.656,0,0,0-.419.845,3.7,3.7,0,0,0-.152,1.1,3.7,3.7,0,0,0,.152,1.1,2.656,2.656,0,0,0,.419.845,1.859,1.859,0,0,0,.643.543,1.811,1.811,0,0,0,.834.191A1.791,1.791,0,0,0-2.288,2.3a1.859,1.859,0,0,0,.643-.543A2.676,2.676,0,0,0-1.225.914a3.735,3.735,0,0,0,.151-1.1" transform="translate(5.921 3.585)" fill="#f79000"/>
      </g>
      <g id="Group_605" data-name="Group 605" transform="translate(16.39 18.802)">
        <path id="Path_6067" data-name="Path 6067" d="M-.3-.183a4.183,4.183,0,0,1-.213,1.36A3.406,3.406,0,0,1-1.1,2.251a2.661,2.661,0,0,1-.89.705,2.513,2.513,0,0,1-1.119.252,2.514,2.514,0,0,1-1.12-.252,2.658,2.658,0,0,1-.889-.705,3.368,3.368,0,0,1-.587-1.074,4.157,4.157,0,0,1-.214-1.36,4.158,4.158,0,0,1,.214-1.36A3.368,3.368,0,0,1-5.12-2.617a2.724,2.724,0,0,1,.889-.711,2.467,2.467,0,0,1,1.12-.257,2.466,2.466,0,0,1,1.119.257,2.727,2.727,0,0,1,.89.711A3.406,3.406,0,0,1-.515-1.543,4.183,4.183,0,0,1-.3-.183Zm-.772,0a3.735,3.735,0,0,0-.151-1.1,2.676,2.676,0,0,0-.419-.845,1.929,1.929,0,0,0-.643-.549,1.748,1.748,0,0,0-.823-.2,1.767,1.767,0,0,0-.834.2,1.929,1.929,0,0,0-.643.549,2.656,2.656,0,0,0-.419.845,3.7,3.7,0,0,0-.152,1.1,3.7,3.7,0,0,0,.152,1.1,2.656,2.656,0,0,0,.419.845,1.859,1.859,0,0,0,.643.543,1.811,1.811,0,0,0,.834.191A1.791,1.791,0,0,0-2.288,2.3a1.859,1.859,0,0,0,.643-.543A2.676,2.676,0,0,0-1.225.914,3.735,3.735,0,0,0-1.075-.183Z" transform="translate(5.921 3.585)" fill="#f79000" stroke="#f79000" stroke-width="0.5"/>
      </g>
      <g id="Group_606" data-name="Group 606" transform="translate(22.876 19.018)">
        <path id="Path_6068" data-name="Path 6068" d="M-.061-.112A1.2,1.2,0,0,1-.509-.195,1.138,1.138,0,0,1-.867-.419a1.066,1.066,0,0,1-.241-.33.946.946,0,0,1-.09-.41.95.95,0,0,1,.09-.406A1.017,1.017,0,0,1-.867-1.9a1.164,1.164,0,0,1,.358-.22A1.2,1.2,0,0,1-.061-2.2a1.206,1.206,0,0,1,.444.083,1.15,1.15,0,0,1,.362.22,1.017,1.017,0,0,1,.241.331.95.95,0,0,1,.09.406.946.946,0,0,1-.09.41,1.066,1.066,0,0,1-.241.33,1.125,1.125,0,0,1-.362.224,1.206,1.206,0,0,1-.444.083M-.812,2.436,1.131.171,2.922-2.186l.419.372L1.461.412l-1.852,2.4ZM-.061-.573a.382.382,0,0,0,.19-.048A.611.611,0,0,0,.283-.749.57.57,0,0,0,.39-.935a.657.657,0,0,0,.038-.224.608.608,0,0,0-.144-.41.44.44,0,0,0-.344-.169.382.382,0,0,0-.19.048.6.6,0,0,0-.155.127.582.582,0,0,0-.106.182.633.633,0,0,0-.038.221.624.624,0,0,0,.144.413.438.438,0,0,0,.344.173M2.6,2.829a1.194,1.194,0,0,1-.448-.083,1.18,1.18,0,0,1-.359-.22A1.047,1.047,0,0,1,1.55,2.2a.945.945,0,0,1-.089-.41.945.945,0,0,1,.089-.41,1.082,1.082,0,0,1,.241-.33A1.154,1.154,0,0,1,2.15.824a1.254,1.254,0,0,1,.895,0,1.167,1.167,0,0,1,.362.224,1,1,0,0,1,.241.33.971.971,0,0,1,.086.41.974.974,0,0,1-.327.737,1.212,1.212,0,0,1-.809.3m0-.461a.378.378,0,0,0,.189-.048.587.587,0,0,0,.262-.31.646.646,0,0,0,.038-.22.634.634,0,0,0-.042-.231.67.67,0,0,0-.106-.186.487.487,0,0,0-.155-.124A.419.419,0,0,0,2.6,1.2a.379.379,0,0,0-.19.048.58.58,0,0,0-.155.127.572.572,0,0,0-.107.186.681.681,0,0,0-.038.224.607.607,0,0,0,.145.41.437.437,0,0,0,.344.169" transform="translate(1.198 2.199)" fill="#f79000"/>
      </g>
      <g id="Group_607" data-name="Group 607" transform="translate(22.876 19.018)">
        <path id="Path_6069" data-name="Path 6069" d="M-.061-.112A1.2,1.2,0,0,1-.509-.195,1.138,1.138,0,0,1-.867-.419a1.066,1.066,0,0,1-.241-.33.946.946,0,0,1-.09-.41.95.95,0,0,1,.09-.406A1.017,1.017,0,0,1-.867-1.9a1.164,1.164,0,0,1,.358-.22A1.2,1.2,0,0,1-.061-2.2a1.206,1.206,0,0,1,.444.083,1.15,1.15,0,0,1,.362.22,1.017,1.017,0,0,1,.241.331.95.95,0,0,1,.09.406.946.946,0,0,1-.09.41,1.066,1.066,0,0,1-.241.33,1.125,1.125,0,0,1-.362.224A1.206,1.206,0,0,1-.061-.112ZM-.812,2.436,1.131.171,2.922-2.186l.419.372L1.461.412l-1.852,2.4ZM-.061-.573a.382.382,0,0,0,.19-.048A.611.611,0,0,0,.283-.749.57.57,0,0,0,.39-.935a.657.657,0,0,0,.038-.224.608.608,0,0,0-.144-.41.44.44,0,0,0-.344-.169.382.382,0,0,0-.19.048.6.6,0,0,0-.155.127.582.582,0,0,0-.106.182.633.633,0,0,0-.038.221.624.624,0,0,0,.144.413A.438.438,0,0,0-.061-.573ZM2.6,2.829a1.194,1.194,0,0,1-.448-.083,1.18,1.18,0,0,1-.359-.22A1.047,1.047,0,0,1,1.55,2.2a.945.945,0,0,1-.089-.41.945.945,0,0,1,.089-.41,1.082,1.082,0,0,1,.241-.33A1.154,1.154,0,0,1,2.15.824a1.254,1.254,0,0,1,.895,0,1.167,1.167,0,0,1,.362.224,1,1,0,0,1,.241.33.971.971,0,0,1,.086.41.974.974,0,0,1-.327.737,1.212,1.212,0,0,1-.809.3Zm0-.461a.378.378,0,0,0,.189-.048.587.587,0,0,0,.262-.31.646.646,0,0,0,.038-.22.634.634,0,0,0-.042-.231.67.67,0,0,0-.106-.186.487.487,0,0,0-.155-.124A.419.419,0,0,0,2.6,1.2a.379.379,0,0,0-.19.048.58.58,0,0,0-.155.127.572.572,0,0,0-.107.186.681.681,0,0,0-.038.224.607.607,0,0,0,.145.41A.437.437,0,0,0,2.6,2.368Z" transform="translate(1.198 2.199)" fill="#f79000" stroke="#f79000" stroke-width="0.5"/>
      </g>
    </g>
  </g>
</svg>
