<svg xmlns="http://www.w3.org/2000/svg" xmlns:xlink="http://www.w3.org/1999/xlink" width="47.206" height="30.642" viewBox="0 0 47.206 30.642">
  <defs>
    <clipPath id="clip-path">
      <path id="Path_6120" data-name="Path 6120" d="M0-27.642H47.206V-58.284H0Z" transform="translate(0 58.284)" fill="#e52558"/>
    </clipPath>
  </defs>
  <g id="card-14-img_2" transform="translate(0 58.284)">
    <g id="Group_699" data-name="Group 699" transform="translate(0 -58.284)" clip-path="url(#clip-path)">
      <g id="Group_693" data-name="Group 693" transform="translate(0 0)">
        <path id="Path_6114" data-name="Path 6114" d="M-42.379-20.572l-3.032-14.615c-.006-.029-.013-.057-.022-.086a10.749,10.749,0,0,0-6.246-7.1,12.437,12.437,0,0,0-4.448-1H-75.379a12.437,12.437,0,0,0-4.448,1,10.748,10.748,0,0,0-6.246,7.1c-.008.028-.015.057-.021.086l-3.032,14.614a10.189,10.189,0,0,0-.2,2.882,4.859,4.859,0,0,0,2.91,4.467,6.446,6.446,0,0,0,2.445.489,6.535,6.535,0,0,0,5.872-3.9c.628-1.315,1.155-2.686,1.664-4.013.261-.679.529-1.377.806-2.056h19.746c.213.538.418,1.087.632,1.659A37.014,37.014,0,0,0-53.3-16.48a7.2,7.2,0,0,0,3.419,3.224,6.054,6.054,0,0,0,4.795.032,4.857,4.857,0,0,0,2.91-4.467,10.16,10.16,0,0,0-.2-2.882m-3.54,5.316a4.336,4.336,0,0,1-5.449-2.263,35.337,35.337,0,0,1-1.826-4.3c-.3-.8-.606-1.619-.937-2.41a1.1,1.1,0,0,0-1.013-.675H-76.362a1.1,1.1,0,0,0-1.013.675l-.149.357c-.337.806-.655,1.633-.962,2.433-.495,1.286-1.006,2.617-1.6,3.854a4.261,4.261,0,0,1-5.5,2.328c-.339-.138-1.368-.559-1.549-2.567a8,8,0,0,1,.147-2.253c0-.012.006-.024.008-.036L-83.954-34.7c1.893-6.37,8.3-6.482,8.574-6.484h19.251c.273,0,6.684.114,8.577,6.484l3.026,14.584.008.036c.009.038.911,3.875-1.4,4.82" transform="translate(89.356 43.376)" fill="#e52558"/>
      </g>
      <g id="Group_694" data-name="Group 694" transform="translate(28.882 8.506)">
        <path id="Path_6115" data-name="Path 6115" d="M-1.127,0a1.282,1.282,0,0,0-1.25,1.313,1.282,1.282,0,0,0,1.25,1.313A1.282,1.282,0,0,0,.122,1.313,1.282,1.282,0,0,0-1.127,0" transform="translate(2.377 0)" fill="#e52558"/>
      </g>
      <g id="Group_695" data-name="Group 695" transform="translate(34.595 8.506)">
        <path id="Path_6116" data-name="Path 6116" d="M-1.127,0a1.282,1.282,0,0,0-1.25,1.313,1.282,1.282,0,0,0,1.25,1.313A1.282,1.282,0,0,0,.122,1.313,1.282,1.282,0,0,0-1.127,0" transform="translate(2.377 0)" fill="#e52558"/>
      </g>
      <g id="Group_696" data-name="Group 696" transform="translate(31.738 11.507)">
        <path id="Path_6117" data-name="Path 6117" d="M-1.127,0a1.282,1.282,0,0,0-1.25,1.313,1.282,1.282,0,0,0,1.25,1.313A1.282,1.282,0,0,0,.122,1.313,1.282,1.282,0,0,0-1.127,0" transform="translate(2.377 0)" fill="#e52558"/>
      </g>
      <g id="Group_697" data-name="Group 697" transform="translate(31.738 5.505)">
        <path id="Path_6118" data-name="Path 6118" d="M-1.127,0a1.282,1.282,0,0,0-1.25,1.313,1.282,1.282,0,0,0,1.25,1.313A1.282,1.282,0,0,0,.122,1.313,1.282,1.282,0,0,0-1.127,0" transform="translate(2.377 0)" fill="#e52558"/>
      </g>
      <g id="Group_698" data-name="Group 698" transform="translate(9.576 5.345)">
        <path id="Path_6119" data-name="Path 6119" d="M-6.788-3.045H-8.9V-5.323a1.1,1.1,0,0,0-1.1-1.1,1.1,1.1,0,0,0-1.1,1.1v2.278h-2.116a1.1,1.1,0,0,0-1.1,1.1,1.1,1.1,0,0,0,1.1,1.1H-11.1V1.428a1.1,1.1,0,0,0,1.1,1.1,1.1,1.1,0,0,0,1.1-1.1V-.85h2.116a1.1,1.1,0,0,0,1.1-1.1,1.1,1.1,0,0,0-1.1-1.1" transform="translate(14.312 6.421)" fill="#e52558"/>
      </g>
    </g>
  </g>
</svg>
