<svg xmlns="http://www.w3.org/2000/svg" xmlns:xlink="http://www.w3.org/1999/xlink" width="39.021" height="28" viewBox="0 0 39.021 28">
  <defs>
    <clipPath id="clip-path">
      <path id="Path_5921" data-name="Path 5921" d="M0,.006H39.021v-28H0Z" transform="translate(0 27.994)" fill="#e52558"/>
    </clipPath>
  </defs>
  <g id="card-2-img_12" transform="translate(0 27.994)">
    <g id="Group_451" data-name="Group 451" transform="translate(0 -27.994)" clip-path="url(#clip-path)">
      <g id="Group_443" data-name="Group 443" transform="translate(0.255 0.254)">
        <path id="Path_5913" data-name="Path 5913" d="M.006,0A2.251,2.251,0,0,0-2.237,2.085L-23.4,8.391A2.1,2.1,0,0,0-25.112,7.5h-.3a2.1,2.1,0,0,0-2.1,2.1v8.295a2.1,2.1,0,0,0,2.1,2.1h.3A2.1,2.1,0,0,0-23.4,19.1l3.468,1.033-.188.631a1.467,1.467,0,0,0,.987,1.82l7.1,2.106a1.47,1.47,0,0,0,.419.061,1.464,1.464,0,0,0,.7-.177,1.456,1.456,0,0,0,.706-.871l.184-.621,7.793,2.321A2.251,2.251,0,0,0,.006,27.491a2.252,2.252,0,0,0,2.249-2.249V2.249A2.252,2.252,0,0,0,.006,0M-25.112,18.94h-.3a1.049,1.049,0,0,1-1.048-1.047V9.6a1.049,1.049,0,0,1,1.048-1.047h.3A1.049,1.049,0,0,1-24.065,9.6v8.295a1.049,1.049,0,0,1-1.047,1.047m14.7,2.931-8.548-2.547-.321-.1-3.727-1.11V9.373L-2.244,3.185V24.306l-7.8-2.326Zm-.8,1.535a.405.405,0,0,1-.2.245.41.41,0,0,1-.314.033l-7.1-2.106a.414.414,0,0,1-.279-.513l.188-.63,7.885,2.349ZM1.2,25.241a1.2,1.2,0,0,1-1.2,1.2,1.2,1.2,0,0,1-1.2-1.2V2.249a1.2,1.2,0,0,1,1.2-1.2,1.2,1.2,0,0,1,1.2,1.2Z" transform="translate(27.512)" fill="#e52558"/>
      </g>
      <g id="Group_444" data-name="Group 444" transform="translate(0.255 0.254)">
        <path id="Path_5914" data-name="Path 5914" d="M.006,0A2.251,2.251,0,0,0-2.237,2.085L-23.4,8.391A2.1,2.1,0,0,0-25.112,7.5h-.3a2.1,2.1,0,0,0-2.1,2.1v8.295a2.1,2.1,0,0,0,2.1,2.1h.3A2.1,2.1,0,0,0-23.4,19.1l3.468,1.033-.188.631a1.467,1.467,0,0,0,.987,1.82l7.1,2.106a1.47,1.47,0,0,0,.419.061,1.464,1.464,0,0,0,.7-.177,1.456,1.456,0,0,0,.706-.871l.184-.621,7.793,2.321A2.251,2.251,0,0,0,.006,27.491a2.252,2.252,0,0,0,2.249-2.249V2.249A2.252,2.252,0,0,0,.006,0ZM-25.112,18.94h-.3a1.049,1.049,0,0,1-1.048-1.047V9.6a1.049,1.049,0,0,1,1.048-1.047h.3A1.049,1.049,0,0,1-24.065,9.6v8.295A1.049,1.049,0,0,1-25.112,18.94Zm14.7,2.931-8.548-2.547-.321-.1-3.727-1.11V9.373L-2.244,3.185V24.306l-7.8-2.326Zm-.8,1.535a.405.405,0,0,1-.2.245.41.41,0,0,1-.314.033l-7.1-2.106a.414.414,0,0,1-.279-.513l.188-.63,7.885,2.349ZM1.2,25.241a1.2,1.2,0,0,1-1.2,1.2,1.2,1.2,0,0,1-1.2-1.2V2.249a1.2,1.2,0,0,1,1.2-1.2,1.2,1.2,0,0,1,1.2,1.2Z" transform="translate(27.512)" fill="#e52558" stroke="#d33b5b" stroke-width="1"/>
      </g>
      <g id="Group_445" data-name="Group 445" transform="translate(31.129 4.645)">
        <path id="Path_5915" data-name="Path 5915" d="M0,0A.523.523,0,0,0,.372-.153L3.48-3.262A.524.524,0,0,0,3.48-4a.524.524,0,0,0-.743,0L-.372-.9a.527.527,0,0,0,0,.744A.523.523,0,0,0,0,0" transform="translate(0.526 4.16)" fill="#e52558"/>
      </g>
      <g id="Group_446" data-name="Group 446" transform="translate(31.129 4.645)">
        <path id="Path_5916" data-name="Path 5916" d="M0,0A.523.523,0,0,0,.372-.153L3.48-3.262A.524.524,0,0,0,3.48-4a.524.524,0,0,0-.743,0L-.372-.9a.527.527,0,0,0,0,.744A.523.523,0,0,0,0,0Z" transform="translate(0.526 4.16)" fill="#e52558" stroke="#d33b5b" stroke-width="1"/>
      </g>
      <g id="Group_447" data-name="Group 447" transform="translate(31.129 18.956)">
        <path id="Path_5917" data-name="Path 5917" d="M0,0A.526.526,0,0,0-.743,0a.525.525,0,0,0,0,.744L2.365,3.852a.526.526,0,0,0,.744-.743Z" transform="translate(0.898 0.154)" fill="#e52558"/>
      </g>
      <g id="Group_448" data-name="Group 448" transform="translate(31.129 18.956)">
        <path id="Path_5918" data-name="Path 5918" d="M0,0A.526.526,0,0,0-.743,0a.525.525,0,0,0,0,.744L2.365,3.852a.526.526,0,0,0,.744-.743Z" transform="translate(0.898 0.154)" fill="#e52558" stroke="#d33b5b" stroke-width="1"/>
      </g>
      <g id="Group_449" data-name="Group 449" transform="translate(33.198 13.379)">
        <path id="Path_5919" data-name="Path 5919" d="M0,0H-4.516a.525.525,0,0,0-.526.526.525.525,0,0,0,.526.525H0A.526.526,0,0,0,.527.526.526.526,0,0,0,0,0" transform="translate(5.042)" fill="#e52558"/>
      </g>
      <g id="Group_450" data-name="Group 450" transform="translate(33.198 13.379)">
        <path id="Path_5920" data-name="Path 5920" d="M0,0H-4.516a.525.525,0,0,0-.526.526.525.525,0,0,0,.526.525H0A.526.526,0,0,0,.527.526.526.526,0,0,0,0,0Z" transform="translate(5.042)" fill="#e52558" stroke="#d33b5b" stroke-width="1"/>
      </g>
    </g>
  </g>
</svg>
