<svg xmlns="http://www.w3.org/2000/svg" xmlns:xlink="http://www.w3.org/1999/xlink" width="50.104" height="34.557" viewBox="0 0 50.104 34.557">
  <defs>
    <clipPath id="clip-path">
      <path id="Path_5966" data-name="Path 5966" d="M0,6.407H50.1V-28.15H0Z" transform="translate(0 28.15)" fill="#2aafe3"/>
    </clipPath>
  </defs>
  <g id="card-2-img-18" transform="translate(0 28.15)">
    <g id="Group_502" data-name="Group 502" transform="translate(0 -28.15)" clip-path="url(#clip-path)">
      <g id="Group_488" data-name="Group 488" transform="translate(24.311 0.153)">
        <path id="Path_5952" data-name="Path 5952" d="M2.377,0c-7.07,0-12.821,4-12.821,8.915,0,3.14,2.371,6.052,6.21,7.653a26.347,26.347,0,0,1-1.589,5.48.732.732,0,0,0,.232.836.735.735,0,0,0,.452.155.728.728,0,0,0,.416-.13l7.334-5.081c.343-.009,1-.031,1.388-.064,6.382-.557,11.2-4.36,11.2-8.849C15.2,4,9.444,0,2.377,0m1.5,16.306c-.482.042-1.5.064-1.515.064a.72.72,0,0,0-.4.13l-5.637,3.905c1.528-4.586.718-4.9.258-5.086-3.43-1.35-5.561-3.8-5.561-6.4,0-4.108,5.1-7.45,11.359-7.452S13.732,4.806,13.732,8.915c0,3.723-4.239,6.9-9.859,7.391" transform="translate(10.444)" fill="#2aafe3"/>
      </g>
      <g id="Group_489" data-name="Group 489" transform="translate(24.311 0.153)">
        <path id="Path_5953" data-name="Path 5953" d="M2.377,0c-7.07,0-12.821,4-12.821,8.915,0,3.14,2.371,6.052,6.21,7.653a26.347,26.347,0,0,1-1.589,5.48.732.732,0,0,0,.232.836.735.735,0,0,0,.452.155.728.728,0,0,0,.416-.13l7.334-5.081c.343-.009,1-.031,1.388-.064,6.382-.557,11.2-4.36,11.2-8.849C15.2,4,9.444,0,2.377,0Zm1.5,16.306c-.482.042-1.5.064-1.515.064a.72.72,0,0,0-.4.13l-5.637,3.905c1.528-4.586.718-4.9.258-5.086-3.43-1.35-5.561-3.8-5.561-6.4,0-4.108,5.1-7.45,11.359-7.452S13.732,4.806,13.732,8.915C13.732,12.638,9.494,15.815,3.874,16.306Z" transform="translate(10.444)" fill="#2aafe3" stroke="#2aafe3" stroke-width="0.25"/>
      </g>
      <g id="Group_490" data-name="Group 490" transform="translate(31.531 4.669)">
        <path id="Path_5954" data-name="Path 5954" d="M2.153,0H-8.707a.754.754,0,0,0-.754.754.754.754,0,0,0,.754.754H2.153A.754.754,0,0,0,2.153,0" transform="translate(9.461)" fill="#2aafe3"/>
      </g>
      <g id="Group_491" data-name="Group 491" transform="translate(31.531 4.669)">
        <path id="Path_5955" data-name="Path 5955" d="M2.153,0H-8.707a.754.754,0,0,0-.754.754.754.754,0,0,0,.754.754H2.153A.754.754,0,0,0,2.153,0Z" transform="translate(9.461)" fill="#2aafe3" stroke="#2aafe3" stroke-width="0.25"/>
      </g>
      <g id="Group_492" data-name="Group 492" transform="translate(31.441 7.763)">
        <path id="Path_5956" data-name="Path 5956" d="M2.153,0H-8.707a.754.754,0,0,0-.754.754.754.754,0,0,0,.754.754H2.153A.754.754,0,0,0,2.153,0" transform="translate(9.461)" fill="#2aafe3"/>
      </g>
      <g id="Group_493" data-name="Group 493" transform="translate(31.441 7.763)">
        <path id="Path_5957" data-name="Path 5957" d="M2.153,0H-8.707a.754.754,0,0,0-.754.754.754.754,0,0,0,.754.754H2.153A.754.754,0,0,0,2.153,0Z" transform="translate(9.461)" fill="#2aafe3" stroke="#2aafe3" stroke-width="0.25"/>
      </g>
      <g id="Group_494" data-name="Group 494" transform="translate(31.53 11.243)">
        <path id="Path_5958" data-name="Path 5958" d="M1.458,0H-5.651a.754.754,0,0,0-.754.754.754.754,0,0,0,.754.754H1.458A.754.754,0,1,0,1.458,0" transform="translate(6.405)" fill="#2aafe3"/>
      </g>
      <g id="Group_495" data-name="Group 495" transform="translate(31.53 11.243)">
        <path id="Path_5959" data-name="Path 5959" d="M1.458,0H-5.651a.754.754,0,0,0-.754.754.754.754,0,0,0,.754.754H1.458A.754.754,0,1,0,1.458,0Z" transform="translate(6.405)" fill="#2aafe3" stroke="#2aafe3" stroke-width="0.25"/>
      </g>
      <g id="Group_496" data-name="Group 496" transform="translate(11.172 26.11)">
        <path id="Path_5960" data-name="Path 5960" d="M0,0c.044.022.088.045.131.07C.145.043.16.016.173-.012L0,0" transform="translate(0 0.012)" fill="#2aafe3"/>
      </g>
      <g id="Group_497" data-name="Group 497" transform="translate(11.172 26.11)">
        <path id="Path_5961" data-name="Path 5961" d="M0,0c.044.022.088.045.131.07C.145.043.16.016.173-.012Z" transform="translate(0 0.012)" fill="#2aafe3" stroke="#2aafe3" stroke-width="0.25"/>
      </g>
      <g id="Group_498" data-name="Group 498" transform="translate(0.153 15.071)">
        <path id="Path_5962" data-name="Path 5962" d="M1.156,3.426c.5-.021,1.035-.042,1.587-.059v-1.1c-.572.02-1.123.041-1.643.061-2.158.087-4.39.178-4.881-.241a.176.176,0,0,1-.065-.16c0-2.4,2.256-4.477,5.475-5.383C2.742-3.767,1.565-4.7-.014-4.072l-.156.065a2.556,2.556,0,0,1-1.854-.938C-2.343-5.544-.629-5.987-.2-7.418a9.512,9.512,0,0,0-.011-3.466,2.944,2.944,0,0,1,2.95-2.938,2.943,2.943,0,0,1,2.949,2.938c0,.787-.712,2.717.023,4.04a10.532,10.532,0,0,0,1.3,1.728A3.488,3.488,0,0,1,8.137-5.7c-.063-.074-.129-.15-.2-.231A9.491,9.491,0,0,1,6.792-7.443a4.142,4.142,0,0,1,0-2.352,6.513,6.513,0,0,0,.136-1.089,4.181,4.181,0,0,0-4.181-4.17,4.181,4.181,0,0,0-4.181,4.17,7.034,7.034,0,0,0,.085.916,5.287,5.287,0,0,1-.021,2.193,2.409,2.409,0,0,1-.872,1.013,4.135,4.135,0,0,0-.681.651A1.579,1.579,0,0,0-3.11-4.364,2.671,2.671,0,0,0-1.761-3.193c-.074.047-.147.093-.221.142a6.082,6.082,0,0,0-3.1,4.979,1.222,1.222,0,0,0,.447.954c.87.741,2.826.663,5.787.544" transform="translate(5.078 15.054)" fill="#2aafe3"/>
      </g>
      <g id="Group_499" data-name="Group 499" transform="translate(0.153 15.071)">
        <path id="Path_5963" data-name="Path 5963" d="M1.156,3.426c.5-.021,1.035-.042,1.587-.059v-1.1c-.572.02-1.123.041-1.643.061-2.158.087-4.39.178-4.881-.241a.176.176,0,0,1-.065-.16c0-2.4,2.256-4.477,5.475-5.383C2.742-3.767,1.565-4.7-.014-4.072l-.156.065a2.556,2.556,0,0,1-1.854-.938C-2.343-5.544-.629-5.987-.2-7.418a9.512,9.512,0,0,0-.011-3.466,2.944,2.944,0,0,1,2.95-2.938,2.943,2.943,0,0,1,2.949,2.938c0,.787-.712,2.717.023,4.04a10.532,10.532,0,0,0,1.3,1.728A3.488,3.488,0,0,1,8.137-5.7c-.063-.074-.129-.15-.2-.231A9.491,9.491,0,0,1,6.792-7.443a4.142,4.142,0,0,1,0-2.352,6.513,6.513,0,0,0,.136-1.089,4.181,4.181,0,0,0-4.181-4.17,4.181,4.181,0,0,0-4.181,4.17,7.034,7.034,0,0,0,.085.916,5.287,5.287,0,0,1-.021,2.193,2.409,2.409,0,0,1-.872,1.013,4.135,4.135,0,0,0-.681.651A1.579,1.579,0,0,0-3.11-4.364,2.671,2.671,0,0,0-1.761-3.193c-.074.047-.147.093-.221.142a6.082,6.082,0,0,0-3.1,4.979,1.222,1.222,0,0,0,.447.954C-3.761,3.624-1.805,3.545,1.156,3.426Z" transform="translate(5.078 15.054)" fill="#2aafe3" stroke="#2aafe3" stroke-width="0.25"/>
      </g>
      <g id="Group_500" data-name="Group 500" transform="translate(9.256 13.375)">
        <path id="Path_5964" data-name="Path 5964" d="M2.331,2.136A1.892,1.892,0,0,1,2.048.971,8.149,8.149,0,0,0,4.6-3.8a4.53,4.53,0,0,0-.969-3.823A4.709,4.709,0,0,0,.045-9.383,4.764,4.764,0,0,0-3.626-7.548,4.364,4.364,0,0,0-4.5-3.784C-4.09-2-3.516-.054-2.389.944c.064.25.1,1.063-.379,1.311a1.974,1.974,0,0,0-.284.176A11.271,11.271,0,0,0-7.144,4.291a6.98,6.98,0,0,0-3.1,5.587,1.443,1.443,0,0,0,.447,1.07c.87.832,2.826.744,5.787.61,1.2-.055,2.566-.117,3.993-.117s2.793.061,4.007.115c1.052.047,1.981.088,2.785.088,1.546,0,2.625-.153,3.21-.712a1.43,1.43,0,0,0,.442-1.056,6.98,6.98,0,0,0-3.1-5.587,11.48,11.48,0,0,0-4.743-2,.829.829,0,0,0-.261-.155M9.2,9.878a.192.192,0,0,1-.061.164c-.509.487-2.838.384-5.09.284-1.226-.054-2.616-.115-4.061-.115s-2.833.061-4.049.117c-2.158.1-4.39.2-4.881-.27a.21.21,0,0,1-.065-.179c0-3.329,3.432-6.089,7.871-6.526V2.117l-.1.01a2.681,2.681,0,0,0,.1-.5A1.968,1.968,0,0,0-1.518.068C-2.434-.682-2.975-2.648-3.3-4.063a3.156,3.156,0,0,1,.64-2.719A3.576,3.576,0,0,1,.045-8.152,3.469,3.469,0,0,1,2.676-6.844a3.32,3.32,0,0,1,.713,2.8A6.876,6.876,0,0,1,1.161.113,1.841,1.841,0,0,0,.882,1.791c.017.08.043.184.079.3l-.064,0V3.318c4.646.295,8.3,3.124,8.3,6.56" transform="translate(10.24 9.383)" fill="#2aafe3"/>
      </g>
      <g id="Group_501" data-name="Group 501" transform="translate(9.256 13.375)">
        <path id="Path_5965" data-name="Path 5965" d="M2.331,2.136A1.892,1.892,0,0,1,2.048.971,8.149,8.149,0,0,0,4.6-3.8a4.53,4.53,0,0,0-.969-3.823A4.709,4.709,0,0,0,.045-9.383,4.764,4.764,0,0,0-3.626-7.548,4.364,4.364,0,0,0-4.5-3.784C-4.09-2-3.516-.054-2.389.944c.064.25.1,1.063-.379,1.311a1.974,1.974,0,0,0-.284.176A11.271,11.271,0,0,0-7.144,4.291a6.98,6.98,0,0,0-3.1,5.587,1.443,1.443,0,0,0,.447,1.07c.87.832,2.826.744,5.787.61,1.2-.055,2.566-.117,3.993-.117s2.793.061,4.007.115c1.052.047,1.981.088,2.785.088,1.546,0,2.625-.153,3.21-.712a1.43,1.43,0,0,0,.442-1.056,6.98,6.98,0,0,0-3.1-5.587,11.48,11.48,0,0,0-4.743-2A.829.829,0,0,0,2.331,2.136ZM9.2,9.878a.192.192,0,0,1-.061.164c-.509.487-2.838.384-5.09.284-1.226-.054-2.616-.115-4.061-.115s-2.833.061-4.049.117c-2.158.1-4.39.2-4.881-.27a.21.21,0,0,1-.065-.179c0-3.329,3.432-6.089,7.871-6.526V2.117l-.1.01a2.681,2.681,0,0,0,.1-.5A1.968,1.968,0,0,0-1.518.068C-2.434-.682-2.975-2.648-3.3-4.063a3.156,3.156,0,0,1,.64-2.719A3.576,3.576,0,0,1,.045-8.152,3.469,3.469,0,0,1,2.676-6.844a3.32,3.32,0,0,1,.713,2.8A6.876,6.876,0,0,1,1.161.113,1.841,1.841,0,0,0,.882,1.791c.017.08.043.184.079.3l-.064,0V3.318C5.543,3.612,9.2,6.442,9.2,9.878Z" transform="translate(10.24 9.383)" fill="#2aafe3" stroke="#2aafe3" stroke-width="0.25"/>
      </g>
    </g>
  </g>
</svg>
