<svg xmlns="http://www.w3.org/2000/svg" xmlns:xlink="http://www.w3.org/1999/xlink" width="27" height="27.016" viewBox="0 0 27 27.016">
  <defs>
    <clipPath id="clip-path">
      <path id="Path_5903" data-name="Path 5903" d="M0,.973H27V-26.043H0Z" transform="translate(0 26.043)" fill="#e52558"/>
    </clipPath>
  </defs>
  <g id="card-2-img_9" transform="translate(0 26.043)">
    <g id="Group_427" data-name="Group 427" transform="translate(0 -26.043)" clip-path="url(#clip-path)">
      <g id="Group_425" data-name="Group 425" transform="translate(0 2.749)">
        <path id="Path_5901" data-name="Path 5901" d="M.524.057,2.2-1.536H-12.617a1.411,1.411,0,0,0-1.409,1.41V21.321a1.411,1.411,0,0,0,1.409,1.41H6.992a1.412,1.412,0,0,0,1.41-1.41V7.865L6.808,9.382V21.137H-12.434V.057Z" transform="translate(14.026 1.536)" fill="#e52558"/>
      </g>
      <g id="Group_426" data-name="Group 426" transform="translate(6.75 0.001)">
        <path id="Path_5902" data-name="Path 5902" d="M.5.029-11.437,12.565c-.769.806-1.638,4.495-1.976,6.043a.794.794,0,0,0,.19.707.8.8,0,0,0,.588.259.657.657,0,0,0,.1-.007c2.165-.276,5.912-.862,6.689-1.677L6.093,5.355A2.639,2.639,0,0,0,6,1.63L4.228-.061A2.6,2.6,0,0,0,2.346-.785,2.615,2.615,0,0,0,.5.029m1.91.778a1.032,1.032,0,0,1,.717.285L4.9,2.784a1.047,1.047,0,0,1,.036,1.472L-6.976,16.768a19.419,19.419,0,0,1-4.623,1.06,19.617,19.617,0,0,1,1.315-4.164L1.655,1.128A1.037,1.037,0,0,1,2.384.807Z" transform="translate(13.432 0.786)" fill="#e52558"/>
      </g>
    </g>
  </g>
</svg>
