<svg xmlns="http://www.w3.org/2000/svg" xmlns:xlink="http://www.w3.org/1999/xlink" width="31.67" height="31.666" viewBox="0 0 31.67 31.666">
  <defs>
    <clipPath id="clip-path">
      <path id="Path_6056" data-name="Path 6056" d="M0,3.231H31.67V-28.435H0Z" transform="translate(0 28.435)" fill="#f79000"/>
    </clipPath>
  </defs>
  <g id="cars-2-img_23" transform="translate(0 28.435)">
    <g id="Group_592" data-name="Group 592" transform="translate(0 -28.435)" clip-path="url(#clip-path)">
      <g id="Group_578" data-name="Group 578" transform="translate(0.282 0.278)">
        <path id="Path_6042" data-name="Path 6042" d="M1.587,0a15.554,15.554,0,1,0,0,31.109A15.554,15.554,0,1,0,1.587,0m0,29.8a14.246,14.246,0,0,1,0-28.492,14.246,14.246,0,0,1,0,28.492" transform="translate(13.968)" fill="#f79000"/>
      </g>
      <g id="Group_579" data-name="Group 579" transform="translate(0.282 0.278)">
        <path id="Path_6043" data-name="Path 6043" d="M1.587,0a15.554,15.554,0,1,0,0,31.109A15.554,15.554,0,1,0,1.587,0Zm0,29.8a14.246,14.246,0,0,1,0-28.492,14.246,14.246,0,0,1,0,28.492Z" transform="translate(13.968)" fill="#f79000" stroke="#f79000" stroke-width="0.5"/>
      </g>
      <g id="Group_580" data-name="Group 580" transform="translate(15.245 27.7)">
        <path id="Path_6044" data-name="Path 6044" d="M0,0V2.9a.592.592,0,1,0,1.185,0V0Z" fill="#f79000"/>
      </g>
      <g id="Group_581" data-name="Group 581" transform="translate(15.245 27.7)">
        <path id="Path_6045" data-name="Path 6045" d="M0,0V2.9a.592.592,0,1,0,1.185,0V0Z" fill="#f79000" stroke="#f79000" stroke-width="0.5"/>
      </g>
      <g id="Group_582" data-name="Group 582" transform="translate(15.245 0.476)">
        <path id="Path_6046" data-name="Path 6046" d="M.121.356v-2.9a.592.592,0,0,0-.592-.592.592.592,0,0,0-.592.592v2.9Z" transform="translate(1.064 3.134)" fill="#f79000"/>
      </g>
      <g id="Group_583" data-name="Group 583" transform="translate(15.245 0.476)">
        <path id="Path_6047" data-name="Path 6047" d="M.121.356v-2.9a.592.592,0,0,0-.592-.592.592.592,0,0,0-.592.592v2.9Z" transform="translate(1.064 3.134)" fill="#f79000" stroke="#f79000" stroke-width="0.5"/>
      </g>
      <g id="Group_584" data-name="Group 584" transform="translate(27.503 15.24)">
        <path id="Path_6048" data-name="Path 6048" d="M0,.121H2.9A.592.592,0,0,0,3.49-.472.592.592,0,0,0,2.9-1.064H0Z" transform="translate(0 1.064)" fill="#f79000"/>
      </g>
      <g id="Group_585" data-name="Group 585" transform="translate(27.503 15.24)">
        <path id="Path_6049" data-name="Path 6049" d="M0,.121H2.9A.592.592,0,0,0,3.49-.472.592.592,0,0,0,2.9-1.064H0Z" transform="translate(0 1.064)" fill="#f79000" stroke="#f79000" stroke-width="0.5"/>
      </g>
      <g id="Group_586" data-name="Group 586" transform="translate(0.279 15.24)">
        <path id="Path_6050" data-name="Path 6050" d="M.356,0h-2.9a.592.592,0,0,0-.592.592.592.592,0,0,0,.592.592h2.9Z" transform="translate(3.134)" fill="#f79000"/>
      </g>
      <g id="Group_587" data-name="Group 587" transform="translate(0.279 15.24)">
        <path id="Path_6051" data-name="Path 6051" d="M.356,0h-2.9a.592.592,0,0,0-.592.592.592.592,0,0,0,.592.592h2.9Z" transform="translate(3.134)" fill="#f79000" stroke="#f79000" stroke-width="0.5"/>
      </g>
      <g id="Group_588" data-name="Group 588" transform="translate(15.311 6.006)">
        <path id="Path_6052" data-name="Path 6052" d="M.06,1.271A.592.592,0,0,1-.532.679V-10.6a.592.592,0,0,1,.592-.592.592.592,0,0,1,.592.592V.679a.592.592,0,0,1-.592.592" transform="translate(0.532 11.188)" fill="#f79000"/>
      </g>
      <g id="Group_589" data-name="Group 589" transform="translate(15.311 6.006)">
        <path id="Path_6053" data-name="Path 6053" d="M.06,1.271A.592.592,0,0,1-.532.679V-10.6a.592.592,0,0,1,.592-.592.592.592,0,0,1,.592.592V.679A.592.592,0,0,1,.06,1.271Z" transform="translate(0.532 11.188)" fill="#f79000" stroke="#f79000" stroke-width="0.5"/>
      </g>
      <g id="Group_590" data-name="Group 590" transform="translate(10.69 15.698)">
        <path id="Path_6054" data-name="Path 6054" d="M.06.712A.588.588,0,0,1-.327.568.593.593,0,0,1-.386-.269l5.029-5.8a.593.593,0,0,1,.836-.06.594.594,0,0,1,.059.836L.508.509a.591.591,0,0,1-.448.2" transform="translate(0.531 6.271)" fill="#f79000"/>
      </g>
      <g id="Group_591" data-name="Group 591" transform="translate(10.69 15.698)">
        <path id="Path_6055" data-name="Path 6055" d="M.06.712A.588.588,0,0,1-.327.568.593.593,0,0,1-.386-.269l5.029-5.8a.593.593,0,0,1,.836-.06.594.594,0,0,1,.059.836L.508.509A.591.591,0,0,1,.06.712Z" transform="translate(0.531 6.271)" fill="#f79000" stroke="#f79000" stroke-width="0.5"/>
      </g>
    </g>
  </g>
</svg>
