<svg xmlns="http://www.w3.org/2000/svg" xmlns:xlink="http://www.w3.org/1999/xlink" width="27" height="26.544" viewBox="0 0 27 26.544">
  <defs>
    <clipPath id="clip-path">
      <path id="Path_5929" data-name="Path 5929" d="M0-.789H27V-27.333H0Z" transform="translate(0 27.333)" fill="#e52558"/>
    </clipPath>
  </defs>
  <g id="card-2-img_13" transform="translate(0 27.333)">
    <g id="Group_460" data-name="Group 460" transform="translate(0 -27.333)" clip-path="url(#clip-path)">
      <g id="Group_453" data-name="Group 453" transform="translate(0 0)">
        <path id="Path_5922" data-name="Path 5922" d="M0-.766A.8.8,0,0,0,.81.026H26.19A.8.8,0,0,0,27-.766V-23.291a.8.8,0,0,0-.81-.791H19.215v-1.644a.8.8,0,0,0-.81-.791.8.8,0,0,0-.81.791v1.644H9.872v-1.492a.8.8,0,0,0-.81-.791.8.8,0,0,0-.81.791v1.492H.81a.8.8,0,0,0-.81.791ZM1.619-22.5H8.252v1.492a.8.8,0,0,0,.81.791.8.8,0,0,0,.81-.791V-22.5H17.6v1.34a.8.8,0,0,0,.81.791.8.8,0,0,0,.81-.791V-22.5h6.166V-1.557H1.619Z" transform="translate(0 26.518)" fill="#e52558"/>
      </g>
      <g id="Group_454" data-name="Group 454" transform="translate(5.325 10.076)">
        <path id="Path_5923" data-name="Path 5923" d="M-.02-.1A.655.655,0,0,0,.64-.744V-2.8a.655.655,0,0,0-.66-.645H-2.438A.655.655,0,0,0-3.1-2.8V-.744a.655.655,0,0,0,.66.645Z" transform="translate(3.098 3.448)" fill="#e52558"/>
      </g>
      <g id="Group_455" data-name="Group 455" transform="translate(11.709 10.076)">
        <path id="Path_5924" data-name="Path 5924" d="M-.02-.1A.655.655,0,0,0,.64-.744V-2.8a.655.655,0,0,0-.66-.645H-2.438A.655.655,0,0,0-3.1-2.8V-.744a.655.655,0,0,0,.66.645Z" transform="translate(3.098 3.448)" fill="#e52558"/>
      </g>
      <g id="Group_456" data-name="Group 456" transform="translate(18.56 10.076)">
        <path id="Path_5925" data-name="Path 5925" d="M-.02-.1A.655.655,0,0,0,.64-.744V-2.8a.655.655,0,0,0-.66-.645H-2.438A.655.655,0,0,0-3.1-2.8V-.744a.655.655,0,0,0,.66.645Z" transform="translate(3.098 3.448)" fill="#e52558"/>
      </g>
      <g id="Group_457" data-name="Group 457" transform="translate(5.636 16.468)">
        <path id="Path_5926" data-name="Path 5926" d="M-.02,0H-2.438A.655.655,0,0,0-3.1.645V2.7a.655.655,0,0,0,.66.645H-.02A.655.655,0,0,0,.64,2.7V.645A.655.655,0,0,0-.02,0" transform="translate(3.098)" fill="#e52558"/>
      </g>
      <g id="Group_458" data-name="Group 458" transform="translate(12.02 16.468)">
        <path id="Path_5927" data-name="Path 5927" d="M-.02,0H-2.438A.655.655,0,0,0-3.1.645V2.7a.655.655,0,0,0,.66.645H-.02A.655.655,0,0,0,.64,2.7V.645A.655.655,0,0,0-.02,0" transform="translate(3.098)" fill="#e52558"/>
      </g>
      <g id="Group_459" data-name="Group 459" transform="translate(18.872 16.468)">
        <path id="Path_5928" data-name="Path 5928" d="M-.02,0H-2.438A.655.655,0,0,0-3.1.645V2.7a.655.655,0,0,0,.66.645H-.02A.655.655,0,0,0,.64,2.7V.645A.655.655,0,0,0-.02,0" transform="translate(3.098)" fill="#e52558"/>
      </g>
    </g>
  </g>
</svg>
