<svg xmlns="http://www.w3.org/2000/svg" width="81" height="86" viewBox="0 0 81 86"><g><g><g><path fill="#2d7da5" d="M45.703 22.315c0 3.02-1.429 6.548-5.457 6.548s-5.457-3.528-5.457-6.548 1.43-6.55 5.457-6.55c4.028 0 5.457 3.53 5.457 6.55zm2.183 0c0-5.223-3.07-8.732-7.64-8.732s-7.64 3.509-7.64 8.732c0 5.222 3.07 8.73 7.64 8.73s7.64-3.508 7.64-8.73z"/></g><g><path fill="#2d7da5" d="M50.206 85.617a1.091 1.091 0 0 1-1.092-1.092v-38.2c0-.165.038-.329.11-.478l13.277-27.204a1.091 1.091 0 0 1 1.962.957L51.297 46.579v37.946c0 .603-.489 1.092-1.091 1.092z"/></g><g><path fill="#2d7da5" d="M30.56 85.617a1.09 1.09 0 0 1-1.092-1.091v-38l-13.071-26.91a1.091 1.091 0 1 1 1.963-.952l13.182 27.133c.072.148.11.311.11.477v38.252c0 .603-.49 1.09-1.092 1.09z"/></g><g><path fill="#2d7da5" d="M45.703 35.44h-.002l-11.97-.028c-.394-.001-.756-.214-.949-.556L22.141 15.983a1.092 1.092 0 0 1 1.901-1.072l10.33 18.319 10.736.025 11.774-18.351a1.092 1.092 0 0 1 1.837 1.178L46.622 34.937a1.09 1.09 0 0 1-.919.502z"/></g><g><path fill="#e52558" d="M71.716 32.547a1.09 1.09 0 0 1-.819-.37c-.188-.212-4.601-5.247-5.428-8.747a1.091 1.091 0 1 1 2.124-.501c.418 1.767 2.174 4.328 3.567 6.128l1.04-4.4c.098-.421.437-.745.863-.824l3.757-.696-4.549-3.555a1.093 1.093 0 0 1 1.344-1.72l6.458 5.047a1.09 1.09 0 0 1-.473 1.934l-5.44 1.007-1.382 5.855a1.09 1.09 0 0 1-1.062.842z"/></g><g><path fill="#e52558" d="M61.912 9.455c-.203 0-.408-.057-.59-.174-3.085-1.988-11.314-6.612-21.076-6.612-9.761 0-17.99 4.624-21.075 6.612a1.092 1.092 0 0 1-1.181-1.835C21.236 5.354 29.905.486 40.246.486c10.342 0 19.011 4.868 22.258 6.96a1.092 1.092 0 0 1-.592 2.01z"/></g><g><path fill="#e52558" d="M13.4 24.425c.168 0 .332-.021.493-.065.37-.1 1.028-.411 1.301-1.388.354-1.266 1.884-2.563 2.519-3.015.102-.085 10.338-8.556 22.533-8.556 12.171 0 22.432 8.472 22.61 8.614.559.394 2.089 1.691 2.443 2.956.273.978.932 1.29 1.3 1.389 1.396.378 3.049-.905 5.606-3.401.69-.674 1.602-1.739 1.567-3.215-.036-1.474-.966-2.97-2.947-4.725l-1.235-1.042a1.092 1.092 0 1 0-1.408 1.667l1.215 1.025c1.415 1.255 2.173 2.337 2.192 3.129.012.487-.26.966-.908 1.598-1.927 1.882-2.879 2.57-3.347 2.773-.713-2.139-2.963-3.758-3.151-3.883-.441-.371-10.955-9.069-23.937-9.069-12.98 0-23.495 8.698-23.86 9.009-.26.183-2.485 1.783-3.228 3.943-.467-.204-1.42-.893-3.345-2.773-.65-.632-.921-1.111-.91-1.598.02-.792.778-1.874 2.21-3.142l1.031-.952a1.092 1.092 0 0 0-1.48-1.605l-1.015.938c-1.962 1.737-2.892 3.233-2.928 4.707-.035 1.476.877 2.541 1.567 3.215 2.263 2.208 3.816 3.466 5.111 3.466z"/></g><g><path fill="#e52558" d="M8.777 32.547a1.096 1.096 0 0 1-1.058-.825L6.21 25.729l-5.298-.883a1.091 1.091 0 0 1-.493-1.937l6.458-5.048a1.092 1.092 0 0 1 1.344 1.72l-4.502 3.52 3.555.593c.428.071.773.389.878.81l1.165 4.626c1.442-1.806 3.268-4.41 3.569-6.139a1.097 1.097 0 0 1 1.262-.888c.595.104.992.67.889 1.263-.595 3.419-4.958 8.281-5.454 8.825a1.09 1.09 0 0 1-.806.356z"/></g><g><path fill="#2d7da5" d="M18.121 9.686c.344.44.265 1.078-.174 1.422l-3.07 2.4a1.016 1.016 0 0 1-1.425-.176l-1.89-2.342 4.676-3.7zm-3.865 6.219c.688 0 1.38-.22 1.964-.676l3.071-2.4a3.202 3.202 0 0 0 .548-4.49l-1.882-2.396a2.13 2.13 0 0 0-1.428-.809 2.117 2.117 0 0 0-1.581.44l-4.73 3.696c-.451.353-.738.86-.807 1.43-.07.567.086 1.13.44 1.58l1.883 2.4a3.196 3.196 0 0 0 2.522 1.225z"/></g><g><path fill="#2d7da5" d="M40.383 85.617a1.091 1.091 0 0 1-1.092-1.091v-15.28a1.091 1.091 0 1 1 2.183 0v15.28c0 .602-.489 1.091-1.091 1.091z"/></g><g><path fill="#2d7da5" d="M62.615 11.108a1.019 1.019 0 0 1-.164-1.436l1.75-2.378 4.712 3.654-1.805 2.386c-.344.44-.983.518-1.423.174zm3.686 4.795c.954 0 1.9-.424 2.537-1.238l1.804-2.386c.354-.45.51-1.012.44-1.58a2.128 2.128 0 0 0-.807-1.43l-4.729-3.696a2.14 2.14 0 0 0-3.02.383L60.722 8.34a3.2 3.2 0 0 0 .55 4.487l3.07 2.4a3.176 3.176 0 0 0 1.96.675z"/></g></g></g></svg>