<svg xmlns="http://www.w3.org/2000/svg" xmlns:xlink="http://www.w3.org/1999/xlink" width="25.04" height="31.824" viewBox="0 0 25.04 31.824">
  <defs>
    <clipPath id="clip-path">
      <path id="Path_6086" data-name="Path 6086" d="M0,2.256H25.04V-29.568H0Z" transform="translate(0 29.568)" fill="#f49c20"/>
    </clipPath>
  </defs>
  <g id="card-2-img_29" transform="translate(0 29.568)">
    <g id="Group_626" data-name="Group 626" transform="translate(0 -29.568)" clip-path="url(#clip-path)">
      <g id="Group_623" data-name="Group 623" transform="translate(4.873 -0.001)">
        <path id="Path_6083" data-name="Path 6083" d="M.736.018V-.235H-6.9A2.751,2.751,0,0,0-9.647,2.514V24.365A2.75,2.75,0,0,0-6.9,27.112H7.755A2.751,2.751,0,0,0,10.5,24.365V8.859l.016-.018L10.5,8.825V8.6h-.245L.75,0ZM8.672,24.365a.917.917,0,0,1-.917.916H-6.9a.916.916,0,0,1-.916-.916V2.514A.917.917,0,0,1-6.9,1.6h5.8l-.031,8.838h9.8ZM.707,8.6l.02-6.152L7.528,8.6Z" transform="translate(9.647 0.235)" fill="#f49c20"/>
      </g>
      <g id="Group_624" data-name="Group 624" transform="translate(0 4.476)">
        <path id="Path_6084" data-name="Path 6084" d="M.195.13H1.382V-1.7H.195A2.75,2.75,0,0,0-2.553,1.046V22.9A2.75,2.75,0,0,0,.195,25.645H14.851A2.75,2.75,0,0,0,17.6,22.9v-.822H15.766V22.9a.917.917,0,0,1-.916.916H.195A.917.917,0,0,1-.721,22.9V1.046A.917.917,0,0,1,.195.13" transform="translate(2.553 1.702)" fill="#f49c20"/>
      </g>
      <g id="Group_625" data-name="Group 625" transform="translate(8.871 15.238)">
        <path id="Path_6085" data-name="Path 6085" d="M0,.232A3.382,3.382,0,0,1,.217-.954,3.216,3.216,0,0,1,.849-2a3.2,3.2,0,0,1,1.016-.748,3.143,3.143,0,0,1,1.367-.286,2.98,2.98,0,0,1,1.565.4,2.54,2.54,0,0,1,.984,1.034L4.8-.932A1.647,1.647,0,0,0,4.487-1.4a1.56,1.56,0,0,0-.4-.3,1.814,1.814,0,0,0-.443-.161A2.131,2.131,0,0,0,3.2-1.91a1.72,1.72,0,0,0-.836.194,1.847,1.847,0,0,0-.591.5,2.243,2.243,0,0,0-.356.7,2.662,2.662,0,0,0-.119.779,2.539,2.539,0,0,0,.139.836,2.2,2.2,0,0,0,.393.707,1.952,1.952,0,0,0,.609.489,1.656,1.656,0,0,0,.78.185,2.086,2.086,0,0,0,.462-.056,1.729,1.729,0,0,0,.858-.484,1.422,1.422,0,0,0,.3-.457l1.044.6a1.993,1.993,0,0,1-.449.651,2.9,2.9,0,0,1-.654.475,3.376,3.376,0,0,1-.781.3,3.409,3.409,0,0,1-.813.1,2.789,2.789,0,0,1-1.283-.3,3.325,3.325,0,0,1-1-.772,3.583,3.583,0,0,1-.655-1.08A3.369,3.369,0,0,1,0,.232" transform="translate(0 3.037)" fill="#f49c20"/>
      </g>
    </g>
    <g id="Group_627" data-name="Group 627" transform="translate(14.836 -14.293)">
      <path id="Path_6087" data-name="Path 6087" d="M.095,0,1.869,4.958,3.622,0H4.961L2.4,6.556H1.333L-1.244,0Z" transform="translate(1.244)" fill="#f49c20"/>
    </g>
  </g>
</svg>
