<svg xmlns="http://www.w3.org/2000/svg" width="22" height="29" viewBox="0 0 22 29"><g><g><g><path fill="#f31955" d="M2.493 5.132A4.999 4.999 0 0 1 0 5.805V3.312A2.467 2.467 0 0 0 2.493.819h2.493v12.466H2.493zm12.469 14.385a2.467 2.467 0 0 0 2.493-2.493h2.493v11.218h-2.493v-6.905a5.016 5.016 0 0 1-2.493.672zm3.74-13.712c0-1.398-1.112-2.493-2.53-2.493h-1.177c-1.418 0-2.53 1.095-2.53 2.493v3.777c0 1.376 1.112 2.456 2.53 2.456h1.177c1.418 0 2.53-1.08 2.53-2.456zm2.492 0v3.777c0 2.775-2.205 4.949-5.022 4.949h-1.177c-2.817 0-5.023-2.174-5.023-4.95V5.806c0-2.749 2.253-4.986 5.023-4.986h1.177c2.77 0 5.022 2.237 5.022 4.986zM8.73 20.763a2.533 2.533 0 0 0-2.53-2.53H5.024a2.532 2.532 0 0 0-2.53 2.53v2.456a2.533 2.533 0 0 0 2.53 2.53H6.2a2.533 2.533 0 0 0 2.53-2.53zm2.493 0v2.456A5.028 5.028 0 0 1 6.2 28.242H5.023A5.028 5.028 0 0 1 0 23.219v-2.456a5.03 5.03 0 0 1 5.023-5.023H6.2a5.029 5.029 0 0 1 5.022 5.023z"/></g></g></g></svg>