<svg xmlns="http://www.w3.org/2000/svg" xmlns:xlink="http://www.w3.org/1999/xlink" width="27" height="20.432" viewBox="0 0 27 20.432">
  <defs>
    <clipPath id="clip-path">
      <path id="Path_5936" data-name="Path 5936" d="M0-2.353H27V-22.785H0Z" transform="translate(0 22.785)" fill="#e52558"/>
    </clipPath>
  </defs>
  <g id="card-2-img_15" transform="translate(0 22.785)">
    <g id="Group_472" data-name="Group 472" transform="translate(0 -22.785)" clip-path="url(#clip-path)">
      <g id="Group_470" data-name="Group 470" transform="translate(0 0)">
        <path id="Path_5934" data-name="Path 5934" d="M-3.11-1.633V-9.561a6.259,6.259,0,0,0-6.252-6.252h-14.5A6.259,6.259,0,0,0-30.11-9.561v7.928a6.259,6.259,0,0,0,6.252,6.252h14.5A6.259,6.259,0,0,0-3.11-1.633M-9.362,2.987h-14.5a4.626,4.626,0,0,1-4.621-4.621V-9.561a4.626,4.626,0,0,1,4.621-4.621h14.5A4.626,4.626,0,0,1-4.741-9.561v7.928A4.626,4.626,0,0,1-9.362,2.987" transform="translate(30.11 15.813)" fill="#e52558"/>
      </g>
      <g id="Group_471" data-name="Group 471" transform="translate(9.853 4.927)">
        <path id="Path_5935" data-name="Path 5935" d="M-1.024-.562-8.669-5.319a.815.815,0,0,0-.828-.02.815.815,0,0,0-.419.713V4.547a.816.816,0,0,0,.408.707.816.816,0,0,0,.407.109.808.808,0,0,0,.408-.11L-1.047.837A.815.815,0,0,0-.639.144a.815.815,0,0,0-.385-.706m-7.26,3.7V-3.158L-3.04.1Z" transform="translate(9.915 5.442)" fill="#e52558"/>
      </g>
    </g>
  </g>
</svg>
