<svg xmlns="http://www.w3.org/2000/svg" xmlns:xlink="http://www.w3.org/1999/xlink" width="35.415" height="31.824" viewBox="0 0 35.415 31.824">
  <defs>
    <clipPath id="clip-path">
      <path id="Path_6081" data-name="Path 6081" d="M0,4.965H35.415V-26.859H0Z" transform="translate(0 26.859)" fill="#f49c20"/>
    </clipPath>
  </defs>
  <g id="card-2-img_28" transform="translate(0 26.859)">
    <g id="Group_620" data-name="Group 620" transform="translate(0 -26.859)" clip-path="url(#clip-path)">
      <g id="Group_618" data-name="Group 618" transform="translate(0 0)">
        <path id="Path_6079" data-name="Path 6079" d="M2.763,0C-7,0-14.947,5.526-14.947,12.315c0,4.337,3.275,8.358,8.578,10.57a36.248,36.248,0,0,1-2.194,7.568,1.01,1.01,0,0,0,.321,1.155,1.008,1.008,0,0,0,.623.216,1.012,1.012,0,0,0,.576-.18L3.086,24.625c.474-.013,1.383-.041,1.918-.088,8.816-.77,15.463-6.024,15.463-12.222C20.468,5.525,12.526,0,2.763,0M4.829,22.524c-.666.057-2.077.088-2.091.088a1.019,1.019,0,0,0-.555.18L-5.6,28.186c2.11-6.335.992-6.775.354-7.026-4.737-1.865-7.68-5.255-7.68-8.845,0-5.675,7.038-10.293,15.69-10.294S18.448,6.639,18.448,12.315c0,5.141-5.856,9.53-13.619,10.209" transform="translate(14.947)" fill="#f49c20"/>
      </g>
      <g id="Group_619" data-name="Group 619" transform="translate(13.824 6.819)">
        <path id="Path_6080" data-name="Path 6080" d="M1.256,1.326V3.613H-6.416V1.326h2.682V-4.4a2.055,2.055,0,0,1-.538.462,7.235,7.235,0,0,1-.8.444,5.665,5.665,0,0,1-.9.34,3.056,3.056,0,0,1-.822.133V-5.382A2.144,2.144,0,0,0-5.963-5.6,7.188,7.188,0,0,0-5-6.118a7.925,7.925,0,0,0,.821-.6,2.038,2.038,0,0,0,.444-.462h2.589v8.5Z" transform="translate(6.795 7.176)" fill="#f49c20"/>
      </g>
    </g>
  </g>
</svg>
