<svg xmlns="http://www.w3.org/2000/svg" width="33" height="18" viewBox="0 0 33 18"><g><g><g><path fill="#e52558" d="M16.918 13.136a8.641 8.641 0 0 1-7.572 4.487 8.598 8.598 0 0 1-6.465-2.903v2.216H.71v-6.287H7v2.169h-2.87c1.207 1.662 3.11 2.635 5.217 2.635 3.564 0 6.464-2.9 6.464-6.466 0-3.564-2.9-6.464-6.464-6.464a6.506 6.506 0 0 0-6.022 4.112l-.146.371-2.02-.788.144-.371C2.584 2.562 5.816.353 9.346.353a8.642 8.642 0 0 1 7.572 4.487A8.643 8.643 0 0 1 24.49.353a8.597 8.597 0 0 1 6.464 2.903V1.04h2.17v6.287h-6.288v-2.17h2.87c-1.207-1.661-3.11-2.634-5.216-2.634a6.472 6.472 0 0 0-6.466 6.464c0 3.566 2.9 6.466 6.466 6.466a6.507 6.507 0 0 0 6.022-4.113l.145-.37 2.02.787-.144.371c-1.281 3.287-4.514 5.495-8.043 5.495a8.643 8.643 0 0 1-7.572-4.487z"/></g></g></g></svg>