<svg xmlns="http://www.w3.org/2000/svg" width="104" height="77" viewBox="0 0 104 77"><g><g><g><g><path fill="#186b96" d="M37.079 70.392a1.395 1.395 0 0 1-.985-2.379l7.509-7.51 8.616-1.032 7.274-7.272a1.394 1.394 0 1 1 1.972 1.97l-7.956 7.956-8.615 1.031-6.83 6.828a1.39 1.39 0 0 1-.985.408z"/></g><g><path fill="#186b96" d="M21.292 55.148a1.395 1.395 0 0 1-.985-2.38l6.76-6.759-.016-10.483a6.805 6.805 0 0 1 1.79-4.613l6.623-7.232c.061-.067.13-.129.202-.182 2.77-2.034 6.663-1.714 9.06.747l11.688 12a2.653 2.653 0 0 1-.226 3.907l-.638.518a7.5 7.5 0 0 1-9.91-.402l-4.765-3.793a1.392 1.392 0 1 1 1.737-2.178l4.86 3.876c1.809 1.722 4.482 1.83 6.32.336l.522-.425-11.586-11.893a4.154 4.154 0 0 0-5.308-.521l-6.524 7.123a4.023 4.023 0 0 0-1.057 2.728l.016 11.062c0 .37-.147.726-.408.988l-7.17 7.168a1.384 1.384 0 0 1-.985.408z"/></g><g><g><path fill="#186b96" d="M57.707 49.222a1.22 1.22 0 0 1-.356-.871c0-.33.13-.637.365-.87l6.709-6.652a1.22 1.22 0 0 1 .866-.357h.005c.329.002.637.131.868.365l1.848 1.864c.478.48.476 1.262-.007 1.74l-6.709 6.651a1.235 1.235 0 0 1-1.74-.007l-1.849-1.863zm2.722 5.013a4.007 4.007 0 0 0 2.83-1.164l6.709-6.65a4.024 4.024 0 0 0 .023-5.684l-1.848-1.862a3.991 3.991 0 0 0-2.836-1.19h-.016a3.993 3.993 0 0 0-2.83 1.165l-6.708 6.652a3.99 3.99 0 0 0-1.19 2.836 3.986 3.986 0 0 0 1.165 2.848l1.848 1.862a4.004 4.004 0 0 0 2.853 1.187z"/></g><g><path fill="#186b96" d="M54.886 48.643a4 4 0 0 1-2.853-1.186l-2.588-2.609a4.025 4.025 0 0 1-.768-4.567l2.512 1.206a1.237 1.237 0 0 0 .235 1.399l2.589 2.609c.479.482 1.258.484 1.74.007l7.826-7.76A1.235 1.235 0 0 0 63.587 36l-2.586-2.608a1.232 1.232 0 0 0-1.741-.007l-3.238 3.21-1.962-1.98 3.236-3.209a4.021 4.021 0 0 1 5.682.024l2.588 2.609a4.024 4.024 0 0 1-.025 5.682l-7.825 7.76a4.008 4.008 0 0 1-2.83 1.162z"/></g><g><path fill="#186b96" d="M55.331 37.289l-1.965-1.978 5.048-5.013c.234-.233.364-.54.365-.87a1.22 1.22 0 0 0-.357-.87l-2.588-2.61a1.217 1.217 0 0 0-.868-.365h-.004c-.328 0-.634.127-.867.357l-4.712 4.807-1.99-1.953 4.726-4.82a4.005 4.005 0 0 1 2.843-1.178h.016a3.988 3.988 0 0 1 2.835 1.19l2.588 2.608a3.995 3.995 0 0 1 1.166 2.845 3.99 3.99 0 0 1-1.19 2.837z"/></g><g><path fill="#186b96" d="M49.045 31.016l-1.979-1.963 3.94-3.974c.49-.487.492-1.269.014-1.751l-2.585-2.608c-.231-.234-.492-.377-.874-.363-.326 0-.634.126-.867.356l-3.876 3.889-1.973-1.968 3.881-3.894a3.989 3.989 0 0 1 2.834-1.17h.018a3.989 3.989 0 0 1 2.836 1.188l2.587 2.608a4.027 4.027 0 0 1-.024 5.683z"/></g></g><g><path fill="#186b96" d="M42.13 53.61a1.393 1.393 0 0 1-1.087-2.263c3.23-4.048.35-13.378-1.033-16.63a1.394 1.394 0 1 1 2.564-1.094c.23.54 5.575 13.287.647 19.462a1.392 1.392 0 0 1-1.091.526z"/></g><g><path fill="#186b96" d="M17.876 74.908a1.393 1.393 0 0 1-.988-2.378L28.54 60.83a1.395 1.395 0 0 1 1.976 1.967L18.865 74.497a1.39 1.39 0 0 1-.989.41z"/></g><g><g><path fill="#186b96" d="M25.478 76.643a1.395 1.395 0 0 1-.992-2.372l4.865-4.935a1.393 1.393 0 1 1 1.983 1.958l-4.864 4.934a1.391 1.391 0 0 1-.992.415z"/></g></g><g><path fill="#186b96" d="M22.483 61.092a1.392 1.392 0 0 1-.985-2.38l1.534-1.533a1.392 1.392 0 0 1 1.97 0 1.392 1.392 0 0 1 0 1.97l-1.534 1.535a1.384 1.384 0 0 1-.985.408z"/></g><g><path fill="#186b96" d="M16.343 67.233a1.392 1.392 0 0 1-.985-2.38l3.069-3.07a1.395 1.395 0 0 1 1.97 1.97l-3.068 3.071c-.273.272-.63.409-.986.409z"/></g></g><g><path fill="#db0a47" d="M82.205 70.288c-.3 0-.598-.096-.846-.286L64.605 57.19a1.392 1.392 0 0 1 1.693-2.214L81.092 66.29l1.698-15.287a1.4 1.4 0 0 1 .746-1.085 1.4 1.4 0 0 1 1.317.02l9.04 5.023-12.828-12.83-2.916 13.75a1.393 1.393 0 0 1-2.349.695l-5.421-5.42a1.395 1.395 0 0 1 1.97-1.97l3.606 3.603 2.916-13.747c.106-.5.478-.902.967-1.048a1.397 1.397 0 0 1 1.381.35l21.682 21.682a1.393 1.393 0 0 1-1.661 2.203L85.33 53.39 83.592 69.05a1.398 1.398 0 0 1-1.386 1.239z"/></g><g><path fill="#db0a47" d="M23.076 34.81a1.39 1.39 0 0 1-.985-.409L.409 12.721a1.393 1.393 0 0 1 1.638-2.217l14.823 7.847.87-16.545A1.396 1.396 0 0 1 19.99.78l21.313 16.632c.607.474.714 1.349.241 1.956a1.397 1.397 0 0 1-1.956.242L20.384 4.624l-.845 16.055a1.395 1.395 0 0 1-2.043 1.158l-8.562-4.533L21.93 30.3l1.235-15.227a1.393 1.393 0 1 1 2.375-.872l7.39 7.39a1.392 1.392 0 0 1 0 1.97 1.392 1.392 0 0 1-1.97 0L25.7 18.3 24.466 33.53a1.395 1.395 0 0 1-1.39 1.28z"/></g></g></g></svg>