<svg xmlns="http://www.w3.org/2000/svg" xmlns:xlink="http://www.w3.org/1999/xlink" width="35.7" height="201.155" viewBox="0 0 35.7 201.155">
  <defs>
    <clipPath id="clip-path">
      <rect id="Rectangle_9013" data-name="Rectangle 9013" width="35.7" height="201.155" fill="none"/>
    </clipPath>
  </defs>
  <g id="Vertical_Full_Colour" data-name="Vertical Full Colour" transform="translate(17.85 100.578)">
    <g id="Vertical_Full_Colour-2" data-name="Vertical Full Colour" transform="translate(-17.85 -100.578)" clip-path="url(#clip-path)">
      <path id="Path_48321" data-name="Path 48321" d="M15.213,86.827c-.251,0-.334,0-.334-.084s0-.167.334-.251a30.013,30.013,0,0,0,3.428-1.756L30.513,77.8a.909.909,0,0,0,.585-.836v-3.01a.669.669,0,0,0-.752-.752H7.187a.669.669,0,0,0-.752.752v2.926a.669.669,0,0,0,.752.752H22.319c.251,0,.334,0,.334.084s0,.167-.334.251L18.892,79.72,7.1,86.659a.909.909,0,0,0-.585.836v2.926a.669.669,0,0,0,.752.752H30.429a.669.669,0,0,0,.752-.752V87.5a.669.669,0,0,0-.752-.752H15.213m-4.682,18.895c0-3.428,2.257-5.936,8.277-5.936s8.277,2.508,8.277,5.936-2.257,5.936-8.277,5.936-8.277-2.508-8.277-5.936m-4.431,0c0,5.852,3.679,10.869,12.708,10.869s12.708-5.016,12.708-10.869S27.837,94.769,18.808,94.769,6.1,99.785,6.1,105.638M30.346,120.1H7.187a.669.669,0,0,0-.752.752V124.2a.669.669,0,0,0,.752.752H30.429a.669.669,0,0,0,.752-.752v-3.344a.669.669,0,0,0-.752-.752m-20.4,8.11H7.187a.669.669,0,0,0-.752.752v16.219a.669.669,0,0,0,.752.752H9.946a.669.669,0,0,0,.752-.752V139.5H30.429a.669.669,0,0,0,.752-.752v-3.428a.669.669,0,0,0-.752-.752H10.7V128.88a.669.669,0,0,0-.752-.752m20.4,20.985H7.187a.669.669,0,0,0-.752.752v3.344a.669.669,0,0,0,.752.752H30.429a.669.669,0,0,0,.752-.752v-3.344a.669.669,0,0,0-.752-.752m-8.946,9.2H7.187a.669.669,0,0,0-.752.752v3.344a.669.669,0,0,0,.752.752H21.9c3.261,0,5.1,1.421,5.1,4.18s-1.839,4.264-5.1,4.264H7.187a.669.669,0,0,0-.752.752V175.7a.669.669,0,0,0,.752.752h14.3c7.19,0,9.949-3.679,9.949-9.029s-2.759-9.113-9.949-9.113M13.959,184.9c2.759,0,3.762,1.421,3.762,4.264v2.759H10.364v-2.843c0-2.759,1-4.18,3.679-4.18m16.387-6.772a.669.669,0,0,0-.669.5,1.756,1.756,0,0,1-.92,1l-5.351,3.261c-1.338.836-2.09,1.338-2.508,2.174-.836-3.344-3.929-5.016-7.106-5.016-4.431,0-7.441,2.759-7.441,7.441v8.528a.669.669,0,0,0,.752.752H30.429a.669.669,0,0,0,.752-.752v-3.344a.669.669,0,0,0-.752-.752H21.567v-2.007c0-.5.251-.752.752-1.087l6.354-3.6c1.839-1,2.425-1.5,2.425-2.759v-3.679a.669.669,0,0,0-.669-.669m-20.4,21.152H7.187a.669.669,0,0,0-.752.752V212.4a.669.669,0,0,0,.752.752H30.429a.669.669,0,0,0,.752-.752v-3.344a.669.669,0,0,0-.752-.752H20.313V201.45a.669.669,0,0,0-.752-.752H16.8a.669.669,0,0,0-.752.752v6.856H10.7v-8.277a.669.669,0,0,0-.752-.752" transform="translate(-1 -11.999)" fill="#2d7da5"/>
      <path id="Path_48322" data-name="Path 48322" d="M7.274,35.7H0V0H7.274V5.016H4.849V30.6H7.274Zm28.51,0H28.51V30.683h2.425V5.016H28.51V0h7.274Z" fill="#e52357"/>
    </g>
  </g>
</svg>
