<svg xmlns="http://www.w3.org/2000/svg" xmlns:xlink="http://www.w3.org/1999/xlink" width="35.7" height="199.6" viewBox="0 0 35.7 199.6">
  <defs>
    <clipPath id="clip-path">
      <rect id="Rectangle_8861" data-name="Rectangle 8861" width="35.424" height="199.6" fill="none"/>
    </clipPath>
  </defs>
  <g id="Negative_Vertical_-_Pink_Solid" data-name="Negative Vertical - Pink Solid" transform="translate(0)">
    <g id="Negative_Vertical_-_Pink_Solid-2" data-name="Negative Vertical - Pink Solid" transform="translate(17.712 99.8)">
      <g id="Group_6448" data-name="Group 6448" transform="translate(-17.712 -99.8)" clip-path="url(#clip-path)">
        <path id="Path_48075" data-name="Path 48075" d="M15.143,86.721c-.249,0-.332,0-.332-.083s0-.166.332-.249a29.784,29.784,0,0,0,3.4-1.742l11.78-6.886a.9.9,0,0,0,.581-.83V73.945a.664.664,0,0,0-.747-.747H7.178a.664.664,0,0,0-.747.747v2.9a.664.664,0,0,0,.747.747H22.194c.249,0,.332,0,.332.083s0,.166-.332.249l-3.4,1.742L7.1,86.555a.9.9,0,0,0-.581.83v2.9a.664.664,0,0,0,.747.747h22.98a.664.664,0,0,0,.747-.747v-2.9a.664.664,0,0,0-.747-.747h-15.1M10.5,105.387c0-3.4,2.24-5.89,8.213-5.89s8.213,2.489,8.213,5.89-2.24,5.89-8.213,5.89-8.213-2.489-8.213-5.89m-4.4,0c0,5.807,3.65,10.785,12.61,10.785s12.61-4.978,12.61-10.785S27.669,94.6,18.71,94.6,6.1,99.58,6.1,105.387m24.058,14.352H7.178a.664.664,0,0,0-.747.747V123.8a.664.664,0,0,0,.747.747H30.241a.664.664,0,0,0,.747-.747v-3.318a.664.664,0,0,0-.747-.747M10,127.786H7.178a.664.664,0,0,0-.747.747v16.094a.664.664,0,0,0,.747.747H9.916a.664.664,0,0,0,.747-.747v-5.641H30.241a.664.664,0,0,0,.747-.747v-3.4a.664.664,0,0,0-.747-.747H10.663V128.45a.664.664,0,0,0-.747-.747m20.242,20.823H7.178a.664.664,0,0,0-.747.747v3.318a.664.664,0,0,0,.747.747H30.241a.664.664,0,0,0,.747-.747v-3.318a.664.664,0,0,0-.747-.747m-8.877,9.126H7.178a.664.664,0,0,0-.747.747v3.318a.664.664,0,0,0,.747.747h14.6c3.235,0,5.061,1.41,5.061,4.148s-1.825,4.231-5.061,4.231H7.178a.664.664,0,0,0-.747.747v3.318a.664.664,0,0,0,.747.747H21.365c7.134,0,9.872-3.65,9.872-8.96s-2.738-9.043-9.872-9.043M13.9,184.032c2.738,0,3.733,1.41,3.733,4.231V191h-7.3V188.18c0-2.738,1-4.148,3.65-4.148m16.26-6.72a.664.664,0,0,0-.664.5,1.742,1.742,0,0,1-.913,1l-5.309,3.235a6.018,6.018,0,0,0-2.489,2.157c-.83-3.318-3.9-4.978-7.052-4.978-4.4,0-7.383,2.738-7.383,7.383v8.462a.664.664,0,0,0,.747.747H30.241a.664.664,0,0,0,.747-.747v-3.318a.664.664,0,0,0-.747-.747H21.447V189.01c0-.5.249-.747.747-1.078l6.3-3.567c1.825-1,2.406-1.493,2.406-2.738v-3.65a.664.664,0,0,0-.664-.664M10,198.3H7.178a.664.664,0,0,0-.747.747v12.278a.664.664,0,0,0,.747.747H30.241a.664.664,0,0,0,.747-.747v-3.318a.664.664,0,0,0-.747-.747H20.2v-6.8a.664.664,0,0,0-.747-.747H16.719a.664.664,0,0,0-.747.747v6.8H10.663v-8.213a.664.664,0,0,0-.747-.747" transform="translate(-1.039 -12.473)" fill="#fff"/>
        <path id="Path_48076" data-name="Path 48076" d="M7.217,35.424H0V0H7.217V4.978H4.812V30.363H7.217Zm28.289,0H28.289V30.446h2.406V4.978H28.289V0h7.217Z" fill="#e52357"/>
      </g>
    </g>
  </g>
</svg>
