<svg xmlns="http://www.w3.org/2000/svg" xmlns:xlink="http://www.w3.org/1999/xlink" width="39.919" height="224.928" viewBox="0 0 39.919 224.928">
  <defs>
    <clipPath id="clip-path">
      <rect id="Rectangle_8860" data-name="Rectangle 8860" width="39.919" height="224.928" fill="none"/>
    </clipPath>
  </defs>
  <g id="Group_6447" data-name="Group 6447" clip-path="url(#clip-path)">
    <path id="Path_48073" data-name="Path 48073" d="M16.29,88.438c-.28,0-.374,0-.374-.094s0-.187.374-.28A33.558,33.558,0,0,0,20.123,86.1L33.4,78.341a1.017,1.017,0,0,0,.654-.935V74.041a.748.748,0,0,0-.841-.841H7.315a.748.748,0,0,0-.841.841v3.272a.748.748,0,0,0,.841.841H24.236c.28,0,.374,0,.374.093s0,.187-.374.28L20.4,80.491,7.222,88.251a1.017,1.017,0,0,0-.654.935v3.272a.748.748,0,0,0,.841.841h25.8a.748.748,0,0,0,.841-.841V89.186a.748.748,0,0,0-.841-.841H16.29m-5.235,21.128c0-3.833,2.524-6.638,9.255-6.638s9.255,2.8,9.255,6.638-2.524,6.638-9.255,6.638-9.255-2.8-9.255-6.638m-4.955,0c0,6.544,4.113,12.153,14.21,12.153s14.21-5.609,14.21-12.153S30.406,97.319,20.31,97.319,6.1,102.928,6.1,109.472m27.111,16.173H7.315a.748.748,0,0,0-.841.841v3.739a.748.748,0,0,0,.841.841h25.9a.748.748,0,0,0,.841-.841v-3.739a.748.748,0,0,0-.841-.841m-22.717,9.068H7.315a.748.748,0,0,0-.841.841v18.136a.748.748,0,0,0,.841.841H10.4a.748.748,0,0,0,.841-.841v-6.357H33.211a.748.748,0,0,0,.841-.841V142.66a.748.748,0,0,0-.841-.841H11.242v-6.357a.748.748,0,0,0-.841-.841m22.811,23.465H7.315a.748.748,0,0,0-.841.841v3.739a.748.748,0,0,0,.841.841h25.9a.748.748,0,0,0,.841-.841v-3.739a.748.748,0,0,0-.841-.841M23.3,168.369H7.315a.748.748,0,0,0-.841.841v3.739a.748.748,0,0,0,.841.841H23.769c3.646,0,5.7,1.589,5.7,4.674s-2.057,4.768-5.7,4.768H7.315a.748.748,0,0,0-.841.841v3.739a.748.748,0,0,0,.841.841H23.3c8.04,0,11.125-4.113,11.125-10.1s-3.085-10.19-11.125-10.19M14.888,198.1c3.085,0,4.207,1.589,4.207,4.768v3.085H10.868v-3.179c0-3.085,1.122-4.674,4.113-4.674M33.3,190.525a.748.748,0,0,0-.748.561,1.963,1.963,0,0,1-1.028,1.122l-5.983,3.646c-1.5.935-2.337,1.5-2.8,2.431-.935-3.739-4.394-5.609-7.946-5.609-4.955,0-8.32,3.085-8.32,8.32v9.536a.748.748,0,0,0,.841.841h25.9a.748.748,0,0,0,.841-.841v-3.739a.748.748,0,0,0-.841-.841H23.395v-2.244c0-.561.28-.841.841-1.215l7.1-4.02c2.057-1.122,2.711-1.683,2.711-3.085v-4.113a.748.748,0,0,0-.748-.748M10.494,214.177H7.315a.748.748,0,0,0-.841.841v13.836a.748.748,0,0,0,.841.841h25.9a.748.748,0,0,0,.841-.841v-3.74a.748.748,0,0,0-.841-.841H21.993v-7.666a.748.748,0,0,0-.841-.841H18.066a.748.748,0,0,0-.841.841v7.666H11.242v-9.255a.748.748,0,0,0-.841-.841" transform="translate(-0.397 -4.768)" fill="#fff"/>
    <path id="Path_48074" data-name="Path 48074" d="M8.133,39.919H0V0H8.133V5.609H5.422V34.216H8.133Zm31.879,0H31.879V34.309H34.59V5.609H31.879V0h8.133Z" fill="#fff"/>
  </g>
</svg>
