<svg xmlns="http://www.w3.org/2000/svg" xmlns:xlink="http://www.w3.org/1999/xlink" width="213.985" height="38.298" viewBox="0 0 213.985 38.298">
  <defs>
    <clipPath id="clip-path">
      <rect id="Rectangle_8885" data-name="Rectangle 8885" width="213.985" height="38.298" fill="none"/>
    </clipPath>
  </defs>
  <g id="Horizontal_Full_Colour" data-name="Horizontal Full Colour" transform="translate(106.993 19.149)">
    <g id="Group_6473" data-name="Group 6473" transform="translate(-106.993 -19.149)" clip-path="url(#clip-path)">
      <path id="Path_48104" data-name="Path 48104" d="M135.682,16.078c0-.269,0-.359.09-.359s.18,0,.269.359a32.417,32.417,0,0,0,1.886,3.682L145.47,32.51a.977.977,0,0,0,.9.629h3.143a.718.718,0,0,0,.808-.808V7.457a.718.718,0,0,0-.808-.808h-3.143a.718.718,0,0,0-.808.808v13.02a30.917,30.917,0,0,0,.09,3.233c.09.629,0,.359-.09.359s-.18,0-.269-.359a41.215,41.215,0,0,0-1.886-3.682L135.861,7.278a.977.977,0,0,0-.9-.629h-3.143a.718.718,0,0,0-.808.808V32.331a.718.718,0,0,0,.808.808h3.143a.718.718,0,0,0,.808-.808V19.31a30.922,30.922,0,0,0-.09-3.233m-20.2-5.118c3.682,0,6.376,2.425,6.376,8.89s-2.694,8.89-6.376,8.89-6.376-2.425-6.376-8.89,2.694-8.89,6.376-8.89m0-4.759c-6.286,0-11.674,3.951-11.674,13.649S109.192,33.5,115.478,33.5s11.674-3.951,11.674-13.649S121.763,6.2,115.478,6.2M99.943,32.241V7.457a.718.718,0,0,0-.808-.808H95.543a.718.718,0,0,0-.808.808V32.331a.718.718,0,0,0,.808.808h3.592a.718.718,0,0,0,.808-.808m-8.71-21.91V7.457a.718.718,0,0,0-.808-.808H73a.718.718,0,0,0-.808.808V10.42a.718.718,0,0,0,.808.808H79.11v21.1a.718.718,0,0,0,.808.808H83.6a.718.718,0,0,0,.808-.808v-21.1h6.106a.718.718,0,0,0,.808-.808M68.694,32.331V7.457a.718.718,0,0,0-.808-.808H64.294a.718.718,0,0,0-.808.808V32.331a.718.718,0,0,0,.808.808h3.592a.718.718,0,0,0,.808-.808m-9.788-9.518V7.457a.718.718,0,0,0-.808-.808H54.506a.718.718,0,0,0-.808.808v15.8c0,3.5-1.527,5.478-4.49,5.478s-4.58-1.976-4.58-5.478V7.457a.718.718,0,0,0-.808-.808H40.228a.718.718,0,0,0-.808.808V22.812c0,7.723,3.951,10.686,9.7,10.686s9.608-3.053,9.608-10.686M30.171,14.731c0,2.963-1.527,4.041-4.58,4.041H22.9V10.78H25.95c2.963,0,4.49,1.078,4.49,3.951m7.274,17.6a.718.718,0,0,0-.539-.718,1.886,1.886,0,0,1-1.078-.988l-3.5-5.747c-.9-1.437-1.437-2.245-2.335-2.694,3.592-.9,5.388-4.22,5.388-7.633,0-4.759-2.963-7.992-7.992-7.992H18.408a.718.718,0,0,0-.808.808V32.331a.718.718,0,0,0,.808.808H22a.718.718,0,0,0,.808-.808V22.812h2.155c.539,0,.808.269,1.167.808l3.861,6.825c1.078,1.976,1.616,2.6,2.963,2.6h3.951a.718.718,0,0,0,.718-.718M14.905,10.42V7.457a.718.718,0,0,0-.808-.808H.807A.718.718,0,0,0,0,7.457V32.331a.718.718,0,0,0,.808.808H4.4a.718.718,0,0,0,.808-.808V21.465h7.363a.718.718,0,0,0,.808-.808V17.694a.718.718,0,0,0-.808-.808H5.207V11.229H14.1a.718.718,0,0,0,.808-.808" transform="translate(0.001 -0.633)" fill="#2d7da5"/>
      <path id="Path_48105" data-name="Path 48105" d="M203.312,38.343H195.5V0h7.812V5.388h-2.6V32.866h2.6Z" transform="translate(-19.948)" fill="#e52357"/>
      <path id="Path_48106" data-name="Path 48106" d="M237.412,38.343H229.6V32.866h2.6V5.388h-2.6V0h7.812Z" transform="translate(-23.427)" fill="#e52357"/>
    </g>
  </g>
</svg>
