<svg id="Group_6523" data-name="Group 6523" xmlns="http://www.w3.org/2000/svg" width="104.385" height="26.095" viewBox="0 0 104.385 26.095">
  <path id="Path_48179" data-name="Path 48179" d="M343.863,0h22.368a1.863,1.863,0,0,1,1.863,1.863h0V24.231a1.863,1.863,0,0,1-1.863,1.863H343.863A1.863,1.863,0,0,1,342,24.231h0V1.863A1.863,1.863,0,0,1,343.863,0ZM346.4,7.371a2.175,2.175,0,1,0-.774-.989,2.175,2.175,0,0,0,.774.989Zm14.239,15h3.729l-.05-7.754c0-3.816-2.349-4.97-4.549-4.97a5.036,5.036,0,0,0-4.1,2.028V9.947h-3.727V22.375h3.729v-6.22a2.871,2.871,0,0,1,2.58-3.135l.106-.008c1.374,0,2.289,1.019,2.289,3.033ZM345.727,9.942V22.37h3.729V9.942Z" transform="translate(-263.709)" fill="#fff"/>
  <path id="Path_48180" data-name="Path 48180" d="M59.563,15.316a2.175,2.175,0,1,1-.774.994A2.175,2.175,0,0,1,59.563,15.316Z" transform="translate(-45.219 -11.502)" fill="#fff"/>
  <path id="Path_48181" data-name="Path 48181" d="M59.71,43.43h3.729V55.858H59.71Z" transform="translate(-46.041 -33.488)" fill="#fff"/>
  <path id="Path_48182" data-name="Path 48182" d="M94.737,42.126a5.037,5.037,0,0,0-4.15,2.031V42.428H86.86V54.856h3.729v-6.22a2.87,2.87,0,0,1,2.646-3.079l.039,0c1.374,0,2.289,1.019,2.289,3.033v6.263h3.729V47.084C99.286,43.28,96.937,42.126,94.737,42.126Z" transform="translate(-66.976 -32.482)" fill="#fff"/>
  <path id="Path_48183" data-name="Path 48183" d="M3.729,16.29H0V34.931H11.185V31.2H3.729Z" transform="translate(0 -12.561)" fill="#fff"/>
  <path id="Path_48184" data-name="Path 48184" d="M274.088,22.521a5.265,5.265,0,0,1,1.8,1.225V16.29h3.729V34.931h-3.5V33.3a4.7,4.7,0,0,1-4.121,2,6.213,6.213,0,0,1-6.06-6.362q0-.149.014-.3a6.089,6.089,0,0,1,5.651-6.5q.175-.012.352-.014A5.266,5.266,0,0,1,274.088,22.521Zm-2.649,9.4a3.285,3.285,0,0,0,4.587-2.89q0-.16-.009-.32a3.269,3.269,0,0,0-3.051-3.473q-.114-.007-.229-.007a3.509,3.509,0,0,0-1.3,6.689Z" transform="translate(-205.052 -12.561)" fill="#fff"/>
  <path id="Path_48185" data-name="Path 48185" d="M164.476,22.5h-4.523l-4.15,5.02h-.076V16.29H152V34.931h3.729V28.952h.076l4.251,5.977h4.661l-5.036-6.836Z" transform="translate(-117.204 -12.561)" fill="#fff"/>
  <path id="Path_48186" data-name="Path 48186" d="M210.113,42.237a6.214,6.214,0,0,1,2.477-.444c3.381,0,6.053,2.262,5.952,6.868v.961h-8.7V49.7a2.784,2.784,0,0,0,2.958,2.486,4.074,4.074,0,0,0,2.976-1.243l2.4,1.616a6.835,6.835,0,0,1-5.455,2.411,6.35,6.35,0,0,1-6.523-6.173q-.008-.288.01-.576a6.213,6.213,0,0,1,3.892-5.982Zm.579,3.035a2.685,2.685,0,0,0-.833,1.873h5.219a2.486,2.486,0,0,0-2.359-2.607c-.042,0-.084,0-.127,0A2.686,2.686,0,0,0,210.692,45.272Z" transform="translate(-158.992 -32.224)" fill="#fff"/>
</svg>
