<svg xmlns="http://www.w3.org/2000/svg" width="208" height="147.077" viewBox="0 0 208 147.077">
  <g id="Group_6568" data-name="Group 6568" transform="translate(-366.802 -6570.707)">
    <path id="Path_5404" data-name="Path 5404" d="M438.381,6616.779l-.274-4.028h-9.195v37.258h9.78v-24.62a5.313,5.313,0,0,1,5.406-3.511l3.237.274.1-9.642a6.827,6.827,0,0,0-2.686-.447q-4.063,0-6.37,4.716m-29.483-4.716q-7.058,0-11.054,4.821t-3.994,13.293v2.375q0,8.54,3.978,13.34t11.14,4.806q7.127,0,11.088-4.787t3.959-13.29v-2.376q0-8.542-4-13.36t-11.121-4.821m5.371,22.211q-.381,8.331-5.3,8.331-5.338,0-5.338-9.984v-2.443q0-5.1,1.394-7.563a4.289,4.289,0,0,1,3.874-2.46,4.4,4.4,0,0,1,3.994,2.46q1.413,2.467,1.412,7.563Zm101.613,8.161a2.722,2.722,0,0,1-2.324-.829,5.466,5.466,0,0,1-.6-3.035v-18.518h4.994v-7.3h-4.994v-9.158h-9.745v9.158h-4.3v7.3h4.3v19.819q.1,10.824,9.539,10.825a15.153,15.153,0,0,0,5.373-.931l.068-7.574a9.121,9.121,0,0,1-2.308.242m-47.674-30.372a8.616,8.616,0,0,0-7.264,3.719v-18.663H451.2v52.89h8.985l.311-3.686a8.967,8.967,0,0,0,7.783,4.375q6.2,0,9.091-4.529t2.892-13.583v-2.856q-.069-8.678-2.961-13.174t-9.092-4.492m2.309,21.625q-.071,5.265-1.155,7.094a4.126,4.126,0,0,1-3.872,1.823,4.658,4.658,0,0,1-4.546-2.615v-16.975a4.692,4.692,0,0,1,4.475-2.791,4.16,4.16,0,0,1,3.961,2.014q1.136,2.014,1.137,7.9Zm14.919,16.32h9.778v-37.257h-9.778Zm0-43.422h9.78v-6.311h-9.78Z" transform="translate(12.73 13.209)" fill="#fff"/>
    <path id="Path_5405" data-name="Path 5405" d="M400.8,6688.623a98.684,98.684,0,0,1-29-70" transform="translate(0 25.625)" fill="none" stroke="#0096d1" stroke-miterlimit="10" stroke-width="10"/>
    <path id="Path_5406" data-name="Path 5406" d="M478.943,6574.242a98.694,98.694,0,0,1,29,70" transform="translate(61.863)" fill="none" stroke="#0096d1" stroke-miterlimit="10" stroke-width="10"/>
  </g>
</svg>
