<svg xmlns="http://www.w3.org/2000/svg" width="244.32" height="92.661" viewBox="0 0 244.32 92.661">
  <g id="Group_6559" data-name="Group 6559" transform="translate(-1031.774 -6575.99)">
    <path id="Path_5403" data-name="Path 5403" d="M1101.354,6612.089a11.777,11.777,0,0,0-9.6,4.186q-3.468,4.187-3.468,11.539v2.064q0,7.412,3.453,11.582t9.671,4.171q6.19,0,9.628-4.156t3.437-11.539v-2.062q0-7.416-3.468-11.6t-9.656-4.186m4.665,19.282q-.331,7.235-4.606,7.233-4.632,0-4.632-8.668v-2.123q0-4.423,1.21-6.561a3.724,3.724,0,0,1,3.363-2.139,3.819,3.819,0,0,1,3.469,2.139q1.222,2.138,1.224,6.561Zm-59.807-5.679a21.1,21.1,0,0,1-4.513-2.348,2.449,2.449,0,0,1-.956-1.9,3.094,3.094,0,0,1,.866-2.333,3.055,3.055,0,0,1,2.213-.837q3.289,0,3.288,3.946h8.46a9.249,9.249,0,0,0-3.2-7.383,12.623,12.623,0,0,0-8.52-2.75,11.654,11.654,0,0,0-8.116,2.764,9.035,9.035,0,0,0-3.066,7.011,8.346,8.346,0,0,0,1.959,5.648q1.959,2.273,7.191,4.4a20.587,20.587,0,0,1,4.588,2.466,2.657,2.657,0,0,1,1.032,1.99q0,3.08-3.409,3.08a4.045,4.045,0,0,1-3.184-1.106,5.119,5.119,0,0,1-1.031-3.32h-8.042a9.956,9.956,0,0,0,1.54,5.352,10.521,10.521,0,0,0,4.26,3.871,13.593,13.593,0,0,0,6.278,1.391A13.2,13.2,0,0,0,1052.4,6643a8.5,8.5,0,0,0,3.257-6.963,8.7,8.7,0,0,0-2.138-6.085q-2.135-2.344-7.31-4.258m28.469-13.6a7.589,7.589,0,0,0-6.607,3.557l-.3-2.961h-7.832v44.786h8.459v-15.041a7.53,7.53,0,0,0,6.341,3.2,8.654,8.654,0,0,0,7.785-4.066q2.614-4.063,2.618-11.687V6627.4q-.062-7.775-2.678-11.54a8.86,8.86,0,0,0-7.786-3.766m2.032,17.789a16.832,16.832,0,0,1-.971,6.6,3.508,3.508,0,0,1-3.484,2.122,4.029,4.029,0,0,1-3.857-2.09v-15.157a4.022,4.022,0,0,1,3.8-2.183,3.622,3.622,0,0,1,3.484,1.943q1.032,1.942,1.031,6.636Zm74.707,15.155h8.49v-32.348h-8.49Zm85.4-6.576a2.36,2.36,0,0,1-2.019-.72,4.733,4.733,0,0,1-.522-2.635v-16.078h4.332v-6.339h-4.332v-7.951h-8.46v7.951h-3.738v6.339h3.738v17.208q.088,9.4,8.28,9.4a13.174,13.174,0,0,0,4.664-.807l.06-6.576a7.921,7.921,0,0,1-2,.209m-107.7-.72a4.742,4.742,0,0,1-.524-2.635v-16.078h4.335v-6.339h-4.335v-7.951h-8.46v7.951H1116.4v6.339h3.737v17.208q.09,9.4,8.281,9.4a13.17,13.17,0,0,0,4.665-.807l.059-6.576a7.911,7.911,0,0,1-2,.209,2.36,2.36,0,0,1-2.018-.72m81.178-25.648a8.356,8.356,0,0,0-6.756,3.437v-16.412h-8.46v45.92h8.46V6621.3a4,4,0,0,1,3.587-2.123,3.228,3.228,0,0,1,2.856,1.271,7.375,7.375,0,0,1,.882,4.11v20.478h8.491v-20.569q-.031-6.157-2.334-9.268a7.848,7.848,0,0,0-6.726-3.108m-28.138,3.468a7.762,7.762,0,0,0-6.787-3.468,9.4,9.4,0,0,0-8.041,3.917q-2.87,3.916-2.871,11.869v2.389q.06,7.327,2.885,11.348a9.2,9.2,0,0,0,8,4.02,7.576,7.576,0,0,0,6.309-3.169v2.782a6.5,6.5,0,0,1-1.271,4.377,5.3,5.3,0,0,1-4.082,1.361,9.486,9.486,0,0,1-3.618-.792,8.958,8.958,0,0,1-3.11-2.048l-2.838,5.86a10.36,10.36,0,0,0,4.366,2.705,16.373,16.373,0,0,0,5.591,1.062q6.485,0,9.953-3.273t3.469-9.462v-32.348h-7.623Zm-.507,21.136a4.312,4.312,0,0,1-3.857,1.881,3.955,3.955,0,0,1-3.707-2.045q-1.165-2.047-1.166-6.533v-2.122q0-4.575,1.212-6.638a4.021,4.021,0,0,1,3.722-2.062,4.239,4.239,0,0,1,3.8,2.063Zm-44.679,8.34h8.491v-45.917h-8.491Zm14.447-37.56h8.49V6602h-8.49Z" transform="translate(0 10.882)" fill="#fff"/>
    <line id="Line_67" data-name="Line 67" y1="33.668" transform="translate(1234.075 6575.99)" fill="none" stroke="#f49c20" stroke-miterlimit="10" stroke-width="8"/>
    <line id="Line_68" data-name="Line 68" x1="33.668" transform="translate(1242.426 6618.009)" fill="none" stroke="#f49c20" stroke-miterlimit="10" stroke-width="8"/>
  </g>
</svg>
