<svg xmlns="http://www.w3.org/2000/svg" width="304" height="809" viewBox="0 0 304 809"><g><g><path fill="#00c7aa" d="M50.765 1c27.44 0 49.765 22.324 49.765 49.765 0 27.44-22.326 49.764-49.765 49.764C23.325 100.529 1 78.204 1 50.765 1 23.325 23.325 1 50.765 1zm101 0c27.44 0 49.765 22.324 49.765 49.765 0 27.44-22.325 49.764-49.764 49.764-27.44 0-49.766-22.325-49.766-49.764C102 23.325 124.326 1 151.766 1zm101 0c27.44 0 49.765 22.324 49.765 49.765 0 27.44-22.325 49.764-49.764 49.764-27.44 0-49.766-22.325-49.766-49.764C203 23.325 225.326 1 252.766 1zm-95.797 100.264c23.845-2.439 42.858-21.448 45.297-45.292 2.441 23.844 21.453 42.854 45.298 45.292-23.845 2.439-42.857 21.449-45.298 45.294-2.44-23.845-21.452-42.855-45.297-45.294zm-101 0c23.846-2.44 42.86-21.45 45.297-45.296 2.439 23.846 21.451 42.858 45.298 45.296-23.847 2.439-42.86 21.45-45.298 45.298-2.437-23.847-21.451-42.858-45.297-45.298zm-5.203.736c27.44 0 49.765 22.324 49.765 49.765 0 27.44-22.326 49.764-49.765 49.764C23.325 201.529 1 179.204 1 151.765c0-27.441 22.325-49.766 49.765-49.766zm101 0c27.44 0 49.765 22.324 49.765 49.765 0 27.44-22.325 49.764-49.764 49.764-27.44 0-49.766-22.325-49.766-49.764 0-27.441 22.326-49.766 49.766-49.766zm101 0c27.44 0 49.765 22.324 49.765 49.765 0 27.44-22.325 49.764-49.764 49.764-27.44 0-49.766-22.325-49.766-49.764 0-27.441 22.326-49.766 49.766-49.766zm-95.801 100.264c23.847-2.437 42.861-21.447 45.301-45.292 2.441 23.845 21.455 42.856 45.302 45.292-23.847 2.437-42.86 21.448-45.302 45.294-2.44-23.846-21.454-42.856-45.301-45.294zm-101 0c23.848-2.437 42.863-21.449 45.301-45.296 2.439 23.847 21.453 42.86 45.302 45.296-23.849 2.437-42.863 21.45-45.302 45.299-2.438-23.85-21.453-42.861-45.302-45.299zm-5.199.736c27.44 0 49.765 22.325 49.765 49.766 0 27.439-22.326 49.763-49.765 49.763C23.325 302.53 1 280.205 1 252.766 1 225.325 23.325 203 50.765 203zm101 0c27.44 0 49.765 22.325 49.765 49.766 0 27.439-22.325 49.763-49.764 49.763-27.44 0-49.766-22.324-49.766-49.763C102 225.325 124.326 203 151.766 203zm101 0c27.44 0 49.765 22.325 49.765 49.766 0 27.439-22.325 49.763-49.764 49.763-27.44 0-49.766-22.324-49.766-49.763C203 225.325 225.326 203 252.766 203zm-95.797 100.265c23.845-2.44 42.858-21.449 45.297-45.292 2.441 23.843 21.453 42.853 45.298 45.292-23.845 2.438-42.857 21.448-45.298 45.293-2.44-23.845-21.452-42.854-45.297-45.293zm-101 0c23.846-2.44 42.86-21.45 45.297-45.297 2.439 23.846 21.451 42.858 45.298 45.297-23.847 2.438-42.86 21.45-45.298 45.298-2.437-23.848-21.451-42.859-45.297-45.298zm-5.203.735c27.44 0 49.765 22.324 49.765 49.766 0 27.439-22.326 49.763-49.765 49.763C23.325 403.53 1 381.205 1 353.765S23.325 304 50.765 304zm101 0c27.44 0 49.765 22.324 49.765 49.766 0 27.439-22.325 49.763-49.764 49.763-27.44 0-49.766-22.324-49.766-49.764S124.326 304 151.766 304zm101 0c27.44 0 49.765 22.324 49.765 49.766 0 27.439-22.325 49.763-49.764 49.763-27.44 0-49.766-22.324-49.766-49.764S225.326 304 252.766 304zm-95.797 100.264c23.845-2.439 42.858-21.448 45.297-45.291 2.441 23.843 21.453 42.853 45.298 45.291-23.845 2.439-42.857 21.449-45.298 45.294-2.44-23.845-21.452-42.854-45.297-45.294zm-101 0c23.846-2.439 42.86-21.45 45.297-45.296 2.439 23.846 21.451 42.858 45.298 45.296-23.847 2.44-42.86 21.451-45.298 45.298-2.437-23.847-21.451-42.858-45.297-45.298zm-5.203.736c27.44 0 49.765 22.324 49.765 49.765 0 27.44-22.326 49.764-49.765 49.764C23.325 504.529 1 482.204 1 454.765 1 427.325 23.325 405 50.765 405zm101 0c27.44 0 49.765 22.324 49.765 49.765 0 27.44-22.325 49.764-49.764 49.764-27.44 0-49.766-22.325-49.766-49.764 0-27.44 22.326-49.765 49.766-49.765zm101 0c27.44 0 49.765 22.324 49.765 49.765 0 27.44-22.325 49.764-49.764 49.764-27.44 0-49.766-22.325-49.766-49.764 0-27.44 22.326-49.765 49.766-49.765zm-95.797 100.264c23.845-2.439 42.858-21.448 45.297-45.292 2.441 23.844 21.453 42.854 45.298 45.292-23.845 2.439-42.857 21.449-45.298 45.294-2.44-23.845-21.452-42.854-45.297-45.294zm-101 0c23.846-2.44 42.86-21.45 45.297-45.296 2.439 23.846 21.451 42.858 45.298 45.296-23.847 2.439-42.86 21.45-45.298 45.298-2.437-23.847-21.451-42.858-45.297-45.298zm-5.203.736c27.44 0 49.765 22.324 49.765 49.765 0 27.44-22.326 49.764-49.765 49.764C23.325 605.529 1 583.204 1 555.765 1 528.325 23.325 506 50.765 506zm101 0c27.44 0 49.765 22.324 49.765 49.765 0 27.44-22.325 49.764-49.764 49.764-27.44 0-49.766-22.325-49.766-49.764 0-27.44 22.326-49.765 49.766-49.765zm101 0c27.44 0 49.765 22.324 49.765 49.765 0 27.44-22.325 49.764-49.764 49.764-27.44 0-49.766-22.325-49.766-49.764 0-27.44 22.326-49.765 49.766-49.765zm-95.801 100.265c23.847-2.437 42.861-21.448 45.301-45.293 2.441 23.845 21.455 42.856 45.302 45.293-23.847 2.436-42.86 21.447-45.302 45.293-2.44-23.846-21.454-42.856-45.301-45.293zm-101 0c23.848-2.438 42.863-21.45 45.301-45.297 2.439 23.847 21.453 42.86 45.302 45.297-23.849 2.436-42.863 21.449-45.302 45.298-2.438-23.849-21.453-42.861-45.302-45.298zm-5.199.735c27.44 0 49.765 22.325 49.765 49.766 0 27.439-22.326 49.764-49.765 49.764C23.325 706.53 1 684.205 1 656.766 1 629.325 23.325 607 50.765 607zm101 0c27.44 0 49.765 22.325 49.765 49.766 0 27.439-22.325 49.764-49.764 49.764-27.44 0-49.766-22.325-49.766-49.764C102 629.325 124.326 607 151.766 607zm101 0c27.44 0 49.765 22.325 49.765 49.766 0 27.439-22.325 49.764-49.764 49.764-27.44 0-49.766-22.325-49.766-49.764C203 629.325 225.326 607 252.766 607zm-95.797 100.265c23.845-2.44 42.858-21.449 45.297-45.292 2.441 23.843 21.453 42.853 45.298 45.292-23.845 2.438-42.857 21.448-45.298 45.293-2.44-23.845-21.452-42.854-45.297-45.293zm-101 0c23.846-2.44 42.86-21.45 45.297-45.297 2.439 23.846 21.451 42.858 45.298 45.297-23.847 2.438-42.86 21.45-45.298 45.298-2.437-23.848-21.451-42.859-45.297-45.298zm-5.203.735c27.44 0 49.765 22.325 49.765 49.766 0 27.439-22.326 49.763-49.765 49.763C23.325 807.53 1 785.205 1 757.766 1 730.325 23.325 708 50.765 708zm101 0c27.44 0 49.765 22.325 49.765 49.766 0 27.439-22.325 49.763-49.764 49.763-27.44 0-49.766-22.324-49.766-49.763C102 730.325 124.326 708 151.766 708zm101 0c27.44 0 49.765 22.325 49.765 49.766 0 27.439-22.325 49.763-49.764 49.763-27.44 0-49.766-22.324-49.766-49.763C203 730.325 225.326 708 252.766 708zm0 100.53c27.893 0 50.604-22.611 50.764-50.466v-.596c-.15-26.102-20.101-47.599-45.56-50.203 25.459-2.605 45.41-24.1 45.56-50.201v-.596c-.15-26.104-20.103-47.601-45.565-50.203 25.462-2.603 45.415-24.1 45.565-50.202v-.596c-.15-26.102-20.101-47.598-45.56-50.203 25.459-2.604 45.41-24.1 45.56-50.2v-.597c-.15-26.102-20.101-47.598-45.56-50.202 25.459-2.605 45.41-24.101 45.56-50.202v-.595c-.15-26.103-20.101-47.599-45.56-50.203 25.459-2.605 45.41-24.1 45.56-50.201v-.596c-.15-26.104-20.103-47.601-45.565-50.204 25.462-2.602 45.415-24.099 45.565-50.201v-.596c-.15-26.102-20.101-47.598-45.56-50.203 25.459-2.604 45.41-24.1 45.56-50.2v-.597C303.37 22.611 280.66 0 252.766 0c-26.235 0-47.885 20.002-50.5 45.558C199.65 20.002 178 0 151.765 0c-26.237 0-47.887 20.004-50.501 45.562C98.653 20.004 77.001 0 50.765 0 22.772 0 0 22.772 0 50.765c0 26.236 20.005 47.886 45.562 50.5C20.005 103.877 0 125.527 0 151.764s20.007 47.888 45.567 50.5C20.007 204.874 0 226.526 0 252.764c0 26.236 20.005 47.886 45.562 50.5C20.005 305.878 0 327.528 0 353.765c0 26.236 20.005 47.886 45.562 50.5C20.005 406.878 0 428.528 0 454.765c0 26.236 20.005 47.886 45.562 50.5C20.005 507.877 0 529.527 0 555.764s20.007 47.888 45.567 50.5C20.007 608.875 0 630.527 0 656.765c0 26.236 20.005 47.886 45.562 50.5C20.005 709.878 0 731.528 0 757.765c0 27.992 22.772 50.764 50.765 50.764 26.236 0 47.888-20.003 50.5-45.56 2.614 25.556 24.264 45.56 50.5 45.56 26.235 0 47.886-20.001 50.5-45.556 2.616 25.554 24.266 45.556 50.5 45.556z"/></g></g></svg>