<svg xmlns="http://www.w3.org/2000/svg" width="437" height="436" viewBox="0 0 437 436"><defs><linearGradient id="6kqya" x1="218.59" x2="218.59" y1=".17" y2="435.86" gradientUnits="userSpaceOnUse"><stop offset="0" stop-color="#ec6d6e"/><stop offset="1" stop-color="#932769"/></linearGradient></defs><g><g><path fill="url(#6kqya)" d="M218.585 6.173c14.374 0 28.738 1.448 42.694 4.304a210.774 210.774 0 0 1 39.764 12.343 211.88 211.88 0 0 1 35.985 19.532 213.357 213.357 0 0 1 31.351 25.867 213.314 213.314 0 0 1 25.868 31.352 211.859 211.859 0 0 1 19.531 35.984 210.774 210.774 0 0 1 12.344 39.765 213.414 213.414 0 0 1 4.304 42.693c0 14.375-1.448 28.739-4.304 42.694a210.768 210.768 0 0 1-12.344 39.765 211.84 211.84 0 0 1-19.531 35.984 213.329 213.329 0 0 1-25.868 31.352 213.361 213.361 0 0 1-31.351 25.868 211.886 211.886 0 0 1-35.985 19.532 210.774 210.774 0 0 1-39.764 12.344 213.406 213.406 0 0 1-42.694 4.304 213.415 213.415 0 0 1-42.693-4.304 210.783 210.783 0 0 1-39.765-12.344 211.878 211.878 0 0 1-35.984-19.532 213.396 213.396 0 0 1-31.352-25.868 213.403 213.403 0 0 1-25.868-31.352 211.874 211.874 0 0 1-19.532-35.984 210.814 210.814 0 0 1-12.344-39.765 213.453 213.453 0 0 1-4.304-42.694c0-14.371 1.448-28.736 4.304-42.693a210.785 210.785 0 0 1 12.344-39.765 211.86 211.86 0 0 1 19.532-35.984A213.338 213.338 0 0 1 68.79 68.22a213.417 213.417 0 0 1 31.352-25.867 211.88 211.88 0 0 1 35.984-19.532 210.782 210.782 0 0 1 39.765-12.343 213.415 213.415 0 0 1 42.693-4.304zm43.903 425.256a216.735 216.735 0 0 0 40.891-12.693 217.881 217.881 0 0 0 37.004-20.085 219.405 219.405 0 0 0 32.24-26.6 219.362 219.362 0 0 0 26.6-32.24 217.847 217.847 0 0 0 20.085-37.004 216.765 216.765 0 0 0 12.693-40.89 219.445 219.445 0 0 0 4.426-43.904c0-14.779-1.489-29.55-4.426-43.902a216.769 216.769 0 0 0-12.693-40.891 217.858 217.858 0 0 0-20.085-37.004 219.366 219.366 0 0 0-26.6-32.24 219.401 219.401 0 0 0-32.24-26.6 217.865 217.865 0 0 0-37.004-20.085 216.744 216.744 0 0 0-40.891-12.694A219.442 219.442 0 0 0 218.585.172c-14.78 0-29.55 1.489-43.902 4.425a216.74 216.74 0 0 0-40.891 12.694 217.864 217.864 0 0 0-37.004 20.085 219.393 219.393 0 0 0-32.24 26.6 219.384 219.384 0 0 0-26.6 32.24 217.877 217.877 0 0 0-20.085 37.004 216.768 216.768 0 0 0-12.694 40.89 219.48 219.48 0 0 0-4.425 43.903c0 14.78 1.489 29.55 4.425 43.903a216.766 216.766 0 0 0 12.694 40.891 217.861 217.861 0 0 0 20.085 37.004 219.374 219.374 0 0 0 26.6 32.24 219.398 219.398 0 0 0 32.24 26.6 217.887 217.887 0 0 0 37.004 20.085 216.748 216.748 0 0 0 40.891 12.693 219.446 219.446 0 0 0 43.902 4.426c14.78 0 29.552-1.489 43.903-4.426z"/></g></g></svg>