<svg xmlns="http://www.w3.org/2000/svg" xmlns:xlink="http://www.w3.org/1999/xlink" width="214.096" height="42.694" viewBox="0 0 214.096 42.694">
  <defs>
    <linearGradient id="linear-gradient" x1="0.168" y1="0.102" x2="0.915" y2="1.421" gradientUnits="objectBoundingBox">
      <stop offset="0" stop-color="#ec6d6e"/>
      <stop offset="1" stop-color="#932769"/>
    </linearGradient>
    <linearGradient id="linear-gradient-2" x1="0.297" y1="0.295" x2="0.79" y2="1.323" gradientUnits="objectBoundingBox">
      <stop offset="0" stop-color="#008ad1"/>
      <stop offset="1" stop-color="#64b562"/>
    </linearGradient>
  </defs>
  <g id="clinnect-logo" transform="translate(-333.373 -403.148)">
    <path id="Path_1" data-name="Path 1" d="M473.506,403.148h5.077v34.329a3.68,3.68,0,0,0,.895,2.625,3.276,3.276,0,0,0,2.51.952,6.749,6.749,0,0,0,1.5-.2,12.323,12.323,0,0,0,1.616-.49l.807,4.1a16.562,16.562,0,0,1-3,.865,15.805,15.805,0,0,1-3.058.346A6.339,6.339,0,0,1,475.208,444a6.257,6.257,0,0,1-1.7-4.673Z" transform="translate(-104.639 0)" fill="#002953" fill-rule="evenodd"/>
    <path id="Path_2" data-name="Path 2" d="M538.2,445.265V415.149h5.077v30.117Zm0-35.77v-6.347h5.077v6.347Z" transform="translate(-152.943 0)" fill="#002953" fill-rule="evenodd"/>
    <path id="Path_3" data-name="Path 3" d="M609.191,479.113h-5.077V462.266q0-4.846-1.471-7.039a5.017,5.017,0,0,0-4.471-2.192,8.54,8.54,0,0,0-3.116.606,12.352,12.352,0,0,0-2.942,1.644,11.394,11.394,0,0,0-2.424,2.481,10.612,10.612,0,0,0-1.558,3.173v18.174h-5.077V449h4.616v6.462a13.244,13.244,0,0,1,5.163-5.078,14.726,14.726,0,0,1,7.356-1.9,8.893,8.893,0,0,1,4.327.952,7.341,7.341,0,0,1,2.77,2.654,11.812,11.812,0,0,1,1.471,4.01,27.274,27.274,0,0,1,.433,5.019Z" transform="translate(-186.44 -33.848)" fill="#002953" fill-rule="evenodd"/>
    <path id="Path_4" data-name="Path 4" d="M735.746,479.113h-5.077V462.266q0-4.846-1.471-7.039a5.017,5.017,0,0,0-4.471-2.192,8.541,8.541,0,0,0-3.116.606,12.354,12.354,0,0,0-2.942,1.644,11.4,11.4,0,0,0-2.424,2.481,10.618,10.618,0,0,0-1.558,3.173v18.174H709.61V449h4.616v6.462a13.247,13.247,0,0,1,5.163-5.078,14.724,14.724,0,0,1,7.356-1.9,8.892,8.892,0,0,1,4.327.952,7.344,7.344,0,0,1,2.77,2.654,11.817,11.817,0,0,1,1.471,4.01,27.291,27.291,0,0,1,.432,5.019Z" transform="translate(-280.939 -33.848)" fill="#002953" fill-rule="evenodd"/>
    <path id="Path_5" data-name="Path 5" d="M849.328,479.69a15.342,15.342,0,0,1-6.231-1.24,14.733,14.733,0,0,1-4.846-3.376,15.377,15.377,0,0,1-3.145-4.99,16.307,16.307,0,0,1-1.125-6.029,16.081,16.081,0,0,1,1.125-6,15.082,15.082,0,0,1,14.28-9.577,14.643,14.643,0,0,1,13.991,9.549,16.135,16.135,0,0,1,1.067,5.8q0,.634-.029,1.154a6.063,6.063,0,0,1-.087.807H839.346a11.666,11.666,0,0,0,1.039,4.1,10.521,10.521,0,0,0,2.25,3.174,10.406,10.406,0,0,0,3.144,2.077,9.392,9.392,0,0,0,3.722.75,9.92,9.92,0,0,0,2.711-.375,11.731,11.731,0,0,0,2.481-1.01,8.608,8.608,0,0,0,2.049-1.558,6.361,6.361,0,0,0,1.355-2.077l4.385,1.211a11.076,11.076,0,0,1-2.049,3.058,13.568,13.568,0,0,1-3,2.394,15.491,15.491,0,0,1-3.779,1.587,16.086,16.086,0,0,1-4.327.577Zm10.328-17.655a10.858,10.858,0,0,0-1.067-3.952,10.572,10.572,0,0,0-2.25-3.086,10.318,10.318,0,0,0-10.76-1.991,9.791,9.791,0,0,0-3.145,2.02,10.215,10.215,0,0,0-2.192,3.086,11.34,11.34,0,0,0-1.01,3.923Z" transform="translate(-373.808 -33.848)" fill="#002953" fill-rule="evenodd"/>
    <path id="Path_6" data-name="Path 6" d="M1124.881,449.549q-.461.231-1.212.548t-1.7.635a14.879,14.879,0,0,1-2.077.519,13.208,13.208,0,0,1-2.337.2,7.7,7.7,0,0,1-4.788-1.529,5.584,5.584,0,0,1-2.02-4.76V424.913h-4.1v-3.981h4.1V410.893h5.077v10.039h6.75v3.981h-6.75v18.693a3.148,3.148,0,0,0,1.1,2.423,3.69,3.69,0,0,0,2.307.75,7.4,7.4,0,0,0,2.74-.49,12.007,12.007,0,0,0,1.7-.779Z" transform="translate(-577.413 -5.783)" fill="#002953" fill-rule="evenodd"/>
    <path id="Path_7" data-name="Path 7" d="M338.322,491.207a11.4,11.4,0,0,0,19.861,10.047l4.173,2.115A16,16,0,0,1,334.147,489.1Z" transform="translate(0 -64.178)" fill="#002953" fill-rule="evenodd"/>
    <path id="Path_8" data-name="Path 8" d="M370.912,453.253l-4.706,1.253a11.711,11.711,0,0,0-18.206,0l-4.159-2.1A16.2,16.2,0,0,1,370.912,453.253Z" transform="translate(-7.817 -31.638)" fill-rule="evenodd" fill="url(#linear-gradient)"/>
    <path id="Path_9" data-name="Path 9" d="M978.691,491.207a11.4,11.4,0,0,0,19.861,10.047l4.173,2.115A16,16,0,0,1,974.516,489.1Z" transform="translate(-478.169 -64.178)" fill="#002953" fill-rule="evenodd"/>
    <path id="Path_10" data-name="Path 10" d="M1011.281,453.253l-4.706,1.253a11.711,11.711,0,0,0-18.206,0l-4.159-2.1A16.2,16.2,0,0,1,1011.281,453.253Z" transform="translate(-485.986 -31.638)" fill-rule="evenodd" fill="url(#linear-gradient-2)"/>
  </g>
</svg>
