<svg xmlns="http://www.w3.org/2000/svg" xmlns:xlink="http://www.w3.org/1999/xlink" width="128.125" height="112.044" viewBox="0 0 128.125 112.044">
  <defs>
    <linearGradient id="linear-gradient" x1="0.5" x2="0.5" y2="1" gradientUnits="objectBoundingBox">
      <stop offset="0" stop-color="#ec6d6e"/>
      <stop offset="1" stop-color="#932769"/>
    </linearGradient>
  </defs>
  <g id="process-card-img_12" transform="translate(-0.001 -0.001)">
    <path id="Union_35" data-name="Union 35" d="M40.433,49.276,24.19,5.049a3.754,3.754,0,0,1,7.047-2.588L47.481,46.687a3.754,3.754,0,1,1-7.047,2.588ZM.223,46.7,16.305,2.472a3.754,3.754,0,1,1,7.056,2.566L7.278,49.263A3.753,3.753,0,1,1,.223,46.7Z" transform="translate(64.333 60.309)" fill="url(#linear-gradient)"/>
    <path id="Union_33" data-name="Union 33" d="M39.446,67.816H11.794A11.794,11.794,0,0,1,0,56.022V11.793A11.794,11.794,0,0,1,11.794,0H68.085A11.793,11.793,0,0,1,79.878,11.793V56.022A11.794,11.794,0,0,1,68.085,67.816Z" transform="translate(48.248 0.001)" fill="url(#linear-gradient)"/>
    <path id="Union_31" data-name="Union 31" d="M16.348,32.7h0a16.35,16.35,0,0,1,0-32.7h0a16.35,16.35,0,1,1,0,32.7Z" transform="translate(7.508 7.507)" fill="url(#linear-gradient)"/>
    <path id="Path_186" data-name="Path 186" d="M235.04,171.812a3.754,3.754,0,0,1-1.678-5.036l10.052-20.1a3.754,3.754,0,1,1,6.715,3.358l-10.052,20.1A3.754,3.754,0,0,1,235.04,171.812Zm0,0" transform="translate(-174.666 -108.412)" fill="#fff"/>
    <path id="Union_34" data-name="Union 34" d="M27.117,39.67a3.754,3.754,0,1,1,0-7.507H43.96a3.754,3.754,0,1,1,0,7.507Zm0-16.082a3.754,3.754,0,1,1,0-7.507H43.96a3.754,3.754,0,1,1,0,7.507ZM23.364,7.507H3.753A3.754,3.754,0,0,1,3.753,0H43.96a3.754,3.754,0,0,1,3.751,3.609q0,.072,0,.145A3.754,3.754,0,0,1,43.96,7.507Z" transform="translate(64.331 14.074)" fill="#fff"/>
    <path id="Union_32" data-name="Union 32" d="M23.855,71.837H11.794a3.753,3.753,0,0,1-3.753-3.753V47.1A11.813,11.813,0,0,1,0,35.918V23.856A23.667,23.667,0,0,1,6.993,6.984,23.981,23.981,0,0,1,23.855,0h3.318c6.584,0,10.445,2.411,15.852,5.1,5.956,2.961,13.388,6.657,18.126,9.017A9.757,9.757,0,0,1,66.045,26c-.006.014-.011.029-.015.044a10.293,10.293,0,0,1-14.341,5.872c-3.783-1.892-8.458-4.23-12.017-6.008V68.083a3.75,3.75,0,0,1-3.754,3.753Z" transform="translate(0.001 40.207)" fill="url(#linear-gradient)"/>
  </g>
</svg>
