<svg xmlns="http://www.w3.org/2000/svg" xmlns:xlink="http://www.w3.org/1999/xlink" width="128.126" height="110.452" viewBox="0 0 128.126 110.452">
  <defs>
    <linearGradient id="linear-gradient" x1="0.5" x2="0.5" y2="1" gradientUnits="objectBoundingBox">
      <stop offset="0" stop-color="#ec6d6e"/>
      <stop offset="1" stop-color="#932769"/>
    </linearGradient>
  </defs>
  <g id="process-card-img_11" transform="translate(-4.095 -0.41)">
    <path id="Path_172" data-name="Path 172" d="M274.608,238.43c0-7.32-5.439-13.254-12.15-13.254s-12.15,5.934-12.15,13.254,5.439,13.254,12.15,13.254S274.608,245.751,274.608,238.43Zm0,0" transform="translate(-194.301 -176.167)" fill="url(#linear-gradient)"/>
    <path id="Path_173" data-name="Path 173" d="M10.215,342.255H63.233c0-19.522-11.869-35.344-26.509-35.344S10.215,322.733,10.215,342.255Zm0,0" transform="translate(-6.12 -240.228)" fill="url(#linear-gradient)"/>
    <path id="Path_174" data-name="Path 174" d="M357.582,342.255H410.6c0-19.522-11.869-35.344-26.509-35.344S357.582,322.733,357.582,342.255Zm0,0" transform="translate(-278.379 -240.228)" fill="url(#linear-gradient)"/>
    <path id="Path_175" data-name="Path 175" d="M448.292,197.563c0-7.32-5.44-13.254-12.15-13.254s-12.15,5.934-12.15,13.254,5.439,13.254,12.15,13.254S448.292,204.883,448.292,197.563Zm0,0" transform="translate(-330.43 -144.136)" fill="url(#linear-gradient)"/>
    <path id="Path_176" data-name="Path 176" d="M100.924,197.563c0-7.32-5.439-13.254-12.15-13.254s-12.15,5.934-12.15,13.254,5.439,13.254,12.15,13.254S100.924,204.883,100.924,197.563Zm0,0" transform="translate(-58.171 -144.136)" fill="url(#linear-gradient)"/>
    <path id="Path_177" data-name="Path 177" d="M183.9,383.122h53.018c0-19.522-11.869-35.344-26.509-35.344S183.9,363.6,183.9,383.122Zm0,0" transform="translate(-142.25 -272.259)" fill="url(#linear-gradient)"/>
    <path id="Path_178" data-name="Path 178" d="M274.469,69.995a4.418,4.418,0,0,1-4.418-4.418h-4.418A8.836,8.836,0,0,0,272.26,74.1v2.523h4.418V74.1a8.818,8.818,0,0,0-2.209-17.358,4.418,4.418,0,1,1,4.418-4.418h4.418a8.836,8.836,0,0,0-6.628-8.522V41.277H272.26V43.8a8.819,8.819,0,0,0,2.21,17.359,4.418,4.418,0,1,1,0,8.836Zm0,0" transform="translate(-206.311 -32.031)" fill="url(#linear-gradient)"/>
    <path id="Path_179" data-name="Path 179" d="M448.153,29.128a4.418,4.418,0,0,1-4.418-4.418h-4.418a8.837,8.837,0,0,0,6.627,8.523v2.522h4.418V33.233a8.819,8.819,0,0,0-2.209-17.359,4.418,4.418,0,1,1,4.418-4.417h4.418a8.837,8.837,0,0,0-6.628-8.523V.41h-4.418V2.933a8.818,8.818,0,0,0,2.21,17.358,4.418,4.418,0,1,1,0,8.836Zm0,0" transform="translate(-342.441)" fill="url(#linear-gradient)"/>
    <path id="Path_180" data-name="Path 180" d="M90.57,29.128a4.418,4.418,0,0,1-4.417-4.418H81.734a8.837,8.837,0,0,0,6.627,8.523v2.522h4.418V33.233a8.819,8.819,0,0,0-2.21-17.359,4.418,4.418,0,1,1,4.418-4.417h4.418a8.836,8.836,0,0,0-6.627-8.523V.41H88.361V2.933A8.818,8.818,0,0,0,90.57,20.291a4.418,4.418,0,1,1,0,8.836Zm0,0" transform="translate(-62.176)" fill="url(#linear-gradient)"/>
  </g>
</svg>
