<svg xmlns="http://www.w3.org/2000/svg" xmlns:xlink="http://www.w3.org/1999/xlink" width="128.126" height="136.376" viewBox="0 0 128.126 136.376">
  <defs>
    <linearGradient id="linear-gradient" x1="0.5" x2="0.5" y2="1" gradientUnits="objectBoundingBox">
      <stop offset="0" stop-color="#ec6d6e"/>
      <stop offset="1" stop-color="#932769"/>
    </linearGradient>
  </defs>
  <g id="process-card-img_10" transform="translate(-15.472 47.274)">
    <path id="Union_29" data-name="Union 29" d="M12.235,71.319A41.774,41.774,0,0,1,42.161.008V0A41.785,41.785,0,0,1,53.072,82.007l-.112.032-.05.013A41.539,41.539,0,0,1,45.3,83.408l-.16.013-.064.005q-1.648.13-3.3.13A41.647,41.647,0,0,1,12.235,71.319Z" transform="translate(46.497 -47.274)" fill="url(#linear-gradient)"/>
    <path id="Union_30" data-name="Union 30" d="M6.955,49.473a4,4,0,0,1-2.143-5.239L22.346,2.453a4,4,0,1,1,7.379,3.1L12.2,47.329a4,4,0,0,1-5.24,2.144ZM23.683,37.052a5.144,5.144,0,1,1,5.146,5.143A5.2,5.2,0,0,1,23.683,37.052ZM0,13.631A5.2,5.2,0,0,1,5.147,8.489a5.23,5.23,0,0,1,5.143,5.142,5.2,5.2,0,0,1-5.143,5.143A5.23,5.23,0,0,1,0,13.631Z" transform="translate(71.297 -30.654)" fill="#fff"/>
    <path id="Path_168" data-name="Path 168" d="M36.314,363.837H19.473a4,4,0,0,0-4,4v31.323a4,4,0,0,0,4,4h12.84l8-4V367.838A4,4,0,0,0,36.314,363.837Z" transform="translate(0 -314.061)" fill="url(#linear-gradient)"/>
    <path id="Union_28" data-name="Union 28" d="M68.831,52.27H0V14.007A12.921,12.921,0,0,1,9.295,1.686,42.268,42.268,0,0,1,23.884.092c5.6.374,10.383,2.633,15.014,4.821C43.313,7,47.483,8.969,51.825,8.969H65.112a4,4,0,0,1,4,4.006V13.3A11.648,11.648,0,0,1,57.4,24.642H29.3a4,4,0,0,0-4,4.193,4.074,4.074,0,0,0,4.11,3.808h29.24a10.452,10.452,0,0,0,7.391-3.06l4.942-4.941,11.97-11.97a19.226,19.226,0,0,1,27.16,0,4,4,0,0,1,0,5.659L81.36,47.082a17.983,17.983,0,0,1-1.645,1.458,17.58,17.58,0,0,1-10.882,3.73Z" transform="translate(32.313 36.831)" fill="url(#linear-gradient)"/>
  </g>
</svg>
