<svg xmlns="http://www.w3.org/2000/svg" xmlns:xlink="http://www.w3.org/1999/xlink" width="130.5" height="127.523" viewBox="0 0 130.5 127.523">
  <defs>
    <linearGradient id="linear-gradient" x1="0.5" x2="0.5" y2="1" gradientUnits="objectBoundingBox">
      <stop offset="0" stop-color="#ec6d6e"/>
      <stop offset="1" stop-color="#932769"/>
    </linearGradient>
    <linearGradient id="linear-gradient-3" x1="1.192" y1="-0.651" x2="0.049" y2="1.168" xlink:href="#linear-gradient"/>
    <linearGradient id="linear-gradient-4" x1="-0.559" y1="1.696" x2="0.953" y2="0.012" xlink:href="#linear-gradient"/>
  </defs>
  <g id="process-card-img_5" transform="translate(0 -5.667)">
    <path id="Union_8" data-name="Union 8" d="M7.938,125.658A7.939,7.939,0,0,1,0,117.718V7.938A7.938,7.938,0,0,1,7.938,0h77.63a7.941,7.941,0,0,1,7.943,7.94V117.718a7.938,7.938,0,0,1-7.939,7.94Z" transform="translate(0 7.532)" fill="url(#linear-gradient)"/>
    <path id="Union_9" data-name="Union 9" d="M33.858,9.8H1.484A1.484,1.484,0,0,1,0,8.311V1.485A1.485,1.485,0,0,1,1.484,0H42.226A1.484,1.484,0,0,1,43.71,1.446c0,.013,0,.025,0,.038V8.311A1.484,1.484,0,0,1,42.226,9.8Z" transform="translate(24.691 18.464)" fill="#fff"/>
    <g id="Group_211" data-name="Group 211" transform="translate(111.048 20.762)">
      <path id="Path_96" data-name="Path 96" d="M424.993,105.912a1.97,1.97,0,0,1-2.034-2.738l14.355-33.245a.948.948,0,0,0-.495-1.247l-4.013-1.733a2.025,2.025,0,0,1-1.127-2.567,1.969,1.969,0,0,1,2.612-1.083l6.733,2.907a2.03,2.03,0,0,1,.675.455,1.976,1.976,0,0,1,.388,2.149l-15.512,35.925A1.969,1.969,0,0,1,424.993,105.912Z" transform="translate(-422.796 -63.137)" fill="url(#linear-gradient)"/>
    </g>
    <path id="Union_13" data-name="Union 13" d="M9.43,100.537l-.971-.145L0,94.352,22.7,41.766h0L40.219,1.207A2,2,0,0,1,42.847.164L57.931,6.677l-18.306,42.4h0L25.146,82.6l-8.225,19.052h0Z" transform="translate(64.611 14.247)" fill="url(#linear-gradient-3)"/>
    <path id="Union_12" data-name="Union 12" d="M.316,121.566a2.474,2.474,0,0,1-.293-1.181v-1.74l0-1.742L0,102.931l10.2,4.406,4.049,1.748,2.667,1.151h0L4.2,122.188a2.433,2.433,0,0,1-1.684.679A2.518,2.518,0,0,1,.316,121.566ZM48.725,12.8,43.874,9.187l2.38-5.51A6.091,6.091,0,0,1,52.193.01h0A6.028,6.028,0,0,1,52.8.073a6.1,6.1,0,0,1,4.646,8.438l-.676,1.565-1.7,3.944Z" transform="translate(64.61 5.667)" fill="url(#linear-gradient-4)"/>
    <path id="Path_104" data-name="Path 104" d="M256.2,401.965v0l-10.2-4.4Z" transform="translate(-181.388 -288.964)" fill="#5986cb"/>
    <g id="Group_212" data-name="Group 212" transform="translate(12.454 38.372)">
      <path id="Path_107" data-name="Path 107" d="M113.657,134.125H49.385a1.97,1.97,0,1,1,0-3.94h64.272a1.97,1.97,0,1,1,0,3.94Z" transform="translate(-47.415 -130.185)" fill="#fff"/>
    </g>
    <g id="Group_213" data-name="Group 213" transform="translate(12.454 50.766)">
      <path id="Path_108" data-name="Path 108" d="M113.657,181.315H49.385a1.97,1.97,0,1,1,0-3.94h64.272a1.97,1.97,0,1,1,0,3.94Z" transform="translate(-47.415 -177.375)" fill="#fff"/>
    </g>
    <g id="Group_214" data-name="Group 214" transform="translate(12.454 63.161)">
      <path id="Path_109" data-name="Path 109" d="M97.64,228.5H49.385a1.97,1.97,0,1,1,0-3.94H97.64a1.97,1.97,0,1,1,0,3.94Z" transform="translate(-47.415 -224.564)" fill="#fff"/>
    </g>
    <g id="Group_215" data-name="Group 215" transform="translate(12.454 75.555)">
      <path id="Path_110" data-name="Path 110" d="M68.691,275.693H49.385a1.97,1.97,0,1,1,0-3.94H68.691a1.97,1.97,0,0,1,0,3.94Z" transform="translate(-47.415 -271.753)" fill="#fff"/>
    </g>
    <g id="Group_216" data-name="Group 216" transform="translate(12.337 108.159)">
      <path id="Path_111" data-name="Path 111" d="M69.495,405.619q-.351,0-.714-.021c-3.118-.182-4.948-1.8-6.563-3.236-1.515-1.343-2.711-2.4-4.968-2.523a7.462,7.462,0,0,0-6.579,3.719,1.97,1.97,0,0,1-3.465-1.875c.135-.251,3.375-6.137,10.251-5.778,3.632.191,5.707,2.031,7.374,3.51,1.407,1.247,2.423,2.149,4.178,2.251a7.717,7.717,0,0,0,6.91-3.68,1.97,1.97,0,1,1,3.446,1.909,11.732,11.732,0,0,1-9.871,5.725Z" transform="translate(-46.972 -395.889)" fill="#fff"/>
    </g>
  </g>
</svg>
