<svg xmlns="http://www.w3.org/2000/svg" xmlns:xlink="http://www.w3.org/1999/xlink" width="128.126" height="121.314" viewBox="0 0 128.126 121.314">
  <defs>
    <linearGradient id="linear-gradient" x1="0.5" x2="0.5" y2="1" gradientUnits="objectBoundingBox">
      <stop offset="0" stop-color="#ec6d6e"/>
      <stop offset="1" stop-color="#932769"/>
    </linearGradient>
  </defs>
  <g id="process-card-img_8" transform="translate(-7.499 -20.716)">
    <path id="Union_25" data-name="Union 25" d="M74.185,87.59H0V66.324H79.1L95.531,27.357l-6.458-2.724c-3.9-1.723-4.027-6-1-8.041L113.947,1.127q.192-.14.384-.262v0c2.374-1.5,4.771-.978,5.984,1.073a5.908,5.908,0,0,1,.732,2.182l6.994,29.322a4.346,4.346,0,0,1-4.245,5.343h-.044a5.81,5.81,0,0,1-2.1-.421l-.065-.026-6.458-2.718L98.542,75.161C98.008,76.43,97.5,77.583,97,78.629c-3.032,6.4-5.627,8.768-11.425,8.95q-.368.012-.755.012Z" transform="translate(7.5 54.44)" fill="url(#linear-gradient)"/>
    <path id="Union_26" data-name="Union 26" d="M14.079,79.5c11.59,0,16.81-4.353,20.661-13.373l3.328-7.893,13.04-30.883-6.457-2.717c-3.9-1.73-4.028-6-1-8.048L69.525,1.127c3.188-2.327,6.538-.914,7.1,3l6.995,29.322a4.345,4.345,0,0,1-4.282,5.341,5.85,5.85,0,0,1-2.176-.444l-1.916-.808L70.7,35.618,57.515,67.074q-.115.275-.23.542C53.463,76.559,50.973,79.5,43.8,79.5ZM0,79.5V58.238H38.069L34.74,66.131C30.889,75.152,25.669,79.5,14.079,79.5Z" transform="translate(7.499 20.716)" fill="url(#linear-gradient)"/>
  </g>
</svg>
