<svg xmlns="http://www.w3.org/2000/svg" width="41" height="41" viewBox="0 0 41 41"><defs><linearGradient id="beqaa" x1=".02" x2="38.6" y1="18.67" y2="18.73" gradientUnits="userSpaceOnUse"><stop offset="0" stop-color="#563595"/><stop offset="1" stop-color="#8c4b9d"/></linearGradient><linearGradient id="beqab" x1=".02" x2="38.6" y1="37.78" y2="37.84" gradientUnits="userSpaceOnUse"><stop offset="0" stop-color="#563595"/><stop offset="1" stop-color="#8c4b9d"/></linearGradient></defs><g><g><path fill="url(#beqaa)" d="M13.27 7.196c2.84-.252 5.15-.515 7.09-.832 5.893-.961 8.275-2.598 10.989-5.934a1.187 1.187 0 0 1 1.763-.072l7.234 7.31c.406.405.475 1.05.146 1.52a25.893 25.893 0 0 1-3.012 3.593c-2.165 2.43-4.418 4.16-6.54 5.333a9.043 9.043 0 0 1-4.378 1.114h-7.076a4.77 4.77 0 0 1-4.573-3.415c-.188-.636.244-1.308.906-1.35l.078-.002h10.395c.648 0 1.2-.506 1.218-1.154a1.18 1.18 0 0 0-1.191-1.23H14.401c-.358 0-.692.167-.93.43-.305.315-1.758 2.47-4.527 4.801-1.794 1.51-6.104 4.304-7.733 4.304-1.025 0-1.573-1.216-.882-1.978L11.135 7.715c.19-.238.5-.381.81-.405.454-.038.895-.076 1.325-.114z"/></g><g><path fill="url(#beqab)" d="M27.45 33.525c-2.84.253-5.15.515-7.09.832-5.894.962-8.275 2.598-10.989 5.934a1.187 1.187 0 0 1-1.764.072l-7.234-7.31a1.194 1.194 0 0 1-.146-1.52A25.893 25.893 0 0 1 3.24 27.94c2.165-2.429 4.417-4.16 6.539-5.333a9.043 9.043 0 0 1 4.378-1.114h7.077a4.77 4.77 0 0 1 4.573 3.415c.188.636-.244 1.308-.906 1.35a1.267 1.267 0 0 1-.078.002H14.428c-.648 0-1.2.506-1.219 1.154a1.18 1.18 0 0 0 1.192 1.23h11.918c.358 0 .691-.167.93-.43.305-.315 1.757-2.47 4.527-4.8 1.794-1.511 6.103-4.305 7.733-4.305 1.025 0 1.573 1.216.882 1.978L29.585 33.006c-.191.238-.501.381-.81.405-.455.038-.896.076-1.325.114z"/></g></g></svg>