<svg xmlns="http://www.w3.org/2000/svg" width="45" height="41" viewBox="0 0 45 41"><defs><linearGradient id="xeuja" x1="22.53" x2="22.53" y1="0" y2="7.89" gradientUnits="userSpaceOnUse"><stop offset="0" stop-color="#563595"/><stop offset="1" stop-color="#8c4b9d"/></linearGradient><linearGradient id="xeujb" x1="11.11" x2="11.11" y1="0" y2="7.4" gradientUnits="userSpaceOnUse"><stop offset="0" stop-color="#563595"/><stop offset="1" stop-color="#8c4b9d"/></linearGradient><linearGradient id="xeujc" x1="22.12" x2="22.12" y1="32.84" y2="40.72" gradientUnits="userSpaceOnUse"><stop offset="0" stop-color="#563595"/><stop offset="1" stop-color="#8c4b9d"/></linearGradient><linearGradient id="xeujd" x1="33.32" x2="33.32" y1="33.32" y2="40.72" gradientUnits="userSpaceOnUse"><stop offset="0" stop-color="#563595"/><stop offset="1" stop-color="#8c4b9d"/></linearGradient><linearGradient id="xeuje" x1="9.26" x2="9.26" y1="11.11" y2="20.36" gradientUnits="userSpaceOnUse"><stop offset="0" stop-color="#563595"/><stop offset="1" stop-color="#8c4b9d"/></linearGradient><linearGradient id="xeujf" x1="9.26" x2="9.26" y1="22.21" y2="29.62" gradientUnits="userSpaceOnUse"><stop offset="0" stop-color="#563595"/><stop offset="1" stop-color="#8c4b9d"/></linearGradient><linearGradient id="xeujg" x1="35.17" x2="35.17" y1="11.11" y2="20.36" gradientUnits="userSpaceOnUse"><stop offset="0" stop-color="#563595"/><stop offset="1" stop-color="#8c4b9d"/></linearGradient><linearGradient id="xeujh" x1="35.17" x2="35.17" y1="22.21" y2="29.62" gradientUnits="userSpaceOnUse"><stop offset="0" stop-color="#563595"/><stop offset="1" stop-color="#8c4b9d"/></linearGradient></defs><g><g><g><path fill="url(#xeuja)" d="M35.742 7.885a1.38 1.38 0 0 1-.914-.344A19.137 19.137 0 0 0 22.21 2.776a18.99 18.99 0 0 0-12.02 4.313A1.389 1.389 0 0 1 8.43 4.942 21.778 21.778 0 0 1 22.211 0a21.914 21.914 0 0 1 14.447 5.453 1.39 1.39 0 0 1-.916 2.432z"/></g><g><path fill="url(#xeujb)" d="M13.42 7.404H8.791a1.389 1.389 0 0 1-1.388-1.388V1.388a1.386 1.386 0 1 1 2.37-.981l4.626 4.628a1.39 1.39 0 0 1-.98 2.369z"/></g><g><path fill="url(#xeujc)" d="M22.434 40.721a21.906 21.906 0 0 1-14.447-5.453 1.389 1.389 0 1 1 1.832-2.088 19.125 19.125 0 0 0 12.615 4.765c4.364 0 8.632-1.531 12.02-4.313a1.39 1.39 0 0 1 1.762 2.147 21.778 21.778 0 0 1-13.782 4.942z"/></g><g><path fill="url(#xeujd)" d="M35.63 40.721c-.36 0-.715-.14-.98-.407l-4.628-4.628a1.39 1.39 0 0 1 .982-2.369h4.627c.766 0 1.388.622 1.388 1.388v4.628a1.39 1.39 0 0 1-1.388 1.388z"/></g><g><path fill="url(#xeuje)" d="M4.627 15.733a4.627 4.627 0 1 1 9.255 0 4.627 4.627 0 0 1-9.255 0z"/></g><g><path fill="url(#xeujf)" d="M13.42 22.212H5.09A5.094 5.094 0 0 0 0 27.302v.925c0 .766.622 1.388 1.388 1.388h15.733c.767 0 1.389-.622 1.389-1.388v-.925a5.094 5.094 0 0 0-5.09-5.09z"/></g><g><path fill="url(#xeujg)" d="M30.54 15.733a4.627 4.627 0 1 1 9.256 0 4.627 4.627 0 0 1-9.255 0z"/></g><g><path fill="url(#xeujh)" d="M39.333 22.212h-8.33a5.094 5.094 0 0 0-5.09 5.09v.925c0 .766.622 1.388 1.389 1.388h15.733c.766 0 1.388-.622 1.388-1.388v-.925a5.094 5.094 0 0 0-5.09-5.09z"/></g></g></g></svg>