<svg id="Layer_2" data-name="Layer 2" xmlns="http://www.w3.org/2000/svg" width="187.045" height="49.218" viewBox="0 0 187.045 49.218">
  <g id="Layer_1" data-name="Layer 1">
    <path id="Path_51" data-name="Path 51" d="M198.8,1.22h13.18V4.673H198.8Zm11.1,8.928v3.393h-6.821v9.026H198.8V10.148Z" transform="translate(-148.689 -0.912)"/>
    <path id="Path_52" data-name="Path 52" d="M272.37,21.869a10.737,10.737,0,0,1-10.95-10.95,10.935,10.935,0,0,1,21.869,0A10.712,10.712,0,0,1,272.37,21.869Zm0-3.824c3.854,0,6.513-2.773,6.513-7.126s-2.659-7.058-6.513-7.058-6.554,2.722-6.554,7.058,2.669,7.126,6.554,7.126Z" transform="translate(-195.525)"/>
    <path id="Path_53" data-name="Path 53" d="M371.231,1.21c5.14,0,7.708,2.967,7.708,6.554a6.165,6.165,0,0,1-4.862,6.148l5.107,8.656H374.23l-4.709-8.318h-2.017v8.318H363.22V1.21Zm-.154,3.549H367.5v6.269h3.577c2.387,0,3.458-1.26,3.458-3.181s-1.071-3.088-3.458-3.088Z" transform="translate(-271.665 -0.905)"/>
    <path id="Path_54" data-name="Path 54" d="M449.162,21.869c-4.436,0-7.859-2.327-7.922-6.362h4.588a2.935,2.935,0,0,0,3.242,2.843c1.981,0,3.214-1.069,3.214-2.6,0-4.618-11.013-1.835-10.98-9.578C441.3,2.324,444.421,0,448.825,0s7.373,2.233,7.648,6.087h-4.706a2.817,2.817,0,0,0-3.058-2.538c-1.684-.063-2.937.756-2.937,2.521,0,4.285,10.95,1.9,10.95,9.42C456.717,18.839,454.035,21.869,449.162,21.869Z" transform="translate(-330.019)"/>
    <path id="Path_55" data-name="Path 55" d="M512.71,1.21h4.832l4.588,9.757,4.557-9.757h4.772l-7.217,13.917V22.56h-4.285V15.127Z" transform="translate(-383.474 -0.905)"/>
    <path id="Path_56" data-name="Path 56" d="M594.85,1.21h15.666V4.666h-5.694v17.9h-4.285V4.666H594.85Z" transform="translate(-444.909 -0.905)"/>
    <path id="Path_57" data-name="Path 57" d="M685.2,13.475h-9.145V22.55H671.77V1.21h4.285V9.979H685.2V1.21h4.285V22.56H685.2Z" transform="translate(-502.44 -0.905)"/>
    <path id="Path_58" data-name="Path 58" d="M208.015,130.642H198.81V109.29h8.807c4.467,0,6.944,2.324,6.944,5.505a4.919,4.919,0,0,1-3.642,4.893,5.176,5.176,0,0,1,4.129,5.17C215.048,128.253,212.449,130.642,208.015,130.642Zm-1.008-17.9H203.09V118.1H207c2.017,0,3.181-.918,3.181-2.659s-1.162-2.692-3.181-2.692Zm.308,8.656H203.09v5.75H207.4c2.08,0,3.3-1.008,3.3-2.813s-1.316-2.937-3.4-2.937Z" transform="translate(-148.697 -81.742)"/>
    <path id="Path_59" data-name="Path 59" d="M288.413,126.5h-8.5l-1.407,4.071H274l7.678-21.378h4.986l7.683,21.378H289.81Zm-4.25-12.351-3.09,8.931h6.178Z" transform="translate(-204.934 -81.667)"/>
    <path id="Path_60" data-name="Path 60" d="M376.566,109.29c5.137,0,7.706,2.967,7.706,6.554a6.167,6.167,0,0,1-4.862,6.148l5.107,8.651h-4.953l-4.711-8.318h-2.017v8.318H368.55V109.29Zm-.154,3.549h-3.579v6.269h3.579c2.385,0,3.456-1.26,3.456-3.181s-1.071-3.088-3.456-3.088Z" transform="translate(-275.651 -81.742)"/>
    <path id="Path_61" data-name="Path 61" d="M467,109.17v21.383H462.72l-9.694-14.65v14.65H448.74V109.17h4.285l9.694,14.68V109.17Z" transform="translate(-335.628 -81.652)"/>
    <path id="Path_62" data-name="Path 62" d="M552.756,112.656H544.65v5.351h7.189v3.4H544.65v5.659h8.106v3.491H540.37V109.17h12.386Z" transform="translate(-404.161 -81.652)"/>
    <path id="Path_63" data-name="Path 63" d="M613.09,129.932c-4.434,0-7.859-2.324-7.92-6.362h4.585A2.936,2.936,0,0,0,613,126.415c1.984,0,3.219-1.071,3.219-2.6,0-4.62-11.01-1.835-10.98-9.578,0-3.854,3.118-6.178,7.524-6.178s7.37,2.231,7.645,6.085h-4.716a2.812,2.812,0,0,0-3.06-2.538c-1.681-.061-2.937.756-2.937,2.508,0,4.285,10.95,1.9,10.95,9.42C620.644,126.9,617.952,129.932,613.09,129.932Z" transform="translate(-452.628 -80.822)"/>
    <path id="Path_64" data-name="Path 64" d="M19.53,49.54H0V43.994H18.8c5.989,0,9.556-3.083,9.556-8.253,0-5.233-3.859-8.616-9.831-8.616h-.4V21.747c5.452-.2,8.938-3.277,8.938-7.93C27.062,9,23.533,6,17.871,6H0V.43H18.592c9.531,0,15.689,4.855,15.689,12.364,0,5.185-2.889,9.074-8.149,10.955l-2.077.756,2.175.381c5.162.9,9.208,6.05,9.208,11.724C35.438,44.34,29.045,49.54,19.53,49.54Z" transform="translate(0 -0.322)" fill="#8c4b9d"/>
    <path id="Path_65" data-name="Path 65" d="M0,36.32H19.157v5.019H0ZM16.132,49.294v4.93H6.223V67.332H0V49.294Z" transform="translate(0 -27.165)"/>
  </g>
</svg>
