<?xml version="1.0" encoding="UTF-8"?>
<svg id="SVGDoc" width="127" height="30" xmlns="http://www.w3.org/2000/svg" version="1.1" xmlns:xlink="http://www.w3.org/1999/xlink" xmlns:avocode="https://avocode.com/" viewBox="0 0 127 30"><defs></defs><desc>Generated with Avocode.</desc><g><g><title>logo-1</title><g><title>Path 49</title><path d="M111.59999,12.211h3.12v1.9h0.07001c0.35454,-1.25176 1.50926,-2.1065 2.80998,-2.08c1.31572,-0.11441 2.50252,0.79085 2.74002,2.09h0.13998c0.4109,-1.29596 1.64195,-2.15359 3,-2.09c0.88785,-0.03379 1.74799,0.31255 2.36469,0.95216c0.6167,0.63961 0.93146,1.51181 0.86531,2.39783v6.69h-3.23v-5.87c0,-1 -0.47,-1.56 -1.38,-1.56c-0.40843,-0.00671 -0.79942,0.1653 -1.07043,0.47093c-0.27103,0.30563 -0.39507,0.71438 -0.33957,1.11908v5.84h-3.06v-5.9c0,-1 -0.49001,-1.53 -1.37,-1.53c-0.41261,-0.00329 -0.80653,0.17182 -1.08055,0.48032c-0.274,0.30851 -0.4014,0.72034 -0.34946,1.12968l0.00002,5.82h-3.21001zM110.04999,22.061h-3.11v-1.85h-0.06c-0.3586,1.27108 -1.55133,2.12303 -2.87001,2.05c-0.97758,0.03183 -1.92228,-0.35522 -2.5965,-1.06384c-0.67423,-0.70861 -1.01386,-1.67136 -0.9335,-2.64616l0.00001,-6.33h3.21001v5.64c0,1.16 0.61,1.79 1.61,1.79c0.47469,-0.00357 0.92453,-0.21265 1.23331,-0.5732c0.30878,-0.36056 0.44617,-0.83721 0.37668,-1.3068v-5.55h3.2zM94.64999,11.981c2.69,0 4.36,1.27 4.38,3.31h-2.93c0,-0.71 -0.59,-1.15 -1.47,-1.15c-0.88,0 -1.3,0.34 -1.3,0.85c0,0.51 0.37,0.67 1.11,0.82l2.06,0.42c2,0.42 2.8,1.22 2.8,2.71c0,2 -1.85,3.36 -4.6,3.36c-2.75,0 -4.54,-1.32 -4.67,-3.33h3.11c0.09,0.73 0.67,1.16 1.61,1.16c0.94,0 1.38,-0.3 1.38,-0.83c0,-0.53 -0.3,-0.62 -1.07,-0.78l-1.86,-0.39c-1.93,-0.41 -2.94,-1.42 -2.94,-2.93c0.06,-1.96 1.74,-3.21 4.45,-3.21zM85.89999,17.141c0,-1.56 -0.73,-2.57 -1.86,-2.57c-1.13,0 -1.84,1 -1.85,2.57c-0.01,1.57 0.72,2.56 1.85,2.56c1.13,0 1.92,-0.93 1.92,-2.55zM89.16998,17.141c0,3.21 -1.44,5.07 -3.89,5.07c-1.28475,0.07925 -2.48253,-0.65139 -2.99999,-1.83h-0.06001v4.86h-3.21v-13h3.19v1.76h0.06c0.4999,-1.20207 1.6996,-1.96188 3,-1.9c2.52,-0.02 3.96999,1.83 3.96999,5.05zM74.22998,12.21099h3.25v9.86h-3.2zM74.22998,9.85099c-0.02857,-0.66895 0.35237,-1.2881 0.96238,-1.56414c0.61001,-0.27604 1.32657,-0.15354 1.81023,0.30947c0.48366,0.46301 0.63728,1.17355 0.3881,1.79501c-0.24919,0.62146 -0.85114,1.02904 -1.5207,1.02965c-0.42248,0.01074 -0.83166,-0.14823 -1.13609,-0.44138c-0.30442,-0.29314 -0.47872,-0.69603 -0.48393,-1.11862zM69.74998,17.141c0,-1.77 -0.7,-2.81 -1.79,-2.81c-1.09,0 -1.78,1 -1.78,2.81c0,1.81 0.68,2.8 1.78,2.8c1.1,0 1.81001,-0.99 1.81001,-2.79zM62.92998,17.141c0,-3.22 2,-5.15 5,-5.15c3,0 5,1.93 5,5.15c0,3.22 -1.94,5.17 -5,5.17c-3.06,0 -4.98,-1.88 -4.98,-5.17zM58.47998,17.141c0,-1.57 -0.72,-2.56 -1.86,-2.56c-1.14,0 -1.84,1 -1.84,2.56c0,1.56 0.69,2.48 1.84,2.48c1.14999,0 1.86,-0.85 1.86,-2.48zM51.75998,22.701h3.1c0.29005,0.68589 1.00136,1.09469 1.74001,1c1.23,0 1.87,-0.66 1.87,-1.64l0,-1.77904c-0.54677,1.13479 -1.73214,1.82123 -2.98999,1.72904c-2.35001,0 -3.91001,-1.79 -3.91001,-4.87c0,-3.08 1.49,-5 4,-5c1.22692,-0.06564 2.36705,0.6058 2.91001,1.69276v-1.61276h3.18v9.74c0,2.35 -2.08,3.82 -5.14,3.82c-2.78,-0.01 -4.56,-1.28 -4.74,-3.07zM47.29998,17.141c0,-1.77 -0.69,-2.81 -1.79,-2.81c-1.1,0 -1.78,1 -1.78,2.81c0,1.81 0.68,2.8 1.78,2.8c1.1,0 1.81,-0.99 1.81,-2.79zM40.47998,17.141c0,-3.22 2,-5.15 5,-5.15c3,0 5,1.93 5,5.15c0,3.22 -1.93,5.17 -5,5.17c-3.07,0 -5,-1.88 -5,-5.17zM35.98998,9.03099h3.21v13h-3.21z" fill="#ffffff" fill-opacity="1"></path></g><g><title>Path 50</title><path d="M21.27998,24.471h-16.21v-16.2h4.94c-0.09543,0.53146 -0.14561,1.07006 -0.15,1.61c0.00552,5.45981 4.43019,9.88449 9.89001,9.89c0.51264,-0.00271 1.02425,-0.04618 1.53,-0.13zM24.56998,9.88102c0.00551,2.6633 -2.15002,4.82629 -4.81332,4.82998c-2.66331,0.00368 -4.82483,-2.15334 -4.82667,-4.81665c-0.00185,-2.66331 2.15668,-4.82334 4.81999,-4.82334c2.65811,0 4.81448,2.1519 4.82,4.80999zM29.63998,9.881c0,-4.07408 -2.50018,-7.73009 -6.29637,-9.20765c-3.79567,-1.47757 -8.10961,-0.47395 -10.86363,2.52765h-12.48v26.34h26.35v-12.31c2.0917,-1.87087 3.28811,-4.54369 3.29,-7.35z" fill="#ffffff" fill-opacity="1"></path></g></g></g></svg>