<?xml version="1.0" encoding="UTF-8"?>
<svg id="SVGDoc" width="72" height="24" xmlns="http://www.w3.org/2000/svg" version="1.1" xmlns:xlink="http://www.w3.org/1999/xlink" xmlns:avocode="https://avocode.com/" viewBox="0 0 72 24"><defs></defs><desc>Generated with Avocode.</desc><g><g><title>Path 33</title><path d="M65.05978,1.50395c3.94799,0 6.86197,2.91399 6.86197,7.89597c0,7.14398 -4.69999,11.74997 -8.74197,13.81796l-2.25599,-2.81999c2.34999,-0.93999 6.01599,-4.69998 6.10998,-7.80197c-0.564,0.65799 -2.068,1.31599 -3.66599,1.31599c-2.726,0 -5.16998,-2.068 -5.16998,-5.54599c0,-4.13599 2.91399,-6.86198 6.86198,-6.86198zM46.91784,1.50395c3.94799,0 6.86198,2.91399 6.86198,7.89597c0,7.14398 -4.69998,11.74997 -8.74197,13.81796l-2.25599,-2.81999c2.34999,-0.93999 6.01598,-4.69998 6.10998,-7.80197c-0.564,0.65799 -2.068,1.31599 -3.66599,1.31599c-2.726,0 -5.16999,-2.068 -5.16999,-5.54599c0,-4.13599 2.914,-6.86198 6.86198,-6.86198zM18.34194,13.8179c0,-7.14398 4.69998,-11.74997 8.74197,-13.81795l2.25599,2.81998c-2.34999,0.94 -6.01598,4.69999 -6.10998,7.80198c0.564,-0.65801 2.068,-1.316 3.66599,-1.316c2.72599,0 5.16998,2.06799 5.16998,5.54598c0,4.13599 -2.91398,6.86198 -6.86197,6.86198c-3.94799,0 -6.86198,-2.91399 -6.86198,-7.89597zM7.06198,21.71387c-3.94798,0 -6.86197,-2.91399 -6.86197,-7.89597c0,-7.14398 4.69998,-11.74997 8.74197,-13.81795l2.25599,2.81998c-2.34999,0.94 -6.01598,4.69999 -6.10998,7.80198c0.564,-0.65801 2.06799,-1.316 3.66599,-1.316c2.72599,0 5.16998,2.06799 5.16998,5.54598c0,4.13599 -2.91399,6.86198 -6.86197,6.86198z" fill="#ffffff" fill-opacity="1"></path></g></g></svg>